<svg
  width="64"
  height="64"
  viewBox="0 0 64 64"
  fill="none"
  xmlns="http://www.w3.org/2000/svg"
>
  <title>Agency Logo</title>
  <path
    d="M53.9787 55.2533H53.072C52.5564 55.2533 52.384 55.1431 52.384 54.5956V51.5769L54.9493 47.008C55.2782 46.4285 55.4649 46.2258 56.0764 46.2258H56.2009V45.4898H52.6187V46.2258H52.8853C53.6213 46.2258 53.9644 46.3502 53.9644 46.8053C53.9644 46.9618 53.9022 47.1502 53.792 47.3529L52.0089 50.6542L49.8347 47.024C49.7102 46.8213 49.632 46.6489 49.632 46.5227C49.632 46.288 49.8666 46.2258 50.32 46.2258H50.9458V45.4898H46.784V46.2258H46.9244C47.504 46.2258 47.6747 46.5067 47.9733 47.008L50.7893 51.6551V54.5956C50.7893 55.0329 50.6489 55.2533 50.288 55.2533H50.0995H49.1769V55.9893H53.9804V55.2533H53.9787ZM34.5653 46.2258C34.0178 45.6 33.1893 45.2551 32.1564 45.2551C29.6533 45.2551 27.76 47.5698 27.76 50.7467C27.76 54.048 29.7155 56.2685 32.2649 56.2685C34.3449 56.2685 35.8471 54.8445 36.1138 52.3733L35.3475 52.2791C34.9404 54.4231 33.9395 55.5022 32.4213 55.5022C30.4195 55.5022 29.5111 53.9378 29.5111 50.7467C29.5111 47.5556 30.4498 45.9431 32.3591 45.9431C33.7831 45.9431 34.784 47.1947 35.1751 49.6036H35.8471L35.6747 45.3173H35.0329L34.5653 46.2258ZM9.0951 53.4862V53.5485C9.0951 54.768 8.92266 55.2693 7.88977 55.3156V55.9876H11.1751V55.3156H11.0347C10.096 55.3156 9.84533 54.8302 9.84533 53.6409V53.4845V47.4613L14.4764 56.2382H15.3689V47.9929C15.3689 46.6951 15.5573 46.1778 16.6044 46.1618V45.4898H13.2889V46.1618H13.3511C14.352 46.1618 14.6347 46.5529 14.6347 47.7885V47.9911V53.3885L10.5209 45.488H7.89155V46.208C8.67377 46.224 8.94044 46.208 9.09688 46.6773V53.4862H9.0951ZM37.4115 37.216H45.4684L45.6711 33.2107H45.0133C44.528 36.1511 44.0427 36.528 41.5715 36.528C40.6649 36.528 40.336 36.496 40.336 35.856V32.0853H40.4142C41.76 32.0853 42.2293 32.5387 42.3378 34.0729H43.0258V29.4116H42.3378C42.2275 30.944 41.7582 31.3991 40.4142 31.3991H40.336V28.0818C40.336 27.488 40.6169 27.424 41.4471 27.424C43.6373 27.424 44.2471 27.7831 44.6382 30.4587H45.3422L45.1555 26.7182H37.4115V27.4542C38.4747 27.4702 38.7413 27.4222 38.7413 28.1262V35.808C38.7413 36.512 38.4907 36.4658 37.4115 36.48V37.216ZM26.6009 32.3965H22.6275V33.1325H23.3938H23.504C23.8169 33.1325 23.8951 33.3511 23.8951 33.8685V34.5725C23.8951 36.0125 23.2071 36.7627 22.112 36.7627C20.4373 36.7627 19.6551 35.1822 19.6551 31.9751C19.6551 28.768 20.4373 27.1716 22.048 27.1716C23.3938 27.1716 24.192 28.3129 24.5973 30.7076H25.3173L25.1769 26.5298H24.4889L24.1138 27.4525C24.0355 26.9991 22.9867 26.4676 21.9075 26.4676C19.6231 26.4676 17.8862 28.5796 17.8862 31.9751C17.8862 35.3707 19.6231 37.4667 22.032 37.4667C23.2515 37.4667 24.2684 36.8249 24.3164 36.1049L24.6915 37.4667H25.3635V33.7902C25.3635 33.2267 25.4738 33.1325 25.8649 33.1325H26.6009V32.3965ZM31.5147 10.1031L33.0009 14.2489H30.0747L31.5147 10.1031ZM35.5662 17.0027L32.2027 7.77245H31.5609L28.464 16.5013C28.1511 17.3778 27.9164 17.7067 27.1662 17.7067H27.0098V18.4427H30.5458V17.7067H30.4053C29.6231 17.7067 29.248 17.5822 29.248 17.0187C29.248 16.8302 29.3102 16.4551 29.4204 16.1582L29.8435 15.0471H33.2391L33.8489 16.8462C33.9271 17.0649 33.9591 17.2373 33.9591 17.3618C33.9591 17.7209 33.6 17.6907 32.6613 17.7067V18.4427H36.7289V17.7067C35.9573 17.6907 35.8009 17.6445 35.5662 17.0027Z"
    fill="currentColor"
  />
</svg>
