<svg viewBox="0 0 112 26" fill="none" xmlns="https://www.w3.org/2000/svg">
  <title>Curology Wordmark</title>
  <path d="M39.0011 8.35194L38.596 6.22257H35.6894V19.4247H39.287V13.3915C39.287 10.5523 40.8832 9.65322 42.7177 9.65322C43.0513 9.65322 43.3848 9.67688 43.7898 9.77152V6.17525C43.5278 6.15159 43.2419 6.12793 42.956 6.12793C41.8362 6.12793 39.7396 6.60112 39.0011 8.35194Z" fill="currentColor"/>
  <path d="M64.8985 0H61.301V19.4246H64.8985V0Z" fill="currentColor"/>
  <path d="M10.054 16.2069C6.98064 16.2069 3.8596 13.9829 3.8596 9.93707C3.8596 5.60735 7.14742 3.57261 10.0064 3.57261C12.2221 3.57261 13.723 4.61364 14.7713 6.24616L17.4635 3.88019C15.8434 1.53788 13.2704 0 10.0064 0C4.86024 0 0 3.85653 0 9.93707C0 15.9939 4.69347 19.8268 10.054 19.8268C13.318 19.8268 15.9149 18.1943 17.535 15.9939L15.0096 13.8173C14.0328 15.1895 12.1744 16.2069 10.054 16.2069Z" fill="currentColor"/>
  <path d="M52.2 5.82031C48.2213 5.82031 45.1002 8.75411 45.1002 12.8236C45.1002 16.8694 48.2213 19.8268 52.2 19.8268C56.1787 19.8268 59.2998 16.8694 59.2998 12.8236C59.2998 8.75411 56.1787 5.82031 52.2 5.82031ZM52.2 16.5855C50.437 16.5855 48.6978 15.3078 48.6978 12.8236C48.6978 10.3393 50.437 9.06169 52.2 9.06169C53.963 9.06169 55.7022 10.3157 55.7022 12.8236C55.7022 15.3315 53.963 16.5855 52.2 16.5855Z" fill="currentColor"/>
  <path d="M74.1663 5.82031C70.1876 5.82031 67.0666 8.75411 67.0666 12.8236C67.0666 16.8694 70.1876 19.8268 74.1663 19.8268C78.1451 19.8268 81.2661 16.8694 81.2661 12.8236C81.2661 8.75411 78.1212 5.82031 74.1663 5.82031ZM74.1663 16.5855C72.4033 16.5855 70.6641 15.3078 70.6641 12.8236C70.6641 10.3393 72.4033 9.06169 74.1663 9.06169C75.9294 9.06169 77.6686 10.3157 77.6686 12.8236C77.6686 15.3315 75.9056 16.5855 74.1663 16.5855Z" fill="currentColor"/>
  <path d="M28.5182 13.9118C28.5182 15.4497 27.589 16.5144 26.0166 16.5144C24.3489 16.5144 23.5865 15.3314 23.5865 13.8645V6.22241H19.9651V14.5743C19.9651 17.4371 21.7996 19.7794 25.016 19.7794C26.4216 19.7794 27.9702 19.2352 28.685 18.0049L28.947 19.4245H32.0919V17.0349V6.22241H28.4944V13.9118H28.5182Z" fill="currentColor"/>
  <path d="M93.6788 4.54272L91.8919 6.3172C91.1534 6.00963 90.3195 5.82035 89.438 5.82035C86.1263 5.82035 83.6009 8.04436 83.6009 11.2857C83.6009 12.9892 84.5539 14.5744 85.6975 15.3789C85.0542 15.8047 84.4586 16.3726 84.1012 17.0824L84.0298 17.248L86.8173 18.6202L86.8887 18.4546C87.3414 17.5082 88.3659 16.8931 89.4618 16.8931C91.0819 16.8931 92.3208 18.0761 92.3208 19.7796C92.3208 21.3174 91.0104 22.5477 89.4618 22.5477C88.5803 22.5477 87.3652 22.1219 86.8649 20.9152L86.7934 20.7496L83.9345 22.1455L84.0059 22.3111C84.9589 24.2749 87.0317 25.4815 89.4141 25.4815C92.8687 25.4815 95.4895 23.1392 95.4895 19.8979C95.4895 17.9578 94.4888 16.4435 93.1546 15.3789C94.3935 14.4088 95.275 12.9892 95.275 11.3094C95.275 9.88981 94.8462 8.99075 94.1076 8.0207L95.6324 6.50648L93.6788 4.54272ZM89.438 13.9356C87.9847 13.9356 86.8411 12.8236 86.8411 11.3331C86.8411 9.77152 87.9847 8.73049 89.438 8.73049C90.9389 8.73049 92.0349 9.81883 92.0349 11.3331C92.0587 12.8473 90.9628 13.9356 89.438 13.9356Z" fill="currentColor"/>
  <path d="M108.164 6.22241L104.733 13.6042L101.35 6.22241H97.324L102.804 17.4134L102.542 17.934L98.7058 25.3158H102.518L112 6.22241H108.164Z" fill="currentColor"/>
</svg>
