<svg viewBox="0 0 48 48" fill="none" xmlns="http://www.w3.org/2000/svg">
  <title>Female Glyph</title>
  <path d="M32.11 26.0201C34.1 24.0101 35.18 21.3501 35.17 18.5201C35.15 15.6901 34.04 13.0401 32.03 11.0501C30.03 9.08006 27.39 8.00006 24.59 8.00006C24.57 8.00006 24.55 8.00006 24.53 8.00006C21.7 8.02006 19.05 9.13006 17.06 11.1401C15.07 13.1501 13.98 15.8201 14 18.6401C14.02 21.4601 15.13 24.1201 17.14 26.1101C19 27.9401 21.42 29.0001 24 29.1401V32.9301H18.98V34.2201H24V39.9901H25.16V34.2201H30.18V32.9301H25.16V29.1401C27.79 28.9901 30.24 27.9101 32.11 26.0201ZM15.25 18.6401C15.24 16.1501 16.19 13.8001 17.95 12.0301C19.7 10.2601 22.04 9.27006 24.53 9.26006C24.55 9.26006 24.57 9.26006 24.58 9.26006C27.05 9.26006 29.38 10.2201 31.14 11.9601C32.91 13.7101 33.9 16.0501 33.91 18.5401C33.92 21.0301 32.97 23.3801 31.21 25.1501C29.46 26.9201 27.12 27.9101 24.63 27.9201C24.61 27.9201 24.59 27.9201 24.58 27.9201C22.11 27.9201 19.78 26.9601 18.02 25.2201C16.25 23.4701 15.26 21.1301 15.25 18.6401Z" fill="currentColor"/>
</svg>