<svg viewBox="0 0 48 48" fill="none" xmlns="http://www.w3.org/2000/svg">
  <title>Superbottle Glyph</title>
  <path d="M28.927 11.9559C28.7324 10.6176 26.3966 10 23.9635 10C21.5304 10 19.1946 10.6176 19 11.9559C19 11.9559 19 12.0588 19 12.1618V35.8382C19 37.2794 21.5304 38 23.9635 38C26.3966 38 28.927 37.3824 28.927 35.8382V12.1618C29.0243 12.0588 29.0243 11.9559 28.927 11.9559ZM20.5572 11.9559C21.0438 11.6471 22.2117 11.3382 24.0608 11.3382C25.91 11.3382 27.0779 11.6471 27.5645 11.9559C27.5645 11.9559 27.6618 12.0588 27.7591 12.1618C27.4672 12.3676 26.2019 12.9853 23.9635 12.9853C21.7251 12.9853 20.4599 12.3676 20.2652 12.1618C20.2652 12.0588 20.3625 11.9559 20.5572 11.9559ZM20.1679 13.6029C21.1411 14.0147 22.5036 14.2206 23.9635 14.2206C25.4234 14.2206 26.7859 14.0147 27.7591 13.6029V21.1176C27.6618 21.4265 26.3966 22.0441 23.9635 22.0441C21.5304 22.0441 20.2652 21.4265 20.1679 21.2206V13.6029ZM23.9635 36.6618C21.6277 36.6618 20.3625 36.0441 20.1679 35.8382V22.5588C21.1411 22.9706 22.5036 23.1765 23.9635 23.1765C25.326 23.1765 26.7859 22.9706 27.7591 22.5588V35.7353C27.6618 36.0441 26.3966 36.6618 23.9635 36.6618Z" fill="currentColor"/>
</svg>
