<svg viewBox="0 0 32 38" fill="none" xmlns="http://www.w3.org/2000/svg">
  <title>Anxious Selected Emoji</title>
  <path fill-rule="evenodd" clip-rule="evenodd" d="M11.4517 0.7845L12.4249 0L14.6905 2.81074L13.7173 3.59524L11.4517 0.7845ZM17.8166 2.81334L20.0841 0.00439461L21.0567 0.78952L18.7892 3.59846L17.8166 2.81334ZM16.25 25.7573C17.3049 25.7573 18.16 25.2917 18.16 24.7173C18.16 24.1429 17.3049 23.6773 16.25 23.6773C15.1951 23.6773 14.34 24.1429 14.34 24.7173C14.34 25.2917 15.1951 25.7573 16.25 25.7573ZM0 21.0073C0 12.1673 7.16 5.00732 16 5.00732C24.84 5.00732 32 12.1673 32 21.0073C32 29.8473 24.84 37.0073 16 37.0073C7.16 37.0073 0 29.8473 0 21.0073ZM8.34999 13.8373L4.79999 16.0473L5.45999 17.1073L9.00999 14.8973L8.34999 13.8373ZM7.68999 19.9673C7.68999 20.6173 8.22 21.1473 8.87 21.1473C9.52999 21.1473 10.05 20.6173 10.05 19.9673C10.05 19.3173 9.51999 18.7873 8.87 18.7873C8.22 18.7873 7.68999 19.3173 7.68999 19.9673ZM13.34 24.7173C13.34 25.8573 14.62 26.7573 16.25 26.7573C17.88 26.7573 19.16 25.8573 19.16 24.7173C19.16 23.5773 17.88 22.6773 16.25 22.6773C14.62 22.6773 13.34 23.5773 13.34 24.7173ZM22.18 19.9673C22.18 20.6173 22.71 21.1473 23.36 21.1473C24.01 21.1473 24.54 20.6173 24.54 19.9673C24.54 19.3173 24.01 18.7873 23.36 18.7873C22.71 18.7873 22.18 19.3173 22.18 19.9673ZM22.26 14.8973L25.81 17.1073L26.47 16.0473L22.92 13.8373L22.26 14.8973Z" fill="currentColor"/>
</svg>
