<svg viewBox="0 0 27 33" xmlns="http://www.w3.org/2000/svg" xmlns:xlink="http://www.w3.org/1999/xlink">
  <title>Anxious Emoji</title>
  <g fill="none" fill-rule="evenodd">
    <g transform="translate(0 5.084)">
      <path fill="currentColor" d="M13.3291,1.71818308 C6.7236,1.71818308 1.3496,7.17486 1.3496,13.8814754 C1.3496,20.5880908 6.7236,26.0447677 13.3291,26.0447677 C19.9341,26.0447677 25.3081,20.5880908 25.3081,13.8814754 C25.3081,7.17486 19.9341,1.71818308 13.3291,1.71818308 M13.3291,27.4155369 C5.9796,27.4155369 0.0001,21.3440446 0.0001,13.8814754 C0.0001,6.41890615 5.9796,0.347413846 13.3291,0.347413846 C20.6786,0.347413846 26.6576,6.41890615 26.6576,13.8814754 C26.6576,21.3440446 20.6786,27.4155369 13.3291,27.4155369"/>
    </g>
    <path fill="currentColor" d="M19.30975 18.5290938C18.74975 18.5290938 18.29625 18.0686169 18.29625 17.5005092 18.29625 16.9324015 18.74975 16.4719246 19.30975 16.4719246 19.86925 16.4719246 20.32275 16.9324015 20.32275 17.5005092 20.32275 18.0686169 19.86925 18.5290938 19.30975 18.5290938zM21.9536 16.0854692C21.8826 16.0854692 21.8116 16.0651615 21.7481 16.0225154L19.0806 14.2389923C18.9071 14.1232385 18.8596 13.8871615 18.9736 13.7115 19.0871 13.5363462 19.3196 13.4871 19.4926 13.6028538L22.1601 15.3868846C22.3336 15.5021308 22.3811 15.7382077 22.2671 15.9143769 22.1951 16.0250538 22.0756 16.0854692 21.9536 16.0854692M6.09815 17.5005092C6.09815 18.0686169 6.55165 18.5290938 7.11115 18.5290938 7.67115 18.5290938 8.12465 18.0686169 8.12465 17.5005092 8.12465 16.9324015 7.67115 16.4719246 7.11115 16.4719246 6.55165 16.4719246 6.09815 16.9324015 6.09815 17.5005092M4.4673 16.0854692C4.3453 16.0854692 4.2258 16.0250538 4.1538 15.9143769 4.0398 15.7382077 4.0873 15.5026385 4.2608 15.3868846L6.9283 13.6028538C7.1013 13.4871 7.3338 13.5363462 7.4473 13.7115 7.5613 13.8871615 7.5138 14.1232385 7.3403 14.2389923L4.6728 16.0225154C4.6093 16.0651615 4.5383 16.0854692 4.4673 16.0854692"/>
    <path fill="currentColor" fill-opacity=".2" d="M23.1494 20.8912338C23.1494 21.7517723 22.4624 22.4493415 21.6149 22.4493415 20.7669 22.4493415 20.0799 21.7517723 20.0799 20.8912338 20.0799 20.0301877 20.7669 19.3326185 21.6149 19.3326185 22.4624 19.3326185 23.1494 20.0301877 23.1494 20.8912338M6.375 20.8912338C6.375 21.7517723 5.6875 22.4493415 4.84 22.4493415 3.992 22.4493415 3.305 21.7517723 3.305 20.8912338 3.305 20.0301877 3.992 19.3326185 4.84 19.3326185 5.6875 19.3326185 6.375 20.0301877 6.375 20.8912338"/>
    <path fill="currentColor" d="M11.92725 2.99132308C11.75075 2.99132308 11.59425 2.8644 11.55975 2.68264615L11.13725.452861538C11.09825.246230769 11.23075.0467076923 11.43475.00710769231 11.63625-.033 11.83375.102553846 11.87375.308676923L12.29575 2.53846154C12.33475 2.74509231 12.20225 2.94461538 11.99875 2.98421538 11.97475 2.98929231 11.95075 2.99132308 11.92725 2.99132308M15.50585 2.99132308C15.48235 2.99132308 15.45835 2.98929231 15.43435 2.98421538 15.23085 2.94461538 15.09835 2.74509231 15.13735 2.53846154L15.55935.308676923C15.59835.102553846 15.79235-.033 15.99835.00710769231 16.20235.0467076923 16.33485.246230769 16.29585.452861538L15.87335 2.68264615C15.83885 2.8644 15.68235 2.99132308 15.50585 2.99132308"/>
  </g>
</svg>
