<svg width="48" height="48" viewBox="0 0 48 48" fill="none" xmlns="http://www.w3.org/2000/svg">
  <title>Anxious Emoji</title>
  <path
    d="M18.54 31.47C18.32 31.47 18.11 31.38 17.96 31.2C17.7 30.88 17.74 30.41 18.06 30.14L20.86 27.82C21.08 27.63 21.39 27.6 21.66 27.72C21.92 27.84 22.09 28.11 22.09 28.4V29.06L23.5 27.83C23.72 27.64 24.04 27.59 24.3 27.71C24.57 27.83 24.74 28.1 24.74 28.39V29.11L26.31 27.81C26.53 27.62 26.84 27.59 27.11 27.71C27.37 27.83 27.54 28.1 27.54 28.39V29.05L28.95 27.82C29.26 27.55 29.74 27.58 30.01 27.89C30.28 28.2 30.25 28.68 29.94 28.95L27.29 31.27C27.07 31.47 26.75 31.51 26.49 31.39C26.22 31.27 26.05 31 26.05 30.71V30L24.48 31.3C24.26 31.49 23.95 31.52 23.68 31.4C23.42 31.28 23.25 31.01 23.25 30.72V30.06L21.84 31.29C21.62 31.48 21.3 31.53 21.04 31.41C20.77 31.29 20.6 31.02 20.6 30.73V30L19.03 31.3C18.88 31.41 18.71 31.47 18.54 31.47Z"
    fill="currentColor"
  />
  <path
    d="M35.31 23.88C32.64 23.88 30.62 21.88 30.62 19.23C30.62 17.31 31.8 15.77 32.76 14.54C34.54 12.23 34.57 8.78 34.57 8.75C34.57 8.34 34.9 8.01 35.31 8C35.74 8.01 36.06 8.32 36.07 8.73C36.07 8.77 36.21 12.45 37.78 14.55C37.93 14.75 38.09 14.95 38.25 15.15C39.06 16.19 40 17.38 40 19.08C40 21.95 38.11 23.88 35.31 23.88ZM35.3 12.91C35 13.76 34.58 14.63 33.99 15.4C33.05 16.62 32.12 17.82 32.12 19.24C32.12 21.06 33.46 22.39 35.31 22.39C37.28 22.39 38.5 21.12 38.5 19.09C38.5 17.91 37.83 17.07 37.05 16.09C36.88 15.88 36.72 15.67 36.56 15.46C36 14.69 35.6 13.8 35.3 12.91Z"
    fill="currentColor"
  />
  <path
    d="M23.99 40C15.17 40 8 32.82 8 24C8 15.18 15.17 8 23.99 8C26.88 8 29.71 8.78 32.18 10.26C32.54 10.47 32.65 10.93 32.44 11.29C32.23 11.65 31.77 11.76 31.41 11.55C29.18 10.21 26.61 9.51 23.99 9.51C16 9.5 9.5 16 9.5 24C9.5 32 16 38.5 23.99 38.5C31.53 38.5 37.74 32.84 38.42 25.33C38.46 24.92 38.82 24.62 39.23 24.65C39.64 24.69 39.95 25.05 39.91 25.46C39.16 33.75 32.32 40 23.99 40Z"
    fill="currentColor"
  />
</svg>
