<svg
  width="48"
  height="48"
  viewBox="0 0 48 48"
  fill="none"
  xmlns="http://www.w3.org/2000/svg"
>
  <title>Anxious Selected Emoji</title>
  <path
    d="M31.37 19.2C31.37 21.48 33.12 23.09 35.31 23.09C37.72 23.09 39.25 21.48 39.25 19.04C39.25 17.31 38.08 16.19 37.16 14.96C35.43 12.64 35.3 8.72 35.3 8.72C35.3 8.72 35.3 12.42 33.38 14.9C32.45 16.13 31.37 17.5 31.37 19.2Z"
    fill="#2D2A26"
  />
  <path
    d="M39.89 22.2C38.96 23.69 37.32 24.59 35.31 24.59C32.21 24.59 29.87 22.27 29.87 19.2C29.87 17.02 31.14 15.37 32.16 14.05L32.21 13.99C32.87 13.14 33.25 12.08 33.48 11.14C30.82 9.18 27.55 8 24 8C15.18 8 8 15.18 8 24C8 32.82 15.18 40 24 40C32.82 40 40 32.82 40 24C40 23.39 39.96 22.79 39.89 22.2ZM29.93 28.97L27.28 31.29C27.06 31.49 26.74 31.53 26.48 31.41C26.21 31.29 26.04 31.02 26.04 30.73V30L24.47 31.3C24.25 31.48 23.93 31.52 23.67 31.4C23.41 31.28 23.24 31.01 23.24 30.72V30.05L21.83 31.28C21.61 31.48 21.29 31.52 21.03 31.4C20.76 31.28 20.59 31.01 20.59 30.72V30L19.02 31.3C18.88 31.42 18.71 31.47 18.54 31.47C18.32 31.47 18.11 31.38 17.96 31.2C17.7 30.88 17.74 30.41 18.06 30.14L20.86 27.82C21.08 27.63 21.4 27.6 21.66 27.72C21.92 27.84 22.09 28.11 22.09 28.4V29.07L23.5 27.84C23.72 27.65 24.04 27.6 24.3 27.72C24.57 27.84 24.74 28.11 24.74 28.4V29.12L26.31 27.82C26.53 27.63 26.85 27.6 27.11 27.72C27.37 27.84 27.54 28.11 27.54 28.4V29.07L28.95 27.84C29.26 27.56 29.74 27.6 30.01 27.91C30.27 28.22 30.24 28.69 29.93 28.97Z"
    fill="#2D2A26"
  />
</svg>
