<svg viewBox="0 0 32 37" fill="none" xmlns="http://www.w3.org/2000/svg">
  <title>Anxious Emoji</title>
  <path fill-rule="evenodd" clip-rule="evenodd" d="M20.086 0L17.8186 2.80894L18.7912 3.59407L21.0586 0.785125L20.086 0ZM11.4433 0.788895L12.4164 0.00439452L14.6821 2.81478L13.7089 3.59928L11.4433 0.788895ZM4.78595 16.0372L8.33769 13.8335L8.99669 14.8956L5.44495 17.0993L4.78595 16.0372ZM22.2568 14.8979L22.9161 13.8359L26.4675 16.0409L25.8081 17.1029L22.2568 14.8979ZM23.36 21.1315C24.0117 21.1315 24.54 20.6032 24.54 19.9515C24.54 19.2998 24.0117 18.7715 23.36 18.7715C22.7083 18.7715 22.18 19.2998 22.18 19.9515C22.18 20.6032 22.7083 21.1315 23.36 21.1315ZM10.05 19.9515C10.05 20.6032 9.52171 21.1315 8.87001 21.1315C8.21831 21.1315 7.69 20.6032 7.69 19.9515C7.69 19.2998 8.21831 18.7715 8.87001 18.7715C9.52171 18.7715 10.05 19.2998 10.05 19.9515ZM16.25 26.7514C14.62 26.7514 13.34 25.8514 13.34 24.7114C13.34 23.5714 14.62 22.6714 16.25 22.6714C17.88 22.6714 19.16 23.5714 19.16 24.7114C19.16 25.8514 17.88 26.7514 16.25 26.7514ZM16.25 23.6714C15.12 23.6714 14.34 24.2214 14.34 24.7114C14.34 25.2014 15.12 25.7514 16.25 25.7514C17.38 25.7514 18.16 25.2014 18.16 24.7114C18.16 24.2214 17.38 23.6714 16.25 23.6714ZM30.75 20.9912C30.75 12.8612 24.13 6.24121 16 6.24121C7.87 6.24121 1.25 12.8612 1.25 20.9912C1.25 29.1212 7.87 35.7412 16 35.7412C24.13 35.7412 30.75 29.1212 30.75 20.9912ZM0 20.9912C0 12.1512 7.16 4.99121 16 4.99121C24.84 4.99121 32 12.1612 32 20.9912C32 29.8312 24.84 36.9912 16 36.9912C7.16 36.9912 0 29.8312 0 20.9912Z" fill="currentColor"/>
</svg>
