<svg viewBox="0 0 27 33" xmlns="http://www.w3.org/2000/svg" xmlns:xlink="http://www.w3.org/1999/xlink">
  <title>Anxious Emoji (Filled)</title>
  <g fill="none" fill-rule="evenodd">
    <g transform="translate(0 5.084)">
      <path fill="currentColor" d="M22.2671,10.8298385 C22.1951,10.9410231 22.0756,11.0009308 21.9536,11.0009308 C21.8826,11.0009308 21.8116,10.9806231 21.7481,10.9384846 L19.0806,9.15496154 C18.9071,9.03920769 18.8596,8.80262308 18.9736,8.62746923 C19.0871,8.45180769 19.3196,8.40306923 19.4926,8.51882308 L22.1601,10.3023462 C22.3336,10.4175923 22.3816,10.6541769 22.2671,10.8298385 M19.3096,13.4449615 C18.7501,13.4449615 18.2966,12.9844846 18.2966,12.4163769 C18.2966,11.8477615 18.7501,11.3872846 19.3096,11.3872846 C19.8691,11.3872846 20.3221,11.8477615 20.3221,12.4163769 C20.3221,12.9844846 19.8691,13.4449615 19.3096,13.4449615 M7.1111,13.4449615 C6.5516,13.4449615 6.0981,12.9844846 6.0981,12.4163769 C6.0981,11.8477615 6.5516,11.3872846 7.1111,11.3872846 C7.6711,11.3872846 8.1246,11.8477615 8.1246,12.4163769 C8.1246,12.9844846 7.6711,13.4449615 7.1111,13.4449615 M4.4671,11.0009308 C4.3451,11.0009308 4.2256,10.9410231 4.1536,10.8298385 C4.0396,10.6541769 4.0876,10.4181 4.2606,10.3023462 L6.9281,8.51882308 C7.1011,8.40306923 7.3341,8.45180769 7.4471,8.62746923 C7.5616,8.80313077 7.5136,9.03920769 7.3401,9.15496154 L4.6731,10.9384846 C4.6096,10.9806231 4.5381,11.0009308 4.4671,11.0009308 M13.3291,0.347515385 C5.9796,0.347515385 0.0001,6.41900769 0.0001,13.8815769 C0.0001,21.3441462 5.9796,27.4151308 13.3291,27.4151308 C20.6786,27.4151308 26.6576,21.3441462 26.6576,13.8815769 C26.6576,6.41900769 20.6786,0.347515385 13.3291,0.347515385"/>
    </g>
    <path fill="currentColor" d="M11.92725 2.99132308C11.75075 2.99132308 11.59425 2.8644 11.55975 2.68264615L11.13725.452861538C11.09825.246230769 11.23075.0467076923 11.43475.00710769231 11.63625-.033 11.83375.102553846 11.87375.308676923L12.29575 2.53846154C12.33475 2.74509231 12.20225 2.94461538 11.99875 2.98421538 11.97475 2.98929231 11.95075 2.99132308 11.92725 2.99132308M15.50585 2.99132308C15.48235 2.99132308 15.45835 2.98929231 15.43435 2.98421538 15.23085 2.94461538 15.09835 2.74509231 15.13735 2.53846154L15.55935.308676923C15.59835.102553846 15.79235-.033 15.99835.00710769231 16.20235.0467076923 16.33485.246230769 16.29585.452861538L15.87335 2.68264615C15.83885 2.8644 15.68235 2.99132308 15.50585 2.99132308"/>
  </g>
</svg>
