<svg viewBox="0 0 48 48" fill="none" xmlns="https://www.w3.org/2000/svg">
  <title>Anxious Selected Emoji</title>
  <path fill-rule="evenodd" clip-rule="evenodd" d="M19.4517 3.7845L20.4249 3L22.6905 5.81074L21.7173 6.59524L19.4517 3.7845ZM25.8166 5.81334L28.0841 3.00439L29.0567 3.78952L26.7892 6.59846L25.8166 5.81334ZM24.25 28.7526C25.3048 28.7526 26.16 28.2869 26.16 27.7126C26.16 27.1382 25.3048 26.6726 24.25 26.6726C23.1951 26.6726 22.34 27.1382 22.34 27.7126C22.34 28.2869 23.1951 28.7526 24.25 28.7526ZM8 24.0042C8 15.1659 15.16 8.00732 24 8.00732C32.84 8.00732 40 15.1659 40 24.0042C40 32.8424 32.84 40.001 24 40.001C15.16 40.001 8 32.8424 8 24.0042ZM16.35 16.8356L12.8 19.0451L13.46 20.1049L17.01 17.8954L16.35 16.8356ZM15.69 22.9644C15.69 23.6142 16.22 24.1441 16.87 24.1441C17.53 24.1441 18.05 23.6142 18.05 22.9644C18.05 22.3145 17.52 21.7846 16.87 21.7846C16.22 21.7846 15.69 22.3145 15.69 22.9644ZM21.34 27.7134C21.34 28.8532 22.62 29.753 24.25 29.753C25.88 29.753 27.16 28.8532 27.16 27.7134C27.16 26.5736 25.88 25.6738 24.25 25.6738C22.62 25.6738 21.34 26.5736 21.34 27.7134ZM30.18 22.9644C30.18 23.6142 30.71 24.1441 31.36 24.1441C32.01 24.1441 32.54 23.6142 32.54 22.9644C32.54 22.3145 32.01 21.7846 31.36 21.7846C30.71 21.7846 30.18 22.3145 30.18 22.9644ZM30.26 17.8954L33.81 20.1049L34.47 19.0451L30.92 16.8356L30.26 17.8954Z" fill="currentColor"/>
</svg>
