<svg viewBox="0 0 48 48" fill="none" xmlns="https://www.w3.org/2000/svg">
  <title>Confused Emoji</title>
  <path fill-rule="evenodd" clip-rule="evenodd" d="M38.75 24C38.75 15.87 32.13 9.25 24 9.25C15.87 9.25 9.25 15.86 9.25 24C9.25 32.14 15.87 38.75 24 38.75C32.13 38.75 38.75 32.13 38.75 24ZM8 24C8 15.16 15.16 8 24 8C32.84 8 40 15.17 40 24C40 32.84 32.84 40 24 40C15.16 40 8 32.84 8 24ZM29.55 20.715H33.17V19.465H29.55V20.715ZM31.36 24.1395C32.0117 24.1395 32.54 23.6112 32.54 22.9595C32.54 22.3078 32.0117 21.7795 31.36 21.7795C30.7083 21.7795 30.18 22.3078 30.18 22.9595C30.18 23.6112 30.7083 24.1395 31.36 24.1395ZM18.05 22.9595C18.05 23.6112 17.5217 24.1395 16.87 24.1395C16.2183 24.1395 15.69 23.6112 15.69 22.9595C15.69 22.3078 16.2183 21.7795 16.87 21.7795C17.5217 21.7795 18.05 22.3078 18.05 22.9595ZM14.63 19.1098C14.63 17.7337 15.7439 16.6198 17.12 16.6198C17.8665 16.6198 18.545 16.944 18.9996 17.4744L18.2404 18.1252C17.975 17.8156 17.5735 17.6198 17.12 17.6198C16.2962 17.6198 15.63 18.286 15.63 19.1098H14.63ZM22.34 27.7196C22.34 27.5236 22.4652 27.2756 22.8151 27.052C23.1594 26.832 23.6653 26.6796 24.25 26.6796C24.8348 26.6796 25.3407 26.832 25.6849 27.052C26.0349 27.2756 26.16 27.5236 26.16 27.7196C26.16 27.9156 26.0349 28.1636 25.6849 28.3872C25.3407 28.6072 24.8347 28.7596 24.25 28.7596C23.6653 28.7596 23.1594 28.6072 22.8151 28.3872C22.4652 28.1636 22.34 27.9156 22.34 27.7196ZM24.25 25.6796C23.5037 25.6796 22.8047 25.8719 22.2767 26.2093C21.7544 26.5431 21.34 27.0651 21.34 27.7196C21.34 28.3741 21.7544 28.8961 22.2767 29.2299C22.8047 29.5673 23.5037 29.7596 24.25 29.7596C24.9963 29.7596 25.6954 29.5673 26.2234 29.2299C26.7457 28.8961 27.16 28.3741 27.16 27.7196C27.16 27.0651 26.7457 26.5431 26.2234 26.2093C25.6954 25.8719 24.9963 25.6796 24.25 25.6796Z" fill="currentColor"/>
</svg>

