<svg viewBox="0 0 27 29" xmlns="http://www.w3.org/2000/svg" xmlns:xlink="http://www.w3.org/1999/xlink">
  <title>Confused Emoji</title>
    <g fill="none">
      <path fill="#332E54" d="M13.33 1.88c-6.6 0-11.98 5.48-11.98 12.2 0 6.73 5.37 12.2 11.98 12.2 6.6 0 11.98-5.47 11.98-12.2 0-6.72-5.37-12.2-11.97-12.2m0 25.77C5.98 27.65 0 21.55 0 14.08 0 6.6 5.98.5 13.33.5S26.66 6.6 26.66 14.1c0 7.5-5.98 13.57-13.33 13.57M13.33 15.8c-.88 0-1.6.53-1.6 1.15-.02.18-.02.7 1.6.7s1.6-.52 1.6-.7c0-.62-.73-1.15-1.6-1.15m0 2.62c-1.57 0-2.36-.5-2.36-1.47 0-1.05 1.06-1.9 2.36-1.9s2.36.85 2.36 1.9c0 .98-.8 1.47-2.37 1.47m5.5-6.4a1.04 1.04 0 0 0 .32 1.42 1 1 0 0 0 1.4-.3 1.04 1.04 0 0 0-.3-1.43 1 1 0 0 0-1.4.32m-11.02 0c.3.48.16 1.12-.3 1.42a1 1 0 0 1-1.4-.3 1.04 1.04 0 0 1 .3-1.43 1 1 0 0 1 1.4.32m-2.1-2.9a.37.37 0 0 1-.22-.06.39.39 0 0 1-.1-.53 2.46 2.46 0 0 1 3.23-.84.39.39 0 0 1 .16.5.37.37 0 0 1-.52.17 1.72 1.72 0 0 0-2.25.6.37.37 0 0 1-.3.16"/>
      <path fill="#E1DFE6" d="M23.1 15.93c0 .86-.68 1.56-1.52 1.56-.85 0-1.54-.7-1.54-1.57s.7-1.57 1.54-1.57c.85 0 1.53.7 1.53 1.57m-16.76 0c0 .86-.7 1.56-1.54 1.56-.84 0-1.53-.7-1.53-1.57s.68-1.57 1.53-1.57 1.54.7 1.54 1.57"/>
      <path fill="#332E54" d="M20.8 10.65h-2.7a.38.38 0 0 1-.38-.38c0-.2.17-.38.38-.38h2.7c.22 0 .4.16.4.37 0 .2-.18.4-.4.4"/>
    </g>
</svg>
