<svg viewBox="0 0 32 32" fill="none" xmlns="http://www.w3.org/2000/svg">
  <title>Confused Filled Emoji</title>
  <path d="M16 -0.000244141C7.16 -0.000244141 0 7.15976 0 15.9998C0 24.8398 7.16 31.9998 16 31.9998C24.84 31.9998 32 24.8398 32 15.9998C32 7.15976 24.84 -0.000244141 16 -0.000244141ZM8.87 16.1398C8.22 16.1398 7.69 15.6098 7.69 14.9598C7.69 14.3098 8.22 13.7798 8.87 13.7798C9.52 13.7798 10.05 14.3098 10.05 14.9598C10.05 15.6098 9.53 16.1398 8.87 16.1398ZM10.24 10.1198C9.96 9.78976 9.55 9.60976 9.12 9.60976C8.3 9.60976 7.63 10.2798 7.63 11.0998H6.63C6.63 9.72975 7.75 8.60976 9.12 8.60976C9.84 8.60976 10.52 8.91976 11 9.46976L10.24 10.1198ZM16.25 21.7498C14.62 21.7498 13.34 20.8498 13.34 19.7098C13.34 18.5698 14.62 17.6698 16.25 17.6698C17.88 17.6698 19.16 18.5698 19.16 19.7098C19.16 20.8498 17.88 21.7498 16.25 21.7498ZM23.36 16.1398C22.71 16.1398 22.18 15.6098 22.18 14.9598C22.18 14.3098 22.71 13.7798 23.36 13.7798C24.01 13.7798 24.54 14.3098 24.54 14.9598C24.54 15.6098 24.01 16.1398 23.36 16.1398ZM25.17 12.7098H21.55V11.4598H25.17V12.7098Z" fill="#A6A1E2"/>
</svg>
