<svg viewBox="0 0 48 48" fill="none" xmlns="http://www.w3.org/2000/svg">
  <title>Confused Emoji</title>
  <path
    d="M24 40C15.18 40 8 32.82 8 24C8 15.18 15.18 8 24 8C24.41 8 24.75 8.34 24.75 8.75C24.75 9.16 24.41 9.5 24 9.5C16 9.5 9.5 16 9.5 24C9.5 32 16 38.5 24 38.5C32 38.5 38.5 32 38.5 24C38.5 21.65 37.96 19.41 36.88 17.34C36.69 16.97 36.83 16.52 37.2 16.33C37.57 16.14 38.02 16.28 38.21 16.65C39.38 18.9 40 21.44 40 24C40 32.82 32.82 40 24 40Z"
    fill="currentColor"
  />
  <path
    d="M28.77 32.35C28.71 32.35 28.64 32.34 28.58 32.32L19.05 29.76C18.65 29.65 18.41 29.24 18.52 28.84C18.63 28.44 19.04 28.2 19.44 28.31L28.97 30.87C29.37 30.98 29.61 31.39 29.5 31.79C29.4 32.13 29.1 32.35 28.77 32.35Z"
    fill="currentColor"
  />
  <path
    d="M32.01 18.17C31.6 18.17 31.26 17.83 31.26 17.42V14.67C31.26 14.26 31.6 13.92 32.01 13.92H33.86C35.98 13.92 37.06 13.21 37.06 11.81C37.06 10.43 35.03 9.5 32.01 9.5C29.49 9.5 26.94 10.34 26.94 12.22C26.94 12.63 26.6 12.97 26.19 12.97C25.78 12.97 25.44 12.63 25.44 12.22C25.44 9.66 28.02 8 32.01 8C35.99 8 38.56 9.5 38.56 11.81C38.56 14.07 36.8 15.42 33.86 15.42H32.76V17.42C32.76 17.83 32.42 18.17 32.01 18.17Z"
    fill="currentColor"
  />
  <path
    d="M32 24C30.76 24 29.76 22.99 29.76 21.76C29.76 20.53 30.77 19.52 32 19.52C33.23 19.52 34.24 20.53 34.24 21.76C34.24 22.99 33.24 24 32 24ZM32 21.01C31.59 21.01 31.26 21.34 31.26 21.75C31.26 22.16 31.59 22.5 32 22.5C32.41 22.5 32.74 22.17 32.74 21.76C32.74 21.35 32.41 21.01 32 21.01Z"
    fill="currentColor"
  />
</svg>
