<svg viewBox="0 0 48 48" fill="none" xmlns="https://www.w3.org/2000/svg">
  <title>Confused Selected Emoji</title>
  <path d="M24 7.99976C15.16 7.99976 8 15.1598 8 23.9998C8 32.8398 15.16 39.9998 24 39.9998C32.84 39.9998 40 32.8398 40 23.9998C40 15.1598 32.84 7.99976 24 7.99976ZM16.87 24.1398C16.22 24.1398 15.69 23.6098 15.69 22.9598C15.69 22.3098 16.22 21.7798 16.87 21.7798C17.52 21.7798 18.05 22.3098 18.05 22.9598C18.05 23.6098 17.53 24.1398 16.87 24.1398ZM18.24 18.1198C17.96 17.7898 17.55 17.6098 17.12 17.6098C16.3 17.6098 15.63 18.2798 15.63 19.0998H14.63C14.63 17.7298 15.75 16.6098 17.12 16.6098C17.84 16.6098 18.52 16.9198 19 17.4698L18.24 18.1198ZM24.25 29.7498C22.62 29.7498 21.34 28.8498 21.34 27.7098C21.34 26.5698 22.62 25.6698 24.25 25.6698C25.88 25.6698 27.16 26.5698 27.16 27.7098C27.16 28.8498 25.88 29.7498 24.25 29.7498ZM31.36 24.1398C30.71 24.1398 30.18 23.6098 30.18 22.9598C30.18 22.3098 30.71 21.7798 31.36 21.7798C32.01 21.7798 32.54 22.3098 32.54 22.9598C32.54 23.6098 32.01 24.1398 31.36 24.1398ZM33.17 20.7098H29.55V19.4598H33.17V20.7098Z" fill="currentColor"/>
</svg>
