<svg viewBox="0 0 32 32" fill="none" xmlns="http://www.w3.org/2000/svg">
  <title>Confused Emoji</title>
  <path fill-rule="evenodd" clip-rule="evenodd" d="M30.75 16C30.75 7.87 24.13 1.25 16 1.25C7.87 1.25 1.25 7.86 1.25 16C1.25 24.14 7.87 30.75 16 30.75C24.13 30.75 30.75 24.13 30.75 16ZM0 16C0 7.16 7.16 0 16 0C24.84 0 32 7.17 32 16C32 24.84 24.84 32 16 32C7.16 32 0 24.84 0 16ZM21.55 12.715H25.17V11.465H21.55V12.715ZM23.36 16.1395C24.0117 16.1395 24.54 15.6112 24.54 14.9595C24.54 14.3078 24.0117 13.7795 23.36 13.7795C22.7083 13.7795 22.18 14.3078 22.18 14.9595C22.18 15.6112 22.7083 16.1395 23.36 16.1395ZM10.05 14.9595C10.05 15.6112 9.52168 16.1395 8.86999 16.1395C8.21829 16.1395 7.68999 15.6112 7.68999 14.9595C7.68999 14.3078 8.21829 13.7795 8.86999 13.7795C9.52168 13.7795 10.05 14.3078 10.05 14.9595ZM6.63002 11.1098C6.63002 9.73367 7.74388 8.61981 9.12002 8.61981C9.8665 8.61981 10.545 8.94398 10.9996 9.47441L10.2404 10.1252C9.97505 9.81564 9.57354 9.61981 9.12002 9.61981C8.29616 9.61981 7.63002 10.286 7.63002 11.1098H6.63002ZM14.34 19.7196C14.34 19.5236 14.4652 19.2756 14.8151 19.052C15.1594 18.832 15.6653 18.6796 16.25 18.6796C16.8348 18.6796 17.3407 18.832 17.6849 19.052C18.0349 19.2756 18.16 19.5236 18.16 19.7196C18.16 19.9156 18.0349 20.1636 17.6849 20.3872C17.3407 20.6072 16.8347 20.7596 16.25 20.7596C15.6653 20.7596 15.1594 20.6072 14.8151 20.3872C14.4652 20.1636 14.34 19.9156 14.34 19.7196ZM16.25 17.6796C15.5037 17.6796 14.8047 17.8719 14.2767 18.2093C13.7544 18.5431 13.34 19.0651 13.34 19.7196C13.34 20.3741 13.7544 20.8961 14.2767 21.2299C14.8047 21.5673 15.5037 21.7596 16.25 21.7596C16.9963 21.7596 17.6954 21.5673 18.2234 21.2299C18.7457 20.8961 19.16 20.3741 19.16 19.7196C19.16 19.0651 18.7457 18.5431 18.2234 18.2093C17.6954 17.8719 16.9963 17.6796 16.25 17.6796Z" fill="currentColor"/>
</svg>
