<svg viewBox="0 0 48 48" fill="none" xmlns="https://www.w3.org/2000/svg">
  <title>Elated Emoji</title>
  <path fill-rule="evenodd" clip-rule="evenodd" d="M38.75 24C38.75 15.87 32.13 9.25 24 9.25C15.86 9.25 9.25 15.87 9.25 24C9.25 32.13 15.87 38.75 24 38.75C32.13 38.75 38.75 32.13 38.75 24ZM8 24C8 15.16 15.16 8 24 8C32.83 8 40 15.17 40 24C40 32.84 32.84 40 24 40C15.16 40 8 32.84 8 24ZM16.4501 20.3398C17.1301 20.3398 17.7201 20.7798 17.9301 21.4198L19.1201 21.0398C18.7501 19.8698 17.6701 19.0898 16.4501 19.0898C15.3201 19.0898 14.3101 19.7598 13.8701 20.7998L15.0201 21.2898C15.2601 20.7098 15.8301 20.3398 16.4501 20.3398ZM28.8701 21.0398L30.0601 21.4198C30.2701 20.7698 30.8601 20.3398 31.5401 20.3398C32.1701 20.3398 32.7301 20.7098 32.9701 21.2898L34.1201 20.7998C33.6801 19.7598 32.6701 19.0898 31.5401 19.0898C30.3201 19.0898 29.2401 19.8798 28.8701 21.0398ZM24.46 31.0099C19.93 31.0099 17.47 28.2999 16.82 27.4599C16.08 26.5099 15.97 25.3699 16.52 24.4699C17.07 23.5699 18.18 23.1599 19.4 23.3899C20.27 23.5599 22.45 23.8399 24.58 23.8399H24.61C26.59 23.8399 28.48 23.5999 29.5 23.3899C30.68 23.0899 31.79 23.4699 32.38 24.3899C32.97 25.3199 32.85 26.5199 32.08 27.4699C31.21 28.5299 28.73 31.0099 24.46 31.0099ZM18.72 24.5699C18.21 24.5699 17.8 24.7599 17.58 25.1199C17.31 25.5599 17.4 26.1599 17.8 26.6899C18.36 27.4099 20.48 29.7499 24.45 29.7499C28.19 29.7499 30.35 27.5999 31.11 26.6699C31.63 26.0399 31.56 25.4199 31.32 25.0599C31.03 24.5999 30.45 24.4299 29.78 24.5999C28.67 24.8299 26.68 25.0799 24.61 25.0799H24.57C22.34 25.0799 20.11 24.7899 19.16 24.5999C19.1086 24.5965 19.0571 24.5918 19.006 24.5873L19.0058 24.5873C18.9081 24.5785 18.8119 24.5699 18.72 24.5699Z" fill="currentColor"/>
</svg>
