<svg viewBox="0 0 27 27" xmlns="http://www.w3.org/2000/svg" xmlns:xlink="http://www.w3.org/1999/xlink">
  <title>Elated Emoji (Filled)</title>
  <g stroke="none" stroke-width="1" fill="none" fill-rule="evenodd">
    <path d="M13.5008,13.4581 C12.8078,13.4581 12.1638,13.3681 11.5958,13.2881 C11.1848,13.2301 10.7878,13.1751 10.4728,13.1751 C10.2278,13.1751 10.0348,13.2081 9.9268,13.3031 C9.8128,13.4011 9.7568,13.6091 9.7568,13.9191 C9.7568,15.5801 11.4348,16.9321 13.5008,16.9321 C15.5648,16.9321 17.2438,15.5801 17.2438,13.9191 C17.2438,13.6091 17.1868,13.4011 17.0728,13.3031 C16.8268,13.0881 16.1348,13.1851 15.4038,13.2881 C14.8368,13.3681 14.1928,13.4581 13.5008,13.4581 Z" fill="#A6A1E2" />
    <g transform="translate(0.000000, 0.000500)">
      <mask fill="white">
        <polygon points="0 0 26.9996 0 26.9996 26.9997 0 26.9997" />
      </mask>
      <path d="M21.8716,11.5937 C21.7186,11.7067 21.5056,11.6897 21.3726,11.5527 C21.3526,11.5317 20.9756,11.1617 20.3376,11.1617 C19.6916,11.1617 19.3066,11.5467 19.3036,11.5507 C19.2286,11.6287 19.1286,11.6687 19.0276,11.6687 C18.9486,11.6687 18.8686,11.6437 18.8026,11.5937 C18.6476,11.4797 18.6026,11.2687 18.6966,11.1017 C19.0346,10.5047 19.6626,10.1347 20.3376,10.1347 C21.0116,10.1347 21.6396,10.5047 21.9756,11.1017 C22.0706,11.2687 22.0256,11.4797 21.8716,11.5937 M13.5006,17.6907 C11.0176,17.6907 8.9966,15.9987 8.9966,13.9187 C8.9966,13.3707 9.1386,12.9817 9.4286,12.7287 C9.9346,12.2877 10.7156,12.3967 11.7016,12.5357 C12.2446,12.6117 12.8606,12.6977 13.5006,12.6977 C14.1396,12.6977 14.7556,12.6117 15.2986,12.5357 C16.2846,12.3967 17.0636,12.2877 17.5716,12.7287 C17.8616,12.9817 18.0036,13.3707 18.0036,13.9187 C18.0036,15.9987 15.9826,17.6907 13.5006,17.6907 M8.1986,11.5937 C8.0456,11.7067 7.8316,11.6897 7.6996,11.5527 C7.6796,11.5317 7.3016,11.1617 6.6636,11.1617 C6.0176,11.1617 5.6336,11.5467 5.6296,11.5507 C5.5556,11.6287 5.4546,11.6687 5.3546,11.6687 C5.2746,11.6687 5.1956,11.6437 5.1286,11.5937 C4.9746,11.4797 4.9296,11.2687 5.0236,11.1017 C5.3606,10.5047 5.9896,10.1347 6.6636,10.1347 C7.3376,10.1347 7.9656,10.5047 8.3036,11.1017 C8.3966,11.2687 8.3516,11.4797 8.1986,11.5937 M13.5006,-0.0003 C6.0566,-0.0003 -0.0004,6.0557 -0.0004,13.4997 C-0.0004,20.9437 6.0566,26.9997 13.5006,26.9997 C20.9436,26.9997 26.9996,20.9437 26.9996,13.4997 C26.9996,6.0557 20.9436,-0.0003 13.5006,-0.0003" fill="#A6A1E2" />
    </g>
  </g>
</svg>
