<svg width="48" height="48" viewBox="0 0 48 48" fill="none" xmlns="http://www.w3.org/2000/svg">
  <title>Elated Selected Emoji</title>
  <path
    d="M39.72 21.06C39.72 20.96 39.63 20.87 39.53 20.87C39.42 20.87 39.34 20.96 39.34 21.06C39.34 21.06 39.34 21.06 39.34 21.07C39.34 21.67 39.1 22.24 38.68 22.66C38.26 23.08 37.69 23.31 37.09 23.31C36.49 23.31 35.92 23.07 35.5 22.65L34.41 21.55C34.38 21.52 34.36 21.48 34.33 21.45V23.28C34.33 24.52 33.32 25.53 32.08 25.53C30.84 25.53 29.83 24.52 29.83 23.28V21.46C29.82 21.47 29.82 21.48 29.81 21.49L28.66 22.64C28.23 23.07 27.67 23.3 27.06 23.3C26.46 23.3 25.9 23.07 25.47 22.64C24.59 21.77 24.59 20.34 25.46 19.46L26.61 18.31C26.62 18.3 26.64 18.29 26.65 18.28H24.82C23.58 18.28 22.57 17.27 22.57 16.03C22.57 14.79 23.58 13.78 24.82 13.78H26.66C26.64 13.76 26.61 13.74 26.58 13.72L25.45 12.6C25.03 12.17 24.79 11.61 24.79 11.01C24.79 10.41 25.03 9.84 25.45 9.42C25.87 9 26.44 8.77 27.04 8.77C27.17 8.77 27.27 8.67 27.27 8.54C27.27 8.42 27.18 8.33 27.06 8.32V8.31C26.08 8.11 25.05 8 24 8C15.18 8 8 15.18 8 24C8 32.82 15.18 40 24 40C32.82 40 40 32.82 40 24C40 22.99 39.87 22.03 39.72 21.06ZM30.66 28.21C29.66 31.21 27.06 33.11 24 33.11C23.92 33.11 23.84 33.11 23.76 33.11C20.7 33.01 18.23 31.07 17.46 28.17C17.35 27.77 17.59 27.36 18 27.25C18.4 27.15 18.81 27.38 18.92 27.79C19.51 30.03 21.43 31.53 23.81 31.61C25.82 31.67 28.26 30.69 29.25 27.74C29.38 27.35 29.81 27.14 30.2 27.27C30.58 27.39 30.79 27.81 30.66 28.21Z"
    fill="currentColor"
  />
  <path
    d="M32.03 19.59C33.99 19.59 35.58 17.99 35.58 16.03C35.58 14.07 33.99 12.47 32.03 12.47C30.07 12.47 28.48 14.07 28.48 16.03C28.48 17.99 30.07 19.59 32.03 19.59ZM32.03 13.97C33.16 13.97 34.08 14.89 34.08 16.03C34.08 17.17 33.16 18.09 32.03 18.09C30.9 18.09 29.98 17.17 29.98 16.03C29.98 14.89 30.89 13.97 32.03 13.97Z"
    fill="currentColor"
  />
  <path
    d="M26.47 10.47C26.18 10.76 26.18 11.24 26.47 11.53L27.59 12.65C27.74 12.8 27.93 12.87 28.12 12.87C28.31 12.87 28.5 12.8 28.65 12.65C28.94 12.36 28.94 11.88 28.65 11.59L27.53 10.47C27.24 10.18 26.76 10.18 26.47 10.47Z"
    fill="currentColor"
  />
  <path
    d="M35.41 19.42C35.12 19.71 35.12 20.19 35.41 20.48L36.5 21.58C36.65 21.73 36.84 21.8 37.03 21.8C37.22 21.8 37.41 21.73 37.56 21.58C37.85 21.29 37.85 20.81 37.56 20.52L36.47 19.42C36.18 19.13 35.71 19.13 35.41 19.42Z"
    fill="currentColor"
  />
  <path
    d="M35.97 12.81C36.16 12.81 36.35 12.74 36.5 12.59L37.56 11.53C37.85 11.24 37.85 10.76 37.56 10.47C37.27 10.18 36.79 10.18 36.5 10.47L35.44 11.53C35.15 11.82 35.15 12.3 35.44 12.59C35.59 12.74 35.78 12.81 35.97 12.81Z"
    fill="currentColor"
  />
  <path
    d="M26.47 21.58C26.62 21.73 26.81 21.8 27 21.8C27.19 21.8 27.38 21.73 27.53 21.58L28.68 20.42C28.97 20.13 28.97 19.65 28.68 19.36C28.39 19.07 27.91 19.07 27.62 19.36L26.47 20.52C26.17 20.82 26.17 21.29 26.47 21.58Z"
    fill="currentColor"
  />
  <path
    d="M26.67 15.28H24.76C24.35 15.28 24.01 15.62 24.01 16.03C24.01 16.44 24.35 16.78 24.76 16.78H26.67C27.08 16.78 27.42 16.44 27.42 16.03C27.42 15.62 27.09 15.28 26.67 15.28Z"
    fill="currentColor"
  />
  <path
    d="M36.66 16.03C36.66 16.44 37 16.78 37.41 16.78H39.26C39.67 16.78 40.01 16.44 40.01 16.03C40.01 15.62 39.67 15.28 39.26 15.28H37.41C37 15.28 36.66 15.61 36.66 16.03Z"
    fill="currentColor"
  />
  <path
    d="M31.27 21.37V23.28C31.27 23.69 31.61 24.03 32.02 24.03C32.43 24.03 32.77 23.69 32.77 23.28V21.37C32.77 20.96 32.43 20.62 32.02 20.62C31.61 20.62 31.27 20.95 31.27 21.37Z"
    fill="currentColor"
  />
  <path
    d="M32.02 11.38C32.43 11.38 32.77 11.04 32.77 10.63V8.77C32.77 8.36 32.43 8.02 32.02 8.02C31.61 8.02 31.27 8.36 31.27 8.77V10.62C31.27 11.04 31.6 11.38 32.02 11.38Z"
    fill="currentColor"
  />
</svg>
