<svg viewBox="0 0 32 32" fill="none" xmlns="http://www.w3.org/2000/svg">
  <title>Elated Emoji</title>
  <path fill-rule="evenodd" clip-rule="evenodd" d="M30.75 16C30.75 7.87 24.13 1.25 16 1.25C7.86 1.25 1.25 7.87 1.25 16C1.25 24.13 7.87 30.75 16 30.75C24.13 30.75 30.75 24.13 30.75 16ZM0 16C0 7.16 7.16 0 16 0C24.83 0 32 7.17 32 16C32 24.84 24.84 32 16 32C7.16 32 0 24.84 0 16ZM8.45013 12.3398C9.13013 12.3398 9.72011 12.7798 9.93011 13.4198L11.1201 13.0398C10.7501 11.8698 9.67013 11.0898 8.45013 11.0898C7.32013 11.0898 6.31012 11.7598 5.87012 12.7998L7.02014 13.2898C7.26014 12.7098 7.83013 12.3398 8.45013 12.3398ZM20.8701 13.0398L22.0601 13.4198C22.2701 12.7698 22.8601 12.3398 23.5401 12.3398C24.1701 12.3398 24.7301 12.7098 24.9701 13.2898L26.1201 12.7998C25.6801 11.7598 24.6701 11.0898 23.5401 11.0898C22.3201 11.0898 21.2401 11.8798 20.8701 13.0398ZM16.46 23.0099C11.93 23.0099 9.47002 20.2999 8.82002 19.4599C8.08002 18.5099 7.97003 17.3699 8.52003 16.4699C9.07003 15.5699 10.18 15.1599 11.4 15.3899C12.27 15.5599 14.45 15.8399 16.58 15.8399H16.61C18.59 15.8399 20.48 15.5999 21.5 15.3899C22.68 15.0899 23.79 15.4699 24.38 16.3899C24.97 17.3199 24.85 18.5199 24.08 19.4699C23.21 20.5299 20.73 23.0099 16.46 23.0099ZM10.72 16.5699C10.21 16.5699 9.80003 16.7599 9.58003 17.1199C9.31003 17.5599 9.40003 18.1599 9.80003 18.6899C10.36 19.4099 12.48 21.7499 16.45 21.7499C20.19 21.7499 22.35 19.5999 23.11 18.6699C23.63 18.0399 23.56 17.4199 23.32 17.0599C23.03 16.5999 22.45 16.4299 21.78 16.5999C20.67 16.8299 18.68 17.0799 16.61 17.0799H16.57C14.34 17.0799 12.11 16.7899 11.16 16.5999C11.1086 16.5965 11.0571 16.5918 11.006 16.5873L11.0058 16.5873C10.9081 16.5785 10.8119 16.5699 10.72 16.5699Z" fill="currentColor"/>
</svg>
