<svg width="48" height="48" viewBox="0 0 48 48" fill="none" xmlns="http://www.w3.org/2000/svg">
  <title>Elated Selected Emoji</title>
  <path fill-rule="evenodd" clip-rule="evenodd" d="M8 24C8 15.16 15.16 8 24 8C32.83 8 40 15.16 40 24C40 32.84 32.84 40 24 40C15.16 40 8 32.84 8 24ZM13.87 20.79L15.02 21.28C15.26 20.7 15.83 20.33 16.45 20.33C17.13 20.33 17.72 20.77 17.93 21.41L19.12 21.03C18.74 19.86 17.67 19.08 16.45 19.08C15.32 19.08 14.31 19.75 13.87 20.79ZM24.45 30.99C28.73 30.99 31.21 28.52 32.08 27.46C32.85 26.52 32.97 25.31 32.37 24.37C31.78 23.45 30.67 23.07 29.49 23.37C28.47 23.58 26.58 23.82 24.6 23.82H24.57C22.45 23.82 20.28 23.55 19.4 23.37C18.16 23.14 17.06 23.55 16.51 24.45C15.96 25.35 16.07 26.49 16.81 27.44C17.46 28.28 19.92 30.99 24.45 30.99ZM31.54 20.33C32.17 20.33 32.73 20.7 32.97 21.28L34.12 20.79C33.68 19.75 32.67 19.08 31.54 19.08C30.31 19.08 29.24 19.87 28.87 21.03L30.06 21.41C30.27 20.76 30.86 20.33 31.54 20.33ZM24.61 25.0799C26.69 25.0799 28.67 24.8299 29.78 24.5999C30.46 24.4299 31.04 24.5999 31.32 25.0499C31.56 25.4099 31.62 26.0299 31.11 26.6599C30.35 27.5899 28.19 29.7399 24.45 29.7399C20.48 29.7399 18.36 27.3999 17.8 26.6799C17.4 26.1499 17.31 25.5499 17.58 25.1099C17.8 24.7499 18.21 24.5599 18.72 24.5599C18.86 24.5599 19.01 24.5699 19.16 24.5999C20.11 24.7899 22.34 25.0799 24.57 25.0799H24.61Z" fill="currentColor"/>
</svg>
