<svg viewBox="0 0 27 27" xmlns="http://www.w3.org/2000/svg" xmlns:xlink="http://www.w3.org/1999/xlink">
  <title>Elated Emoji</title>
  <defs>
    <polygon points="0 0 26.9995 0 26.9995 27 0 27" />
  </defs>
  <g stroke="none" stroke-width="1" fill="none" fill-rule="evenodd">
    <path d="M21.9956,13.362 C21.1376,13.362 20.4396,14.058 20.4396,14.917 C20.4396,15.776 21.1376,16.471 21.9956,16.471 C22.8526,16.471 23.5496,15.776 23.5496,14.917 C23.5496,14.058 22.8526,13.362 21.9956,13.362" fill="#DDDDE3" />
    <path d="M3.4504,14.917 C3.4504,15.776 4.1474,16.471 5.0044,16.471 C5.8634,16.471 6.5594,15.776 6.5594,14.917 C6.5594,14.058 5.8634,13.362 5.0044,13.362 C4.1474,13.362 3.4504,14.058 3.4504,14.917 Z" fill="#DDDDE3" />
    <g transform="translate(0.000000, 0.000200)">
      <mask fill="white">
        <polygon points="0 0 26.9996 0 26.9996 26.9997 0 26.9997" />
      </mask>
      <path d="M13.5005,25.6324 C6.8105,25.6324 1.3665,20.1904 1.3665,13.5004 C1.3665,6.8104 6.8105,1.3674 13.5005,1.3674 C20.1895,1.3674 25.6335,6.8104 25.6335,13.5004 C25.6335,20.1904 20.1895,25.6324 13.5005,25.6324 M13.5005,-0.0006 C6.0565,-0.0006 -0.0005,6.0564 -0.0005,13.5004 C-0.0005,20.9444 6.0565,27.0004 13.5005,27.0004 C20.9435,27.0004 26.9995,20.9444 26.9995,13.5004 C26.9995,6.0564 20.9435,-0.0006 13.5005,-0.0006" fill="#332E54" />
    </g>
    <path d="M6.6636,10.1345 C5.9886,10.1345 5.3606,10.5055 5.0236,11.1025 C4.9296,11.2695 4.9746,11.4805 5.1286,11.5945 C5.1956,11.6445 5.2746,11.6695 5.3546,11.6695 C5.4546,11.6695 5.5556,11.6295 5.6296,11.5515 C5.6336,11.5475 6.0176,11.1625 6.6636,11.1625 C7.3016,11.1625 7.6796,11.5325 7.6996,11.5525 C7.8316,11.6895 8.0456,11.7075 8.1986,11.5935 C8.3516,11.4795 8.3966,11.2685 8.3036,11.1015 C7.9656,10.5055 7.3376,10.1345 6.6636,10.1345" fill="#332E54" />
    <path d="M20.3374,10.1345 C19.6624,10.1345 19.0344,10.5055 18.6964,11.1025 C18.6034,11.2695 18.6484,11.4805 18.8024,11.5945 C18.8684,11.6445 18.9484,11.6695 19.0274,11.6695 C19.1284,11.6695 19.2294,11.6295 19.3034,11.5515 C19.3064,11.5475 19.6914,11.1625 20.3374,11.1625 C20.9754,11.1625 21.3534,11.5325 21.3724,11.5525 C21.5054,11.6895 21.7184,11.7075 21.8714,11.5935 C22.0254,11.4795 22.0704,11.2685 21.9764,11.1015 C21.6394,10.5055 21.0114,10.1345 20.3374,10.1345" fill="#332E54" />
    <path d="M13.5005,16.9319 C11.4355,16.9319 9.7565,15.5799 9.7565,13.9189 C9.7565,13.6089 9.8125,13.4009 9.9275,13.3029 C10.0345,13.2089 10.2285,13.1749 10.4735,13.1749 C10.7875,13.1749 11.1855,13.2299 11.5965,13.2879 C12.1635,13.3679 12.8085,13.4579 13.5005,13.4579 C14.1925,13.4579 14.8365,13.3679 15.4035,13.2879 C16.1355,13.1849 16.8265,13.0889 17.0725,13.3029 C17.1875,13.4009 17.2435,13.6089 17.2435,13.9189 C17.2435,15.5799 15.5645,16.9319 13.5005,16.9319 M15.2985,12.5359 C14.7555,12.6119 14.1395,12.6989 13.5005,12.6989 C12.8605,12.6989 12.2445,12.6119 11.7015,12.5359 C10.7155,12.3969 9.9355,12.2879 9.4285,12.7289 C9.1385,12.9819 8.9965,13.3709 8.9965,13.9189 C8.9965,15.9989 11.0175,17.6909 13.5005,17.6909 C15.9825,17.6909 18.0035,15.9989 18.0035,13.9189 C18.0035,13.3709 17.8615,12.9819 17.5715,12.7289 C17.0635,12.2879 16.2845,12.3969 15.2985,12.5359" fill="#332E54" />
  </g>
</svg>
