<svg viewBox="0 0 32 32" fill="none" xmlns="http://www.w3.org/2000/svg">
  <title>Furious Emoji</title>
  <path fill-rule="evenodd" clip-rule="evenodd" d="M30.75 16C30.75 7.87 24.13 1.25 16 1.25C7.87 1.25 1.25 7.87 1.25 16C1.25 24.13 7.87 30.75 16 30.75C24.13 30.75 30.75 24.13 30.75 16ZM0 16C0 7.16 7.16 0 16 0C24.84 0 32 7.17 32 16C32 24.84 24.84 32 16 32C7.16 32 0 24.84 0 16ZM24.445 14.2588L20.8933 16.4625L21.5523 17.5246L25.104 15.3209L24.445 14.2588ZM6.90173 15.3433L7.56098 14.2812L11.1123 16.4858L10.4531 17.5478L6.90173 15.3433ZM11.37 25.84C11.67 26.32 12.19 26.58 12.76 26.58C12.92 26.58 13.09 26.56 13.28 26.52C13.83 26.4 14.86 26.27 15.95 26.27H15.96C17.12 26.27 18.31 26.43 18.79 26.52C19.59 26.67 20.31 26.39 20.68 25.79C21.04 25.19 20.97 24.43 20.49 23.81C20.11 23.32 18.67 21.73 16.02 21.73C13.52 21.73 12.07 23.18 11.56 23.8C11.05 24.42 10.98 25.22 11.37 25.84ZM12.52 24.59C12.92 24.11 14.05 22.98 16.01 22.98C18.09 22.98 19.2 24.21 19.49 24.57C19.65 24.77 19.69 24.99 19.6 25.13C19.51 25.28 19.29 25.33 19.01 25.28C18.46 25.17 17.2 25.01 15.94 25.01H15.93C14.75 25.01 13.62 25.16 12.98 25.29C12.72 25.36 12.52 25.31 12.42 25.16C12.34 25.04 12.33 24.82 12.52 24.59ZM23.36 20.1398C24.0117 20.1398 24.5401 19.6115 24.5401 18.9598C24.5401 18.3081 24.0117 17.7798 23.36 17.7798C22.7084 17.7798 22.1801 18.3081 22.1801 18.9598C22.1801 19.6115 22.7084 20.1398 23.36 20.1398ZM10.05 18.9598C10.05 19.6115 9.52175 20.1398 8.87006 20.1398C8.21836 20.1398 7.69006 19.6115 7.69006 18.9598C7.69006 18.3081 8.21836 17.7798 8.87006 17.7798C9.52175 17.7798 10.05 18.3081 10.05 18.9598Z" fill="currentColor"/>
</svg>
