<svg viewBox="0 0 27 27" xmlns="http://www.w3.org/2000/svg" xmlns:xlink="http://www.w3.org/1999/xlink">
  <title>Furious Emoji</title>
  <g stroke="none" stroke-width="1" fill="none" fill-rule="evenodd">
    <g transform="translate(0.000000, 0.000200)">
      <mask fill="white">
        <polygon points="0.0005 0 27 0 27 27 0.0005 27" />
      </mask>
      <path d="M13.4995,25.6324 C6.8105,25.6324 1.3665,20.1904 1.3665,13.5004 C1.3665,6.8104 6.8105,1.3674 13.4995,1.3674 C20.1895,1.3674 25.6335,6.8104 25.6335,13.5004 C25.6335,20.1904 20.1895,25.6324 13.4995,25.6324 M13.4995,-0.0006 C6.0565,-0.0006 0.0005,6.0554 0.0005,13.5004 C0.0005,20.9444 6.0565,27.0004 13.4995,27.0004 C20.9435,27.0004 27.0005,20.9444 27.0005,13.5004 C27.0005,6.0554 20.9435,-0.0006 13.4995,-0.0006" fill="#332E54" />
    </g>
    <path d="M15.397,20.7215 C15.312,20.7935 14.906,20.7285 14.61,20.6815 C14.281,20.6285 13.908,20.5685 13.5,20.5685 C13.092,20.5685 12.719,20.6285 12.39,20.6815 C12.093,20.7285 11.687,20.7945 11.603,20.7215 C11.6,20.7195 11.542,20.6665 11.542,20.4025 C11.542,19.3975 12.419,18.5795 13.5,18.5795 C14.58,18.5795 15.459,19.3975 15.459,20.4025 C15.459,20.6665 15.4,20.7195 15.397,20.7215 M13.5,17.8205 C12.001,17.8205 10.782,18.9785 10.782,20.4025 C10.782,20.8175 10.889,21.1115 11.11,21.2995 C11.298,21.4605 11.526,21.5125 11.782,21.5125 C12.004,21.5125 12.25,21.4735 12.51,21.4315 C12.811,21.3835 13.153,21.3275 13.5,21.3275 C13.847,21.3275 14.188,21.3835 14.49,21.4315 C15.052,21.5225 15.539,21.5995 15.89,21.2995 C16.111,21.1115 16.218,20.8175 16.218,20.4025 C16.218,18.9785 14.999,17.8205 13.5,17.8205" fill="#332E54" />
    <path d="M6.478,16.078 C6,16.384 5.862,17.018 6.166,17.495 C6.472,17.973 7.107,18.112 7.583,17.807 C8.061,17.501 8.201,16.867 7.895,16.39 C7.59,15.912 6.956,15.773 6.478,16.078" fill="#332E54" />
    <path d="M8.5903,14.6243 L5.8893,12.8453 C5.7133,12.7303 5.4783,12.7783 5.3633,12.9543 C5.2473,13.1293 5.2963,13.3643 5.4723,13.4793 L8.1733,15.2583 C8.2363,15.3013 8.3093,15.3213 8.3813,15.3213 C8.5043,15.3213 8.6253,15.2613 8.6983,15.1503 C8.8143,14.9753 8.7663,14.7393 8.5903,14.6243" fill="#332E54" />
    <path d="M20.522,16.078 C20.044,15.773 19.41,15.912 19.105,16.39 C18.799,16.867 18.938,17.501 19.417,17.807 C19.893,18.112 20.528,17.973 20.834,17.495 C21.138,17.018 21,16.384 20.522,16.078" fill="#332E54" />
    <path d="M21.1108,12.8455 L18.4088,14.6245 C18.2338,14.7395 18.1848,14.9755 18.3008,15.1505 C18.3738,15.2615 18.4948,15.3215 18.6188,15.3215 C18.6898,15.3215 18.7618,15.3015 18.8268,15.2585 L21.5278,13.4795 C21.7038,13.3645 21.7528,13.1295 21.6358,12.9535 C21.5218,12.7785 21.2868,12.7305 21.1108,12.8455" fill="#332E54" />
  </g>
</svg>
