<svg viewBox="0 0 27 27" xmlns="http://www.w3.org/2000/svg" xmlns:xlink="http://www.w3.org/1999/xlink">
  <title>Furious Emoji (Filled)</title>
  <defs>
    <polygon points="0.0008 0 27 0 27 27 0.0008 27" />
  </defs>
  <g stroke="none" stroke-width="1" fill="none" fill-rule="evenodd">
    <path d="M13.4995,18.5798 C12.4195,18.5798 11.5415,19.3978 11.5415,20.4028 C11.5415,20.6658 11.6005,20.7188 11.6035,20.7218 C11.6875,20.7948 12.0935,20.7288 12.3905,20.6818 C12.7195,20.6288 13.0925,20.5688 13.4995,20.5688 C13.9075,20.5688 14.2805,20.6288 14.6095,20.6818 C14.9055,20.7278 15.3115,20.7938 15.3965,20.7218 C15.3995,20.7188 15.4585,20.6658 15.4585,20.4028 C15.4585,19.3978 14.5795,18.5798 13.4995,18.5798" fill="#A6A1E2" />
    <g transform="translate(0.000000, 0.000500)">
      <mask fill="white">
        <polygon points="0.0005 0 27 0 27 27 0.0005 27" />
      </mask>
      <path d="M21.5278,13.4792 L18.8268,15.2582 C18.7618,15.3002 18.6898,15.3212 18.6188,15.3212 C18.4948,15.3212 18.3738,15.2612 18.3008,15.1502 C18.1848,14.9752 18.2338,14.7392 18.4088,14.6242 L21.1108,12.8452 C21.2868,12.7292 21.5218,12.7782 21.6358,12.9532 C21.7528,13.1282 21.7038,13.3642 21.5278,13.4792 M20.8338,17.4952 C20.5278,17.9722 19.8928,18.1112 19.4158,17.8062 C18.9388,17.5012 18.7988,16.8662 19.1048,16.3892 C19.4098,15.9122 20.0448,15.7722 20.5218,16.0782 C20.9998,16.3832 21.1378,17.0182 20.8338,17.4952 M15.8898,21.2992 C15.5388,21.6002 15.0518,21.5212 14.4898,21.4312 C14.1878,21.3822 13.8468,21.3282 13.4998,21.3282 C13.1528,21.3282 12.8108,21.3822 12.5098,21.4312 C12.2498,21.4732 12.0048,21.5122 11.7818,21.5122 C11.5258,21.5122 11.2988,21.4592 11.1098,21.2992 C10.8888,21.1112 10.7818,20.8172 10.7818,20.4022 C10.7818,18.9782 12.0008,17.8202 13.4998,17.8202 C14.9988,17.8202 16.2178,18.9782 16.2178,20.4022 C16.2178,20.8172 16.1108,21.1112 15.8898,21.2992 M8.6988,15.1502 C8.6258,15.2612 8.5048,15.3212 8.3818,15.3212 C8.3088,15.3212 8.2368,15.3002 8.1738,15.2582 L5.4718,13.4792 C5.2968,13.3642 5.2478,13.1282 5.3638,12.9532 C5.4778,12.7782 5.7138,12.7292 5.8888,12.8452 L8.5898,14.6242 C8.7658,14.7392 8.8138,14.9752 8.6988,15.1502 M7.5838,17.8062 C7.1068,18.1112 6.4718,17.9722 6.1668,17.4952 C5.8608,17.0182 6.0008,16.3832 6.4778,16.0782 C6.9558,15.7722 7.5898,15.9122 7.8948,16.3892 C8.2008,16.8662 8.0608,17.5012 7.5838,17.8062 M13.4998,-0.0008 C6.0558,-0.0008 0.0008,6.0562 0.0008,13.5002 C0.0008,20.9432 6.0558,27.0002 13.4998,27.0002 C20.9438,27.0002 27.0008,20.9432 27.0008,13.5002 C27.0008,6.0562 20.9438,-0.0008 13.4998,-0.0008" fill="#A6A1E2" />
    </g>
  </g>
</svg>
