<svg viewBox="0 0 32 26" fill="none" xmlns="http://www.w3.org/2000/svg">
  <title>Heart Emoji</title>
  <path d="M16.2421 25.8348L15.9195 25.6295C15.4307 25.3265 4.04212 18.0729 1.5591 14.2702C-1.4127 9.70496 0.356687 5.32546 2.77127 2.96953C4.61887 1.17081 7.35606 0.173692 10.103 0.300775C11.6769 0.369205 13.8177 0.838437 15.8804 2.45142C16.3594 2.1386 16.9557 1.75735 17.4836 1.46408C22.4301 -1.31221 27.1029 0.232346 29.5272 2.99886C32.3231 6.17595 32.7825 10.4772 30.7296 14.2213C28.5399 18.2293 17.0535 25.3265 16.5647 25.6197L16.2421 25.8348ZM9.63375 1.51296C7.36579 1.51296 5.14676 2.37321 3.63154 3.84934C1.54932 5.88268 0.0243213 9.65608 2.59532 13.6054C4.70686 16.851 14.3652 23.166 16.2617 24.388C18.1679 23.1954 27.8262 17.0172 29.6738 13.6445C31.8245 9.71474 30.5439 5.99021 28.6278 3.81024C26.6727 1.59116 22.7429 -0.0706999 18.0995 2.5394C17.6987 2.76424 17.249 3.03796 16.8482 3.3019C17.0926 3.54629 17.3467 3.81024 17.5814 4.09373L16.6527 4.88556C14.414 2.25591 11.8333 1.61071 10.0639 1.52273C9.90747 1.52273 9.77061 1.51296 9.63375 1.51296Z" fill="#332E54"/>
</svg>
