<svg
  width="48"
  height="48"
  viewBox="0 0 48 48"
  fill="none"
  xmlns="http://www.w3.org/2000/svg"
>
  <title>Heart Emoji</title>
  <path
    d="M24 40C23.79 40 23.6 39.92 23.46 39.77C23.42 39.72 18.95 35.02 15.86 32.18C10.72 27.46 8 22.46 8 17.73C8 11.55 10.69 8 15.37 8C18.78 8 20.04 10 21.06 11.61C21.97 13.05 22.56 13.87 24 13.87C25.14 13.87 25.72 13.1 26.65 11.73C27.78 10.07 29.18 8 32.63 8C37.52 8 40 11.35 40 17.94C40 24.6 35.14 29.15 32.53 31.59L32.14 31.96C30.18 33.81 24.6 39.71 24.54 39.77C24.4 39.92 24.21 40 24 40ZM15.37 9.5C10.52 9.5 9.5 13.98 9.5 17.73C9.5 22.03 12.05 26.64 16.87 31.07C19.36 33.35 22.7 36.81 24 38.16C25.47 36.62 29.47 32.42 31.11 30.87L31.51 30.5C33.95 28.21 38.5 23.96 38.5 17.95C38.5 10.38 35.15 9.51 32.63 9.51C29.98 9.51 28.96 11 27.89 12.59C26.96 13.96 25.99 15.38 24 15.38C21.66 15.38 20.67 13.81 19.79 12.42C18.8 10.85 17.95 9.5 15.37 9.5Z"
    fill="#2D2A26"
  />
</svg>
