<svg viewBox="0 0 48 48" fill="none" xmlns="http://www.w3.org/2000/svg">
  <title>Heart Selected Emoji</title>
  <path
    d="M32.63 8C29.18 8 27.78 10.07 26.65 11.73C25.72 13.1 25.14 13.87 24 13.87C22.56 13.87 21.97 13.05 21.06 11.61C20.04 10 18.78 8 15.37 8C10.69 8 8 11.55 8 17.73C8 22.47 10.72 27.46 15.85 32.17C18.95 35.01 23.41 39.71 23.45 39.76C23.6 39.92 23.79 40 24 40C24.21 40 24.4 39.92 24.54 39.77C24.6 39.71 30.18 33.82 32.14 31.96L32.53 31.59C35.14 29.15 40 24.6 40 17.94C40 11.35 37.52 8 32.63 8Z"
    fill="currentColor"
  />
</svg>
