<svg width="48" height="48" viewBox="0 0 48 48" fill="none" xmlns="http://www.w3.org/2000/svg">
 <title>Heart Emoji</title>
  <path d="M24.2394 38L23.8689 37.7499C23.3852 37.4197 12.0123 29.5452 9.54217 25.4128C6.5986 20.49 8.35857 15.7773 10.7464 13.2359C12.5784 11.2847 15.3161 10.1941 18.0538 10.3142C19.6491 10.3842 21.8002 10.8845 23.8792 12.6355C24.4864 12.2053 25.0113 11.8551 25.4333 11.6049C30.4147 8.56319 35.108 10.2542 37.5472 13.2759C40.3158 16.6978 40.7789 21.3405 38.7411 25.3728C36.5592 29.7253 25.0937 37.4297 24.5996 37.7599L24.2394 38ZM17.6421 11.5549C15.3984 11.5549 13.1959 12.4854 11.7035 14.0763C9.60392 16.3076 8.07038 20.44 10.664 24.7825C12.7533 28.2845 22.2633 35.0683 24.26 36.4691C26.267 35.0983 35.7667 28.4646 37.5987 24.8225C39.76 20.52 38.4735 16.4277 36.5489 14.0463C34.6139 11.655 30.7235 9.85393 26.1332 12.6655C25.7832 12.8857 25.3407 13.1758 24.8261 13.526C25.0937 13.8062 25.3613 14.1164 25.6186 14.4466L24.5996 15.207C22.3559 12.3454 19.7829 11.645 18.0126 11.5649C17.8891 11.5649 17.7656 11.5549 17.6421 11.5549Z" fill="currentColor"/>
</svg>
