<svg viewBox="0 0 57 49" xmlns="http://www.w3.org/2000/svg" xmlns:xlink="http://www.w3.org/1999/xlink">
  <title>Postcard Heart Filled</title>
  <path d="M13.4414,14.6538 C11.6564,14.6538 10.2104,13.2068 10.2104,11.4228 C10.2104,9.6378 11.6564,8.1918 13.4414,8.1918 C15.2254,8.1918 16.6714,9.6378 16.6714,11.4228 C16.6714,13.2068 15.2254,14.6538 13.4414,14.6538 M39.9804,-0.0002 C35.4444,-0.0002 31.2124,1.8398 28.1404,5.0988 C26.7984,3.6748 25.2264,2.5408 23.5134,1.6948 C23.4804,1.6778 23.4474,1.6618 23.4144,1.6458 C22.9654,1.4278 22.5094,1.2318 22.0434,1.0568 C21.8724,0.9908 21.7034,0.9258 21.5304,0.8658 C21.2514,0.7718 20.9674,0.6908 20.6834,0.6118 C20.4354,0.5398 20.1974,0.4498 19.9444,0.3898 C19.8654,0.3708 19.7864,0.3628 19.7074,0.3578 C18.6014,0.1238 17.4614,-0.0002 16.3004,-0.0002 C7.3124,-0.0002 0.0004,7.3128 0.0004,16.3008 C0.0004,18.9468 0.6494,21.5728 1.8784,23.9038 C1.8994,23.9518 1.9214,23.9998 1.9484,24.0458 C7.7574,34.3698 16.8564,42.8178 27.5684,47.8348 C27.7494,47.9198 27.9454,47.9618 28.1404,47.9618 C28.3364,47.9618 28.5324,47.9198 28.7124,47.8348 C39.4244,42.8178 48.5234,34.3698 54.3334,24.0458 C54.3604,23.9968 54.3834,23.9468 54.4054,23.8968 C55.6324,21.5698 56.2804,18.9458 56.2804,16.3008 C56.2804,7.3128 48.9684,-0.0002 39.9804,-0.0002"/>
</svg>
