<svg viewBox="0 0 48 48" fill="none" xmlns="http://www.w3.org/2000/svg">
  <title>Hug Selected Emoji</title>
  <path fill-rule="evenodd" clip-rule="evenodd" d="M37.5147 22.9588C36.5674 23.4967 35.5382 23.7768 34.5909 23.7768C33.3045 23.7768 32.1584 23.295 31.5151 22.3537C30.9304 21.5021 30.8368 20.4153 31.2695 19.3172C31.6671 18.2863 32.4741 17.3451 33.5501 16.6727C34.1933 16.2694 34.8014 16.0789 35.3862 16.0677C35.3979 15.9892 35.4096 15.8996 35.4096 15.8212C35.5266 15.373 35.5967 14.8911 35.5967 14.4093C35.5967 11.2495 32.9303 8.69472 29.6322 8.69472C28.0066 8.69472 26.5447 9.3222 25.4688 10.3307C24.2291 8.90761 22.3696 8 20.2879 8C16.5689 8 13.5398 10.9021 13.5398 14.4653C13.5398 15.1376 13.6451 15.7875 13.8439 16.3926C12.1481 16.5495 11.2826 17.289 11.0838 18.163C10.6394 20.1015 12.0312 20.8971 13.6334 21.5918C15.9022 20.2024 18.6623 20.4153 19.8201 22.0848C20.4048 22.9364 20.4984 24.0233 20.0657 25.1214C19.6681 26.1523 18.8611 27.0935 17.7851 27.7658C17.4343 27.9899 17.0951 28.1468 16.7794 28.27C15.9022 31.5643 14.9432 36.3825 17.1536 38.0072C20.2761 40.2931 29.1411 40.7301 33.3747 38.702C35.793 37.5434 35.189 35.6683 34.597 33.8305C34.1526 32.451 33.7151 31.0926 34.5675 30.074C35.351 29.1424 36.2052 28.4543 36.9529 27.8521C38.1025 26.9262 39 26.2033 39 25.1102C39 24.337 38.31 23.6423 37.5147 22.9588ZM24.1355 12.1907C22.3345 15.4514 20.9077 17.3226 16.6975 16.5495C16.2297 16.4599 15.7969 16.4038 15.3993 16.3702C15.142 15.7763 15.0017 15.1264 15.0017 14.4541C15.0017 11.6641 17.3758 9.38944 20.2879 9.38944C22.0305 9.38944 23.5741 10.2186 24.5331 11.4624C24.3811 11.6977 24.2408 11.933 24.1355 12.1907ZM20.8025 13.4348C21.0932 13.4348 21.3288 13.209 21.3288 12.9305C21.3288 12.6521 21.0932 12.4263 20.8025 12.4263C20.5119 12.4263 20.2762 12.6521 20.2762 12.9305C20.2762 13.209 20.5119 13.4348 20.8025 13.4348ZM18.019 14.4544C18.3096 14.4544 18.5452 14.2287 18.5452 13.9502C18.5452 13.6717 18.3096 13.4459 18.019 13.4459C17.7283 13.4459 17.4927 13.6717 17.4927 13.9502C17.4927 14.2287 17.7283 14.4544 18.019 14.4544ZM14.3584 22.7797C15.1302 22.2979 15.984 22.0513 16.7441 22.0513C17.5394 22.0513 18.2294 22.3203 18.5686 22.8469C18.896 23.3175 18.9311 23.9562 18.6739 24.6285C18.3932 25.3793 17.785 26.074 16.9663 26.5894C15.9138 27.2505 15.4343 27.0824 15.2823 27.0264C14.908 26.8919 14.5338 26.5334 14.066 25.8499C13.5865 25.1439 13.3525 24.6061 13.3525 24.1579C13.3525 23.8442 13.4578 23.3511 14.3584 22.7797ZM34.3453 17.838C34.8248 17.5355 35.1756 17.4346 35.4563 17.4346C35.6624 17.4346 35.8236 17.499 35.962 17.5543L35.9709 17.5579C36.4621 17.8044 36.9182 18.3983 37.3042 18.9585C38.193 20.2695 38.3684 20.7625 36.965 21.6477C35.3861 22.645 33.4448 22.6114 32.7431 21.5805C32.4156 21.1099 32.3806 20.4712 32.6378 19.7989C32.9185 19.0481 33.5266 18.3534 34.3453 17.838Z" fill="currentColor"/>
</svg>
