<svg viewBox="0 0 28 32" fill="none" xmlns="http://www.w3.org/2000/svg">
  <title>Hug Emoji</title>
  <path fill-rule="evenodd" clip-rule="evenodd" d="M27.374 12.2124C27.363 12.9579 26.9355 13.6266 26.1352 14.2405C26.9355 14.975 27.6262 15.7643 27.6262 16.7509C27.6262 18.1432 26.6286 18.9873 25.4665 19.963C24.7868 20.5331 24.0194 21.1908 23.3288 22.0459C22.7916 22.7037 23.0218 23.6355 23.4713 25.0826C24.0194 26.8476 24.7649 29.2703 21.9804 30.6626C20.1716 31.5725 17.5077 32 14.8218 32C11.3467 32 7.82764 31.2765 6.05169 29.9171C3.84819 28.2288 4.39632 23.9753 5.36103 20.0397C5.26237 20.0617 5.15271 20.0726 5.05405 20.0726C3.84816 20.0726 3.04788 19.1518 2.44493 18.2419C1.97353 17.5293 0.63612 15.4793 2.54362 13.7691C1.04174 13.0565 -0.394416 12.037 0.0989039 9.80062C0.219493 9.24152 0.778597 7.78349 3.19038 7.52038C3.11364 7.12573 3.06981 6.73107 3.06981 6.32545C3.06981 2.83933 5.90916 0 9.39528 0C11.0616 0 12.6073 0.646797 13.7803 1.78691C14.9424 0.657759 16.4881 0 18.1544 0C21.6186 0 24.436 2.8174 24.436 6.2816C24.436 6.79685 24.3703 7.31209 24.2387 7.8383L24.2277 7.96985C25.3569 8.26584 26.0695 9.34019 26.497 9.98698C26.9355 10.6338 27.385 11.4012 27.374 12.2124ZM26.0037 12.1905C26.0146 11.7958 25.6968 11.2587 25.3569 10.7434C24.6005 9.59233 24.0962 9.19767 23.5261 9.26345C23.252 9.29633 22.9341 9.41692 22.5943 9.64714C21.1034 10.6228 20.4127 12.3001 21.0815 13.3087C21.6844 14.2295 23.274 14.3501 24.6991 13.5718C24.7287 13.554 24.759 13.5363 24.7897 13.5184C24.8729 13.4698 24.9589 13.4195 25.039 13.3635C25.9927 12.7386 26.0037 12.322 26.0037 12.1905ZM12.9143 2.83933C11.9824 1.89654 10.7327 1.37033 9.39528 1.37033C6.66558 1.37033 4.44015 3.59575 4.45111 6.32545C4.45111 6.72011 4.50594 7.11477 4.60461 7.49846C5.076 7.53135 5.59124 7.59712 6.17226 7.70675C9.60357 8.36451 10.6998 7.0161 12.41 3.79308C12.5306 3.49709 12.695 3.17917 12.8814 2.89414C12.8869 2.88318 12.8924 2.87496 12.8978 2.86673C12.9033 2.85851 12.9088 2.85029 12.9143 2.83933ZM3.84818 14.4817C2.67518 15.2491 2.60941 16.0055 3.58509 17.4854C4.39633 18.7133 4.9554 19.086 6.30381 18.209C7.06023 17.7047 7.63025 17.025 7.90431 16.2905C8.14549 15.6328 8.11264 15.0079 7.80569 14.5474C7.46584 14.0322 6.83 13.7691 6.08454 13.7691C5.37197 13.7691 4.57172 13.9993 3.84818 14.4817ZM24.542 18.9509L24.5895 18.9106C25.6529 18.0116 26.2558 17.4635 26.2668 16.7509C26.2668 16.2247 25.5871 15.5779 24.9074 14.986C24.2058 15.2929 23.4933 15.4573 22.8136 15.4573C21.6077 15.4573 20.5333 14.986 19.9304 14.0651C18.8341 12.4097 19.6892 9.91024 21.8269 8.50702C22.1777 8.27681 22.5175 8.13429 22.8464 8.03563L22.9013 7.59712C23.0219 7.09284 23.0767 6.68722 23.0767 6.29257C23.0767 3.58479 20.8732 1.38129 18.1654 1.38129C16.4881 1.38129 14.9424 2.22542 14.0325 3.6396C13.89 3.85886 13.7584 4.111 13.6488 4.38506C11.9167 7.67386 10.349 9.89928 5.92007 9.05516C2.9163 8.4851 1.64468 9.2196 1.44736 10.0966C1.1404 11.5108 1.96261 12.037 3.92493 12.8921C5.87628 12.0041 8.01397 12.333 8.96772 13.791C9.51586 14.6242 9.59262 15.6766 9.19796 16.7619C8.82523 17.7705 8.0688 18.6913 7.06023 19.3491C7.03831 19.3655 7.01638 19.3765 6.99446 19.3875C6.97254 19.3984 6.95061 19.4094 6.92869 19.4258C6.28189 21.8705 4.96633 27.3518 6.88479 28.8208C9.66931 30.9585 17.6501 31.2874 21.3665 29.4347C23.0328 28.6016 22.7697 27.4395 22.1667 25.4772C21.7282 24.063 21.2349 22.4515 22.2654 21.1799C23.0268 20.2362 23.8301 19.5548 24.542 18.9509ZM9.88861 5.32781C10.1611 5.32781 10.3819 5.10694 10.3819 4.83449C10.3819 4.56204 10.1611 4.34117 9.88861 4.34117C9.61615 4.34117 9.39527 4.56204 9.39527 4.83449C9.39527 5.10694 9.61615 5.32781 9.88861 5.32781ZM7.27949 6.32558C7.55194 6.32558 7.77275 6.10472 7.77275 5.83226C7.77275 5.55981 7.55194 5.33894 7.27949 5.33894C7.00704 5.33894 6.78616 5.55981 6.78616 5.83226C6.78616 6.10472 7.00704 6.32558 7.27949 6.32558Z" fill="currentColor"/>
</svg>
