<svg viewBox="0 0 27 32" fill="none" xmlns="http://www.w3.org/2000/svg">
  <title>Hug Selected Emoji</title>
  <path fill-rule="evenodd" clip-rule="evenodd" d="M25.4039 14.9588C24.4962 15.4967 23.5102 15.7768 22.6026 15.7768C21.37 15.7768 20.2719 15.295 19.6556 14.3537C19.0954 13.5021 19.0057 12.4153 19.4203 11.3172C19.8013 10.2863 20.5744 9.34505 21.6053 8.67275C22.2216 8.26937 22.8043 8.07888 23.3645 8.06767C23.3757 7.98924 23.3869 7.89959 23.3869 7.82116C23.499 7.37296 23.5662 6.89113 23.5662 6.40932C23.5662 3.24948 21.0115 0.694719 17.8516 0.694719C16.2941 0.694719 14.8935 1.3222 13.8626 2.33066C12.6749 0.907615 10.8933 0 8.89877 0C5.33555 0 2.43341 2.90212 2.43341 6.46534C2.43341 7.13765 2.53427 7.78755 2.72475 8.39262C1.10002 8.54949 0.270787 9.28903 0.0803006 10.163C-0.345493 12.1015 0.987973 12.8971 2.52307 13.5918C4.69686 12.2024 7.34124 12.4153 8.45054 14.0848C9.01079 14.9364 9.10046 16.0233 8.68587 17.1214C8.3049 18.1523 7.53173 19.0935 6.50087 19.7658C6.16471 19.9899 5.83978 20.1468 5.53724 20.27C4.69686 23.5643 3.77798 28.3825 5.89575 30.0072C8.88751 32.2931 17.381 32.7301 21.4373 30.702C23.7543 29.5434 23.1756 27.6683 22.6084 25.8305C22.1826 24.451 21.7634 23.0926 22.5801 22.074C23.3308 21.1424 24.1492 20.4543 24.8655 19.8522L24.8656 19.8521C25.967 18.9262 26.8269 18.2033 26.8269 17.1102C26.8269 16.337 26.1658 15.6423 25.4039 14.9588ZM12.5852 4.19071C10.8596 7.45139 9.49263 9.32264 5.4588 8.54949C5.0106 8.45985 4.59596 8.40382 4.21498 8.37021C3.96847 7.77634 3.83405 7.12644 3.83405 6.45414C3.83405 3.66407 6.1087 1.38944 8.89877 1.38944C10.5683 1.38944 12.0473 2.21861 12.9662 3.46238C12.8205 3.69769 12.6861 3.93299 12.5852 4.19071ZM9.39179 5.43469C9.67027 5.43469 9.89596 5.20893 9.89596 4.93046C9.89596 4.65198 9.67027 4.42623 9.39179 4.42623C9.11331 4.42623 8.88755 4.65198 8.88755 4.93046C8.88755 5.20893 9.11331 5.43469 9.39179 5.43469ZM6.72497 6.45453C7.00345 6.45453 7.22915 6.22878 7.22915 5.9503C7.22915 5.67183 7.00345 5.44607 6.72497 5.44607C6.44649 5.44607 6.22073 5.67183 6.22073 5.9503C6.22073 6.22878 6.44649 6.45453 6.72497 6.45453ZM3.21777 14.7796C3.95731 14.2977 4.77526 14.0512 5.50359 14.0512C6.26553 14.0512 6.92663 14.3202 7.25158 14.8468C7.56532 15.3174 7.59897 15.9561 7.35245 16.6284C7.08353 17.3791 6.50084 18.0739 5.71649 18.5893C4.70803 19.2504 4.24862 19.0823 4.10295 19.0263C3.74439 18.8918 3.38585 18.5333 2.93764 17.8498C2.47824 17.1438 2.25408 16.606 2.25408 16.1578C2.25408 15.8441 2.35498 15.351 3.21777 14.7796ZM22.3672 9.83799C22.8267 9.53545 23.1628 9.4346 23.4317 9.4346C23.6292 9.4346 23.7836 9.49901 23.9162 9.55428L23.9248 9.55786C24.3954 9.80437 24.8324 10.3982 25.2022 10.9585C26.0538 12.2695 26.2218 12.7625 24.8772 13.6477C23.3645 14.645 21.5045 14.6114 20.8322 13.5805C20.5184 13.1099 20.4848 12.4712 20.7313 11.7989C21.0003 11.0481 21.5829 10.3534 22.3672 9.83799Z" fill="currentColor"/>
</svg>
