<svg width="48" height="48" viewBox="0 0 48 48" fill="none" xmlns="http://www.w3.org/2000/svg">
  <title>Hug Selected Emoji</title>
  <path
    d="M27.02 26.76C23.88 26.9 20.43 26.3 18.08 25.77C16.98 25.53 16.42 25.86 16.17 26.95C16.1 27.24 16.02 28.21 17.78 28.79C17.97 28.85 18.18 28.93 18.41 29.01C20.68 29.81 24.89 31.3 31.3 29.42C31.72 29.3 32.17 29.54 32.29 29.96C32.41 30.38 32.17 30.83 31.75 30.95C24.85 32.98 20.31 31.37 17.88 30.51C17.66 30.43 17.46 30.36 17.28 30.3C14.86 29.5 14.33 27.79 14.62 26.58C15.07 24.63 16.46 23.76 18.44 24.2C21.67 24.92 24.62 25.25 26.96 25.15C30.34 25.01 34 22.85 34.7 22.42C35.18 22.12 35.65 21.25 35.22 20.46C34.75 19.58 33.9 19.63 33.28 19.82C33.15 19.86 33 19.91 32.82 19.98C31.77 20.35 29.82 21.03 26.81 21.03C24.96 21.03 23.43 20.5 21.95 19.98C20.59 19.5 19.3 19.05 17.84 19.05C14.66 19.06 13 21.58 13 24.06V39.9H35.38V26.63L35.39 23.87C34.37 24.49 30.6 26.6 27.02 26.76Z"
    fill="currentColor"
  />
  <path
    d="M23.28 11.43C23.22 11.72 23.18 12.03 23.18 12.34C23.18 12.65 23.22 12.95 23.28 13.25C23.28 13.26 23.29 13.27 23.29 13.28C23.72 15.22 25.45 16.68 27.52 16.68C29.91 16.68 31.86 14.73 31.86 12.34C31.86 9.95 29.91 8 27.52 8C25.46 8 23.73 9.45 23.3 11.39C23.29 11.4 23.29 11.41 23.28 11.43Z"
    fill="currentColor"
  />
  <path
    d="M21.63 16.68C22.2 16.68 22.76 16.55 23.28 16.34C22.3 15.29 21.69 13.89 21.69 12.34C21.69 10.79 22.3 9.38 23.29 8.34C22.77 8.12 22.21 8 21.63 8C19.24 8 17.3 9.95 17.3 12.34C17.3 14.73 19.24 16.68 21.63 16.68Z"
    fill="currentColor"
  />
</svg>
