<svg viewBox="0 0 48 48" fill="none" xmlns="http://www.w3.org/2000/svg">
  <title>Hug Emoji</title>
  <path
    d="M12.75 40C12.34 40 12 39.66 12 39.25V24.4C12 21.32 14.07 18.2 18.03 18.2C19.65 18.2 21.04 18.68 22.38 19.15C23.71 19.61 24.97 20.05 26.45 20.05C29.02 20.05 30.63 19.49 31.59 19.15C31.78 19.08 31.94 19.03 32.08 18.99C33.6 18.52 34.98 19.03 35.67 20.31C36.44 21.75 35.77 23.45 34.65 24.14C33.94 24.58 30.21 26.77 26.66 26.92C23.72 27.05 20.47 26.48 18.27 25.99C17.23 25.76 16.71 26.08 16.48 27.1C16.4 27.44 16.39 28.3 17.99 28.83C18.17 28.89 18.36 28.96 18.58 29.03C20.71 29.78 24.67 31.18 30.68 29.41C31.08 29.29 31.49 29.52 31.61 29.92C31.73 30.32 31.5 30.73 31.1 30.85C24.62 32.76 20.37 31.25 18.08 30.44C17.87 30.37 17.69 30.3 17.52 30.25C15.25 29.5 14.76 27.9 15.02 26.76C15.44 24.93 16.75 24.11 18.6 24.52C21.63 25.2 24.4 25.51 26.6 25.42C29.78 25.28 33.21 23.26 33.86 22.86C34.32 22.58 34.75 21.76 34.35 21.02C33.91 20.2 33.11 20.24 32.52 20.42C32.4 20.46 32.25 20.51 32.09 20.57C31.11 20.91 29.28 21.55 26.46 21.55C24.72 21.55 23.29 21.05 21.9 20.56C20.61 20.12 19.4 19.7 18.03 19.7C15.06 19.7 13.5 22.06 13.5 24.4V39.25C13.5 39.66 13.16 40 12.75 40Z"
    fill="currentColor"
  />
  <path
    d="M34.47 40C34.06 40 33.72 39.66 33.72 39.25V26.8C33.72 26.39 34.06 26.05 34.47 26.05C34.88 26.05 35.22 26.39 35.22 26.8V39.25C35.22 39.66 34.89 40 34.47 40Z"
    fill="currentColor"
  />
  <path
    d="M24.24 40C23.83 40 23.49 39.66 23.49 39.25V33.9C23.49 33.49 23.83 33.15 24.24 33.15C24.65 33.15 24.99 33.49 24.99 33.9V39.25C24.99 39.66 24.65 40 24.24 40Z"
    fill="currentColor"
  />
  <path
    d="M27.33 16.68C24.94 16.68 23 14.73 23 12.34C23 9.95 24.94 8 27.33 8C29.72 8 31.66 9.95 31.66 12.34C31.66 14.73 29.72 16.68 27.33 16.68ZM27.33 9.5C25.77 9.5 24.5 10.77 24.5 12.34C24.5 13.91 25.77 15.18 27.33 15.18C28.89 15.18 30.16 13.91 30.16 12.34C30.16 10.77 28.89 9.5 27.33 9.5Z"
    fill="currentColor"
  />
  <path
    d="M21.44 16.68C19.05 16.68 17.11 14.73 17.11 12.34C17.11 9.95 19.05 8 21.44 8C22.87 8 24.21 8.71 25.02 9.89C25.25 10.23 25.17 10.7 24.83 10.93C24.49 11.16 24.02 11.08 23.79 10.74C23.26 9.97 22.39 9.51 21.45 9.51C19.89 9.51 18.62 10.78 18.62 12.35C18.62 13.92 19.89 15.19 21.45 15.19C22.28 15.19 23.07 14.82 23.61 14.18C23.88 13.86 24.35 13.82 24.67 14.09C24.99 14.36 25.03 14.83 24.76 15.15C23.93 16.12 22.72 16.68 21.44 16.68Z"
    fill="currentColor"
  />
</svg>
