<svg viewBox="0 0 46 54" xmlns="http://www.w3.org/2000/svg" xmlns:xlink="http://www.w3.org/1999/xlink">
  <title>Postcard Hug Filled</title>
  <path d="M12.8529 10.6982C12.8529 11.1422 12.4929 11.5032 12.0479 11.5032 11.6039 11.5032 11.2439 11.1422 11.2439 10.6982 11.2439 10.2532 11.6039 9.8932 12.0479 9.8932 12.4929 9.8932 12.8529 10.2532 12.8529 10.6982M17.098 9.0884C17.098 9.5334 16.738 9.8934 16.293 9.8934 15.848 9.8934 15.489 9.5334 15.489 9.0884 15.489 8.6444 15.848 8.2834 16.293 8.2834 16.738 8.2834 17.098 8.6444 17.098 9.0884"/>
  <path d="M41.6888,18.0781 C42.3648,19.1051 42.8118,19.9331 42.7988,20.6391 C42.7908,21.1001 42.6008,21.8311 41.0678,22.8411 C38.4518,24.5621 35.3408,24.4701 34.1338,22.6351 C32.9258,20.8001 34.0718,17.9071 36.6868,16.1851 C37.4038,15.7141 38.0138,15.4951 38.5668,15.4951 C39.7218,15.4951 40.6198,16.4551 41.6888,18.0781 M5.7498,29.4181 C4.0658,26.8591 4.2108,25.4001 6.2858,24.0351 C7.5388,23.2101 8.9058,22.8011 10.1228,22.8011 C11.4448,22.8011 12.5898,23.2841 13.2188,24.2401 C14.4268,26.0751 13.2818,28.9681 10.6668,30.6901 C8.2588,32.2741 7.1228,31.5031 5.7498,29.4181 M15.4888,3.2551 C17.5928,3.2551 19.5018,4.0911 20.9128,5.4431 C20.6228,5.8991 20.3588,6.3991 20.1308,6.9321 C17.4328,12.0261 15.6748,14.1461 10.2918,13.1151 C9.3848,12.9401 8.5738,12.8421 7.8208,12.7891 C7.7028,12.2461 7.6348,11.6851 7.6348,11.1081 C7.6348,6.7781 11.1588,3.2551 15.4888,3.2551 M42.5898,23.5841 C43.7258,22.6791 44.2788,21.7391 44.2978,20.6671 C44.3188,19.5731 43.7938,18.5491 42.9408,17.2531 C42.3218,16.3121 41.2988,14.7741 39.7608,14.2141 C39.7868,13.9851 39.8078,13.7661 39.8358,13.5261 C40.0428,12.6881 40.1478,11.8511 40.1478,11.0361 C40.1478,5.2851 35.4688,0.6051 29.7168,0.6051 C27.0158,0.6051 24.4798,1.6371 22.5688,3.4411 C20.7048,1.7181 18.2218,0.6551 15.4888,0.6551 C9.7248,0.6551 5.0358,5.3441 5.0358,11.1081 C5.0358,11.6971 5.0958,12.2701 5.1908,12.8331 C1.2838,13.3391 0.3698,15.7631 0.1648,16.6901 C-0.7002,20.6011 2.0048,22.3471 4.5208,23.5211 C2.0718,25.7891 3.2848,28.4011 4.4968,30.2431 C5.4588,31.7031 6.6538,33.0421 8.4308,33.0421 C8.5388,33.0421 8.6558,33.0211 8.7688,33.0111 C7.3228,38.7241 5.9328,46.5451 9.9108,49.5831 C12.8318,51.8151 18.6108,53.0001 24.3098,53.0001 C28.7098,53.0001 33.0628,52.2931 36.0148,50.8171 C40.7168,48.4661 39.4718,44.4241 38.5638,41.4731 C37.8638,39.1971 37.4948,37.7441 38.2848,36.7631 C39.3948,35.3871 40.6338,34.3431 41.7268,33.4221 C43.5748,31.8651 45.3198,30.3951 45.3198,28.0321 C45.3198,26.2471 44.0258,24.8721 42.5898,23.5841" />
</svg>

