<svg xmlns="http://www.w3.org/2000/svg" viewBox="0 0 48 48">
    <title>Mild Acne Emoji</title>
    <g fill="none">
        <path fill="#332e54"
              d="M34.22 23.16c-.84.55-1.1 1.7-.55 2.56.54.86 1.65 1.1 2.5.56.83-.55 1.08-1.7.54-2.56-.53-.87-1.64-1.12-2.48-.56M13.8 23.16c-.85-.56-1.97-.3-2.5.56-.54.86-.3 2 .54 2.56.84.55 1.96.3 2.5-.56.54-.87.3-2-.55-2.56"/>
        <rect width="9.304" height="1.246" x="19.253" y="29.483" fill="#332e54" rx=".623"/>
        <g fill="#efd4c7">
            <ellipse cx="36.011" cy="32.954" rx="1" ry="1"/>
            <ellipse cx="37.373" cy="30.997" rx="1" ry="1"/>
            <ellipse cx="38.735" cy="32.954" rx="1" ry="1"/>
            <ellipse cx="8.889" cy="33.033" rx="1" ry="1"/>
            <ellipse cx="10.29" cy="31.02" rx="1" ry="1"/>
            <ellipse cx="11.691" cy="33.033" rx="1" ry="1"/>
        </g>
        <circle cx="24" cy="24" r="23" stroke="#332e54" stroke-width="2"/>
    </g>
</svg>
