<svg viewBox="0 0 48 48" xmlns="http://www.w3.org/2000/svg" xmlns:xlink="http://www.w3.org/1999/xlink">
    <title>Noticeable Acne Emoji</title>
    <g fill="none" fill-rule="evenodd">
        <path d="m34.2175253 23.155093c-.8406085.5518037-1.0866403 1.6984206-.5482229 2.5613574.5375259.8620216 1.6535831 1.1145885 2.4950831.5627848.8397172-.5518037 1.0848575-1.6984206.548223-2.5613573-.5384174-.8629368-1.655366-1.1145885-2.4950832-.5627849"
              fill="#332e54"/>
        <path d="m13.7906477 23.155093c-.8397172-.5518036-1.9575572-.3001519-2.4950832.5627849-.5366345.8629367-.2914941 2.0095536.5473316 2.5613573.8415.5518037 1.9584486.2992368 2.4950832-.5627848.5384173-.8629368.2923856-2.0095537-.5473316-2.5613574"
              fill="#332e54"/>
        <rect fill="#332e54" height="1.245763" rx=".622881" width="9.303723" x="19.253027" y="29.483051"/>
        <g fill="#efd4c7">
            <ellipse cx="36.010896" cy="32.954067" rx="1" ry="1"/>
            <ellipse cx="37.372881" cy="30.996639" rx="1" ry="1"/>
            <ellipse cx="38.734867" cy="32.954067" rx="1" ry="1"/>
            <ellipse cx="8.88929" cy="33.032985" rx="1" ry="1"/>
            <ellipse cx="10.290189" cy="31.019631" rx="1" ry="1"/>
            <ellipse cx="11.691089" cy="33.032985" rx="1" ry="1"/>
        </g>
        <circle cx="24" cy="24" r="23" stroke="#332e54" stroke-width="2"/>
    </g>
</svg>