<svg viewBox="0 0 32 32" fill="none" xmlns="http://www.w3.org/2000/svg">
  <title>Mild Acne Emoji</title>
  <path fill-rule="evenodd" clip-rule="evenodd" d="M30.8 16C30.8 7.8 24.1 1.2 16 1.2C7.9 1.2 1.2 7.9 1.2 16C1.2 24.1 7.9 30.8 16 30.8C24.1 30.8 30.8 24.2 30.8 16ZM0 16C0 7.2 7.2 0 16 0C24.8 0 32 7.2 32 16C32 24.8 24.8 32 16 32C7.2 32 0 24.8 0 16ZM24.6 15.3C24.6 15.9627 24.0627 16.5 23.4 16.5C22.7373 16.5 22.2 15.9627 22.2 15.3C22.2 14.6372 22.7373 14.1 23.4 14.1C24.0627 14.1 24.6 14.6372 24.6 15.3ZM25 21C25.2761 21 25.5 20.7762 25.5 20.5C25.5 20.2239 25.2761 20 25 20C24.7239 20 24.5 20.2239 24.5 20.5C24.5 20.7762 24.7239 21 25 21ZM26.5 19.2C26.5 19.4762 26.2761 19.7 26 19.7C25.7239 19.7 25.5 19.4762 25.5 19.2C25.5 18.9239 25.7239 18.7 26 18.7C26.2761 18.7 26.5 18.9239 26.5 19.2ZM27 21C27.2761 21 27.5 20.7762 27.5 20.5C27.5 20.2239 27.2761 20 27 20C26.7239 20 26.5 20.2239 26.5 20.5C26.5 20.7762 26.7239 21 27 21ZM5.7 20.5C5.7 20.7762 5.47614 21 5.2 21C4.92385 21 4.7 20.7762 4.7 20.5C4.7 20.2239 4.92385 20 5.2 20C5.47614 20 5.7 20.2239 5.7 20.5ZM6.2 19.7C6.47614 19.7 6.7 19.4762 6.7 19.2C6.7 18.9239 6.47614 18.7 6.2 18.7C5.92385 18.7 5.7 18.9239 5.7 19.2C5.7 19.4762 5.92385 19.7 6.2 19.7ZM7.7 20.5C7.7 20.7762 7.47614 21 7.2 21C6.92385 21 6.7 20.7762 6.7 20.5C6.7 20.2239 6.92385 20 7.2 20C7.47614 20 7.7 20.2239 7.7 20.5ZM8.9 16.5C9.56274 16.5 10.1 15.9627 10.1 15.3C10.1 14.6372 9.56274 14.1 8.9 14.1C8.23726 14.1 7.7 14.6372 7.7 15.3C7.7 15.9627 8.23726 16.5 8.9 16.5ZM13.1 21.625H19.7V20.375H13.1V21.625Z" fill="#332E54"/>
</svg>
