<svg viewBox="0 0 32 32" fill="none" xmlns="http://www.w3.org/2000/svg">
  <title>Mild Acne Filled Emoji</title>
  <path fill-rule="evenodd" clip-rule="evenodd" d="M16 32C24.8366 32 32 24.8366 32 16C32 7.16344 24.8366 0 16 0C7.16344 0 0 7.16344 0 16C0 24.8366 7.16344 32 16 32ZM24.6 15.3C24.6 15.9627 24.0628 16.5 23.4 16.5C22.7373 16.5 22.2 15.9627 22.2 15.3C22.2 14.6372 22.7373 14.1 23.4 14.1C24.0628 14.1 24.6 14.6372 24.6 15.3ZM25 21C25.2761 21 25.5 20.7762 25.5 20.5C25.5 20.2239 25.2761 20 25 20C24.7239 20 24.5 20.2239 24.5 20.5C24.5 20.7762 24.7239 21 25 21ZM26.5 19.2C26.5 19.4762 26.2761 19.7 26 19.7C25.7239 19.7 25.5 19.4762 25.5 19.2C25.5 18.9239 25.7239 18.7 26 18.7C26.2761 18.7 26.5 18.9239 26.5 19.2ZM27 21C27.2761 21 27.5 20.7762 27.5 20.5C27.5 20.2239 27.2761 20 27 20C26.7239 20 26.5 20.2239 26.5 20.5C26.5 20.7762 26.7239 21 27 21ZM5.70001 20.5C5.70001 20.7762 5.47615 21 5.20001 21C4.92387 21 4.70001 20.7762 4.70001 20.5C4.70001 20.2239 4.92387 20 5.20001 20C5.47615 20 5.70001 20.2239 5.70001 20.5ZM6.20001 19.7C6.47615 19.7 6.70001 19.4762 6.70001 19.2C6.70001 18.9239 6.47615 18.7 6.20001 18.7C5.92387 18.7 5.70001 18.9239 5.70001 19.2C5.70001 19.4762 5.92387 19.7 6.20001 19.7ZM7.70001 20.5C7.70001 20.7762 7.47615 21 7.20001 21C6.92387 21 6.70001 20.7762 6.70001 20.5C6.70001 20.2239 6.92387 20 7.20001 20C7.47615 20 7.70001 20.2239 7.70001 20.5ZM8.90001 16.5C9.56275 16.5 10.1 15.9627 10.1 15.3C10.1 14.6372 9.56275 14.1 8.90001 14.1C8.23727 14.1 7.70001 14.6372 7.70001 15.3C7.70001 15.9627 8.23727 16.5 8.90001 16.5ZM13.1 21.625H19.7V20.375H13.1V21.625Z" fill="#A6A1E2"/>
</svg>
