<svg viewBox="0 0 48 48" fill="none" xmlns="http://www.w3.org/2000/svg">
  <title>Mild Irritation Emoji</title>
  <path fill-rule="evenodd" clip-rule="evenodd" d="M38.8 24C38.8 15.8 32.1 9.2 24 9.2C15.9 9.2 9.2 15.9 9.2 24C9.2 32.1 15.9 38.8 24 38.8C32.1 38.8 38.8 32.2 38.8 24ZM8 24C8 15.2 15.2 8 24 8C32.8 8 40 15.2 40 24C40 32.8 32.8 40 24 40C15.2 40 8 32.8 8 24ZM32.6 23.3C32.6 23.9627 32.0627 24.5 31.4 24.5C30.7373 24.5 30.2 23.9627 30.2 23.3C30.2 22.6372 30.7373 22.1 31.4 22.1C32.0627 22.1 32.6 22.6372 32.6 23.3ZM33 29C33.2761 29 33.5 28.7762 33.5 28.5C33.5 28.2239 33.2761 28 33 28C32.7239 28 32.5 28.2239 32.5 28.5C32.5 28.7762 32.7239 29 33 29ZM34.5 27.2C34.5 27.4762 34.2761 27.7 34 27.7C33.7239 27.7 33.5 27.4762 33.5 27.2C33.5 26.9239 33.7239 26.7 34 26.7C34.2761 26.7 34.5 26.9239 34.5 27.2ZM35 29C35.2761 29 35.5 28.7762 35.5 28.5C35.5 28.2239 35.2761 28 35 28C34.7239 28 34.5 28.2239 34.5 28.5C34.5 28.7762 34.7239 29 35 29ZM13.7 28.5C13.7 28.7762 13.4761 29 13.2 29C12.9239 29 12.7 28.7762 12.7 28.5C12.7 28.2239 12.9239 28 13.2 28C13.4761 28 13.7 28.2239 13.7 28.5ZM14.2 27.7C14.4761 27.7 14.7 27.4762 14.7 27.2C14.7 26.9239 14.4761 26.7 14.2 26.7C13.9239 26.7 13.7 26.9239 13.7 27.2C13.7 27.4762 13.9239 27.7 14.2 27.7ZM15.7 28.5C15.7 28.7762 15.4761 29 15.2 29C14.9239 29 14.7 28.7762 14.7 28.5C14.7 28.2239 14.9239 28 15.2 28C15.4761 28 15.7 28.2239 15.7 28.5ZM16.9 24.5C17.5627 24.5 18.1 23.9627 18.1 23.3C18.1 22.6372 17.5627 22.1 16.9 22.1C16.2373 22.1 15.7 22.6372 15.7 23.3C15.7 23.9627 16.2373 24.5 16.9 24.5ZM21.1 29.625H27.7V28.375H21.1V29.625Z" fill="currentColor"/>
</svg>
