<svg
  width="48"
  height="48"
  viewBox="0 0 48 48"
  fill="none"
  xmlns="http://www.w3.org/2000/svg"
>
  <title>Mild Irritation Emoji</title>
  <path
    d="M24 40C15.18 40 8 32.82 8 24C8 15.18 15.18 8 24 8C32.82 8 40 15.18 40 24C40 32.82 32.82 40 24 40ZM24 9.5C16 9.5 9.5 16 9.5 24C9.5 32 16 38.5 24 38.5C32 38.5 38.5 32 38.5 24C38.5 16 32 9.5 24 9.5Z"
    fill="#2D2A26"
  />
  <path
    d="M29.92 32.88C28.68 32.88 28.04 32.01 27.57 31.37C27.18 30.84 26.98 30.61 26.72 30.61C26.38 30.61 26.24 30.78 25.88 31.4C25.54 31.99 25.02 32.89 23.84 32.89C22.75 32.89 22.25 32.03 21.9 31.4C21.55 30.79 21.4 30.6 21.14 30.6C20.94 30.6 20.76 30.83 20.44 31.32C20.01 31.98 19.42 32.89 18.16 32.89C17.75 32.89 17.41 32.55 17.41 32.14C17.41 31.73 17.75 31.39 18.16 31.39C18.56 31.39 18.77 31.13 19.18 30.5C19.57 29.91 20.1 29.1 21.13 29.1C22.31 29.1 22.84 30.04 23.2 30.66C23.51 31.2 23.65 31.39 23.84 31.39C24.12 31.39 24.25 31.23 24.58 30.65C24.93 30.04 25.46 29.11 26.72 29.11C27.77 29.11 28.33 29.87 28.78 30.48C29.24 31.11 29.49 31.38 29.92 31.38C30.33 31.38 30.67 31.72 30.67 32.13C30.67 32.54 30.33 32.88 29.92 32.88Z"
    fill="#2D2A26"
  />
</svg>
