<svg viewBox="0 0 48 48" fill="none" xmlns="http://www.w3.org/2000/svg">
  <title>Noticeable Irritation Emoji</title>
  <path
    d="M24 40C15.18 40 8 32.82 8 24C8 15.18 15.18 8 24 8C32.82 8 40 15.18 40 24C40 32.82 32.82 40 24 40ZM24 9.5C16 9.5 9.5 16 9.5 24C9.5 32 16 38.5 24 38.5C32 38.5 38.5 32 38.5 24C38.5 16 32 9.5 24 9.5Z"
    fill="currentColor"
  />
  <path
    d="M25.7 32.88C25.25 32.88 24.96 32.82 24.7 32.76C24.48 32.71 24.3 32.67 24 32.67C23.68 32.67 23.52 32.71 23.32 32.75C23.09 32.81 22.79 32.87 22.3 32.87C20.97 32.87 19.93 31.83 19.93 30.5C19.93 29.19 20.99 28.13 22.3 28.13C22.74 28.13 23.03 28.19 23.28 28.25C23.5 28.3 23.68 28.34 24.01 28.34C24.31 28.34 24.47 28.3 24.67 28.26C24.91 28.2 25.21 28.13 25.71 28.13C27.02 28.13 28.08 29.19 28.08 30.5C28.07 31.8 26.99 32.88 25.7 32.88ZM24 31.17C24.47 31.17 24.77 31.24 25.03 31.29C25.24 31.34 25.41 31.38 25.7 31.38C26.16 31.38 26.57 30.97 26.57 30.51C26.57 30.04 26.17 29.64 25.7 29.64C25.37 29.64 25.21 29.68 25 29.73C24.75 29.79 24.48 29.85 24 29.85C23.51 29.85 23.19 29.78 22.94 29.72C22.73 29.67 22.57 29.64 22.29 29.64C21.81 29.64 21.42 30.03 21.42 30.51C21.42 31.01 21.79 31.38 22.29 31.38C22.61 31.38 22.77 31.34 22.97 31.3C23.21 31.24 23.5 31.17 24 31.17Z"
    fill="currentColor"
  />
  <path
    d="M24 40C15.18 40 8 32.82 8 24C8 15.18 15.18 8 24 8C32.82 8 40 15.18 40 24C40 32.82 32.82 40 24 40ZM24 9.5C16 9.5 9.5 16 9.5 24C9.5 32 16 38.5 24 38.5C32 38.5 38.5 32 38.5 24C38.5 16 32 9.5 24 9.5Z"
    fill="currentColor"
  />
</svg>
