<svg viewBox="0 0 48 48" fill="none" xmlns="https://www.w3.org/2000/svg">
  <title>Noticeable Acne Selected Emoji</title>
  <path fill-rule="evenodd" clip-rule="evenodd" d="M40 24C40 32.8366 32.8366 40 24 40C15.1634 40 8 32.8366 8 24C8 15.1634 15.1634 8 24 8C32.8366 8 40 15.1634 40 24ZM24 27.375C26.3171 27.375 27.7948 28.4847 28.5 29.425L27.5 30.175C27.0052 29.5153 25.8829 28.625 24 28.625C22.1414 28.625 21.0004 29.5932 20.4745 30.2068L19.5255 29.3933C20.1996 28.6068 21.6586 27.375 24 27.375ZM31.4 24.5C32.0628 24.5 32.6 23.9627 32.6 23.3C32.6 22.6372 32.0628 22.1 31.4 22.1C30.7373 22.1 30.2 22.6372 30.2 23.3C30.2 23.9627 30.7373 24.5 31.4 24.5ZM33.5 28.5C33.5 28.7762 33.2761 29 33 29C32.7239 29 32.5 28.7762 32.5 28.5C32.5 28.2239 32.7239 28 33 28C33.2761 28 33.5 28.2239 33.5 28.5ZM34 27.7C34.2761 27.7 34.5 27.4762 34.5 27.2C34.5 26.9239 34.2761 26.7 34 26.7C33.7239 26.7 33.5 26.9239 33.5 27.2C33.5 27.4762 33.7239 27.7 34 27.7ZM35.5 28.5C35.5 28.7762 35.2761 29 35 29C34.7239 29 34.5 28.7762 34.5 28.5C34.5 28.2239 34.7239 28 35 28C35.2761 28 35.5 28.2239 35.5 28.5ZM13.2 29C13.4762 29 13.7 28.7762 13.7 28.5C13.7 28.2239 13.4762 28 13.2 28C12.9239 28 12.7 28.2239 12.7 28.5C12.7 28.7762 12.9239 29 13.2 29ZM14.7 27.2C14.7 27.4762 14.4762 27.7 14.2 27.7C13.9239 27.7 13.7 27.4762 13.7 27.2C13.7 26.9239 13.9239 26.7 14.2 26.7C14.4762 26.7 14.7 26.9239 14.7 27.2ZM15.2 29C15.4762 29 15.7 28.7762 15.7 28.5C15.7 28.2239 15.4762 28 15.2 28C14.9239 28 14.7 28.2239 14.7 28.5C14.7 28.7762 14.9239 29 15.2 29ZM18.1 23.3C18.1 23.9627 17.5628 24.5 16.9 24.5C16.2373 24.5 15.7 23.9627 15.7 23.3C15.7 22.6372 16.2373 22.1 16.9 22.1C17.5628 22.1 18.1 22.6372 18.1 23.3Z" fill="currentColor"/>
</svg>
