<svg viewBox="0 0 32 32" fill="none" xmlns="http://www.w3.org/2000/svg">
  <title>Noticeable Acne Emoji</title>
  <path fill-rule="evenodd" clip-rule="evenodd" d="M30.8 16C30.8 7.8 24.1 1.2 16 1.2C7.9 1.2 1.2 7.9 1.2 16C1.2 24.1 7.9 30.8 16 30.8C24.1 30.8 30.8 24.2 30.8 16ZM0 16C0 7.2 7.2 0 16 0C24.8 0 32 7.2 32 16C32 24.8 24.8 32 16 32C7.2 32 0 24.8 0 16ZM16 19.375C18.3171 19.375 19.7948 20.4847 20.5 21.425L19.5 22.175C19.0052 21.5153 17.8829 20.625 16 20.625C14.1414 20.625 13.0004 21.5932 12.4745 22.2068L11.5255 21.3933C12.1996 20.6068 13.6586 19.375 16 19.375ZM23.4 16.5C24.0628 16.5 24.6 15.9627 24.6 15.3C24.6 14.6372 24.0628 14.1 23.4 14.1C22.7373 14.1 22.2 14.6372 22.2 15.3C22.2 15.9627 22.7373 16.5 23.4 16.5ZM25.5 20.5C25.5 20.7762 25.2761 21 25 21C24.7239 21 24.5 20.7762 24.5 20.5C24.5 20.2239 24.7239 20 25 20C25.2761 20 25.5 20.2239 25.5 20.5ZM26 19.7C26.2761 19.7 26.5 19.4762 26.5 19.2C26.5 18.9239 26.2761 18.7 26 18.7C25.7239 18.7 25.5 18.9239 25.5 19.2C25.5 19.4762 25.7239 19.7 26 19.7ZM27.5 20.5C27.5 20.7762 27.2761 21 27 21C26.7239 21 26.5 20.7762 26.5 20.5C26.5 20.2239 26.7239 20 27 20C27.2761 20 27.5 20.2239 27.5 20.5ZM5.20001 21C5.47615 21 5.70001 20.7762 5.70001 20.5C5.70001 20.2239 5.47615 20 5.20001 20C4.92387 20 4.70001 20.2239 4.70001 20.5C4.70001 20.7762 4.92387 21 5.20001 21ZM6.70001 19.2C6.70001 19.4762 6.47615 19.7 6.20001 19.7C5.92387 19.7 5.70001 19.4762 5.70001 19.2C5.70001 18.9239 5.92387 18.7 6.20001 18.7C6.47615 18.7 6.70001 18.9239 6.70001 19.2ZM7.20001 21C7.47615 21 7.70001 20.7762 7.70001 20.5C7.70001 20.2239 7.47615 20 7.20001 20C6.92387 20 6.70001 20.2239 6.70001 20.5C6.70001 20.7762 6.92387 21 7.20001 21ZM10.1 15.3C10.1 15.9627 9.56275 16.5 8.90001 16.5C8.23727 16.5 7.70001 15.9627 7.70001 15.3C7.70001 14.6372 8.23727 14.1 8.90001 14.1C9.56275 14.1 10.1 14.6372 10.1 15.3Z" fill="currentColor"/>
</svg>
