<svg xmlns="http://www.w3.org/2000/svg" viewBox="0 0 48 48">
    <title>Noticeable Acne Emoji</title>
    <g fill="none">
        <circle cx="24" cy="24" r="23" stroke="#332E54" stroke-width="2"/>
        <path fill="#332E54"
              d="M34.07 22.46c-.84.53-1.1 1.64-.55 2.48.53.84 1.65 1.08 2.48.55.84-.55 1.08-1.66.55-2.5-.54-.84-1.65-1.08-2.48-.54"/>
        <path fill="#332E54"
              d="M13.73 22.46c-.84-.54-1.95-.3-2.48.54-.54.84-.3 1.95.54 2.5.83.52 1.94.28 2.47-.56.54-.84.3-1.95-.54-2.48"/>
        <path fill="#332E54"
              d="M23.9 26.6c-1.86 0-3.54.65-4.5 1.72-.25.27-.22.7.05.94.13.1.3.17.44.17.18 0 .36-.08.5-.22.7-.78 2.04-1.26 3.5-1.26s2.8.48 3.5 1.26c.25.28.67.3.95.05.27-.24.3-.66.05-.94-.97-1.06-2.65-1.7-4.5-1.7"/>
        <circle cx="23.657" cy="37.817" r="1" fill="#EFD4C7"/>
        <ellipse cx="38.2" cy="30.24" fill="#EFD4C7" rx="1.4" ry="1.44"/>
        <ellipse cx="9.8" cy="30.24" fill="#EFD4C7" rx="1.4" ry="1.44"/>
    </g>
</svg>
