<svg viewBox="0 0 48 48" fill="none" xmlns="http://www.w3.org/2000/svg">
  <title>Noticeable Irritation Selected Emoji</title>
  <path
    d="M23.75 8C15.07 8 8 15.07 8 23.75C8 32.43 15.07 39.5 23.75 39.5C32.43 39.5 39.5 32.43 39.5 23.75C39.5 15.07 32.43 8 23.75 8ZM25.45 32.38C25.03 32.38 24.75 32.32 24.51 32.26C24.28 32.21 24.09 32.17 23.75 32.17C23.4 32.17 23.22 32.21 23.01 32.26C22.78 32.32 22.51 32.38 22.05 32.38C20.86 32.38 19.93 31.45 19.93 30.26C19.93 29.09 20.88 28.14 22.05 28.14C22.47 28.14 22.73 28.2 22.97 28.25C23.2 28.3 23.4 28.35 23.75 28.35C24.08 28.35 24.26 28.31 24.47 28.26C24.71 28.2 24.98 28.14 25.45 28.14C26.62 28.14 27.57 29.09 27.57 30.26C27.57 31.41 26.6 32.38 25.45 32.38Z"
    fill="currentColor"
  />
</svg>
