<svg
  width="48"
  height="48"
  viewBox="0 0 48 48"
  fill="none"
  xmlns="http://www.w3.org/2000/svg"
>
  <title>Overwhelmed Selected Emoji</title>
  <path
    d="M31.37 19.2C31.37 21.48 33.12 23.09 35.31 23.09C37.69 23.09 39.2 21.53 39.24 19.14C38.79 17.73 38.15 16.4 37.34 15.19C37.28 15.11 37.22 15.03 37.16 14.95C37.08 14.84 37 14.72 36.92 14.6C36.28 13.72 35.55 12.91 34.74 12.18C34.46 13.1 34.03 14.07 33.39 14.9C32.45 16.13 31.37 17.5 31.37 19.2Z"
    fill="#2D2A26"
  />
  <path
    d="M39.89 22.2C38.96 23.69 37.32 24.59 35.31 24.59C32.21 24.59 29.87 22.27 29.87 19.2C29.87 17.02 31.14 15.37 32.16 14.05L32.21 13.99C32.87 13.14 33.25 12.08 33.48 11.14C30.82 9.18 27.55 8 24 8C15.18 8 8 15.18 8 24C8 32.82 15.18 40 24 40C32.82 40 40 32.82 40 24C40 23.39 39.96 22.79 39.89 22.2ZM30.15 29.99C30.15 31.45 28.96 32.63 27.51 32.63H20.48C19.02 32.63 17.84 31.44 17.84 29.99V29.32C17.84 27.49 19.33 26 21.16 26H26.84C28.67 26 30.16 27.49 30.16 29.32V29.99H30.15Z"
    fill="#2D2A26"
  />
  <path
    d="M35.31 8.72C35.31 8.72 35.31 12.42 33.39 14.9C32.45 16.12 31.36 17.5 31.36 19.2C31.36 21.48 33.1 23.09 35.3 23.09C37.71 23.09 39.24 21.48 39.24 19.04C39.24 17.31 38.07 16.19 37.15 14.96C35.43 12.64 35.31 8.72 35.31 8.72Z"
    fill="#2D2A26"
  />
</svg>
