<svg
  width="48"
  height="48"
  viewBox="0 0 48 48"
  fill="none"
  xmlns="http://www.w3.org/2000/svg"
>
  <title>Overwhelmed Emoji</title>
  <path
    d="M27.5 32.67H20.47C19.01 32.67 17.83 31.48 17.83 30.03V29.36C17.83 27.53 19.32 26.04 21.15 26.04H26.83C28.66 26.04 30.15 27.53 30.15 29.36V30.03C30.15 31.48 28.96 32.67 27.5 32.67ZM21.15 27.53C20.15 27.53 19.33 28.35 19.33 29.35V30.02C19.33 30.65 19.84 31.16 20.47 31.16H27.5C28.13 31.16 28.64 30.65 28.64 30.02V29.35C28.64 28.35 27.83 27.53 26.82 27.53H21.15Z"
    fill="#2D2A26"
  />
  <path
    d="M35.31 23.87C32.64 23.87 30.62 21.87 30.62 19.23C30.62 17.31 31.8 15.77 32.75 14.54C34.54 12.22 34.56 8.79 34.56 8.75C34.56 8.34 34.89 8.01 35.3 8H35.31C35.71 8 36.05 8.32 36.06 8.73C36.06 8.77 36.2 12.45 37.77 14.54C37.92 14.74 38.08 14.94 38.23 15.13C39.06 16.18 40 17.37 40 19.07C40 21.94 38.11 23.87 35.31 23.87ZM35.3 12.91C35 13.76 34.57 14.62 33.98 15.39C33.04 16.62 32.11 17.82 32.11 19.23C32.11 21.05 33.45 22.37 35.3 22.37C37.27 22.37 38.49 21.11 38.49 19.07C38.49 17.89 37.82 17.04 37.04 16.07C36.87 15.86 36.71 15.65 36.55 15.44C36 14.69 35.59 13.79 35.3 12.91Z"
    fill="#2D2A26"
  />
  <path
    d="M24.03 40C15.19 40 8 32.82 8 24C8 15.18 15.19 8 24.03 8C26.93 8 29.77 8.78 32.24 10.25C32.6 10.46 32.71 10.92 32.5 11.28C32.29 11.64 31.83 11.75 31.47 11.54C29.23 10.2 26.66 9.5 24.03 9.5C16.02 9.5 9.5 16 9.5 24C9.5 32 16.02 38.5 24.03 38.5C31.6 38.5 37.82 32.84 38.5 25.33C38.54 24.92 38.91 24.62 39.31 24.65C39.72 24.69 40.03 25.05 39.99 25.47C39.24 33.75 32.38 40 24.03 40Z"
    fill="#2D2A26"
  />
</svg>
