<svg viewBox="0 0 27 28" xmlns="http://www.w3.org/2000/svg" xmlns:xlink="http://www.w3.org/1999/xlink">
  <title>Overwhelmed Emoji (Filled)</title>
  <g fill="none" fill-rule="evenodd">
    <g transform="translate(0 .161)">
      <path fill="currentColor" d="M25.3081,7.95678545 C25.3081,8.94594909 24.5171,9.75082182 23.5456,9.75082182 C22.5736,9.75082182 21.7831,8.94594909 21.7831,7.95678545 C21.7831,7.32449455 22.6976,5.95758545 23.5456,4.90987636 C24.3936,5.95758545 25.3081,7.32449455 25.3081,7.95678545 M26.6576,7.95678545 C26.6576,6.39896727 24.4811,3.88405818 24.0451,3.39584 L23.5456,2.83736727 L23.0461,3.39634909 C22.9416,3.51344 22.7351,3.74965818 22.4836,4.05918545 C20.0211,1.69293091 16.7276,0.347912727 13.3286,0.347912727 C5.9791,0.347912727 0.0001,6.43613091 0.0001,13.9192582 C0.0001,21.4028945 5.9791,27.4911127 13.3286,27.4911127 C20.6781,27.4911127 26.6576,21.4028945 26.6576,13.9192582 C26.6576,12.5284218 26.4421,11.1625309 26.0361,9.84856727 C26.4246,9.32013091 26.6576,8.66645818 26.6576,7.95678545"/>
    </g>
    <path fill="#FFF" d="M22.15965 14.8252873L19.49265 13.0368509C19.31965 12.9207782 19.08665 12.9696509 18.97365 13.1457964 18.85915 13.3219418 18.90715 13.5586691 19.08065 13.6747418L21.74765 15.4631782C21.81115 15.5054327 21.88215 15.5257964 21.95315 15.5257964 22.07515 15.5257964 22.19465 15.4657236 22.26665 15.3542327 22.38065 15.1780873 22.33315 14.94136 22.15965 14.8252873M7.4468 13.1458982C7.3333 12.9697527 7.1013 12.92088 6.9278 13.0369527L4.2608 14.8253891C4.0873 14.9414618 4.0398 15.1781891 4.1538 15.3543345 4.2258 15.4658255 4.3453 15.5258982 4.4673 15.5258982 4.5383 15.5258982 4.6093 15.5055345 4.6728 15.46328L7.3398 13.6748436C7.5133 13.5587709 7.5613 13.3220436 7.4468 13.1458982M7.25295 16.2941164C6.58695 16.2941164 5.96695 16.6667709 5.63445 17.2674982 5.54195 17.4339709 5.58645 17.6432073 5.73645 17.7582618 5.88595 17.8738255 6.09745 17.8575345 6.22995 17.7205891 6.24545 17.7048073 6.61895 17.3275709 7.25295 17.3275709 7.88195 17.3275709 8.25445 17.6986982 8.27545 17.72008 8.34845 17.7969527 8.44645 17.8361527 8.54495 17.8361527 8.62295 17.8361527 8.70095 17.8117164 8.76795 17.7613164 8.91995 17.6467709 8.96445 17.43448 8.87145 17.2669891 8.53895 16.6667709 7.91895 16.2941164 7.25295 16.2941164M18.84865 16.2941164C18.18265 16.2941164 17.56265 16.6667709 17.23015 17.2674982 17.13715 17.4354982 17.18165 17.64728 17.33365 17.7618255 17.40065 17.8122255 17.47865 17.8366618 17.55665 17.8366618 17.65565 17.8366618 17.75465 17.7964436 17.82815 17.7185527 17.83165 17.71448 18.21215 17.3275709 18.84865 17.3275709 19.47765 17.3275709 19.85015 17.6986982 19.87115 17.72008 20.00265 17.8575345 20.21265 17.8753527 20.36365 17.7613164 20.51565 17.6467709 20.56015 17.43448 20.46715 17.2669891 20.13465 16.6667709 19.51465 16.2941164 18.84865 16.2941164"/>
  </g>
</svg>
