<svg width="48" height="48" viewBox="0 0 48 48" fill="none" xmlns="http://www.w3.org/2000/svg">
  <title>Overwhelmed Selected Emoji</title>
  <path d="M39.23 19.11C39.66 18.55 39.93 17.85 39.93 17.08C39.93 15.45 37.56 12.22 37.09 11.58L36.59 10.92L36.09 11.58C35.95 11.76 35.66 12.16 35.31 12.68C32.42 9.79 28.42 8 24 8C15.16 8 8 15.16 8 24C8 32.84 15.16 40 24 40C32.84 40 40 32.84 40 24C40 22.3 39.73 20.65 39.23 19.11ZM12.8 24.47L16.35 22.26L17.01 23.32L13.45 25.53L12.8 24.47ZM17.56 28.42C17.35 27.78 16.76 27.34 16.08 27.34C15.46 27.34 14.89 27.71 14.65 28.29L13.5 27.8C13.94 26.76 14.95 26.09 16.08 26.09C17.3 26.09 18.37 26.87 18.75 28.03L17.56 28.42ZM32.6 28.29C32.36 27.71 31.8 27.34 31.17 27.34C30.49 27.34 29.9 27.77 29.69 28.42L28.5 28.04C28.87 26.88 29.94 26.09 31.17 26.09C32.3 26.09 33.31 26.76 33.75 27.8L32.6 28.29ZM33.81 25.53L30.26 23.32L30.92 22.26L34.47 24.47L33.81 25.53ZM36.59 19.18C35.43 19.18 34.49 18.24 34.49 17.09C34.49 16.3 35.63 14.41 36.59 13.04C37.58 14.46 38.68 16.33 38.68 17.09C38.68 18.24 37.74 19.18 36.59 19.18Z" fill="currentColor"/>
</svg>
