<svg viewBox="0 0 33 33" fill="none" xmlns="http://www.w3.org/2000/svg">
  <title>Overwhelmed Emoji</title>
  <path fill-rule="evenodd" clip-rule="evenodd" d="M32.48 10.0702C32.48 10.8402 32.21 11.5402 31.78 12.1002C32.28 13.6402 32.55 15.2902 32.54 16.9902C32.54 25.8302 25.38 32.9902 16.54 32.9902C7.70004 32.9902 0.540039 25.8302 0.540039 16.9902C0.540039 8.15023 7.70004 0.990234 16.54 0.990234C20.96 0.990234 24.96 2.78023 27.85 5.67023C28.2 5.15023 28.49 4.75023 28.63 4.57023L29.13 3.91023L29.63 4.57023C30.11 5.21023 32.48 8.44023 32.48 10.0702ZM28.7199 6.63048C28.4799 7.00039 28.24 7.37032 28.02 7.75023C27.47 8.68023 27.04 9.58023 27.03 10.0702C27.03 11.2302 27.96 12.1702 29.12 12.1702C29.57 12.1702 29.98 12.0302 30.32 11.7902C30.75 11.4902 31.05 11.0502 31.17 10.5302C31.2 10.3802 31.22 10.2302 31.22 10.0702C31.22 9.31023 30.12 7.44024 29.13 6.02024C29.0001 6.21014 28.8602 6.42003 28.7202 6.62993L28.72 6.63023L28.7199 6.63048ZM1.80004 16.9902C1.80004 25.1202 8.42004 31.7402 16.55 31.7402C24.68 31.7402 31.3 25.1302 31.3 17.0002C31.3 15.6102 31.09 14.2702 30.73 13.0002C30.25 13.2602 29.71 13.4202 29.13 13.4202C27.29 13.4202 25.79 11.9102 25.79 10.0702C25.79 9.21023 26.45 7.90023 27.15 6.76023C24.47 3.98023 20.71 2.24023 16.55 2.24023C8.42004 2.24023 1.80004 8.86023 1.80004 16.9902ZM8.89251 15.2515L5.34076 17.4552L5.99976 18.5173L9.55151 16.3136L8.89251 15.2515ZM10.11 21.4101C9.90005 20.7701 9.31004 20.3301 8.63004 20.3301C8.01004 20.3301 7.44004 20.7001 7.20004 21.2801L6.05005 20.7901C6.49005 19.7501 7.50004 19.0801 8.63004 19.0801C9.85004 19.0801 10.93 19.8601 11.3 21.0301L10.11 21.4101ZM22.7988 16.3188L23.4581 15.2568L27.0094 17.4614L26.3502 18.5234L22.7988 16.3188ZM22.2501 21.4101L21.0601 21.0301C21.4301 19.8701 22.5001 19.0801 23.7301 19.0801C24.8601 19.0801 25.8701 19.7501 26.3101 20.7901L25.1601 21.2801C24.9201 20.7001 24.3601 20.3301 23.7301 20.3301C23.0501 20.3301 22.4601 20.7601 22.2501 21.4101Z" fill="#332E54"/>
</svg>
