<svg viewBox="0 0 27 28" xmlns="http://www.w3.org/2000/svg" xmlns:xlink="http://www.w3.org/1999/xlink">
  <title>Overwhelmed Emoji</title>
  <g fill="none" fill-rule="evenodd">
    <path fill="currentColor" d="M22.15965 14.8252873L19.49265 13.0368509C19.31965 12.9207782 19.08665 12.9696509 18.97365 13.1457964 18.85915 13.3219418 18.90715 13.5586691 19.08065 13.6747418L21.74765 15.4631782C21.81115 15.5054327 21.88215 15.5257964 21.95315 15.5257964 22.07515 15.5257964 22.19465 15.4657236 22.26665 15.3542327 22.38065 15.1780873 22.33315 14.94136 22.15965 14.8252873M7.4468 13.1458982C7.3333 12.9697527 7.1013 12.92088 6.9278 13.0369527L4.2608 14.8253891C4.0873 14.9414618 4.0398 15.1781891 4.1538 15.3543345 4.2258 15.4658255 4.3453 15.5258982 4.4673 15.5258982 4.5383 15.5258982 4.6093 15.5055345 4.6728 15.46328L7.3398 13.6748436C7.5133 13.5587709 7.5613 13.3220436 7.4468 13.1458982M7.25295 16.2941164C6.58695 16.2941164 5.96695 16.6667709 5.63445 17.2674982 5.54195 17.4339709 5.58645 17.6432073 5.73645 17.7582618 5.88595 17.8738255 6.09745 17.8575345 6.22995 17.7205891 6.24545 17.7048073 6.61895 17.3275709 7.25295 17.3275709 7.88195 17.3275709 8.25445 17.6986982 8.27545 17.72008 8.34845 17.7969527 8.44645 17.8361527 8.54495 17.8361527 8.62295 17.8361527 8.70095 17.8117164 8.76795 17.7613164 8.91995 17.6467709 8.96445 17.43448 8.87145 17.2669891 8.53895 16.6667709 7.91895 16.2941164 7.25295 16.2941164M18.84865 16.2941164C18.18265 16.2941164 17.56265 16.6667709 17.23015 17.2674982 17.13715 17.4354982 17.18165 17.64728 17.33365 17.7618255 17.40065 17.8122255 17.47865 17.8366618 17.55665 17.8366618 17.65565 17.8366618 17.75465 17.7964436 17.82815 17.7185527 17.83165 17.71448 18.21215 17.3275709 18.84865 17.3275709 19.47765 17.3275709 19.85015 17.6986982 19.87115 17.72008 20.00265 17.8575345 20.21265 17.8753527 20.36365 17.7613164 20.51565 17.6467709 20.56015 17.43448 20.46715 17.2669891 20.13465 16.6667709 19.51465 16.2941164 18.84865 16.2941164"/>
    <g transform="translate(0 .161)">
      <path fill="currentColor" d="M13.3286,26.1162618 C6.7236,26.1162618 1.3496,20.6445527 1.3496,13.9194618 C1.3496,7.19437091 6.7236,1.72266182 13.3286,1.72266182 C16.4786,1.72266182 19.4151,2.93837091 21.6591,5.15648 C21.0291,6.06775273 20.4336,7.14193455 20.4336,7.95698909 C20.4336,9.70418909 21.8296,11.1255709 23.5456,11.1255709 C24.0351,11.1255709 24.4966,11.0064436 24.9091,10.8007709 C25.1721,11.8138618 25.3081,12.8585164 25.3081,13.9194618 C25.3081,20.6445527 19.9341,26.1162618 13.3286,26.1162618 M25.3081,7.95698909 C25.3081,8.94615273 24.5171,9.75102545 23.5456,9.75102545 C22.5736,9.75102545 21.7831,8.94615273 21.7831,7.95698909 C21.7831,7.32469818 22.6976,5.95728 23.5456,4.90957091 C24.3936,5.95728 25.3081,7.32469818 25.3081,7.95698909 M26.6576,7.95698909 C26.6576,6.39917091 24.4811,3.88426182 24.0451,3.39604364 L23.5456,2.83706182 L23.0461,3.39604364 C22.9416,3.51364364 22.7346,3.74935273 22.4836,4.05938909 C20.0211,1.69262545 16.7276,0.348116364 13.3286,0.348116364 C5.9791,0.348116364 0.0001,6.43633455 0.0001,13.9194618 C0.0001,21.4025891 5.9791,27.4908073 13.3286,27.4908073 C20.6781,27.4908073 26.6576,21.4025891 26.6576,13.9194618 C26.6576,12.5286255 26.4421,11.1627345 26.0361,9.84826182 C26.4246,9.31982545 26.6576,8.66615273 26.6576,7.95698909"/>
    </g>
  </g>
</svg>
