<svg viewBox="0 0 48 48" fill="none" xmlns="https://www.w3.org/2000/svg">
  <title>Overwhelmed Emoji</title>
  <path fill-rule="evenodd" clip-rule="evenodd" d="M39.48 17.0702C39.48 17.8402 39.21 18.5402 38.78 19.1002C39.28 20.6402 39.55 22.2902 39.54 23.9902C39.54 32.8302 32.38 39.9902 23.54 39.9902C14.7 39.9902 7.54004 32.8302 7.54004 23.9902C7.54004 15.1502 14.7 7.99023 23.54 7.99023C27.96 7.99023 31.96 9.78023 34.85 12.6702C35.2 12.1502 35.49 11.7502 35.63 11.5702L36.13 10.9102L36.63 11.5702C37.11 12.2102 39.48 15.4402 39.48 17.0702ZM35.7199 13.6305C35.4799 14.0004 35.24 14.3703 35.02 14.7502C34.47 15.6802 34.04 16.5802 34.03 17.0702C34.03 18.2302 34.96 19.1702 36.12 19.1702C36.57 19.1702 36.98 19.0302 37.32 18.7902C37.75 18.4902 38.05 18.0502 38.17 17.5302C38.2 17.3802 38.22 17.2302 38.22 17.0702C38.22 16.3102 37.12 14.4402 36.13 13.0202C36.0001 13.2101 35.8602 13.42 35.7202 13.6299L35.72 13.6302L35.7199 13.6305ZM8.80004 23.9902C8.80004 32.1202 15.42 38.7402 23.55 38.7402C31.68 38.7402 38.3 32.1302 38.3 24.0002C38.3 22.6102 38.09 21.2702 37.73 20.0002C37.25 20.2602 36.71 20.4202 36.13 20.4202C34.29 20.4202 32.79 18.9102 32.79 17.0702C32.79 16.2102 33.45 14.9002 34.15 13.7602C31.47 10.9802 27.71 9.24023 23.55 9.24023C15.42 9.24023 8.80004 15.8602 8.80004 23.9902ZM15.8925 22.2515L12.3408 24.4552L12.9998 25.5173L16.5515 23.3136L15.8925 22.2515ZM17.11 28.4101C16.9 27.7701 16.31 27.3301 15.63 27.3301C15.01 27.3301 14.44 27.7001 14.2 28.2801L13.05 27.7901C13.49 26.7501 14.5 26.0801 15.63 26.0801C16.85 26.0801 17.93 26.8601 18.3 28.0301L17.11 28.4101ZM29.7988 23.3188L30.4581 22.2568L34.0094 24.4614L33.3502 25.5234L29.7988 23.3188ZM29.2501 28.4101L28.0601 28.0301C28.4301 26.8701 29.5001 26.0801 30.7301 26.0801C31.8601 26.0801 32.8701 26.7501 33.3101 27.7901L32.1601 28.2801C31.9201 27.7001 31.3601 27.3301 30.7301 27.3301C30.0501 27.3301 29.4601 27.7601 29.2501 28.4101Z" fill="currentColor"/>
</svg>
