<svg viewBox="0 0 35 32" fill="none" xmlns="http://www.w3.org/2000/svg">
  <title>Prepared Emoji</title>
  <path fill-rule="evenodd" clip-rule="evenodd" d="M32.91 18.99C34.03 19.67 34.57 20.55 34.57 21.68L34.58 24.4C34.58 25.77 33.85 26.85 32.53 27.45C31.85 27.76 30.71 27.98 29.54 27.98C28.67 27.98 27.79 27.84 27.07 27.54C24.19 30.3 20.3 32 16 32C7.16 32 0 24.84 0 16C0 7.16 7.16 0 16 0C24.84 0 32 7.16 32 16C32 16.86 31.91 17.71 31.78 18.54C32.21 18.66 32.6 18.8 32.91 18.99ZM1.25 15.99C1.25 24.12 7.87 30.74 16 30.74C19.86 30.74 23.36 29.25 25.99 26.81C25.56 26.39 25.26 25.87 25.18 25.3C25.11 24.85 25.18 24.41 25.36 24.03C24.92 23.63 24.69 23.08 24.75 22.48C24.79 22 25.01 21.6 25.35 21.32C25.08 20.71 25.06 20.01 25.31 19.43C25.4 19.22 25.53 19.04 25.68 18.88C25.33 18.21 25.25 17.41 25.51 16.64C25.85 15.51 26.63 14.82 27.64 14.76C28.23 14.73 28.81 14.93 29.18 15.3C29.46 15.59 29.61 15.96 29.59 16.34C29.58 16.63 29.52 16.95 29.45 17.28C29.39 17.57 29.33 17.9 29.31 18.19C30.03 18.22 30.65 18.29 31.2 18.39C31 18.35 30.78 18.32 30.55 18.29C30.67 17.54 30.75 16.78 30.75 15.99C30.75 7.86 24.13 1.24 16 1.24C7.87 1.24 1.25 7.86 1.25 15.99ZM28.2627 16.879C28.3033 16.6706 28.3421 16.471 28.35 16.29C28.35 16.27 28.35 16.25 28.31 16.2C28.21 16.1 27.99 16 27.72 16.02C27.25 16.05 26.91 16.39 26.71 17.03C26.51 17.63 26.66 18.07 26.79 18.31C26.8255 18.3041 26.8609 18.2973 26.8969 18.2904C26.9827 18.274 27.0714 18.257 27.17 18.25L27.37 18.24C27.5292 18.2267 27.684 18.2223 27.8374 18.2178C27.9152 18.2156 27.9926 18.2134 28.07 18.21C28.0797 17.8222 28.1552 17.4344 28.2236 17.0831L28.23 17.05C28.2406 16.9925 28.2518 16.9354 28.2627 16.879ZM27.37 26.31C28.63 26.96 31.02 26.75 32.02 26.3C32.89 25.9 33.34 25.26 33.33 24.38L33.31 21.67C33.31 20.97 33 20.51 32.25 20.05C31.83 19.8 31.02 19.53 29.5 19.46C29.26 19.45 29.01 19.44 28.73 19.44C28.6673 19.44 28.6 19.4423 28.5303 19.4447C28.4554 19.4473 28.3777 19.45 28.3 19.45H28.2999C28.1599 19.45 28 19.45 27.85 19.46C27.7788 19.4651 27.7075 19.4676 27.6349 19.4701C27.5649 19.4726 27.4937 19.4751 27.42 19.48C27.3 19.49 27.22 19.49 27.18 19.49C26.88 19.51 26.67 19.63 26.54 19.82C26.5322 19.8316 26.5199 19.8418 26.5066 19.8528C26.4857 19.8701 26.4622 19.8894 26.45 19.92C26.3 20.29 26.41 20.82 26.71 21.17C26.86 21.34 26.9 21.58 26.83 21.79C26.76 22 26.58 22.16 26.36 22.2C26.05 22.26 26 22.51 25.99 22.61C25.96 22.83 26.08 23.13 26.47 23.28C26.67 23.36 26.81 23.53 26.85 23.74C26.89 23.95 26.82 24.16 26.67 24.31C26.46 24.52 26.37 24.81 26.41 25.13C26.47 25.6 26.83 26.03 27.37 26.31ZM8.45 12.3301C9.13 12.3301 9.71999 12.7701 9.92999 13.4101L11.12 13.0301C10.74 11.8601 9.67 11.0801 8.45 11.0801C7.32 11.0801 6.31 11.7501 5.87 12.7901L7.02 13.2801C7.26 12.7001 7.83 12.3301 8.45 12.3301ZM20.88 13.0301L22.07 13.4101C22.28 12.7601 22.87 12.3301 23.55 12.3301C24.18 12.3301 24.74 12.7001 24.98 13.2801L26.13 12.7901C25.69 11.7501 24.68 11.0801 23.55 11.0801C22.32 11.0801 21.25 11.8701 20.88 13.0301ZM15.94 22.3C13.19 22.3 10.7 20.56 9.75 17.97L10.92 17.54C11.69 19.64 13.71 21.05 15.94 21.05C18.17 21.05 20.19 19.64 20.96 17.54L22.13 17.97C21.18 20.56 18.69 22.3 15.94 22.3Z" fill="currentColor"/>
</svg>
