<svg viewBox="0 0 48 48" fill="none" xmlns="http://www.w3.org/2000/svg">
  <title>Prepared Emoji</title>
  <path
    d="M24 40C15.18 40 8 32.82 8 24C8 15.18 15.18 8 24 8C32.82 8 40 15.18 40 24C40 32.82 32.82 40 24 40ZM24 9.5C16 9.5 9.5 16 9.5 24C9.5 32 16 38.5 24 38.5C32 38.5 38.5 32 38.5 24C38.5 16 32 9.5 24 9.5Z"
    fill="currentColor"
  />
  <path
    d="M23.9 32.88C23.83 32.88 23.76 32.88 23.69 32.88C21.27 32.83 19.03 31.91 17.57 30.36C17.29 30.06 17.3 29.58 17.6 29.3C17.9 29.01 18.38 29.03 18.66 29.33C19.85 30.59 21.7 31.34 23.72 31.38C25.89 31.42 27.96 30.67 29.35 29.3C29.65 29.01 30.12 29.02 30.41 29.31C30.7 29.61 30.69 30.08 30.4 30.37C28.77 31.97 26.41 32.88 23.9 32.88Z"
    fill="currentColor"
  />
</svg>
