<svg viewBox="0 0 27 28" xmlns="http://www.w3.org/2000/svg" xmlns:xlink="http://www.w3.org/1999/xlink">
  <title>Prepared Emoji (Filled)</title>
  <g fill="none" fill-rule="evenodd">
    <g transform="translate(0 .16)">
      <path fill="currentColor" d="M21.2666,11.51752 C21.1026,11.6152655 20.8926,11.5704655 20.7791,11.4162109 C20.7641,11.3963564 20.5021,11.0598473 20.0786,11.0598473 C19.6491,11.0598473 19.3826,11.4106109 19.3806,11.4141745 C19.3071,11.5149745 19.1936,11.5694473 19.0786,11.5694473 C19.0146,11.5694473 18.9496,11.5526473 18.8911,11.5180291 C18.7256,11.4207927 18.6586,11.2125745 18.7351,11.0343927 C19.0016,10.4133018 19.5166,10.0269018 20.0791,10.0269018 C20.6411,10.0269018 21.1561,10.4127927 21.4226,11.0338836 C21.4991,11.2120655 21.4321,11.4202836 21.2666,11.51752 M17.8796,13.8817382 C16.8661,15.0358473 15.0751,15.7251564 13.0891,15.7251564 C11.1026,15.7251564 9.3121,15.0363564 8.2986,13.8827564 C8.1611,13.7254473 8.1741,13.4841382 8.3286,13.3436291 C8.4836,13.2026109 8.7201,13.2168655 8.8586,13.3736655 C9.7181,14.3531564 11.3396,14.96152 13.0891,14.96152 C14.8391,14.96152 16.4601,14.3526473 17.3196,13.3731564 C17.4581,13.2153382 17.6946,13.2021018 17.8496,13.3426109 C18.0041,13.48312 18.0171,13.7244291 17.8796,13.8817382 M7.7666,11.51752 C7.6026,11.6152655 7.3926,11.5704655 7.2791,11.4162109 C7.2641,11.3963564 7.0021,11.0598473 6.5786,11.0598473 C6.1491,11.0598473 5.8826,11.4106109 5.8806,11.4141745 C5.8071,11.5149745 5.6936,11.5694473 5.5786,11.5694473 C5.5146,11.5694473 5.4496,11.5526473 5.3911,11.5180291 C5.2256,11.4207927 5.1586,11.2125745 5.2351,11.0343927 C5.5016,10.4133018 6.0166,10.0269018 6.5791,10.0269018 C7.1411,10.0269018 7.6561,10.4127927 7.9231,11.0338836 C7.9991,11.2120655 7.9321,11.4202836 7.7666,11.51752 M13.3286,0.348574545 C5.9791,0.348574545 0.0001,6.43679273 0.0001,13.91992 C0.0001,21.4030473 5.9791,27.4907564 13.3286,27.4907564 C16.0066,27.4907564 18.5636,26.6843564 20.7656,25.1713382 C20.2736,24.7778109 19.9271,24.2717745 19.8311,23.7270473 C19.7496,23.2647927 19.8461,22.8223927 20.1011,22.4410836 C19.7516,22.0373745 19.5841,21.5338836 19.6466,21.0120655 C19.6846,20.6882836 19.8206,20.3889382 19.9941,20.1374473 C19.5291,19.4700291 19.4916,18.5495927 19.9671,17.8317745 C20.0536,17.7009382 20.3436,17.3114836 20.8966,16.9927927 C20.8071,16.7718473 20.7411,16.4979564 20.7266,16.1507564 C20.6481,14.3058109 21.8906,13.6139564 22.5586,13.50552 C22.6961,13.4912655 23.5701,13.4469745 23.8446,14.84952 C23.9156,15.2119927 24.0746,15.5434109 24.3181,15.8341018 C25.0506,16.7097382 25.5271,16.8522836 25.5316,16.8533018 C25.6996,16.8833382 25.8336,16.9785382 25.9286,17.1032655 C26.0341,17.1521382 26.1376,17.2096655 26.2401,17.2692291 C26.5116,16.1787564 26.6576,15.0557018 26.6576,13.91992 C26.6576,6.43679273 20.6781,0.348574545 13.3286,0.348574545"/>
    </g>
    <path fill="currentColor" d="M23.16505 16.7168145C22.84355 16.2856145 22.62305 15.8045236 22.52055 15.2786327 22.51055 15.2287418 22.50105 15.1859782 22.49055 15.1488145 22.27755 15.29696 22.04805 15.6069964 22.07505 16.2520145 22.08705 16.5259055 22.14555 16.6562327 22.17555 16.6959418 22.20705 16.6984873 22.23455 16.71376 22.26455 16.7203782 22.53655 16.6903418 22.83805 16.6883055 23.16505 16.7168145M21.08595 18.7621382C20.89545 19.0492655 20.96195 19.4382109 21.23095 19.6443927 21.25195 19.6550836 21.27145 19.6652655 21.29095 19.6769745 21.48845 19.7940655 21.61445 20.0053382 21.62495 20.2379927 21.63595 20.4711564 21.52995 20.6936291 21.34395 20.8295564 21.16745 20.9573382 21.00395 21.1910109 20.98645 21.3381382 20.95645 21.5901382 21.19995 21.8105745 21.42095 21.9256291 21.52845 21.9780655 21.62245 22.0605382 21.69245 22.1689745 21.69545 22.1735564 21.69845 22.1786473 21.70095 22.1832291L21.70095 22.1837382C21.70145 22.1837382 21.70145 22.1842473 21.70145 22.1842473 21.78595 22.3237382 21.81595 22.4830836 21.79645 22.6337745 21.79095 22.6750109 21.78245 22.7142109 21.77045 22.7529018 21.72645 22.8929018 21.63845 23.0196655 21.51195 23.1092655 21.50345 23.1153745 21.49495 23.1209745 21.48645 23.1260655 21.11145 23.3689018 21.14645 23.5689745 21.15995 23.6448291 21.22545 24.0154473 21.75595 24.5153745 22.49795 24.6757382 23.23795 24.8355927 24.01295 24.8355927 24.68195 24.6742109 25.58845 24.45632 26.12945 23.84592 26.38445 22.75392 26.70095 21.3951564 26.70295 20.3413382 26.40345 19.60112L26.17595 19.1678836 26.17595 19.1678836C25.55745 18.3003927 24.36295 18.2001018 23.57195 18.13392 23.42945 18.1222109 23.30245 18.1110109 23.19545 18.0977745 21.69845 17.9129745 21.14395 18.6745745 21.08595 18.7621382"/>
  </g>
</svg>
