<svg viewBox="0 0 48 48" fill="none" xmlns="http://www.w3.org/2000/svg">
  <title>Prepared Emoji</title>
  <path fill-rule="evenodd" clip-rule="evenodd" d="M40.91 26.99C42.03 27.67 42.57 28.55 42.57 29.68L42.58 32.4C42.58 33.77 41.85 34.85 40.53 35.45C39.85 35.76 38.71 35.98 37.54 35.98C36.67 35.98 35.79 35.84 35.07 35.54C32.19 38.3 28.3 40 24 40C15.16 40 8 32.84 8 24C8 15.16 15.16 8 24 8C32.84 8 40 15.16 40 24C40 24.86 39.91 25.71 39.78 26.54C40.21 26.66 40.6 26.8 40.91 26.99ZM9.25 23.99C9.25 32.12 15.87 38.74 24 38.74C27.86 38.74 31.36 37.25 33.99 34.81C33.56 34.39 33.26 33.87 33.18 33.3C33.11 32.85 33.18 32.41 33.36 32.03C32.92 31.63 32.69 31.08 32.75 30.48C32.79 30 33.01 29.6 33.35 29.32C33.08 28.71 33.06 28.01 33.31 27.43C33.4 27.22 33.53 27.04 33.68 26.88C33.33 26.21 33.25 25.41 33.51 24.64C33.85 23.51 34.63 22.82 35.64 22.76C36.23 22.73 36.81 22.93 37.18 23.3C37.46 23.59 37.61 23.96 37.59 24.34C37.58 24.63 37.52 24.95 37.45 25.28C37.39 25.57 37.33 25.9 37.31 26.19C38.03 26.22 38.65 26.29 39.2 26.39C39 26.35 38.78 26.32 38.55 26.29C38.67 25.54 38.75 24.78 38.75 23.99C38.75 15.86 32.13 9.24 24 9.24C15.87 9.24 9.25 15.86 9.25 23.99ZM36.2627 24.879C36.3033 24.6706 36.3421 24.471 36.35 24.29C36.35 24.27 36.35 24.25 36.31 24.2C36.21 24.1 35.99 24 35.72 24.02C35.25 24.05 34.91 24.39 34.71 25.03C34.51 25.63 34.66 26.07 34.79 26.31C34.8255 26.3041 34.8609 26.2973 34.8969 26.2904C34.9827 26.274 35.0714 26.257 35.17 26.25L35.37 26.24C35.5292 26.2267 35.684 26.2223 35.8374 26.2178C35.9152 26.2156 35.9926 26.2134 36.07 26.21C36.0797 25.8222 36.1552 25.4344 36.2236 25.0831L36.23 25.05C36.2406 24.9925 36.2518 24.9354 36.2627 24.879ZM35.37 34.31C36.63 34.96 39.02 34.75 40.02 34.3C40.89 33.9 41.34 33.26 41.33 32.38L41.31 29.67C41.31 28.97 41 28.51 40.25 28.05C39.83 27.8 39.02 27.53 37.5 27.46C37.26 27.45 37.01 27.44 36.73 27.44C36.6673 27.44 36.6 27.4423 36.5303 27.4447C36.4554 27.4473 36.3777 27.45 36.3 27.45H36.2999C36.1599 27.45 36 27.45 35.85 27.46C35.7788 27.4651 35.7075 27.4676 35.6349 27.4701C35.5649 27.4726 35.4937 27.4751 35.42 27.48C35.3 27.49 35.22 27.49 35.18 27.49C34.88 27.51 34.67 27.63 34.54 27.82C34.5322 27.8316 34.5199 27.8418 34.5066 27.8528C34.4857 27.8701 34.4622 27.8894 34.45 27.92C34.3 28.29 34.41 28.82 34.71 29.17C34.86 29.34 34.9 29.58 34.83 29.79C34.76 30 34.58 30.16 34.36 30.2C34.05 30.26 34 30.51 33.99 30.61C33.96 30.83 34.08 31.13 34.47 31.28C34.67 31.36 34.81 31.53 34.85 31.74C34.89 31.95 34.82 32.16 34.67 32.31C34.46 32.52 34.37 32.81 34.41 33.13C34.47 33.6 34.83 34.03 35.37 34.31ZM16.45 20.3301C17.13 20.3301 17.72 20.7701 17.93 21.4101L19.12 21.0301C18.74 19.8601 17.67 19.0801 16.45 19.0801C15.32 19.0801 14.31 19.7501 13.87 20.7901L15.02 21.2801C15.26 20.7001 15.83 20.3301 16.45 20.3301ZM28.88 21.0301L30.07 21.4101C30.28 20.7601 30.87 20.3301 31.55 20.3301C32.18 20.3301 32.74 20.7001 32.98 21.2801L34.13 20.7901C33.69 19.7501 32.68 19.0801 31.55 19.0801C30.32 19.0801 29.25 19.8701 28.88 21.0301ZM23.94 30.3C21.19 30.3 18.7 28.56 17.75 25.97L18.92 25.54C19.69 27.64 21.71 29.05 23.94 29.05C26.17 29.05 28.19 27.64 28.96 25.54L30.13 25.97C29.18 28.56 26.69 30.3 23.94 30.3Z" fill="currentColor"/>
</svg>
