<svg viewBox="0 0 48 48" fill="none" xmlns="http://www.w3.org/2000/svg">
  <title>Prepared Selected Emoji</title>
  <path fill-rule="evenodd" clip-rule="evenodd" d="M33.19 33.32C33.32 34.2 33.91 34.97 34.82 35.44C34.8776 35.472 34.9353 35.4917 34.9877 35.5097L34.9877 35.5097C35.0171 35.5197 35.0448 35.5292 35.07 35.54C32.19 38.3 28.3 40 24 40C15.16 40 8 32.84 8 24C8 15.16 15.16 8 24 8C32.84 8 40 15.16 40 24C40 24.86 39.91 25.71 39.78 26.54C39.1 26.36 38.3 26.24 37.31 26.21C37.33 25.92 37.39 25.59 37.45 25.3C37.4608 25.2407 37.4719 25.1818 37.4829 25.1233C37.5332 24.856 37.5818 24.5979 37.59 24.36C37.61 23.97 37.46 23.6 37.18 23.32C36.81 22.95 36.23 22.75 35.64 22.78C34.63 22.84 33.85 23.53 33.51 24.66C33.26 25.44 33.33 26.23 33.69 26.9C33.54 27.06 33.41 27.24 33.32 27.45C33.07 28.03 33.09 28.73 33.36 29.34C33.03 29.62 32.8 30.03 32.76 30.5C32.7 31.1 32.93 31.66 33.37 32.05C33.19 32.43 33.13 32.87 33.19 33.32ZM15.05 21.3C15.29 20.72 15.86 20.35 16.48 20.35C17.16 20.35 17.75 20.79 17.96 21.42L19.15 21.04C18.77 19.88 17.7 19.1 16.48 19.1C15.35 19.1 14.34 19.77 13.9 20.81L15.05 21.3ZM17.77 25.99C18.72 28.58 21.21 30.32 23.96 30.32C26.71 30.32 29.2 28.58 30.15 25.99L28.98 25.56C28.21 27.66 26.19 29.07 23.96 29.07C21.73 29.07 19.71 27.66 18.94 25.56L17.77 25.99ZM30.09 21.43C30.3 20.78 30.89 20.35 31.57 20.35C32.19 20.35 32.75 20.72 33 21.31L34.15 20.82C33.71 19.78 32.7 19.11 31.57 19.11C30.35 19.11 29.27 19.89 28.9 21.05L30.09 21.43ZM35.4601 27.5097C35.9401 27.4797 36.3701 27.4697 36.7701 27.4697C38.8001 27.4697 39.8001 27.7797 40.2801 28.0797C41.0301 28.5397 41.3401 29.0097 41.3401 29.7097L41.3601 32.4197C41.3601 33.2897 40.9101 33.9397 40.0401 34.3297C39.0301 34.7797 36.6401 34.9897 35.3901 34.3397C34.8501 34.0597 34.5001 33.6297 34.4301 33.1597C34.3901 32.8397 34.4901 32.5397 34.7001 32.3397C34.8501 32.1997 34.9201 31.9797 34.8801 31.7697C34.8401 31.5597 34.7001 31.3897 34.5001 31.3097C34.1101 31.1597 34.0001 30.8597 34.0201 30.6397C34.0301 30.5297 34.0901 30.2897 34.3901 30.2297C34.6101 30.1897 34.7901 30.0297 34.8601 29.8197C34.9301 29.5997 34.8901 29.3697 34.7401 29.1997C34.4301 28.8497 34.3201 28.3097 34.4801 27.9497C34.6001 27.6797 34.8601 27.5397 35.2201 27.5197H35.2201C35.2602 27.5197 35.3401 27.5197 35.4601 27.5097ZM36.08 26.23C36.1 25.83 36.17 25.43 36.24 25.07C36.2523 25.0013 36.2652 24.9337 36.2777 24.8677L36.2778 24.8674C36.3165 24.6646 36.3525 24.4759 36.36 24.31L36.31 24.22C36.21 24.13 35.98 24.03 35.72 24.04C35.25 24.07 34.91 24.4 34.71 25.05C34.51 25.65 34.66 26.09 34.79 26.33L34.816 26.324C34.9362 26.2961 35.0487 26.27 35.17 26.27L35.37 26.26C35.5391 26.247 35.6954 26.2424 35.8446 26.2381H35.8447C35.9249 26.2358 36.0031 26.2335 36.08 26.23Z" fill="currentColor"/>
</svg>
