<svg viewBox="0 0 28 28" xmlns="http://www.w3.org/2000/svg" xmlns:xlink="http://www.w3.org/1999/xlink">
  <title>Prepared Emoji</title>
  <g fill="none" fill-rule="evenodd">
    <g transform="translate(0 .16)">
      <path fill="currentColor" d="M13.3284,27.4909091 C5.9789,27.4909091 -0.0001,21.4026909 -0.0001,13.9195636 C-0.0001,6.43643636 5.9789,0.348727273 13.3284,0.348727273 C20.6779,0.348727273 26.6574,6.43643636 26.6574,13.9195636 C26.6574,15.2197818 26.4774,16.5067636 26.1214,17.7433455 C26.0164,18.1078545 25.6424,18.3165818 25.2834,18.2096727 C24.9254,18.1027636 24.7209,17.7209455 24.8254,17.3564364 C25.1454,16.2456 25.3079,15.0894545 25.3079,13.9195636 C25.3079,7.19447273 19.9339,1.72276364 13.3284,1.72276364 C6.7234,1.72276364 1.3494,7.19447273 1.3494,13.9195636 C1.3494,20.6451636 6.7234,26.1168727 13.3284,26.1168727 C15.8974,26.1168727 18.3464,25.3008 20.4104,23.7582545 C20.7104,23.5337455 21.1329,23.5989091 21.3539,23.9053818 C21.5744,24.2113455 21.5099,24.6415273 21.2094,24.8660364 C18.9119,26.5837091 16.1869,27.4909091 13.3284,27.4909091"/>
    </g>
    <path fill="currentColor" d="M13.08865 15.8857236C11.10265 15.8857236 9.31215 15.1969236 8.29915 14.0433236 8.16115 13.8860145 8.17415 13.6447055 8.32815 13.5041964 8.48315 13.36216 8.72015 13.3764145 8.85765 13.5342327 9.71815 14.5137236 11.33915 15.1220873 13.08865 15.1220873 14.83815 15.1220873 16.45915 14.5132145 17.31965 13.5332145 17.45765 13.3753964 17.69415 13.36216 17.84915 13.5026691 18.00365 13.6436873 18.01665 13.8849964 17.87915 14.0423055 16.86565 15.1964145 15.07515 15.8857236 13.08865 15.8857236M5.2864 11.7299636C5.2084 11.7299636 5.1304 11.7050182 5.0634 11.6551273 4.9114 11.5405818 4.8669 11.3282909 4.9599 11.1608 5.2919 10.5600727 5.9124 10.1874182 6.5789 10.1874182 7.2444 10.1874182 7.8644 10.5600727 8.1974 11.1597818 8.2904 11.3272727 8.2464 11.5395636 8.0944 11.6546182 7.9429 11.7681455 7.7329 11.7508364 7.6014 11.6133818 7.5814 11.592 7.2084 11.2203636 6.5784 11.2203636 5.9419 11.2203636 5.5614 11.6077818 5.5579 11.6118545 5.4844 11.6897455 5.3859 11.7299636 5.2864 11.7299636M18.7864 11.7299636C18.7084 11.7299636 18.6304 11.7050182 18.5634 11.6551273 18.4114 11.5405818 18.3669 11.3282909 18.4599 11.1608 18.7919 10.5600727 19.4124 10.1874182 20.0789 10.1874182 20.7444 10.1874182 21.3644 10.5600727 21.6974 11.1597818 21.7904 11.3272727 21.7464 11.5395636 21.5944 11.6546182 21.4429 11.7681455 21.2324 11.7508364 21.1014 11.6133818 21.0814 11.592 20.7084 11.2203636 20.0784 11.2203636 19.4419 11.2203636 19.0614 11.6077818 19.0579 11.6118545 18.9844 11.6897455 18.8859 11.7299636 18.7864 11.7299636M21.48615 23.1258618C21.11115 23.3686982 21.14615 23.5687709 21.16015 23.6446255 21.22565 24.0152436 21.75565 24.5151709 22.49765 24.6755345 23.23765 24.83488 24.01265 24.8343709 24.68215 24.6740073 25.58815 24.4556073 26.12915 23.8457164 26.38415 22.7537164 26.76765 21.1062982 26.69765 19.9002618 26.17565 19.16768 25.55765 18.3001891 24.36265 18.1998982 23.57215 18.1332073 23.42965 18.1214982 23.30215 18.1102982 23.19515 18.0970618 21.69465 17.91328 21.14415 18.6743709 21.08565 18.7619345 20.89515 19.0490618 20.96165 19.4380073 21.23065 19.6441891 21.25165 19.65488 21.27115 19.6650618 21.29065 19.6767709 21.48815 19.7938618 21.61415 20.0051345 21.62465 20.2377891 21.63565 20.4709527 21.52965 20.6934255 21.34365 20.8288436 21.16715 20.9571345 21.00365 21.1902982 20.98615 21.3374255 20.95615 21.5894255 21.19965 21.8103709 21.42065 21.9254255 21.52815 21.9778618 21.62215 22.0598255 21.69215 22.1687709 21.69515 22.1733527 21.69815 22.1784436 21.70115 22.1825164L21.70115 22.1830255C21.70165 22.1830255 21.70165 22.1835345 21.70165 22.1835345 21.78615 22.3235345 21.81565 22.4823709 21.79615 22.6335709 21.79065 22.6742982 21.78215 22.7134982 21.77015 22.7526982 21.72615 22.8926982 21.63865 23.0194618 21.51165 23.1090618 21.50315 23.1151709 21.49515 23.1202618 21.48615 23.1258618M23.60915 26.1702255C23.19265 26.1702255 22.72515 26.1294982 22.21765 26.0200436 20.98715 25.7542982 20.00565 24.8771345 19.83065 23.8874618 19.74915 23.4252073 19.84615 22.9828073 20.10065 22.6014982 19.75115 22.1977891 19.58365 21.6942982 19.64615 21.17248 19.68415 20.8486982 19.82065 20.5493527 19.99415 20.2978618 19.52915 19.6304436 19.49115 18.7094982 19.96765 17.9921891 20.13915 17.7335709 21.11165 16.4577891 23.35765 16.7326982 23.45065 16.7444073 23.56015 16.7530618 23.68315 16.7637527 24.59265 16.8396073 26.28615 16.9826618 27.26815 18.3607709 28.03215 19.4313891 28.17615 21.0161891 27.69765 23.07088 27.32215 24.6811345 26.41215 25.6702982 24.99165 26.0113891 24.64265 26.0953891 24.17265 26.1702255 23.60915 26.1702255"/>
    <path fill="currentColor" d="M22.0901,16.6941091 L22.0896,16.6941091 L22.0901,16.6941091 Z M25.3856,18.3715636 C25.3461,18.3715636 25.3061,18.368 25.2661,18.3603636 C25.1201,18.3349091 24.3396,18.1404364 23.2901,16.8865455 C22.8956,16.4151273 22.6366,15.8739636 22.5201,15.2778182 C22.5106,15.2284364 22.5006,15.1856727 22.4906,15.1485091 C22.2771,15.2966545 22.0476,15.6066909 22.0751,16.2522182 C22.0866,16.5256 22.1451,16.6559273 22.1751,16.6956364 C22.5091,16.7236364 22.7786,17.0005818 22.7936,17.3503273 C22.8101,17.7290909 22.5216,18.0503273 22.1491,18.0671273 C21.9236,18.0742545 21.5646,17.9917818 21.2721,17.7194182 C20.9361,17.4058182 20.7526,16.9323636 20.7266,16.3117818 C20.6476,14.4663273 21.8906,13.7744727 22.5586,13.6665455 C22.6981,13.6497455 23.5701,13.6069818 23.8446,15.0095273 C23.9151,15.3730182 24.0746,15.7044364 24.3176,15.9946182 C25.0506,16.8707636 25.5266,17.0122909 25.5316,17.0138182 C25.8986,17.08 26.1281,17.4328 26.0631,17.8069818 C26.0056,18.1399273 25.7091,18.3715636 25.3856,18.3715636 L25.3856,18.3715636 Z"/>
  </g>
</svg>
