<svg viewBox="0 0 48 48" fill="none" xmlns="http://www.w3.org/2000/svg">
  <title>Prepared Selected Emoji</title>
  <path
    d="M24 8C15.18 8 8 15.18 8 24C8 32.82 15.18 40 24 40C32.82 40 40 32.82 40 24C40 15.18 32.82 8 24 8ZM30.41 30.38C28.77 31.98 26.41 32.88 23.91 32.88C23.84 32.88 23.77 32.88 23.7 32.88C21.28 32.83 19.05 31.91 17.58 30.36C17.3 30.06 17.31 29.58 17.61 29.3C17.91 29.01 18.39 29.03 18.67 29.33C19.86 30.59 21.71 31.34 23.73 31.38C25.92 31.43 27.97 30.67 29.36 29.3C29.66 29.01 30.13 29.02 30.42 29.31C30.71 29.61 30.7 30.09 30.41 30.38Z"
    fill="currentColor"
  />
</svg>
