<svg viewBox="0 0 48 48" fill="none" xmlns="http://www.w3.org/2000/svg">
  <title>Satisfied Selected Emoji</title>
  <path d="M23.9902 8.24023C15.1502 8.24023 7.99023 15.4002 7.99023 24.2402C7.99023 33.0802 15.1502 40.2402 23.9902 40.2402C32.8302 40.2402 39.9902 33.0802 39.9902 24.2402C39.9902 15.4002 32.8302 8.24023 23.9902 8.24023ZM17.9202 28.6502C17.7102 28.0102 17.1202 27.5702 16.4402 27.5702C15.8202 27.5702 15.2503 27.9402 15.0103 28.5202L13.8602 28.0302C14.3002 26.9902 15.3102 26.3202 16.4402 26.3202C17.6602 26.3202 18.7302 27.1002 19.1102 28.2702L17.9202 28.6502ZM24.0002 33.0502C21.3502 33.0502 19.9103 31.4602 19.5303 30.9702L20.5203 30.2002C20.8103 30.5802 21.9202 31.8002 24.0002 31.8002C25.9602 31.8002 27.0902 30.6702 27.4902 30.1902L28.4603 30.9802C27.9503 31.6102 26.4902 33.0502 24.0002 33.0502ZM32.9702 28.5202C32.7302 27.9402 32.1702 27.5702 31.5402 27.5702C30.8602 27.5702 30.2702 28.0002 30.0602 28.6502L28.8702 28.2702C29.2402 27.1102 30.3102 26.3202 31.5402 26.3202C32.6702 26.3202 33.6802 26.9902 34.1202 28.0302L32.9702 28.5202Z" fill="#A6A1E2"/>
</svg>
