<svg viewBox="0 0 48 48" fill="none" xmlns="http://www.w3.org/2000/svg">
  <title>Satisfied Emoji</title>
  <path fill-rule="evenodd" clip-rule="evenodd" d="M38.75 24C38.75 15.87 32.13 9.25 24 9.25C15.87 9.25 9.25 15.87 9.25 24C9.25 32.13 15.87 38.75 24 38.75C32.13 38.75 38.75 32.13 38.75 24ZM8 24C8 15.16 15.16 8 24 8C32.84 8 40 15.17 40 24C40 32.84 32.84 40 24 40C15.16 40 8 32.84 8 24ZM24.01 31.57C25.97 31.57 27.1 30.44 27.5 29.96L28.47 30.75C27.96 31.37 26.51 32.82 24.01 32.82C21.36 32.82 19.92 31.23 19.54 30.74L20.53 29.97C20.82 30.35 21.93 31.57 24.01 31.57ZM17.93 28.4198C17.72 27.7798 17.13 27.3398 16.45 27.3398C15.83 27.3398 15.26 27.7098 15.02 28.2898L13.87 27.7998C14.31 26.7598 15.32 26.0898 16.45 26.0898C17.67 26.0898 18.74 26.8698 19.12 28.0398L17.93 28.4198ZM28.88 28.0398L30.07 28.4198C30.28 27.7698 30.87 27.3398 31.55 27.3398C32.18 27.3398 32.74 27.7098 32.98 28.2898L34.13 27.7998C33.69 26.7598 32.68 26.0898 31.55 26.0898C30.32 26.0898 29.25 26.8798 28.88 28.0398Z" fill="currentColor"/>
</svg>
