<svg
  width="48"
  height="48"
  viewBox="0 0 48 48"
  fill="none"
  xmlns="http://www.w3.org/2000/svg"
>
  <title>Satisfied Selected Emoji</title>
  <path
    d="M24.87 16.46C24.82 16.45 24.77 16.44 24.72 16.44C24.37 16.44 24.06 16.68 23.99 17.04C23.91 17.45 24.17 17.84 24.57 17.93C28.83 18.82 29.77 23.22 29.81 23.41C29.88 23.76 30.19 24.01 30.54 24.01C30.55 24.01 30.57 24.01 30.58 24.01C30.95 23.99 31.25 23.71 31.29 23.34C31.3 23.26 31.94 17.51 35.54 12.97C35.19 12.6 34.82 12.25 34.43 11.92C32.04 14.87 30.85 18.27 30.28 20.56C29.39 18.94 27.76 17.06 24.87 16.46Z"
    fill="#2D2A26"
  />
  <path
    d="M39.25 8C39.51 8 39.76 8.14 39.9 8.38C40.11 8.74 39.98 9.2 39.62 9.4C32.37 13.54 31.3 23.23 31.29 23.33C31.25 23.7 30.95 23.98 30.58 24C30.57 24 30.56 24 30.54 24C30.19 24 29.88 23.75 29.81 23.4C29.77 23.21 28.83 18.81 24.57 17.92C24.16 17.84 23.9 17.44 23.99 17.03C24.06 16.68 24.38 16.43 24.72 16.43C24.77 16.43 24.82 16.44 24.87 16.45C27.75 17.05 29.39 18.93 30.29 20.54C31.13 17.12 33.34 11.25 38.88 8.09C38.99 8.03 39.12 8 39.25 8Z"
    fill="#2D2A26"
  />
  <path
    d="M36.55 14.11C33.41 18.23 32.79 23.41 32.79 23.48C32.68 24.59 31.78 25.44 30.63 25.5H30.55C29.49 25.5 28.56 24.74 28.35 23.7C28.32 23.55 27.57 20.08 24.27 19.39C23.06 19.14 22.27 17.94 22.53 16.73C22.75 15.69 23.67 14.94 24.73 14.94C24.89 14.94 25.04 14.96 25.19 14.99C27.16 15.4 28.63 16.31 29.72 17.35C30.46 15.36 31.6 13.08 33.29 10.99C30.65 9.12 27.46 8 24 8C15.18 8 8 15.18 8 24C8 32.82 15.18 40 24 40C32.82 40 40 32.82 40 24C40 20.27 38.7 16.84 36.55 14.11ZM30.41 30.37C28.78 31.97 26.41 32.88 23.91 32.88C23.84 32.88 23.77 32.88 23.7 32.88C21.28 32.83 19.04 31.91 17.58 30.35C17.3 30.05 17.31 29.57 17.61 29.29C17.91 29 18.38 29.02 18.67 29.32C19.86 30.59 21.71 31.34 23.73 31.38C25.92 31.41 27.97 30.67 29.36 29.3C29.65 29.01 30.13 29.01 30.42 29.31C30.71 29.61 30.7 30.08 30.41 30.37Z"
    fill="#2D2A26"
  />
</svg>
