<svg viewBox="0 0 27 27" xmlns="http://www.w3.org/2000/svg" xmlns:xlink="http://www.w3.org/1999/xlink">
  <title>Satisfied Emoji (Filled)</title>
  <g stroke="none" stroke-width="1" fill="none" fill-rule="evenodd">
    <mask fill="white">
      <polygon points="0.0001 0.0006 27 0.0006 27 27.001 0.0001 27.001" />
    </mask>
    <path d="M21.8711,16.7546 C21.7181,16.8676 21.5061,16.8506 21.3721,16.7136 C21.3511,16.6926 20.9741,16.3226 20.3371,16.3226 C19.6911,16.3226 19.3071,16.7086 19.3031,16.7126 C19.2281,16.7896 19.1291,16.8296 19.0281,16.8296 C18.9491,16.8296 18.8701,16.8056 18.8021,16.7546 C18.6481,16.6406 18.6031,16.4306 18.6971,16.2636 C19.0341,15.6666 19.6621,15.2956 20.3371,15.2956 C21.0121,15.2956 21.6401,15.6656 21.9761,16.2626 C22.0701,16.4296 22.0251,16.6406 21.8711,16.7546 M16.0671,18.5746 C15.5171,19.1856 14.5591,19.5496 13.5001,19.5496 C12.4401,19.5496 11.4811,19.1856 10.9331,18.5746 C10.7931,18.4196 10.8061,18.1786 10.9621,18.0386 C11.1161,17.8986 11.3561,17.9106 11.4981,18.0666 C11.8981,18.5126 12.6661,18.7896 13.5001,18.7896 C14.3341,18.7896 15.1011,18.5126 15.5021,18.0666 C15.6431,17.9106 15.8831,17.8986 16.0391,18.0386 C16.1941,18.1786 16.2071,18.4186 16.0671,18.5746 M8.1981,16.7546 C8.0451,16.8676 7.8311,16.8506 7.6991,16.7136 C7.6781,16.6926 7.3001,16.3226 6.6631,16.3226 C6.0181,16.3226 5.6331,16.7086 5.6301,16.7126 C5.5561,16.7896 5.4551,16.8296 5.3541,16.8296 C5.2751,16.8296 5.1961,16.8056 5.1291,16.7546 C4.9751,16.6406 4.9301,16.4306 5.0231,16.2636 C5.3601,15.6666 5.9881,15.2956 6.6631,15.2956 C7.3381,15.2956 7.9661,15.6656 8.3031,16.2626 C8.3961,16.4296 8.3511,16.6406 8.1981,16.7546 M13.5001,0.0006 C6.0561,0.0006 0.0001,6.0566 0.0001,13.5006 C0.0001,20.9446 6.0561,27.0016 13.5001,27.0016 C20.9441,27.0016 27.0001,20.9446 27.0001,13.5006 C27.0001,6.0566 20.9441,0.0006 13.5001,0.0006" fill="#A6A1E2" />
  </g>
</svg>
