<svg viewBox="0 0 32 32" fill="none" xmlns="http://www.w3.org/2000/svg">
  <title>Satisfied Emoji</title>
  <path fill-rule="evenodd" clip-rule="evenodd" d="M30.75 16C30.75 7.87 24.13 1.25 16 1.25C7.87 1.25 1.25 7.87 1.25 16C1.25 24.13 7.87 30.75 16 30.75C24.13 30.75 30.75 24.13 30.75 16ZM0 16C0 7.16 7.16 0 16 0C24.84 0 32 7.17 32 16C32 24.84 24.84 32 16 32C7.16 32 0 24.84 0 16ZM16.01 23.57C17.97 23.57 19.1 22.44 19.5 21.96L20.47 22.75C19.96 23.37 18.51 24.82 16.01 24.82C13.36 24.82 11.92 23.23 11.54 22.74L12.53 21.97C12.82 22.35 13.93 23.57 16.01 23.57ZM9.92999 20.4198C9.71999 19.7798 9.13001 19.3398 8.45001 19.3398C7.83001 19.3398 7.26002 19.7098 7.02002 20.2898L5.87 19.7998C6.31 18.7598 7.32001 18.0898 8.45001 18.0898C9.67001 18.0898 10.74 18.8698 11.12 20.0398L9.92999 20.4198ZM20.88 20.0398L22.07 20.4198C22.28 19.7698 22.87 19.3398 23.55 19.3398C24.18 19.3398 24.74 19.7098 24.98 20.2898L26.13 19.7998C25.69 18.7598 24.68 18.0898 23.55 18.0898C22.32 18.0898 21.25 18.8798 20.88 20.0398Z" fill="currentColor"/>
</svg>
