<svg viewBox="0 0 27 27" xmlns="http://www.w3.org/2000/svg" xmlns:xlink="http://www.w3.org/1999/xlink">
  <title>Satisfied Emoji</title>
  <g stroke="none" stroke-width="1" fill="currentColor" fill-rule="evenodd">
    <path d="M13.5,25.6334 C6.811,25.6334 1.367,20.1904 1.367,13.5004 C1.367,6.8104 6.811,1.3674 13.5,1.3674 C20.189,1.3674 25.633,6.8104 25.633,13.5004 C25.633,20.1904 20.189,25.6334 13.5,25.6334 M13.5,0.0004 C6.056,0.0004 0,6.0564 0,13.5004 C0,20.9444 6.056,27.0004 13.5,27.0004 C20.944,27.0004 27,20.9444 27,13.5004 C27,6.0564 20.944,0.0004 13.5,0.0004" />
    <path d="M15.502,18.0665 C15.101,18.5125 14.334,18.7895 13.5,18.7895 C12.666,18.7895 11.898,18.5125 11.498,18.0665 C11.356,17.9105 11.116,17.8985 10.962,18.0385 C10.806,18.1785 10.793,18.4195 10.934,18.5745 C11.481,19.1855 12.44,19.5495 13.5,19.5495 C14.559,19.5495 15.518,19.1855 16.066,18.5745 C16.207,18.4185 16.194,18.1785 16.039,18.0385 C15.883,17.8985 15.644,17.9105 15.502,18.0665" />
    <path d="M6.6631,15.295 C5.9881,15.295 5.3601,15.666 5.0231,16.263 C4.9301,16.43 4.9751,16.641 5.1291,16.755 C5.1961,16.805 5.2751,16.83 5.3541,16.83 C5.4551,16.83 5.5561,16.79 5.6301,16.712 C5.6331,16.708 6.0181,16.323 6.6631,16.323 C7.3001,16.323 7.6781,16.692 7.6991,16.713 C7.8311,16.85 8.0451,16.868 8.1981,16.754 C8.3511,16.64 8.3961,16.429 8.3031,16.263 C7.9661,15.666 7.3381,15.295 6.6631,15.295" />
    <path d="M20.3369,15.295 C19.6619,15.295 19.0339,15.666 18.6969,16.263 C18.6039,16.43 18.6489,16.641 18.8019,16.755 C18.8699,16.805 18.9489,16.83 19.0279,16.83 C19.1289,16.83 19.2289,16.79 19.3029,16.712 C19.3069,16.708 19.6909,16.323 20.3369,16.323 C20.9739,16.323 21.3519,16.692 21.3719,16.713 C21.5059,16.85 21.7179,16.868 21.8709,16.754 C22.0249,16.64 22.0699,16.429 21.9769,16.263 C21.6399,15.666 21.0119,15.295 20.3369,15.295" />
  </g>
</svg>
