<svg viewBox="0 0 48 48" xmlns="http://www.w3.org/2000/svg" xmlns:xlink="http://www.w3.org/1999/xlink">
    <title>Severe Acne Emoji</title>
    <g stroke="none" stroke-width="1" fill="none" fill-rule="evenodd">
        <g id="Oval-8" stroke="#332E54">
            <circle stroke-width="2" cx="24" cy="24" r="23"/>
        </g>
        <g id="Group-13" transform="translate(8.000000, 8.000000)">
            <g id="Group-12">
                <g id="Group-14-Copy" transform="translate(3.235294, 10.000000)" fill="#332E54">
                    <path d="M3.97836189,0.91448344 C2.78089569,0.91448344 1.66680862,1.59022254 1.06896253,2.67759785 C0.902204273,2.98177152 0.982035353,3.36608675 1.25523505,3.57372625 C1.37409466,3.66479621 1.51424255,3.71033119 1.65616447,3.71033119 C1.83356687,3.71033119 2.0127433,3.63747522 2.14402107,3.49540609 C2.15111717,3.48812049 2.83234239,2.7868818 3.97836189,2.7868818 C5.11018921,2.7868818 5.78077028,3.4607995 5.81625076,3.49722749 C6.05042193,3.74675918 6.43006306,3.77954436 6.70148874,3.57190485 C6.97291441,3.36426535 7.05274549,2.97995012 6.88776126,2.67577645 C6.28814114,1.59022254 5.17405407,0.91448344 3.97836189,0.91448344"
                          id="Fill-8"/>
                    <path d="M21.5527859,0.91448344 C20.3553045,0.91448344 19.2412032,1.59022254 18.6415755,2.67759785 C18.4765892,2.98177152 18.5564213,3.36608675 18.8296244,3.57372625 C18.9467115,3.66479621 19.0886352,3.71033119 19.2287849,3.71033119 C19.4079636,3.71033119 19.5871423,3.63747522 19.7184217,3.49540609 C19.7237439,3.48812049 20.4067518,2.7868818 21.5527859,2.7868818 C22.6846276,2.7868818 23.3552171,3.4607995 23.388924,3.49722749 C23.6248722,3.74675918 24.0027441,3.77954436 24.2741732,3.57190485 C24.5473764,3.36426535 24.6272085,2.97995012 24.4604481,2.67577645 C23.8625945,1.59022254 22.7484932,0.91448344 21.5527859,0.91448344"
                          id="Fill-10"/>
                    <path d="M9.3697479,8.65761383 C9.3697479,8.42693596 9.42352138,8.27215854 9.53394907,8.19923457 C9.63669484,8.12928708 9.82298155,8.10398693 10.0582405,8.10398693 C10.3597562,8.10398693 10.741932,8.14491365 11.136591,8.18807273 C11.6810475,8.24760251 12.3004028,8.31457351 12.9648894,8.31457351 C13.629376,8.31457351 14.2477711,8.24760251 14.7922276,8.18807273 C15.4951239,8.11142815 16.1586503,8.03999242 16.3948695,8.19923457 C16.5052972,8.27215854 16.5590707,8.42693596 16.5590707,8.65761383 C16.5590707,9.89360078 14.9468264,10.899654 12.9648894,10.899654 C10.9819922,10.899654 9.3697479,9.89360078 9.3697479,8.65761383 Z M12.9649414,7.18616564 C12.2838169,7.18616564 11.6282345,7.10056494 11.0503429,7.02578733 C10.0009854,6.889023 9.17086485,6.78177615 8.6312865,7.21568312 C8.32265194,7.46461387 8.17152743,7.84735721 8.17152743,8.38654319 C8.17152743,10.4330885 10.322391,12.0978744 12.9649414,12.0978744 C15.6064275,12.0978744 17.7572912,10.4330885 17.7572912,8.38654319 C17.7572912,7.84735721 17.6061666,7.46461387 17.2975321,7.21568312 C16.7568895,6.78177615 15.9278332,6.889023 14.8784757,7.02578733 C14.3005841,7.10056494 13.6450017,7.18616564 12.9649414,7.18616564 Z"
                          id="Fill-12"
                          transform="translate(12.964409, 9.501730) scale(1, -1) translate(-12.964409, -9.501730) "/>
                </g>
                <circle id="Oval" fill="#EFD4C7" cx="28.9411765" cy="20.7058824" r="2.82352941"/>
                <circle id="Oval-Copy-16" fill="#EFD4C7" cx="2.82352941" cy="20.4705882" r="2.58823529"/>
                <g id="Group-6" transform="translate(13.411765, 28.235294)" fill="#EFD4C7">
                    <ellipse id="Oval-Copy-5" cx="0.784313725" cy="3.01176471" rx="1" ry="1"/>
                    <ellipse id="Oval-Copy-7" cx="2.35294118" cy="0.752941176" rx="1" ry="1"/>
                    <ellipse id="Oval-Copy-8" cx="3.92156863" cy="3.01176471" rx="1" ry="1"/>
                </g>
                <g id="Group-8" transform="translate(21.411765, 0.941176)" fill="#EFD4C7">
                    <ellipse id="Oval-Copy-17" cx="0.784313725" cy="3.01176471" rx="1" ry="1"/>
                    <ellipse id="Oval-Copy-18" cx="2.35294118" cy="0.752941176" rx="1" ry="1"/>
                    <ellipse id="Oval-Copy-19" cx="3.92156863" cy="3.01176471" rx="1" ry="1"/>
                </g>
                <g id="Group-9" transform="translate(5.411765, 0.941176)" fill="#EFD4C7">
                    <ellipse id="Oval-Copy-20" cx="0.784313725" cy="3.01176471" rx="1" ry="1"/>
                    <ellipse id="Oval-Copy-21" cx="2.35294118" cy="0.752941176" rx="1" ry="1"/>
                    <ellipse id="Oval-Copy-22" cx="3.92156863" cy="3.01176471" rx="1" ry="1"/>
                </g>
            </g>
        </g>
    </g>
</svg>