<svg xmlns="http://www.w3.org/2000/svg" viewBox="0 0 48 48">
    <title>Severe Acne Emoji</title>
    <g fill="none">
        <circle cx="24" cy="24" r="23" stroke="#332E54" stroke-width="2"/>
        <g>
            <g transform="translate(8 8)">
                <g fill="#332E54">
                    <path d="M7.2 10.9c-1.18 0-2.3.7-2.9 1.78-.16.3-.08.7.2.9.1.08.25.13.4.13.17 0 .35-.06.48-.2 0 0 .7-.7 1.83-.7 1.15 0 1.82.66 1.85.7.24.25.62.28.9.07.26-.2.34-.6.17-.9-.6-1.08-1.7-1.76-2.9-1.76"/>
                    <path d="M24.8 10.9c-1.2 0-2.32.7-2.92 1.78-.17.3-.1.7.18.9.12.08.26.13.4.13.18 0 .36-.06.5-.2 0 0 .68-.7 1.83-.7 1.12 0 1.8.66 1.82.7.24.25.62.28.9.07.26-.2.34-.6.18-.9-.6-1.08-1.72-1.76-2.9-1.76"/>
                    <path d="M12.6 20.35c0 .23.06.38.17.45.1.07.3.1.52.1.3 0 .68-.04 1.07-.08.55-.06 1.17-.13 1.83-.13.67 0 1.28.06 1.83.12.7.07 1.36.14 1.6-.02.1-.07.17-.22.17-.45 0-1.24-1.62-2.25-3.6-2.25s-3.6 1-3.6 2.25zm3.6 1.47c-.68 0-1.34.08-1.9.16-1.06.13-1.9.24-2.43-.2-.3-.24-.46-.62-.46-1.16 0-2.05 2.16-3.7 4.8-3.7 2.64 0 4.8 1.65 4.8 3.7 0 .54-.16.92-.47 1.17-.54.42-1.37.3-2.42.18-.56-.08-1.22-.16-1.9-.16z"/>
                </g>
                <circle cx="28.941" cy="20.706" r="2.824" fill="#EFD4C7"/>
                <circle cx="2.824" cy="20.471" r="2.588" fill="#EFD4C7"/>
                <g fill="#EFD4C7" transform="translate(13.412 28.235)">
                    <ellipse cx=".784" cy="3.012" rx="1" ry="1"/>
                    <ellipse cx="2.353" cy=".753" rx="1" ry="1"/>
                    <ellipse cx="3.922" cy="3.012" rx="1" ry="1"/>
                </g>
                <g fill="#EFD4C7" transform="translate(21.412 .941)">
                    <ellipse cx=".784" cy="3.012" rx="1" ry="1"/>
                    <ellipse cx="2.353" cy=".753" rx="1" ry="1"/>
                    <ellipse cx="3.922" cy="3.012" rx="1" ry="1"/>
                </g>
                <g fill="#EFD4C7" transform="translate(5.412 .941)">
                    <ellipse cx=".784" cy="3.012" rx="1" ry="1"/>
                    <ellipse cx="2.353" cy=".753" rx="1" ry="1"/>
                    <ellipse cx="3.922" cy="3.012" rx="1" ry="1"/>
                </g>
            </g>
        </g>
    </g>
</svg>
