<svg viewBox="0 0 48 48" fill="none" xmlns="http://www.w3.org/2000/svg">
  <title>Severe Irritation Selected Emoji</title>
  <path
    d="M23.75 8C15.07 8 8 15.07 8 23.75C8 32.43 15.07 39.5 23.75 39.5C32.43 39.5 39.5 32.43 39.5 23.75C39.5 15.07 32.43 8 23.75 8ZM27.54 32.38C26.96 32.38 26.45 32.24 25.91 32.1C25.28 31.93 24.63 31.75 23.72 31.75C22.81 31.75 22.18 31.93 21.57 32.1C21.05 32.25 20.55 32.39 19.96 32.39C18.53 32.39 17.37 31.23 17.37 29.8C17.37 28.37 18.53 27.21 19.96 27.21C20.54 27.21 21 27.34 21.49 27.49C22.09 27.66 22.7 27.84 23.71 27.84C24.72 27.84 25.4 27.65 26 27.48C26.5 27.34 26.97 27.21 27.54 27.21C28.97 27.21 30.13 28.37 30.13 29.8C30.13 31.23 28.97 32.38 27.54 32.38Z"
    fill="currentColor"
  />
</svg>
