<svg viewBox="0 0 32 32" fill="none" xmlns="http://www.w3.org/2000/svg">
  <title>Severe Acne Filled Emoji</title>
  <path fill-rule="evenodd" clip-rule="evenodd" d="M16 32C24.8366 32 32 24.8366 32 16C32 7.16344 24.8366 0 16 0C7.16344 0 0 7.16344 0 16C0 24.8366 7.16344 32 16 32ZM11 6.70001C11 6.97615 10.7762 7.20001 10.5 7.20001C10.2239 7.20001 10 6.97615 10 6.70001C10 6.42387 10.2239 6.20001 10.5 6.20001C10.7762 6.20001 11 6.42387 11 6.70001ZM9.50002 8.50001C9.77617 8.50001 10 8.27615 10 8.00001C10 7.72387 9.77617 7.50001 9.50002 7.50001C9.22388 7.50001 9.00002 7.72387 9.00002 8.00001C9.00002 8.27615 9.22388 8.50001 9.50002 8.50001ZM11.5255 20.7933C12.1996 20.0068 13.6586 18.775 16 18.775C18.3228 18.775 19.7982 19.989 20.4014 20.8266C20.8684 21.4341 20.972 22.1911 20.5914 22.7955C20.2115 23.3989 19.4779 23.6466 18.6973 23.5165L18.6306 23.5054L18.5679 23.4803C18.4074 23.4161 18.0604 23.3467 17.5518 23.2971C17.0638 23.2495 16.4845 23.225 15.9 23.225C14.9351 23.225 13.9635 23.3885 13.3389 23.4937L13.2257 23.5127C12.425 23.7035 11.6813 23.447 11.3033 22.8244C10.9328 22.2142 11.0271 21.433 11.5067 20.8163L11.5158 20.8046L11.5255 20.7933ZM12.485 21.5947C12.2741 21.8727 12.3179 22.087 12.3718 22.1757C12.4147 22.2463 12.5589 22.3911 12.9484 22.2937L12.9727 22.2876L12.9973 22.2835L13.138 22.2599C13.7565 22.1554 14.825 21.975 15.9 21.975C16.5155 21.975 17.1363 22.0006 17.6732 22.053C18.1529 22.0998 18.621 22.1726 18.9572 22.2916C19.3367 22.34 19.4905 22.198 19.5336 22.1295C19.5759 22.0624 19.6329 21.8746 19.4067 21.5837L19.3989 21.5737L19.3914 21.5633C18.9899 21.0012 17.8679 20.025 16 20.025C14.1536 20.025 13.0155 20.9806 12.485 21.5947ZM11.5 8.50001C11.7762 8.50001 12 8.27615 12 8.00001C12 7.72387 11.7762 7.50001 11.5 7.50001C11.2239 7.50001 11 7.72387 11 8.00001C11 8.27615 11.2239 8.50001 11.5 8.50001ZM21 8.00001C21 8.27615 20.7762 8.50001 20.5 8.50001C20.2239 8.50001 20 8.27615 20 8.00001C20 7.72387 20.2239 7.50001 20.5 7.50001C20.7762 7.50001 21 7.72387 21 8.00001ZM21.5 7.20001C21.7762 7.20001 22 6.97615 22 6.70001C22 6.42387 21.7762 6.20001 21.5 6.20001C21.2239 6.20001 21 6.42387 21 6.70001C21 6.97615 21.2239 7.20001 21.5 7.20001ZM23 8.00001C23 8.27615 22.7762 8.50001 22.5 8.50001C22.2239 8.50001 22 8.27615 22 8.00001C22 7.72387 22.2239 7.50001 22.5 7.50001C22.7762 7.50001 23 7.72387 23 8.00001ZM15 27.8C15.2762 27.8 15.5 27.5761 15.5 27.3C15.5 27.0239 15.2762 26.8 15 26.8C14.7239 26.8 14.5 27.0239 14.5 27.3C14.5 27.5761 14.7239 27.8 15 27.8ZM16.5 26C16.5 26.2761 16.2762 26.5 16 26.5C15.7239 26.5 15.5 26.2761 15.5 26C15.5 25.7239 15.7239 25.5 16 25.5C16.2762 25.5 16.5 25.7239 16.5 26ZM17 27.8C17.2762 27.8 17.5 27.5761 17.5 27.3C17.5 27.0239 17.2762 26.8 17 26.8C16.7239 26.8 16.5 27.0239 16.5 27.3C16.5 27.5761 16.7239 27.8 17 27.8ZM8.40002 13.975C7.27553 13.975 6.21833 14.6045 5.81482 15.6805L6.98523 16.1194C7.18172 15.5955 7.72452 15.225 8.40002 15.225C9.12873 15.225 9.69145 15.6507 9.9071 16.2976L11.093 15.9023C10.7086 14.7493 9.67132 13.975 8.40002 13.975ZM23.6 15.225C22.8713 15.225 22.3086 15.6507 22.093 16.2976L20.9071 15.9023C21.2914 14.7493 22.3287 13.975 23.6 13.975C24.7245 13.975 25.7817 14.6045 26.1852 15.6805L25.0148 16.1194C24.8183 15.5955 24.2755 15.225 23.6 15.225Z" fill="#A6A1E2"/>
</svg>
