<svg width="48" height="48" viewBox="0 0 48 48" fill="none" xmlns="http://www.w3.org/2000/svg">
    <title>Severe Irritation Emoji</title>
    <path fill-rule="evenodd" clip-rule="evenodd" d="M24 9.2C32.1 9.2 38.8 15.8 38.8 24C38.8 32.2 32.1 38.8 24 38.8C15.9 38.8 9.2 32.1 9.2 24C9.2 15.9 15.9 9.2 24 9.2ZM24 8C15.2 8 8 15.2 8 24C8 32.8 15.2 40 24 40C32.8 40 40 32.8 40 24C40 15.2 32.8 8 24 8ZM19.5255 28.7933C20.1996 28.0068 21.6586 26.775 24 26.775C26.3228 26.775 27.7982 27.989 28.4013 28.8266C28.8683 29.4341 28.972 30.1911 28.5914 30.7955C28.2115 31.3989 27.4779 31.6466 26.6973 31.5165L26.6306 31.5054L26.5679 31.4803C26.4074 31.4161 26.0604 31.3467 25.5518 31.2971C25.0637 31.2495 24.4845 31.225 23.9 31.225C22.9351 31.225 21.9635 31.3885 21.3389 31.4937L21.2256 31.5127C20.425 31.7035 19.6813 31.447 19.3033 30.8244C18.9328 30.2142 19.027 29.433 19.5067 28.8163L19.5158 28.8046L19.5255 28.7933ZM20.485 29.5947C20.2741 29.8727 20.3179 30.087 20.3717 30.1757C20.4146 30.2463 20.5589 30.3911 20.9484 30.2937L20.9726 30.2876L20.9973 30.2835L21.138 30.2599C21.7565 30.1554 22.825 29.975 23.9 29.975C24.5155 29.975 25.1363 30.0006 25.6732 30.053C26.1529 30.0998 26.6209 30.1726 26.9572 30.2916C27.3367 30.34 27.4905 30.198 27.5336 30.1295C27.5759 30.0624 27.6328 29.8746 27.4067 29.5837L27.3988 29.5737L27.3914 29.5633C26.9899 29.0012 25.8678 28.025 24 28.025C22.1536 28.025 21.0154 28.9806 20.485 29.5947ZM18 16C18 16.2762 17.7761 16.5 17.5 16.5C17.2239 16.5 17 16.2762 17 16C17 15.7239 17.2239 15.5 17.5 15.5C17.7761 15.5 18 15.7239 18 16ZM18.5 15.2C18.7761 15.2 19 14.9762 19 14.7C19 14.4239 18.7761 14.2 18.5 14.2C18.2239 14.2 18 14.4239 18 14.7C18 14.9762 18.2239 15.2 18.5 15.2ZM20 16C20 16.2762 19.7761 16.5 19.5 16.5C19.2239 16.5 19 16.2762 19 16C19 15.7239 19.2239 15.5 19.5 15.5C19.7761 15.5 20 15.7239 20 16ZM28.5 16.5C28.7761 16.5 29 16.2762 29 16C29 15.7239 28.7761 15.5 28.5 15.5C28.2239 15.5 28 15.7239 28 16C28 16.2762 28.2239 16.5 28.5 16.5ZM30 14.7C30 14.9762 29.7761 15.2 29.5 15.2C29.2239 15.2 29 14.9762 29 14.7C29 14.4239 29.2239 14.2 29.5 14.2C29.7761 14.2 30 14.4239 30 14.7ZM30.5 16.5C30.7761 16.5 31 16.2762 31 16C31 15.7239 30.7761 15.5 30.5 15.5C30.2239 15.5 30 15.7239 30 16C30 16.2762 30.2239 16.5 30.5 16.5ZM23.5 35.3C23.5 35.5761 23.2761 35.8 23 35.8C22.7239 35.8 22.5 35.5761 22.5 35.3C22.5 35.0239 22.7239 34.8 23 34.8C23.2761 34.8 23.5 35.0239 23.5 35.3ZM24 34.5C24.2761 34.5 24.5 34.2761 24.5 34C24.5 33.7239 24.2761 33.5 24 33.5C23.7239 33.5 23.5 33.7239 23.5 34C23.5 34.2761 23.7239 34.5 24 34.5ZM25.5 35.3C25.5 35.5761 25.2761 35.8 25 35.8C24.7239 35.8 24.5 35.5761 24.5 35.3C24.5 35.0239 24.7239 34.8 25 34.8C25.2761 34.8 25.5 35.0239 25.5 35.3ZM13.8148 23.6805C14.2183 22.6045 15.2755 21.975 16.4 21.975C17.6713 21.975 18.7086 22.7493 19.0929 23.9023L17.9071 24.2976C17.6914 23.6507 17.1287 23.225 16.4 23.225C15.7245 23.225 15.1817 23.5955 14.9852 24.1194L13.8148 23.6805ZM30.0929 24.2976C30.3086 23.6507 30.8713 23.225 31.6 23.225C32.2755 23.225 32.8183 23.5955 33.0148 24.1194L34.1852 23.6805C33.7817 22.6045 32.7245 21.975 31.6 21.975C30.3287 21.975 29.2914 22.7493 28.9071 23.9023L30.0929 24.2976Z" fill="currentColor"/>
</svg>
