<svg viewBox="0 0 48 48" fill="none" xmlns="https://www.w3.org/2000/svg">
  <title>Smiley Emoji</title>
  <path fill-rule="evenodd" clip-rule="evenodd" d="M24 9.25C32.13 9.25 38.75 15.87 38.75 24C38.75 32.13 32.13 38.75 24 38.75C15.87 38.75 9.25 32.13 9.25 24C9.25 15.87 15.87 9.25 24 9.25ZM24 8C15.16 8 8 15.16 8 24C8 32.84 15.16 40 24 40C32.84 40 40 32.84 40 24C40 15.17 32.84 8 24 8ZM18.0501 21.9598C18.0501 22.6115 17.5218 23.1398 16.8701 23.1398C16.2184 23.1398 15.6901 22.6115 15.6901 21.9598C15.6901 21.3081 16.2184 20.7798 16.8701 20.7798C17.5218 20.7798 18.0501 21.3081 18.0501 21.9598ZM32.5401 21.9598C32.5401 22.6115 32.0118 23.1398 31.3601 23.1398C30.7084 23.1398 30.1801 22.6115 30.1801 21.9598C30.1801 21.3081 30.7084 20.7798 31.3601 20.7798C32.0118 20.7798 32.5401 21.3081 32.5401 21.9598ZM17.75 24.9798C18.7 27.5698 21.19 29.3098 23.94 29.3098C26.69 29.3098 29.17 27.5698 30.13 24.9798L28.96 24.5498C28.19 26.6498 26.17 28.0598 23.94 28.0598C21.71 28.0598 19.69 26.6498 18.92 24.5498L17.75 24.9798Z" fill="currentColor"/>
</svg>
