<svg viewBox="0 0 32 32" fill="none" xmlns="http://www.w3.org/2000/svg">
  <title>Smiley Filled Emoji</title>
  <path d="M16 0C7.16 0 0 7.16 0 16C0 24.84 7.16 32 16 32C24.84 32 32 24.84 32 16C32 7.16 24.84 0 16 0ZM8.87 15.14C8.22 15.14 7.69 14.61 7.69 13.96C7.69 13.31 8.22 12.78 8.87 12.78C9.51999 12.78 10.05 13.31 10.05 13.96C10.05 14.61 9.52999 15.14 8.87 15.14ZM15.93 21.3C13.18 21.3 10.69 19.56 9.73999 16.97L10.91 16.54C11.68 18.64 13.7 20.05 15.93 20.05C18.16 20.05 20.18 18.64 20.95 16.54L22.12 16.97C21.18 19.56 18.69 21.3 15.93 21.3ZM23.36 15.14C22.71 15.14 22.18 14.61 22.18 13.96C22.18 13.31 22.71 12.78 23.36 12.78C24.01 12.78 24.54 13.31 24.54 13.96C24.54 14.61 24.01 15.14 23.36 15.14Z" fill="currentColor"/>
</svg>
