<svg viewBox="0 0 30 32" fill="none" xmlns="http://www.w3.org/2000/svg">
  <title>Sparkle Emoji</title>
  <path d="M26.2988 4.85313L14.5492 0L3.87226 4.33206L0 12.0766L15.2235 32L29.65 12.9144L26.2988 4.85313ZM27.6271 11.3614H22.4061L20.6897 6.07918H25.4303L27.6271 11.3614ZM15.0089 29.6092L2.0332 12.6386H21.0268L15.0089 29.6092ZM17.8595 4.80204H6.09959L14.3959 1.44061L17.8595 4.80204ZM17.3793 2.54406L22.825 4.79183H19.6883L17.3793 2.54406ZM4.42397 6.07918H19.1673L19.4125 6.32439L21.0575 11.3716H1.77777L4.42397 6.07918ZM17.2056 27.249L22.3959 12.6386H28.1685L28.1992 12.7203L17.2056 27.249Z" fill="currentColor"/>
</svg>
