<svg viewBox="0 0 27 28" xmlns="http://www.w3.org/2000/svg" xmlns:xlink="http://www.w3.org/1999/xlink">
  <title>Supported Emoji (Filled)</title>
  <g fill="none" fill-rule="evenodd">
    <g transform="translate(0 .5)">
      <path fill="currentColor" d="M13.3286,1.3496 C6.7236,1.3496 1.3496,6.7236 1.3496,13.3286 C1.3496,19.9341 6.7236,25.3081 13.3286,25.3081 C19.9341,25.3081 25.3081,19.9341 25.3081,13.3286 C25.3081,6.7236 19.9341,1.3496 13.3286,1.3496 M0.0001,13.3286 C0.0001,5.9791 5.9791,0.0001 13.3286,0.0001 C20.6781,0.0001 26.6576,5.9791 26.6576,13.3286 C26.6576,20.6781 20.6781,26.6576 13.3286,26.6576 C5.9791,26.6576 0.0001,20.6781 0.0001,13.3286 Z"/>
      <path fill="currentColor" d="M13.3286,15.52 C11.3421,15.52 9.4896,14.451 8.4936,12.731 C8.3901,12.5515 8.4511,12.322 8.6306,12.218 C8.8096,12.114 9.0386,12.176 9.1431,12.355 C10.0051,13.8445 11.6091,14.77 13.3286,14.77 C15.0486,14.77 16.6526,13.844 17.5146,12.3535 C17.6191,12.175 17.8466,12.1135 18.0271,12.217 C18.2066,12.321 18.2676,12.55 18.1641,12.7295 C17.1686,14.4505 15.3156,15.52 13.3286,15.52"/>
      <path fill="#DDDDE3" d="M21.7165 15.13995C20.8685 15.13995 20.181 14.45295 20.181 13.60545 20.181 12.75795 20.8685 12.07045 21.7165 12.07045 22.564 12.07045 23.251 12.75795 23.251 13.60545 23.251 14.45295 22.564 15.13995 21.7165 15.13995zM4.94155 15.13995C4.09355 15.13995 3.40655 14.45295 3.40655 13.60545 3.40655 12.75795 4.09355 12.07045 4.94155 12.07045 5.78905 12.07045 6.47605 12.75795 6.47605 13.60545 6.47605 14.45295 5.78905 15.13995 4.94155 15.13995z"/>
    </g>
    <path fill="currentColor" d="M19.30975 11.5290938C18.74975 11.5290938 18.29625 11.0686169 18.29625 10.5005092 18.29625 9.93240154 18.74975 9.47192462 19.30975 9.47192462 19.86925 9.47192462 20.32275 9.93240154 20.32275 10.5005092 20.32275 11.0686169 19.86925 11.5290938 19.30975 11.5290938zM6.09815 10.5005092C6.09815 11.0686169 6.55165 11.5290938 7.11115 11.5290938 7.67115 11.5290938 8.12465 11.0686169 8.12465 10.5005092 8.12465 9.93240154 7.67115 9.47192462 7.11115 9.47192462 6.55165 9.47192462 6.09815 9.93240154 6.09815 10.5005092"/>
  </g>
</svg>

