<svg viewBox="0 0 27 28" xmlns="http://www.w3.org/2000/svg" xmlns:xlink="http://www.w3.org/1999/xlink">
  <title>Supported Emoji (Filled)</title>
  <path fill="currentColor" fill-rule="evenodd" d="M0.0001,13.329 C0.0001,5.9795 5.9791,0 13.3286,0 C20.6781,0 26.6576,5.9795 26.6576,13.329 C26.6576,20.6785 20.6781,26.658 13.3286,26.658 C5.9791,26.658 0.0001,20.6785 0.0001,13.329 Z M13.3286,15.5205 C15.3156,15.5205 17.1681,14.451 18.1641,12.7295 C18.2676,12.5505 18.2066,12.321 18.0271,12.217 C17.8466,12.1135 17.6191,12.1755 17.5146,12.354 C16.6521,13.8445 15.0481,14.7705 13.3286,14.7705 C11.6091,14.7705 10.0056,13.845 9.1431,12.3555 C9.0386,12.1765 8.8096,12.1135 8.6306,12.2185 C8.4511,12.3225 8.3901,12.552 8.4936,12.731 C9.4896,14.4515 11.3421,15.5205 13.3286,15.5205 Z M19.30975,11.0290938 C19.86925,11.0290938 20.32275,10.5686169 20.32275,10.0005092 C20.32275,9.43240154 19.86925,8.97192462 19.30975,8.97192462 C18.74975,8.97192462 18.29625,9.43240154 18.29625,10.0005092 C18.29625,10.5686169 18.74975,11.0290938 19.30975,11.0290938 Z M6.09815,10.0005092 C6.09815,10.5686169 6.55165,11.0290938 7.11115,11.0290938 C7.67115,11.0290938 8.12465,10.5686169 8.12465,10.0005092 C8.12465,9.43240154 7.67115,8.97192462 7.11115,8.97192462 C6.55165,8.97192462 6.09815,9.43240154 6.09815,10.0005092 Z" transform="translate(0 .5)"/>
</svg>

