<svg viewBox="0 0 27 27" xmlns="http://www.w3.org/2000/svg" xmlns:xlink="http://www.w3.org/1999/xlink">
  <title>Unsatisfied Emoji</title>
  <g stroke="none" stroke-width="1" fill="none" fill-rule="evenodd">
    <path d="M19.0575,15.3744 C18.586,15.6759 18.448,16.3024 18.75,16.7739 C19.0515,17.2449 19.6775,17.3829 20.1495,17.0814 C20.6205,16.7799 20.758,16.1534 20.457,15.6819 C20.155,15.2104 19.5285,15.0729 19.0575,15.3744" fill="#332E54" />
    <path d="M7.6,15.3744 C7.129,15.0729 6.502,15.2104 6.2005,15.6819 C5.8995,16.1534 6.037,16.7799 6.5075,17.0814 C6.9795,17.3829 7.606,17.2449 7.907,16.7739 C8.209,16.3024 8.071,15.6759 7.6,15.3744" fill="#332E54" />
    <path d="M13.3285,25.308 C6.7235,25.308 1.3495,19.9345 1.3495,13.329 C1.3495,6.724 6.7235,1.35 13.3285,1.35 C19.934,1.35 25.308,6.724 25.308,13.329 C25.308,19.9345 19.934,25.308 13.3285,25.308 M13.3285,0 C5.979,0 0,5.9795 0,13.329 C0,20.679 5.979,26.658 13.3285,26.658 C20.678,26.658 26.6575,20.679 26.6575,13.329 C26.6575,5.9795 20.678,0 13.3285,0" fill="#332E54" />
    <path d="M13.329,17.71305 C12.283,17.71305 11.336,18.07305 10.7945,18.67605 C10.6555,18.83005 10.6685,19.06705 10.8225,19.20555 C10.8945,19.26955 10.984,19.30155 11.073,19.30155 C11.1755,19.30155 11.278,19.25955 11.352,19.17705 C11.7475,18.73655 12.5055,18.46305 13.329,18.46305 C14.152,18.46305 14.9095,18.73655 15.3055,19.17655 C15.444,19.33055 15.681,19.34305 15.8355,19.20455 C15.989,19.06655 16.002,18.82905 15.863,18.67505 C15.321,18.07255 14.374,17.71305 13.329,17.71305" fill="#332E54" />
  </g>
</svg>
