<svg width="48" height="48" viewBox="0 0 48 48" fill="none" xmlns="http://www.w3.org/2000/svg">
  <title>Unsatisfied Emoji</title>
  <path
    d="M24 40C15.18 40 8 32.82 8 24C8 15.18 15.18 8 24 8C32.82 8 40 15.18 40 24C40 32.82 32.82 40 24 40ZM24 9.5C16 9.5 9.5 16 9.5 24C9.5 32 16 38.5 24 38.5C32 38.5 38.5 32 38.5 24C38.5 16 32 9.5 24 9.5Z"
    fill="currentColor"
  />
  <path
    d="M18.12 32.88C17.93 32.88 17.75 32.81 17.61 32.67C17.31 32.39 17.3 31.91 17.58 31.61C19.05 30.05 21.28 29.13 23.7 29.09C26.3 29.03 28.73 29.95 30.41 31.59C30.71 31.88 30.71 32.35 30.42 32.65C30.13 32.95 29.66 32.95 29.36 32.66C27.97 31.3 25.91 30.55 23.73 30.58C21.71 30.62 19.86 31.37 18.67 32.63C18.52 32.8 18.32 32.88 18.12 32.88Z"
    fill="currentColor"
  />
</svg>
