<svg viewBox="0 0 27 27" xmlns="http://www.w3.org/2000/svg" xmlns:xlink="http://www.w3.org/1999/xlink">
  <title>Unsatisfied Emoji (Filled)</title>
  <defs>
    <polygon points="0 0 27 0 27 27.0004558 0 27.0004558"></polygon>
  </defs>
  <g stroke="none" stroke-width="1" fill="none" fill-rule="evenodd">
    <mask fill="white">
      <polygon points="0 0 26.6574 0 26.6574 26.658 0 26.658" />
    </mask>
    <path d="M20.4080014,17.300135 C19.9309588,17.6060095 19.2964213,17.466239 18.9905469,16.9886901 C18.6851789,16.5111411 18.8244429,15.8766036 19.3019919,15.5712357 C19.7795409,15.2658677 20.4140783,15.4056381 20.7194463,15.8826806 C21.0248143,16.3602296 20.8855503,16.994767 20.4080014,17.300135 M16.0386563,19.4508778 C15.8821742,19.5911546 15.6426401,19.5779878 15.5018569,19.4225186 C15.1012829,18.9768737 14.3340648,18.699865 13.5,18.699865 C12.6659352,18.699865 11.8982107,18.9768737 11.4976367,19.4225186 C11.4231938,19.506077 11.3193788,19.5486158 11.2155638,19.5486158 C11.1249156,19.5486158 11.0342674,19.5167117 10.9618501,19.4518906 C10.805368,19.3116138 10.7927076,19.0715733 10.9329845,18.9150912 C11.4814315,18.3043552 12.4410871,17.9402431 13.5,17.9402431 C14.5584065,17.9402431 15.5180621,18.3043552 16.0670155,18.9145847 C16.2072924,19.0705604 16.194632,19.3106009 16.0386563,19.4508778 M8.00894666,16.9886901 C7.70357866,17.466239 7.06904119,17.6060095 6.59149223,17.300135 C6.1144497,16.994767 5.97518569,16.3602296 6.28055368,15.8826806 C6.58541526,15.4056381 7.22045915,15.2658677 7.69750169,15.5712357 C8.17505064,15.8766036 8.31431465,16.5111411 8.00894666,16.9886901 M13.4994936,0 C6.0557056,0 0,6.05621202 0,13.5 C0,20.943788 6.0557056,27 13.4994936,27 C20.943788,27 27,20.943788 27,13.5 C27,6.05621202 20.943788,0 13.4994936,0" fill="#A6A1E2" />
  </g>
</svg>
