<svg viewBox="0 0 32 32" fill="none" xmlns="http://www.w3.org/2000/svg">
  <title>Unsatisfied Emoji</title>
  <path fill-rule="evenodd" clip-rule="evenodd" d="M16 1.25C24.13 1.25 30.75 7.87 30.75 16C30.75 24.13 24.13 30.75 16 30.75C7.87003 30.75 1.25 24.13 1.25 16C1.25 7.87 7.87003 1.25 16 1.25ZM16 0C7.16003 0 0 7.16 0 16C0 24.84 7.16003 32 16 32C24.84 32 32 24.84 32 16C32 7.17 24.84 0 16 0ZM23.36 20.1398C24.0117 20.1398 24.54 19.6115 24.54 18.9598C24.54 18.3081 24.0117 17.7798 23.36 17.7798C22.7084 17.7798 22.1801 18.3081 22.1801 18.9598C22.1801 19.6115 22.7084 20.1398 23.36 20.1398ZM10.0599 18.9598C10.0599 19.6115 9.53164 20.1398 8.87994 20.1398C8.22825 20.1398 7.69995 19.6115 7.69995 18.9598C7.69995 18.3081 8.22825 17.7798 8.87994 17.7798C9.53164 17.7798 10.0599 18.3081 10.0599 18.9598ZM19.4899 24.58C19.1999 24.21 18.0899 22.98 16.0099 22.98C14.0499 22.98 12.9099 24.11 12.5199 24.59L11.5499 23.8C12.0599 23.18 13.5099 21.73 16.0099 21.73C18.6599 21.73 20.0999 23.32 20.4799 23.81L19.4899 24.58Z" fill="#332E54"/>
</svg>
