<svg
  width="48"
  height="48"
  viewBox="0 0 48 48"
  fill="none"
  xmlns="http://www.w3.org/2000/svg"
>
  <title>Unsatisfied Selected Emoji</title>
  <path
    d="M24 8C15.18 8 8 15.18 8 24C8 32.82 15.18 40 24 40C32.82 40 40 32.82 40 24C40 15.18 32.82 8 24 8ZM30.42 32.66C30.13 32.96 29.66 32.96 29.36 32.67C27.97 31.31 25.91 30.54 23.73 30.59C21.71 30.63 19.86 31.38 18.67 32.64C18.52 32.8 18.32 32.88 18.12 32.88C17.93 32.88 17.75 32.81 17.61 32.67C17.31 32.39 17.3 31.91 17.58 31.61C19.05 30.05 21.28 29.13 23.7 29.09C26.3 29.03 28.73 29.95 30.41 31.59C30.7 31.88 30.71 32.36 30.42 32.66Z"
    fill="#2D2A26"
  />
</svg>
