<svg width="48" height="48" viewBox="0 0 48 48" fill="none" xmlns="http://www.w3.org/2000/svg">
  <title>Unsatisfied Emoji</title>  
  <path fill-rule="evenodd" clip-rule="evenodd" d="M24 9.25C32.13 9.25 38.75 15.87 38.75 24C38.75 32.13 32.13 38.75 24 38.75C15.87 38.75 9.25 32.13 9.25 24C9.25 15.87 15.87 9.25 24 9.25ZM24 8C15.16 8 8 15.16 8 24C8 32.84 15.16 40 24 40C32.84 40 40 32.84 40 24C40 15.17 32.84 8 24 8ZM31.36 28.1398C32.0117 28.1398 32.54 27.6115 32.54 26.9598C32.54 26.3081 32.0117 25.7798 31.36 25.7798C30.7084 25.7798 30.1801 26.3081 30.1801 26.9598C30.1801 27.6115 30.7084 28.1398 31.36 28.1398ZM18.0599 26.9598C18.0599 27.6115 17.5316 28.1398 16.8799 28.1398C16.2282 28.1398 15.7 27.6115 15.7 26.9598C15.7 26.3081 16.2282 25.7798 16.8799 25.7798C17.5316 25.7798 18.0599 26.3081 18.0599 26.9598ZM27.4899 32.58C27.1999 32.21 26.0899 30.98 24.0099 30.98C22.0499 30.98 20.9099 32.11 20.5199 32.59L19.5499 31.8C20.0599 31.18 21.5099 29.73 24.0099 29.73C26.6599 29.73 28.0999 31.32 28.4799 31.81L27.4899 32.58Z" fill="currentColor"/>
</svg>
