<svg viewBox="0 0 32 32" fill="none" xmlns="http://www.w3.org/2000/svg">
  <title>Unsatisfied Selected Emoji</title>
  <path d="M16 0C7.16003 0 0 7.16 0 16C0 24.84 7.16003 32 16 32C24.84 32 32 24.84 32 16C32 7.16 24.84 0 16 0ZM8.88 20.14C8.23001 20.14 7.70001 19.61 7.70001 18.96C7.70001 18.31 8.23001 17.78 8.88 17.78C9.53 17.78 10.06 18.31 10.06 18.96C10.06 19.61 9.53 20.14 8.88 20.14ZM19.49 24.57C19.2 24.19 18.09 22.97 16.01 22.97C14.05 22.97 12.92 24.1 12.52 24.58L11.55 23.79C12.06 23.17 13.51 21.72 16.01 21.72C18.66 21.72 20.1 23.31 20.48 23.8L19.49 24.57ZM23.36 20.14C22.71 20.14 22.18 19.61 22.18 18.96C22.18 18.31 22.71 17.78 23.36 17.78C24.01 17.78 24.54 18.31 24.54 18.96C24.54 19.61 24.02 20.14 23.36 20.14Z" fill="currentColor"/>
</svg>
