<svg viewBox="0 0 48 48" fill="none" xmlns="http://www.w3.org/2000/svg">
  <title>Hug Emoji</title>
  <path fill-rule="evenodd" clip-rule="evenodd" d="M37.7444 20.2124C37.7333 20.9579 37.3 21.6266 36.4889 22.2405C37.3 22.975 38 23.7643 38 24.7509C38 26.1432 36.9889 26.9873 35.8111 27.963C35.1222 28.5331 34.3444 29.1908 33.6444 30.0459C33.1 30.7037 33.3333 31.6355 33.7889 33.0826C34.3444 34.8476 35.1 37.2703 32.2778 38.6626C30.4445 39.5725 27.7446 40 25.0224 40C21.5002 40 17.9336 39.2765 16.1336 37.9171C13.9003 36.2288 14.4558 31.9753 15.4336 28.0397C15.3336 28.0617 15.2224 28.0726 15.1224 28.0726C13.9002 28.0726 13.0891 27.1518 12.478 26.2419C12.0002 25.5293 10.6447 23.4793 12.578 21.7691C11.0558 21.0565 9.60025 20.037 10.1002 17.8006C10.2225 17.2415 10.7891 15.7835 13.2336 15.5204C13.1558 15.1257 13.1113 14.7311 13.1113 14.3255C13.1113 10.8393 15.9891 8 19.5224 8C21.2113 8 22.7779 8.6468 23.9668 9.78691C25.1446 8.65776 26.7112 8 28.4001 8C31.9112 8 34.7667 10.8174 34.7667 14.2816C34.7667 14.7968 34.7 15.3121 34.5667 15.8383L34.5556 15.9699C35.7 16.2658 36.4222 17.3402 36.8555 17.987C37.3 18.6338 37.7555 19.4012 37.7444 20.2124ZM36.3555 20.1905C36.3666 19.7958 36.0445 19.2587 35.7 18.7434C34.9334 17.5923 34.4222 17.1977 33.8444 17.2634C33.5667 17.2963 33.2445 17.4169 32.9 17.6471C31.3889 18.6228 30.6889 20.3001 31.3667 21.3087C31.9778 22.2295 33.5889 22.3501 35.0333 21.5718C35.0633 21.554 35.094 21.5363 35.1251 21.5184C35.2095 21.4698 35.2966 21.4195 35.3778 21.3635C36.3444 20.7386 36.3555 20.322 36.3555 20.1905ZM23.089 10.8393C22.1446 9.89654 20.878 9.37033 19.5224 9.37033C16.7558 9.37033 14.5002 11.5958 14.5113 14.3255C14.5113 14.7201 14.5669 15.1148 14.6669 15.4985C15.1447 15.5313 15.6669 15.5971 16.2558 15.7067C19.7335 16.3645 20.8446 15.0161 22.5779 11.7931C22.7002 11.4971 22.8668 11.1792 23.0557 10.8941C23.0613 10.8832 23.0668 10.875 23.0723 10.8667C23.0779 10.8585 23.0834 10.8503 23.089 10.8393ZM13.9003 22.4817C12.7114 23.2491 12.6447 24.0055 13.6336 25.4854C14.4558 26.7133 15.0225 27.086 16.3891 26.209C17.1558 25.7047 17.7335 25.025 18.0113 24.2905C18.2557 23.6328 18.2224 23.0079 17.9113 22.5474C17.5669 22.0322 16.9224 21.7691 16.1669 21.7691C15.4447 21.7691 14.6336 21.9993 13.9003 22.4817ZM34.874 26.9509L34.9222 26.9106C36 26.0116 36.6111 25.4635 36.6222 24.7509C36.6222 24.2247 35.9333 23.5779 35.2444 22.986C34.5333 23.2929 33.8111 23.4573 33.1223 23.4573C31.9001 23.4573 30.8112 22.986 30.2001 22.0651C29.089 20.4097 29.9556 17.9102 32.1222 16.507C32.4778 16.2768 32.8222 16.1343 33.1556 16.0356L33.2112 15.5971C33.3334 15.0928 33.3889 14.6872 33.3889 14.2926C33.3889 11.5848 31.1556 9.38129 28.4112 9.38129C26.7112 9.38129 25.1446 10.2254 24.2223 11.6396C24.0779 11.8589 23.9446 12.111 23.8335 12.3851C22.0779 15.6739 20.489 17.8993 16.0002 17.0552C12.9558 16.4851 11.6669 17.2196 11.4669 18.0966C11.1558 19.5108 11.9892 20.037 13.978 20.8921C15.9558 20.0041 18.1224 20.333 19.0891 21.791C19.6446 22.6242 19.7224 23.6766 19.3224 24.7619C18.9446 25.7705 18.178 26.6913 17.1558 27.3491C17.1335 27.3655 17.1113 27.3765 17.0891 27.3875C17.0669 27.3984 17.0447 27.4094 17.0224 27.4258C16.3669 29.8705 15.0335 35.3518 16.978 36.8208C19.8001 38.9585 27.889 39.2874 31.6556 37.4347C33.3445 36.6016 33.0778 35.4395 32.4667 33.4772C32.0222 32.063 31.5223 30.4515 32.5667 29.1799C33.3384 28.2362 34.1525 27.5548 34.874 26.9509ZM20.0224 13.3277C20.2985 13.3277 20.5223 13.1068 20.5223 12.8344C20.5223 12.5619 20.2985 12.3411 20.0224 12.3411C19.7463 12.3411 19.5224 12.5619 19.5224 12.8344C19.5224 13.1068 19.7463 13.3277 20.0224 13.3277ZM17.378 14.3255C17.6541 14.3255 17.8779 14.1046 17.8779 13.8322C17.8779 13.5597 17.6541 13.3389 17.378 13.3389C17.1018 13.3389 16.878 13.5597 16.878 13.8322C16.878 14.1046 17.1018 14.3255 17.378 14.3255Z" fill="currentColor"/>
</svg>
