<svg viewBox="0 0 48 48" fill="none" xmlns="https://www.w3.org/2000/svg">
  <title>Acne Several Glyph</title>
  <path fill-rule="evenodd" clip-rule="evenodd" d="M24.0967 12.0556C22.9739 12.0556 22.064 11.1458 22.064 10.023C22.064 8.90017 22.9739 8 24.0967 8C25.2195 8 26.1294 8.90985 26.1294 10.023C26.1294 11.1361 25.2098 12.0556 24.0967 12.0556ZM24.0967 9.20992C23.6418 9.20992 23.274 9.57773 23.274 10.023C23.274 10.4779 23.6418 10.8457 24.0967 10.8457C24.5516 10.8457 24.9194 10.4779 24.9194 10.023C24.9098 9.56805 24.542 9.20992 24.0967 9.20992ZM24.0967 40C22.9739 40 22.064 39.0901 22.064 37.9673C22.064 36.8445 22.9739 35.9444 24.0967 35.9444C25.2195 35.9444 26.1294 36.8542 26.1294 37.9673C26.1294 39.0805 25.2098 40 24.0967 40ZM24.0967 37.1543C23.6418 37.1543 23.274 37.5221 23.274 37.9673C23.274 38.4223 23.6418 38.7901 24.0967 38.7901C24.5516 38.7901 24.9194 38.4223 24.9194 37.9673C24.9098 37.5221 24.542 37.1543 24.0967 37.1543ZM36.1378 23.8935C36.1378 25.0163 37.038 25.9262 38.1608 25.9262C39.2739 25.9262 40.1935 25.0067 40.1935 23.8935C40.1935 22.7804 39.2739 21.8706 38.1608 21.8706C37.0477 21.8706 36.1378 22.7707 36.1378 23.8935ZM37.3478 23.8935C37.3478 23.4483 37.7059 23.0805 38.1608 23.0805C38.6061 23.0805 38.9739 23.4483 38.9836 23.8935C38.9836 24.3485 38.6061 24.7163 38.1608 24.7163C37.7156 24.7163 37.3478 24.3485 37.3478 23.8935ZM10.0327 25.9262C8.90986 25.9262 8 25.0163 8 23.8935C8 22.7707 8.90986 21.8706 10.0327 21.8706C11.1555 21.8706 12.0653 22.7804 12.0653 23.8935C12.0653 25.0067 11.1458 25.9262 10.0327 25.9262ZM10.0327 23.0805C9.57774 23.0805 9.20992 23.4483 9.20992 23.8935C9.20992 24.3485 9.57774 24.7163 10.0327 24.7163C10.4876 24.7163 10.8554 24.3485 10.8554 23.8935C10.8457 23.4483 10.4779 23.0805 10.0327 23.0805ZM22.064 23.8935C22.064 25.0163 22.9739 25.9262 24.0967 25.9262C25.2098 25.9262 26.1294 25.0067 26.1294 23.8935C26.1294 22.7804 25.2195 21.8706 24.0967 21.8706C22.9739 21.8706 22.064 22.7707 22.064 23.8935ZM23.274 23.8935C23.274 23.4483 23.6418 23.0805 24.0967 23.0805C24.542 23.0805 24.9098 23.4483 24.9194 23.8935C24.9194 24.3485 24.5516 24.7163 24.0967 24.7163C23.6418 24.7163 23.274 24.3485 23.274 23.8935Z" fill="currentColor"/>
</svg>
