<svg viewBox="0 0 48 48" fill="none" xmlns="http://www.w3.org/2000/svg">
  <title>Clipboard Stack Glyph</title>
  <path d="M34.04 14.59H30.24V12.61C30.24 11.55 29.38 10.69 28.32 10.69H25.84V8H14.4V10.69H11.92C10.86 10.69 10 11.55 10 12.61V33.84C10 34.9 10.86 35.7599 11.92 35.7599H16.72V36.83C16.72 38.13 17.74 39.19 18.99 39.19H34.05C35.3 39.19 36.32 38.13 36.32 36.83V16.95C36.32 15.65 35.3 14.59 34.04 14.59ZM15.65 9.23999H24.59V13H15.65V9.23999ZM11.24 33.83V12.6C11.24 12.23 11.54 11.93 11.91 11.93H14.39V14.25H25.83V11.93H28.31C28.68 11.93 28.98 12.23 28.98 12.6V33.83C28.98 34.2 28.68 34.5 28.31 34.5H11.91C11.55 34.51 11.24 34.21 11.24 33.83ZM35.07 36.83C35.07 37.44 34.61 37.94 34.05 37.94H18.99C18.43 37.94 17.97 37.44 17.97 36.83V35.7599H28.33C29.39 35.7599 30.25 34.9 30.25 33.84V15.84H34.05C34.61 15.84 35.07 16.34 35.07 16.95V36.83Z" fill="currentColor"/>
</svg>
