<svg viewBox="0 0 32 32" fill="none" xmlns="https://www.w3.org/2000/svg">
  <title>Elated Filled Emoji</title>
  <path fill-rule="evenodd" clip-rule="evenodd" d="M0 16C0 7.16 7.16 0 16 0C24.83 0 32 7.16 32 16C32 24.84 24.84 32 16 32C7.16 32 0 24.84 0 16ZM5.87 12.79L7.02002 13.28C7.26002 12.7 7.83001 12.33 8.45001 12.33C9.13001 12.33 9.71999 12.77 9.92999 13.41L11.12 13.03C10.74 11.86 9.67001 11.08 8.45001 11.08C7.32001 11.08 6.31 11.75 5.87 12.79ZM16.45 22.99C20.73 22.99 23.21 20.52 24.08 19.46C24.85 18.52 24.97 17.31 24.37 16.37C23.78 15.45 22.67 15.07 21.49 15.37C20.47 15.58 18.58 15.82 16.6 15.82H16.57C14.45 15.82 12.28 15.55 11.4 15.37C10.16 15.14 9.06001 15.55 8.51001 16.45C7.96001 17.35 8.07 18.49 8.81 19.44C9.46 20.28 11.92 22.99 16.45 22.99ZM23.54 12.33C24.17 12.33 24.73 12.7 24.97 13.28L26.12 12.79C25.68 11.75 24.67 11.08 23.54 11.08C22.31 11.08 21.24 11.87 20.87 13.03L22.06 13.41C22.27 12.76 22.86 12.33 23.54 12.33ZM16.61 17.0799C18.69 17.0799 20.67 16.8299 21.78 16.5999C22.46 16.4299 23.04 16.5999 23.32 17.0499C23.56 17.4099 23.62 18.0299 23.11 18.6599C22.35 19.5899 20.19 21.7399 16.45 21.7399C12.48 21.7399 10.36 19.3999 9.80001 18.6799C9.40001 18.1499 9.31 17.5499 9.58 17.1099C9.8 16.7499 10.21 16.5599 10.72 16.5599C10.86 16.5599 11.01 16.5699 11.16 16.5999C12.11 16.7899 14.34 17.0799 16.57 17.0799H16.61Z" fill="currentColor"/>
</svg>
