<svg viewBox="0 0 33 33" fill="none" xmlns="https://www.w3.org/2000/svg">
  <title>Furious Filled Emoji</title>
  <path fill-rule="evenodd" clip-rule="evenodd" d="M0.599976 16.2402C0.599976 7.40023 7.75998 0.240234 16.6 0.240234C25.44 0.240234 32.6 7.40023 32.6 16.2402C32.6 25.0802 25.44 32.2402 16.6 32.2402C7.75998 32.2402 0.599976 25.0802 0.599976 16.2402ZM8.28998 19.2002C8.28998 19.8502 8.81997 20.3802 9.46997 20.3802C10.13 20.3802 10.65 19.8502 10.65 19.2002C10.65 18.5502 10.12 18.0202 9.46997 18.0202C8.81997 18.0202 8.28998 18.5502 8.28998 19.2002ZM7.49997 15.5502L11.05 17.7602L11.71 16.7002L8.15997 14.4902L7.49997 15.5502ZM19.37 26.7502C20.17 26.9002 20.89 26.6202 21.26 26.0202C21.63 25.4302 21.56 24.6702 21.09 24.0302C20.71 23.5402 19.27 21.9502 16.62 21.9502C14.12 21.9502 12.67 23.4002 12.16 24.0202C11.65 24.6402 11.58 25.4402 11.97 26.0602C12.27 26.5502 12.79 26.8102 13.36 26.8102C13.53 26.8102 13.69 26.7902 13.86 26.7502C14.41 26.6302 15.44 26.5002 16.52 26.5002H16.54C17.7 26.5002 18.89 26.6502 19.37 26.7502ZM22.78 19.2002C22.78 19.8502 23.31 20.3802 23.96 20.3802C24.61 20.3802 25.14 19.8502 25.14 19.2002C25.14 18.5502 24.61 18.0202 23.96 18.0202C23.31 18.0202 22.78 18.5502 22.78 19.2002ZM21.52 16.7002L22.18 17.7602L25.73 15.5502L25.07 14.4902L21.52 16.7002ZM13.12 24.8302C13.52 24.3502 14.65 23.2202 16.61 23.2202C18.69 23.2202 19.8 24.4402 20.1 24.8102C20.26 25.0102 20.3 25.2302 20.21 25.3702C20.12 25.5202 19.9 25.5702 19.62 25.5202C19.07 25.4102 17.81 25.2502 16.55 25.2502C15.38 25.2802 14.23 25.4002 13.58 25.5302C13.32 25.6002 13.12 25.5502 13.02 25.4002C12.94 25.2802 12.93 25.0602 13.12 24.8302Z" fill="currentColor"/>
</svg>
