<svg viewBox="0 0 71 76" xmlns="http://www.w3.org/2000/svg" xmlns:xlink="http://www.w3.org/1999/xlink">
  <title>Hand Writing</title>
  <g fill="none" fill-rule="evenodd" transform="translate(-6)">
    <g transform="rotate(35 34.757 112.118)">
      <polygon stroke="#353A39" stroke-linecap="round" stroke-width="1.458" points=".142 60.601 8.234 60.601 8.234 7.38 .142 7.38"/>
      <path stroke="#353A39" stroke-linecap="round" stroke-width="1.458" d="M0.9988222,6.78151517 L0.9988222,1.62679721 C0.9988222,0.808958911 1.6455949,0.146217804 2.44309129,0.146217804 L5.9330996,0.146217804 C6.73059599,0.146217804 7.37736869,0.808958911 7.37736869,1.62679721 L7.37736869,6.78151517"/>
      <polyline stroke="#353A39" stroke-linecap="round" stroke-width="1.458" points=".142 60.601 4.188 74.393 8.234 60.601"/>
      <polyline stroke="#353A39" stroke-linecap="round" stroke-width=".787" points="8.234 10.306 11.437 10.306 11.437 27.224"/>
      <polygon fill="#353A39" points="2.322 67.941 6.054 67.941 4.188 74.393"/>
    </g>
    <g stroke="#414141" stroke-linecap="round" stroke-width="1.166" transform="scale(-1 1) rotate(21 -155.389 -46.531)">
      <path d="M0.525605926,9.62782934 C0.525605926,9.62782934 6.69211655,10.7509786 6.69211655,8.4674513 C6.69211655,6.183924 6.19960601,7.10400709 6.19960601,8.36591822 C6.19960601,9.62782934 7.87728424,9.73995908 8.88487582,9.30336684 C9.8924674,8.8667746 10.0164871,4.40277362 9.41617068,3.47785562 C8.81585431,2.55293761 9.54746872,7.07983255 10.7168563,8.4674513 C11.8862438,9.85507004 12.4594222,7.30658976 13.854549,7.30658976 C15.2496758,7.30658976 13.1069369,8.95190913 15.1637801,8.23150776 C17.2206233,7.51110639 16.1592612,5.99681304 16.1592612,7.1141604 C16.1592612,8.23150776 18.4268267,7.90128351 19.2619651,7.50772195 C20.0971035,7.1141604 21.3086355,6.53590534 23.2153088,6.82503287" transform="rotate(-14 11.87 6.63)"/>
      <path d="M6.36625919,19.0339732 C6.36625919,19.0339732 10.0653532,19.2997409 10.0653532,17.0162136 C10.0653532,14.7326863 8.66975601,13.1975764 9.51002736,16.0564843 C10.3502987,18.9153921 12.3012242,18.4680981 13.3088158,18.0315059 C14.3164073,17.5949136 14.4288838,16.9814023 13.8285674,16.0564843 C13.228251,15.1315663 12.1394282,16.2178059 13.3088158,17.6054247 C14.4782033,18.9930434 17.2277856,17.0162136 17.2277856,15.8553521 C17.2277856,14.6944905 15.7551812,17.9237334 17.8120244,17.203332 C19.8688676,16.4829307 19.5324978,13.2943395 19.5324978,15.6629227 C19.5324978,18.0315059 21.6557834,16.3985944 23.1766418,15.8553521 C24.6975002,15.3121098 26.8054851,15.0397452 26.8054851,16.3930361" transform="rotate(-12 16.586 16.772)"/>
    </g>
  </g>
</svg>
