<svg viewBox="0 0 16 16" fill="none" xmlns="https://www.w3.org/2000/svg">
  <title>Message Icon</title>
  <path d="M8 1.75C11.45 1.75 14.25 4.55 14.25 8C14.25 9.54 13.67 11.03 12.63 12.19L12.02 12.87L12.48 13.66L12.82 14.26H7.87C4.49 14.19 1.75 11.39 1.75 8.02C1.75 4.56 4.55 1.75 8 1.75ZM8 0.5C3.86 0.5 0.5 3.86 0.5 8C0.5 12.09 3.78 15.41 7.85 15.49H14.99L13.56 13.02C14.76 11.69 15.5 9.93 15.5 8C15.5 3.86 12.14 0.5 8 0.5Z" fill="currentColor"/>
  <path d="M10.6 7.3501C10.24 7.3501 9.94995 7.6401 9.94995 8.0001C9.94995 8.3601 10.24 8.6501 10.6 8.6501C10.96 8.6501 11.25 8.3601 11.25 8.0001C11.25 7.6401 10.96 7.3501 10.6 7.3501Z" fill="currentColor"/>
  <path d="M7.99998 7.3501C7.63998 7.3501 7.34998 7.6401 7.34998 8.0001C7.34998 8.3601 7.63998 8.6501 7.99998 8.6501C8.35998 8.6501 8.64998 8.3601 8.64998 8.0001C8.64998 7.6401 8.34998 7.3501 7.99998 7.3501Z" fill="currentColor"/>
  <path d="M5.38999 7.3501C5.02999 7.3501 4.73999 7.6401 4.73999 8.0001C4.73999 8.3601 5.02999 8.6501 5.38999 8.6501C5.74999 8.6501 6.03999 8.3601 6.03999 8.0001C6.03999 7.6401 5.74999 7.3501 5.38999 7.3501Z" fill="currentColor"/>
</svg>
