<svg viewBox="0 0 32 32" fill="none" xmlns="https://www.w3.org/2000/svg">
  <title>Overwhelmed Filled Emoji</title>
  <path d="M31.23 11.11C31.66 10.55 31.93 9.84999 31.93 9.07999C31.93 7.44999 29.56 4.21999 29.09 3.57999L28.59 2.92L28.09 3.57999C27.95 3.75999 27.66 4.16 27.31 4.68C24.42 1.79 20.42 0 16 0C7.16 0 0 7.16 0 16C0 24.84 7.16 32 16 32C24.84 32 32 24.84 32 16C32 14.3 31.73 12.65 31.23 11.11ZM4.8 16.47L8.35 14.26L9.00999 15.32L5.45 17.53L4.8 16.47ZM9.56 20.42C9.35 19.78 8.75999 19.34 8.07999 19.34C7.45999 19.34 6.88999 19.71 6.64999 20.29L5.5 19.8C5.94 18.76 6.94999 18.09 8.07999 18.09C9.29999 18.09 10.37 18.87 10.75 20.03L9.56 20.42ZM24.6 20.29C24.36 19.71 23.8 19.34 23.17 19.34C22.49 19.34 21.9 19.77 21.69 20.42L20.5 20.04C20.87 18.88 21.94 18.09 23.17 18.09C24.3 18.09 25.31 18.76 25.75 19.8L24.6 20.29ZM25.81 17.53L22.26 15.32L22.92 14.26L26.47 16.47L25.81 17.53ZM28.59 11.18C27.43 11.18 26.49 10.24 26.49 9.09C26.49 8.3 27.63 6.40999 28.59 5.03999C29.58 6.45999 30.68 8.33 30.68 9.09C30.68 10.24 29.74 11.18 28.59 11.18Z" fill="currentColor"/>
</svg>
