<svg viewBox="0 0 34 32" fill="none" xmlns="http://www.w3.org/2000/svg">
  <title>Prepared Filled Emoji</title>
  <path fill-rule="evenodd" clip-rule="evenodd" d="M25.19 25.32C25.32 26.2 25.91 26.97 26.82 27.44C26.8776 27.472 26.9353 27.4917 26.9877 27.5097L26.9877 27.5097C27.0171 27.5197 27.0448 27.5292 27.07 27.54C24.19 30.3 20.3 32 16 32C7.16 32 0 24.84 0 16C0 7.16 7.16 0 16 0C24.84 0 32 7.16 32 16C32 16.86 31.91 17.71 31.78 18.54C31.1 18.36 30.3 18.24 29.31 18.21C29.33 17.92 29.39 17.59 29.45 17.3C29.4608 17.2407 29.4719 17.1818 29.4829 17.1233C29.5332 16.856 29.5818 16.5979 29.59 16.36C29.61 15.97 29.46 15.6 29.18 15.32C28.81 14.95 28.23 14.75 27.64 14.78C26.63 14.84 25.85 15.53 25.51 16.66C25.26 17.44 25.33 18.23 25.69 18.9C25.54 19.06 25.41 19.24 25.32 19.45C25.07 20.03 25.09 20.73 25.36 21.34C25.03 21.62 24.8 22.03 24.76 22.5C24.7 23.1 24.93 23.66 25.37 24.05C25.19 24.43 25.13 24.87 25.19 25.32ZM7.05 13.3C7.29 12.72 7.86001 12.35 8.48001 12.35C9.16001 12.35 9.75001 12.79 9.96001 13.42L11.15 13.04C10.77 11.88 9.70001 11.1 8.48001 11.1C7.35001 11.1 6.34001 11.77 5.90001 12.81L7.05 13.3ZM9.77 17.99C10.72 20.58 13.21 22.32 15.96 22.32C18.71 22.32 21.2 20.58 22.15 17.99L20.98 17.56C20.21 19.66 18.19 21.07 15.96 21.07C13.73 21.07 11.71 19.66 10.94 17.56L9.77 17.99ZM22.09 13.43C22.3 12.78 22.89 12.35 23.57 12.35C24.19 12.35 24.75 12.72 25 13.31L26.15 12.82C25.71 11.78 24.7 11.11 23.57 11.11C22.35 11.11 21.27 11.89 20.9 13.05L22.09 13.43ZM27.4601 19.5097C27.9401 19.4797 28.3701 19.4697 28.7701 19.4697C30.8001 19.4697 31.8001 19.7797 32.2801 20.0797C33.0301 20.5397 33.3401 21.0097 33.3401 21.7097L33.3601 24.4197C33.3601 25.2897 32.9101 25.9397 32.0401 26.3297C31.0301 26.7797 28.6401 26.9897 27.3901 26.3397C26.8501 26.0597 26.5001 25.6297 26.4301 25.1597C26.3901 24.8397 26.4901 24.5397 26.7001 24.3397C26.8501 24.1997 26.9201 23.9797 26.8801 23.7697C26.8401 23.5597 26.7001 23.3897 26.5001 23.3097C26.1101 23.1597 26.0001 22.8597 26.0201 22.6397C26.0301 22.5297 26.0901 22.2897 26.3901 22.2297C26.6101 22.1897 26.7901 22.0297 26.8601 21.8197C26.9301 21.5997 26.8901 21.3697 26.7401 21.1997C26.4301 20.8497 26.3201 20.3097 26.4801 19.9497C26.6001 19.6797 26.8601 19.5397 27.2201 19.5197H27.2201C27.2602 19.5197 27.3401 19.5197 27.4601 19.5097ZM28.08 18.23C28.1 17.83 28.17 17.43 28.24 17.07C28.2523 17.0013 28.2652 16.9337 28.2777 16.8677L28.2778 16.8674C28.3165 16.6646 28.3525 16.4759 28.36 16.31L28.31 16.22C28.21 16.13 27.98 16.03 27.72 16.04C27.25 16.07 26.91 16.4 26.71 17.05C26.51 17.65 26.66 18.09 26.79 18.33L26.816 18.324C26.9362 18.2961 27.0487 18.27 27.17 18.27L27.37 18.26C27.5391 18.247 27.6954 18.2424 27.8446 18.2381H27.8447C27.9249 18.2358 28.0031 18.2335 28.08 18.23Z" fill="currentColor"/>
</svg>
