<svg viewBox="0 0 33 33" fill="none" xmlns="https://www.w3.org/2000/svg">
  <title>Satisfied Filled Emoji</title>
  <path d="M16.99 0.240234C8.14999 0.240234 0.98999 7.40023 0.98999 16.2402C0.98999 25.0802 8.14999 32.2402 16.99 32.2402C25.83 32.2402 32.99 25.0802 32.99 16.2402C32.99 7.40023 25.83 0.240234 16.99 0.240234ZM10.92 20.6502C10.71 20.0102 10.12 19.5702 9.44 19.5702C8.82 19.5702 8.25001 19.9402 8.01001 20.5202L6.85999 20.0302C7.29999 18.9902 8.31 18.3202 9.44 18.3202C10.66 18.3202 11.73 19.1002 12.11 20.2702L10.92 20.6502ZM17 25.0502C14.35 25.0502 12.91 23.4602 12.53 22.9702L13.52 22.2002C13.81 22.5802 14.92 23.8002 17 23.8002C18.96 23.8002 20.09 22.6702 20.49 22.1902L21.46 22.9802C20.95 23.6102 19.49 25.0502 17 25.0502ZM25.97 20.5202C25.73 19.9402 25.17 19.5702 24.54 19.5702C23.86 19.5702 23.27 20.0002 23.06 20.6502L21.87 20.2702C22.24 19.1102 23.31 18.3202 24.54 18.3202C25.67 18.3202 26.68 18.9902 27.12 20.0302L25.97 20.5202Z" fill="currentColor"/>
</svg>
