<svg viewBox="0 0 48 48" fill="none" xmlns="https://www.w3.org/2000/svg">
  <title>Spaceship Glyph</title>
  <path fill-rule="evenodd" clip-rule="evenodd" d="M16.023 28.9924C15.8083 29.1107 15.553 29.217 15.2723 29.2649C14.7644 29.3515 14.1972 29.2389 13.7177 28.7516C13.2731 28.2998 12.9535 27.5752 12.7489 26.5446L12.7486 26.5433C12.3377 24.4499 12.6705 21.9328 13.2251 19.9622C13.5038 18.972 13.8477 18.0868 14.2053 17.4353C14.3828 17.1121 14.5772 16.8214 14.7863 16.6027C14.9743 16.406 15.2796 16.156 15.6796 16.156C16.9811 16.156 18.2177 17.0645 19.4471 18.4683C23.3553 12.696 30.1734 9.03085 37.7357 9.4006C38.5238 9.43582 39.2983 9.5235 40.0478 9.63601L40.543 9.71033L40.5785 10.2098C40.6321 10.9634 40.6412 11.7278 40.5965 12.4942C40.2284 20.0514 35.6896 26.4369 29.2763 29.6348C30.475 30.9388 31.1861 32.2044 31.1002 33.4594L31.0998 33.4644C31.0694 33.8616 30.8045 34.1527 30.5892 34.3351C30.3528 34.5354 30.0443 34.7156 29.7032 34.8761C29.016 35.1993 28.0932 35.4902 27.0688 35.7047C25.0303 36.1316 22.4543 36.284 20.3614 35.6902C19.3303 35.3997 18.6212 35.0126 18.1986 34.5194C17.7459 33.9913 17.676 33.4061 17.7968 32.8969C17.9094 32.4222 18.1808 32.0295 18.3904 31.7771C18.3972 31.7689 18.404 31.7608 18.4108 31.7528C17.086 31.4867 16.0779 30.3546 16.023 28.9924ZM17.5513 26.3457C17.4082 27.1353 17.3144 27.9425 17.2732 28.7641V28.7804L17.2725 28.7952C17.2292 29.7067 17.9543 30.5086 18.9121 30.5595H18.9375L18.9523 30.5602C19.9719 30.6086 20.9769 30.5793 21.9614 30.4776L23.8003 30.0097C22.4432 29.3 21.146 28.3264 20.13 27.1709C19.3149 26.2439 18.664 25.1782 18.3228 24.0232L17.5513 26.3457ZM27.5315 29.0602C32.2914 27.0701 36.1025 23.2711 38.0194 18.5103C37.4016 18.4893 36.765 18.2762 36.1733 17.9799C35.2748 17.5301 34.3627 16.8311 33.5562 16.0385C32.7483 15.2445 32.0229 14.3334 31.5092 13.4393C31.1521 12.8175 30.8716 12.1597 30.765 11.5313C25.6429 13.1429 21.4173 16.7882 19.1211 21.5311C18.8143 23.0742 19.9167 25.0353 21.0687 26.3455C22.3137 27.7614 24.0558 28.89 25.7536 29.5126L27.5315 29.0602ZM22.183 31.7111L19.5243 32.3877C19.4763 32.4352 19.4156 32.4992 19.352 32.5757C19.196 32.7637 19.0615 32.9811 19.013 33.1854C18.9727 33.3551 18.9865 33.5179 19.1477 33.706C19.3387 33.9288 19.7732 34.2259 20.7007 34.4871L20.7019 34.4875C22.5265 35.0053 24.8795 34.8861 26.8125 34.4813C27.7739 34.2799 28.5975 34.0148 29.1711 33.745C29.4603 33.6089 29.6608 33.4833 29.7812 33.3814C29.8191 33.3492 29.8425 33.3252 29.8563 33.3094C29.8799 32.5277 29.3771 31.5263 28.0966 30.2062L27.9235 30.2502C26.1206 30.9942 24.1919 31.4945 22.183 31.7111ZM18.0085 20.9582L18.54 19.33C17.3794 17.9963 16.4755 17.4423 15.7517 17.4077C15.7369 17.42 15.7163 17.4387 15.6899 17.4663C15.5854 17.5757 15.4517 17.7626 15.3011 18.0369C15.0025 18.5806 14.6902 19.3706 14.4284 20.3008C13.9021 22.1706 13.6165 24.4741 13.9751 26.3019C14.1597 27.2315 14.4129 27.6759 14.6087 27.8749C14.7697 28.0385 14.9107 28.0585 15.0622 28.0327C15.2519 28.0003 15.4641 27.8866 15.6539 27.7464C15.7301 27.6901 15.7945 27.6356 15.8428 27.5922L16.3192 26.133C16.6483 24.309 17.2235 22.5733 18.0085 20.9582ZM32.5931 12.8166C32.2257 12.177 32.0255 11.6202 31.979 11.1918C33.7948 10.7466 35.708 10.5528 37.676 10.6492L37.6787 10.6493C38.2422 10.6744 38.8036 10.7287 39.3601 10.8015C39.3829 11.3412 39.3801 11.8833 39.3484 12.4243L39.3481 12.4305C39.2674 14.0918 38.9713 15.6938 38.4872 17.2116C38.0876 17.3319 37.4919 17.2422 36.7329 16.8622C35.9818 16.4861 35.1739 15.8758 34.4324 15.147C33.6923 14.4196 33.0415 13.5971 32.5931 12.8166ZM27.1754 18.7029C26.3256 18.6645 25.4931 18.9584 24.861 19.5235C24.2284 20.089 23.8479 20.881 23.8073 21.7254C23.7676 22.5699 24.0714 23.3932 24.6482 24.0148C25.2245 24.6357 26.0259 25.0046 26.8753 25.0441C28.637 25.1279 30.1582 23.7859 30.2447 22.0231C30.3315 20.2651 28.945 18.7866 27.1766 18.703L27.1754 18.7029ZM25.694 20.4555C26.0801 20.1104 26.5922 19.928 27.1183 19.9516C28.2207 20.0041 29.0478 20.9191 28.9962 21.9617C28.9444 23.0167 28.0261 23.8475 26.9339 23.7955C26.7438 23.7867 26.5581 23.7513 26.3819 23.6917C26.0704 23.5865 25.7887 23.4061 25.5644 23.1645C25.2139 22.7868 25.0323 22.2905 25.0559 21.7848C25.0717 21.4557 25.1737 21.1383 25.3492 20.8616C25.4436 20.7129 25.5592 20.576 25.694 20.4555ZM11.098 29.0024L7.86358 31.2941L8.58623 32.314L11.8206 30.0224L11.098 29.0024ZM12.7933 32.4236L7.60437 36.6674L8.39573 37.635L13.5846 33.3912L12.7933 32.4236ZM15.3456 35.0076L12.7512 37.5539L13.6267 38.446L16.2212 35.8998L15.3456 35.0076Z" fill="currentColor"/>
</svg>
