<svg viewBox="0 0 45 45" xmlns="https://www.w3.org/2000/svg" xmlns:xlink="https://www.w3.org/1999/xlink">
  <title>Sunscreen Bottle</title>
  <g fill="none" fill-rule="evenodd" stroke="currentColor" stroke-width="2" transform="translate(12 11)">
    <path stroke-linecap="round" stroke-linejoin="round" d="M10.242744 7.49140854L19.896584 7.49140854C20.955264 7.49140854 21.821584 8.3592378 21.821584 9.4197622 21.821584 10.4805671 20.955264 11.3483963 19.896584 11.3483963L15.282744 11.3483963 15.918624 11.3483963C16.977584 11.3483963 17.843904 12.2162256 17.843904 13.2770305 17.843904 14.3378354 16.977584 15.2053841 15.918624 15.2053841L15.282744 15.2053841M15.282744 15.2055244L15.918624 15.2055244C16.977584 15.2055244 17.843904 16.0733537 17.843904 17.1341585 17.843904 18.1946829 16.977584 19.0625122 15.918624 19.0625122L14.238624 19.0625122M1.51333953 19.820756C1.51333953 19.820756 4.01413164 22.9197244 7.93921015 22.9197244L14.238624 22.9197244C15.297584 22.9197244 16.163904 22.0518951 16.163904 20.9910902 16.163904 19.9305659 15.297584 19.0627366 14.238624 19.0627366"/>
    <path stroke-linecap="round" stroke-linejoin="round" d="M1.35602,19.4909676 C-0.108020336,17.6381674 -0.487617049,13.0631153 0.876278911,10.4274875 C2.24017487,7.79185963 3.63242,7.10750488 5.61398,6.4124561 C6.53294,6.08989512 7.34746,5.77378537 7.58826,5.68935854 C9.99906,4.84593171 9.76106,5.43102927 12.33146,7.25111463"/>
    <path d="M20.876444,2.1436561 L19.353244,0.0599121951 L17.835924,2.10887561 C17.621724,2.41124146 17.494604,2.77980244 17.494604,3.17837561 C17.494604,4.20103415 18.322284,5.03043659 19.343164,5.03043659 C20.364044,5.03043659 21.191724,4.20103415 21.191724,3.17837561 C21.191724,2.79522927 21.075524,2.43929024 20.876444,2.1436561 Z"/>
  </g>
</svg>
