<svg viewBox="0 0 48 48" fill="none" xmlns="https://www.w3.org/2000/svg">
  <title>Sunscreen Bottle Glyph</title>
  <path fill-rule="evenodd" clip-rule="evenodd" d="M31.5999 16.3C32.3999 16.7 32.8999 17.4 32.9999 18.2C33.4999 21.6 33.5999 33.2 30.7999 38.8C30.4999 39.2 29.9999 39.7 27.5999 39.9C27.3037 39.9 26.9179 39.9179 26.4728 39.9386C25.8663 39.9667 25.1497 40 24.3999 40C21.5999 40 18.2999 39.7 17.5999 38.9L17.4999 38.8C14.6999 33.2 14.7999 21.7 15.2999 18.2C15.3999 17.4 15.9999 16.7 16.6999 16.3L20.7999 14.1V10.8C20.8999 9.7 22.7999 8.8 24.4999 8.3C25.4999 8.1 26.3999 8 27.1999 8C28.4999 8.1 28.8999 8.6 28.9999 9C29.0999 9.4 28.9999 10 27.8999 10.7C27.8999 10.8 27.7999 10.8 27.7999 10.8V14.3L31.5999 16.3ZM24.7999 9.5C23.6999 9.8 22.8999 10.2 22.4999 10.5C22.2999 10.6 22.1999 10.7 22.1999 10.8C22.5999 10.9 23.5999 10.9 25.0999 10.5C25.7111 10.3472 26.2055 10.1361 26.6278 9.95573C26.7583 9.9 26.8819 9.84721 26.9999 9.8C27.2999 9.6 27.5999 9.4 27.6999 9.3C27.2999 9.2 26.2999 9.1 24.7999 9.5ZM22.9093 12.0999C22.6395 12.099 22.3697 12.0899 22.0999 12V12.0297C22.0666 12.0209 22.0333 12.011 22 11.9999V13.9999L26.5999 14L26.6 11.3999C26.4 11.4499 26.2 11.5249 26 11.5999C25.8 11.6749 25.6 11.7499 25.4 11.7999C24.6031 11.9991 23.707 12.0991 22.9093 12.0999ZM18.5999 38.2C19.6999 39 28.7999 39 29.6999 38.2C32.2999 33.2 32.2999 22 31.6999 18.4C31.5999 18 31.3999 17.6 30.9999 17.4L26.7999 15.2H21.3999L17.1999 17.4C16.7999 17.6 16.5999 18 16.4999 18.4C15.9999 22 15.9999 33 18.5999 38.2Z" fill="currentColor"/>
  <path d="M24.1999 30.2C22.2999 30.2 20.6999 28.6 20.6999 26.7C20.6999 24.8 22.2999 23.2 24.1999 23.2C26.0999 23.2 27.6999 24.8 27.6999 26.7C27.6999 28.7 26.0999 30.2 24.1999 30.2ZM24.1999 24.6C22.9999 24.6 21.9999 25.6 21.9999 26.8C21.9999 28 22.9999 29 24.1999 29C25.3999 29 26.3999 28 26.3999 26.8C26.3999 25.6 25.4999 24.6 24.1999 24.6Z" fill="currentColor"/>
  <path d="M24.2999 21.8C24.6313 21.8 24.8999 21.5314 24.8999 21.2C24.8999 20.8686 24.6313 20.6 24.2999 20.6C23.9686 20.6 23.6999 20.8686 23.6999 21.2C23.6999 21.5314 23.9686 21.8 24.2999 21.8Z" fill="currentColor"/>
  <path d="M24.2999 33C24.6313 33 24.8999 32.7314 24.8999 32.4C24.8999 32.0686 24.6313 31.8 24.2999 31.8C23.9686 31.8 23.6999 32.0686 23.6999 32.4C23.6999 32.7314 23.9686 33 24.2999 33Z" fill="currentColor"/>
  <path d="M28.1999 23.4C28.5313 23.4 28.7999 23.1314 28.7999 22.8C28.7999 22.4686 28.5313 22.2 28.1999 22.2C27.8686 22.2 27.5999 22.4686 27.5999 22.8C27.5999 23.1314 27.8686 23.4 28.1999 23.4Z" fill="currentColor"/>
  <path d="M20.2999 31.3C20.6313 31.3 20.8999 31.0314 20.8999 30.7C20.8999 30.3686 20.6313 30.1 20.2999 30.1C19.9686 30.1 19.6999 30.3686 19.6999 30.7C19.6999 31.0314 19.9686 31.3 20.2999 31.3Z" fill="currentColor"/>
  <path d="M29.8999 27.4C30.2313 27.4 30.4999 27.1314 30.4999 26.8C30.4999 26.4686 30.2313 26.2 29.8999 26.2C29.5686 26.2 29.2999 26.4686 29.2999 26.8C29.2999 27.1314 29.5686 27.4 29.8999 27.4Z" fill="currentColor"/>
  <path d="M18.6999 27.4C19.0313 27.4 19.2999 27.1314 19.2999 26.8C19.2999 26.4686 19.0313 26.2 18.6999 26.2C18.3686 26.2 18.0999 26.4686 18.0999 26.8C18.0999 27.1314 18.3686 27.4 18.6999 27.4Z" fill="currentColor"/>
  <path d="M28.1999 31.3C28.5313 31.3 28.7999 31.0314 28.7999 30.7C28.7999 30.3686 28.5313 30.1 28.1999 30.1C27.8686 30.1 27.5999 30.3686 27.5999 30.7C27.5999 31.0314 27.8686 31.3 28.1999 31.3Z" fill="currentColor"/>
  <path d="M20.2999 23.4C20.6313 23.4 20.8999 23.1314 20.8999 22.8C20.8999 22.4686 20.6313 22.2 20.2999 22.2C19.9686 22.2 19.6999 22.4686 19.6999 22.8C19.6999 23.1314 19.9686 23.4 20.2999 23.4Z" fill="currentColor"/>
</svg>
