<svg viewBox="0 0 32 32" fill="none" xmlns="https://www.w3.org/2000/svg">
  <title>Supported Emoji</title>
  <path fill-rule="evenodd" clip-rule="evenodd" d="M16 1.25C24.13 1.25 30.75 7.87 30.75 16C30.75 24.13 24.13 30.75 16 30.75C7.87 30.75 1.25 24.13 1.25 16C1.25 7.87 7.87 1.25 16 1.25ZM16 0C7.16 0 0 7.16 0 16C0 24.84 7.16 32 16 32C24.84 32 32 24.84 32 16C32 7.17 24.84 0 16 0ZM10.0501 13.9598C10.0501 14.6115 9.52175 15.1398 8.87006 15.1398C8.21836 15.1398 7.69006 14.6115 7.69006 13.9598C7.69006 13.3081 8.21836 12.7798 8.87006 12.7798C9.52175 12.7798 10.0501 13.3081 10.0501 13.9598ZM24.5401 13.9598C24.5401 14.6115 24.0118 15.1398 23.3601 15.1398C22.7084 15.1398 22.1801 14.6115 22.1801 13.9598C22.1801 13.3081 22.7084 12.7798 23.3601 12.7798C24.0118 12.7798 24.5401 13.3081 24.5401 13.9598ZM9.75 16.9798C10.7 19.5698 13.19 21.3098 15.94 21.3098C18.69 21.3098 21.17 19.5698 22.13 16.9798L20.96 16.5498C20.19 18.6498 18.17 20.0598 15.94 20.0598C13.71 20.0598 11.69 18.6498 10.92 16.5498L9.75 16.9798Z" fill="currentColor"/>
</svg>
