<svg viewBox="0 0 48 48" fill="none" xmlns="http://www.w3.org/2000/svg">
  <title>Acne Seven Glyph</title>
  <path fill-rule="evenodd" clip-rule="evenodd" d="M24.0968 12.2356C22.974 12.2356 22.0738 11.3257 22.0738 10.2029C22.0738 9.08011 22.9836 8.17993 24.0968 8.17993C25.2099 8.17993 26.1294 9.08979 26.1294 10.2029C26.1294 11.316 25.2099 12.2356 24.0968 12.2356ZM24.0968 9.38985C23.6418 9.38985 23.2837 9.75766 23.2837 10.2029C23.2837 10.6578 23.6515 11.0257 24.0968 11.0257C24.542 11.0257 24.9195 10.6578 24.9195 10.2029C24.9098 9.74798 24.542 9.38985 24.0968 9.38985ZM24.0968 40.1799C22.974 40.1799 22.0738 39.2701 22.0738 38.1473C22.0738 37.0245 22.9836 36.1243 24.0968 36.1243C25.2099 36.1243 26.1294 37.0341 26.1294 38.1473C26.1294 39.2604 25.2099 40.1799 24.0968 40.1799ZM24.0968 37.3342C23.6418 37.3342 23.2837 37.702 23.2837 38.1473C23.2837 38.6022 23.6515 38.97 24.0968 38.97C24.542 38.97 24.9195 38.6022 24.9195 38.1473C24.9098 37.702 24.542 37.3342 24.0968 37.3342ZM36.1282 17.8691C36.1282 18.9919 37.0381 19.9018 38.1609 19.9018C39.274 19.9018 40.1838 18.9822 40.1838 17.8691C40.1838 16.756 39.2837 15.8461 38.1609 15.8461C37.0381 15.8461 36.1282 16.7463 36.1282 17.8691ZM37.3381 17.8691C37.3381 17.4239 37.7059 17.056 38.1609 17.056C38.6061 17.056 38.9739 17.4239 38.9739 17.8691C38.9739 18.324 38.6158 18.6919 38.1609 18.6919C37.7059 18.6919 37.3381 18.324 37.3381 17.8691ZM10.0327 19.9018C8.90986 19.9018 8 18.9919 8 17.8691C8 16.7463 8.90986 15.8461 10.0327 15.8461C11.1555 15.8461 12.0653 16.756 12.0653 17.8691C12.0653 18.9822 11.1458 19.9018 10.0327 19.9018ZM10.0327 17.056C9.57774 17.056 9.20992 17.4239 9.20992 17.8691C9.20992 18.324 9.57774 18.6919 10.0327 18.6919C10.4876 18.6919 10.8554 18.324 10.8554 17.8691C10.8457 17.4239 10.4779 17.056 10.0327 17.056ZM36.1282 29.8133C36.1282 30.9361 37.0381 31.8459 38.1609 31.8459C39.274 31.8459 40.1838 30.9264 40.1838 29.8133C40.1838 28.7001 39.2837 27.7903 38.1609 27.7903C37.0381 27.7903 36.1282 28.6905 36.1282 29.8133ZM37.3381 29.8133C37.3381 29.368 37.7059 29.0002 38.1609 29.0002C38.6061 29.0002 38.9739 29.368 38.9739 29.8133C38.9739 30.2682 38.6158 30.636 38.1609 30.636C37.7059 30.636 37.3381 30.2682 37.3381 29.8133ZM10.0327 31.8459C8.90986 31.8459 8 30.9361 8 29.8133C8 28.6905 8.90986 27.7903 10.0327 27.7903C11.1555 27.7903 12.0653 28.7001 12.0653 29.8133C12.0653 30.9264 11.1458 31.8459 10.0327 31.8459ZM10.0327 29.0002C9.57774 29.0002 9.20992 29.368 9.20992 29.8133C9.20992 30.2682 9.57774 30.636 10.0327 30.636C10.4876 30.636 10.8554 30.2682 10.8554 29.8133C10.8457 29.368 10.4779 29.0002 10.0327 29.0002ZM22.0738 24.0735C22.0738 25.1963 22.974 26.1061 24.0968 26.1061C25.2099 26.1061 26.1294 25.1866 26.1294 24.0735C26.1294 22.9603 25.2099 22.0505 24.0968 22.0505C22.9836 22.0505 22.0738 22.9507 22.0738 24.0735ZM23.2837 24.0735C23.2837 23.6282 23.6418 23.2604 24.0968 23.2604C24.542 23.2604 24.9098 23.6282 24.9195 24.0735C24.9195 24.5284 24.542 24.8962 24.0968 24.8962C23.6515 24.8962 23.2837 24.5284 23.2837 24.0735Z" fill="currentColor"/>
</svg>
