<svg viewBox="0 0 45 45" xmlns="http://www.w3.org/2000/svg" xmlns:xlink="http://www.w3.org/1999/xlink">
  <title>Many</title>
  <g fill="currentColor" fill-rule="evenodd" transform="translate(11 10)">
    <path d="M4.21306069,3.4995052 C4.21306069,4.16947056 3.66985488,4.71276596 2.99901055,4.71276596 C2.33014512,4.71276596 1.78693931,4.16947056 1.78693931,3.4995052 C1.78693931,2.82953983 2.33014512,2.28624443 2.99901055,2.28624443 C3.66985488,2.28624443 4.21306069,2.82953983 4.21306069,3.4995052 M0,3.4995052 C0,5.15710045 1.34366755,6.5 2.99901055,6.5 C4.65633245,6.5 6,5.15710045 6,3.4995052 C6,1.84289955 4.65633245,0.5 2.99901055,0.5 C1.34366755,0.5 0,1.84289955 0,3.4995052" transform="rotate(90 7.5 8)"/>
    <path d="M4.21306069,3.4995052 C4.21306069,4.16947056 3.66985488,4.71276596 2.99901055,4.71276596 C2.33014512,4.71276596 1.78693931,4.16947056 1.78693931,3.4995052 C1.78693931,2.82953983 2.33014512,2.28624443 2.99901055,2.28624443 C3.66985488,2.28624443 4.21306069,2.82953983 4.21306069,3.4995052 M0,3.4995052 C0,5.15710045 1.34366755,6.5 2.99901055,6.5 C4.65633245,6.5 6,5.15710045 6,3.4995052 C6,1.84289955 4.65633245,0.5 2.99901055,0.5 C1.34366755,0.5 0,1.84289955 0,3.4995052" transform="rotate(90 1 6.5)"/>
    <path d="M4.21306069,3.4995052 C4.21306069,4.16947056 3.66985488,4.71276596 2.99901055,4.71276596 C2.33014512,4.71276596 1.78693931,4.16947056 1.78693931,3.4995052 C1.78693931,2.82953983 2.33014512,2.28624443 2.99901055,2.28624443 C3.66985488,2.28624443 4.21306069,2.82953983 4.21306069,3.4995052 M0,3.4995052 C0,5.15710045 1.34366755,6.5 2.99901055,6.5 C4.65633245,6.5 6,5.15710045 6,3.4995052 C6,1.84289955 4.65633245,0.5 2.99901055,0.5 C1.34366755,0.5 0,1.84289955 0,3.4995052" transform="rotate(90 9 14.5)"/>
    <path d="M4.21306069,3.4995052 C4.21306069,4.16947056 3.66985488,4.71276596 2.99901055,4.71276596 C2.33014512,4.71276596 1.78693931,4.16947056 1.78693931,3.4995052 C1.78693931,2.82953983 2.33014512,2.28624443 2.99901055,2.28624443 C3.66985488,2.28624443 4.21306069,2.82953983 4.21306069,3.4995052 M0,3.4995052 C0,5.15710045 1.34366755,6.5 2.99901055,6.5 C4.65633245,6.5 6,5.15710045 6,3.4995052 C6,1.84289955 4.65633245,0.5 2.99901055,0.5 C1.34366755,0.5 0,1.84289955 0,3.4995052" transform="rotate(90 4.5 19)"/>
    <path d="M4.21306069,2.9995052 C4.21306069,3.66947056 3.66985488,4.21276596 2.99901055,4.21276596 C2.33014512,4.21276596 1.78693931,3.66947056 1.78693931,2.9995052 C1.78693931,2.32953983 2.33014512,1.78624443 2.99901055,1.78624443 C3.66985488,1.78624443 4.21306069,2.32953983 4.21306069,2.9995052 M0,2.9995052 C0,4.65710045 1.34366755,6 2.99901055,6 C4.65633245,6 6,4.65710045 6,2.9995052 C6,1.34289955 4.65633245,0 2.99901055,0 C1.34366755,0 0,1.34289955 0,2.9995052" transform="rotate(90 -2 17)"/>
    <path d="M4.21306069,2.9995052 C4.21306069,3.66947056 3.66985488,4.21276596 2.99901055,4.21276596 C2.33014512,4.21276596 1.78693931,3.66947056 1.78693931,2.9995052 C1.78693931,2.32953983 2.33014512,1.78624443 2.99901055,1.78624443 C3.66985488,1.78624443 4.21306069,2.32953983 4.21306069,2.9995052 M0,2.9995052 C0,4.65710045 1.34366755,6 2.99901055,6 C4.65633245,6 6,4.65710045 6,2.9995052 C6,1.34289955 4.65633245,0 2.99901055,0 C1.34366755,0 0,1.34289955 0,2.9995052" transform="rotate(90 2.5 12.5)"/>
    <path d="M4.21306069,3.4995052 C4.21306069,4.16947056 3.66985488,4.71276596 2.99901055,4.71276596 C2.33014512,4.71276596 1.78693931,4.16947056 1.78693931,3.4995052 C1.78693931,2.82953983 2.33014512,2.28624443 2.99901055,2.28624443 C3.66985488,2.28624443 4.21306069,2.82953983 4.21306069,3.4995052 M0,3.4995052 C0,5.15710045 1.34366755,6.5 2.99901055,6.5 C4.65633245,6.5 6,5.15710045 6,3.4995052 C6,1.84289955 4.65633245,0.5 2.99901055,0.5 C1.34366755,0.5 0,1.84289955 0,3.4995052" transform="rotate(90 -3.5 11)"/>
  </g>
</svg>
