<svg viewBox="0 0 45 45" xmlns="http://www.w3.org/2000/svg" xmlns:xlink="http://www.w3.org/1999/xlink">
  <title>Some</title>
  <path fill-rule="evenodd" fill="currentColor" transform="rotate(90 10 23.5)" d="M13.9995052 18.2130607C13.3295398 18.2130607 12.7862444 17.6698549 12.7862444 17 12.7862444 16.3311346 13.3295398 15.7879288 13.9995052 15.7879288 14.6694706 15.7879288 15.212766 16.3311346 15.212766 17 15.212766 17.6698549 14.6694706 18.2130607 13.9995052 18.2130607M13.9995052 14C12.3428996 14 11 15.3436675 11 17 11 18.6563325 12.3428996 20 13.9995052 20 15.6571004 20 17 18.6563325 17 17 17 15.3436675 15.6571004 14 13.9995052 14M13.9995052 4.71207124C13.3295398 4.71207124 12.7862444 4.16886544 12.7862444 3.49901055 12.7862444 2.83014512 13.3295398 2.28693931 13.9995052 2.28693931 14.6694706 2.28693931 15.212766 2.83014512 15.212766 3.49901055 15.212766 4.16886544 14.6694706 4.71207124 13.9995052 4.71207124M13.9995052.5C12.3428996.5 11 1.84366755 11 3.49901055 11 5.15633245 12.3428996 6.5 13.9995052 6.5 15.6571004 6.5 17 5.15633245 17 3.49901055 17 1.84366755 15.6571004.5 13.9995052.5M4.21306069 10.4995052C4.21306069 11.1694706 3.66985488 11.712766 2.99901055 11.712766 2.33014512 11.712766 1.78693931 11.1694706 1.78693931 10.4995052 1.78693931 9.82953983 2.33014512 9.28624443 2.99901055 9.28624443 3.66985488 9.28624443 4.21306069 9.82953983 4.21306069 10.4995052M0 10.4995052C0 12.1571004 1.34366755 13.5 2.99901055 13.5 4.65633245 13.5 6 12.1571004 6 10.4995052 6 8.84289955 4.65633245 7.5 2.99901055 7.5 1.34366755 7.5 0 8.84289955 0 10.4995052"/>
</svg>
