<svg viewBox="0 0 48 48" fill="none" xmlns="http://www.w3.org/2000/svg">
  <title>Acne Body Wash Glyph</title>
<path d="M30 10.2236C29.9024 8.67674 26.878 8 24.0488 8C21.2195 8 18.0976 8.67674 18 10.2236V10.3202V17.1843V37.5831C18 39.1299 21.122 39.9033 24.0488 39.9033C26.9756 39.9033 30.0976 39.2266 30.0976 37.5831V17.1843L30 10.2236C30 10.3202 30 10.2236 30 10.2236ZM19.2683 10.2236C19.561 9.93353 21.122 9.16012 24.0488 9.16012C26.878 9.16012 28.439 9.83686 28.8293 10.2236L28.9268 10.3202C28.9268 10.4169 28.5366 10.6103 28.0488 10.8036C27.1707 11.0937 25.8049 11.3837 24.0488 11.3837C22.1951 11.3837 20.9268 11.0937 20.1463 10.8036C19.561 10.6103 19.2683 10.4169 19.2683 10.2236C19.2683 10.3202 19.2683 10.2236 19.2683 10.2236ZM28.8293 17.1843C28.7317 17.4743 27.1707 18.2477 24.0488 18.2477C20.9268 18.2477 19.3659 17.4743 19.2683 17.1843V11.7704C20.439 12.3505 22.2927 12.6405 24.0488 12.6405C25.8049 12.6405 27.6585 12.3505 28.8293 11.7704V17.1843ZM24.0488 38.7432C20.9268 38.7432 19.3659 37.9698 19.2683 37.6798V18.7311C20.439 19.3112 22.2927 19.6012 24.0488 19.6012C25.8049 19.6012 27.6585 19.3112 28.8293 18.7311V37.6798C28.7317 37.9698 27.1707 38.7432 24.0488 38.7432Z" fill="currentColor"/>
</svg>
