<svg viewBox="0 0 48 48" fill="none" xmlns="http://www.w3.org/2000/svg">
  <title>Acne Three Glyph</title>
  <mask id="mask0" mask-type="alpha" maskUnits="userSpaceOnUse" x="8" y="15" width="32" height="18">
    <path fill-rule="evenodd" clip-rule="evenodd" d="M24 19.0313C22.884 19.0313 21.9796 18.1269 21.9796 17.0108C21.9796 15.8948 22.884 15 24 15C25.1161 15 26.0205 15.9044 26.0205 17.0108C26.0205 18.1173 25.1065 19.0313 24 19.0313ZM24 16.2026C23.5478 16.2026 23.1822 16.5682 23.1822 17.0108C23.1822 17.463 23.5478 17.8286 24 17.8286C24.4522 17.8286 24.8178 17.463 24.8178 17.0108C24.8082 16.5586 24.4522 16.2026 24 16.2026ZM37.9796 32.8185C36.8635 32.8185 35.9687 31.9141 35.9687 30.798C35.9687 29.682 36.8731 28.7872 37.9796 28.7872C39.086 28.7872 40 29.6916 40 30.798C40 31.9045 39.086 32.8185 37.9796 32.8185ZM37.9796 29.9898C37.5274 29.9898 37.1714 30.3554 37.1714 30.798C37.1714 31.2502 37.537 31.6158 37.9796 31.6158C38.4221 31.6158 38.7974 31.2502 38.7974 30.798C38.7877 30.3554 38.4221 29.9898 37.9796 29.9898ZM8 30.798C8 31.9141 8.90439 32.8185 10.0204 32.8185C11.1269 32.8185 12.0313 31.9045 12.0313 30.798C12.0313 29.6916 11.1365 28.7872 10.0204 28.7872C8.90439 28.7872 8 29.682 8 30.798ZM9.20265 30.798C9.20265 30.3554 9.56825 29.9898 10.0204 29.9898C10.4726 29.9898 10.8286 30.3554 10.8286 30.798C10.8286 31.2502 10.4726 31.6158 10.0204 31.6158C9.56825 31.6158 9.20265 31.2502 9.20265 30.798Z" fill="white"/>
  </mask>
  <g mask="url(#mask0)">
    <rect x="1.2652" y="0.568359" width="46.1816" height="46.1816" fill="#332E54"/>
  </g>
</svg>
