<svg viewBox="0 0 45 45" xmlns="http://www.w3.org/2000/svg" xmlns:xlink="http://www.w3.org/1999/xlink">
  <title>Several</title>
  <g fill="currentColor" fill-rule="evenodd" transform="translate(10 11)">
    <path d="M4.21306069,3.4995052 C4.21306069,4.16947056 3.66985488,4.71276596 2.99901055,4.71276596 C2.33014512,4.71276596 1.78693931,4.16947056 1.78693931,3.4995052 C1.78693931,2.82953983 2.33014512,2.28624443 2.99901055,2.28624443 C3.66985488,2.28624443 4.21306069,2.82953983 4.21306069,3.4995052 M0,3.4995052 C0,5.15710045 1.34366755,6.5 2.99901055,6.5 C4.65633245,6.5 6,5.15710045 6,3.4995052 C6,1.84289955 4.65633245,0.5 2.99901055,0.5 C1.34366755,0.5 0,1.84289955 0,3.4995052" transform="rotate(90 8 8.5)"/>
    <path d="M4.21306069,3.4995052 C4.21306069,4.16947056 3.66985488,4.71276596 2.99901055,4.71276596 C2.33014512,4.71276596 1.78693931,4.16947056 1.78693931,3.4995052 C1.78693931,2.82953983 2.33014512,2.28624443 2.99901055,2.28624443 C3.66985488,2.28624443 4.21306069,2.82953983 4.21306069,3.4995052 M0,3.4995052 C0,5.15710045 1.34366755,6.5 2.99901055,6.5 C4.65633245,6.5 6,5.15710045 6,3.4995052 C6,1.84289955 4.65633245,0.5 2.99901055,0.5 C1.34366755,0.5 0,1.84289955 0,3.4995052" transform="rotate(90 3.5 13)"/>
    <path d="M4.21306069,3.4995052 C4.21306069,4.16947056 3.66985488,4.71276596 2.99901055,4.71276596 C2.33014512,4.71276596 1.78693931,4.16947056 1.78693931,3.4995052 C1.78693931,2.82953983 2.33014512,2.28624443 2.99901055,2.28624443 C3.66985488,2.28624443 4.21306069,2.82953983 4.21306069,3.4995052 M0,3.4995052 C0,5.15710045 1.34366755,6.5 2.99901055,6.5 C4.65633245,6.5 6,5.15710045 6,3.4995052 C6,1.84289955 4.65633245,0.5 2.99901055,0.5 C1.34366755,0.5 0,1.84289955 0,3.4995052" transform="rotate(90 -1 8.5)"/>
    <path d="M4.21306069,3.4995052 C4.21306069,4.16947056 3.66985488,4.71276596 2.99901055,4.71276596 C2.33014512,4.71276596 1.78693931,4.16947056 1.78693931,3.4995052 C1.78693931,2.82953983 2.33014512,2.28624443 2.99901055,2.28624443 C3.66985488,2.28624443 4.21306069,2.82953983 4.21306069,3.4995052 M0,3.4995052 C0,5.15710045 1.34366755,6.5 2.99901055,6.5 C4.65633245,6.5 6,5.15710045 6,3.4995052 C6,1.84289955 4.65633245,0.5 2.99901055,0.5 C1.34366755,0.5 0,1.84289955 0,3.4995052" transform="rotate(90 8 17.5)"/>
    <path d="M4.21306069,3.4995052 C4.21306069,4.16947056 3.66985488,4.71276596 2.99901055,4.71276596 C2.33014512,4.71276596 1.78693931,4.16947056 1.78693931,3.4995052 C1.78693931,2.82953983 2.33014512,2.28624443 2.99901055,2.28624443 C3.66985488,2.28624443 4.21306069,2.82953983 4.21306069,3.4995052 M0,3.4995052 C0,5.15710045 1.34366755,6.5 2.99901055,6.5 C4.65633245,6.5 6,5.15710045 6,3.4995052 C6,1.84289955 4.65633245,0.5 2.99901055,0.5 C1.34366755,0.5 0,1.84289955 0,3.4995052" transform="rotate(90 -1 17.5)"/>
  </g>
</svg>
