<svg viewBox="0 0 45 45" xmlns="http://www.w3.org/2000/svg" xmlns:xlink="http://www.w3.org/1999/xlink">
  <title>Acne</title>
  <path fill-rule="evenodd" fill="currentColor" transform="translate(10 10)" d="M12.9995052 23.2130607C12.3295398 23.2130607 11.7862444 22.6698549 11.7862444 22 11.7862444 21.3311346 12.3295398 20.7879288 12.9995052 20.7879288 13.6694706 20.7879288 14.212766 21.3311346 14.212766 22 14.212766 22.6698549 13.6694706 23.2130607 12.9995052 23.2130607M12.9995052 19C11.3428996 19 10 20.3436675 10 22 10 23.6563325 11.3428996 25 12.9995052 25 14.6571004 25 16 23.6563325 16 22 16 20.3436675 14.6571004 19 12.9995052 19M12.9995052 4.21207124C12.3295398 4.21207124 11.7862444 3.66886544 11.7862444 2.99901055 11.7862444 2.33014512 12.3295398 1.78693931 12.9995052 1.78693931 13.6694706 1.78693931 14.212766 2.33014512 14.212766 2.99901055 14.212766 3.66886544 13.6694706 4.21207124 12.9995052 4.21207124M12.9995052 0C11.3428996 0 10 1.34366755 10 2.99901055 10 4.65633245 11.3428996 6 12.9995052 6 14.6571004 6 16 4.65633245 16 2.99901055 16 1.34366755 14.6571004 0 12.9995052 0M23.212766 12.9995052C23.212766 13.6694706 22.6694706 14.212766 21.9995052 14.212766 21.3305294 14.212766 20.787234 13.6694706 20.787234 12.9995052 20.787234 12.3295398 21.3305294 11.7862444 21.9995052 11.7862444 22.6694706 11.7862444 23.212766 12.3295398 23.212766 12.9995052M19 12.9995052C19 14.6571004 20.3428996 16 21.9995052 16 23.6571004 16 25 14.6571004 25 12.9995052 25 11.3428996 23.6571004 10 21.9995052 10 20.3428996 10 19 11.3428996 19 12.9995052M4.21306069 12.9995052C4.21306069 13.6694706 3.66985488 14.212766 2.99901055 14.212766 2.33014512 14.212766 1.78693931 13.6694706 1.78693931 12.9995052 1.78693931 12.3295398 2.33014512 11.7862444 2.99901055 11.7862444 3.66985488 11.7862444 4.21306069 12.3295398 4.21306069 12.9995052M0 12.9995052C0 14.6571004 1.34366755 16 2.99901055 16 4.65633245 16 6 14.6571004 6 12.9995052 6 11.3428996 4.65633245 10 2.99901055 10 1.34366755 10 0 11.3428996 0 12.9995052"/>
</svg>
