<svg viewBox="0 0 48 48" fill="none" xmlns="http://www.w3.org/2000/svg">
  <title>Acne Glyph</title>
  <mask id="mask0" mask-type="alpha" maskUnits="userSpaceOnUse" x="8" y="8" width="33" height="32">
    <path fill-rule="evenodd" clip-rule="evenodd" d="M22.0738 10.023C22.0738 11.1458 22.9739 12.0556 24.0967 12.0556C25.2195 12.0556 26.1294 11.1361 26.1294 10.023C26.1294 8.90985 25.2099 8 24.0967 8C22.9836 8 22.0738 8.90017 22.0738 10.023ZM23.2837 10.023C23.2837 9.57773 23.6418 9.20992 24.0967 9.20992C24.5517 9.20992 24.9195 9.56805 24.9195 10.023C24.9195 10.4779 24.542 10.8457 24.0967 10.8457C23.6515 10.8457 23.2837 10.4779 23.2837 10.023ZM22.0738 37.9673C22.0738 39.0901 22.9739 40 24.0967 40C25.2195 40 26.1294 39.0805 26.1294 37.9673C26.1294 36.8542 25.2099 35.9444 24.0967 35.9444C22.9836 35.9444 22.0738 36.8445 22.0738 37.9673ZM23.2837 37.9673C23.2837 37.5221 23.6418 37.1543 24.0967 37.1543C24.5517 37.1543 24.9195 37.5221 24.9195 37.9673C24.9195 38.4223 24.542 38.7901 24.0967 38.7901C23.6515 38.7901 23.2837 38.4223 23.2837 37.9673ZM38.1608 25.9262C37.038 25.9262 36.1281 25.0163 36.1281 23.8935C36.1281 22.7707 37.038 21.8706 38.1608 21.8706C39.2836 21.8706 40.1838 22.7804 40.1838 23.8935C40.1838 25.0067 39.2836 25.9262 38.1608 25.9262ZM38.1608 23.0805C37.7059 23.0805 37.3381 23.4483 37.3381 23.8935C37.3381 24.3485 37.7059 24.7163 38.1608 24.7163C38.6157 24.7163 38.9739 24.3485 38.9739 23.8935C38.9836 23.4483 38.6157 23.0805 38.1608 23.0805ZM8 23.8935C8 25.0163 8.90986 25.9262 10.0327 25.9262C11.1555 25.9262 12.0653 25.0067 12.0653 23.8935C12.0653 22.7804 11.1555 21.8706 10.0327 21.8706C8.90986 21.8706 8 22.7707 8 23.8935ZM9.20992 23.8935C9.20992 23.4483 9.57773 23.0805 10.0327 23.0805C10.4876 23.0805 10.8554 23.4483 10.8554 23.8935C10.8554 24.3485 10.4876 24.7163 10.0327 24.7163C9.57773 24.7163 9.20992 24.3485 9.20992 23.8935Z" fill="white"/>
  </mask>
  <g mask="url(#mask0)">
    <rect x="1.22449" y="1.22437" width="46.4608" height="46.4608" fill="currentColor"/>
  </g>
</svg>
