<svg viewBox="0 0 48 48" fill="none" xmlns="http://www.w3.org/2000/svg">
  <title>Acne Body Spray Glyph</title>
  <mask id="mask0" mask-type="alpha" maskUnits="userSpaceOnUse" x="14" y="8" width="21" height="32">
    <path d="M29.0501 8L26.6927 10.3573L27.5941 11.2587L29.9514 8.90133L29.0501 8Z" fill="white"/>
    <path d="M34.4931 14.7023H29.0021V15.879H34.4931V14.7023Z" fill="white"/>
    <path d="M27.5665 19.4555L26.665 20.3567L29.022 22.7143L29.9234 21.8131L27.5665 19.4555Z" fill="white"/>
    <path d="M26.0605 17.2517V13.6238H23.217V11.6627H16.0591V18.6245H14V40H25.2761V18.6245H23.217V17.2517H26.0605ZM23.217 14.8004H24.8839V16.0751H23.217V14.8004ZM24.0995 38.8234H15.2747V19.8991H24.0995V38.8234ZM17.2357 12.9374H22.0403V18.7225H17.2357V12.9374Z" fill="white"/>
  </mask>
  <g mask="url(#mask0)">
    <rect x="1.00012" y="0.19043" width="47.0654" height="47.0654" fill="#332E54"/>
  </g>
</svg>
