<svg viewBox="0 0 48 48" fill="none" xmlns="http://www.w3.org/2000/svg">
  <title>Acne Glyph</title>
  <path fill-rule="evenodd" clip-rule="evenodd" d="M21.9934 10.023C21.9934 11.1458 22.8885 12.0556 24.0048 12.0556C25.1212 12.0556 26.0259 11.1361 26.0259 10.023C26.0259 8.90985 25.1116 8 24.0048 8C22.8981 8 21.9934 8.90017 21.9934 10.023ZM23.1964 10.023C23.1964 9.57773 23.5525 9.20992 24.0048 9.20992C24.4572 9.20992 24.8229 9.56805 24.8229 10.023C24.8229 10.4779 24.4476 10.8457 24.0048 10.8457C23.5621 10.8457 23.1964 10.4779 23.1964 10.023ZM21.9934 37.9673C21.9934 39.0901 22.8885 40 24.0048 40C25.1212 40 26.0259 39.0804 26.0259 37.9673C26.0259 36.8542 25.1116 35.9443 24.0048 35.9443C22.8981 35.9443 21.9934 36.8445 21.9934 37.9673ZM23.1964 37.9673C23.1964 37.5221 23.5525 37.1543 24.0048 37.1543C24.4572 37.1543 24.8229 37.5221 24.8229 37.9673C24.8229 38.4222 24.4476 38.7901 24.0048 38.7901C23.5621 38.7901 23.1964 38.4222 23.1964 37.9673ZM37.9886 25.9262C36.8722 25.9262 35.9675 25.0164 35.9675 23.8936C35.9675 22.7708 36.8722 21.8706 37.9886 21.8706C39.105 21.8706 40 22.7805 40 23.8936C40 25.0067 39.105 25.9262 37.9886 25.9262ZM37.9886 23.0805C37.5363 23.0805 37.1705 23.4483 37.1705 23.8936C37.1705 24.3485 37.5363 24.7163 37.9886 24.7163C38.4409 24.7163 38.797 24.3485 38.797 23.8936C38.8066 23.4483 38.4409 23.0805 37.9886 23.0805ZM8 23.8935C8 25.0163 8.90466 25.9262 10.0211 25.9262C11.1374 25.9262 12.0421 25.0067 12.0421 23.8935C12.0421 22.7804 11.1374 21.8706 10.0211 21.8706C8.90466 21.8706 8 22.7707 8 23.8935ZM9.20301 23.8935C9.20301 23.4483 9.56872 23.0805 10.0211 23.0805C10.4734 23.0805 10.8391 23.4483 10.8391 23.8935C10.8391 24.3485 10.4734 24.7163 10.0211 24.7163C9.56872 24.7163 9.20301 24.3485 9.20301 23.8935Z" fill="currentColor"/>
</svg>
