<svg width="48" height="48" viewBox="0 0 48 48" fill="none" xmlns="http://www.w3.org/2000/svg">
  <title>Acne Glyph</title>
  <path
    d="M39.27 38.5H35.42C30.71 38.5 30.34 34.81 30.34 33.68C30.34 31.39 30.33 27.81 30.32 24.27C30.31 20.78 30.3 17.31 30.3 15.11C30.3 10.93 27.69 8.01 23.96 8.01C20.3 8 17.73 10.72 17.73 14.62V33.68C17.73 36.88 16.25 38.51 13.34 38.51H8.75C8.34 38.5 8 38.84 8 39.25C8 39.66 8.34 40 8.75 40H13.34C17.09 40 19.23 37.69 19.23 33.67V14.62C19.23 12.07 20.69 9.5 23.97 9.5C26.87 9.5 28.81 11.75 28.81 15.1C28.81 17.3 28.82 20.77 28.83 24.27C28.84 27.81 28.85 31.38 28.85 33.68C28.85 36.6 30.57 40 35.43 40H39.28C39.69 40 40.03 39.66 40.03 39.25C40.03 38.84 39.68 38.5 39.27 38.5Z"
    fill="currentColor"
  />
  <path
    d="M24.02 27.79C26.1132 27.79 27.81 26.0932 27.81 24C27.81 21.9068 26.1132 20.21 24.02 20.21C21.9268 20.21 20.23 21.9068 20.23 24C20.23 26.0932 21.9268 27.79 24.02 27.79Z"
    fill="currentColor"
  />
</svg>
