<svg viewBox="0 0 48 48" fill="none" xmlns="http://www.w3.org/2000/svg">
  <title>Acne Body Wash Glyph</title>
  <path d="M30.3 9.3C30.2 7.7 27.1 7 24.2 7C21.3 7 18.1 7.7 18 9.3V9.4V16.5V37.6C18 39.2 21.2 40 24.2 40C27.2 40 30.4 39.3 30.4 37.6V16.5L30.3 9.3C30.3 9.4 30.3 9.3 30.3 9.3ZM19.3 9.3C19.6 9 21.2 8.2 24.2 8.2C27.1 8.2 28.7 8.9 29.1 9.3L29.2 9.4C29.2 9.5 28.8 9.7 28.3 9.9C27.4 10.2 26 10.5 24.2 10.5C22.3 10.5 21 10.2 20.2 9.9C19.6 9.7 19.3 9.5 19.3 9.3C19.3 9.4 19.3 9.3 19.3 9.3ZM29.1 16.5C29 16.8 27.4 17.6 24.2 17.6C21 17.6 19.4 16.8 19.3 16.5V10.9C20.5 11.5 22.4 11.8 24.2 11.8C26 11.8 27.9 11.5 29.1 10.9V16.5ZM24.2 38.8C21 38.8 19.4 38 19.3 37.7V18.1C20.5 18.7 22.4 19 24.2 19C26 19 27.9 18.7 29.1 18.1V37.7C29 38 27.4 38.8 24.2 38.8Z" fill="currentColor"/>
</svg>
