<svg viewBox="0 0 48 48" fill="none" xmlns="https://www.w3.org/2000/svg">
  <title>Acne Seven Glyph</title>
  <path fill-rule="evenodd" clip-rule="evenodd" d="M24.0048 12.0556C22.8884 12.0556 21.9934 11.1458 21.9934 10.023C21.9934 8.90017 22.8981 8 24.0048 8C25.1116 8 26.0259 8.90985 26.0259 10.023C26.0259 11.1361 25.1116 12.0556 24.0048 12.0556ZM24.0048 9.20992C23.5525 9.20992 23.1964 9.57773 23.1964 10.023C23.1964 10.4779 23.5621 10.8457 24.0048 10.8457C24.4475 10.8457 24.8229 10.4779 24.8229 10.023C24.8132 9.56805 24.4475 9.20992 24.0048 9.20992ZM24.0048 39.9999C22.8884 39.9999 21.9934 39.0901 21.9934 37.9673C21.9934 36.8445 22.8981 35.9443 24.0048 35.9443C25.1116 35.9443 26.0259 36.8542 26.0259 37.9673C26.0259 39.0804 25.1116 39.9999 24.0048 39.9999ZM24.0048 37.1542C23.5525 37.1542 23.1964 37.522 23.1964 37.9673C23.1964 38.4222 23.5621 38.79 24.0048 38.79C24.4475 38.79 24.8229 38.4222 24.8229 37.9673C24.8133 37.522 24.4475 37.1542 24.0048 37.1542ZM35.9675 17.6893C35.9675 18.8121 36.8722 19.722 37.9886 19.722C39.0953 19.722 40 18.8025 40 17.6893C40 16.5762 39.105 15.6664 37.9886 15.6664C36.8722 15.6664 35.9675 16.5665 35.9675 17.6893ZM37.1705 17.6893C37.1705 17.2441 37.5363 16.8763 37.9886 16.8763C38.4313 16.8763 38.797 17.2441 38.797 17.6893C38.797 18.1443 38.4409 18.5121 37.9886 18.5121C37.5363 18.5121 37.1705 18.1443 37.1705 17.6893ZM10.0211 19.722C8.90467 19.722 8 18.8121 8 17.6893C8 16.5665 8.90467 15.6664 10.0211 15.6664C11.1374 15.6664 12.0421 16.5762 12.0421 17.6893C12.0421 18.8025 11.1278 19.722 10.0211 19.722ZM10.0211 16.8763C9.56872 16.8763 9.20301 17.2441 9.20301 17.6893C9.20301 18.1443 9.56872 18.5121 10.0211 18.5121C10.4734 18.5121 10.8391 18.1443 10.8391 17.6893C10.8295 17.2441 10.4638 16.8763 10.0211 16.8763ZM35.9675 29.6333C35.9675 30.7561 36.8722 31.666 37.9886 31.666C39.0953 31.666 40 30.7464 40 29.6333C40 28.5202 39.105 27.6103 37.9886 27.6103C36.8722 27.6103 35.9675 28.5105 35.9675 29.6333ZM37.1705 29.6333C37.1705 29.188 37.5363 28.8202 37.9886 28.8202C38.4313 28.8202 38.797 29.188 38.797 29.6333C38.797 30.0882 38.4409 30.456 37.9886 30.456C37.5363 30.456 37.1705 30.0882 37.1705 29.6333ZM10.0211 31.666C8.90467 31.666 8 30.7561 8 29.6333C8 28.5105 8.90467 27.6103 10.0211 27.6103C11.1374 27.6103 12.0421 28.5202 12.0421 29.6333C12.0421 30.7464 11.1278 31.666 10.0211 31.666ZM10.0211 28.8202C9.56872 28.8202 9.20301 29.188 9.20301 29.6333C9.20301 30.0882 9.56872 30.456 10.0211 30.456C10.4734 30.456 10.8391 30.0882 10.8391 29.6333C10.8295 29.188 10.4638 28.8202 10.0211 28.8202ZM21.9934 23.8935C21.9934 25.0163 22.8884 25.9261 24.0048 25.9261C25.1116 25.9261 26.0259 25.0066 26.0259 23.8935C26.0259 22.7803 25.1116 21.8705 24.0048 21.8705C22.8981 21.8705 21.9934 22.7707 21.9934 23.8935ZM23.1964 23.8935C23.1964 23.4482 23.5525 23.0804 24.0048 23.0804C24.4475 23.0804 24.8133 23.4482 24.8229 23.8935C24.8229 24.3484 24.4475 24.7162 24.0048 24.7162C23.5621 24.7162 23.1964 24.3484 23.1964 23.8935Z" fill="currentColor"/>
</svg>