<svg viewBox="0 0 48 48" fill="none" xmlns="http://www.w3.org/2000/svg">
  <title>AHA-BHA Toner Solution</title>
  <mask id="mask0" mask-type="alpha" maskUnits="userSpaceOnUse" x="15" y="8" width="19" height="32">
    <path d="M25.7999 24.8001H29.6999V26.1001H25.7999L28.4999 28.8001L27.5999 29.7001L24.8999 27.0001V30.8001H23.6999V27.0001L20.9999 29.7001L20.0999 28.8001L22.7999 26.1001H18.8999V24.8001H22.7999L20.0999 22.1001L20.9999 21.2001L23.6999 23.9001V20.1001H24.8999V23.9001L27.5999 21.2001L28.4999 22.1001L25.7999 24.8001Z" fill="white"/>
    <path fill-rule="evenodd" clip-rule="evenodd" d="M32.9999 18.2C32.8999 17.4 32.3999 16.7 31.5999 16.3L27.7999 14.3V10.8C27.7999 10.8 27.8999 10.8 27.8999 10.7C28.9999 10 29.0999 9.4 28.9999 9C28.8999 8.6 28.4999 8.1 27.1999 8C26.3999 8 25.4999 8.1 24.4999 8.3C22.7999 8.8 20.8999 9.7 20.7999 10.8V14.1L16.6999 16.3C15.9999 16.7 15.3999 17.4 15.2999 18.2C14.7999 21.7 14.6999 33.2 17.4999 38.8L17.5999 38.9C18.2999 39.7 21.5999 40 24.3999 40C25.1497 40 25.8663 39.9667 26.4728 39.9386C26.9178 39.9179 27.3037 39.9 27.5999 39.9C29.9999 39.7 30.4999 39.2 30.7999 38.8C33.5999 33.2 33.4999 21.6 32.9999 18.2ZM22.0999 12C22.1898 12 22.2595 12.0202 22.3363 12.0424C22.4272 12.0688 22.5279 12.098 22.6838 12.0999H22.9C23.7 12.0999 24.5 11.9999 25.4 11.7999C25.6 11.7499 25.8 11.6749 26 11.5999C26.2 11.5249 26.4 11.4499 26.6 11.3999V13.9999H22V11.9999C22.0333 12.0166 22.0666 12.0304 22.0999 12.042V12ZM25.0999 10.6C23.5999 10.9 22.5999 10.9 22.1999 10.8L22.4999 10.5C22.8999 10.2 23.6999 9.8 24.7999 9.5C26.2999 9.1 27.2999 9.2 27.6999 9.3C27.5999 9.4 27.2999 9.6 26.9999 9.8C26.5798 10.0521 26.0891 10.2336 25.4684 10.4631C25.3504 10.5067 25.2277 10.5521 25.0999 10.6ZM16.4998 18.4C16.5998 18 16.7998 17.6 17.1998 17.4L21.3998 15.2H26.8998L31.0998 17.4C31.4998 17.6 31.6998 18 31.7998 18.4C32.2998 22 32.1998 33.2 29.6998 38.2C28.7998 39 19.6998 39 18.5998 38.2C15.9998 33 15.9998 22 16.4998 18.4Z" fill="white"/>
  </mask>
  <g mask="url(#mask0)">
    <rect width="48" height="48" fill="#332E54"/>
  </g>
</svg>
