<svg viewBox="0 0 48 48" fill="none" xmlns="http://www.w3.org/2000/svg">
  <title>AHA-BHA Toner Solution</title>
  <path d="M25.623 24.8001H29.4591V26.1001H25.623L28.2788 28.8001L27.3935 29.7001L24.7378 27.0001V30.8001H23.5574V27.0001L20.9017 29.7001L20.0165 28.8001L22.6722 26.1001H18.8361V24.8001H22.6722L20.0165 22.1001L20.9017 21.2001L23.5574 23.9001V20.1001H24.7378V23.9001L27.3935 21.2001L28.2788 22.1001L25.623 24.8001Z" fill="currentColor"/>
  <path fill-rule="evenodd" clip-rule="evenodd" d="M32.705 18.2C32.6067 17.4 32.1149 16.7 31.328 16.3L27.5903 14.3V10.8C27.5903 10.8 27.6886 10.8 27.6886 10.7C28.7706 10 28.869 9.4 28.7706 9C28.6722 8.6 28.2788 8.1 27.0001 8C26.2132 8 25.328 8.1 24.3444 8.3C22.6722 8.8 20.8034 9.7 20.705 10.8V14.1L16.6722 16.3C15.9837 16.7 15.3936 17.4 15.2952 18.2C14.8034 21.7 14.705 33.2 17.4591 38.8L17.5575 38.9C18.246 39.7 21.4919 40 24.246 40C24.9835 40 25.6883 39.9667 26.2849 39.9386C26.7226 39.9179 27.1022 39.9 27.3936 39.9C29.7542 39.7 30.246 39.2 30.5411 38.8C33.2952 33.2 33.1968 21.6 32.705 18.2ZM21.9837 12C22.0721 12 22.1407 12.0202 22.2162 12.0424C22.3056 12.0688 22.4047 12.098 22.558 12.0999H22.7707C23.5575 12.0999 24.3444 11.9999 25.2297 11.7999C25.4264 11.7499 25.6231 11.6749 25.8198 11.5999C26.0165 11.5249 26.2133 11.4499 26.41 11.3999V13.9999H21.8854V11.9999C21.9182 12.0166 21.9509 12.0304 21.9837 12.042V12ZM24.9345 10.6C23.4591 10.9 22.4755 10.9 22.0821 10.8L22.3772 10.5C22.7706 10.2 23.5575 9.8 24.6395 9.5C26.1149 9.1 27.0985 9.2 27.4919 9.3C27.3936 9.4 27.0985 9.6 26.8034 9.8C26.3901 10.0521 25.9074 10.2336 25.297 10.4631C25.1809 10.5067 25.0602 10.5521 24.9345 10.6ZM16.4754 18.4C16.5738 18 16.7705 17.6 17.1639 17.4L21.2951 15.2H26.7049L30.8361 17.4C31.2295 17.6 31.4262 18 31.5246 18.4C32.0164 22 31.918 33.2 29.459 38.2C28.5738 39 19.6229 39 18.541 38.2C15.9836 33 15.9836 22 16.4754 18.4Z" fill="currentColor"/>
</svg>
