<svg width="48" height="48" viewBox="0 0 48 48" fill="none" xmlns="http://www.w3.org/2000/svg">
  <title>Anti-aging and Acne Glyph</title>
  <path
    d="M39.2499 23.2499H35.7699V13.8099C35.7699 12.7999 36.0199 9.49988 39.2499 9.49988C39.6599 9.49988 39.9999 9.15988 39.9999 8.74988C39.9999 8.33988 39.6599 7.99988 39.2499 7.99988C36.2299 7.99988 34.2699 10.2799 34.2699 13.8099V23.2499H24.7499V15.1099C24.7499 10.9899 22.1699 7.99988 18.5999 7.99988C14.1799 7.99988 12.1599 11.4299 12.1599 14.6199V23.2499H8.74994C8.33994 23.2499 7.99994 23.5899 7.99994 23.9999C7.99994 24.4099 8.33994 24.7499 8.74994 24.7499H12.1599V34.7299C12.1599 37.2699 11.0599 38.5099 8.77994 38.5099C8.36994 38.5099 8.02994 38.8499 8.02994 39.2599C8.02994 39.6699 8.36994 40.0099 8.77994 40.0099C11.8799 40.0099 13.6599 38.0899 13.6599 34.7299V24.7499H23.2499V33.2499C23.2499 37.2299 25.7999 39.9999 29.4599 39.9999C33.8199 39.9999 35.7799 36.5899 35.7799 33.2199V24.7499H39.2599C39.6699 24.7499 40.0099 24.4099 40.0099 23.9999C40.0099 23.5899 39.6599 23.2499 39.2499 23.2499ZM13.6599 23.2499V14.6199C13.6599 12.2599 14.9499 9.49988 18.5999 9.49988C21.3399 9.49988 23.2499 11.7999 23.2499 15.1099V23.2499H13.6599ZM34.2699 33.2199C34.2699 35.6599 33.0099 38.4999 29.4499 38.4999C26.5899 38.4999 24.7399 36.4399 24.7399 33.2499V24.7499H34.2599V33.2199H34.2699Z"
    fill="currentColor"
  />
  <path
    d="M18.3899 10.5299C16.2999 10.5299 14.5999 12.2299 14.5999 14.3199C14.5999 16.4099 16.2999 18.1099 18.3899 18.1099C20.4799 18.1099 22.1799 16.4099 22.1799 14.3199C22.1799 12.2299 20.4799 10.5299 18.3899 10.5299Z"
    fill="currentColor"
  />
  <path
    d="M29.5299 37.5199C31.6199 37.5199 33.3199 35.8199 33.3199 33.7299C33.3199 31.6399 31.6199 29.9399 29.5299 29.9399C27.4399 29.9399 25.7399 31.6399 25.7399 33.7299C25.7399 35.8199 27.4399 37.5199 29.5299 37.5199Z"
    fill="currentColor"
  />
</svg>
