<svg viewBox="0 0 48 48" fill="none" xmlns="http://www.w3.org/2000/svg">
  <title>Anti-aging Glyph</title>
  <path
    d="M39.25 23.25H35.77V13.81C35.77 12.8 36.02 9.5 39.25 9.5C39.66 9.5 40 9.16 40 8.75C40 8.34 39.66 8 39.25 8C36.23 8 34.27 10.28 34.27 13.81V23.25H24.75V15.11C24.75 10.99 22.17 8 18.6 8C14.18 8 12.16 11.43 12.16 14.62V23.25H8.75C8.34 23.25 8 23.59 8 24C8 24.41 8.34 24.75 8.75 24.75H12.16V34.73C12.16 37.27 11.06 38.51 8.78 38.51C8.37 38.51 8.03 38.85 8.03 39.26C8.03 39.67 8.37 40.01 8.78 40.01C11.88 40.01 13.66 38.09 13.66 34.73V24.75H23.25V33.25C23.25 37.23 25.8 40 29.46 40C33.82 40 35.78 36.59 35.78 33.22V24.75H39.26C39.67 24.75 40.01 24.41 40.01 24C40.01 23.59 39.66 23.25 39.25 23.25ZM13.66 23.25V14.62C13.66 12.26 14.95 9.5 18.6 9.5C21.34 9.5 23.25 11.8 23.25 15.11V23.25H13.66ZM34.27 33.22C34.27 35.66 33.01 38.5 29.45 38.5C26.59 38.5 24.74 36.44 24.74 33.25V24.75H34.26V33.22H34.27Z"
    fill="currentColor"
  />
</svg>
