<svg viewBox="0 0 48 48" fill="none" xmlns="http://www.w3.org/2000/svg">
  <title>Azelaic Acid</title>
  <mask id="mask0" mask-type="alpha" maskUnits="userSpaceOnUse" x="8" y="8" width="32" height="32">
    <path fill-rule="evenodd" clip-rule="evenodd" d="M28.5763 8.25579L28.3205 8L27.9713 8.09438L12.6701 12.2298L12.3235 12.3235L12.2298 12.6701L8.09438 27.9713L8 28.3205L8.25579 28.5763L19.4215 39.742L19.6773 39.9978L20.0265 39.9034L35.3277 35.768L35.6743 35.6743L35.768 35.3277L39.9034 20.0265L39.9978 19.6773L39.742 19.4215L28.5763 8.25579ZM9.39547 27.9482L13.3429 13.3429L27.9482 9.39547L38.6024 20.0496L34.655 34.655L20.0496 38.6024L9.39547 27.9482ZM26.8263 21.8089L20.4164 16.9498L21.1715 15.9536L27.5815 20.8128L26.8263 21.8089ZM19.7052 21.9351L20.9584 22.4609L20.7699 29.2138L19.5334 28.6949L19.5918 27.2067L17.2764 26.2351L16.2553 27.3195L15.0188 26.8007L19.7052 21.9351ZM19.7182 23.9511L19.7461 23.5822L19.5025 23.8606L18.0511 25.389L19.6445 26.0576L19.7182 23.9511ZM28.1628 30.4373L34.5727 24.0273L33.6888 23.1434L27.2789 29.5534L28.1628 30.4373Z" fill="white"/>
  </mask>
  <g mask="url(#mask0)">
    <rect width="48" height="48" fill="currentColor"/>
  </g>
</svg>
