<svg viewBox="0 0 80 80" xmlns="http://www.w3.org/2000/svg" xmlns:xlink="http://www.w3.org/1999/xlink">
  <title>Azelaic Acid</title>
  <g fill="none" fill-rule="evenodd">
    <path fill="#FEFEFE" d="M80,39.9999 C80,62.0919 62.091,79.9999 40,79.9999 C17.909,79.9999 0,62.0919 0,39.9999 C0,17.9089 17.909,-0.0001 40,-0.0001 C62.091,-0.0001 80,17.9089 80,39.9999"/>
    <g transform="translate(10 13)">
      <path stroke="currentColor" stroke-width="2" d="M23.8354 45.6434C23.8354 46.1054 23.4614 46.4784 23.0004 46.4784 22.5384 46.4784 22.1644 46.1054 22.1644 45.6434 22.1644 45.1824 22.5384 44.8084 23.0004 44.8084 23.4614 44.8084 23.8354 45.1824 23.8354 45.6434zM35.2485 6.3348C35.2485 9.4808 32.6985 12.0298 29.5545 12.0298 26.4095 12.0298 23.8605 9.4808 23.8605 6.3348 23.8605 3.1898 26.4095.6408 29.5545.6408 32.6985.6408 35.2485 3.1898 35.2485 6.3348z"/>
      <path stroke="currentColor" stroke-linecap="round" stroke-linejoin="round" stroke-width="2" d="M25.7637 14.8944L25.7637 22.5394M29.5542 17.1112L29.5542 26.1232M33.6338 15.1063L33.6338 19.7403"/>
      <path fill="currentColor" d="M59.5989591,53.9058294 C59.1029563,54.451155 58.5920889,54.9827186 58.0669972,55.4998801 C56.8375722,55.0150715 55.7268362,54.322058 54.551936,53.3465027 C52.228199,51.4173188 49.9837589,48.9307663 47.2833742,45.4701013 C46.7299718,44.7608913 46.1732501,44.0324681 45.464729,43.0943265 C45.3989069,43.0071725 44.1135956,41.3007469 43.753147,40.8256687 C40.3436114,36.3334148 35.0068136,33.5151 29.6367,33.5151 C24.5766169,33.5151 19.3469976,36.04775 15.7172217,40.0956983 C14.581646,41.3621196 13.6522742,42.6347054 11.9484106,45.1546473 C11.729725,45.4782562 11.729725,45.4782562 11.5101693,45.8031264 C8.86617824,49.7130071 7.37983396,51.5967804 5.27240635,53.3465506 C4.17549958,54.2570721 3.10098652,54.9884176 1.99615518,55.5619421 C1.495806,55.0713131 1.00829322,54.5676406 0.534167238,54.0514749 C1.70613277,53.511786 2.82842373,52.775997 3.99489975,51.8077274 C5.90986517,50.2177561 7.31327447,48.4390935 9.85342,44.6827775 C10.0723386,44.3588499 10.0723386,44.3588499 10.2915988,44.0343908 C12.0449967,41.4411897 13.0130321,40.115662 14.2281837,38.7604958 C18.2233674,34.3050425 23.9842649,31.5151 29.6367,31.5151 C35.6517689,31.5151 41.5691865,34.6400349 45.3463553,39.6166661 C45.7094203,40.0951926 46.996744,41.8042901 47.0607066,41.888982 C47.7634309,42.8194481 48.3142811,43.5401889 48.8601432,44.2397358 C51.4795833,47.5966665 53.6394813,49.9895571 55.8295199,51.8077437 C57.0640718,52.8328295 58.2100562,53.4926571 59.5989591,53.9058294 Z"/>
      <path stroke="currentColor" stroke-width="2" d="M27.478 45.6424C27.478 48.0454 25.53 49.9934 23.127 49.9934 20.726 49.9934 18.779 48.0454 18.779 45.6424 18.779 43.2414 20.726 41.2944 23.127 41.2944 25.53 41.2944 27.478 43.2414 27.478 45.6424zM41.5723 45.6424C41.5723 48.0454 39.6243 49.9934 37.2213 49.9934 34.8203 49.9934 32.8733 48.0454 32.8733 45.6424 32.8733 43.2414 34.8203 41.2944 37.2213 41.2944 39.6243 41.2944 41.5723 43.2414 41.5723 45.6424z"/>
      <path stroke="currentColor" stroke-width="2" d="M38.0571 45.6434C38.0571 46.1054 37.6831 46.4784 37.2221 46.4784 36.7611 46.4784 36.3871 46.1054 36.3871 45.6434 36.3871 45.1824 36.7611 44.8084 37.2221 44.8084 37.6831 44.8084 38.0571 45.1824 38.0571 45.6434zM39.977 56.8417C39.977 58.2807 38.384 59.4587 36.436 59.4587L23.219 59.4587C21.271 59.4587 19.678 58.2807 19.678 56.8417 19.678 55.4027 21.271 54.2247 23.219 54.2247L36.436 54.2247C38.384 54.2247 39.977 55.4027 39.977 56.8417zM23.9253 54.1161L23.9253 59.4231M27.9477 54.1161L27.9477 59.4231M31.9712 54.1161L31.9712 59.4231M35.9946 54.1161L35.9946 59.4231"/>
      <path stroke="currentColor" stroke-linecap="round" stroke-width="2" d="M34.5654,33.7059 C33.4394,35.3719 31.5334,36.4669 29.3714,36.4669 C27.4284,36.4669 25.6914,35.5809 24.5434,34.1909"/>
      <path stroke="currentColor" stroke-width="2" d="M25.522,33.3661 C25.444,33.2731 25.371,33.1771 25.3,33.0771"/>
    </g>
  </g>
</svg>
