<svg viewBox="0 0 48 48" fill="none" xmlns="http://www.w3.org/2000/svg">
  <title>Body Sunscreen Glyph</title>
  <mask id="mask0" mask-type="alpha" maskUnits="userSpaceOnUse" x="16" y="8" width="17" height="32">
    <path d="M29.1707 11.9024V8H19.7073V11.9024H16V40H32.878V11.9024H29.1707ZM20.9756 9.17073H27.9024V11.9024H20.9756V9.17073ZM31.7073 38.8293H17.1707V13.0732H31.6098V38.8293H31.7073Z" fill="white"/>
    <path d="M24.3902 28.9756C22.5366 28.9756 20.9756 27.4146 20.9756 25.561C20.9756 23.7073 22.5366 22.1463 24.3902 22.1463C26.2439 22.1463 27.8049 23.7073 27.8049 25.561C27.8049 27.5122 26.2439 28.9756 24.3902 28.9756ZM24.3902 23.4146C23.2195 23.4146 22.2439 24.3902 22.2439 25.561C22.2439 26.7317 23.2195 27.7073 24.3902 27.7073C25.561 27.7073 26.5366 26.7317 26.5366 25.561C26.5366 24.3902 25.561 23.4146 24.3902 23.4146Z" fill="white"/>
    <path d="M24.4878 20.7805C24.8111 20.7805 25.0732 20.5184 25.0732 20.1951C25.0732 19.8718 24.8111 19.6098 24.4878 19.6098C24.1645 19.6098 23.9024 19.8718 23.9024 20.1951C23.9024 20.5184 24.1645 20.7805 24.4878 20.7805Z" fill="white"/>
    <path d="M24.4878 31.6098C24.8111 31.6098 25.0732 31.3477 25.0732 31.0244C25.0732 30.7011 24.8111 30.439 24.4878 30.439C24.1645 30.439 23.9024 30.7011 23.9024 31.0244C23.9024 31.3477 24.1645 31.6098 24.4878 31.6098Z" fill="white"/>
    <path d="M28.2927 22.3415C28.616 22.3415 28.878 22.0794 28.878 21.7561C28.878 21.4328 28.616 21.1707 28.2927 21.1707C27.9694 21.1707 27.7073 21.4328 27.7073 21.7561C27.7073 22.0794 27.9694 22.3415 28.2927 22.3415Z" fill="white"/>
    <path d="M20.5854 30.0488C20.9087 30.0488 21.1707 29.7867 21.1707 29.4634C21.1707 29.1401 20.9087 28.878 20.5854 28.878C20.2621 28.878 20 29.1401 20 29.4634C20 29.7867 20.2621 30.0488 20.5854 30.0488Z" fill="white"/>
    <path d="M29.9512 26.1463C30.2745 26.1463 30.5366 25.8843 30.5366 25.561C30.5366 25.2377 30.2745 24.9756 29.9512 24.9756C29.6279 24.9756 29.3659 25.2377 29.3659 25.561C29.3659 25.8843 29.6279 26.1463 29.9512 26.1463Z" fill="white"/>
    <path d="M19.0244 26.1463C19.3477 26.1463 19.6098 25.8843 19.6098 25.561C19.6098 25.2377 19.3477 24.9756 19.0244 24.9756C18.7011 24.9756 18.439 25.2377 18.439 25.561C18.439 25.8843 18.7011 26.1463 19.0244 26.1463Z" fill="white"/>
    <path d="M28.2927 30.0488C28.616 30.0488 28.878 29.7867 28.878 29.4634C28.878 29.1401 28.616 28.878 28.2927 28.878C27.9694 28.878 27.7073 29.1401 27.7073 29.4634C27.7073 29.7867 27.9694 30.0488 28.2927 30.0488Z" fill="white"/>
    <path d="M20.5854 22.3415C20.9087 22.3415 21.1707 22.0794 21.1707 21.7561C21.1707 21.4328 20.9087 21.1707 20.5854 21.1707C20.2621 21.1707 20 21.4328 20 21.7561C20 22.0794 20.2621 22.3415 20.5854 22.3415Z" fill="white"/>
  </mask>
  <g mask="url(#mask0)">
    <rect width="48" height="48" fill="#332E54"/>
  </g>
</svg>
