<svg viewBox="0 0 48 48" fill="none" xmlns="http://www.w3.org/2000/svg">
  <title>Body Sunscreen Glyph</title>
  <path d="M28.4855 11.9024V8H19.5145V11.9024H16V40H32V11.9024H28.4855ZM20.7168 9.17073H27.2832V11.9024H20.7168V9.17073ZM30.8902 38.8293H17.1098V13.0732H30.7977V38.8293H30.8902Z" fill="currentColor"/>
  <path d="M23.9538 28.9756C22.1965 28.9756 20.7168 27.4146 20.7168 25.561C20.7168 23.7073 22.1965 22.1463 23.9538 22.1463C25.711 22.1463 27.1908 23.7073 27.1908 25.561C27.1908 27.5122 25.711 28.9756 23.9538 28.9756ZM23.9538 23.4146C22.8439 23.4146 21.9191 24.3902 21.9191 25.561C21.9191 26.7317 22.8439 27.7073 23.9538 27.7073C25.0636 27.7073 25.9884 26.7317 25.9884 25.561C25.9884 24.3902 25.0636 23.4146 23.9538 23.4146Z" fill="currentColor"/>
  <path d="M24.0462 20.7805C24.3527 20.7805 24.6012 20.5184 24.6012 20.1951C24.6012 19.8718 24.3527 19.6098 24.0462 19.6098C23.7398 19.6098 23.4913 19.8718 23.4913 20.1951C23.4913 20.5184 23.7398 20.7805 24.0462 20.7805Z" fill="currentColor"/>
  <path d="M24.0462 31.6098C24.3527 31.6098 24.6012 31.3477 24.6012 31.0244C24.6012 30.7011 24.3527 30.439 24.0462 30.439C23.7398 30.439 23.4913 30.7011 23.4913 31.0244C23.4913 31.3477 23.7398 31.6098 24.0462 31.6098Z" fill="currentColor"/>
  <path d="M27.6532 22.3415C27.9597 22.3415 28.2081 22.0794 28.2081 21.7561C28.2081 21.4328 27.9597 21.1707 27.6532 21.1707C27.3467 21.1707 27.0983 21.4328 27.0983 21.7561C27.0983 22.0794 27.3467 22.3415 27.6532 22.3415Z" fill="currentColor"/>
  <path d="M20.3468 30.0488C20.6533 30.0488 20.9017 29.7867 20.9017 29.4634C20.9017 29.1401 20.6533 28.878 20.3468 28.878C20.0404 28.878 19.7919 29.1401 19.7919 29.4634C19.7919 29.7867 20.0404 30.0488 20.3468 30.0488Z" fill="currentColor"/>
  <path d="M29.2254 26.1463C29.5319 26.1463 29.7803 25.8843 29.7803 25.561C29.7803 25.2377 29.5319 24.9756 29.2254 24.9756C28.919 24.9756 28.6705 25.2377 28.6705 25.561C28.6705 25.8843 28.919 26.1463 29.2254 26.1463Z" fill="currentColor"/>
  <path d="M18.8671 26.1463C19.1735 26.1463 19.422 25.8843 19.422 25.561C19.422 25.2377 19.1735 24.9756 18.8671 24.9756C18.5606 24.9756 18.3121 25.2377 18.3121 25.561C18.3121 25.8843 18.5606 26.1463 18.8671 26.1463Z" fill="currentColor"/>
  <path d="M27.6532 30.0488C27.9597 30.0488 28.2081 29.7867 28.2081 29.4634C28.2081 29.1401 27.9597 28.878 27.6532 28.878C27.3467 28.878 27.0983 29.1401 27.0983 29.4634C27.0983 29.7867 27.3467 30.0488 27.6532 30.0488Z" fill="currentColor"/>
  <path d="M20.3468 22.3415C20.6533 22.3415 20.9017 22.0794 20.9017 21.7561C20.9017 21.4328 20.6533 21.1707 20.3468 21.1707C20.0404 21.1707 19.7919 21.4328 19.7919 21.7561C19.7919 22.0794 20.0404 22.3415 20.3468 22.3415Z" fill="currentColor"/>
</svg>
