<svg viewBox="0 0 48 48" fill="none" xmlns="http://www.w3.org/2000/svg">
  <title>Body Sunscreen Glyph</title>
  <path d="M27.71 11.425L27.69 9.785C27.36 7.405 20.45 7.405 20.12 9.785L20.09 11.425C18.23 12.005 17.03 13.005 17.01 14.185H17V36.785L17.03 36.995C17.66 38.825 21.02 39.665 23.88 39.665C26.74 39.665 30.1 38.825 30.73 36.995C30.73 36.995 30.77 14.245 30.77 14.215C30.77 13.015 29.58 12.005 27.71 11.425ZM23.9 9.205C25.48 9.205 26.41 9.725 26.47 9.945C26.41 10.175 25.48 10.695 23.9 10.695C22.31 10.695 21.38 10.175 21.33 9.955C21.38 9.735 22.31 9.205 23.9 9.205ZM21.33 11.455C22.04 11.775 22.97 11.945 23.9 11.945C24.82 11.945 25.75 11.785 26.45 11.465V13.005C26.26 13.195 25.43 13.615 23.89 13.615C22.35 13.615 21.52 13.205 21.33 13.005V11.455ZM29.51 36.675C29.1 37.535 26.8 38.415 23.88 38.415C20.96 38.415 18.66 37.525 18.25 36.675V16.155C19.47 16.985 21.5 17.515 23.89 17.515C26.27 17.515 28.29 16.995 29.51 16.155V36.675ZM23.89 16.265C20.4 16.265 18.26 15.065 18.26 14.205C18.26 13.735 18.92 13.165 20.08 12.745V13.045C20.08 13.075 20.07 13.095 20.07 13.125C20.07 13.135 20.08 13.155 20.08 13.165V13.235H20.1C20.22 14.165 21.81 14.855 23.9 14.855C25.99 14.855 27.58 14.165 27.7 13.235C27.7 13.235 27.72 13.095 27.72 13.085V12.745C28.88 13.165 29.54 13.735 29.54 14.205C29.52 15.075 27.38 16.265 23.89 16.265Z" fill="#332E54"/>
  <path d="M21.25 25.125C21.25 26.565 22.42 27.735 23.86 27.735C25.3 27.735 26.47 26.565 26.47 25.125C26.47 23.685 25.3 22.515 23.86 22.515C22.42 22.515 21.25 23.685 21.25 25.125ZM25.21 25.125C25.21 25.875 24.6 26.485 23.85 26.485C23.1 26.485 22.5 25.875 22.5 25.125C22.5 24.375 23.11 23.765 23.86 23.765C24.61 23.765 25.21 24.375 25.21 25.125Z" fill="#332E54"/>
  <path d="M23.41 21.425C23.41 21.645 23.59 21.825 23.81 21.825C24.03 21.825 24.21 21.645 24.21 21.425C24.21 21.205 24.03 21.025 23.81 21.025C23.59 21.025 23.41 21.205 23.41 21.425Z" fill="#332E54"/>
  <path d="M26.54 22.945C26.76 22.945 26.94 22.765 26.94 22.545C26.94 22.325 26.76 22.145 26.54 22.145C26.32 22.145 26.14 22.325 26.14 22.545C26.14 22.765 26.32 22.945 26.54 22.945Z" fill="#332E54"/>
  <path d="M27.62 25.525C27.8409 25.525 28.02 25.3459 28.02 25.125C28.02 24.9041 27.8409 24.725 27.62 24.725C27.3991 24.725 27.22 24.9041 27.22 25.125C27.22 25.3459 27.3991 25.525 27.62 25.525Z" fill="#332E54"/>
  <path d="M26.62 27.365C26.4 27.365 26.22 27.545 26.22 27.765C26.22 27.985 26.4 28.165 26.62 28.165C26.84 28.165 27.02 27.985 27.02 27.765C27.02 27.535 26.84 27.365 26.62 27.365Z" fill="#332E54"/>
  <path d="M23.82 28.5551C23.6 28.5551 23.42 28.7351 23.42 28.9551C23.42 29.1751 23.6 29.3551 23.82 29.3551C24.04 29.3551 24.22 29.1751 24.22 28.9551C24.22 28.7351 24.04 28.5551 23.82 28.5551Z" fill="#332E54"/>
  <path d="M21.17 28.205C21.3909 28.205 21.57 28.0259 21.57 27.805C21.57 27.5841 21.3909 27.405 21.17 27.405C20.9491 27.405 20.77 27.5841 20.77 27.805C20.77 28.0259 20.9491 28.205 21.17 28.205Z" fill="#332E54"/>
  <path d="M20.17 24.735C19.95 24.685 19.74 24.825 19.7 25.035C19.65 25.245 19.79 25.465 20 25.505C20.22 25.555 20.43 25.415 20.47 25.205C20.52 24.995 20.39 24.785 20.17 24.735Z" fill="#332E54"/>
  <path d="M21.27 22.845C21.49 22.845 21.67 22.665 21.67 22.445C21.67 22.225 21.49 22.045 21.27 22.045C21.05 22.045 20.87 22.225 20.87 22.445C20.87 22.665 21.05 22.845 21.27 22.845Z" fill="#332E54"/>
</svg>