<svg viewBox="0 0 68 68" xmlns="http://www.w3.org/2000/svg" xmlns:xlink="http://www.w3.org/1999/xlink">
  <title>Body</title>
  <path fill="none" fill-rule="evenodd" stroke="currentColor" stroke-linecap="round" stroke-width="2" transform="translate(13 17)" d="M15 5C13.486058 3.70209553 12.8791689 1.97942231 12 0M27 5C28.5147622 3.70209553 29.1216512 1.97942231 30 0M15 5C14.5398719 7.8700366 13.2721187 10.2409364 11.5573341 11.1584145L8.4080326 12.8452455C1.66065192 16.385885 2.29278231 23.6467095 0 31M5 22C5 22 6.02072778 28.7725114 7 31M27 5C27.4609743 7.8700366 28.7277807 10.2409364 30.4424655 11.1584145L33.5924568 12.8452455C40.3394447 16.385885 39.7064781 23.6467095 42 31M37 22C37 22 35.978351 28.7725114 35 31"/>
</svg>
