<svg width="48" height="48" viewBox="0 0 48 48" fill="none" xmlns="http://www.w3.org/2000/svg">
  <title>Break Glyph</title>
  <path fill-rule="evenodd" clip-rule="evenodd" d="M31.07 9C33.48 9 35.44 10.96 35.44 13.37H39.93V19.16V20.38V39.21H8V20.37V19.15V13.37H10.99C10.99 10.96 12.96 9 15.37 9C17.78 9 19.74 10.96 19.74 13.37H26.7C26.7 10.96 28.66 9 31.07 9ZM31.07 10.25C29.35 10.25 27.95 11.65 27.95 13.37H34.19C34.19 11.65 32.79 10.25 31.07 10.25ZM15.36 10.25C13.64 10.25 12.24 11.65 12.24 13.37H18.48C18.48 11.65 17.08 10.25 15.36 10.25ZM9.25 37.97H38.68V20.41H9.25V37.97ZM9.25 19.13H38.66V14.63H35.23C34.83 15.99 33.79 17.09 32.39 17.54L32.01 16.35C32.89 16.07 33.56 15.43 33.91 14.63H19.54C19.14 15.99 18.1 17.09 16.7 17.54L16.32 16.35C17.2 16.07 17.87 15.43 18.22 14.63H9.25V19.13ZM25.57 31.17L26.45 32.06L28.23 30.28L30 32.03L30.88 31.14L29.12 29.39L30.88 27.63L30 26.74L28.23 28.51L26.44 26.73L25.55 27.61L27.34 29.39L25.57 31.17ZM22.91 27.63L22.03 26.75L18.48 30.3L17.28 29.11L16.4 29.99L18.48 32.07L22.91 27.63Z" fill="currentColor"/>
</svg>
