<svg width="48" height="48" viewBox="0 0 48 48" fill="none" xmlns="http://www.w3.org/2000/svg">
  <title>Break Glyph</title>
  <path
    d="M34.51 9.67988H31.7V8.74988C31.7 8.33988 31.36 7.99988 30.95 7.99988C30.54 7.99988 30.2 8.33988 30.2 8.74988V9.67988H17.79V8.74988C17.79 8.33988 17.46 7.99988 17.04 7.99988C16.62 7.99988 16.29 8.33988 16.29 8.74988V9.67988H13.49C10.46 9.67988 8 12.1499 8 15.1699V34.5099C8 37.5399 10.46 39.9999 13.49 39.9999H34.52C37.55 39.9999 40.01 37.5399 40.01 34.5099V15.1699C40 12.1499 37.54 9.67988 34.51 9.67988ZM13.49 11.1799H16.3V11.9399C16.3 12.3499 16.64 12.6899 17.05 12.6899C17.46 12.6899 17.8 12.3499 17.8 11.9399V11.1799H30.21V11.8799C30.21 12.2899 30.55 12.6299 30.96 12.6299C31.37 12.6299 31.71 12.2899 31.71 11.8799V11.1799H34.52C36.72 11.1799 38.51 12.9699 38.51 15.1699V21.0299H9.51V15.1699C9.5 12.9699 11.29 11.1799 13.49 11.1799ZM34.51 38.4999H13.49C11.29 38.4999 9.5 36.7099 9.5 34.5099V22.5299H38.5V34.5099C38.5 36.7099 36.71 38.4999 34.51 38.4999Z"
    fill="currentColor"
  />
  <path
    d="M17.04 18.2499C17.82 18.2499 18.46 17.6099 18.46 16.8299C18.46 16.0499 17.82 15.4099 17.04 15.4099C16.25 15.4099 15.62 16.0499 15.62 16.8299C15.62 17.6199 16.26 18.2499 17.04 18.2499Z"
    fill="currentColor"
  />
  <path
    d="M30.96 18.2499C31.74 18.2499 32.38 17.6099 32.38 16.8299C32.38 16.0499 31.74 15.4099 30.96 15.4099C30.17 15.4099 29.54 16.0499 29.54 16.8299C29.53 17.6199 30.17 18.2499 30.96 18.2499Z"
    fill="currentColor"
  />
  <path
    d="M29.71 30.5099L32.27 26.4499C32.49 26.0999 32.39 25.6399 32.03 25.4199C31.68 25.1999 31.22 25.2999 31 25.6599L28.83 29.1099L26.66 25.6599C26.44 25.3099 25.98 25.1999 25.63 25.4199C25.28 25.6399 25.17 26.0999 25.39 26.4499L27.95 30.5099L25.39 34.5699C25.17 34.9199 25.27 35.3799 25.63 35.5999C25.75 35.6799 25.89 35.7199 26.03 35.7199C26.28 35.7199 26.52 35.5999 26.67 35.3699L28.85 31.9199L31.03 35.3699C31.17 35.5999 31.42 35.7199 31.67 35.7199C31.81 35.7199 31.94 35.6799 32.07 35.5999C32.42 35.3799 32.53 34.9199 32.31 34.5699L29.71 30.5099Z"
    fill="currentColor"
  />
  <path
    d="M21.48 25.4999C19.7 27.1199 18.78 29.8299 18.32 31.9299C17.92 31.3199 17.36 30.7899 16.6 30.5299C16.2 30.3999 15.78 30.6099 15.65 31.0099C15.52 31.3999 15.73 31.8299 16.13 31.9599C17.28 32.3399 17.78 34.3399 17.88 35.0699C17.93 35.4499 18.25 35.7199 18.62 35.7199C18.63 35.7199 18.64 35.7199 18.64 35.7199C19.03 35.7099 19.34 35.3999 19.36 35.0199C19.36 34.9599 19.77 29.0699 22.48 26.5999C22.79 26.3199 22.81 25.8499 22.53 25.5399C22.27 25.2399 21.79 25.2199 21.48 25.4999Z"
    fill="currentColor"
  />
</svg>
