<svg xmlns="http://www.w3.org/2000/svg" width="48" height="48" viewBox="0 0 48 48" fill="none">
  <title>Caffeine Glyph</title>
  <path d="M22.73 28.8C22.33 28.74 21.94 29.02 21.88 29.43C21.02 35.07 18.76 39 16.37 39C13.53 39 10.5 33.17 10.5 24.5C10.5 15.83 13.53 10 16.37 10C18.74 10 21 13.9 21.87 19.49C21.93 19.9 22.32 20.18 22.73 20.12C23.14 20.06 23.42 19.67 23.36 19.26C22.34 12.72 19.6 8.5 16.37 8.5C12.24 8.5 9 15.53 9 24.5C9 33.47 12.24 40.5 16.37 40.5C19.62 40.5 22.36 36.24 23.36 29.65C23.42 29.24 23.14 28.86 22.73 28.8Z" fill="currentColor"/>
  <path fill-rule="evenodd" clip-rule="evenodd" d="M25.2519 31.4353L25.2503 31.4584L25.25 31.4888C25.25 33.4733 25.3449 35.5965 26.0154 37.3018C26.3565 38.1691 26.8562 38.9561 27.5901 39.5633C28.3277 40.1736 29.2599 40.5675 30.4072 40.7106C31.6758 40.8688 34.3417 40.6111 36.2273 38.6007C36.3285 38.8213 36.4466 39.0417 36.5832 39.2523C37.0566 39.9825 37.8408 40.7163 39 40.7163C39.4142 40.7163 39.75 40.3805 39.75 39.9663C39.75 39.5521 39.4142 39.2163 39 39.2163C38.5586 39.2163 38.1762 38.9521 37.8418 38.4363C37.5319 37.9583 37.3403 37.3699 37.2572 36.9466C37.5041 34.6122 37.7505 31.0871 37.1739 28.1049C36.881 26.5905 36.3626 25.1409 35.4586 24.0578C34.5349 22.951 33.2419 22.2698 31.5329 22.2612C30.3602 22.167 28.896 22.6564 27.6802 24.0773C26.4585 25.5049 25.5089 27.8399 25.2519 31.4353ZM36.2568 38.4205C36.2323 38.4478 36.2077 38.4749 36.1829 38.5016C34.3248 40.5092 31.675 40.7679 30.4196 40.6113C29.43 40.4879 28.6068 40.1759 27.9333 39.7001C28.6068 40.1759 29.43 40.4879 30.4195 40.6113C31.6917 40.7699 34.3956 40.5022 36.2568 38.4204C36.2568 38.4204 36.2568 38.4204 36.2568 38.4205ZM37.591 40.1757C37.9773 40.4408 38.4444 40.6163 39 40.6163C39.359 40.6163 39.65 40.3253 39.65 39.9663C39.65 39.899 39.6398 39.8341 39.6208 39.7731C39.6398 39.8341 39.65 39.899 39.65 39.9663C39.65 40.3253 39.359 40.6163 39 40.6163C38.4444 40.6163 37.9773 40.4407 37.591 40.1757ZM37.7579 38.4907C37.7579 38.4907 37.7579 38.4907 37.7579 38.4906C37.7579 38.4906 37.7579 38.4907 37.7579 38.4907C37.7579 38.4907 37.7579 38.4907 37.7579 38.4907ZM37.6429 38.2995C37.3883 37.8439 37.229 37.3299 37.1562 36.9509C37.4035 34.6176 37.6505 31.0966 37.0757 28.1239C36.8715 27.0681 36.558 26.0494 36.0828 25.1679C36.558 26.0494 36.8715 27.0681 37.0757 28.1239C37.6505 31.0966 37.4035 34.6176 37.1562 36.9509C37.2289 37.3299 37.3882 37.8439 37.6429 38.2995ZM31.4323 23.7581L31.4616 23.7607L31.5 23.7611C32.7747 23.7611 33.6586 24.242 34.307 25.0189C34.9812 25.8267 35.4315 26.9952 35.7011 28.3897C36.2282 31.1153 36.0142 34.4171 35.7714 36.7329C34.3607 39.0405 31.7438 39.3656 30.5928 39.2221C29.6914 39.1097 29.0366 38.8133 28.5464 38.4076C28.0523 37.9988 27.6831 37.444 27.4114 36.7529C26.8589 35.3479 26.751 33.4982 26.75 31.5157C26.9957 28.1334 27.8773 26.1539 28.8198 25.0526C29.7585 23.9557 30.7772 23.6987 31.4323 23.7581ZM27.3183 36.7895C27.422 37.0531 27.5399 37.298 27.6737 37.5234C27.5399 37.298 27.422 37.053 27.3183 36.7895C26.7578 35.364 26.6508 33.4955 26.65 31.512C26.8962 28.1144 27.7826 26.1108 28.7438 24.9875C29.7018 23.8681 30.7514 23.5959 31.4413 23.6585L31.4706 23.6611H31.5C32.6417 23.6611 33.4825 24.0396 34.1218 24.6698C33.4825 24.0396 32.6417 23.6611 31.5 23.6611H31.4706L31.4413 23.6585C30.7514 23.5959 29.7018 23.8681 28.7439 24.9875C27.7826 26.1108 26.8962 28.1145 26.65 31.5121C26.6508 33.4955 26.7578 35.3641 27.3183 36.7895Z" fill="currentColor"/>
</svg>