<svg viewBox="0 0 48 48" fill="none" xmlns="http://www.w3.org/2000/svg">
  <title>Calendar - Sometimes Glyph</title>
  <path fill-rule="evenodd" clip-rule="evenodd" d="M31.06 8.81982C33.47 8.81982 35.43 10.7798 35.43 13.1898H39.93V18.9698V20.1898V39.0298H8V20.1898V18.9698V13.1898H10.99C10.99 10.7798 12.95 8.81982 15.36 8.81982C17.77 8.81982 19.73 10.7798 19.73 13.1898H26.69C26.69 10.7798 28.65 8.81982 31.06 8.81982ZM31.06 10.0698C29.34 10.0698 27.94 11.4698 27.94 13.1898H34.18C34.18 11.4698 32.78 10.0698 31.06 10.0698ZM15.36 10.0698C13.64 10.0698 12.24 11.4698 12.24 13.1898H18.48C18.48 11.4698 17.08 10.0698 15.36 10.0698ZM9.25 37.7898H38.68V20.2198H9.25V37.7898ZM9.25 18.9398H38.66V14.4398H35.23C34.83 15.7998 33.79 16.8998 32.39 17.3498L32.01 16.1598C32.89 15.8798 33.56 15.2398 33.91 14.4398H19.54C19.14 15.7998 18.1 16.8998 16.7 17.3498L16.32 16.1598C17.2 15.8798 17.87 15.2398 18.22 14.4398H9.25V18.9398ZM18.67 26.5698L19.55 27.4498L15.12 31.8798L13.04 29.8098L13.92 28.9198L15.12 30.1198L18.67 26.5698Z" fill="currentColor"/>
</svg>
