<svg viewBox="0 0 48 48" fill="none" xmlns="http://www.w3.org/2000/svg">
  <title>Calendar - Most of the Time Glyph</title>
  <mask id="mask0" mask-type="alpha" maskUnits="userSpaceOnUse" x="8" y="9" width="32" height="31">
    <path fill-rule="evenodd" clip-rule="evenodd" d="M16.71 17.53L16.33 16.34C17.2014 16.0563 17.8811 15.4213 18.2305 14.6199H9.24999V19.1199H38.68V14.6199H35.2587C34.8556 15.9762 33.809 17.0817 32.41 17.53L32.03 16.34C32.9014 16.0563 33.5811 15.4213 33.9305 14.6199H19.5587C19.1556 15.9762 18.109 17.0817 16.71 17.53ZM35.44 13.3699H39.93V19.1499V20.3699V39.2099H8V20.3699V19.1499V13.3699H11C11.0001 10.9599 12.9601 9 15.37 9C17.78 9 19.7399 10.9599 19.74 13.3699H26.7C26.7001 10.9599 28.66 9 31.07 9C33.48 9 35.4399 10.9599 35.44 13.3699ZM27.95 13.3699C27.9501 11.6499 29.35 10.25 31.07 10.25C32.79 10.25 34.1899 11.6499 34.19 13.3699H27.95ZM15.37 10.25C13.6501 10.25 12.2501 11.6499 12.25 13.3699H18.49C18.4899 11.6499 17.09 10.25 15.37 10.25ZM9.24999 37.9699H38.68V20.3999H9.24999V37.9699ZM17 32.06L14.92 29.99L15.81 29.1L17 30.3L20.55 26.75L21.44 27.63L17 32.06ZM26.14 32.06L24.06 29.99L24.95 29.1L26.14 30.3L29.69 26.75L30.57 27.63L26.14 32.06Z" fill="white"/>
  </mask>
  <g mask="url(#mask0)">
    <rect x="1.22522" y="0.790283" width="44.4836" height="44.4836" fill="currentColor"/>
  </g>
</svg>
