<svg viewBox="0 0 48 48" fill="none" xmlns="http://www.w3.org/2000/svg">
  <title>Calendar - Never Glyph</title>
  <mask id="mask0" mask-type="alpha" maskUnits="userSpaceOnUse" x="8" y="8" width="32" height="32">
    <path d="M35.44 13.1901C35.44 10.7801 33.48 8.82007 31.07 8.82007C28.66 8.82007 26.7 10.7801 26.7 13.1901H27.95C27.95 11.4701 29.35 10.0701 31.07 10.0701C32.79 10.0701 34.19 11.4701 34.19 13.1901H19.74C19.74 10.7801 17.78 8.82007 15.37 8.82007C12.96 8.82007 10.99 10.7801 10.99 13.1901H12.24C12.24 11.4701 13.64 10.0701 15.36 10.0701C17.08 10.0701 18.48 11.4701 18.48 13.1901H8V18.9701V20.1901V39.0301H39.93V20.1901V18.9701V13.1901H35.44ZM38.68 37.7901H9.25V20.2201H38.68V37.7901ZM38.68 18.9401H9.25V14.4401H18.22C17.87 15.2401 17.2 15.8801 16.32 16.1601L16.7 17.3501C18.1 16.9001 19.14 15.8001 19.54 14.4401H33.91C33.56 15.2401 32.89 15.8801 32.01 16.1601L32.39 17.3501C33.79 16.9001 34.83 15.8001 35.23 14.4401H38.66V18.9401H38.68Z" fill="white"/>
  </mask>
  <g mask="url(#mask0)">
    <rect x="1.65527" y="0.610352" width="44.4836" height="44.4836" fill="currentColor"/>
  </g>
</svg>
