<svg viewBox="0 0 48 48" fill="none" xmlns="http://www.w3.org/2000/svg">
  <title>Calendar - Always Glyph</title>
  <path fill-rule="evenodd" clip-rule="evenodd" d="M16.71 17.53L16.33 16.34C17.2013 16.0563 17.881 15.4214 18.2304 14.62H9.25V19.12H38.68V14.62H35.2586C34.8555 15.9763 33.8089 17.0817 32.41 17.53L32.03 16.34C32.9013 16.0563 33.581 15.4214 33.9304 14.62H19.5587C19.1555 15.9763 18.109 17.0817 16.71 17.53ZM35.44 13.37L39.93 13.37V19.15V20.37V39.21H8V20.37V19.15V13.37L11 13.37C11 10.96 12.96 9 15.37 9C17.78 9 19.74 10.96 19.74 13.37H26.7C26.7 10.96 28.66 9 31.07 9C33.48 9 35.44 10.96 35.44 13.37ZM27.95 13.37C27.95 11.65 29.35 10.25 31.07 10.25C32.79 10.25 34.19 11.65 34.19 13.37H27.95ZM15.37 10.25C13.65 10.25 12.25 11.65 12.25 13.37H18.49C18.49 11.65 17.09 10.25 15.37 10.25ZM9.25 37.97H38.68V20.4H9.25V37.97ZM12.11 29.99L14.19 32.06L18.62 27.63L17.74 26.75L14.19 30.3L13 29.1L12.11 29.99ZM21.25 29.99L23.33 32.06L27.76 27.63L26.88 26.75L23.33 30.3L22.13 29.1L21.25 29.99ZM31.51 32.06L29.43 29.99L30.31 29.1L31.51 30.3L35.06 26.75L35.94 27.63L31.51 32.06Z" fill="currentColor"/>
</svg>
