<svg viewBox="0 0 48 48" fill="none" xmlns="https://www.w3.org/2000/svg">
  <title>Calendar - Never Glyph</title>
  <path d="M35.5002 12.6289C35.5002 10.0761 33.5359 8 31.1206 8C28.7053 8 26.741 10.0761 26.741 12.6289H27.9937C27.9937 10.807 29.3968 9.32406 31.1206 9.32406C32.8443 9.32406 34.2474 10.807 34.2474 12.6289H19.7657C19.7657 10.0761 17.8014 8 15.3862 8C12.9709 8 10.9966 10.0761 10.9966 12.6289H12.2493C12.2493 10.807 13.6524 9.32406 15.3761 9.32406C17.0999 9.32406 18.503 10.807 18.503 12.6289H8V18.7514V20.0437V40H40V20.0437V18.7514V12.6289H35.5002ZM38.7473 38.6865H9.25274V20.0755H38.7473V38.6865ZM38.7473 18.7196H9.25274V13.953H18.2424C17.8916 14.8004 17.2202 15.4783 16.3382 15.7749L16.7191 17.0354C18.1221 16.5588 19.1644 15.3936 19.5653 13.953H33.9668C33.616 14.8004 32.9446 15.4783 32.0626 15.7749L32.4435 17.0354C33.8465 16.5588 34.8888 15.3936 35.2897 13.953H38.7272V18.7196H38.7473Z" fill="currentColor"/>
</svg>
