<svg viewBox="0 0 48 48" fill="none" xmlns="http://www.w3.org/2000/svg">
  <title>Chest Glyph</title>
  <mask id="mask0" mask-type="alpha" maskUnits="userSpaceOnUse" x="8" y="12" width="32" height="24">
    <path fill-rule="evenodd" clip-rule="evenodd" d="M16.3842 15.2845C16.3842 16.4754 17.6807 18.0504 20.0432 19.7311C20.8596 20.3169 21.2917 21.2581 21.1957 22.2473C21.1093 23.2461 20.5042 24.0912 19.5918 24.5138C18.9676 24.8019 18.2665 25.0516 17.527 25.3109C16.3938 25.7143 15.1165 26.1753 13.8968 26.8475C12.3409 27.7023 9.66147 30.036 9.20048 36L8 35.904C8.509 29.383 11.5438 26.7707 13.3109 25.7911C14.565 25.0995 15.8456 24.6381 16.9828 24.2284C17.03 24.2114 17.077 24.1945 17.1236 24.1777C17.8439 23.928 18.5162 23.6783 19.0925 23.419C19.6111 23.1789 19.9472 22.6987 20.0048 22.1321C20.0624 21.575 19.8127 21.0372 19.3517 20.7107C17.2005 19.1837 15.8848 17.7431 15.4046 16.3986C14.473 16.1297 13.7815 15.2749 13.7815 14.2473C13.7815 13.0084 14.7899 12 16.0288 12V13.2005C15.4526 13.2005 14.982 13.6711 14.982 14.2473C14.982 14.8043 15.4238 15.2557 15.9712 15.2845H16.3842ZM30.8763 24.1777C32.048 24.5906 33.3829 25.0708 34.6891 25.7911C36.4466 26.7707 39.491 29.383 40 35.904L38.7995 36C38.3289 30.0456 35.6591 27.7119 34.1033 26.8475C32.8992 26.1744 31.639 25.7259 30.5166 25.3265L30.473 25.3109C29.7335 25.0516 29.0324 24.8019 28.4081 24.5138C27.4958 24.0912 26.9004 23.2461 26.8043 22.2473C26.7083 21.2485 27.1404 20.3073 27.9568 19.7311C30.3193 18.06 31.6159 16.4754 31.6159 15.2845H31.6831C32.2305 15.2557 32.6723 14.8043 32.6723 14.2473C32.6723 13.6711 32.2017 13.2005 31.6254 13.2005V12C32.8643 12 33.8727 13.0084 33.8727 14.2473C33.8727 15.1116 33.3733 15.8608 32.6531 16.2353C32.2209 17.6183 30.8859 19.1164 28.6482 20.7107C28.1873 21.0372 27.9376 21.5654 27.9952 22.1321C28.0528 22.6987 28.389 23.1789 28.9076 23.419C29.4838 23.6783 30.1657 23.928 30.8763 24.1777Z" fill="white"/>
  </mask>
  <g mask="url(#mask0)">
    <rect width="48" height="48" fill="#332E54"/>
  </g>
</svg>
