<svg width="48" height="48" viewBox="0 0 48 48" fill="none" xmlns="http://www.w3.org/2000/svg">
  <path fill-rule="evenodd" clip-rule="evenodd" d="M18.7198 25.365C15.6353 25.365 13.1348 27.8655 13.1348 30.95C13.1348 34.0345 15.6353 36.535 18.7198 36.535C21.8043 36.535 24.3048 34.0345 24.3048 30.95C24.3048 27.8655 21.8043 25.365 18.7198 25.365ZM11.8848 30.95C11.8848 27.1751 14.9449 24.115 18.7198 24.115C22.4946 24.115 25.5548 27.1751 25.5548 30.95C25.5548 34.7249 22.4946 37.785 18.7198 37.785C14.9449 37.785 11.8848 34.7249 11.8848 30.95Z" fill="currentColor"/>
  <path fill-rule="evenodd" clip-rule="evenodd" d="M11.3001 19.4651C10.1652 19.4651 9.24512 20.3851 9.24512 21.5201C9.24512 22.655 10.1652 23.5751 11.3001 23.5751C12.4351 23.5751 13.3551 22.655 13.3551 21.5201C13.3551 20.3851 12.4351 19.4651 11.3001 19.4651ZM7.99512 21.5201C7.99512 19.6948 9.47482 18.2151 11.3001 18.2151C13.1254 18.2151 14.6051 19.6948 14.6051 21.5201C14.6051 23.3454 13.1254 24.8251 11.3001 24.8251C9.47482 24.8251 7.99512 23.3454 7.99512 21.5201Z" fill="currentColor"/>
  <path fill-rule="evenodd" clip-rule="evenodd" d="M29.835 14.2744C27.8154 13.7997 25.6965 13.9889 23.793 14.8139C21.8894 15.6389 20.3026 17.0557 19.2681 18.854C18.2336 20.6523 17.8065 22.7362 18.0502 24.7965L16.8089 24.9434C16.5335 22.6161 17.016 20.262 18.1846 18.2307C19.3532 16.1993 21.1457 14.5989 23.2959 13.667C25.4462 12.735 27.8397 12.5214 30.121 13.0575C32.4024 13.5937 34.4501 14.8511 35.9601 16.6433C37.4702 18.4354 38.3621 20.6668 38.5035 23.0061C38.645 25.3453 38.0284 27.6677 36.7452 29.6288C35.4621 31.5898 33.5808 33.0849 31.3807 33.892C29.1805 34.6991 26.7788 34.7753 24.5319 34.1092L24.8872 32.9107C26.8763 33.5004 29.0025 33.433 30.9502 32.7185C32.8979 32.004 34.5633 30.6804 35.6993 28.9444C36.8352 27.2083 37.381 25.1524 37.2558 23.0815C37.1306 21.0106 36.341 19.0352 35.0042 17.4487C33.6674 15.8622 31.8547 14.749 29.835 14.2744Z" fill="currentColor"/>
  <path fill-rule="evenodd" clip-rule="evenodd" d="M31.7898 18.5901C31.1194 18.0311 30.3414 17.6157 29.5039 17.3697L29.8562 16.1704C30.8566 16.4643 31.7861 16.9602 32.5872 17.6275C34.108 18.8645 35.1023 20.6329 35.3692 22.575L34.1309 22.7452C33.9069 21.1158 33.0723 19.6323 31.7959 18.5951L31.7897 18.5901L31.7898 18.5901Z" fill="currentColor"/>
  <path fill-rule="evenodd" clip-rule="evenodd" d="M19.3902 7.99723L20.389 7.99438L20.4791 9.7468C20.4879 9.93596 20.567 10.1151 20.7009 10.2489C20.8347 10.3828 21.0138 10.4619 21.2029 10.4707L21.2053 10.4708L22.9553 10.5608L22.9525 11.5596L21.2029 11.6395C21.0139 11.6484 20.8347 11.7275 20.7009 11.8613C20.567 11.9951 20.4879 12.1742 20.4791 12.3634L20.3109 12.3556L20.311 12.3572L20.479 12.3658L20.389 14.1158L19.3902 14.113L19.3102 12.3634C19.3013 12.1743 19.2222 11.9951 19.0884 11.8613C18.9546 11.7275 18.7757 11.6484 18.5867 11.6395L16.8368 11.5596L16.834 10.5608L18.5864 10.4707C18.7755 10.4619 18.9545 10.3828 19.0884 10.2489C19.2222 10.1151 19.3013 9.93607 19.3102 9.74702L19.3902 7.99723Z" fill="currentColor"/>
  <path fill-rule="evenodd" clip-rule="evenodd" d="M36.7291 35.5771C36.738 35.7661 36.817 35.945 36.9509 36.0789C37.0847 36.2127 37.2636 36.2917 37.4526 36.3006L39.2025 36.3806L39.2025 37.3795L37.4568 37.4594C37.2669 37.4719 37.0881 37.5533 36.9541 37.6884C36.8195 37.8241 36.7395 38.0043 36.729 38.195L36.6491 39.933L35.6503 39.9359L35.5604 38.1965C35.5502 38.0053 35.4701 37.8244 35.3353 37.6884C35.2012 37.5533 35.0224 37.4718 34.8324 37.4594L33.0967 37.3795L33.0967 36.3806L34.8364 36.3006C35.0255 36.2918 35.2045 36.2127 35.3384 36.0789C35.4723 35.945 35.5514 35.766 35.5602 35.5769L35.5603 35.5745L35.6503 33.8245L36.6491 33.8273L36.7291 35.5771Z" fill="currentColor"/>
  <path fill-rule="evenodd" clip-rule="evenodd" d="M19.8352 28.7816C19.5505 28.6359 19.2398 28.5481 18.9209 28.523L19.0188 27.2769C19.502 27.3148 19.9729 27.448 20.4045 27.6687C20.8361 27.8894 21.2196 28.1934 21.5331 28.563C21.8467 28.9325 22.0841 29.3604 22.2316 29.8222C22.3791 30.2838 22.4338 30.7702 22.3926 31.2531L21.1471 31.1468C21.1743 30.8282 21.1382 30.5072 21.0409 30.2026C20.9436 29.8979 20.7869 29.6156 20.58 29.3717C20.373 29.1278 20.1199 28.9272 19.8352 28.7816Z" fill="currentColor"/>
</svg>
