<svg width="48" height="48" viewBox="0 0 48 48" fill="none" xmlns="http://www.w3.org/2000/svg">
  <path fill-rule="evenodd" clip-rule="evenodd" d="M18.72 25.365C15.6355 25.365 13.135 27.8655 13.135 30.95C13.135 34.0345 15.6355 36.535 18.72 36.535C21.8045 36.535 24.305 34.0345 24.305 30.95C24.305 27.8655 21.8045 25.365 18.72 25.365ZM11.885 30.95C11.885 27.1751 14.9451 24.115 18.72 24.115C22.4949 24.115 25.555 27.1751 25.555 30.95C25.555 34.7249 22.4949 37.785 18.72 37.785C14.9451 37.785 11.885 34.7249 11.885 30.95Z" fill="currentColor"/>
  <path fill-rule="evenodd" clip-rule="evenodd" d="M11.3 19.465C10.1651 19.465 9.245 20.3851 9.245 21.52C9.245 22.655 10.1651 23.575 11.3 23.575C12.4349 23.575 13.355 22.655 13.355 21.52C13.355 20.3851 12.4349 19.465 11.3 19.465ZM7.995 21.52C7.995 19.6947 9.47469 18.215 11.3 18.215C13.1253 18.215 14.605 19.6947 14.605 21.52C14.605 23.3453 13.1253 24.825 11.3 24.825C9.47469 24.825 7.995 23.3453 7.995 21.52Z" fill="currentColor"/>
  <path fill-rule="evenodd" clip-rule="evenodd" d="M29.8355 14.2743C27.8159 13.7997 25.697 13.9888 23.7935 14.8138C21.8899 15.6388 20.3031 17.0556 19.2686 18.8539C18.234 20.6522 17.8069 22.7362 18.0507 24.7965L16.8093 24.9433C16.534 22.616 17.0165 20.262 18.1851 18.2306C19.3537 16.1992 21.1461 14.5988 23.2964 13.6669C25.4467 12.735 27.8401 12.5213 30.1215 13.0575C32.4028 13.5936 34.4505 14.851 35.9606 16.6432C37.4707 18.4354 38.3626 20.6668 38.504 23.006C38.6455 25.3453 38.0289 27.6677 36.7457 29.6287C35.4626 31.5898 33.5813 33.0848 31.3812 33.892C29.181 34.6991 26.7792 34.7752 24.5324 34.1091L24.8876 32.9107C26.8767 33.5003 29.0029 33.4329 30.9506 32.7184C32.8984 32.0039 34.5638 30.6804 35.6997 28.9443C36.8356 27.2083 37.3815 25.1523 37.2563 23.0814C37.1311 21.0106 36.3415 19.0352 35.0047 17.4486C33.6679 15.8621 31.8551 14.749 29.8355 14.2743Z" fill="currentColor"/>
  <path fill-rule="evenodd" clip-rule="evenodd" d="M31.7897 18.5899C31.1194 18.031 30.3413 17.6156 29.5039 17.3696L29.8562 16.1703C30.8566 16.4642 31.7861 16.96 32.5872 17.6274C34.1079 18.8644 35.1023 20.6327 35.3692 22.5749L34.1308 22.7451C33.9069 21.1157 33.0723 19.6322 31.7958 18.595L31.7897 18.59L31.7897 18.5899Z" fill="currentColor"/>
  <path fill-rule="evenodd" clip-rule="evenodd" d="M19.3905 7.99717L20.3893 7.99432L20.4795 9.74673C20.4883 9.9359 20.5674 10.115 20.7012 10.2488C20.8351 10.3827 21.0141 10.4618 21.2033 10.4706L21.2057 10.4707L22.9557 10.5607L22.9528 11.5595L21.2033 11.6395C21.0143 11.6483 20.835 11.7274 20.7012 11.8612C20.5674 11.9951 20.4883 12.1742 20.4795 12.3633L20.3112 12.3555L20.3113 12.3571L20.4793 12.3658L20.3893 14.1158L19.3905 14.1129L19.3106 12.3633C19.3017 12.1743 19.2226 11.995 19.0888 11.8612C18.9549 11.7274 18.776 11.6483 18.587 11.6395L16.8372 11.5595L16.8343 10.5607L18.5867 10.4706C18.7759 10.4618 18.9549 10.3827 19.0888 10.2488C19.2226 10.115 19.3017 9.93601 19.3105 9.74696L19.3905 7.99717Z" fill="currentColor"/>
  <path fill-rule="evenodd" clip-rule="evenodd" d="M36.7295 35.577C36.7383 35.7661 36.8174 35.945 36.9512 36.0788C37.085 36.2126 37.2639 36.2917 37.453 36.3006L39.2028 36.3805L39.2029 37.3795L37.4572 37.4593C37.2672 37.4718 37.0884 37.5532 36.9544 37.6884C36.8199 37.824 36.7398 38.0043 36.7294 38.1949L36.6495 39.933L35.6507 39.9358L35.5607 38.1964C35.5506 38.0052 35.4704 37.8243 35.3356 37.6884C35.2016 37.5532 35.0227 37.4718 34.8328 37.4593L33.097 37.3795L33.0971 36.3805L34.8367 36.3006C35.0259 36.2918 35.2049 36.2127 35.3387 36.0788C35.4727 35.9449 35.5517 35.7659 35.5605 35.5768L35.5607 35.5744L35.6507 33.8244L36.6495 33.8273L36.7295 35.577Z" fill="currentColor"/>
  <path fill-rule="evenodd" clip-rule="evenodd" d="M19.8354 28.7816C19.5507 28.636 19.2399 28.5481 18.921 28.5231L19.019 27.2769C19.5021 27.3149 19.973 27.448 20.4046 27.6688C20.8362 27.8895 21.2197 28.1935 21.5333 28.563C21.8468 28.9326 22.0842 29.3605 22.2317 29.8222C22.3792 30.2839 22.434 30.7703 22.3927 31.2532L21.1473 31.1469C21.1745 30.8282 21.1383 30.5073 21.041 30.2026C20.9437 29.898 20.7871 29.6156 20.5801 29.3717C20.3732 29.1278 20.12 28.9272 19.8354 28.7816Z" fill="currentColor"/>
</svg>
