<svg viewBox="0 0 48 48" fill="none" xmlns="http://www.w3.org/2000/svg">
 <title>Cleanser Glyph</title>
  <path d="M30 8H18V9.6947L20.3193 34.6168V38.405L20.4202 38.5047C21.0252 39.7009 22.6387 40 24.0504 40C24.1513 40 24.3529 40 24.4538 40C26.0672 39.9003 27.2773 39.4019 27.6807 38.5047L27.7815 38.405V34.3178L30 9.99377V8ZM24.3529 38.8037C23.1429 38.9034 21.9328 38.6044 21.5294 38.1059V35.9128C22.2353 36.2118 23.2437 36.4112 24.0504 36.4112C24.1513 36.4112 24.3529 36.4112 24.4538 36.4112C25.2605 36.4112 25.9664 36.2118 26.4706 35.9128V38.0062C26.2689 38.405 25.4622 38.7041 24.3529 38.8037ZM26.4706 34.2181V34.4174C26.2689 34.7165 25.4622 35.1153 24.3529 35.1153C23.1429 35.215 21.9328 34.9159 21.5294 34.3178L19.2101 9.99377V9.19626H28.6891V9.6947L26.4706 34.2181Z" fill="currentColor"/>
</svg>
