<svg viewBox="0 0 48 48" fill="none" xmlns="http://www.w3.org/2000/svg">
  <title>Cleanser Glyph</title>
  <mask id="mask0" mask-type="alpha" maskUnits="userSpaceOnUse" x="18" y="8" width="12" height="32">
    <path d="M29.8629 8H18V9.6947L20.2928 34.6168V38.405L20.3925 38.5047C20.9907 39.7009 22.5857 40 23.9813 40C24.081 40 24.2804 40 24.3801 40C25.9751 39.9003 27.1713 39.4019 27.5701 38.5047L27.6698 38.405V34.3178L29.8629 9.99377V8ZM24.2804 38.8037C23.0841 38.9034 21.8879 38.6044 21.4891 38.1059V35.9128C22.1869 36.2118 23.1838 36.4112 23.9813 36.4112C24.081 36.4112 24.2804 36.4112 24.3801 36.4112C25.1776 36.4112 25.8754 36.2118 26.3738 35.9128V38.0062C26.1745 38.405 25.3769 38.7041 24.2804 38.8037ZM26.3738 34.2181V34.4174C26.1745 34.7165 25.3769 35.1153 24.2804 35.1153C23.0841 35.215 21.8879 34.9159 21.4891 34.3178L19.1963 9.99377V9.19626H28.567V9.6947L26.3738 34.2181Z" fill="white"/>
  </mask>
  <g mask="url(#mask0)">
    <rect width="48" height="48" fill="#332E54"/>
  </g>
</svg>
