<svg width="48" height="48" viewBox="0 0 48 48" fill="none" xmlns="http://www.w3.org/2000/svg">
  <title>Cleanser Moisturizer Duo Glyph</title>
  <path d="M23 8H11V9.6947L13.3193 34.6168V38.405L13.4202 38.5047C14.0252 39.7009 15.6387 40 17.0504 40C17.1513 40 17.3529 40 17.4538 40C19.0672 39.9003 20.2773 39.4019 20.6807 38.5047L20.7815 38.405V34.3178L23 9.99377V8ZM17.3529 38.8037C16.1429 38.9034 14.9328 38.6044 14.5294 38.1059V35.9128C15.2353 36.2118 16.2437 36.4112 17.0504 36.4112C17.1513 36.4112 17.3529 36.4112 17.4538 36.4112C18.2605 36.4112 18.9664 36.2118 19.4706 35.9128V38.0062C19.2689 38.405 18.4622 38.7041 17.3529 38.8037ZM19.4706 34.2181V34.4174C19.2689 34.7165 18.4622 35.1153 17.3529 35.1153C16.1429 35.215 14.9328 34.9159 14.5294 34.3178L12.2101 9.99377V9.19626H21.6891V9.6947L19.4706 34.2181Z" fill="currentColor"/>
  <path d="M38 10.2236C37.9024 8.67674 34.878 8 32.0488 8C29.2195 8 26.0976 8.67674 26 10.2236V10.3202V17.1843V37.5831C26 39.1299 29.122 39.9033 32.0488 39.9033C34.9756 39.9033 38.0976 39.2266 38.0976 37.5831V17.1843L38 10.2236C38 10.3202 38 10.2236 38 10.2236ZM27.2683 10.2236C27.561 9.93353 29.122 9.16012 32.0488 9.16012C34.878 9.16012 36.439 9.83686 36.8293 10.2236L36.9268 10.3202C36.9268 10.4169 36.5366 10.6103 36.0488 10.8036C35.1707 11.0937 33.8049 11.3837 32.0488 11.3837C30.1951 11.3837 28.9268 11.0937 28.1463 10.8036C27.561 10.6103 27.2683 10.4169 27.2683 10.2236C27.2683 10.3202 27.2683 10.2236 27.2683 10.2236ZM36.8293 17.1843C36.7317 17.4743 35.1707 18.2477 32.0488 18.2477C28.9268 18.2477 27.3659 17.4743 27.2683 17.1843V11.7704C28.439 12.3505 30.2927 12.6405 32.0488 12.6405C33.8049 12.6405 35.6585 12.3505 36.8293 11.7704V17.1843ZM32.0488 38.7432C28.9268 38.7432 27.3659 37.9698 27.2683 37.6798V18.7311C28.439 19.3112 30.2927 19.6012 32.0488 19.6012C33.8049 19.6012 35.6585 19.3112 36.8293 18.7311V37.6798C36.7317 37.9698 35.1707 38.7432 32.0488 38.7432Z" fill="currentColor"/>
</svg>
