<svg viewBox="0 0 48 48" fill="none" xmlns="http://www.w3.org/2000/svg">
  <title>Clindamycin Glyph</title>
  <path fill-rule="evenodd" clip-rule="evenodd" d="M28.5461 8.25579L28.2903 8L27.9411 8.09438L12.6637 12.2234L12.3171 12.3171L12.2234 12.6637L8.09438 27.9411L8 28.2903L8.25579 28.5461L19.4042 39.6945L19.66 39.9503L20.0092 39.8559L35.2866 35.7269L35.6332 35.6332L35.7269 35.2866L39.8559 20.0092L39.9503 19.66L39.6945 19.4042L28.5461 8.25579ZM9.39547 27.918L13.3364 13.3364L27.918 9.39547L38.5548 20.0323L34.6139 34.6139L20.0323 38.5548L9.39547 27.918ZM18.6558 29.767C18.0814 27.9759 18.9035 26.2662 20.6603 25.7027C22.1857 25.2134 23.3635 25.7619 24.0681 26.8686L22.7741 27.2836C22.3702 26.761 21.8177 26.5413 21.0121 26.7996C19.9494 27.1405 19.5103 28.217 19.8813 29.3739C20.2551 30.5394 21.2413 31.1683 22.3125 30.8247C23.1523 30.5553 23.4976 29.9815 23.5163 29.3328L24.759 28.9342C24.8511 30.3413 24.1983 31.4296 22.6643 31.9216C20.899 32.4878 19.233 31.5666 18.6558 29.767ZM24.2155 24.4018L25.3296 24.0444L27.336 30.3004L26.222 30.6577L24.2155 24.4018ZM24.1179 17.4776H21.7042V16.2276H24.1179L22.3977 14.5074L23.2816 13.6235L25.0018 15.3437V12.93H26.2518V15.3437L27.9719 13.6235L28.8558 14.5074L27.1357 16.2276H29.5493V17.4776H27.1356L28.8558 19.1977L27.9719 20.0816L26.2518 18.3615V20.7752H25.0018V18.3615L23.2816 20.0816L22.3977 19.1977L24.1179 17.4776Z" fill="currentColor"/>
</svg>
