<svg width="48" height="48" viewBox="0 0 48 48" fill="none" xmlns="http://www.w3.org/2000/svg">
  <title>Clindamycin Glyph</title>
  <path fill-rule="evenodd" clip-rule="evenodd" d="M28.5763 8.25579L28.3205 8L27.9713 8.09438L12.6701 12.2298L12.3235 12.3235L12.2298 12.6701L8.09438 27.9713L8 28.3205L8.25579 28.5763L19.4215 39.742L19.6773 39.9978L20.0265 39.9034L35.3277 35.768L35.6743 35.6743L35.768 35.3277L39.9034 20.0265L39.9978 19.6773L39.742 19.4215L28.5763 8.25579ZM9.39547 27.9482L13.3429 13.3429L27.9482 9.39547L38.6024 20.0496L34.655 34.655L20.0496 38.6024L9.39547 27.9482ZM18.6685 29.7927C18.0941 28.0016 18.9162 26.2919 20.673 25.7285C22.1984 25.2392 23.3762 25.7877 24.0808 26.8943L22.7868 27.3094C22.3829 26.7868 21.8304 26.567 21.0248 26.8254C19.9621 27.1662 19.523 28.2428 19.894 29.3997C20.2678 30.5652 21.254 31.194 22.3252 30.8505C23.165 30.5811 23.5103 30.0072 23.529 29.3585L24.7717 28.96C24.8638 30.367 24.211 31.4554 22.677 31.9474C20.9116 32.5136 19.2457 31.5924 18.6685 29.7927ZM24.2282 24.4275L25.3422 24.0702L27.3487 30.3262L26.2347 30.6835L24.2282 24.4275ZM24.1442 17.4903H21.7244V16.2403H24.1442L22.4197 14.5158L23.3036 13.6319L25.0281 15.3564V12.9366H26.2781V15.3564L28.0026 13.6319L28.8865 14.5158L27.162 16.2403H29.5818V17.4903H27.162L28.8865 19.2147L28.0026 20.0986L26.2781 18.3741V20.7939H25.0281V18.3741L23.3036 20.0986L22.4197 19.2147L24.1442 17.4903Z" fill="currentColor"/>
</svg>
