<svg viewBox="0 0 80 80" xmlns="http://www.w3.org/2000/svg" xmlns:xlink="http://www.w3.org/1999/xlink">
  <title>Clindamycin</title>
  <g fill="none" fill-rule="evenodd">
    <path fill="#FEFEFE" d="M79.9999,39.9998 C79.9999,62.0918 62.0909,79.9998 39.9999,79.9998 C17.9089,79.9998 -0.0001,62.0918 -0.0001,39.9998 C-0.0001,17.9088 17.9089,-0.0002 39.9999,-0.0002 C62.0909,-0.0002 79.9999,17.9088 79.9999,39.9998"/>
    <path stroke="currentColor" stroke-linecap="round" stroke-width="2" d="M59.0961,63.5897 L45.1871,63.5897 L45.1871,34.6407 C45.1871,30.7997 48.3011,27.6867 52.1411,27.6867 C55.9821,27.6867 59.0961,30.7997 59.0961,34.6407 L59.0961,63.5897 Z"/>
    <polyline stroke="currentColor" stroke-linecap="round" stroke-width="2" points="48.664 27.686 48.664 21.274 55.076 21.274 55.076 27.686"/>
    <path stroke="currentColor" stroke-linecap="round" stroke-width="2" d="M41.7513 21.2743L57.9703 21.2743C61.0153 21.2743 63.4823 23.7423 63.4823 26.7873L63.4823 58.3573M61.5604 16.9764L55.0764 21.2744"/>
    <polygon stroke="currentColor" stroke-linecap="round" stroke-linejoin="round" stroke-width="2" points="41.397 23.129 27.758 25.595 27.758 16.951 41.397 19.417"/>
    <polygon stroke="currentColor" stroke-linecap="round" stroke-width="2" points="45.187 55.409 51.87 55.409 51.87 36.646 45.187 36.646"/>
    <path stroke="currentColor" stroke-linecap="round" stroke-linejoin="round" stroke-width="2" d="M23.9427,63.4598 C23.9427,63.4598 16.1147,61.9448 15.7027,53.4468 C15.3777,46.7648 20.1467,41.8308 20.1467,41.8308 C20.1467,41.8308 20.9237,44.1148 20.9237,46.6038 C20.9237,46.6038 24.6567,44.3778 26.0567,41.0578 C27.4567,37.7378 27.6117,33.5378 27.6117,33.5378 C27.6117,33.5378 30.2557,38.1158 31.8117,41.8308 C33.3667,45.5458 33.5327,46.2068 33.5327,46.2068 C33.5327,46.2068 34.9717,42.9748 35.4637,41.6608 C35.4637,41.6608 38.3377,45.6838 38.0087,51.6758 C37.6807,57.6678 34.6567,63.3838 28.2377,63.3838 C28.2377,63.3838 29.1467,62.0408 29.3897,58.4058 C29.6577,54.4088 26.3677,51.2848 26.3677,51.2848 C26.3677,51.2848 19.2637,55.4628 23.9427,63.4598 Z"/>
  </g>
</svg>
