<svg width="48" height="48" viewBox="0 0 48 48" fill="none" xmlns="http://www.w3.org/2000/svg">
  <title>Clock - Always Glyph</title>
  <path fill-rule="evenodd" clip-rule="evenodd" d="M29.0636 8V12.2001C34.6275 14.1569 38.63 19.454 38.6202 25.6899C38.6202 33.5763 32.2063 40 24.31 40C16.4237 40 10 33.5862 10 25.6899C10 19.5429 13.9036 14.3051 19.349 12.2792V8H29.0636ZM27.8283 9.23533H20.5843V11.8839C21.7801 11.5578 23.0253 11.37 24.3199 11.37C25.5256 11.37 26.7016 11.538 27.8283 11.8246V9.23533ZM11.2353 25.6899C11.2353 32.8944 17.0957 38.7647 24.31 38.7647C31.5244 38.7647 37.3848 32.8944 37.3848 25.6899C37.3848 18.4855 31.5145 12.6152 24.31 12.6152C17.1056 12.6152 11.2353 18.4855 11.2353 25.6899ZM19.5665 25.6799C19.5665 23.061 21.6912 20.9362 24.3101 20.9362C26.929 20.9362 29.0538 23.061 29.0538 25.6799C29.0538 28.2988 26.929 30.4236 24.3101 30.4236C21.6912 30.4236 19.5665 28.2988 19.5665 25.6799ZM20.8018 25.6898C20.8018 27.6268 22.3731 29.1981 24.3101 29.1981C26.2471 29.1981 27.8185 27.6268 27.8185 25.6898C27.8185 23.7528 26.2471 22.1814 24.3101 22.1814C22.3731 22.1814 20.8018 23.7528 20.8018 25.6898Z" fill="currentColor"/>
</svg>
