<svg width="48" height="48" viewBox="0 0 48 48" fill="none" xmlns="http://www.w3.org/2000/svg">
  <title>Clock - Most of the Time Glyph</title>
  <path d="M29.0636 12.2001V8H20.3966H19.3489V8.70167V12.2792C18.5287 12.5855 17.748 12.971 17.0068 13.4157C16.6411 13.6331 16.2953 13.8604 15.9494 14.1075C14.5954 15.0859 13.4095 16.3014 12.4707 17.685C12.2335 18.0309 12.0161 18.3965 11.8085 18.7721C10.9092 20.3928 10.3162 22.2014 10.0988 24.1186C10.0395 24.6325 10 25.1563 10 25.6899C10 25.7196 10 25.7492 10 25.7789C10.0494 33.596 16.404 39.9506 24.2211 40C24.2508 40 24.2804 40 24.31 40C24.8437 40 25.3675 39.9704 25.8814 39.9111C27.8085 39.7035 29.617 39.1007 31.2378 38.2014C31.6133 37.9938 31.9691 37.7764 32.3249 37.5392C33.7084 36.6004 34.9141 35.4145 35.9024 34.0605C36.1494 33.7245 36.3767 33.3687 36.5942 33.0031C37.533 31.4416 38.1754 29.6825 38.4521 27.8048C38.5312 27.281 38.5806 26.7474 38.6004 26.2038C38.6103 26.0259 38.63 25.8579 38.63 25.68C38.63 19.454 34.6275 14.1569 29.0636 12.2001ZM20.5843 9.23533H21.6319H27.8283V11.8246C26.7016 11.538 25.5256 11.37 24.3199 11.37C24.1421 11.37 23.9642 11.3799 23.7863 11.3897C23.2428 11.4095 22.7189 11.4589 22.1951 11.5479C21.6516 11.6368 21.1081 11.7455 20.5843 11.8839V9.937V9.23533ZM11.3144 27.0834L22.9166 38.6856C16.819 38.0334 11.9568 33.181 11.3144 27.0834ZM24.7251 38.7449L11.2551 25.2749C11.3144 23.2588 11.8283 21.3613 12.7078 19.6714L30.3187 37.2823C28.6387 38.1618 26.7313 38.6757 24.7251 38.7449ZM31.4256 36.6399L13.3502 18.5645C14.2693 17.1612 15.4453 15.9358 16.819 14.9771L35.013 33.1711C34.0544 34.5448 32.8388 35.7307 31.4256 36.6399ZM35.6949 32.1038L17.8863 14.3051C19.5071 13.386 21.3452 12.8128 23.302 12.6547L37.3453 26.698C37.1871 28.6448 36.614 30.483 35.6949 32.1038ZM25.0315 12.6448C31.6627 13.0105 36.9895 18.3274 37.3551 24.9685L25.0315 12.6448Z" fill="currentColor"/>
</svg>
