<svg viewBox="0 0 48 48" fill="none" xmlns="http://www.w3.org/2000/svg">
 <title>Clogged Pores Glyph</title>
  <path d="M28.2667 17.4614C28.2667 17.4058 28.2852 17.3501 28.2852 17.2852C28.2852 14.92 26.3652 13 24 13C21.6348 13 19.7148 14.9293 19.7148 17.2852C19.7148 17.3409 19.7333 17.3965 19.7333 17.4614C16.9136 18.927 14.938 21.793 14.7246 25.1414H8V26.3009H14.7246C15.0307 31.1612 19.0655 35.029 24 35.029C28.9345 35.029 32.9786 31.1612 33.2754 26.3009H40V25.1414H33.2754C33.062 21.793 31.0957 18.927 28.2667 17.4614ZM24 14.1594C25.6139 14.1594 26.931 15.3838 27.098 16.9513C26.1241 16.6081 25.0852 16.4133 24 16.4133C22.9148 16.4133 21.8759 16.6081 20.902 16.9513C21.069 15.3838 22.3861 14.1594 24 14.1594ZM26.9867 18.1478C26.6064 19.4556 25.4191 20.4203 23.9907 20.4203C22.5623 20.4203 21.3751 19.4556 20.9948 18.1478C21.9223 17.7768 22.9333 17.5727 23.9907 17.5727C25.0481 17.5727 26.0591 17.7768 26.9867 18.1478ZM19.9467 18.658C20.5217 20.3461 22.1078 21.5797 23.9907 21.5797C25.8736 21.5797 27.4597 20.3554 28.0348 18.658C30.3258 19.9751 31.9119 22.3681 32.1067 25.1414H15.8748C16.0788 22.3588 17.6649 19.9751 19.9467 18.658ZM24 33.8696C19.7055 33.8696 16.1809 30.5212 15.8841 26.3009H32.1159C31.8099 30.5212 28.2945 33.8696 24 33.8696Z" fill="currentColor"/>
</svg>
