<svg viewBox="0 0 48 48" fill="none" xmlns="http://www.w3.org/2000/svg">
  <title>Clogged Pores Glyph</title>
  <mask id="mask0" mask-type="alpha" maskUnits="userSpaceOnUse" x="7" y="12" width="35" height="24">
    <path d="M28.85 16.81C28.85 16.75 28.87 16.69 28.87 16.62C28.87 14.07 26.8 12 24.25 12C21.7 12 19.63 14.08 19.63 16.62C19.63 16.68 19.65 16.74 19.65 16.81C16.61 18.39 14.48 21.48 14.25 25.09H7V26.34H14.25C14.58 31.58 18.93 35.75 24.25 35.75C29.57 35.75 33.93 31.58 34.25 26.34H41.5V25.09H34.25C34.02 21.48 31.9 18.39 28.85 16.81ZM24.25 13.25C25.99 13.25 27.41 14.57 27.59 16.26C26.54 15.89 25.42 15.68 24.25 15.68C23.08 15.68 21.96 15.89 20.91 16.26C21.09 14.57 22.51 13.25 24.25 13.25ZM27.47 17.55C27.06 18.96 25.78 20 24.24 20C22.7 20 21.42 18.96 21.01 17.55C22.01 17.15 23.1 16.93 24.24 16.93C25.38 16.93 26.47 17.15 27.47 17.55ZM19.88 18.1C20.5 19.92 22.21 21.25 24.24 21.25C26.27 21.25 27.98 19.93 28.6 18.1C31.07 19.52 32.78 22.1 32.99 25.09H15.49C15.71 22.09 17.42 19.52 19.88 18.1ZM24.25 34.5C19.62 34.5 15.82 30.89 15.5 26.34H33C32.67 30.89 28.88 34.5 24.25 34.5Z" fill="white"/>
  </mask>
  <g mask="url(#mask0)">
    <rect x="0.0100098" y="-0.469971" width="48" height="48" fill="#332E54"/>
  </g>
</svg>
