<svg viewBox="0 0 45 45" xmlns="http://www.w3.org/2000/svg" xmlns:xlink="http://www.w3.org/1999/xlink">
  <title>Clogged Pores</title>
  <path fill-rule="evenodd" fill="currentColor" stroke="currentColor" stroke-width="2.133" transform="translate(8 14.211)" d="M6.5815 8.6934C6.5815 10.3634 5.2275 11.7154 3.5585 11.7154 1.8885 11.7154.5345 10.3634.5345 8.6934.5345 7.0224 1.8885 5.6704 3.5585 5.6704 5.2275 5.6704 6.5815 7.0224 6.5815 8.6934zM26.4613 3.334C26.4613 5.004 25.1073 6.356 23.4393 6.356 21.7693 6.356 20.4143 5.004 20.4143 3.334 20.4143 1.664 21.7693.311 23.4393.311 25.1073.311 26.4613 1.664 26.4613 3.334zM17.1674 15.9492C17.1674 17.6192 15.8134 18.9722 14.1444 18.9722 12.4744 18.9722 11.1194 17.6192 11.1194 15.9492 11.1194 14.2792 12.4744 12.9272 14.1444 12.9272 15.8134 12.9272 17.1674 14.2792 17.1674 15.9492z"/>
</svg>
