<svg width="48" height="48" viewBox="0 0 48 48" fill="none" xmlns="http://www.w3.org/2000/svg">
  <title>Clogged Pores Glyph</title>
  <path
    d="M31.53 8C26.58 8 23.25 11.51 23.25 16.73V31.23C23.25 34.58 21.51 38.5 16.62 38.5C12.36 38.5 9.5 35.67 9.5 31.46C9.5 26.84 13.31 24.74 16.85 24.74C19.34 24.74 19.98 24.75 20.14 24.75C20.17 24.75 20.21 24.75 20.25 24.75C20.66 24.74 20.99 24.4 20.99 23.99C20.98 23.56 20.98 23.38 20.2 23.3V23.26C20.14 23.26 20.08 23.27 20.02 23.29C19.42 23.25 18.44 23.25 16.85 23.25C12.45 23.25 8 26.07 8 31.47C8 36.49 11.54 40 16.62 40C22.24 40 24.75 35.59 24.75 31.23V21.36C26.15 23.32 28.48 24.74 31.53 24.74C36.28 24.74 40 21.14 40 16.55C40 11.59 36.44 8 31.53 8ZM31.53 23.24C27.13 23.24 24.75 19.89 24.75 16.73C24.75 12.34 27.41 9.5 31.53 9.5C35.63 9.5 38.5 12.4 38.5 16.54C38.5 20.3 35.44 23.24 31.53 23.24Z"
    fill="currentColor"
  />
  <path
    d="M32.8362 21.7706C35.8246 21.0649 37.6752 18.0703 36.9695 15.0819C36.2639 12.0935 33.2692 10.2429 30.2808 10.9486C27.2924 11.6542 25.4419 14.6488 26.1475 17.6373C26.8532 20.6257 29.8478 22.4762 32.8362 21.7706Z"
    fill="currentColor"
  />
  <path
    d="M16.43 37.25C19.5007 37.25 21.99 34.7607 21.99 31.69C21.99 28.6193 19.5007 26.13 16.43 26.13C13.3593 26.13 10.87 28.6193 10.87 31.69C10.87 34.7607 13.3593 37.25 16.43 37.25Z"
    fill="currentColor"
  />
</svg>
