<svg viewBox="0 0 48 48" fill="none" xmlns="http://www.w3.org/2000/svg">
  <title>Combination Glyph</title>
  <mask id="mask0" mask-type="alpha" maskUnits="userSpaceOnUse" x="10" y="10" width="28" height="27">
    <path fill-rule="evenodd" clip-rule="evenodd" d="M12.865 29.0301C14.045 29.9801 15.625 30.5001 17.285 30.5001C18.935 30.5001 20.495 29.9801 21.685 29.0601C24.975 26.4601 25.495 22.2401 22.945 18.7801C22.185 17.7401 21.435 16.8301 20.775 16.0301C19.135 14.0401 17.955 12.6001 17.915 10.9201V10.8401H16.665C16.665 12.6436 15.424 14.1393 13.5356 16.4153L13.5356 16.4153L13.515 16.4401C12.925 17.1401 12.295 17.9101 11.635 18.7601C9.05503 22.0801 9.57503 26.4001 12.865 29.0301ZM14.465 17.2401C15.675 15.7801 16.685 14.5601 17.285 13.3301C17.8282 14.4069 18.6801 15.4565 19.6504 16.6519L19.6504 16.6519L19.6504 16.6519L19.6505 16.6519L19.6505 16.6519L19.795 16.8301C20.445 17.6101 21.175 18.5101 21.925 19.5201C24.085 22.4501 23.675 25.8901 20.895 28.0801C19.935 28.8401 18.645 29.2601 17.275 29.2601C15.895 29.2601 14.605 28.8301 13.635 28.0601C10.865 25.8401 10.445 22.3301 12.615 19.5301C13.2359 18.7277 13.8386 17.9982 14.3882 17.3331L14.465 17.2401ZM29.371 25.6084L37.3812 22.9799L37.7709 24.1677L29.7607 26.7962L29.371 25.6084ZM26.8151 30.4348L26.0108 31.3917L29.999 34.7443L30.8034 33.7874L26.8151 30.4348ZM33.427 31.4533L37.3188 29.0202L37.9815 30.08L34.0896 32.5132L33.427 31.4533ZM21.9397 32.9366L18.0479 35.3697L18.7105 36.4296L22.6023 33.9965L21.9397 32.9366ZM27.5786 19.9477L29.4876 15.7516L30.6254 16.2693L28.7164 20.4653L27.5786 19.9477Z" fill="white"/>
  </mask>
  <g mask="url(#mask0)">
    <rect x="-0.224976" width="48" height="48" fill="currentColor"/>
  </g>
</svg>
