<svg viewBox="0 0 45 45" xmlns="http://www.w3.org/2000/svg" xmlns:xlink="http://www.w3.org/1999/xlink">
  <title>Combination</title>
  <g fill="none" fill-rule="evenodd" stroke-linecap="round" stroke-width="2" transform="translate(12 12)">
    <path stroke="currentColor" d="M18.7559847 12.5169903C18.7559847 13.5201116 17.9151232 14.3333333 16.8780168 14.3333333 15.8408127 14.3333333 15 13.5201116 15 12.5169903 15 11.068268 16.8780168 9.28388178 16.8780168 9.28388178 16.8780168 9.28388178 18.7559847 11.0879519 18.7559847 12.5169903zM18.7559847 3.51699031C18.7559847 4.52011164 17.9151232 5.33333333 16.8780168 5.33333333 15.8408127 5.33333333 15 4.52011164 15 3.51699031 15 2.06826805 16.8780168.283881779 16.8780168.283881779 16.8780168.283881779 18.7559847 2.0879519 18.7559847 3.51699031z"/>
    <path stroke="currentColor" d="M9.77595303 0C7.52199246 1.99452697 7.39530433 5.48475371 9.50003716 7.6387803 11.4944036 9.68021892 11.5006215 12.9507428 9.51480449 15M3.77595303 0C1.52199246 1.99452697 1.39530433 5.48475371 3.50003716 7.6387803 5.49440365 9.68021892 5.50062147 12.9507428 3.51480449 15M0 20L21 20"/>
  </g>
</svg>
