<svg viewBox="0 0 48 48" fill="none" xmlns="http://www.w3.org/2000/svg">
  <title>Combination Glyph</title>
  <path
    d="M16.79 28.4C14.74 25.7 14.56 20.99 14.56 20.94C14.55 20.53 14.2 20.2 13.8 20.21C13.39 20.22 13.07 20.55 13.06 20.96C13.06 21 13.03 25.42 10.7 28.39C9.44 30.01 8 31.84 8 34.21C8 37.44 10.5 39.88 13.81 39.88C17.29 39.88 19.62 37.52 19.62 34.01C19.62 31.92 18.43 30.45 17.39 29.16C17.19 28.9 16.99 28.65 16.79 28.4ZM13.81 38.38C11.31 38.38 9.49 36.62 9.49 34.2C9.49 32.35 10.7 30.8 11.93 29.23C12.83 28.08 13.42 26.76 13.81 25.52C14.19 26.82 14.75 28.18 15.6 29.3C15.8 29.57 16.02 29.83 16.23 30.09C17.21 31.3 18.13 32.45 18.13 34C18.13 36.71 16.48 38.38 13.81 38.38Z"
    fill="currentColor"
  />
  <path
    d="M39.34 38.51L36.99 38.24L35.49 37.46L35.02 36.81L35.07 35.76C35.34 35.02 35.7 34.16 35.84 33.91C35.94 33.82 36.01 33.71 36.06 33.59C36.15 33.33 36.25 33.04 35.25 31.45C35.24 31.44 35.24 31.43 35.23 31.43L35.63 30.72C36.02 30.63 36.39 30.54 36.44 30.53C36.6 30.53 36.75 30.53 38.48 29.75C38.54 29.72 38.6 29.69 38.65 29.64L39.73 28.74C39.96 28.55 40.05 28.24 39.97 27.96L39.63 26.79L39.42 25C39.41 24.9 39.38 24.81 39.33 24.72L38.67 23.54L38.48 22.14C38.43 21.74 38.05 21.44 37.66 21.5L35.6 21.73C35.37 21.76 35.17 21.88 35.05 22.07L34.72 22.59L33.8 21.66L32.69 20.75L33.04 19.46L33.67 18.47C33.71 18.4 33.75 18.32 33.77 18.24L34.12 16.76L34.44 15.04C34.47 14.91 34.45 14.77 34.41 14.64L34.08 13.74C34.15 13.7 34.22 13.68 34.27 13.63L35.58 12.3C35.7 12.18 35.78 12.01 35.79 11.84C35.82 11.55 35.87 11.21 35.92 11.03C36.23 10.77 36.4 10.19 36.4 8.75C36.4 8.34 36.07 8 35.66 8C35.25 8 34.91 8.33 34.91 8.75C34.91 9.2 34.87 9.71 34.83 9.96C34.61 10.17 34.43 10.59 34.33 11.43L33.35 12.43L31.96 12.81L31.83 12.8L30.73 11.9L30.26 10.98C30.23 10.93 30.2 10.88 30.16 10.84L28.89 9.35L29.01 9C29.15 8.61 28.95 8.18 28.56 8.04C28.17 7.9 27.74 8.1 27.6 8.49L27.33 9.24C27.24 9.49 27.29 9.78 27.46 9.98L28.96 11.74L29.47 12.72C29.52 12.81 29.58 12.89 29.66 12.96L31.06 14.1C31.18 14.19 31.32 14.25 31.47 14.26L31.66 14.28C31.74 14.31 31.83 14.33 31.93 14.33C31.97 14.33 32.02 14.32 32.07 14.31L32.72 14.37L32.94 14.95L32.66 16.43L32.35 17.76L31.72 18.74C31.68 18.8 31.65 18.87 31.63 18.95L31.41 19.77L30.81 19.32C30.55 19.13 30.2 19.12 29.93 19.31L28.69 20.18C28.64 20.21 28.6 20.25 28.56 20.29L28.36 20.51L26.69 20.16L25.59 19.65L25.36 17.98C25.35 17.9 25.33 17.83 25.29 17.76L24.62 16.39C24.5 16.14 24.24 15.98 23.97 15.97L21.77 15.92H20.63L19.43 14.42C19.4 14.38 19.36 14.34 19.32 14.31L18.73 13.82V13.08L18.91 11.73L20.29 9.09C20.48 8.73 20.34 8.27 19.98 8.08C19.62 7.89 19.16 8.03 18.97 8.39L17.52 11.17C17.48 11.24 17.45 11.32 17.44 11.41L17.26 12.71C17.24 12.7 17.22 12.68 17.19 12.68L14.35 12.09C14.28 12.08 14.2 12.07 14.13 12.08L12.88 12.2C12.7 12.03 12.55 11.87 12.49 11.79C12.3 11.18 11.67 10 11.11 9.82C10.71 9.67 9.7 9.03 9.63 8.63C9.57 8.22 9.19 7.95 8.78 8.01C8.37 8.07 8.09 8.46 8.16 8.86C8.36 10.11 9.96 10.93 10.49 11.17C10.65 11.38 10.98 11.98 11.07 12.21C11.1 12.46 11.28 12.77 12.1 13.53C12.25 13.67 12.46 13.74 12.67 13.72L14.15 13.58L16.7 14.1L18.3 15.41L19.23 16.58L19 17.64L18.34 19.58C18.31 19.68 18.29 19.78 18.3 19.89L18.51 22.22C18.51 22.24 18.52 22.26 18.53 22.29C18.53 22.31 18.54 22.33 18.55 22.35C18.56 22.4 18.57 22.45 18.59 22.5C18.6 22.53 18.6 22.55 18.61 22.58L19.01 23.33C19.03 23.38 19.06 23.42 19.1 23.46L20.35 24.93L21.19 25.71L21.14 26.82C21.13 27.1 21.27 27.37 21.52 27.51L22.84 28.24L23.37 28.5L23.2 28.88C23.13 29.04 23.12 29.21 23.17 29.38L23.76 31.51C23.77 31.56 23.79 31.61 23.82 31.66L24.4 32.75L24.7 33.71C24.76 33.91 24.91 34.08 25.11 34.17L26.57 34.82C26.66 34.86 26.77 34.88 26.87 34.88H28.31C28.5 35.01 28.8 35.27 28.91 35.41C28.96 35.78 29.02 36.76 29.03 36.9C29.03 37.09 29.03 37.29 29.74 38.25V39.23C29.74 39.64 30.07 39.98 30.49 39.98C30.91 39.98 31.24 39.65 31.24 39.23V38C31.24 37.83 31.19 37.68 31.09 37.54C30.86 37.24 30.62 36.9 30.53 36.74C30.51 36.33 30.44 35.38 30.39 35.07C30.28 34.41 29.04 33.38 28.5 33.38H27.05L26.04 32.93L25.82 32.23C25.81 32.19 25.79 32.15 25.77 32.11L25.2 31.04L24.7 29.24L25.04 28.45C25.2 28.09 25.04 27.66 24.69 27.48L23.56 26.91L22.68 26.42L22.73 25.43C22.74 25.21 22.65 25 22.49 24.85L21.46 23.89L20.32 22.54L20 21.98L19.81 19.92L20.44 18.05L20.58 17.42H21.75L23.48 17.46L23.89 18.31L24.16 20.27C24.2 20.52 24.36 20.74 24.59 20.85L26.14 21.57C26.19 21.59 26.25 21.61 26.3 21.62L27.72 21.91C27.76 22 27.82 22.08 27.9 22.15C27.92 22.17 27.95 22.17 27.97 22.19L28.42 23.44C28.76 24.83 28.99 25.52 29.25 25.85C29.29 26.12 29.31 26.67 29.32 27.12L29.14 28.8C29.12 29.02 29.19 29.25 29.35 29.41L30.7 30.77C30.73 30.8 30.76 30.82 30.79 30.85L31.58 31.43C31.71 31.52 31.86 31.57 32.02 31.57H33.23L34.02 32.32C34.22 32.64 34.4 32.97 34.51 33.19C34.3 33.55 34.03 34.19 33.61 35.35C33.58 35.42 33.57 35.49 33.57 35.57L33.52 36.48C33.35 36.73 33.35 37.07 33.53 37.33L33.57 37.39C33.61 37.47 33.66 37.54 33.73 37.61L34.36 38.49C34.43 38.58 34.52 38.66 34.62 38.71L36.4 39.64C36.48 39.68 36.57 39.71 36.66 39.72L39.17 40C39.2 40 39.23 40 39.25 40C39.62 40 39.95 39.72 39.99 39.34C40.04 38.93 39.75 38.56 39.34 38.51ZM12.5 11.81C12.52 11.86 12.56 11.95 12.56 12.09C12.56 12.02 12.54 11.93 12.5 11.81ZM32.27 30.07L31.73 29.67L30.68 28.6L30.83 27.2C30.83 25.99 30.79 25.13 30.39 24.79C30.26 24.47 30.05 23.7 29.87 23L29.37 21.63L29.62 21.34L30.35 20.83L31.44 21.65L32.79 22.75L34.32 24.3C34.48 24.46 34.71 24.53 34.93 24.52C35.16 24.49 35.36 24.37 35.48 24.18L36.12 23.17L37.1 23.06L37.21 23.88C37.22 23.97 37.25 24.06 37.3 24.15L37.96 25.33L38.16 27C38.16 27.04 38.17 27.08 38.18 27.12L38.4 27.88L37.77 28.41C37.19 28.67 36.52 28.96 36.31 29.03C36.16 29.05 35.83 29.11 34.94 29.34C34.74 29.39 34.57 29.52 34.47 29.7L34.1 30.36L34.03 30.3C33.89 30.17 33.71 30.1 33.52 30.1H32.27V30.07Z"
    fill="currentColor"
  />
</svg>
