<svg viewBox="0 0 48 48" fill="none" xmlns="https://www.w3.org/2000/svg">
  <title>Combination Glyph</title>
  <path fill-rule="evenodd" clip-rule="evenodd" d="M11.2765 30.3251C12.626 31.4388 14.4329 32.0485 16.3313 32.0485C18.2182 32.0485 20.0023 31.4388 21.3632 30.3603C25.1257 27.3121 25.7203 22.3648 22.8041 18.3084C21.935 17.0892 21.0773 16.0223 20.3225 15.0844C18.4469 12.7514 17.0975 11.0632 17.0517 9.09369V8.99988H15.6222C15.6222 11.1142 14.203 12.8677 12.0433 15.5361L12.0198 15.5651C11.3451 16.3857 10.6246 17.2885 9.86984 18.285C6.91931 22.1772 7.51399 27.2418 11.2765 30.3251ZM13.1063 16.503C14.49 14.7913 15.6451 13.361 16.3313 11.919C16.9525 13.1815 17.9267 14.412 19.0364 15.8134L19.2017 16.0223C19.9451 16.9367 20.7799 17.9919 21.6376 19.1759C24.1078 22.611 23.639 26.6439 20.4597 29.2113C19.3618 30.1023 17.8866 30.5947 16.3198 30.5947C14.7416 30.5947 13.2664 30.0906 12.1571 29.1879C8.98926 26.5853 8.50894 22.4703 10.9906 19.1877C11.7007 18.2469 12.3899 17.3918 13.0184 16.612L13.1063 16.503ZM30.153 26.3136L39.3135 23.2321L39.7592 24.6246L30.5987 27.7061L30.153 26.3136ZM27.23 31.9717L26.3101 33.0935L30.8711 37.024L31.791 35.9022L27.23 31.9717ZM34.7914 33.1662L39.2422 30.3137L40 31.5562L35.5492 34.4088L34.7914 33.1662ZM21.6544 34.9046L17.2036 37.7571L17.9614 38.9996L22.4122 36.1471L21.6544 34.9046ZM28.1031 19.6775L30.2863 14.7583L31.5875 15.3651L29.4043 20.2844L28.1031 19.6775Z" fill="currentColor"/>
</svg>
