<svg viewBox="0 0 48 48" fill="none" xmlns="http://www.w3.org/2000/svg">
  <title>Consult History Glyph</title>
  <path
    d="M34.51 9.68H31.7V8.75C31.7 8.34 31.36 8 30.95 8C30.54 8 30.2 8.34 30.2 8.75V9.68H17.79V8.75C17.79 8.34 17.46 8 17.04 8C16.62 8 16.29 8.34 16.29 8.75V9.68H13.49C10.46 9.68 8 12.15 8 15.17V34.51C8 37.54 10.46 40 13.49 40H34.52C37.55 40 40.01 37.54 40.01 34.51V15.17C40 12.15 37.54 9.68 34.51 9.68ZM13.49 11.18H16.3V11.94C16.3 12.35 16.64 12.69 17.05 12.69C17.46 12.69 17.8 12.35 17.8 11.94V11.18H30.21V11.88C30.21 12.29 30.55 12.63 30.96 12.63C31.37 12.63 31.71 12.29 31.71 11.88V11.18H34.52C36.72 11.18 38.51 12.97 38.51 15.17V21.03H9.51V15.17C9.5 12.97 11.29 11.18 13.49 11.18ZM34.51 38.5H13.49C11.29 38.5 9.5 36.71 9.5 34.51V22.53H38.5V34.51C38.5 36.71 36.71 38.5 34.51 38.5Z"
    fill="currentColor"
  />
  <path
    d="M17.04 18.25C17.82 18.25 18.46 17.61 18.46 16.83C18.46 16.05 17.82 15.41 17.04 15.41C16.25 15.41 15.62 16.05 15.62 16.83C15.62 17.62 16.26 18.25 17.04 18.25Z"
    fill="currentColor"
  />
  <path
    d="M30.96 18.25C31.74 18.25 32.38 17.61 32.38 16.83C32.38 16.05 31.74 15.41 30.96 15.41C30.17 15.41 29.54 16.05 29.54 16.83C29.53 17.62 30.17 18.25 30.96 18.25Z"
    fill="currentColor"
  />
  <path
    d="M31.63 29.76H19.08C19.94 28.91 20.63 27.69 20.63 26.05C20.63 25.64 20.29 25.3 19.88 25.3C19.47 25.3 19.13 25.64 19.13 26.05C19.13 28.93 16.28 29.79 16.16 29.82C15.84 29.91 15.62 30.19 15.61 30.52C15.6 30.85 15.81 31.14 16.12 31.25C16.24 31.29 19.16 32.31 19.16 34.97C19.16 35.38 19.5 35.72 19.91 35.72C20.32 35.72 20.66 35.38 20.66 34.97C20.66 33.27 19.86 32.07 18.97 31.26H31.61C32.02 31.26 32.36 30.92 32.36 30.51C32.36 30.1 32.04 29.76 31.63 29.76Z"
    fill="currentColor"
  />
</svg>
