<svg width="48" height="48" viewBox="0 0 48 48" fill="none" xmlns="http://www.w3.org/2000/svg">
  <title>Course Glyph</title>
  <path
    d="M39.76 38.7C34.55 33.8 25.71 33.55 24 33.55C18.06 33.55 12.33 35.41 8.28002 38.66C7.96002 38.92 7.90002 39.39 8.16002 39.71C8.31002 39.91 8.53002 40 8.75002 40C8.91002 40 9.08002 39.95 9.22002 39.83C13.01 36.79 18.39 35.05 24 35.05C25.62 35.05 33.93 35.28 38.74 39.79C39.04 40.07 39.52 40.06 39.8 39.76C40.08 39.46 40.07 38.99 39.76 38.7Z"
    fill="currentColor"
  />
  <path
    d="M24 32.12C24.41 32.12 24.75 31.78 24.75 31.37V9.5H37.44L34.32 12.62C34.03 12.91 34.03 13.39 34.32 13.68L37.44 16.8H26.74C26.33 16.8 25.99 17.14 25.99 17.55C25.99 17.96 26.33 18.3 26.74 18.3H39.25C39.55 18.3 39.83 18.12 39.94 17.84C40.06 17.56 39.99 17.24 39.78 17.02L35.9 13.15L39.77 9.28C39.98 9.07 40.05 8.74 39.93 8.46C39.82 8.18 39.55 8 39.25 8H24C23.59 8 23.25 8.34 23.25 8.75V31.37C23.25 31.78 23.59 32.12 24 32.12Z"
    fill="currentColor"
  />
</svg>
