<svg viewBox="0 0 50 50" xmlns="http://www.w3.org/2000/svg" xmlns:xlink="http://www.w3.org/1999/xlink">
    <title>Course</title>
    <g fill="none" fill-rule="evenodd" stroke-width="2" stroke="currentColor" stroke-linecap="round">
        <path d="m3 34.528485c4.85-7.686 8.051-14.013 12.195-14.007 5.463.009 11.921 12.562 11.921 12.562"/>
        <path d="m25.8222 35.504085c2.941-4.309 5.964-8.356 8.485-8.356 2.523 0 5.12 3.196 8.693 8.66"/>
        <path d="m11.8486 39.964985c2.941-4.309 5.964-8.356 8.485-8.356 2.523 0 5.12 3.196 8.693 8.66"/>
        <path d="m31.122 28.905385v-19.79499995"/>
        <path d="m31.2275 9.00208505c.516-.084 11.48 2.39299995 15.399 3.28399995.29.067.272.473-.022.515l-15.214 2.168"/>
    </g>
</svg>
