<svg viewBox="0 0 48 48" fill="none" xmlns="http://www.w3.org/2000/svg">
  <title>Dark Spots Glyph</title>
  <path fill-rule="evenodd" clip-rule="evenodd" d="M21.6538 13.6892C22.3084 17.424 19.8057 21.0047 16.071 21.6592C15.6667 21.7362 15.2721 21.7651 14.8871 21.7651C11.6144 21.7651 8.69785 19.4068 8.11069 16.0764C7.78342 14.2667 8.18768 12.4379 9.2465 10.9363C10.2957 9.43471 11.8743 8.42402 13.6839 8.10638C17.4186 7.44221 20.9897 9.95451 21.6538 13.6892ZM10.2283 11.6293C9.35237 12.871 9.02512 14.3823 9.28501 15.8742C9.82404 18.9544 12.7791 21.0143 15.8785 20.4656C18.9587 19.9266 21.0282 16.9715 20.4795 13.8914C19.9886 11.1481 17.5919 9.20371 14.8871 9.20371C14.5598 9.20371 14.2325 9.23258 13.8956 9.29033C12.4037 9.55985 11.0946 10.3876 10.2283 11.6293ZM14.1171 10.5801C16.4946 10.1566 18.7566 11.7544 19.1801 14.1223C19.594 16.4998 18.0058 18.7715 15.6379 19.1854C15.378 19.2335 15.1278 19.2527 14.8679 19.2527C13.9823 19.2527 13.116 18.9832 12.3748 18.4634C11.4123 17.7993 10.777 16.7886 10.5749 15.6431C10.1513 13.2656 11.7492 10.994 14.1171 10.5801ZM13.0582 17.4816C13.7513 17.9629 14.5983 18.1458 15.4261 18.0014C17.1395 17.703 18.2946 16.057 17.9962 14.3437C17.7267 12.8036 16.3887 11.7255 14.8775 11.7255C14.6946 11.7255 14.5117 11.7448 14.3288 11.7736C12.6059 12.072 11.4508 13.718 11.7588 15.441C11.9032 16.2688 12.3652 17.0004 13.0582 17.4816ZM39.8943 20.5331C39.5767 18.7235 38.566 17.1449 37.0644 16.0957C35.5628 15.0465 33.734 14.6326 31.9244 14.9599C30.1148 15.2775 28.5362 16.2882 27.487 17.7898C26.4282 19.2914 26.0239 21.1203 26.3512 22.9299C26.6784 24.7395 27.6795 26.3181 29.1811 27.3672C30.3554 28.1854 31.7126 28.6089 33.1083 28.6089C33.5126 28.6089 33.9169 28.5704 34.3211 28.503C36.1307 28.1854 37.7093 27.1747 38.7585 25.6731C39.8077 24.1715 40.212 22.3427 39.8943 20.5331ZM37.7671 24.9897C36.9008 26.2314 35.5917 27.0592 34.0998 27.3287C32.6078 27.5886 31.0966 27.2614 29.8549 26.3854C28.6132 25.5191 27.7854 24.2197 27.5158 22.7181C27.256 21.2261 27.5832 19.7149 28.4592 18.4732C29.3351 17.2315 30.6345 16.4037 32.1265 16.1342C32.4634 16.0765 32.7907 16.0476 33.1276 16.0476C34.2826 16.0476 35.4088 16.4037 36.3714 17.0775C37.6131 17.9438 38.4409 19.2433 38.7104 20.7448C38.9703 22.2368 38.6334 23.748 37.7671 24.9897ZM28.8153 22.4871C28.3917 20.1096 29.9896 17.838 32.3575 17.4241C34.735 17.0102 36.997 18.5984 37.4205 20.9663C37.8441 23.3438 36.2462 25.6154 33.8783 26.0293C33.6184 26.0775 33.3682 26.0967 33.1179 26.0967C31.0388 26.0967 29.1907 24.6047 28.8153 22.4871ZM29.9992 22.2754C30.2976 23.9983 31.9436 25.1438 33.6666 24.8454C35.3799 24.547 36.535 22.901 36.2366 21.1781C35.9671 19.638 34.6291 18.5599 33.1179 18.5599C32.935 18.5599 32.7521 18.5791 32.5692 18.608C30.8463 18.9064 29.6912 20.5524 29.9992 22.2754ZM18.4197 25.4805C14.6272 25.4805 11.5374 28.5703 11.5374 32.3628C11.5374 36.1553 14.6272 39.2451 18.4197 39.2451C22.2121 39.2451 25.3019 36.1553 25.3019 32.3628C25.2923 28.5703 22.2121 25.4805 18.4197 25.4805ZM18.4197 38.0419C15.2914 38.0419 12.7406 35.4911 12.7406 32.3628C12.7406 29.2345 15.2914 26.6837 18.4197 26.6837C21.548 26.6837 24.0987 29.2345 24.0987 32.3628C24.0891 35.4911 21.548 38.0419 18.4197 38.0419ZM14.0496 32.3629C14.0496 29.9565 16.0133 27.9929 18.4197 27.9929C20.8261 27.9929 22.7897 29.9565 22.7897 32.3629C22.7897 34.7693 20.8261 36.733 18.4197 36.733C16.0133 36.733 14.0496 34.7693 14.0496 32.3629ZM15.2528 32.3629C15.2528 34.1052 16.6774 35.5298 18.4197 35.5298C20.1619 35.5298 21.5865 34.1148 21.5865 32.3629C21.5865 30.6207 20.1619 29.1961 18.4197 29.1961C16.6774 29.1961 15.2528 30.6207 15.2528 32.3629Z" fill="currentColor"/>
</svg>
