<svg width="48" height="48" viewBox="0 0 48 48" fill="none" xmlns="http://www.w3.org/2000/svg">
  <title>Dark Spots Glyph</title>
  <path
    d="M17.02 17C17.29 16.21 17.22 15.42 16.82 14.74C16.24 13.72 14.96 13 13.13 12.65C12.18 12.46 11.53 12.05 11.25 11.45C11.02 10.95 11.12 10.47 11.28 10.19C11.45 9.9 11.74 9.7 12.15 9.59C12.98 9.37 14.16 9.58 15.02 10.09C16.62 11.04 16.97 12.13 17.07 13.8C17.09 14.21 17.44 14.53 17.86 14.5C18.27 14.48 18.59 14.12 18.56 13.71C18.46 11.69 17.94 10.08 15.8 8.8C14.58 8.08 13.01 7.81 11.78 8.14C10.97 8.35 10.35 8.8 9.97999 9.44C9.53999 10.21 9.49999 11.22 9.88999 12.07C10.37 13.12 11.42 13.84 12.85 14.12C14.22 14.39 15.17 14.87 15.53 15.49C15.71 15.8 15.73 16.13 15.6 16.52C15.54 16.71 15.4 16.98 14.94 17.14C14.08 17.43 12.68 17.16 11.67 16.5C10.29 15.6 9.57999 14.04 9.49999 12.97C9.46999 12.56 9.10999 12.24 8.69999 12.27C8.27999 12.3 7.96999 12.66 7.99999 13.08C8.10999 14.56 9.02999 16.58 10.85 17.76C11.84 18.4 13.05 18.75 14.14 18.75C14.6 18.75 15.04 18.69 15.43 18.55C16.22 18.28 16.77 17.74 17.02 17Z"
    fill="currentColor"
  />
  <path
    d="M39.74 21.73C39.46 21.02 38.98 20.54 38.35 20.33C37.53 20.05 36.72 20.1 36.01 20.48C35 21.02 34.25 22.18 33.79 23.93C33.54 24.87 33.08 25.49 32.46 25.72C31.95 25.91 31.48 25.78 31.21 25.6C30.79 25.32 30.62 24.82 30.55 24.46C30.39 23.61 30.61 22.57 31.11 21.86C32.15 20.36 33.5 19.76 35.09 20.06C35.5 20.14 35.89 19.87 35.97 19.46C36.05 19.05 35.78 18.66 35.37 18.58C33.2 18.18 31.25 19.03 29.88 21C29.15 22.05 28.84 23.48 29.08 24.73C29.25 25.66 29.7 26.39 30.38 26.84C31.12 27.34 32.13 27.44 33 27.12C34.08 26.72 34.88 25.72 35.25 24.31C35.6 23 36.11 22.13 36.73 21.8C37.07 21.62 37.45 21.6 37.88 21.75C38.08 21.82 38.24 22 38.36 22.29C38.64 23 38.6 24.32 37.87 25.68C37.19 26.95 35.7 27.57 33.99 27.31C33.59 27.25 33.2 27.53 33.14 27.94C33.08 28.35 33.36 28.73 33.77 28.79C34.11 28.84 34.44 28.87 34.77 28.87C36.71 28.87 38.36 27.97 39.2 26.38C40.01 24.81 40.23 22.98 39.74 21.73Z"
    fill="currentColor"
  />
  <path
    d="M23.48 30.36C22.78 29.85 21.96 29.66 21.1 29.82C20.33 29.97 19.73 30.42 19.39 31.1C18.85 32.21 19.05 33.81 19.96 35.59C20.44 36.52 20.49 37.39 20.1 37.97C19.87 38.33 19.5 38.52 19.09 38.49C17.73 38.4 16.93 36.97 16.77 35.68C16.55 33.92 17.09 32.6 18.32 31.85C18.67 31.64 18.79 31.18 18.58 30.82C18.36 30.46 17.9 30.35 17.55 30.56C15.79 31.62 14.99 33.5 15.28 35.86C15.53 37.8 16.77 39.83 18.98 39.98C19.04 39.98 19.1 39.99 19.16 39.99C20.04 39.99 20.85 39.55 21.34 38.8C22.03 37.76 22.01 36.34 21.28 34.91C20.61 33.6 20.4 32.42 20.72 31.76C20.85 31.5 21.06 31.35 21.36 31.29C21.81 31.21 22.21 31.29 22.58 31.56C23.25 32.06 23.73 33.09 23.88 34.39C24.07 35.98 23.26 37.5 22.43 38.25C22.12 38.53 22.1 39 22.38 39.31C22.66 39.62 23.13 39.64 23.44 39.36C24.58 38.33 25.62 36.33 25.37 34.21C25.18 32.48 24.51 31.11 23.48 30.36Z"
    fill="currentColor"
  />
</svg>
