<svg viewBox="0 0 48 48" fill="none" xmlns="http://www.w3.org/2000/svg">
  <title>Dark Spots Glyph</title>
  <mask id="mask0" mask-type="alpha" maskUnits="userSpaceOnUse" x="7" y="8" width="34" height="33">
    <path fill-rule="evenodd" clip-rule="evenodd" d="M21.185 13.9107C21.865 17.7907 19.265 21.5107 15.385 22.1907C14.965 22.2707 14.555 22.3006 14.155 22.3006C10.755 22.3006 7.72499 19.8506 7.11499 16.3906C6.77499 14.5106 7.19498 12.6106 8.29498 11.0506C9.38498 9.49065 11.025 8.44064 12.905 8.11064C16.785 7.42064 20.495 10.0307 21.185 13.9107ZM9.31497 11.7706C8.40497 13.0606 8.06499 14.6307 8.33499 16.1807C8.89499 19.3807 11.965 21.5207 15.185 20.9507C18.385 20.3907 20.535 17.3207 19.965 14.1207C19.455 11.2707 16.965 9.25066 14.155 9.25066C13.815 9.25066 13.475 9.28065 13.125 9.34065C11.575 9.62065 10.215 10.4806 9.31497 11.7706ZM13.355 10.6807C15.825 10.2407 18.175 11.9007 18.615 14.3607C19.045 16.8307 17.395 19.1907 14.935 19.6207C14.665 19.6707 14.405 19.6907 14.135 19.6907C13.215 19.6907 12.315 19.4107 11.545 18.8707C10.545 18.1807 9.88502 17.1307 9.67502 15.9407C9.23502 13.4707 10.895 11.1107 13.355 10.6807ZM12.255 17.8507C12.975 18.3507 13.855 18.5407 14.715 18.3907C16.495 18.0807 17.695 16.3707 17.385 14.5907C17.105 12.9907 15.715 11.8707 14.145 11.8707C13.955 11.8707 13.765 11.8907 13.575 11.9207C11.785 12.2307 10.585 13.9407 10.905 15.7307C11.055 16.5907 11.535 17.3507 12.255 17.8507ZM40.135 21.0207C39.805 19.1407 38.755 17.5007 37.195 16.4107C35.635 15.3207 33.735 14.8907 31.855 15.2307C29.975 15.5607 28.335 16.6107 27.245 18.1707C26.145 19.7307 25.725 21.6307 26.065 23.5107C26.405 25.3907 27.445 27.0307 29.005 28.1207C30.225 28.9707 31.635 29.4107 33.085 29.4107C33.505 29.4107 33.925 29.3707 34.345 29.3007C36.225 28.9707 37.865 27.9207 38.955 26.3607C40.045 24.8007 40.465 22.9007 40.135 21.0207ZM37.925 25.6507C37.025 26.9407 35.665 27.8007 34.115 28.0807C32.565 28.3507 30.995 28.0107 29.705 27.1007C28.415 26.2007 27.555 24.8507 27.275 23.2907C27.005 21.7407 27.345 20.1707 28.255 18.8807C29.165 17.5907 30.515 16.7307 32.065 16.4507C32.415 16.3907 32.755 16.3607 33.105 16.3607C34.305 16.3607 35.475 16.7307 36.475 17.4307C37.765 18.3307 38.625 19.6807 38.905 21.2407C39.175 22.7907 38.825 24.3607 37.925 25.6507ZM28.625 23.0507C28.185 20.5807 29.845 18.2207 32.305 17.7907C34.775 17.3607 37.125 19.0107 37.565 21.4707C38.005 23.9407 36.345 26.3007 33.885 26.7307C33.615 26.7807 33.355 26.8007 33.095 26.8007C30.935 26.8007 29.015 25.2507 28.625 23.0507ZM29.855 22.8307C30.165 24.6207 31.875 25.8107 33.665 25.5007C35.445 25.1907 36.645 23.4807 36.335 21.6907C36.055 20.0907 34.665 18.9707 33.095 18.9707C32.905 18.9707 32.715 18.9907 32.525 19.0207C30.735 19.3307 29.535 21.0407 29.855 22.8307ZM17.825 26.1607C13.885 26.1607 10.675 29.3707 10.675 33.3107C10.675 37.2507 13.885 40.4607 17.825 40.4607C21.765 40.4607 24.975 37.2507 24.975 33.3107C24.965 29.3707 21.765 26.1607 17.825 26.1607ZM17.825 39.2107C14.575 39.2107 11.925 36.5607 11.925 33.3107C11.925 30.0607 14.575 27.4107 17.825 27.4107C21.075 27.4107 23.725 30.0607 23.725 33.3107C23.715 36.5607 21.075 39.2107 17.825 39.2107ZM13.285 33.3107C13.285 30.8107 15.325 28.7707 17.825 28.7707C20.325 28.7707 22.365 30.8107 22.365 33.3107C22.365 35.8107 20.325 37.8507 17.825 37.8507C15.325 37.8507 13.285 35.8107 13.285 33.3107ZM14.535 33.3107C14.535 35.1207 16.015 36.6007 17.825 36.6007C19.635 36.6007 21.115 35.1307 21.115 33.3107C21.115 31.5007 19.635 30.0207 17.825 30.0207C16.015 30.0207 14.535 31.5007 14.535 33.3107Z" fill="white"/>
  </mask>
  <g mask="url(#mask0)">
    <rect x="-0.335022" y="0.310547" width="48" height="48" fill="#332E54"/>
  </g>
</svg>
