<svg viewBox="0 0 45 45" xmlns="http://www.w3.org/2000/svg" xmlns:xlink="http://www.w3.org/1999/xlink">
  <title>Dark Spots</title>
  <g fill-rule="evenodd" fill="currentColor" transform="translate(13 12.866)">
    <path d="M10.099,7.0722 C8.628,7.0722 7.432,8.2682 7.432,9.7392 C7.432,11.2102 8.628,12.4062 10.099,12.4062 C11.57,12.4062 12.766,11.2102 12.766,9.7392 C12.766,8.2682 11.57,7.0722 10.099,7.0722 M10.099,14.5392 C7.453,14.5392 5.299,12.3852 5.299,9.7392 C5.299,7.0932 7.453,4.9392 10.099,4.9392 C12.745,4.9392 14.899,7.0932 14.899,9.7392 C14.899,12.3852 12.745,14.5392 10.099,14.5392"/>
    <path d="M10.1,2.6113 C6.168,2.6113 2.97,5.8083 2.97,9.7393 C2.97,13.6703 6.168,16.8673 10.1,16.8673 C14.031,16.8673 17.228,13.6703 17.228,9.7393 C17.228,5.8083 14.031,2.6113 10.1,2.6113 M10.1,19.0003 C4.993,19.0003 0.837,14.8453 0.837,9.7393 C0.837,4.6323 4.993,0.4783 10.1,0.4783 C15.206,0.4783 19.361,4.6323 19.361,9.7393 C19.361,14.8453 15.206,19.0003 10.1,19.0003"/>
  </g>
</svg>
