<svg viewBox="0 0 62 75" stroke="currentColor" stroke-width="3" fill="none" xmlns="http://www.w3.org/2000/svg" xmlns:xlink="http://www.w3.org/1999/xlink">
  <title>Dropper</title>
  <path d="M56.0490337,2.19313431 C53.9715157,0.123693137 49.4894434,-0.499993137 47.1121422,1.86876176 L37.5819735,11.3354284 L46.8584795,20.5744775 L56.3879494,11.1078108 C58.7659494,8.73905588 58.1265518,4.26257549 56.0490337,2.19313431 L56.0490337,2.19313431 Z"/>
  <path d="M46.7418506,20.703948 C46.7418506,20.703948 29.0329831,38.1845657 25.3070072,41.896752 C21.5803325,45.6082422 17.8983807,41.1609971 12.2905494,46.7470265 L11.3150313,45.7746049 C16.9221639,40.1892716 12.4575614,36.5209382 16.1842361,32.809448 C19.910212,29.0979578 37.4597542,11.4579382 37.4597542,11.4579382"/>
  <path d="M34.2307614,7.99703627 L50.0535807,23.7583402"/>
  <path d="M11.5633133,61.4470892 L6.51172289,54.576099 L1.48109639,61.3329324 C0.771120482,62.3290206 0.349048193,63.5443735 0.349048193,64.8592657 C0.349048193,68.2317657 3.09391566,70.9652657 6.47887952,70.9652657 C9.86454217,70.9652657 12.6094096,68.2317657 12.6094096,64.8592657 C12.6094096,63.5951873 12.2236747,62.421599 11.5633133,61.4470892 L11.5633133,61.4470892 Z"/>
</svg>
