<svg width="48" height="48" viewBox="0 0 48 48" fill="none" xmlns="http://www.w3.org/2000/svg">
  <title>Dropper Glyph</title>
  <path
    d="M23.18 14.34L20.73 11.89C20.44 11.6 19.96 11.6 19.67 11.89C19.38 12.18 19.38 12.66 19.67 12.95L21.59 14.87L14.98 21.5L13.59 20.1L18.3 15.38C18.59 15.09 18.59 14.62 18.3 14.32C18.3 14.32 13.56 9.49 13.11 9.04C12.61 8.54 11.71 8 10.71 8C10.01 8 9.37 8.27 8.87 8.77C7.95 9.69 7.93 10.65 8.06 11.29C8.24 12.14 8.78 12.78 9.09 13.08L12.23 16.22L13.29 15.16L10.15 12.02C10 11.87 9.63 11.47 9.53 10.98C9.44 10.56 9.57 10.2 9.93 9.83C10.15 9.61 10.41 9.5 10.71 9.5C11.22 9.5 11.76 9.81 12.06 10.11C12.41 10.46 15.47 13.58 16.72 14.85L12 19.57C11.71 19.86 11.71 20.34 12 20.63L14.45 23.08C14.59 23.22 14.78 23.3 14.98 23.3C15.18 23.3 15.37 23.22 15.51 23.08L23.18 15.4C23.47 15.11 23.47 14.64 23.18 14.34Z"
    fill="currentColor"
  />
  <path
    d="M39.78 37.45C38.66 36.33 38.69 34.42 38.69 34.41C38.7 34.2 38.62 34 38.47 33.86L23.26 18.63C22.97 18.34 22.49 18.34 22.2 18.63C21.91 18.92 21.91 19.4 22.2 19.69L37.2 34.7C37.23 35.34 37.4 36.75 38.24 37.93L37.94 38.23C36.75 37.39 35.35 37.22 34.71 37.19L19.51 21.97C19.22 21.68 18.74 21.68 18.45 21.97C18.16 22.26 18.16 22.74 18.45 23.03L33.86 38.46C34.01 38.61 34.21 38.7 34.42 38.68C34.44 38.68 36.32 38.64 37.45 39.77C37.6 39.92 37.79 40 37.99 40C38.19 40 38.38 39.92 38.52 39.78L39.78 38.52C40.07 38.22 40.07 37.75 39.78 37.45Z"
    fill="currentColor"
  />
</svg>
