<svg viewBox="0 0 48 48" fill="none" xmlns="http://www.w3.org/2000/svg">
  <title>Exercise Glyph</title>
  <path
    d="M12.94 26.73H8.75C8.34 26.73 8 27.07 8 27.48V39.25C8 39.66 8.34 40 8.75 40H12.94C13.35 40 13.69 39.66 13.69 39.25V27.48C13.69 27.07 13.35 26.73 12.94 26.73ZM12.19 38.5H9.5V28.23H12.19V38.5Z"
    fill="#2D2A26"
  />
  <path
    d="M39.25 26.73H35.06C34.65 26.73 34.31 27.07 34.31 27.48V39.25C34.31 39.66 34.65 40 35.06 40H39.25C39.66 40 40 39.66 40 39.25V27.48C40 27.07 39.66 26.73 39.25 26.73ZM38.5 38.5H35.81V28.23H38.5V38.5Z"
    fill="#2D2A26"
  />
  <path
    d="M36.41 22.27V25.05C36.41 25.46 36.75 25.8 37.16 25.8C37.57 25.8 37.91 25.46 37.91 25.05V22.27C37.91 13.07 34 8 26.89 8C23.52 8 20.64 9.47 18.67 11.93C14.41 12.67 10.09 16.36 10.09 24.92C10.09 25.33 10.43 25.67 10.84 25.67C11.25 25.67 11.59 25.33 11.59 24.92C11.59 18.31 14.28 14.98 17.45 13.8C16.44 15.72 15.87 18.03 15.87 20.58C15.87 24.92 18.03 31.39 24 31.39C28.41 31.39 31.05 28.04 31.05 22.42C31.05 19.97 30.31 12.08 20.89 11.8C22.49 10.35 24.56 9.51 26.9 9.51C34.76 9.5 36.41 16.44 36.41 22.27ZM29.55 22.42C29.55 25.21 28.83 29.89 24 29.89C19.17 29.89 17.37 24.18 17.37 20.58C17.37 17.73 18.16 15.23 19.52 13.33C19.8 13.3 20.08 13.29 20.36 13.29C28.65 13.28 29.55 19.67 29.55 22.42Z"
    fill="#2D2A26"
  />
</svg>
