<svg viewBox="0 0 48 48" fill="none" xmlns="http://www.w3.org/2000/svg">
  <title>Exfoliating Mask Glyph</title>
  <path d="M26.1 37.6129L24 37.0129L22 37.6129L21.8 37.5129C20.9 37.1129 13 33.0129 13 28.8129V25.8129L13.5 24.0129L13 22.0129V20.9129C13 15.6129 16.7 11.0129 21.9 10.0129C22.6 9.91287 23.5 10.4129 24.1 10.9129C24.7 10.5129 25.6 9.91287 26.3 10.1129C31.4 11.1129 35.1 15.7129 35.1 20.9129V22.2129L34.6 24.0129L35.1 25.7129V28.8129C35.1 32.9129 27.2 37.0129 26.3 37.5129L26.1 37.6129ZM24 35.7129L25.9 36.3129C28.3 35.1129 33.8 31.6129 33.8 28.8129V25.8129L33.3 24.0129L33.8 21.9129V20.8129C33.8 16.2129 30.5 12.1129 26 11.2129C25.8 11.2129 25 11.6129 24.4 12.1129L24 12.5129L23.6 12.2129C23.1 11.7129 22.3 11.3129 22.1 11.3129C17.5 12.2129 14.2 16.2129 14.2 20.9129V21.9129L14.7 24.1129L14.2 26.1129V28.8129C14.2 31.6129 19.7 35.0129 22.1 36.3129L24 35.7129Z" fill="currentColor"/>
  <path d="M18 28.213C18 28.5443 17.7314 28.813 17.4 28.813C17.0687 28.813 16.8 28.5443 16.8 28.213C16.8 27.8816 17.0687 27.613 17.4 27.613C17.7314 27.613 18 27.8816 18 28.213Z" fill="currentColor"/>
  <path d="M22 29.9127C22 30.244 21.7314 30.5127 21.4 30.5127C21.0687 30.5127 20.8 30.244 20.8 29.9127C20.8 29.5813 21.0687 29.3127 21.4 29.3127C21.7314 29.3127 22 29.5813 22 29.9127Z" fill="currentColor"/>
  <path d="M27.7001 28.813C28.0315 28.813 28.3001 28.5443 28.3001 28.213C28.3001 27.8816 28.0315 27.613 27.7001 27.613C27.3687 27.613 27.1001 27.8816 27.1001 28.213C27.1001 28.5443 27.3687 28.813 27.7001 28.813Z" fill="currentColor"/>
  <path d="M32.2 29.9127C32.2 30.244 31.9314 30.5127 31.6 30.5127C31.2686 30.5127 31 30.244 31 29.9127C31 29.5813 31.2686 29.3127 31.6 29.3127C31.9314 29.3127 32.2 29.5813 32.2 29.9127Z" fill="currentColor"/>
  <path d="M19.3 23.3129C18.3 23.3129 17.4 22.8129 16.8 22.0129L16.5 21.6129L16.8 21.2129C17.4 20.4129 18.3 20.0129 19.3 20.0129C20.3 20.0129 21.2 20.5129 21.8 21.3129L22.1 21.7129L21.8 22.0129C21.2 22.8129 20.3 23.3129 19.3 23.3129ZM18.1 21.6129C18.8 22.1129 19.8 22.1129 20.4 21.6129C19.8 21.1129 18.8 21.1129 18.1 21.6129Z" fill="currentColor"/>
  <path d="M28.8 23.3129C27.8 23.3129 26.9 22.8129 26.3 22.0129L26 21.6129L26.3 21.2129C26.9 20.4129 27.8 19.9129 28.8 19.9129C29.8 19.9129 30.7 20.4129 31.3 21.2129L31.6 21.6129L31.3 22.0129C30.7 22.8129 29.8 23.3129 28.8 23.3129ZM27.6 21.6129C28.3 22.1129 29.3 22.1129 29.9 21.6129C29.3 21.1129 28.3 21.1129 27.6 21.6129Z" fill="currentColor"/>
</svg>
