<svg width="48" height="48" viewBox="0 0 48 48" fill="none" xmlns="http://www.w3.org/2000/svg">
  <title>Eye Closed Glyph</title>
  <path d="M12.5489 18.166C12.8659 18.0694 13.2011 18.2482 13.2976 18.5652C14.627 22.9314 18.6104 26.1127 23.4177 26.1127C24.9797 26.1127 26.4555 25.7766 27.7817 25.1727L27.7943 25.167L27.8057 25.159C27.821 25.1482 27.837 25.138 27.8537 25.1285C27.899 25.1027 27.946 25.0835 27.9937 25.0704L28.0072 25.0667L28.0198 25.0606C30.6559 23.7788 32.6666 21.4266 33.5378 18.5652C33.6343 18.2482 33.9696 18.0694 34.2866 18.166C34.6036 18.2625 34.7823 18.5977 34.6858 18.9147C34.3826 19.9105 33.9546 20.8516 33.4194 21.7186L33.357 21.8197L36.8147 25.2692C37.0493 25.5033 37.0497 25.8832 36.8157 26.1178C36.5816 26.3524 36.2017 26.3528 35.9671 26.1188L32.6558 22.8152L32.5512 22.9449C31.6065 24.1154 30.445 25.1011 29.1241 25.8381L28.9918 25.912L31.3019 29.9586C31.4662 30.2464 31.3661 30.6128 31.0783 30.7771C30.7906 30.9414 30.4241 30.8413 30.2598 30.5535L27.9051 26.4288L27.7838 26.4774C26.6043 26.9498 25.3272 27.2361 23.9854 27.2993L23.8424 27.3061V32.0278C23.8424 32.3592 23.5738 32.6278 23.2424 32.6278C22.911 32.6278 22.6424 32.3592 22.6424 32.0278V27.2885L22.5038 27.278C21.2354 27.1812 20.0284 26.8846 18.9112 26.4201L18.789 26.3693L16.4003 30.5535C16.2361 30.8413 15.8696 30.9414 15.5818 30.7771C15.294 30.6128 15.1939 30.2464 15.3582 29.9586L17.7102 25.8386L17.5806 25.7641C16.3495 25.0561 15.2607 24.1305 14.362 23.0402L14.2571 22.9129L11.0436 26.1188C10.809 26.3528 10.4291 26.3524 10.1951 26.1178C9.96107 25.8832 9.96152 25.5033 10.1961 25.2692L13.5467 21.9266L13.4826 21.825C12.9162 20.9289 12.4653 19.9514 12.1496 18.9147C12.0531 18.5977 12.2319 18.2625 12.5489 18.166Z" fill="currentColor"/>
  <path fill-rule="evenodd" clip-rule="evenodd" d="M12.5052 18.0225C12.9014 17.9018 13.3205 18.1252 13.4411 18.5215C14.7522 22.8276 18.6795 25.9627 23.4177 25.9627C24.958 25.9627 26.4126 25.6314 27.7195 25.0362C27.7387 25.0228 27.7586 25.0101 27.7794 24.9983C27.8357 24.9661 27.8944 24.942 27.9543 24.9257C30.5507 23.6632 32.5326 21.3464 33.3926 18.5271L33.3943 18.5215L33.438 18.378L33.4524 18.3824C33.6186 18.0751 33.9832 17.9168 34.3303 18.0225C34.7265 18.1431 34.9499 18.5621 34.8293 18.9584C34.5223 19.9666 34.089 20.9196 33.547 21.7974L36.9206 25.1631C37.2138 25.4556 37.2144 25.9305 36.9218 26.2237C36.6293 26.5169 36.1544 26.5175 35.8612 26.225L32.6679 23.0391C31.7113 24.2243 30.5351 25.2226 29.1972 25.9691L31.4322 29.8842C31.6376 30.2439 31.5124 30.702 31.1527 30.9074C30.793 31.1128 30.3349 30.9876 30.1295 30.6279L27.8396 26.6166C26.6447 27.0952 25.3512 27.3851 23.9924 27.4492L23.9924 32.0278C23.9924 32.442 23.6566 32.7778 23.2424 32.7778C22.8282 32.7778 22.4924 32.442 22.4924 32.0278V27.4275C21.2079 27.3296 19.9854 27.0291 18.8537 26.5586L16.5306 30.6279C16.3253 30.9876 15.8672 31.1128 15.5074 30.9074C15.1477 30.702 15.0226 30.2439 15.2279 29.8842L17.5058 25.8941C16.2588 25.177 15.1563 24.2396 14.2462 23.1356L11.1496 26.225C10.8563 26.5175 10.3815 26.5169 10.0889 26.2237C9.79637 25.9305 9.79693 25.4556 10.0902 25.163L13.3558 21.9052C12.7823 20.9978 12.3257 20.008 12.0061 18.9584C11.8855 18.5621 12.1089 18.1431 12.5052 18.0225ZM33.6813 18.6089C32.7981 21.5098 30.7594 23.8953 28.0854 25.1955L28.0602 25.2078L28.0332 25.2151C27.9976 25.2249 27.9623 25.2393 27.9281 25.2588C27.9155 25.266 27.9034 25.2737 27.8919 25.2818L27.8691 25.2977L27.8438 25.3093C26.4984 25.9219 25.0015 26.2627 23.4177 26.2627C18.5413 26.2627 14.5018 23.0352 13.1541 18.6089C13.0817 18.3711 12.8303 18.2371 12.5926 18.3095C12.3548 18.3818 12.2207 18.6333 12.2931 18.871C12.6048 19.8947 13.0501 20.86 13.6094 21.7449L13.7377 21.9479L10.3021 25.3754C10.1261 25.551 10.1258 25.8359 10.3013 26.0118C10.4768 26.1878 10.7617 26.1881 10.9377 26.0126L14.2679 22.6902L14.4777 22.9448C15.3651 24.0214 16.4401 24.9352 17.6553 25.634L17.9146 25.7831L15.4885 30.033C15.3653 30.2488 15.4403 30.5236 15.6562 30.6469C15.872 30.7701 16.1469 30.695 16.2701 30.4792L18.7244 26.1799L18.9688 26.2816C20.0715 26.7401 21.2629 27.0329 22.5152 27.1284L22.7924 27.1496V32.0278C22.7924 32.2763 22.9939 32.4778 23.2424 32.4778C23.4909 32.4778 23.6924 32.2763 23.6924 32.0278V27.163L23.9783 27.1495C25.3032 27.0871 26.5639 26.8044 27.7281 26.3381L27.9706 26.241L30.3901 30.4792C30.5133 30.695 30.7881 30.7701 31.004 30.6469C31.2198 30.5236 31.2949 30.2488 31.1717 30.033L28.7865 25.8548L29.051 25.7072C30.3548 24.9796 31.5016 24.0065 32.4344 22.8507L32.6438 22.5913L36.0731 26.0126C36.249 26.1881 36.5339 26.1878 36.7095 26.0118C36.885 25.8359 36.8847 25.551 36.7087 25.3754L33.1669 21.8419L33.2917 21.6398C33.8203 20.7837 34.2429 19.8543 34.5423 18.871C34.6147 18.6333 34.4806 18.3818 34.2429 18.3095C34.0051 18.2371 33.7537 18.3711 33.6813 18.6089Z" fill="currentColor"/>
</svg>
