<svg viewBox="0 0 48 48" fill="none" xmlns="http://www.w3.org/2000/svg">
  <title>Eyecream Glyph</title>
  <path d="M24.046 30.1068C26.8106 30.1068 29.3778 28.8232 31.0563 26.651L31.3525 26.2561L31.0563 25.8611C29.3778 23.6889 26.8106 22.4053 24.046 22.4053C21.2813 22.4053 18.7141 23.6889 17.0356 25.8611L16.7394 26.2561L17.0356 26.651C18.7141 28.8232 21.2813 30.1068 24.046 30.1068ZM24.046 23.9851C25.2308 23.9851 26.3169 24.9725 26.3169 26.2561C26.3169 27.5396 25.3295 28.527 24.046 28.527C22.7624 28.527 21.775 27.5396 21.775 26.2561C21.775 24.9725 22.7624 23.9851 24.046 23.9851ZM29.7727 26.2561C28.9828 27.2434 27.8967 27.9346 26.8106 28.3295C27.2056 27.7371 27.5018 27.046 27.5018 26.2561C27.5018 25.4662 27.2056 24.775 26.8106 24.1826C27.8967 24.5775 28.9828 25.3674 29.7727 26.2561ZM21.2813 24.1826C20.8864 24.775 20.5902 25.4662 20.5902 26.2561C20.5902 27.046 20.8864 27.7371 21.2813 28.3295C20.1952 27.9346 19.1091 27.1447 18.3192 26.2561C19.1091 25.3674 20.1952 24.5775 21.2813 24.1826Z" fill="currentColor"/>
  <path d="M33.9197 15H14.1722C12.9874 15 12 15.9874 12 17.1722V29.2182C12 31.4891 13.876 33.2664 16.0482 33.2664H31.945C34.2159 33.2664 35.9932 31.3904 35.9932 29.2182V17.1722C36.0919 15.9874 35.1045 15 33.9197 15ZM34.8083 29.3169C34.8083 30.8967 33.5247 32.1803 31.945 32.1803H16.0482C14.4684 32.1803 13.1848 30.8967 13.1848 29.3169V21.023H34.8083V29.3169ZM13.1848 19.8381V17.1722C13.1848 16.6785 13.5798 16.2836 14.0735 16.2836H33.821C34.3146 16.2836 34.7096 16.6785 34.7096 17.1722V19.8381H13.1848Z" fill="currentColor"/>
</svg>
