<svg viewBox="0 0 68 68" xmlns="http://www.w3.org/2000/svg" xmlns:xlink="http://www.w3.org/1999/xlink">
  <title>Face</title>
  <path fill="none" fill-rule="evenodd" stroke="currentColor" stroke-width="2" transform="translate(15 15)" d="M35.0134375 17.1584393L35.0187813 23.4657578 35.0187813 24.3628985C35.0187813 33.4342244 23.7936406 40.7881059 18.9628906 40.7881059 14.1318437 40.7881059 2.907 33.4342244 2.907 24.3628985L2.907 17.1584393 2.907 16.5771504C2.907 7.50552074 10.0952344.151639259 18.9628906.151639259 27.83025.151639259 35.0187813 7.50552074 35.0187813 16.5771504L35.0134375 17.1584393zM2.90688125 26.6144667C1.38331875 26.6144667.14831875 25.351363.14831875 23.7927556.14831875 22.2344519 1.38331875 20.9710444 2.90688125 20.9710444M35.1163641 26.6144667C36.6396297 26.6144667 37.8746297 25.351363 37.8746297 23.7927556 37.8746297 22.2344519 36.6396297 20.9710444 35.1163641 20.9710444M11.1353062 2.23483407C11.1353062 2.23483407 5.20641562 15.4271156 34.5112437 15.4271156M12.3274375 9.84434296C12.3274375 9.84434296 10.5479687 16.5194467 2.907 16.5771504"/>
</svg>
