<svg viewBox="0 0 48 48" fill="none" xmlns="http://www.w3.org/2000/svg">
  <title>Female Glyph</title>
  <mask id="mask0" mask-type="alpha" maskUnits="userSpaceOnUse" x="9" y="8" width="31" height="32">
    <path d="M38.3815 38.4116C37.6017 37.2852 35.6667 34.0409 35.84 32.2888C36.4368 31.3839 36.8123 30.4404 36.8123 29.5066V29.1697C38.4681 28.8809 39.7293 27.4464 39.7293 25.7136C39.7293 23.9807 38.4681 22.5463 36.8123 22.2575V20.4476C36.8123 13.5836 31.2286 8 24.3646 8C17.5006 8 11.917 13.5836 11.917 20.4476V22.2575C10.2611 22.5463 9 23.9807 9 25.7136C9 27.4464 10.2611 28.8809 11.917 29.1697V29.5066C11.917 30.4308 12.2828 31.3646 12.87 32.2599C13.0722 34.0024 11.1179 37.2852 10.3285 38.4116L9.67389 39.355L21.9483 39.3646C22.6895 39.7786 23.5175 40 24.3646 40C25.2311 40 26.0686 39.7689 26.781 39.3646L39.0265 39.355L38.3815 38.4116ZM38.5259 25.704C38.5259 26.7726 37.7942 27.6582 36.8123 27.9278V23.4801C37.8039 23.7497 38.5259 24.6354 38.5259 25.704ZM35.6089 20.438V22.1516C34.0205 21.9687 32.4513 21.0927 31.1516 19.6294C29.3418 17.5884 28.3021 14.7196 28.5524 12.4573C28.6101 11.6294 28.6294 10.8111 28.639 10.0409C32.7208 11.716 35.6089 15.7401 35.6089 20.438ZM24.3743 9.19373C25.4332 9.19373 26.4537 9.34776 27.4356 9.62694C27.4356 11.4753 27.3875 13.651 26.8195 15.3935C24.9808 21.0156 18.4922 22.219 13.1396 22.1901V20.4284C13.13 14.2383 18.1745 9.19373 24.3743 9.19373ZM10.213 25.704C10.213 24.6354 10.9446 23.7497 11.9266 23.4801V27.9278C10.9446 27.6582 10.213 26.7726 10.213 25.704ZM13.9675 33.6366C15.6715 35.5042 18.0975 37.1408 19.8014 38.1612L11.9458 38.1516C12.6101 37.0638 13.6017 35.2635 13.9675 33.6366ZM22.3718 38.2286C19.8014 36.929 13.13 32.8183 13.13 29.5066V23.4031C13.1974 23.4031 13.2647 23.4031 13.3321 23.4031C21.0722 23.4031 26.0493 20.9001 27.8111 16.1444C28.3021 17.6751 29.1396 19.1769 30.2467 20.4284C31.787 22.1612 33.6739 23.1817 35.6089 23.3646V29.5162C35.6089 32.8279 28.9374 36.9386 26.3285 38.2575C25.154 38.9603 23.633 38.9892 22.3718 38.2286ZM28.9471 38.1612C30.651 37.1312 33.0578 35.5138 34.7617 33.6558C35.1276 35.2828 36.1095 37.0734 36.7738 38.1612H28.9471Z" fill="white"/>
  </mask>
  <g mask="url(#mask0)">
    <rect x="1.29846" y="1.26123" width="46.2094" height="46.2094" fill="currentColor"/>
  </g>
</svg>
