<svg viewBox="0 0 45 45" xmlns="http://www.w3.org/2000/svg" xmlns:xlink="http://www.w3.org/1999/xlink">
  <title>Female</title>
  <g fill="none" fill-rule="evenodd" stroke="currentColor" stroke-linecap="round" stroke-width="2" transform="translate(10 10)">
    <path d="M22.6547093 10.7352267L22.6581977 14.7166933 22.6581977 15.2823378C22.6581977 21.0086933 15.364593 25.65056 12.2256395 25.65056 9.08610465 25.65056 1.7925 21.0086933 1.7925 15.2823378L1.7925 10.7352267 1.7925 10.36776C1.7925 4.64198222 6.46343023.000115555556 12.2256395.000115555556 17.9872674.000115555556 22.6581977 4.64198222 22.6581977 10.36776L22.6547093 10.7352267zM1.79232558 14.9709733C.802209302 14.9709733-.00011627907 14.1730622-.00011627907 13.1896844-.00011627907 12.2057289.802209302 11.4083956 1.79232558 11.4083956M22.7217442 14.9709733C23.7118605 14.9709733 24.514186 14.1730622 24.514186 13.1896844 24.514186 12.2057289 23.7118605 11.4083956 22.7217442 11.4083956M7.15180233 1.28544C7.15180233 1.28544 3.37680233 11.1793067 22.036686 11.1793067M7.91093023 7.14838222C7.91093023 7.14838222 6.7777907 11.2771822 1.91209302 11.3130044"/>
    <polyline points="1.792 10.735 1.792 23.367 6.838 23.367"/>
    <polyline points="22.658 10.735 22.658 23.367 17.612 23.367"/>
  </g>
</svg>
