<svg viewBox="0 0 48 48" fill="none" xmlns="http://www.w3.org/2000/svg">
  <title>Firmness Glyph</title>
  <mask id="mask0" mask-type="alpha" maskUnits="userSpaceOnUse" x="9" y="11" width="31" height="27">
    <path d="M39.93 37.47H10.17C9.75 37.47 9.41 37.18 9.33 36.78C9.25 36.38 9.46001 35.98 9.85001 35.82L36.75 24.86H10.18C9.76001 24.86 9.42001 24.57 9.34001 24.17C9.26001 23.77 9.47 23.37 9.86 23.21L36.76 12.25H9V11H38.76C39.18 11 39.52 11.29 39.6 11.69C39.68 12.09 39.47 12.49 39.08 12.65L12.18 23.61H38.75C39.17 23.61 39.51 23.89 39.59 24.3C39.67 24.71 39.46 25.1 39.07 25.26L12.17 36.22H39.93V37.47Z" fill="white"/>
  </mask>
  <g mask="url(#mask0)">
    <rect x="0.98999" y="-0.199951" width="48" height="48" fill="currentColor"/>
  </g>
</svg>
