<svg viewBox="0 0 48 48" fill="none" xmlns="http://www.w3.org/2000/svg">
  <title>Flag - USA Glyph</title>
  <mask id="mask0" mask-type="alpha" maskUnits="userSpaceOnUse" x="8" y="13" width="32" height="22">
    <path d="M8 13V34.5904H40V13H8ZM38.8434 14.1566V16.8554H22.4578V14.1566H38.8434ZM22.4578 25.3373V22.3494H38.8434V25.3373H22.4578ZM38.8434 26.5904V29.5783H9.15663V26.5904H38.8434ZM22.4578 21.0964V18.1084H38.8434V21.0964H22.4578ZM9.15663 14.1566H21.2048V25.3373H9.15663V14.1566ZM9.15663 33.3373V30.7349H38.8434V33.3373H9.15663Z" fill="white"/>
    <path d="M11.759 17.1446C12.0784 17.1446 12.3373 16.8857 12.3373 16.5663C12.3373 16.2469 12.0784 15.988 11.759 15.988C11.4396 15.988 11.1807 16.2469 11.1807 16.5663C11.1807 16.8857 11.4396 17.1446 11.759 17.1446Z" fill="white"/>
    <path d="M15.2289 17.1446C15.5483 17.1446 15.8072 16.8857 15.8072 16.5663C15.8072 16.2469 15.5483 15.988 15.2289 15.988C14.9095 15.988 14.6506 16.2469 14.6506 16.5663C14.6506 16.8857 14.9095 17.1446 15.2289 17.1446Z" fill="white"/>
    <path d="M18.6988 17.1446C19.0182 17.1446 19.2771 16.8857 19.2771 16.5663C19.2771 16.2469 19.0182 15.988 18.6988 15.988C18.3794 15.988 18.1205 16.2469 18.1205 16.5663C18.1205 16.8857 18.3794 17.1446 18.6988 17.1446Z" fill="white"/>
    <path d="M11.759 20.5181C12.0784 20.5181 12.3373 20.2592 12.3373 19.9398C12.3373 19.6204 12.0784 19.3614 11.759 19.3614C11.4396 19.3614 11.1807 19.6204 11.1807 19.9398C11.1807 20.2592 11.4396 20.5181 11.759 20.5181Z" fill="white"/>
    <path d="M15.2289 20.5181C15.5483 20.5181 15.8072 20.2592 15.8072 19.9398C15.8072 19.6204 15.5483 19.3614 15.2289 19.3614C14.9095 19.3614 14.6506 19.6204 14.6506 19.9398C14.6506 20.2592 14.9095 20.5181 15.2289 20.5181Z" fill="white"/>
    <path d="M18.6988 20.5181C19.0182 20.5181 19.2771 20.2592 19.2771 19.9398C19.2771 19.6204 19.0182 19.3614 18.6988 19.3614C18.3794 19.3614 18.1205 19.6204 18.1205 19.9398C18.1205 20.2592 18.3794 20.5181 18.6988 20.5181Z" fill="white"/>
    <path d="M11.759 23.8916C12.0784 23.8916 12.3373 23.6326 12.3373 23.3133C12.3373 22.9939 12.0784 22.7349 11.759 22.7349C11.4396 22.7349 11.1807 22.9939 11.1807 23.3133C11.1807 23.6326 11.4396 23.8916 11.759 23.8916Z" fill="white"/>
    <path d="M15.2289 23.8916C15.5483 23.8916 15.8072 23.6326 15.8072 23.3133C15.8072 22.9939 15.5483 22.7349 15.2289 22.7349C14.9095 22.7349 14.6506 22.9939 14.6506 23.3133C14.6506 23.6326 14.9095 23.8916 15.2289 23.8916Z" fill="white"/>
    <path d="M18.6988 23.8916C19.0182 23.8916 19.2771 23.6326 19.2771 23.3133C19.2771 22.9939 19.0182 22.7349 18.6988 22.7349C18.3794 22.7349 18.1205 22.9939 18.1205 23.3133C18.1205 23.6326 18.3794 23.8916 18.6988 23.8916Z" fill="white"/>
  </mask>
  <g mask="url(#mask0)">
    <rect width="48" height="48" fill="#332E54"/>
  </g>
</svg>
