<svg viewBox="0 0 48 48" fill="none" xmlns="http://www.w3.org/2000/svg">
  <title>Flag - UK Glyph</title>
  <mask id="mask0" mask-type="alpha" maskUnits="userSpaceOnUse" x="8" y="13" width="32" height="22">
    <path d="M26.4096 13H21.5904H8V21.8675V26.6867V34.5904H21.5904H26.4096H40V26.6867V21.8675V13H26.4096ZM26.4096 14.1566H37.3976L26.4096 21.4819V14.1566ZM21.5904 14.1566V21.4819L10.1205 14.1566H21.5904ZM9.15663 15.0241L19.8554 21.8675H9.15663V15.0241ZM9.15663 26.6867H18.6024L9.25301 32.8554V26.6867H9.15663ZM21.5904 33.3373H10.6024L20.7229 26.5904H21.5904V33.3373ZM26.4096 33.3373V26.5904H27.3735L37.8795 33.3373H26.4096ZM38.8434 32.5663L29.6867 26.6867H38.8434V32.5663ZM38.8434 25.4337H27.759H25.5422H25.253V33.3373H22.8434V25.4337H22.5542H20.3373H9.15663V23.0241H21.7831H22.8434V22.3494V14.1566H25.253V22.253V23.0241H26.2169H38.8434V25.4337ZM38.8434 21.8675H27.9518L38.8434 14.7349V21.8675Z" fill="white"/>
  </mask>
  <g mask="url(#mask0)">
    <rect width="48" height="48" fill="#332E54"/>
  </g>
</svg>
