<svg viewBox="0 0 48 48" fill="none" xmlns="http://www.w3.org/2000/svg">
  <title>Flag - Canada Glyph</title>
  <mask id="mask0" mask-type="alpha" maskUnits="userSpaceOnUse" x="8" y="13" width="32" height="22">
    <path d="M30.0723 22.9277V19.2651L26.6988 22.6386L26.988 15.988L24 18.9759L21.3976 16.3735V22.1566L18.3133 19.0723V22.6386H14.6506L20.6265 28.6145L21.8795 28.1325V31.6988H26.6024V28.1325L27.8554 28.7108L33.6386 22.9277H30.0723ZM27.5663 27.2651L25.4458 26.3012V30.5422H23.1325V26.3976L21.012 27.2651L17.6386 23.8916H19.5663V22.0602L22.6506 25.1446V19.3614L24 20.7108L25.6386 19.0723L25.3494 25.6265L28.8193 22.1566V24.1807H30.6506L27.5663 27.2651Z" fill="white"/>
    <path d="M8 13V34.5904H40V13H8ZM33.9277 14.1566V33.3373H14.5542V14.1566H33.9277ZM9.15663 14.1566H13.3012V33.3373H9.15663V14.1566ZM38.8434 33.3373H35.0843V14.1566H38.8434V33.3373Z" fill="white"/>
  </mask>
  <g mask="url(#mask0)">
    <rect width="48" height="48" fill="#332E54"/>
  </g>
</svg>
