<svg viewBox="0 0 48 48" fill="none" xmlns="https://www.w3.org/2000/svg">
  <title>Flag - USA Glyph</title>
  <path d="M8 13V35H40V13H8ZM38.8434 14.1786V16.9286H22.4578V14.1786H38.8434ZM22.4578 25.5714V22.5268H38.8434V25.5714H22.4578ZM38.8434 26.8482V29.8929H9.15663V26.8482H38.8434ZM22.4578 21.25V18.2054H38.8434V21.25H22.4578ZM9.15663 14.1786H21.2048V25.5714H9.15663V14.1786ZM9.15663 33.7232V31.0714H38.8434V33.7232H9.15663Z" fill="currentColor"/>
  <path d="M11.759 17.2232C12.0784 17.2232 12.3373 16.9594 12.3373 16.6339C12.3373 16.3085 12.0784 16.0446 11.759 16.0446C11.4396 16.0446 11.1807 16.3085 11.1807 16.6339C11.1807 16.9594 11.4396 17.2232 11.759 17.2232Z" fill="currentColor"/>
  <path d="M15.2289 17.2232C15.5483 17.2232 15.8072 16.9594 15.8072 16.6339C15.8072 16.3085 15.5483 16.0446 15.2289 16.0446C14.9095 16.0446 14.6506 16.3085 14.6506 16.6339C14.6506 16.9594 14.9095 17.2232 15.2289 17.2232Z" fill="currentColor"/>
  <path d="M18.6988 17.2232C19.0182 17.2232 19.2771 16.9594 19.2771 16.6339C19.2771 16.3085 19.0182 16.0446 18.6988 16.0446C18.3794 16.0446 18.1205 16.3085 18.1205 16.6339C18.1205 16.9594 18.3794 17.2232 18.6988 17.2232Z" fill="currentColor"/>
  <path d="M11.759 20.6607C12.0784 20.6607 12.3373 20.3969 12.3373 20.0714C12.3373 19.746 12.0784 19.4821 11.759 19.4821C11.4396 19.4821 11.1807 19.746 11.1807 20.0714C11.1807 20.3969 11.4396 20.6607 11.759 20.6607Z" fill="currentColor"/>
  <path d="M15.2289 20.6607C15.5483 20.6607 15.8072 20.3969 15.8072 20.0714C15.8072 19.746 15.5483 19.4821 15.2289 19.4821C14.9095 19.4821 14.6506 19.746 14.6506 20.0714C14.6506 20.3969 14.9095 20.6607 15.2289 20.6607Z" fill="currentColor"/>
  <path d="M18.6988 20.6607C19.0182 20.6607 19.2771 20.3969 19.2771 20.0714C19.2771 19.746 19.0182 19.4821 18.6988 19.4821C18.3794 19.4821 18.1205 19.746 18.1205 20.0714C18.1205 20.3969 18.3794 20.6607 18.6988 20.6607Z" fill="currentColor"/>
  <path d="M11.759 24.0982C12.0784 24.0982 12.3373 23.8344 12.3373 23.5089C12.3373 23.1835 12.0784 22.9196 11.759 22.9196C11.4396 22.9196 11.1807 23.1835 11.1807 23.5089C11.1807 23.8344 11.4396 24.0982 11.759 24.0982Z" fill="currentColor"/>
  <path d="M15.2289 24.0982C15.5483 24.0982 15.8072 23.8344 15.8072 23.5089C15.8072 23.1835 15.5483 22.9196 15.2289 22.9196C14.9095 22.9196 14.6506 23.1835 14.6506 23.5089C14.6506 23.8344 14.9095 24.0982 15.2289 24.0982Z" fill="currentColor"/>
  <path d="M18.6988 24.0982C19.0182 24.0982 19.2771 23.8344 19.2771 23.5089C19.2771 23.1835 19.0182 22.9196 18.6988 22.9196C18.3794 22.9196 18.1205 23.1835 18.1205 23.5089C18.1205 23.8344 18.3794 24.0982 18.6988 24.0982Z" fill="currentColor"/>
</svg>
