<svg width="48" height="48" viewBox="0 0 48 48" fill="none" xmlns="http://www.w3.org/2000/svg">
  <title>Formula Change Glyph</title>
  <path fill-rule="evenodd" clip-rule="evenodd" d="M31.07 9C33.48 9 35.44 10.96 35.44 13.37H39.93V19.16V20.38V39.21H8V20.37V19.15V13.37H10.99C10.99 10.96 12.96 9 15.37 9C17.78 9 19.74 10.96 19.74 13.37H26.7C26.7 10.96 28.66 9 31.07 9ZM31.07 10.25C29.35 10.25 27.95 11.65 27.95 13.37H34.19C34.19 11.65 32.79 10.25 31.07 10.25ZM15.36 10.25C13.64 10.25 12.24 11.65 12.24 13.37H18.48C18.48 11.65 17.08 10.25 15.36 10.25ZM9.25 37.97H38.68V20.41H9.25V37.97ZM9.25 19.13H38.66V14.63H35.23C34.83 15.99 33.79 17.09 32.39 17.54L32.01 16.35C32.89 16.07 33.56 15.43 33.91 14.63H19.54C19.14 15.99 18.1 17.09 16.7 17.54L16.32 16.35C17.2 16.07 17.87 15.43 18.22 14.63H9.25V19.13ZM17.55 32.67H16.32H16.31V27.02H14.68V25.98C15.84 25.98 16.42 25.76 16.62 24.97H17.55V32.67ZM22.73 25.98C23.39 25.98 23.72 26.38 23.72 27.06C23.72 27.71 23.47 28.14 22.93 28.79L20.51 31.77V32.67H25.04V31.51H22.21L24.01 29.24C24.55 28.57 24.96 27.91 24.96 27C24.96 25.69 24.2 24.82 22.75 24.82C21.34 24.82 20.44 25.76 20.45 27.24H21.68C21.67 26.36 22.11 25.98 22.73 25.98ZM28.73 30.39C28.74 31.29 29.29 31.66 30.03 31.66C30.75 31.66 31.22 31.2 31.22 30.48C31.22 29.65 30.64 29.23 29.64 29.23H29.3V28.15H29.62C30.54 28.15 30.96 27.82 30.96 27.07C30.96 26.41 30.6 25.98 29.95 25.98C29.36 25.98 28.88 26.35 28.88 27.2H27.65C27.65 25.72 28.55 24.82 29.94 24.82C31.4 24.82 32.21 25.79 32.21 27.02C32.21 27.97 31.67 28.48 31.19 28.66C31.83 28.85 32.48 29.43 32.48 30.52C32.48 31.91 31.49 32.81 30 32.81C28.47 32.81 27.5 31.93 27.5 30.39H28.73Z" fill="currentColor"/>
</svg>
