<svg viewBox="0 0 48 48" fill="none" xmlns="http://www.w3.org/2000/svg">
  <title>Formula Change Glyph</title>
  <path
    d="M26.36 31.5199C27.12 30.8399 27.56 29.8799 27.56 28.8599C27.56 26.8999 25.96 25.2999 24 25.2999C22.04 25.2999 20.44 26.8999 20.44 28.8599C20.44 29.2699 20.78 29.6099 21.19 29.6099C21.6 29.6099 21.94 29.2699 21.94 28.8599C21.94 27.7299 22.86 26.7999 24 26.7999C25.14 26.7999 26.06 27.7199 26.06 28.8599C26.06 29.4599 25.8 30.0299 25.35 30.4199C25.34 30.4299 25.34 30.4399 25.33 30.4499L20.71 34.4099C20.47 34.6099 20.39 34.9499 20.49 35.2399C20.6 35.5299 20.88 35.7299 21.19 35.7299H26.81C27.22 35.7299 27.56 35.3899 27.56 34.9799C27.56 34.5699 27.22 34.2299 26.81 34.2299H23.22L26.32 31.5699C26.34 31.5499 26.34 31.5399 26.36 31.5199Z"
    fill="currentColor"
  />
  <path
    d="M34.51 9.67988H31.7V8.74988C31.7 8.33988 31.36 7.99988 30.95 7.99988C30.54 7.99988 30.2 8.33988 30.2 8.74988V9.67988H17.79V8.74988C17.79 8.33988 17.46 7.99988 17.04 7.99988C16.62 7.99988 16.29 8.33988 16.29 8.74988V9.67988H13.49C10.46 9.67988 8 12.1499 8 15.1699V34.5099C8 37.5399 10.46 39.9999 13.49 39.9999H34.52C37.55 39.9999 40.01 37.5399 40.01 34.5099V15.1699C40 12.1499 37.54 9.67988 34.51 9.67988ZM13.49 11.1799H16.3V11.9399C16.3 12.3499 16.64 12.6899 17.05 12.6899C17.46 12.6899 17.8 12.3499 17.8 11.9399V11.1799H30.21V11.8799C30.21 12.2899 30.55 12.6299 30.96 12.6299C31.37 12.6299 31.71 12.2899 31.71 11.8799V11.1799H34.52C36.72 11.1799 38.51 12.9699 38.51 15.1699V21.0299H9.51V15.1699C9.5 12.9699 11.29 11.1799 13.49 11.1799ZM34.51 38.4999H13.49C11.29 38.4999 9.5 36.7099 9.5 34.5099V22.5299H38.5V34.5099C38.5 36.7099 36.71 38.4999 34.51 38.4999Z"
    fill="currentColor"
  />
  <path
    d="M17.04 18.2499C17.82 18.2499 18.46 17.6099 18.46 16.8299C18.46 16.0499 17.82 15.4099 17.04 15.4099C16.25 15.4099 15.62 16.0499 15.62 16.8299C15.62 17.6199 16.26 18.2499 17.04 18.2499Z"
    fill="currentColor"
  />
  <path
    d="M30.96 18.2499C31.74 18.2499 32.38 17.6099 32.38 16.8299C32.38 16.0499 31.74 15.4099 30.96 15.4099C30.17 15.4099 29.54 16.0499 29.54 16.8299C29.53 17.6199 30.17 18.2499 30.96 18.2499Z"
    fill="currentColor"
  />
  <path
    d="M18.43 34.2299H16.37V26.0599C16.37 26.0499 16.37 26.0499 16.37 26.0399C16.37 25.9799 16.35 25.9199 16.33 25.8699C16.32 25.8299 16.32 25.7899 16.3 25.7599C16.28 25.7199 16.25 25.6799 16.22 25.6399C16.19 25.5999 16.17 25.5599 16.13 25.5199C16.1 25.4999 16.07 25.4799 16.04 25.4599C15.99 25.4199 15.94 25.3899 15.88 25.3699C15.87 25.3699 15.87 25.3599 15.86 25.3599C15.83 25.3499 15.8 25.3499 15.77 25.3499C15.72 25.3399 15.67 25.3199 15.61 25.3199C15.6 25.3199 15.59 25.3299 15.58 25.3299C15.55 25.3299 15.52 25.3399 15.49 25.3499C15.42 25.3599 15.36 25.3699 15.3 25.3999C15.28 25.4099 15.26 25.4299 15.25 25.4399C15.19 25.4799 15.13 25.5199 15.08 25.5699C15.06 25.5899 15.05 25.6199 15.03 25.6399C14.99 25.6899 14.95 25.7499 14.93 25.8099C14.93 25.8199 14.92 25.8199 14.92 25.8299C14.9 25.8999 14.31 27.4999 12.82 27.4999C12.41 27.4999 12.07 27.8399 12.07 28.2499C12.07 28.6599 12.41 28.9999 12.82 28.9999C13.69 28.9999 14.36 28.7099 14.88 28.3099V34.2499H12.81C12.4 34.2499 12.06 34.5899 12.06 34.9999C12.06 35.4099 12.4 35.7499 12.81 35.7499H18.41C18.82 35.7499 19.16 35.4099 19.16 34.9999C19.16 34.5899 18.85 34.2299 18.43 34.2299Z"
    fill="currentColor"
  />
  <path
    d="M33.76 28.8899L35.76 26.5399C35.95 26.3199 35.99 25.9999 35.87 25.7399C35.75 25.4699 35.48 25.2999 35.19 25.2999H29.57C29.16 25.2999 28.82 25.6399 28.82 26.0499C28.82 26.4599 29.16 26.7999 29.57 26.7999H33.57L31.81 28.8699C31.62 29.0899 31.58 29.4099 31.7 29.6699C31.82 29.9399 32.09 30.1099 32.38 30.1099C33.52 30.1099 34.44 31.0299 34.44 32.1699C34.44 33.2999 33.52 34.2299 32.38 34.2299C31.24 34.2299 30.32 33.3099 30.32 32.1699C30.32 31.7599 29.98 31.4199 29.57 31.4199C29.16 31.4199 28.82 31.7599 28.82 32.1699C28.82 34.1299 30.42 35.7299 32.38 35.7299C34.34 35.7299 35.94 34.1299 35.94 32.1699C35.94 30.6999 35.04 29.4299 33.76 28.8899Z"
    fill="currentColor"
  />
</svg>
