<svg viewBox="0 0 48 48" fill="none" xmlns="http://www.w3.org/2000/svg">
  <path d="M24 13.125C17.9871 13.125 13.125 17.9871 13.125 24C13.125 26.0354 13.6841 27.939 14.6614 29.5649L13.7845 32.4043C13.5212 33.2569 14.3079 34.062 15.1664 33.8185L14.9277 32.9767L15.1664 33.8185L17.9329 33.034C19.6633 34.192 21.7554 34.875 24 34.875C30.0129 34.875 34.875 30.0129 34.875 24C34.875 17.9871 30.0129 13.125 24 13.125Z" stroke="currentColor" stroke-width="1.75" stroke-miterlimit="10"/>
  <path d="M21 25C21.5523 25 22 24.5523 22 24C22 23.4477 21.5523 23 21 23C20.4477 23 20 23.4477 20 24C20 24.5523 20.4477 25 21 25Z" fill="currentColor"/>
  <path d="M24.0001 25C24.5523 25 25.0001 24.5523 25.0001 24C25.0001 23.4477 24.5523 23 24.0001 23C23.4478 23 23.0001 23.4477 23.0001 24C23.0001 24.5523 23.4478 25 24.0001 25Z" fill="currentColor"/>
  <path d="M27.0002 25C27.5525 25 28.0002 24.5523 28.0002 24C28.0002 23.4477 27.5525 23 27.0002 23C26.4479 23 26.0002 23.4477 26.0002 24C26.0002 24.5523 26.4479 25 27.0002 25Z" fill="currentColor"/>
</svg>
