<svg viewBox="0 0 48 48" fill="none" xmlns="https://www.w3.org/2000/svg">
  <title>Globe Glyph</title>
  <path d="M34.2 14.4C31.6 11.7 28 10 24 10C16.3 10 10 16.3 10 24C10 31.7 16.3 38 24 38C31.7 38 38 31.7 38 24C38 20.3 36.5 16.9 34.2 14.4ZM26.5 11.5C28 11.8 29.4 12.4 30.6 13.1C30.1 13.2 29.6 13.3 29.2 13.5C28.5 13.7 27.8 14 27.1 13.9C26.9 13.9 26.3 13.3 26.1 12.5C26.1 11.9 26.3 11.6 26.5 11.5ZM17.8 12.8C18.8 12.8 19.5 13.1 20 13.6C20.3 13.9 20.4 14.4 20.4 14.9C20.1 17.5 19 18.7 17.3 18.7C16.5 18.7 15.8 19 15.5 19.7C15 20.7 15.4 22.1 16 23C16.7 24.1 17.8 24.7 18.8 24.6C20 24.5 21.2 24.9 21.8 25.6C22.1 26 22.2 26.5 21.9 27C21.1 28.9 21.9 31.1 22.4 32.6C22.5 32.8 22.6 33.1 22.6 33.3C22.7 33.7 22.6 34 22.2 34.1C21.3 34.4 19.7 33.8 18.9 32C18.2 30.3 16.9 29.8 16.1 29.5C15.9 29.4 15.5 29.3 15.4 29.2C14.2 27 12.5 26.4 11.4 26.5C11.2 25.7 11.1 24.8 11.1 23.9C11.2 19.2 13.9 15 17.8 12.8ZM11.9 27.9C12.6 28 13.6 28.3 14.5 29.9C14.8 30.4 15.3 30.6 15.9 30.8C16.7 31.1 17.5 31.4 18 32.5C18.8 34.5 20.5 35.5 21.9 35.5C22.2 35.5 22.5 35.4 22.8 35.3C23.8 34.9 24.3 34 24 32.9C23.9 32.7 23.9 32.5 23.8 32.2C23.3 30.8 22.6 28.9 23.3 27.5C23.7 26.6 23.6 25.6 23 24.8C22.2 23.7 20.6 23.1 18.9 23.3C18.3 23.4 17.7 23 17.2 22.3C16.7 21.6 16.5 20.7 16.8 20.2C16.7 20.2 16.8 20 17.3 20C18.7 20 21.1 19.4 21.6 15.1C21.7 14.2 21.5 13.4 20.9 12.8C20.6 12.5 20.2 12.2 19.8 12C21.1 11.5 22.6 11.3 24 11.3C24.4 11.3 24.8 11.3 25.1 11.4C24.9 11.8 24.9 12.3 25 12.8C25.2 13.8 26 15.1 27 15.2C27.9 15.3 28.8 15.1 29.6 14.8C31 14.3 32 13.9 33.2 15.2C34.4 16.4 35.3 17.9 35.9 19.5C35.3 19.5 34.5 19.2 33.6 18.9C33 18.7 32.3952 18.4045 31.7 18.2C29.9605 17.6884 29.1 19.5 28.6 20.5C28.5 20.7 28.4 20.9 28.3 21C27 23 26.8 23.4 27.5 25.3C27.8 26.1 28 26.3 28.4 26.8C28.5 26.9 28.7 27.1 29 27.3C30.6 28.9 30.6 29 30.4 29.7C30.3 30.1 30.3 30.5 30.3 31.2C30.3 32.3 30.7 33.3 30.9 34C31 34.2 31 34.4 31.1 34.5C29.1 35.9 26.6 36.6 24 36.6C18.3 36.8 13.5 33 11.9 27.9ZM32.1 33.8C32.1 33.7 32.1 33.7 32 33.6C31.8 33 31.5 32.1 31.5 31.2C31.5 30.6 31.6 30.2 31.6 29.9C31.8 28.7 31.7 28.3 29.8 26.4C29.5 26.1 29.4 26 29.2 25.8C28.8 25.5 28.8 25.4 28.6 24.9C28.1 23.5 28.1 23.5 29.3 21.7C29.4 21.5 29.5 21.3 29.7 21C30.2 20 30.7 19.2 31.3 19.3C31.9 19.5 32.5 19.7 33.1 19.9C34.2 20.3 35.3 20.8 36.3 20.6C36.6 21.6 36.7 22.7 36.7 23.9C36.8 27.9 34.9 31.5 32.1 33.8Z" fill="currentColor"/>
</svg>
