<svg xmlns="http://www.w3.org/2000/svg" width="48" height="49" viewBox="0 0 48 49" fill="none">
  <title>Glycerin Glyph</title>
  <path d="M28.2 25.4C27.973 28.9503 26.9845 32.661 25.4107 34.9489C23.8406 37.2314 21.7057 38.6 19.3226 38.6C16.7793 38.6 14.5961 37.0292 13 34.4766C11.3983 31.915 10.4 28.4058 10.4 24.51C10.4 20.6142 11.3983 17.0916 13 14.53C14.5961 11.9774 16.7793 10.2991 19.3226 10.2991C21.2704 10.2991 23.1054 11.3094 24.6191 13.0645C24.7946 13.2679 25.0404 13.4004 25.3083 13.421C25.6133 13.4444 25.9417 13.3288 26.0193 13.0329C26.0976 12.7344 26.044 12.3903 25.7929 12.0763C23.9384 9.75746 21.6692 8.5 19.3226 8.5C16.5204 8.5 13.9526 10.2237 12.0611 13.1293C10.1719 16.0313 9 20.0592 9 24.5C9 28.9408 10.1719 32.9687 12.0611 35.8707C13.9526 38.7763 16.5204 40.5 19.3226 40.5C22.1248 40.5 24.6925 38.7763 26.5841 35.8707C28.3484 33.1605 29.4871 29.4683 29.6299 25.375H32.125V36.1824C32.125 36.6909 32.2682 37.7643 32.9568 38.7369C33.6838 39.7636 34.9485 40.575 36.9669 40.575C37.4501 40.575 37.8419 40.1833 37.8419 39.7C37.8419 39.2168 37.4501 38.825 36.9669 38.825C35.4853 38.825 34.7665 38.2643 34.385 37.7256C33.9652 37.1327 33.875 36.4473 33.875 36.1825V16C33.875 15.5168 33.4832 15.125 33 15.125C32.5168 15.125 32.125 15.5168 32.125 16V23.625H29.0437C29.0211 23.6216 28.9988 23.62 28.977 23.62L21.5037 23.6103C21.2176 23.6107 20.8363 23.9238 20.8368 24.511C20.8373 25.0981 21.2191 25.4004 21.505 25.4H28.2Z" fill="currentColor"/>
</svg>