<svg width="48" height="48" viewBox="0 0 48 48" fill="none" xmlns="http://www.w3.org/2000/svg">
  <title>Green Tea Glyph</title>
  <path d="M29.0826 23.25H36.2281C36.6454 23.25 36.9836 23.5858 36.9836 24C36.9836 24.4142 36.6454 24.75 36.2281 24.75H29.0826V37.3538C29.0826 38.0222 29.5166 38.5231 29.9917 38.5231H38.2562C38.667 38.5231 39 38.8537 39 39.2615C39 39.6694 38.667 40 38.2562 40H29.9917C28.6411 40 27.595 38.7927 27.595 37.3538V10.6462C27.595 9.20734 28.6411 8 29.9917 8H38.2562C38.667 8 39 8.33062 39 8.73846C39 9.1463 38.667 9.47692 38.2562 9.47692H29.9917C29.5166 9.47692 29.0826 9.97779 29.0826 10.6462V23.25ZM16.5547 24C19.2631 24 21.5706 21.1816 21.8497 17.5009L17.9265 17.5052C17.5157 17.5057 17.1823 17.1703 17.1819 16.7561C17.1814 16.3419 17.5141 16.0057 17.9249 16.0052L22.621 16C23.0321 15.9995 23.3656 16.3355 23.3656 16.75C23.3656 21.5453 20.3664 25.5 16.5547 25.5C12.743 25.5 9.7438 21.5453 9.7438 16.75C9.7438 11.9547 12.743 8 16.5547 8C18.1537 8 19.6652 8.72315 20.8738 9.99734C21.1578 10.2967 21.1473 10.7714 20.8505 11.0577C20.5536 11.344 20.0828 11.3335 19.7988 11.0342C18.8577 10.042 17.7248 9.5 16.5547 9.5C13.6649 9.5 11.2314 12.7087 11.2314 16.75C11.2314 20.7913 13.6649 24 16.5547 24ZM16.9339 29.5V39.2543C16.9339 39.6685 16.6009 40.0043 16.1901 40.0043C15.7793 40.0043 15.4463 39.6685 15.4463 39.2543V29.5H9.7438C9.33301 29.5 9 29.1642 9 28.75C9 28.3358 9.33301 28 9.7438 28H22.6364C23.0472 28 23.3802 28.3358 23.3802 28.75C23.3802 29.1642 23.0472 29.5 22.6364 29.5H16.9339Z" fill="currentColor"/>
</svg>
