<svg viewBox="0 0 48 48" fill="none" xmlns="http://www.w3.org/2000/svg">
  <title>Hydrating Mask Glyph</title>
  <mask id="mask0" mask-type="alpha" maskUnits="userSpaceOnUse" x="13" y="10" width="23" height="29">
    <path fill-rule="evenodd" clip-rule="evenodd" d="M35 28.8111C35 29.8111 34.6 30.8111 33.9 31.7111C34.6 32.6111 35.2 33.6111 35.2 34.4111C35.2 36.5111 33.5 38.2111 31.4 38.2111C30 38.2111 28.9 37.5111 28.2 36.4111C27.3 37.0111 26.5 37.4111 26.3 37.5111L26.1 37.6111L24 37.0111L22 37.6111L21.8 37.5111C21.7578 37.4876 21.7002 37.4562 21.6287 37.4173C20.1764 36.6265 13 32.7188 13 28.8111V25.8111L13.5 24.1111L13 22.0111V20.9111C13 15.6111 16.7 11.0111 21.9 10.0111C22.6 9.91107 23.5 10.5111 24.1 10.9111C24.7 10.5111 25.6 10.0111 26.3 10.1111C31.4 11.1111 35.1 15.7111 35.1 20.9111V22.2111L34.6 24.0111L35 25.7111V28.8111ZM25.9335 36.2911L26 36.3111C26.1794 36.2034 26.3718 36.0957 26.5724 35.9834C26.9304 35.783 27.3147 35.5678 27.6991 35.3117C27.6988 35.3118 27.6994 35.3115 27.6991 35.3117C27.6991 35.3116 27.6999 35.3111 27.6999 35.3111C27.7 35.3111 27.6999 35.3111 27.6999 35.3111C27.5999 35.0111 27.6 34.8111 27.6 34.5111C27.6 34.5108 27.6 34.5114 27.6 34.5111C27.6778 32.9695 29.4776 31.0116 30.4358 30.0582C30.6231 29.872 30.7782 29.7239 30.8819 29.6249C30.8848 29.6221 30.8877 29.6194 30.8905 29.6167C30.9404 29.5691 30.9776 29.5335 31 29.5112L31.4 29.1112L31.7999 29.5112C31.82 29.5312 31.86 29.5672 31.916 29.6176C32.14 29.8192 32.62 30.2512 33.1 30.8112C33.5 30.2112 33.7999 29.5112 33.7999 28.9112V28.8245C33.8 28.82 33.8 28.8155 33.8 28.8111V25.8111L33.3 24.0111L33.8 22.0111V20.9111C33.8 20.9008 33.8 20.8905 33.7999 20.8802V20.8112C33.7999 16.2112 30.5 12.1112 26 11.2112C25.8 11.2112 25 11.6112 24.4 12.1112L24.0003 12.5109L23.6 12.2111C23.1 11.7111 22.3 11.3111 22.1 11.3111C18.9195 11.9333 16.3605 14.0375 15.084 16.8304C15.0335 16.9409 14.985 17.0524 14.9386 17.1649C14.461 18.3227 14.2 19.5893 14.2 20.9112V21.9112L14.7 24.1112L14.2 26.1111L14.2 28.8112C14.2 28.922 14.2086 29.0337 14.2253 29.1462C14.6298 31.8828 19.7898 35.1553 22.0966 36.3094C22.0977 36.31 22.0988 36.3106 22.1 36.3112L24 35.7112L25.9 36.3112C25.9111 36.3045 25.9223 36.2978 25.9335 36.2911ZM29.3 35.8111C29.7 36.5111 30.5 37.0111 31.4 37.0111C32.8 37.0111 33.9 35.9111 33.9 34.5111C33.9 34.0111 33.6 33.4111 33.1 32.7111C32.9 32.4111 32.6 32.0111 32.3 31.7111L31.4 30.8111C30.3 31.9111 28.9 33.6111 28.9 34.5111C28.9 35.0111 29.1 35.4111 29.3 35.8111Z" fill="white"/>
    <path d="M19.4 23.311C18.4 23.311 17.5 22.811 16.9 22.011L16.6 21.611L16.9 21.211C17.5 20.411 18.4 20.011 19.4 20.011C20.4 20.011 21.3 20.511 21.9 21.311L22.2 21.711L22 22.011C21.4 22.811 20.4 23.311 19.4 23.311ZM18.3 21.611C19 22.111 20 22.111 20.6 21.611C19.9 21.111 18.9 21.111 18.3 21.611Z" fill="white"/>
    <path d="M28.9 23.311C27.9 23.311 27 22.811 26.4 22.011L26.1 21.611L26.4 21.211C27 20.411 27.9 19.911 28.9 19.911C29.9 19.911 30.8 20.411 31.4 21.211L31.7 21.611L31.4 22.011C30.8 22.811 29.9 23.311 28.9 23.311ZM27.7 21.611C28.4 22.111 29.4 22.111 30 21.611C29.4 21.111 28.4 21.111 27.7 21.611Z" fill="white"/>
  </mask>
  <g mask="url(#mask0)">
    <rect width="48" height="48" fill="#332E54"/>
  </g>
</svg>
