<svg width="48" height="48" viewBox="0 0 48 48" fill="none" xmlns="http://www.w3.org/2000/svg">
  <title>Hydroquinone Glyph</title>
  <path
    d="M39.7399 23.44C39.4299 23.17 38.9499 23.2 38.6799 23.52L32.8199 30.27C31.7099 28.14 28.6699 23.66 22.7399 23.3V8.75C22.7399 8.34 22.3999 8 21.9899 8C21.5799 8 21.2399 8.34 21.2399 8.75V23.25H9.49994V8.75C9.49994 8.34 9.16994 8 8.74994 8C8.32994 8 7.99994 8.34 7.99994 8.75V23.99C7.99994 23.99 7.99994 23.99 7.99994 24C7.99994 24.01 7.99994 24 7.99994 24.01V39.25C7.99994 39.66 8.33994 40 8.74994 40C9.15994 40 9.49994 39.66 9.49994 39.25V24.75H21.2399V39.25C21.2399 39.66 21.5799 40 21.9899 40C22.3999 40 22.7399 39.66 22.7399 39.25V24.79C28.5499 25.19 31.1199 30.03 31.7599 31.48L25.4399 38.76C25.1699 39.07 25.1999 39.55 25.5099 39.82C25.6499 39.94 25.8299 40 25.9999 40C26.2099 40 26.4199 39.91 26.5699 39.74L39.8099 24.49C40.0899 24.18 40.0499 23.71 39.7399 23.44Z"
    fill="currentColor"
  />
</svg>
