<svg viewBox="0 0 48 48" fill="none" xmlns="http://www.w3.org/2000/svg">
  <title>Hydrocolloid Bandage Glyph</title>
  <mask id="mask0" mask-type="alpha" maskUnits="userSpaceOnUse" x="11" y="12" width="27" height="25">
    <path fill-rule="evenodd" clip-rule="evenodd" d="M14.4 18.8C12.5 18.8 11 17.3 11 15.4C11 13.5 12.5 12 14.4 12C16.3 12 17.8 13.5 17.8 15.4C17.8 17.3 16.3 18.8 14.4 18.8ZM14.4 13.2C13.2 13.2 12.2 14.2 12.2 15.4C12.2 16.6 13.2 17.6 14.4 17.6C15.6 17.6 16.6 16.6 16.6 15.4C16.6 14.2 15.6 13.2 14.4 13.2ZM24.1 18.8C22.2 18.8 20.7 17.3 20.7 15.4C20.7 13.5 22.3 12 24.1 12C25.9 12 27.5 13.5 27.5 15.4C27.5 17.3 26 18.8 24.1 18.8ZM24.1 13.2C22.9 13.2 21.9 14.2 21.9 15.4C21.9 16.6 22.9 17.6 24.1 17.6C25.3 17.6 26.3 16.6 26.3 15.4C26.3 14.2 25.3 13.2 24.1 13.2ZM30.5 15.4C30.5 17.3 32 18.8 33.9 18.8C35.7 18.8 37.3 17.3 37.3 15.4C37.3 13.5 35.8 12 33.9 12C32 12 30.5 13.5 30.5 15.4ZM31.7 15.4C31.7 14.2 32.7 13.2 33.9 13.2C35 13.2 36.1 14.2 36.1 15.4C36.1 16.6 35.1 17.6 33.9 17.6C32.7 17.6 31.7 16.6 31.7 15.4ZM14.4 27.8C12.5 27.8 11 26.3 11 24.4C11 22.5 12.5 21 14.4 21C16.3 21 17.8 22.5 17.8 24.4C17.8 26.3 16.3 27.8 14.4 27.8ZM14.4 22.2C13.2 22.2 12.2 23.2 12.2 24.4C12.2 25.6 13.2 26.6 14.4 26.6C15.6 26.6 16.6 25.6 16.6 24.4C16.6 23.2 15.6 22.2 14.4 22.2ZM20.7 24.4C20.7 26.3 22.2 27.8 24.1 27.8C26 27.8 27.5 26.3 27.5 24.4C27.5 22.5 25.9 21 24.1 21C22.3 21 20.7 22.5 20.7 24.4ZM21.9 24.4C21.9 23.2 22.9 22.2 24.1 22.2C25.3 22.2 26.3 23.2 26.3 24.4C26.3 25.6 25.3 26.6 24.1 26.6C22.9 26.6 21.9 25.6 21.9 24.4ZM33.9 27.8C32 27.8 30.5 26.3 30.5 24.4C30.5 22.5 32 21 33.9 21C35.8 21 37.3 22.5 37.3 24.4C37.3 26.3 35.7 27.8 33.9 27.8ZM33.9 22.2C32.7 22.2 31.7 23.2 31.7 24.4C31.7 25.6 32.7 26.6 33.9 26.6C35.1 26.6 36.1 25.6 36.1 24.4C36.1 23.2 35 22.2 33.9 22.2ZM11 33.3C11 35.2 12.5 36.7 14.4 36.7C16.3 36.7 17.8 35.2 17.8 33.3C17.8 31.4 16.3 29.9 14.4 29.9C12.5 29.9 11 31.4 11 33.3ZM12.2 33.4C12.2 32.2 13.2 31.2 14.4 31.2C15.6 31.2 16.6 32.2 16.6 33.4C16.6 34.6 15.6 35.6 14.4 35.6C13.2 35.6 12.2 34.6 12.2 33.4ZM24.1 36.7C22.2 36.7 20.7 35.2 20.7 33.3C20.7 31.4 22.2 29.9 24.1 29.9C26 29.9 27.5 31.4 27.5 33.3C27.5 35.2 26 36.7 24.1 36.7ZM24.1 31.2C22.9 31.2 21.9 32.2 21.9 33.4C21.9 34.6 22.9 35.6 24.1 35.6C25.3 35.6 26.3 34.6 26.3 33.4C26.3 32.2 25.3 31.2 24.1 31.2ZM30.5 33.3C30.5 35.2 32 36.7 33.9 36.7C35.7 36.7 37.3 35.2 37.3 33.3C37.3 31.4 35.8 29.9 33.9 29.9C32 29.9 30.5 31.4 30.5 33.3ZM31.7 33.4C31.7 32.2 32.7 31.2 33.9 31.2C35 31.2 36.1 32.2 36.1 33.4C36.1 34.6 35.1 35.6 33.9 35.6C32.7 35.6 31.7 34.6 31.7 33.4Z" fill="white"/>
  </mask>
  <g mask="url(#mask0)">
    <rect width="48" height="48" fill="currentColor"/>
  </g>
</svg>
