<svg viewBox="0 0 48 48" fill="none" xmlns="http://www.w3.org/2000/svg">
  <title>Hydroquinone Cycle Glyph</title>
  <path
    d="M34.51 9.68H31.7V8.75C31.7 8.34 31.36 8 30.95 8C30.54 8 30.2 8.34 30.2 8.75V9.68H17.79V8.75C17.79 8.34 17.46 8 17.04 8C16.62 8 16.29 8.34 16.29 8.75V9.68H13.49C10.46 9.68 8 12.15 8 15.17V34.51C8 37.54 10.46 40 13.49 40H34.52C37.55 40 40.01 37.54 40.01 34.51V15.17C40 12.15 37.54 9.68 34.51 9.68ZM13.49 11.18H16.3V11.94C16.3 12.35 16.64 12.69 17.05 12.69C17.46 12.69 17.8 12.35 17.8 11.94V11.18H30.21V11.88C30.21 12.29 30.55 12.63 30.96 12.63C31.37 12.63 31.71 12.29 31.71 11.88V11.18H34.52C36.72 11.18 38.51 12.97 38.51 15.17V21.03H9.51V15.17C9.5 12.97 11.29 11.18 13.49 11.18ZM34.51 38.5H13.49C11.29 38.5 9.5 36.71 9.5 34.51V22.53H38.5V34.51C38.5 36.71 36.71 38.5 34.51 38.5Z"
    fill="currentColor"
  />
  <path
    d="M17.04 18.25C17.82 18.25 18.46 17.61 18.46 16.83C18.46 16.05 17.82 15.41 17.04 15.41C16.25 15.41 15.62 16.05 15.62 16.83C15.62 17.62 16.26 18.25 17.04 18.25Z"
    fill="currentColor"
  />
  <path
    d="M30.96 18.25C31.74 18.25 32.38 17.61 32.38 16.83C32.38 16.05 31.74 15.41 30.96 15.41C30.17 15.41 29.54 16.05 29.54 16.83C29.53 17.62 30.17 18.25 30.96 18.25Z"
    fill="currentColor"
  />
  <path
    d="M24.89 30.51L27.45 26.45C27.67 26.1 27.57 25.64 27.21 25.42C26.86 25.2 26.4 25.3 26.18 25.66L24 29.11L21.83 25.66C21.61 25.31 21.15 25.2 20.8 25.42C20.45 25.64 20.34 26.1 20.56 26.45L23.12 30.51L20.56 34.57C20.34 34.92 20.44 35.38 20.8 35.6C20.92 35.68 21.06 35.72 21.2 35.72C21.45 35.72 21.69 35.6 21.84 35.37L24 31.92L26.17 35.37C26.31 35.6 26.56 35.72 26.81 35.72C26.95 35.72 27.08 35.68 27.21 35.6C27.56 35.38 27.67 34.92 27.45 34.57L24.89 30.51Z"
    fill="currentColor"
  />
  <path
    d="M17.09 25.5C15.31 27.12 14.39 29.83 13.93 31.93C13.52 31.32 12.97 30.79 12.21 30.53C11.82 30.4 11.39 30.61 11.26 31.01C11.13 31.4 11.34 31.83 11.74 31.96C12.89 32.34 13.39 34.34 13.48 35.07C13.53 35.45 13.85 35.73 14.22 35.73C14.23 35.73 14.24 35.73 14.24 35.73C14.63 35.72 14.94 35.41 14.96 35.03C14.96 34.97 15.37 29.08 18.08 26.61C18.39 26.33 18.41 25.86 18.13 25.55C17.85 25.24 17.39 25.22 17.09 25.5Z"
    fill="currentColor"
  />
  <path
    d="M35.52 25.5C33.74 27.12 32.82 29.83 32.36 31.93C31.95 31.32 31.4 30.79 30.64 30.53C30.25 30.4 29.82 30.61 29.69 31.01C29.56 31.4 29.77 31.83 30.17 31.96C31.32 32.34 31.82 34.34 31.91 35.07C31.96 35.45 32.28 35.73 32.65 35.73C32.66 35.73 32.67 35.73 32.67 35.73C33.06 35.72 33.37 35.41 33.39 35.03C33.39 34.97 33.8 29.08 36.51 26.61C36.82 26.33 36.84 25.86 36.56 25.55C36.3 25.24 35.83 25.22 35.52 25.5Z"
    fill="currentColor"
  />
</svg>
