<svg viewBox="0 0 48 48" fill="none" xmlns="https://www.w3.org/2000/svg">
  <title>Hydrocolloid Bandage Glyph</title>
  <path fill-rule="evenodd" clip-rule="evenodd" d="M14.3612 18.6073C12.4829 18.6073 11 17.1498 11 15.3036C11 13.4575 12.4829 12 14.3612 12C16.2395 12 17.7224 13.4575 17.7224 15.3036C17.7224 17.1498 16.2395 18.6073 14.3612 18.6073ZM14.3612 13.166C13.1749 13.166 12.1863 14.1377 12.1863 15.3036C12.1863 16.4696 13.1749 17.4413 14.3612 17.4413C15.5475 17.4413 16.5361 16.4696 16.5361 15.3036C16.5361 14.1377 15.5475 13.166 14.3612 13.166ZM23.9506 18.6073C22.0722 18.6073 20.5894 17.1498 20.5894 15.3036C20.5894 13.4575 22.1711 12 23.9506 12C25.73 12 27.3118 13.4575 27.3118 15.3036C27.3118 17.1498 25.8289 18.6073 23.9506 18.6073ZM23.9506 13.166C22.7643 13.166 21.7757 14.1377 21.7757 15.3036C21.7757 16.4696 22.7643 17.4413 23.9506 17.4413C25.1369 17.4413 26.1255 16.4696 26.1255 15.3036C26.1255 14.1377 25.1369 13.166 23.9506 13.166ZM30.2776 15.3036C30.2776 17.1498 31.7605 18.6073 33.6388 18.6073C35.4183 18.6073 37 17.1498 37 15.3036C37 13.4575 35.5171 12 33.6388 12C31.7605 12 30.2776 13.4575 30.2776 15.3036ZM31.4639 15.3036C31.4639 14.1377 32.4525 13.166 33.6388 13.166C34.7262 13.166 35.8137 14.1377 35.8137 15.3036C35.8137 16.4696 34.8251 17.4413 33.6388 17.4413C32.4525 17.4413 31.4639 16.4696 31.4639 15.3036ZM14.3612 27.3522C12.4829 27.3522 11 25.8947 11 24.0486C11 22.2024 12.4829 20.7449 14.3612 20.7449C16.2395 20.7449 17.7224 22.2024 17.7224 24.0486C17.7224 25.8947 16.2395 27.3522 14.3612 27.3522ZM14.3612 21.9109C13.1749 21.9109 12.1863 22.8826 12.1863 24.0486C12.1863 25.2146 13.1749 26.1862 14.3612 26.1862C15.5475 26.1862 16.5361 25.2146 16.5361 24.0486C16.5361 22.8826 15.5475 21.9109 14.3612 21.9109ZM20.5894 24.0486C20.5894 25.8947 22.0722 27.3522 23.9506 27.3522C25.8289 27.3522 27.3118 25.8947 27.3118 24.0486C27.3118 22.2024 25.73 20.7449 23.9506 20.7449C22.1711 20.7449 20.5894 22.2024 20.5894 24.0486ZM21.7757 24.0486C21.7757 22.8826 22.7643 21.9109 23.9506 21.9109C25.1369 21.9109 26.1255 22.8826 26.1255 24.0486C26.1255 25.2146 25.1369 26.1862 23.9506 26.1862C22.7643 26.1862 21.7757 25.2146 21.7757 24.0486ZM33.6388 27.3522C31.7605 27.3522 30.2776 25.8947 30.2776 24.0486C30.2776 22.2024 31.7605 20.7449 33.6388 20.7449C35.5171 20.7449 37 22.2024 37 24.0486C37 25.8947 35.4183 27.3522 33.6388 27.3522ZM33.6388 21.9109C32.4525 21.9109 31.4639 22.8826 31.4639 24.0486C31.4639 25.2146 32.4525 26.1862 33.6388 26.1862C34.8251 26.1862 35.8137 25.2146 35.8137 24.0486C35.8137 22.8826 34.7262 21.9109 33.6388 21.9109ZM11 32.6964C11 34.5425 12.4829 36 14.3612 36C16.2395 36 17.7224 34.5425 17.7224 32.6964C17.7224 30.8502 16.2395 29.3927 14.3612 29.3927C12.4829 29.3927 11 30.8502 11 32.6964ZM12.1863 32.7935C12.1863 31.6275 13.1749 30.6559 14.3612 30.6559C15.5475 30.6559 16.5361 31.6275 16.5361 32.7935C16.5361 33.9595 15.5475 34.9312 14.3612 34.9312C13.1749 34.9312 12.1863 33.9595 12.1863 32.7935ZM23.9506 36C22.0722 36 20.5894 34.5425 20.5894 32.6964C20.5894 30.8502 22.0722 29.3927 23.9506 29.3927C25.8289 29.3927 27.3118 30.8502 27.3118 32.6964C27.3118 34.5425 25.8289 36 23.9506 36ZM23.9506 30.6559C22.7643 30.6559 21.7757 31.6275 21.7757 32.7935C21.7757 33.9595 22.7643 34.9312 23.9506 34.9312C25.1369 34.9312 26.1255 33.9595 26.1255 32.7935C26.1255 31.6275 25.1369 30.6559 23.9506 30.6559ZM30.2776 32.6964C30.2776 34.5425 31.7605 36 33.6388 36C35.4183 36 37 34.5425 37 32.6964C37 30.8502 35.5171 29.3927 33.6388 29.3927C31.7605 29.3927 30.2776 30.8502 30.2776 32.6964ZM31.4639 32.7935C31.4639 31.6275 32.4525 30.6559 33.6388 30.6559C34.7262 30.6559 35.8137 31.6275 35.8137 32.7935C35.8137 33.9595 34.8251 34.9312 33.6388 34.9312C32.4525 34.9312 31.4639 33.9595 31.4639 32.7935Z" fill="currentColor"/>
</svg>
