<svg width="48" height="48" viewBox="0 0 48 48" fill="none" xmlns="http://www.w3.org/2000/svg">
  <path fill-rule="evenodd" clip-rule="evenodd" d="M21.794 12.788C22.798 11.4038 23.3449 10.2566 23.3449 9H24.5949C24.5949 10.2682 25.1661 11.3943 26.1911 12.7704C26.6359 13.3675 27.1502 13.9917 27.7229 14.6867C27.8099 14.7923 27.8982 14.8995 27.9879 15.0085C28.6632 15.8296 29.4029 16.7404 30.1635 17.7799C31.4684 19.5486 32.0888 21.5997 31.8906 23.604C31.6916 25.6159 30.672 27.532 28.7872 29.0205L28.7774 29.0283L28.7773 29.0282C27.3983 30.0729 25.7103 30.6277 23.9807 30.605C22.2407 30.6323 20.5427 30.0697 19.1632 29.0088C18.3119 28.3776 17.598 27.5795 17.0651 26.6634C16.5312 25.7455 16.1902 24.7283 16.063 23.6741C15.9358 22.6199 16.0251 21.5508 16.3253 20.5323C16.6245 19.5173 17.127 18.5737 17.8022 17.759C18.5302 16.8191 19.2277 15.9774 19.8636 15.2102C19.9135 15.1499 19.9631 15.0901 20.0123 15.0307C20.6929 14.2091 21.2926 13.4792 21.794 12.788ZM23.9799 29.98L23.9888 29.355C25.4412 29.3759 26.8589 28.9115 28.0175 28.0356C29.6494 26.7448 30.4833 25.1325 30.6467 23.481C30.8109 21.8207 30.3016 20.0722 29.157 18.5211L29.1555 18.5191C28.4164 17.509 27.695 16.6202 27.0225 15.8025C26.9343 15.6953 26.8467 15.589 26.76 15.4838C26.1895 14.7915 25.6532 14.1408 25.1886 13.5171C24.7132 12.8788 24.2961 12.2478 23.9796 11.5962C23.6746 12.246 23.2716 12.8798 22.8058 13.522C22.2771 14.2508 21.6518 15.011 20.9749 15.8281C20.9262 15.887 20.8771 15.9462 20.8278 16.0057C20.1885 16.777 19.5012 17.6064 18.7841 18.5326L18.7775 18.5412L18.7705 18.5495C18.2005 19.2354 17.7765 20.0303 17.5243 20.8857C17.2722 21.7411 17.1972 22.639 17.304 23.5244C17.4109 24.4098 17.6972 25.264 18.1456 26.0349C18.594 26.8058 19.195 27.4771 19.9117 28.0077L19.9213 28.0148L19.9213 28.0149C21.0798 28.9073 22.5071 29.3798 23.9693 29.3551L23.9799 29.98Z" fill="currentColor"/>
  <path fill-rule="evenodd" clip-rule="evenodd" d="M14.8218 30.168C15.4194 29.7836 16.2612 29.4593 17.3056 29.2295L17.5742 30.4503C16.6186 30.6605 15.9304 30.9412 15.498 31.2193C15.0297 31.5205 15.0049 31.7174 15.0049 31.7199C15.0049 31.73 15.0228 31.9009 15.4648 32.1777C15.8742 32.4342 16.5083 32.6883 17.3476 32.9108C19.0168 33.3534 21.3579 33.6349 23.9699 33.6349C26.5818 33.6349 28.923 33.3534 30.5922 32.9108C31.4314 32.6883 32.0655 32.4342 32.475 32.1777C32.917 31.9009 32.9349 31.73 32.9349 31.7199C32.9349 31.6356 32.9212 31.5934 32.9015 31.5591C32.879 31.52 32.8186 31.4401 32.6451 31.3329C32.2763 31.105 31.5448 30.8414 30.1294 30.5633L30.3704 29.3367C31.805 29.6186 32.7284 29.915 33.3022 30.2695C33.5999 30.4535 33.8326 30.6705 33.9855 30.9366C34.1411 31.2077 34.1849 31.4792 34.1849 31.7199C34.1849 32.4098 33.6665 32.9064 33.1385 33.2371C32.578 33.5881 31.8083 33.8815 30.9126 34.119C29.1118 34.5965 26.6579 34.8849 23.9699 34.8849C21.2818 34.8849 18.828 34.5965 17.0272 34.119C16.1314 33.8815 15.3618 33.5881 14.8013 33.2371C14.2732 32.9064 13.7549 32.4098 13.7549 31.7199C13.7549 31.0524 14.26 30.5293 14.8218 30.168Z" fill="currentColor"/>
  <path fill-rule="evenodd" clip-rule="evenodd" d="M13.7069 27.3655C14.1721 27.2074 14.6812 27.073 15.197 26.9517L15.4833 28.1684C14.9822 28.2863 14.5143 28.4109 14.1018 28.5515L14.0934 28.5544L14.085 28.557C12.5086 29.045 11.265 29.6376 10.4292 30.2784C9.58541 30.9254 9.24512 31.5483 9.24512 32.1C9.24512 32.5933 9.52633 33.1527 10.2291 33.7457C10.9282 34.3356 11.9766 34.897 13.3264 35.3817C16.0204 36.3493 19.7834 36.965 23.9701 36.965C28.1578 36.965 31.9182 36.3565 34.6094 35.3928C35.9577 34.91 37.0043 34.3497 37.7019 33.7591C38.4023 33.1661 38.6851 32.6028 38.6851 32.1C38.6851 31.4711 38.2381 30.7476 37.129 30.0137C36.04 29.2932 34.4384 28.6528 32.4517 28.1672L32.7485 26.9529C34.8118 27.4573 36.5652 28.1419 37.8188 28.9713C39.0522 29.7874 39.9351 30.8388 39.9351 32.1C39.9351 33.1121 39.3605 33.9926 38.5096 34.713C37.656 35.4358 36.4575 36.0587 35.0308 36.5696C32.1721 37.5934 28.2625 38.215 23.9701 38.215C19.6769 38.215 15.7648 37.5856 12.9039 36.5582C11.4761 36.0454 10.2771 35.4218 9.42298 34.7011C8.57265 33.9835 7.99512 33.1067 7.99512 32.1C7.99512 30.9916 8.67983 30.0446 9.66859 29.2865C10.6635 28.5236 12.0569 27.8771 13.7069 27.3655Z" fill="currentColor"/>
</svg>
