<svg width="48" height="48" viewBox="0 0 48 48" fill="none" xmlns="http://www.w3.org/2000/svg">
  <title>Intersex Glyph</title>
  <path
    d="M34.68 9.18129C34.39 8.93129 33.95 8.94129 33.67 9.20129C33.67 9.20129 33.66 9.21129 33.64 9.23129C33.34 9.49129 31.07 11.3413 27.4 10.4013C27 10.3013 26.59 10.5413 26.49 10.9413C26.39 11.3413 26.63 11.7513 27.03 11.8513C28.5 12.2313 29.79 12.2213 30.87 12.0413L26.22 16.7413C24.82 15.5713 23.02 14.8613 21.06 14.8613C16.61 14.8713 13 18.4913 13 22.9313C13 27.1213 16.21 30.5713 20.31 30.9513V34.3113H18.01C17.6 34.3113 17.26 34.6513 17.26 35.0613C17.26 35.4713 17.6 35.8013 18.01 35.8013H20.3V38.1813C20.3 38.5913 20.64 38.9313 21.05 38.9313C21.46 38.9313 21.8 38.5913 21.8 38.1813V35.8013H24.09C24.5 35.8013 24.84 35.4613 24.84 35.0513C24.84 34.6413 24.5 34.3013 24.09 34.3013H21.81V30.9413C25.9 30.5613 29.11 27.1113 29.11 22.9213C29.11 20.9813 28.42 19.2013 27.28 17.8113L32.09 12.9513C32 13.9813 32.11 15.2013 32.6 16.6413C32.71 16.9513 33 17.1413 33.31 17.1413C33.39 17.1413 33.48 17.1313 33.56 17.1013C33.95 16.9613 34.16 16.5413 34.02 16.1413C32.69 12.3313 34.63 10.3713 34.72 10.2813H34.7C34.77 10.2213 34.8 10.1813 34.8 10.1813C35.03 9.87129 34.97 9.44129 34.68 9.18129ZM21.06 29.4813C17.45 29.4813 14.5 26.5413 14.5 22.9213C14.5 19.3113 17.44 16.3713 21.06 16.3713C24.67 16.3713 27.61 19.3113 27.61 22.9213C27.61 26.5413 24.67 29.4813 21.06 29.4813Z"
    fill="currentColor"
  />
</svg>
