<svg width="48" height="48" viewBox="0 0 48 48" fill="none" xmlns="http://www.w3.org/2000/svg">
  <title>Ivermectin Ingredient Glyph</title>
  <path d="M17.8978 16.0518L16.8315 16.6641L19.9673 22.1257L21.0336 21.5135L17.8978 16.0518Z" fill="currentColor" />
  <path
    d="M24.1249 19.7368L23.2852 14.9583L22.1855 15.5881L22.8053 18.4572L22.9253 18.847L22.6454 18.5471L20.4861 16.5677L19.3864 17.1976L23.0953 20.3266L24.1249 19.7368Z"
    fill="currentColor" />
  <path
    d="M31.6426 9L15.6476 9.40987L8 23.4655L16.3574 37.1212L32.3524 36.7113L40 22.6557L31.6426 9ZM31.6026 35.4817L17.0372 35.8516L9.43955 23.4255L16.3974 10.6395L30.9528 10.2696L38.5505 22.6857L31.6026 35.4817Z"
    fill="currentColor" />
  <path
    d="M30.5929 21.9759L29.1334 19.0068L27.4239 21.836L24.4548 23.2955L27.284 25.005L28.7435 27.974L30.453 25.1449L33.422 23.6854L30.5929 21.9759ZM29.5732 24.1852L28.8535 25.3648L28.2437 24.1252L27.064 23.4055L28.3036 22.7957L29.0234 21.616L29.6332 22.8556L30.8228 23.5754L29.5732 24.1852Z"
    fill="currentColor" />
  <path
    d="M22.2356 27.5842L20.1162 26.2546L20.1462 28.7539L18.8167 30.8732L21.3159 30.8432L23.4352 32.1728L23.4052 29.6736L24.7348 27.5542L22.2356 27.5842ZM22.1656 29.9135L21.6658 29.6036L21.0759 29.6136L21.3858 29.1137L21.3759 28.5239L21.8757 28.8338L22.4655 28.8238L22.1556 29.3237L22.1656 29.9135Z"
    fill="currentColor" />
</svg>