<svg width="48" height="48" viewBox="0 0 48 48" fill="none" xmlns="http://www.w3.org/2000/svg">
  <title>Kojic Acid Glyph</title>
  <path d="M19.36 25.68L21.5 29.31L20.02 29.21L18.45 26.61L17.47 27.72L17.38 29.03L16.14 28.95L16.56 22.66L17.8 22.74L17.59 25.93L20.01 22.89L21.51 22.99L19.36 25.68Z" fill="currentColor"/>
  <path d="M8 23.02L17 10L32.8 11.05L39.7 25.53L30.75 38.68L14.81 37.45L8 23.02ZM15.66 36.28L30.18 37.4L38.33 25.42L32.05 12.24L17.66 11.28L9.46 23.14L15.66 36.28Z" fill="currentColor"/>
  <path d="M22.17 20.15C20.9 20.15 19.86 19.11 19.86 17.84C19.86 16.57 20.9 15.53 22.17 15.53C23.44 15.53 24.48 16.57 24.48 17.84C24.48 19.11 23.44 20.15 22.17 20.15ZM22.17 16.77C21.58 16.77 21.11 17.25 21.11 17.83C21.11 18.42 21.59 18.89 22.17 18.89C22.76 18.89 23.23 18.41 23.23 17.83C23.23 17.25 22.75 16.77 22.17 16.77Z" fill="currentColor"/>
  <path d="M28.8 24.19C27.17 24.19 25.84 22.86 25.84 21.23C25.84 19.6 27.17 18.27 28.8 18.27C30.43 18.27 31.76 19.6 31.76 21.23C31.76 22.86 30.43 24.19 28.8 24.19ZM28.8 19.52C27.86 19.52 27.09 20.29 27.09 21.23C27.09 22.17 27.86 22.94 28.8 22.94C29.74 22.94 30.51 22.17 30.51 21.23C30.51 20.29 29.74 19.52 28.8 19.52Z" fill="currentColor"/>
  <path d="M28.16 33.84C26.23 33.84 24.66 32.27 24.66 30.34C24.66 28.41 26.23 26.84 28.16 26.84C30.09 26.84 31.66 28.41 31.66 30.34C31.66 32.27 30.08 33.84 28.16 33.84ZM28.16 28.1C26.92 28.1 25.91 29.11 25.91 30.35C25.91 31.59 26.92 32.6 28.16 32.6C29.4 32.6 30.41 31.59 30.41 30.35C30.41 29.11 29.4 28.1 28.16 28.1Z" fill="currentColor"/>
</svg>
