<svg viewBox="0 0 48 48" fill="none" xmlns="http://www.w3.org/2000/svg">
  <title>Lightbulb Glyph</title>
  <path
    d="M24.5499 8H24.3199C17.5399 8 13.9999 12.78 13.9999 17.5C13.9999 20.99 15.4299 23.82 18.2499 25.91C20.1799 27.34 20.5599 28.35 20.5599 29.52V32.52C20.5599 32.93 20.8999 33.27 21.3099 33.27C21.7199 33.27 22.0599 32.93 22.0599 32.52V29.52C22.0599 27.64 21.2099 26.25 19.1399 24.71C16.6899 22.88 15.4999 20.52 15.4999 17.5C15.4999 13.65 18.2599 9.5 24.3199 9.5H24.5499C30.0699 9.5 33.3699 13.57 33.3699 17.5C33.3699 20.36 31.9699 22.98 29.5299 24.69C27.0099 26.45 26.7999 28.06 26.7999 29.42V32.51C26.7999 32.92 27.1399 33.26 27.5499 33.26C27.9599 33.26 28.2999 32.92 28.2999 32.51V29.42C28.2999 28.56 28.2999 27.38 30.3899 25.92C33.2399 23.92 34.8699 20.85 34.8699 17.5C34.8699 12.83 31.0099 8 24.5499 8Z"
    fill="#2D2A26"
  />
  <path
    d="M27.6299 34.31H21.2299C20.8199 34.31 20.4799 34.65 20.4799 35.06V39.25C20.4799 39.66 20.8199 40 21.2299 40H27.6299C28.0399 40 28.3799 39.66 28.3799 39.25V35.06C28.3799 34.65 28.0499 34.31 27.6299 34.31ZM26.8799 38.5H21.9799V35.81H26.8799V38.5Z"
    fill="#2D2A26"
  />
  <path
    d="M25.1699 32.52V22.65C25.1699 22.24 24.8299 21.9 24.4199 21.9C24.0099 21.9 23.6699 22.24 23.6699 22.65V32.52C23.6699 32.93 24.0099 33.27 24.4199 33.27C24.8299 33.27 25.1699 32.93 25.1699 32.52Z"
    fill="#2D2A26"
  />
</svg>
