<svg viewBox="0 0 48 48" fill="none" xmlns="http://www.w3.org/2000/svg">
  <title>Lip Balm Glyph</title>
  <mask id="mask0" mask-type="alpha" maskUnits="userSpaceOnUse" x="19" y="8" width="11" height="33">
    <path d="M28.2 19.9375V11.8375C28.2 11.5375 28.2 11.2375 28.1 10.8375C27.8 9.6375 27 8.7375 25.9 8.3375C25.2 8.0375 24.5 7.9375 23.8 8.0375C22.4 8.2375 21.3 9.1375 20.8 10.4375C20.7 10.9375 20.6 11.3375 20.6 11.8375V19.9375H19V40.3375H29.7V19.9375H28.2ZM22 10.9375C22.3 10.0375 23 9.4375 23.9 9.3375C24 9.3375 24.2 9.3375 24.3 9.3375C24.7 9.3375 25 9.4375 25.4 9.5375C26.1 9.8375 26.7 10.4375 26.9 11.2375C26.9 11.3375 27 11.5375 27 11.8375C27 12.2375 26.9 12.7375 26.7 13.1375C26.5 13.2375 26.4 13.3375 26.3 13.5375C25.8 14.0375 25.2 14.3375 24.5 14.3375C23.8 14.3375 23.1 14.1375 22.6 13.6375C22.5 13.4375 22.3 13.2375 22.2 13.0375C22 12.6375 21.9 12.2375 21.9 11.8375C21.9 11.5375 21.9 11.2375 22 10.9375ZM21.9 14.6375C22.6 15.2375 23.5 15.6375 24.4 15.6375H24.5C25.4 15.6375 26.3 15.2375 27 14.6375V19.9375H21.9V14.6375ZM28.4 39.0375H20.2V21.1375H20.6H28.2H28.4V39.0375Z" fill="white"/>
  </mask>
  <g mask="url(#mask0)">
    <rect width="48" height="48" fill="#332E54"/>
  </g>
</svg>
