<svg viewBox="0 0 48 48" fill="none" xmlns="https://www.w3.org/2000/svg">
  <title>Lip Balm Glyph</title>
  <path d="M27.5981 19.8129V11.7974C27.5981 11.5006 27.5981 11.2037 27.5047 10.8079C27.2243 9.62041 26.4766 8.7298 25.4486 8.33398C24.7944 8.03711 24.1402 7.93815 23.486 8.03711C22.1776 8.23502 21.1495 9.12563 20.6822 10.4121C20.5888 10.9068 20.4953 11.3027 20.4953 11.7974V19.8129H19V40H29V19.8129H27.5981ZM21.8037 10.9068C22.0841 10.0162 22.7383 9.4225 23.5794 9.32354C23.6729 9.32354 23.8598 9.32354 23.9533 9.32354C24.3271 9.32354 24.6075 9.4225 24.9813 9.52145C25.6355 9.81832 26.1963 10.4121 26.3832 11.2037C26.3832 11.3027 26.4766 11.5006 26.4766 11.7974C26.4766 12.1933 26.3832 12.6881 26.1963 13.0839C26.0093 13.1828 25.9159 13.2818 25.8224 13.4797C25.3551 13.9745 24.7944 14.2714 24.1402 14.2714C23.486 14.2714 22.8318 14.0734 22.3645 13.5787C22.271 13.3808 22.0841 13.1828 21.9907 12.9849C21.8037 12.5891 21.7103 12.1933 21.7103 11.7974C21.7103 11.5006 21.7103 11.2037 21.8037 10.9068ZM21.7103 14.5682C22.3645 15.162 23.2056 15.5578 24.0467 15.5578H24.1402C24.9813 15.5578 25.8224 15.162 26.4766 14.5682V19.8129H21.7103V14.5682ZM27.785 38.7136H20.1215V21.0004H20.4953H27.5981H27.785V38.7136Z" fill="currentColor"/>
</svg>
