<svg viewBox="0 0 48 48" fill="none" xmlns="https://www.w3.org/2000/svg">
  <title>Lock Glyph</title>
  <path fill-rule="evenodd" clip-rule="evenodd" d="M24.4438 9.25C20.7397 9.25 17.7611 12.2216 17.7611 15.9083V22.1831H31.2389V15.9083C31.2389 12.2339 28.1604 9.25 24.4438 9.25ZM16.5111 15.9083V22.1831H15V39.9991H34V22.1831H32.4889V15.9083C32.4889 11.515 28.8218 8 24.4438 8C20.0532 8 16.5111 11.5273 16.5111 15.9083ZM32.6509 23.5277V38.5424H16.3491V23.5277H32.6509ZM25.4556 31.1471C25.4556 30.5869 25.0059 30.2507 24.5562 30.2507C23.9941 30.2507 23.6568 30.5869 23.6568 31.0351C23.6568 31.4833 23.9941 32.0435 24.5562 32.0435C25.1183 32.0435 25.4556 31.7074 25.4556 31.1471ZM22.3077 31.0351C22.3077 29.8025 23.3195 28.7941 24.5562 28.7941C25.7929 28.7941 26.8047 29.8025 26.8047 31.0351C26.8047 32.2676 25.7929 33.2761 24.5562 33.2761C23.3195 33.2761 22.3077 32.2676 22.3077 31.0351Z" fill="currentColor"/>
</svg>
