<svg viewBox="0 0 48 48" fill="none" xmlns="http://www.w3.org/2000/svg">
  <title>Lock Glyph</title>
  <mask id="mask0" mask-type="alpha" maskUnits="userSpaceOnUse" x="14" y="8" width="19" height="32">
    <path fill-rule="evenodd" clip-rule="evenodd" d="M23.4438 9.25C19.7388 9.25 16.7611 12.2178 16.7611 15.8977V22.1635H30.2389V15.8977C30.2389 12.2301 27.1613 9.25 23.4438 9.25ZM15.5111 15.8977V22.1635L14 22.1635V39.9537H33V22.1635L31.4889 22.1635V15.8977C31.4889 11.5094 27.821 8 23.4438 8C19.0541 8 15.5111 11.5218 15.5111 15.8977ZM31.6509 23.5061V38.4991H15.3491V23.5061H31.6509ZM24.4556 31.1145C24.4556 30.5551 24.0059 30.2194 23.5562 30.2194C22.9941 30.2194 22.6568 30.5551 22.6568 31.0026C22.6568 31.4502 22.9941 32.0096 23.5562 32.0096C24.1183 32.0096 24.4556 31.674 24.4556 31.1145ZM21.3077 31.0026C21.3077 29.7719 22.3195 28.7649 23.5562 28.7649C24.7929 28.7649 25.8047 29.7719 25.8047 31.0026C25.8047 32.2334 24.7929 33.2404 23.5562 33.2404C22.3195 33.2404 21.3077 32.2334 21.3077 31.0026Z" fill="white"/>
  </mask>
  <g mask="url(#mask0)">
    <rect width="48" height="48" fill="#332E54"/>
  </g>
</svg>
