<svg viewBox="0 0 48 48" fill="none" xmlns="http://www.w3.org/2000/svg">
  <title>Lunch Glyph</title>
  <path
    d="M32.36 13.7C30.24 13.7 29.16 14.52 28.29 15.17C27.61 15.68 27.12 16.05 26.23 16.05C25.13 16.05 24.82 14.84 24.74 14.11C24.52 12.23 25.1 11.12 25.64 10.52C26.21 9.87 27.03 9.49 27.82 9.49C28.23 9.49 28.57 9.15 28.57 8.74C28.57 8.33 28.23 8 27.82 8C26.61 8 25.37 8.57 24.52 9.53C23.78 10.36 22.97 11.86 23.26 14.29C23.5 16.33 24.62 17.55 26.24 17.55C27.64 17.55 28.47 16.92 29.21 16.36C30.01 15.76 30.76 15.19 32.37 15.19C34.66 15.19 38.51 16.12 38.51 22.36C38.51 29.61 34.21 38.47 29.19 38.47C27.02 38.47 26.27 37.9 25.67 37.44C25.25 37.12 24.77 36.75 24.02 36.75C23.26 36.75 22.8 37.12 22.4 37.45C21.83 37.91 21.11 38.49 18.86 38.49C13.15 38.49 9.51 28.78 9.51 22.1C9.5 17.85 12.05 15.1 16 15.1C17.33 15.1 18 15.62 18.79 16.22C19.45 16.72 20.19 17.3 21.32 17.54C21.73 17.62 22.12 17.37 22.21 16.97C22.3 16.56 22.04 16.17 21.64 16.08C20.84 15.9 20.31 15.5 19.7 15.03C18.83 14.36 17.84 13.6 16 13.6C11.21 13.6 8 17.02 8 22.11C8 29.58 12.13 40 18.85 40C21.63 40 22.66 39.17 23.33 38.62C23.69 38.33 23.8 38.26 24.01 38.26C24.23 38.26 24.37 38.35 24.75 38.64C25.45 39.17 26.5 39.98 29.18 39.98C35.78 39.98 40 29.55 40 22.37C40 16.94 37.15 13.7 32.36 13.7Z"
    fill="currentColor"
  />
</svg>
