<svg viewBox="0 0 48 48" fill="none" xmlns="http://www.w3.org/2000/svg">
  <title>Lunch Glyph</title>
  <path d="M30.5609 41.9774C29.7289 41.9774 29.0564 41.6955 28.5663 41.1428C27.1188 39.4962 27.6545 35.718 28.213 31.7143C28.7715 27.7669 29.3984 23.2895 27.8255 21.7331C24.0414 17.5489 25.3978 10.8609 27.7685 7.81578C29.0564 6.16917 30.5609 5.60526 31.9059 6.28195C32.9431 6.80075 32.9772 9.42857 32.5555 17.0526C32.4416 19.1729 32.3276 21.1692 32.3618 22.3872C32.4302 25.4662 32.6011 28.2632 32.7493 30.7218C33.0912 36.5188 33.3078 40.015 31.997 41.391C31.6095 41.7857 31.1308 41.9774 30.5609 41.9774ZM30.7661 7.13909C29.8543 7.13909 29.0222 8.05263 28.6689 8.50375C26.5375 11.2444 25.2952 17.2444 28.6461 20.9549C30.5951 22.8835 29.9569 27.4511 29.3414 31.8722C28.8399 35.4474 28.3156 39.1579 29.4212 40.4098C29.6947 40.7143 30.048 40.8609 30.5609 40.8609C30.8231 40.8609 31.0054 40.7819 31.165 40.6241C32.1338 39.609 31.8945 35.718 31.5981 30.8007C31.45 28.3195 31.279 25.5226 31.2106 22.421C31.1878 21.1579 31.2904 19.1391 31.4158 17.0075C31.5981 13.6579 31.9059 8.0639 31.3474 7.28571C31.1536 7.17293 30.9599 7.13909 30.7661 7.13909Z" fill="#currentColor"/>
  <path d="M19.004 42C18.3087 42 17.7274 41.7406 17.2943 41.2444C15.6644 39.406 16.3027 34.5677 16.9752 29.4474C17.4425 25.8722 18.0922 20.9662 17.0094 20.4699C14.4449 19.2857 13.4533 14.3008 14.2853 10.6241C14.9464 7.68045 16.656 6 18.9812 6C18.9926 6 19.004 6 19.0154 6C21.3405 6 23.0502 7.68045 23.7112 10.6241C24.5433 14.3008 23.5517 19.2857 20.9872 20.4699C19.9158 20.9662 20.5541 25.8722 21.0214 29.4474C21.6938 34.5677 22.3321 39.406 20.7022 41.2444C20.2691 41.7406 19.6992 42 19.004 42ZM18.9926 7.12782C16.5991 7.12782 15.71 9.47368 15.4023 10.8722C14.6273 14.2895 15.6872 18.6203 17.4881 19.4436C19.2319 20.2444 18.8558 23.8195 18.1036 29.5827C17.5223 34.015 16.8612 39.0451 18.1491 40.5C18.5937 40.9962 19.4143 41.0075 19.8588 40.5C21.1467 39.0451 20.4857 34.015 19.9044 29.5827C19.1407 23.8195 18.7646 20.2444 20.5199 19.4436C22.3207 18.609 23.3807 14.2895 22.6057 10.8722C22.2865 9.47368 21.3975 7.12782 19.0154 7.12782C19.004 7.12782 19.004 7.12782 18.9926 7.12782Z" fill="#currentColor"/>
</svg>
