<svg viewBox="0 0 45 45" xmlns="http://www.w3.org/2000/svg" xmlns:xlink="http://www.w3.org/1999/xlink">
  <title>Male</title>
  <g fill="none" fill-rule="evenodd" stroke="currentColor" stroke-linecap="round" stroke-width="2" transform="translate(10 10)">
    <path d="M22.6547093 10.7352267L22.6581977 14.7166933 22.6581977 15.2823378C22.6581977 21.0086933 15.364593 25.65056 12.2256395 25.65056 9.08610465 25.65056 1.7925 21.0086933 1.7925 15.2823378L1.7925 10.7352267 1.7925 10.36776C1.7925 4.64198222 6.46343023.000115555556 12.2256395.000115555556 17.9872674.000115555556 22.6581977 4.64198222 22.6581977 10.36776L22.6547093 10.7352267zM1.79232558 15.5487511C.802209302 15.5487511-.00011627907 14.75084-.00011627907 13.7674622-.00011627907 12.7835067.802209302 11.9861733 1.79232558 11.9861733M22.7217442 15.5487511C23.7118605 15.5487511 24.514186 14.75084 24.514186 13.7674622 24.514186 12.7835067 23.7118605 11.9861733 22.7217442 11.9861733"/>
    <path d="M1.7922661,10.7352267 C1.78299358,7.17669333 3.94869741,4.20864889 8.49347777,5.60860444 C11.0202291,6.39669333 13.2545378,6.70522667 15.9533827,5.60860444 C20.4981631,4.20864889 22.6638669,7.17669333 22.6545944,10.7352267"/>
  </g>
</svg>
