<svg viewBox="0 0 48 48" fill="none" xmlns="http://www.w3.org/2000/svg">
  <title>Male Glyph</title>
  <mask id="mask0" mask-type="alpha" maskUnits="userSpaceOnUse" x="9" y="8" width="31" height="32">
    <path d="M39.7292 25.7136C39.7292 23.9808 38.4681 22.5463 36.8123 22.2575V20.4477C36.8123 13.5836 31.2286 8 24.3646 8C17.5006 8 11.917 13.5836 11.917 20.4477V22.2575C10.2611 22.5463 9 23.9808 9 25.7136C9 27.4465 10.2611 28.8809 11.917 29.1697V29.5066C11.917 34.2334 21.4188 39.0951 21.775 39.278C22.5548 39.7497 23.4501 40 24.355 40C25.2696 40 26.1552 39.7497 26.8965 39.2972C27.3008 39.0951 36.8026 34.2238 36.8026 29.497V29.16C38.4585 28.8809 39.7292 27.4465 39.7292 25.7136ZM24.3646 9.20337C30.5644 9.20337 35.6089 14.2479 35.6089 20.4477V22.1613C35.0698 22.0939 34.5403 21.9495 33.982 21.6895L33.9916 20.4477C33.9916 18.6859 32.8845 17.0012 31.4212 16.5295C30.1697 16.1251 28.9182 16.645 27.9651 17.9639C26.9735 19.3309 26.4825 19.8123 24.9519 19.8508H23.9025C22.3333 19.8508 21.7557 19.2732 20.8026 17.9639C19.8496 16.645 18.5884 16.1251 17.3466 16.5295C15.8833 17.0108 14.7762 18.6956 14.7762 20.4477V21.9398C14.2563 22.0746 13.698 22.142 13.1588 22.1709V20.4477C13.13 14.2479 18.1649 9.20337 24.3646 9.20337ZM10.213 25.7136C10.213 24.645 10.9446 23.7593 11.9266 23.4898V27.9374C10.935 27.6679 10.213 26.7822 10.213 25.7136ZM26.3285 38.2575C25.1444 38.9699 23.633 38.9988 22.3718 38.2383C19.8014 36.9386 13.13 32.8279 13.13 29.5162V23.3935C13.9483 23.355 14.7762 23.2106 15.5367 22.9795L15.9507 22.8448L15.9603 20.4573C15.9603 19.2154 16.7208 17.9928 17.7028 17.6847C18.6366 17.3767 19.3682 18.0602 19.8207 18.6763C20.8315 20.0722 21.7172 21.0541 23.8929 21.0541H24.9615C27.089 21.006 27.8785 20.1203 28.9278 18.6763C29.3803 18.0602 30.1119 17.3767 31.0457 17.6847C32.018 18.0024 32.7882 19.225 32.7882 20.4573L32.7786 22.4501L33.1059 22.6233C33.9819 23.0758 34.781 23.3069 35.6185 23.3839V29.5355C35.6089 32.8279 28.9374 36.929 26.3285 38.2575ZM36.8123 27.9374V23.4898C37.7942 23.7593 38.5259 24.645 38.5259 25.7136C38.5259 26.7822 37.7942 27.6679 36.8123 27.9374Z" fill="white"/>
  </mask>
    <g mask="url(#mask0)">
  <rect width="48" height="48" fill="currentColor"/>
  </g>
</svg>
