<svg viewBox="0 0 48 48" fill="none" xmlns="http://www.w3.org/2000/svg">
  <title>Message Glyph</title>
  <path fill-rule="evenodd" clip-rule="evenodd" d="M24.11 36.3901H34.65L32.97 32.4601C34.97 30.2501 36.07 27.42 36.07 24.43C36.07 21.04 34.62 17.8001 32.09 15.5301C29.52 13.2301 26.22 12.18 22.76 12.56C17.27 13.17 12.85 17.5901 12.24 23.0801C11.86 26.5301 12.91 29.85 15.21 32.41C17.47 34.94 20.72 36.3901 24.11 36.3901ZM22.9 13.81C23.31 13.76 23.72 13.74 24.13 13.74C26.77 13.74 29.26 14.68 31.26 16.47C33.52 18.5 34.82 21.4001 34.82 24.4401C34.82 27.2401 33.74 29.8901 31.78 31.9001L31.49 32.2001L32.76 35.1401H24.12C21.08 35.1401 18.18 33.8401 16.15 31.5801C14.09 29.2801 13.15 26.31 13.49 23.22C14.03 18.31 17.99 14.35 22.9 13.81ZM19.63 26.05C20.1602 26.05 20.59 25.6203 20.59 25.0901C20.59 24.5599 20.1602 24.1301 19.63 24.1301C19.0998 24.1301 18.67 24.5599 18.67 25.0901C18.67 25.6203 19.0998 26.05 19.63 26.05ZM28.67 26.05C29.2002 26.05 29.63 25.6203 29.63 25.0901C29.63 24.5599 29.2002 24.1301 28.67 24.1301C28.1398 24.1301 27.71 24.5599 27.71 25.0901C27.71 25.6203 28.1398 26.05 28.67 26.05Z" fill="currentColor"/>
</svg>
