<svg viewBox="0 0 48 48" fill="none" xmlns="http://www.w3.org/2000/svg">
  <title>Message Glyph</title>
  <path
    d="M15.25 20.34C13.42 20.34 11.93 21.83 11.93 23.66C11.93 25.49 13.42 26.98 15.25 26.98C17.08 26.98 18.57 25.49 18.57 23.66C18.57 21.83 17.08 20.34 15.25 20.34ZM15.25 25.49C14.25 25.49 13.43 24.67 13.43 23.67C13.43 22.67 14.24 21.85 15.25 21.85C16.26 21.85 17.07 22.67 17.07 23.67C17.07 24.67 16.26 25.49 15.25 25.49Z"
    fill="currentColor"
  />
  <path
    d="M24 20.34C22.17 20.34 20.68 21.83 20.68 23.66C20.68 25.49 22.17 26.98 24 26.98C25.83 26.98 27.32 25.49 27.32 23.66C27.32 21.83 25.83 20.34 24 20.34ZM24 25.49C23 25.49 22.18 24.67 22.18 23.67C22.18 22.67 23 21.84 24 21.84C25 21.84 25.82 22.66 25.82 23.66C25.82 24.66 25 25.49 24 25.49Z"
    fill="currentColor"
  />
  <path
    d="M32.75 20.34C30.92 20.34 29.43 21.83 29.43 23.66C29.43 25.49 30.92 26.98 32.75 26.98C34.58 26.98 36.07 25.49 36.07 23.66C36.07 21.83 34.58 20.34 32.75 20.34ZM32.75 25.49C31.75 25.49 30.93 24.67 30.93 23.67C30.93 22.67 31.74 21.85 32.75 21.85C33.76 21.85 34.57 22.67 34.57 23.67C34.57 24.67 33.75 25.49 32.75 25.49Z"
    fill="currentColor"
  />
  <path
    d="M32.61 12H15.39C11.31 12 8 15.31 8 19.39V34.58C8 34.99 8.34 35.33 8.75 35.33H32.61C36.68 35.33 40 32.02 40 27.94V19.39C40 15.31 36.69 12 32.61 12ZM38.5 27.94C38.5 31.19 35.86 33.83 32.61 33.83H9.5V19.39C9.5 16.14 12.14 13.5 15.39 13.5H32.62C35.87 13.5 38.51 16.14 38.51 19.39V27.94H38.5Z"
    fill="currentColor"
  />
</svg>
