<svg width="48" height="48" viewBox="0 0 48 48" fill="none" xmlns="http://www.w3.org/2000/svg">
  <title>Message Glyph</title>
  <path fill-rule="evenodd" clip-rule="evenodd" d="M23.993 36H34.5744L32.8878 32.0546C34.8957 29.8359 36 26.9948 36 23.993C36 20.5897 34.5443 17.3371 32.0044 15.0581C29.4243 12.7491 26.1113 11.695 22.6377 12.0765C17.1262 12.6889 12.6889 17.1262 12.0765 22.6378C11.695 26.1013 12.7491 29.4343 15.0581 32.0043C17.327 34.5443 20.5897 36 23.993 36ZM22.7783 13.3314C23.1899 13.2812 23.6015 13.2611 24.0131 13.2611C26.6635 13.2611 29.1632 14.2048 31.1711 16.0018C33.44 18.0397 34.7451 20.9512 34.7451 24.0031C34.7451 26.8141 33.6608 29.4745 31.6931 31.4924L31.402 31.7936L32.677 34.7451H24.0031C20.9511 34.7451 18.0398 33.44 16.0018 31.1711C13.9337 28.8621 12.99 25.8804 13.3314 22.7783C13.8735 17.849 17.849 13.8735 22.7783 13.3314ZM19.4955 25.6195C20.0277 25.6195 20.4592 25.188 20.4592 24.6557C20.4592 24.1235 20.0277 23.692 19.4955 23.692C18.9632 23.692 18.5317 24.1235 18.5317 24.6557C18.5317 25.188 18.9632 25.6195 19.4955 25.6195ZM28.571 25.6195C29.1032 25.6195 29.5347 25.188 29.5347 24.6557C29.5347 24.1235 29.1032 23.692 28.571 23.692C28.0387 23.692 27.6072 24.1235 27.6072 24.6557C27.6072 25.188 28.0387 25.6195 28.571 25.6195Z" fill="currentColor"/>
</svg>
