<svg width="48" height="48" viewBox="0 0 48 48" fill="none" xmlns="http://www.w3.org/2000/svg">
  <title>Metronidazole Glyph</title>
  <path d="M28.2392 21.6798L27.0092 21.8698L26.4092 17.9298L26.3192 18.4998L25.4192 22.1198L24.3892 22.2798L22.4592 19.0998L22.1992 18.5698L22.7992 22.5098L21.5792 22.6998L20.6292 16.4698L22.0392 16.2598L24.4292 19.9998L24.6192 20.3398L24.7092 19.9498L25.8892 15.6598L27.3092 15.4398L28.2392 21.6798Z" fill="currentColor"/>
  <path d="M7.99921 23.0199L16.9992 9.99988L32.7992 11.0499L39.6992 25.5299L30.7492 38.6799L14.8092 37.4499L7.99921 23.0199ZM15.6592 36.2799L30.1792 37.3999L38.3292 25.4199L32.0492 12.2399L17.6592 11.2799L9.45921 23.1399L15.6592 36.2799Z" fill="currentColor"/>
  <path d="M20.0892 30.3798L13.5092 27.2898L15.4892 23.0698L22.0692 26.1598L20.0892 30.3798ZM15.1792 26.6898L19.4992 28.7198L20.4192 26.7598L16.0992 24.7398L15.1792 26.6898Z" fill="currentColor"/>
  <path d="M26.6192 34.1398L23.8892 29.4098L30.1092 25.8198L32.8392 30.5498L26.6192 34.1398ZM25.5892 29.8698L27.0692 32.4398L31.1292 30.0998L29.6492 27.5298L25.5892 29.8698Z" fill="currentColor"/>
</svg>
