<svg width="48" height="48" viewBox="0 0 48 48" fill="none" xmlns="http://www.w3.org/2000/svg">
  <title>Micellar Water Glyph</title>
  <path d="M32.705 18.2C32.6067 17.4 32.1149 16.7 31.328 16.3L27.5903 14.3V10.8C27.5903 10.8 27.6886 10.8 27.6886 10.7C28.7706 10 28.869 9.4 28.7706 9C28.6722 8.6 28.2788 8.1 27.0001 8C26.2132 8 25.328 8.1 24.3444 8.3C22.6722 8.8 20.8034 9.7 20.705 10.8V10.9V14.1L16.6722 16.3C15.9837 16.7 15.3936 17.4 15.2952 18.2C14.8034 21.7 14.705 33.2 17.4591 38.8L17.5575 38.9C18.246 39.7 21.4919 40 24.246 40C25.5247 40 26.705 39.9 27.3936 39.9C29.7542 39.7 30.246 39.2 30.5411 38.8C33.2952 33.2 33.1968 21.6 32.705 18.2ZM24.6395 9.6C26.1149 9.2 27.0985 9.3 27.4919 9.4C27.3936 9.5 27.0985 9.7 26.8034 9.9C26.3116 10.1 25.7214 10.4 24.9345 10.6C23.4591 10.9 22.4755 10.9 22.0821 10.8C22.1804 10.7 22.2788 10.6 22.3772 10.5C22.7706 10.2 23.5575 9.8 24.6395 9.6ZM26.4099 11.4V14H21.9837V12C22.2788 12.1 22.5739 12.1 22.869 12.1C23.6558 12.1 24.4427 12 25.2296 11.8C25.6231 11.7 26.0165 11.5 26.4099 11.4ZM29.4591 38.2C28.5739 39 19.6231 39 18.5411 38.2C17.0657 35.2 16.4755 30.2 16.2788 25.8C17.0657 24.8 17.9509 25.3 20.9017 27.4L21.0001 27.5C21.9837 28.2 22.869 28.5 23.6558 28.5C25.5247 28.5 27.0001 27 28.3772 25.8C28.869 25.3 29.2624 24.9 29.7542 24.5C30.3444 24.1 30.8362 23.9 31.2296 23.9C31.5247 23.9 31.7214 24.1 31.8198 24.2C31.7214 29 31.1313 34.9 29.4591 38.2ZM31.328 22.7C30.5411 22.6 29.7542 22.9 28.869 23.5C28.3772 23.9 27.8854 24.4 27.3936 24.8C25.2296 26.9 23.7542 28 21.5903 26.4L21.4919 26.3C19.328 24.7 17.5575 23.4 16.0821 24.1C16.0821 21.6 16.1804 19.5 16.3772 18.2C16.4755 17.8 16.6722 17.4 17.0657 17.2L21.1968 15H26.5083L30.6395 17.2C31.0329 17.4 31.2296 17.8 31.328 18.2C31.5247 19.2 31.6231 20.8 31.6231 22.7C31.6231 22.8 31.5247 22.7 31.328 22.7Z" fill="currentColor"/>
</svg>
