<svg viewBox="0 0 48 48" fill="none" xmlns="http://www.w3.org/2000/svg">
  <title>Micellar Water Glyph</title>
  <mask id="mask0" mask-type="alpha" maskUnits="userSpaceOnUse" x="15" y="8" width="19" height="32">
    <path d="M32.9999 18.2C32.8999 17.4 32.3999 16.7 31.5999 16.3L27.7999 14.3V10.8C27.7999 10.8 27.8999 10.8 27.8999 10.7C28.9999 10 29.0999 9.4 28.9999 9C28.8999 8.6 28.4999 8.1 27.1999 8C26.3999 8 25.4999 8.1 24.4999 8.3C22.7999 8.8 20.8999 9.7 20.7999 10.8V10.9V14.1L16.6999 16.3C15.9999 16.7 15.3999 17.4 15.2999 18.2C14.7999 21.7 14.6999 33.2 17.4999 38.8L17.5999 38.9C18.2999 39.7 21.5999 40 24.3999 40C25.6999 40 26.8999 39.9 27.5999 39.9C29.9999 39.7 30.4999 39.2 30.7999 38.8C33.5999 33.2 33.4999 21.6 32.9999 18.2ZM24.7999 9.6C26.2999 9.2 27.2999 9.3 27.6999 9.4C27.5999 9.5 27.2999 9.7 26.9999 9.9C26.4999 10.1 25.8999 10.4 25.0999 10.6C23.5999 10.9 22.5999 10.9 22.1999 10.8C22.2999 10.7 22.3999 10.6 22.4999 10.5C22.8999 10.2 23.6999 9.8 24.7999 9.6ZM26.5999 11.4V14H22.0999V12C22.3999 12.1 22.6999 12.1 22.9999 12.1C23.7999 12.1 24.5999 12 25.3999 11.8C25.7999 11.7 26.1999 11.5 26.5999 11.4ZM29.6999 38.2C28.7999 39 19.6999 39 18.5999 38.2C17.0999 35.2 16.4999 30.2 16.2999 25.8C17.0999 24.8 17.9999 25.3 20.9999 27.4L21.0999 27.5C22.0999 28.2 22.9999 28.5 23.7999 28.5C25.6999 28.5 27.1999 27 28.5999 25.8C29.0999 25.3 29.4999 24.9 29.9999 24.5C30.5999 24.1 31.0999 23.9 31.4999 23.9C31.7999 23.9 31.9999 24.1 32.0999 24.2C31.9999 29 31.3999 34.9 29.6999 38.2ZM31.5999 22.7C30.7999 22.6 29.9999 22.9 29.0999 23.5C28.5999 23.9 28.0999 24.4 27.5999 24.8C25.3999 26.9 23.8999 28 21.6999 26.4L21.5999 26.3C19.3999 24.7 17.5999 23.4 16.0999 24.1C16.0999 21.6 16.1999 19.5 16.3999 18.2C16.4999 17.8 16.6999 17.4 17.0999 17.2L21.2999 15H26.6999L30.8999 17.2C31.2999 17.4 31.4999 17.8 31.5999 18.2C31.7999 19.2 31.8999 20.8 31.8999 22.7C31.8999 22.8 31.7999 22.7 31.5999 22.7Z" fill="white"/>
  </mask>
  <g mask="url(#mask0)">
    <rect width="48" height="48" fill="#332E54"/>
  </g>
</svg>
