<svg viewBox="0 0 48 48" fill="none" xmlns="https://www.w3.org/2000/svg">
  <title>Mix Ingredients Glyph</title>
  <path fill-rule="evenodd" clip-rule="evenodd" d="M31.9668 14.3485L29.9675 8L23.5178 9.9709L25.517 16.3293L31.9668 14.3485ZM29.1337 9.55494L30.3895 13.5462L26.3408 14.7843L25.085 10.793L29.1337 9.55494ZM15.2195 22.2123C15.8624 22.6085 16.5858 22.8165 17.3292 22.8165C17.6306 22.8165 17.932 22.7868 18.2334 22.7174C19.2682 22.4797 20.1522 21.8657 20.7148 20.9743C21.2774 20.083 21.4583 19.0331 21.2272 18.013C20.7349 15.9035 18.5951 14.5862 16.4552 15.0616C14.3153 15.5469 12.9691 17.6565 13.4614 19.7661C13.6924 20.7763 14.3153 21.6478 15.2195 22.2123ZM16.7264 16.26C16.9274 16.2105 17.1383 16.1906 17.3393 16.1906C18.585 16.1906 19.7102 17.0325 20.0016 18.2804C20.1623 18.9836 20.0417 19.7066 19.6499 20.3108C19.2581 20.9248 18.6553 21.3408 17.9521 21.5092C17.2388 21.6676 16.5054 21.5488 15.8926 21.1625C15.2697 20.7762 14.8478 20.182 14.677 19.4887C14.3454 18.0328 15.2597 16.5868 16.7264 16.26ZM32.7303 20.073L32.0371 26.5601V26.57H37V27.1841C37 34.2457 31.1631 39.9999 24 39.9999C16.8369 39.9999 11 34.2556 11 27.1841V26.57H27.4459L23.8393 23.9851L32.7303 20.073ZM31.2535 22.0736L26.3308 24.2327L29.5858 26.5601H30.7813L31.2535 22.0736ZM12.2658 27.7882C12.5974 33.8891 17.7311 38.752 24 38.752C30.2689 38.752 35.4026 33.8891 35.7241 27.7882H29.1739H12.2658Z" fill="currentColor"/>
</svg>
