<svg viewBox="0 0 48 48" fill="none" xmlns="http://www.w3.org/2000/svg">
  <title>Mix Ingredients Glyph</title>
  <mask id="mask0" mask-type="alpha" maskUnits="userSpaceOnUse" x="11" y="8" width="26" height="33">
    <path fill-rule="evenodd" clip-rule="evenodd" d="M31.87 14.41L29.88 8L23.46 9.98999L25.45 16.41L31.87 14.41ZM29.05 9.57001L30.3 13.6L26.27 14.85L25.02 10.82L29.05 9.57001ZM15.2 22.35C15.84 22.75 16.56 22.96 17.3 22.96C17.6 22.96 17.9 22.93 18.2 22.86C19.23 22.62 20.11 22 20.67 21.1C21.23 20.2 21.41 19.14 21.18 18.11C20.69 15.98 18.56 14.65 16.43 15.13C14.3 15.62 12.96 17.75 13.45 19.88C13.68 20.9 14.3 21.78 15.2 22.35ZM16.7 16.34C16.9 16.29 17.11 16.27 17.31 16.27C18.55 16.27 19.67 17.12 19.96 18.38C20.12 19.09 20 19.82 19.61 20.43C19.22 21.05 18.62 21.47 17.92 21.64C17.21 21.8 16.48 21.68 15.87 21.29C15.25 20.9 14.83 20.3 14.66 19.6C14.33 18.13 15.24 16.67 16.7 16.34ZM32.63 20.19L31.94 26.74V26.75H36.88V27.37C36.88 34.5 31.07 40.31 23.94 40.31C16.81 40.31 11 34.51 11 27.37V26.75H27.37L23.78 24.14L32.63 20.19ZM31.16 22.21L26.26 24.39L29.5 26.74H30.69L31.16 22.21ZM12.26 27.98C12.59 34.14 17.7 39.05 23.94 39.05C30.18 39.05 35.29 34.14 35.61 27.98H29.09H12.26Z" fill="white"/>
  </mask>
  <g mask="url(#mask0)">
    <rect x="1.64526" y="1.47046" width="44.4836" height="44.4836" fill="currentColor"/>
  </g>
</svg>
