<svg viewBox="0 0 48 48" fill="none" xmlns="http://www.w3.org/2000/svg">
  <title>Moisturizer Glyph</title>
  <mask id="mask0" mask-type="alpha" maskUnits="userSpaceOnUse" x="20" y="11" width="9" height="27">
    <path d="M29 13.1C28.9 10.3 20.1 10.3 20 13.1V34.9C20 36.3 22.3 37.1 24.5 37.1C26.7 37.1 29 36.3 29 34.9V13.1ZM21.3 13.1C21.4 12.8 22.5 12.2 24.5 12.2C26.5 12.2 27.6 12.8 27.7 13.1C27.7 13.3 26.5 14 24.4 14C22.3 14 21.2 13.4 21.3 13.1C21.2 13.1 21.3 13.1 21.3 13.1ZM24.5 35.8C22.5 35.8 21.3 35.2 21.2 34.9V23.6C22.1 24 23.3 24.2 24.5 24.2C25.7 24.2 26.9 24 27.8 23.6V34.9C27.7 35.2 26.5 35.8 24.5 35.8ZM24.5 23C22.4 23 21.2 22.3 21.2 22.1V14.7C22.1 15.1 23.3 15.3 24.5 15.3C25.7 15.3 26.9 15.1 27.8 14.7V22.1C27.8 22.3 26.6 23 24.5 23Z" fill="white"/>
  </mask>
  <g mask="url(#mask0)">
    <rect width="48" height="48" fill="#332E54"/>
  </g>
</svg>
