<svg width="48" height="48" viewBox="0 0 48 48" fill="none" xmlns="http://www.w3.org/2000/svg">
  <title>Moisturizer Glyph</title>
  <path d="M28 13.931C27.9111 11.3563 20.0889 11.3563 20 13.931V33.977C20 35.2644 22.0444 36 24 36C25.9556 36 28 35.2644 28 33.977V13.931ZM21.1556 13.931C21.2444 13.6552 22.2222 13.1034 24 13.1034C25.7778 13.1034 26.7556 13.6552 26.8444 13.931C26.8444 14.1149 25.7778 14.7586 23.9111 14.7586C22.0444 14.7586 21.0667 14.2069 21.1556 13.931C21.0667 13.931 21.1556 13.931 21.1556 13.931ZM24 34.8046C22.2222 34.8046 21.1556 34.2529 21.0667 33.977V23.5862C21.8667 23.954 22.9333 24.1379 24 24.1379C25.0667 24.1379 26.1333 23.954 26.9333 23.5862V33.977C26.8444 34.2529 25.7778 34.8046 24 34.8046ZM24 23.0345C22.1333 23.0345 21.0667 22.3908 21.0667 22.2069V15.4023C21.8667 15.7701 22.9333 15.954 24 15.954C25.0667 15.954 26.1333 15.7701 26.9333 15.4023V22.2069C26.9333 22.3908 25.8667 23.0345 24 23.0345Z" fill="currentColor"/>
</svg>
