<svg width="48" height="48" viewBox="0 0 48 48" fill="none" xmlns="http://www.w3.org/2000/svg">
  <title>Moon Glyph</title>
  <path d="M13.5703 28.4292C10.6883 21.3936 14.1599 13.3141 20.5968 10.76C23.2439 9.70967 25.9046 9.47089 28.597 10.0446C23.0973 11.9696 19.9559 15.6777 19.2744 21.1126C19.2228 21.5236 19.5142 21.8986 19.9252 21.9501C20.3362 22.0016 20.7112 21.7102 20.7627 21.2992C21.4584 15.7515 24.9608 12.2777 31.4213 10.7939C32.1417 10.6284 32.2137 9.63086 31.5246 9.36363C27.6631 7.86609 23.8231 7.86609 20.0436 9.36576C12.8329 12.2269 8.98278 21.1873 12.1823 28.9978C15.0511 36.0009 23.7412 40.0395 32.0453 36.3024C32.7532 35.9835 32.5698 34.931 31.7958 34.8705C25.8678 34.4072 21.9893 30.464 21.0584 25.2904C20.985 24.8828 20.5951 24.6117 20.1874 24.6851C19.7797 24.7585 19.5087 25.1484 19.5821 25.5561C20.4657 30.4669 23.7466 34.4249 28.7514 35.8481C22.1531 37.407 15.8263 33.9364 13.5703 28.4292Z" fill="currentColor"/>
</svg>
