<svg viewBox="0 0 48 48" fill="none" xmlns="http://www.w3.org/2000/svg">
  <title>Neck Glyph</title>
  <path d="M36.9833 20.3865V20.1197C38.7005 19.7832 40 18.2632 40 16.4532C40 14.6316 38.7005 13.1233 36.9833 12.7868V11H35.533V20.3865C35.533 23.7629 28.6643 27.9862 25.9725 29.3553C24.789 30.0747 23.2574 30.1095 21.9811 29.3321C19.3358 27.9862 12.467 23.7629 12.467 20.3865V11H11.0167V12.7868C9.2995 13.1233 8 14.6432 8 16.4532C8 18.2632 9.2995 19.7832 11.0167 20.1197V20.3865C11.0167 23.0435 13.7549 25.6657 16.4235 27.6033C16.5743 28.9608 16.6323 31.6991 15.0196 33.7527C13.8709 35.2146 12.0609 36.0616 9.64759 36.2937L9.78681 37.7324C12.6178 37.4656 14.7643 36.4329 16.1682 34.6461C17.6998 32.7085 17.9782 30.3299 17.955 28.636C19.5794 29.6918 20.9485 30.3996 21.2966 30.5852C22.1204 31.0841 23.0602 31.351 24.0232 31.351C24.9862 31.351 25.926 31.0841 26.7034 30.62C27.0399 30.446 28.2234 29.831 29.6737 28.9144C29.6389 30.6084 29.9521 32.8129 31.3909 34.6461C32.7948 36.4329 34.9761 37.4656 37.8767 37.7324L38.016 36.2937C35.533 36.0616 33.6882 35.203 32.5279 33.7527C31.0312 31.8499 31.0196 29.3901 31.1936 27.905C33.9666 25.9326 36.9833 23.1711 36.9833 20.3865ZM38.5497 16.4532C38.5497 17.4627 37.8883 18.3096 36.9833 18.6113V14.2835C37.8999 14.5968 38.5497 15.4438 38.5497 16.4532ZM9.45033 16.4532C9.45033 15.4438 10.1117 14.5968 11.0167 14.2835V18.6113C10.1117 18.3096 9.45033 17.4627 9.45033 16.4532Z" fill="currentColor"/>
</svg>
