<svg viewBox="0 0 68 68" xmlns="http://www.w3.org/2000/svg" xmlns:xlink="http://www.w3.org/1999/xlink">
  <title>Neck</title>
  <g fill="none" fill-rule="evenodd" stroke="currentColor" stroke-width="2" transform="translate(14 18)">
    <path stroke-linecap="round" d="M35.8656,0 L35.8706,6.307 L35.8706,7.205 C35.8706,16.275 24.6446,23.63 19.8146,23.63 C14.9836,23.63 3.7596,16.275 3.7596,7.205 L3.7596,0"/>
    <path d="M3.7581 8.456C2.01598661 8.456.603307654 7.0112927.603307654 5.228.603307654 3.44585117 2.01598661 2 3.7581 2M35.9681 8.456C37.4911 8.456 38.7261 7.193 38.7261 5.634 38.7261 4.076 37.4911 2.812 35.9681 2.812"/>
    <path stroke-linecap="round" d="M11.3089 20.54C10.8299 25.453 8.7549 29.64 5.8359 31.16L.9999 33.678M29.0003 20.54C29.4793 25.453 31.5533 29.64 34.4733 31.16L39.3093 33.678"/>
  </g>
</svg>
