<svg width="48" height="48" viewBox="0 0 48 48" fill="none" xmlns="http://www.w3.org/2000/svg">
  <title>Niacinamide Glyph</title>
  <path
    d="M32.63 16.94C33.42 16.94 34.05 16.3 34.05 15.52C34.05 14.73 33.41 14.1 32.63 14.1C31.85 14.1 31.21 14.74 31.21 15.52C31.21 16.3 31.85 16.94 32.63 16.94Z"
    fill="currentColor"
  />
  <path
    d="M39.25 38.5H33.38V24C33.38 23.59 33.04 23.25 32.63 23.25H22.74V8.75C22.74 8.34 22.4 8 21.99 8C21.58 8 21.24 8.34 21.24 8.75V35.64L9.44 8.45C9.3 8.12 8.94 7.94 8.6 8.02C8.25 8.09 8 8.39 8 8.75V39.25C8 39.66 8.34 40 8.75 40C9.16 40 9.5 39.66 9.5 39.25V12.36L21.3 39.55C21.42 39.83 21.7 40 21.99 40C22.04 40 22.09 40 22.14 39.98C22.49 39.91 22.74 39.6 22.74 39.25V24.75H31.88V38.5H26.01C25.6 38.5 25.26 38.84 25.26 39.25C25.26 39.66 25.6 40 26.01 40H39.25C39.66 40 40 39.66 40 39.25C40 38.84 39.66 38.5 39.25 38.5Z"
    fill="currentColor"
  />
</svg>
