<svg viewBox="0 0 80 80" xmlns="http://www.w3.org/2000/svg" xmlns:xlink="http://www.w3.org/1999/xlink">
  <title>Niacinamide</title>
  <g fill="none" fill-rule="evenodd">
    <circle cx="40" cy="40" r="40" fill="#FEFEFE"/>
    <path stroke="#322E53" stroke-linecap="round" stroke-linejoin="round" stroke-width="2" d="M53.6038 53.9704L62.1048 64.4734M18.9998 15.0001L26.4328 24.1831M27.7034 53.7199L18.9994 64.4729M61.2117 15.0001L53.7787 24.1831"/>
    <path fill="#FEFEFE" d="M59.0477,26.6637 C55.2447,26.6637 52.1617,23.5807 52.1617,19.7777 L29.3177,19.7777 C29.3177,23.5807 26.2347,26.6637 22.4317,26.6637 L22.4317,42.1927 C22.4317,46.8137 24.6367,51.1577 28.3657,53.8867 L40.7447,62.9407 L53.1237,53.8867 C56.8537,51.1577 59.0587,46.8137 59.0587,42.1927 L59.0587,26.6637 C59.0547,26.6637 59.0507,26.6637 59.0477,26.6637"/>
    <path stroke="#322E53" stroke-linecap="round" stroke-linejoin="round" stroke-width="2" d="M59.0477,26.6637 C55.2447,26.6637 52.1617,23.5807 52.1617,19.7777 L29.3177,19.7777 C29.3177,23.5807 26.2347,26.6637 22.4317,26.6637 L22.4317,42.1927 C22.4317,46.8137 24.6367,51.1577 28.3657,53.8867 L40.7447,62.9407 L53.1237,53.8867 C56.8537,51.1577 59.0587,46.8137 59.0587,42.1927 L59.0587,26.6637 C59.0547,26.6637 59.0507,26.6637 59.0477,26.6637 Z"/>
    <path fill="#322E53" d="M33.2747 38.7077L32.1467 38.7077 32.1467 36.4527 33.2247 36.4527C33.7347 36.4527 34.5897 36.6027 34.5897 37.6047 34.5897 38.2747 34.0737 38.7077 33.2747 38.7077M33.6127 42.6357L32.1467 42.6357 32.1467 40.2057 33.6127 40.2057C34.5677 40.2057 35.1157 40.6397 35.1157 41.3957 35.1157 42.1837 34.5677 42.6357 33.6127 42.6357M35.4597 39.2767C35.9427 38.8367 36.1877 38.2547 36.1877 37.5427 36.1877 35.9627 35.0247 34.9417 33.2247 34.9417L30.7857 34.9417C30.6617 34.9417 30.5627 35.0417 30.5627 35.1657L30.5627 43.9227C30.5627 44.0457 30.6617 44.1457 30.7857 44.1457L33.6127 44.1457C35.5037 44.1457 36.7257 43.0757 36.7257 41.4197 36.7257 40.4727 36.2597 39.6947 35.4597 39.2767M49.7171 39.3576C50.2111 39.0186 50.6281 38.4026 50.6281 37.4676 50.6281 35.8596 49.5431 34.7796 47.9271 34.7796 46.2641 34.7796 45.1901 35.9036 45.1901 37.6426 45.1901 37.7656 45.2901 37.8656 45.4131 37.8656L46.5511 37.8656C46.6751 37.8656 46.7751 37.7656 46.7751 37.6426 46.7751 36.7826 47.1991 36.2896 47.9401 36.2896 48.8891 36.2896 49.0301 37.0436 49.0301 37.4916 49.0301 38.1036 48.8421 38.6706 47.4771 38.6706L47.2021 38.6706C47.0791 38.6706 46.9791 38.7706 46.9791 38.8936L46.9791 39.8946C46.9791 40.0176 47.0791 40.1176 47.2021 40.1176L47.4901 40.1176C48.3301 40.1176 49.3301 40.3586 49.3301 41.5086 49.3301 42.2916 48.8141 42.7976 48.0151 42.7976 47.3651 42.7976 46.5871 42.5566 46.5741 41.4056 46.5731 41.2836 46.4741 41.1846 46.3511 41.1846L45.2251 41.1846C45.1021 41.1846 45.0021 41.2846 45.0021 41.4076 45.0021 43.1966 46.1471 44.3076 47.9901 44.3076 49.7201 44.3076 50.9281 43.1716 50.9281 41.5456 50.9281 40.4066 50.3481 39.7006 49.7171 39.3576"/>
    <path stroke="#322E53" stroke-linecap="round" stroke-linejoin="round" stroke-width="2" d="M40.4866 20.3585L40.4866 61.7315M22.6815 39.5436L25.2735 39.5436M58.6927 39.5436L56.0317 39.5436"/>
  </g>
</svg>
