<svg viewBox="0 0 48 48" fill="none" xmlns="http://www.w3.org/2000/svg">
  <title>Niacinamide Glyph</title>
  <path fill-rule="evenodd" clip-rule="evenodd" d="M17.4542 10.0258L17.0969 10L16.8941 10.2952L8.2048 22.9386L8.00061 23.2358L8.15556 23.5613L14.7474 37.4089L14.9026 37.7349L15.2626 37.7633L30.5438 38.9674L30.9035 38.9958L31.108 38.6984L39.7972 26.0549L40.0008 25.7588L39.8472 25.4339L33.2553 11.4859L33.0994 11.1559L32.7353 11.1296L17.4542 10.0258ZM9.43917 23.3495L17.7214 11.2984L32.2812 12.3501L38.5635 25.6431L30.2822 37.693L15.7209 36.5455L9.43917 23.3495ZM23.9726 15.0144L25.2112 15.1067L24.7473 21.3899L23.5087 21.2976L21.2041 17.3081L20.9922 16.8772L20.6814 21.0869L19.4518 20.9952L19.9156 14.7121L21.1363 14.8031L23.4313 18.8008L23.6598 19.251L23.9726 15.0144ZM30.8243 24.6462L30.9816 25.0914L32.0802 28.2021L32.2278 28.6198L31.8824 28.8974L29.3855 30.9043L29.0276 31.1919L28.6462 30.9364L25.9495 29.1302L25.5701 28.8761L25.6969 28.4374L26.5958 25.3267L26.7179 24.904L27.157 24.8765L30.3531 24.6758L30.8243 24.6462ZM27.6745 26.0964L27.0245 28.3457L28.9603 29.6423L30.754 28.2006L29.9602 25.9529L27.6745 26.0964ZM20.6905 29.7972L20.529 29.3646L20.0681 29.3918L18.3702 29.4922L17.9387 29.5177L17.8103 29.9305L17.3109 31.536L17.177 31.9665L17.5433 32.2294L18.9415 33.2328L19.3239 33.5072L19.6932 33.2156L21.0915 32.1118L21.4491 31.8295L21.2898 31.4027L20.6905 29.7972ZM18.6384 31.4767L18.8755 30.7145L19.6809 30.6669L19.9594 31.413L19.288 31.9429L18.6384 31.4767Z" fill="currentColor"/>
</svg>
