<svg viewBox="0 0 48 48" fill="none" xmlns="http://www.w3.org/2000/svg">
  <title>No Make-up Glyph</title>
  <mask id="mask0" mask-type="alpha" maskUnits="userSpaceOnUse" x="10" y="8" width="29" height="32">
    <path fill-rule="evenodd" clip-rule="evenodd" d="M33.6376 13.8475L38.001 8.81925L37.0569 8L31.9826 13.8475H31.7229V11.5087H33.7672V10.2587H28.4286V11.5087H30.4729V13.8475H26.9727V15.0975H30.4729V15.5873L28.9763 17.312H26.9727V18.562H27.8916L21.5128 25.9129V20.5353H14.4755V34.0226L10 39.1801L10.9441 39.9994L14.4755 35.9298V37.1153H21.5128V27.8202L29.5466 18.562H30.4729V21.1476H28.4286V22.3976H30.4729V27.9586H31.7229V22.3976H33.7672V21.1476H31.7229V18.562H35.2232V17.312H31.7229V16.054L32.5529 15.0975H35.2232V13.8475H33.6376ZM20.0568 27.5908V22.1438H15.9315V32.3447L20.0568 27.5908ZM15.9315 34.2519L20.0568 29.498V35.6305H15.9315V34.2519ZM33.1606 35.6305V29.5677H29.1566V35.6305H33.1606ZM27.5793 27.9592H34.6165V37.1153H27.5793V27.9592Z" fill="white"/>
  </mask>
  <g mask="url(#mask0)">
    <rect width="48" height="48" fill="#332E54"/>
  </g>
</svg>
