<svg width="48" height="48" viewBox="0 0 48 48" fill="none" xmlns="http://www.w3.org/2000/svg">
  <title>Often Oily Glyph</title>
  <path
    d="M22.42 16.97C22.22 16.72 22.01 16.46 21.82 16.21C19.76 13.5 19.58 8.77 19.58 8.73C19.57 8.32 19.22 8.01 18.82 8C18.41 8.01 18.08 8.34 18.08 8.75C18.08 8.79 18.05 13.23 15.71 16.21C14.44 17.83 13 19.67 13 22.04C13 25.28 15.51 27.73 18.83 27.73C22.32 27.73 24.66 25.36 24.66 21.84C24.67 19.75 23.48 18.27 22.42 16.97ZM18.83 26.23C16.32 26.23 14.5 24.47 14.5 22.04C14.5 20.18 15.72 18.63 16.95 17.05C17.85 15.9 18.44 14.58 18.83 13.33C19.21 14.64 19.78 16 20.63 17.12C20.83 17.39 21.05 17.65 21.26 17.92C22.24 19.14 23.17 20.28 23.17 21.85C23.17 24.55 21.51 26.23 18.83 26.23Z"
    fill="currentColor"
  />
  <path
    d="M32.56 29.27C32.36 29.02 32.15 28.77 31.96 28.51C29.91 25.81 29.73 21.1 29.73 21.05C29.72 20.65 29.38 20.32 28.98 20.32H28.97C28.56 20.33 28.23 20.66 28.23 21.07C28.23 21.11 28.2 25.52 25.87 28.5C24.6 30.12 23.17 31.95 23.17 34.32C23.17 37.55 25.67 39.99 28.98 39.99C32.46 39.99 34.8 37.63 34.8 34.12C34.8 32.04 33.61 30.57 32.56 29.27ZM28.98 38.5C26.48 38.5 24.67 36.75 24.67 34.33C24.67 32.48 25.88 30.93 27.11 29.36C28.01 28.22 28.6 26.9 28.98 25.65C29.36 26.95 29.92 28.31 30.77 29.42C30.97 29.69 31.18 29.95 31.4 30.21C32.38 31.42 33.3 32.57 33.3 34.12C33.3 36.82 31.64 38.5 28.98 38.5Z"
    fill="currentColor"
  />
</svg>
