<svg viewBox="0 0 48 48" fill="none" xmlns="http://www.w3.org/2000/svg">
  <title>Often Oily Glyph</title>
  <mask id="mask0" mask-type="alpha" maskUnits="userSpaceOnUse" x="17" y="8" width="15" height="33">
    <path d="M29.945 28.3899C29.535 27.8299 29.135 27.3199 28.745 26.8399C31.985 24.2399 32.485 20.0399 29.945 16.6099C29.175 15.5699 28.425 14.6599 27.775 13.8599C26.135 11.8799 24.955 10.4299 24.915 8.74991C24.915 8.71991 24.915 8.69992 24.915 8.66992H23.665C23.665 10.4799 22.415 11.9899 20.515 14.2699C19.935 14.9699 19.295 15.7399 18.635 16.5899C16.065 19.9099 16.575 24.2199 19.855 26.8499C19.465 27.3299 19.055 27.8299 18.635 28.3699C16.055 31.6899 16.575 36.0099 19.865 38.6399C21.055 39.5899 22.625 40.1099 24.285 40.1099C25.935 40.1099 27.495 39.5999 28.685 38.6599C31.985 36.0799 32.495 31.8499 29.945 28.3899ZM19.625 17.3599C20.275 16.5199 20.905 15.7699 21.475 15.0699C22.685 13.6099 23.695 12.3999 24.295 11.1599C24.865 12.2899 25.775 13.3899 26.805 14.6499C27.455 15.4399 28.185 16.3299 28.935 17.3399C31.085 20.2499 30.685 23.6699 27.955 25.8599C27.895 25.7899 27.825 25.6999 27.775 25.6299C26.145 23.6499 24.955 22.1999 24.915 20.5199C24.915 20.4899 24.915 20.4699 24.915 20.4399H23.665C23.665 22.1999 22.475 23.6799 20.655 25.8699C17.875 23.6699 17.455 20.1699 19.625 17.3599ZM26.875 26.5199C26.095 26.8799 25.215 27.0899 24.295 27.0899C23.375 27.0899 22.515 26.8899 21.745 26.5399C22.835 25.2299 23.745 24.0999 24.305 22.9599C24.875 24.0899 25.785 25.1899 26.815 26.4499C26.825 26.4699 26.855 26.4999 26.875 26.5199ZM27.915 37.6899C26.945 38.4499 25.665 38.8699 24.295 38.8699C22.915 38.8699 21.615 38.4499 20.655 37.6699C17.875 35.4499 17.455 31.9399 19.635 29.1399C20.085 28.5599 20.515 28.0399 20.925 27.5299C21.925 28.0499 23.085 28.3299 24.295 28.3299C25.515 28.3299 26.685 28.0399 27.695 27.5199C28.095 28.0199 28.515 28.5499 28.945 29.1299C31.105 32.0599 30.685 35.4999 27.915 37.6899Z" fill="white"/>
  </mask>
  <g mask="url(#mask0)">
    <rect x="0.985046" y="2" width="45.1765" height="45.1765" fill="currentColor"/>
  </g>
</svg>
