<svg viewBox="0 0 48 48" fill="none" xmlns="http://www.w3.org/2000/svg">
  <title>Often Dry Glyph</title>
  <mask id="mask0" mask-type="alpha" maskUnits="userSpaceOnUse" x="13" y="10" width="22" height="28">
    <path d="M31.71 20.7802C30.02 20.7802 28.64 22.1602 28.64 23.8502V28.9301H29.89V23.8502C29.89 22.8502 30.71 22.0302 31.71 22.0302C32.71 22.0302 33.53 22.8502 33.53 23.8502V28.9301C33.53 30.6101 32.18 33.4002 27.25 33.6902V13.2302C27.25 11.5402 25.87 10.1602 24.18 10.1602C22.49 10.1602 21.11 11.5402 21.11 13.2302V26.6902C21.11 27.0602 21.03 27.3701 20.87 27.5501C20.74 27.7001 20.59 27.7401 20.49 27.7401C20.12 27.7401 19.72 27.3501 19.72 26.6201V18.8601C19.72 17.1701 18.34 15.7902 16.65 15.7902C14.96 15.7902 13.58 17.1701 13.58 18.8601V26.6201C13.58 28.7901 15.23 32.4101 21.34 32.6501V37.1902H22.59V31.4102H21.97C16.34 31.4102 14.84 28.4001 14.84 26.6201V18.8601C14.84 17.8601 15.66 17.0402 16.66 17.0402C17.66 17.0402 18.48 17.8601 18.48 18.8601V26.6201C18.48 28.1601 19.52 28.9901 20.5 28.9901C21.02 28.9901 21.5 28.7701 21.84 28.3601C22.19 27.9501 22.37 27.3702 22.37 26.6902V13.2302C22.37 12.2302 23.19 11.4102 24.19 11.4102C25.19 11.4102 26.01 12.2302 26.01 13.2302V37.1902H27.26V34.9402C33.17 34.6302 34.79 31.0701 34.79 28.9301V23.8502C34.79 22.1602 33.41 20.7802 31.71 20.7802Z" fill="white"/>
  </mask>
  <g mask="url(#mask0)">
    <rect width="48" height="48" fill="#332E54"/>
  </g>
</svg>
