<svg width="48" height="48" viewBox="0 0 48 48" fill="none" xmlns="http://www.w3.org/2000/svg">
  <title>Often Dry Glyph</title>
  <path
    d="M39.34 38.51L36.99 38.24L35.49 37.46L35.02 36.81L35.07 35.76C35.34 35.02 35.7 34.16 35.84 33.91C35.94 33.82 36.01 33.71 36.06 33.59C36.15 33.33 36.25 33.04 35.25 31.45C35.24 31.44 35.24 31.43 35.23 31.43L35.63 30.72C36.02 30.63 36.39 30.54 36.44 30.53C36.6 30.53 36.75 30.53 38.48 29.75C38.54 29.72 38.6 29.69 38.65 29.64L39.73 28.74C39.96 28.55 40.05 28.24 39.97 27.96L39.63 26.79L39.42 25C39.41 24.9 39.38 24.81 39.33 24.72L38.67 23.54L38.48 22.14C38.43 21.74 38.05 21.44 37.66 21.5L35.6 21.73C35.37 21.76 35.17 21.88 35.05 22.07L34.72 22.59L33.8 21.66L32.69 20.75L33.04 19.46L33.67 18.47C33.71 18.4 33.75 18.32 33.77 18.24L34.12 16.76L34.44 15.04C34.47 14.91 34.45 14.77 34.41 14.64L34.08 13.74C34.15 13.7 34.22 13.68 34.27 13.63L35.58 12.3C35.7 12.18 35.78 12.01 35.79 11.84C35.82 11.55 35.87 11.21 35.92 11.03C36.23 10.77 36.4 10.19 36.4 8.75C36.4 8.34 36.07 8 35.66 8C35.25 8 34.91 8.33 34.91 8.75C34.91 9.2 34.87 9.71 34.83 9.96C34.61 10.17 34.43 10.59 34.33 11.43L33.35 12.43L31.96 12.81L31.84 12.8L30.74 11.9L30.27 10.98C30.24 10.93 30.21 10.88 30.17 10.84L28.9 9.35L29.01 9C29.15 8.61 28.95 8.18 28.56 8.04C28.17 7.9 27.74 8.1 27.6 8.49L27.33 9.24C27.24 9.49 27.29 9.78 27.46 9.98L28.96 11.74L29.47 12.72C29.52 12.81 29.58 12.89 29.66 12.96L31.06 14.1C31.18 14.19 31.32 14.25 31.47 14.26L31.66 14.28C31.74 14.31 31.83 14.33 31.93 14.33C31.97 14.33 32.02 14.32 32.07 14.31L32.72 14.37L32.94 14.95L32.66 16.43L32.35 17.76L31.72 18.74C31.68 18.8 31.65 18.87 31.63 18.95L31.41 19.77L30.81 19.32C30.55 19.13 30.2 19.12 29.93 19.31L28.69 20.18C28.64 20.21 28.6 20.25 28.56 20.29L28.36 20.51L26.69 20.16L25.59 19.65L25.36 17.98C25.35 17.9 25.33 17.83 25.29 17.76L24.62 16.39C24.5 16.14 24.24 15.98 23.97 15.97L21.77 15.92H20.63L19.43 14.42C19.4 14.38 19.36 14.34 19.32 14.31L18.73 13.82V13.08L18.91 11.73L20.29 9.09C20.48 8.73 20.34 8.27 19.98 8.08C19.62 7.89 19.16 8.03 18.97 8.39L17.52 11.17C17.48 11.24 17.45 11.32 17.44 11.41L17.26 12.71C17.24 12.7 17.22 12.68 17.19 12.68L14.35 12.09C14.28 12.08 14.2 12.08 14.13 12.08L12.63 12.22C12.34 11.43 11.67 9.99 11.12 9.82C10.71 9.67 9.70001 9.03 9.64001 8.63C9.57001 8.22 9.19001 7.95 8.78001 8.01C8.37001 8.07 8.09001 8.46 8.16001 8.86C8.35001 10.1 9.90001 10.9 10.46 11.15C10.66 11.45 11.09 12.33 11.25 12.73C11.15 13.02 10.92 13.62 10.72 14.12C10.67 14.23 10.65 14.34 10.66 14.46L10.79 16.18C10.69 16.52 10.43 17.4 10.37 17.58C10.34 17.66 10.27 17.91 10.19 19.7L10.04 22.18C10.03 22.39 10.1 22.59 10.25 22.74L11.17 23.7L12.46 25.17C12.71 25.88 12.98 26.65 13.07 26.95L12.82 27.02C12.52 26.95 11.98 26.84 11.4 26.84C10.72 26.84 10.31 27.13 10.1 27.46L8.58001 27.98C8.19001 28.11 7.98001 28.54 8.11001 28.93C8.22001 29.24 8.51001 29.44 8.82001 29.44C8.90001 29.44 8.98001 29.43 9.06001 29.4L10.91 28.77C11.12 28.7 11.28 28.54 11.36 28.34C11.37 28.34 11.38 28.34 11.4 28.34C12.01 28.34 12.61 28.52 12.61 28.52C12.72 28.55 12.85 28.55 12.96 28.53C12.96 28.57 12.95 28.59 12.95 28.59C12.95 28.63 12.95 28.66 12.95 28.69L13.01 29.93L12.72 30.69L11.6 31.31C11.55 31.34 11.5 31.37 11.46 31.41L10.29 32.48C10.15 32.6 10.07 32.78 10.05 32.96L9.83001 35.3C9.82001 35.43 9.84001 35.57 9.90001 35.69L10.25 36.42L9.63001 37.51L8.27001 38.66C7.96001 38.93 7.92001 39.4 8.18001 39.71C8.33001 39.91 8.54001 40 8.75001 40C8.92001 40 9.09001 39.94 9.23001 39.82L10.69 38.58C10.76 38.52 10.81 38.45 10.86 38.38L11.74 36.83C11.86 36.62 11.87 36.36 11.77 36.14L11.35 35.24L11.52 33.39L12.41 32.57L13.72 31.85C13.88 31.76 14 31.63 14.06 31.46L14.5 30.3C14.54 30.2 14.55 30.1 14.55 30L14.48 28.66C14.5 28.49 14.51 28.28 14.53 28.08C14.56 28.07 14.6 28.06 14.62 28.04L15.48 27.49H16.79L18.27 27.81C18.57 27.88 18.88 27.75 19.05 27.49L19.75 26.43C19.79 26.37 19.82 26.31 19.84 26.24L20.28 24.81L20.38 24.93L21.22 25.71L21.17 26.82C21.16 27.1 21.3 27.37 21.55 27.51L22.87 28.24L23.4 28.5L23.23 28.88C23.16 29.04 23.15 29.21 23.2 29.38L23.79 31.51C23.8 31.56 23.82 31.61 23.85 31.66L24.43 32.75L24.55 33.11C24.28 33.06 23.84 32.98 23.46 32.9C23.28 32.86 23.08 32.9 22.92 33L21.76 33.71C21.56 33.83 21.43 34.05 21.41 34.28C21.4 34.37 21.39 34.48 21.37 34.57C21.14 34.68 20.8 34.87 20.28 35.22C20.14 35.25 19.99 35.28 19.87 35.3C19.74 35.08 19.53 34.8 19.21 34.43C19.07 34.27 18.86 34.18 18.65 34.18H17.02C16.91 34.18 16.81 34.2 16.71 34.25L14.84 35.1C14.61 35.2 14.45 35.41 14.41 35.66C14.36 35.98 14.28 36.34 14.22 36.52C13.92 36.82 13.91 37.42 14.19 39.38C14.25 39.73 14.57 40 14.93 40C14.97 40 15 40 15.04 39.99C15.45 39.93 15.73 39.55 15.67 39.14C15.58 38.48 15.49 37.67 15.48 37.32C15.59 37.12 15.7 36.81 15.81 36.28L17.18 35.66H18.26C18.41 35.85 18.54 36.03 18.59 36.12C18.63 36.31 18.74 36.5 18.89 36.61C19.05 36.74 19.36 36.98 20.73 36.64C20.82 36.62 20.9 36.58 20.97 36.53C21.35 36.27 21.79 36 21.96 35.93C22.4 35.87 22.69 35.49 22.82 34.8L23.42 34.43C24.53 34.65 24.64 34.64 24.71 34.65C24.95 34.66 26.8 34.87 26.88 34.87H28.32C28.51 35 28.81 35.26 28.92 35.4C28.97 35.77 29.03 36.75 29.03 36.89C29.03 37.08 29.03 37.28 29.74 38.24V39.22C29.74 39.63 30.07 39.97 30.49 39.97C30.91 39.97 31.24 39.64 31.24 39.22V37.99C31.24 37.82 31.19 37.67 31.09 37.53C30.86 37.23 30.62 36.89 30.53 36.73C30.51 36.33 30.44 35.37 30.39 35.06C30.28 34.4 29.04 33.37 28.5 33.37H26.97C26.64 33.33 26.38 33.3 26.14 33.28C26.14 33.27 26.14 33.26 26.14 33.24L25.82 32.22C25.81 32.18 25.79 32.14 25.77 32.1L25.2 31.03L24.7 29.24L25.04 28.45C25.2 28.09 25.04 27.66 24.69 27.48L23.56 26.91L22.68 26.42L22.73 25.43C22.74 25.21 22.65 25 22.49 24.85L21.46 23.89L20.26 22.48C20.23 22.44 20.18 22.42 20.14 22.39L20 22L19.81 19.91L20.44 18.04L20.58 17.41H21.75L23.48 17.45L23.89 18.3L24.16 20.26C24.2 20.51 24.36 20.73 24.59 20.84L26.14 21.56C26.19 21.58 26.25 21.6 26.3 21.61L27.72 21.9C27.76 21.99 27.82 22.07 27.9 22.14C27.92 22.16 27.95 22.16 27.97 22.18L28.42 23.43C28.76 24.82 28.99 25.51 29.25 25.84C29.29 26.11 29.31 26.66 29.32 27.11L29.14 28.79C29.12 29.01 29.19 29.24 29.35 29.4L30.7 30.76C30.73 30.79 30.76 30.81 30.79 30.84L31.58 31.42C31.71 31.51 31.86 31.56 32.02 31.56H33.23L34.02 32.31C34.22 32.63 34.4 32.96 34.51 33.18C34.3 33.54 34.03 34.18 33.61 35.34C33.58 35.41 33.57 35.48 33.57 35.56L33.52 36.47C33.35 36.72 33.35 37.06 33.53 37.32L33.57 37.38C33.61 37.46 33.66 37.53 33.73 37.6L34.36 38.48C34.43 38.57 34.52 38.65 34.62 38.7L36.4 39.63C36.48 39.67 36.57 39.7 36.66 39.71L39.17 40C39.2 40 39.23 40 39.25 40C39.62 40 39.95 39.72 39.99 39.34C40.04 38.93 39.75 38.56 39.34 38.51ZM18.43 25.69L18.07 26.23L17.02 26C16.97 25.99 16.92 25.98 16.86 25.98H15.25C15.11 25.98 14.97 26.02 14.85 26.1L14.47 26.35C14.37 26.01 14.18 25.47 13.84 24.52C13.81 24.43 13.76 24.35 13.7 24.28L12.29 22.68L11.57 21.93L11.7 19.77C11.73 19.05 11.79 18.17 11.81 18.03C11.88 17.79 12.27 16.47 12.27 16.47C12.29 16.38 12.3 16.29 12.29 16.2L12.16 14.52C12.3 14.18 12.4 13.92 12.48 13.7C12.54 13.71 12.61 13.73 12.67 13.72L14.15 13.58L16.7 14.1L18.3 15.41L19.23 16.58L19 17.64L18.34 19.58C18.31 19.68 18.29 19.78 18.3 19.89L18.51 22.22C18.52 22.28 18.53 22.34 18.55 22.39L19.02 23.77L18.43 25.69ZM32.27 30.07L31.73 29.67L30.68 28.6L30.83 27.2C30.83 25.99 30.79 25.13 30.39 24.79C30.26 24.47 30.05 23.7 29.87 23L29.37 21.63L29.62 21.34L30.35 20.83L31.44 21.65L32.79 22.75L34.32 24.3C34.48 24.46 34.71 24.53 34.93 24.52C35.16 24.49 35.36 24.37 35.48 24.18L36.12 23.17L37.1 23.06L37.21 23.88C37.22 23.97 37.25 24.06 37.3 24.15L37.96 25.33L38.16 27C38.16 27.04 38.17 27.08 38.18 27.12L38.4 27.88L37.77 28.41C37.19 28.67 36.52 28.96 36.31 29.03C36.16 29.05 35.83 29.11 34.94 29.34C34.74 29.39 34.57 29.52 34.47 29.7L34.1 30.36L34.03 30.3C33.89 30.17 33.71 30.1 33.52 30.1H32.27V30.07Z"
    fill="currentColor"
  />
</svg>
