<svg viewBox="0 0 48 48" fill="none" xmlns="https://www.w3.org/2000/svg">
  <title>Oil Cleanser Glyph</title>
  <path fill-rule="evenodd" clip-rule="evenodd" d="M21.2953 32.4C22.0822 33 22.9674 33.3 24.0494 33.3C25.1313 33.3 26.115 33 26.8035 32.4C28.8691 30.8 29.1641 28.1 27.5904 25.9C27.0986 25.2001 26.7051 24.7001 26.3117 24.2001C26.271 24.1504 26.2308 24.1015 26.1912 24.0532C25.2723 22.9337 24.6395 22.1628 24.6395 21.3H23.4592C23.4592 22.3 22.7707 23.2 21.6887 24.5C21.3937 24.9 21.0003 25.4 20.6068 25.8999C18.9347 27.9999 19.3281 30.7 21.2953 32.4ZM22.574 25.3C23.1641 24.6 23.6559 23.9 24.0494 23.3C24.2876 23.6634 24.5259 23.99 24.786 24.3467C24.9554 24.5789 25.1341 24.8239 25.3281 25.1C25.4652 25.2743 25.6142 25.4485 25.7669 25.627C26.0523 25.9607 26.3504 26.3091 26.6068 26.7001C27.7871 28.4 27.492 30.3 26.0166 31.5C25.033 32.4 23.1641 32.3 22.0822 31.5C20.5084 30.2 20.3117 28.3 21.492 26.7001C21.8854 26.2001 22.2789 25.7 22.574 25.3Z" fill="currentColor"/>
  <path fill-rule="evenodd" clip-rule="evenodd" d="M32.705 18.2C32.6067 17.4 32.1149 16.7 31.328 16.3L27.5903 14.3V10.8C27.5903 10.8 27.6886 10.8 27.6886 10.7C28.7706 10 28.869 9.4 28.7706 9C28.6722 8.6 28.2788 8.1 27.0001 8C26.2132 8 25.328 8.1 24.3444 8.3C22.6722 8.8 20.9017 9.7 20.8034 10.8V14.1L16.6722 16.3C15.9837 16.7 15.3936 17.4 15.2952 18.2C14.8034 21.7 14.705 33.2 17.4591 38.8L17.5575 38.9C18.246 39.7 21.4919 40 24.246 40C24.9835 40 25.6883 39.9667 26.2849 39.9386C26.7226 39.9179 27.1022 39.9 27.3936 39.9C29.7542 39.7 30.246 39.2 30.5411 38.8C33.2952 33.2 33.1968 21.6 32.705 18.2ZM22.3772 10.5C22.7706 10.2 23.5575 9.8 24.6395 9.5C26.1149 9.1 27.0985 9.2 27.4919 9.3C27.3936 9.4 27.0985 9.6 26.8034 9.8C26.6873 9.84721 26.5657 9.9 26.4374 9.95572C26.022 10.1361 25.5357 10.3472 24.9345 10.5C23.4591 10.9 22.4755 10.9 22.0821 10.8L22.3772 10.5ZM21.9837 12C22.0821 12 22.1558 12.025 22.2296 12.05C22.3007 12.0741 22.3718 12.0982 22.4649 12.0999L22.7707 12.0999C22.7972 12.0999 22.8237 12.0998 22.8502 12.0996C23.5265 12.0922 24.3744 11.9924 25.1313 11.8C25.3269 11.7503 25.5226 11.7005 25.7182 11.6385L25.8198 11.5999C25.9243 11.5601 26.0287 11.5203 26.1332 11.4842C26.1927 11.4582 26.2521 11.4302 26.3116 11.4V11.4269C26.3444 11.4173 26.3772 11.4082 26.41 11.3999V13.9999L21.9837 14L21.8854 13.9999V11.9999C21.9182 12.0166 21.9509 12.0304 21.9837 12.042V12ZM29.4591 38.2C28.5739 39 19.6231 39 18.5411 38.2C15.9837 33 15.9837 22 16.4755 18.4C16.5739 18 16.7706 17.6 17.164 17.4L21.2952 15.2H26.6067L30.7378 17.4C31.1313 17.6 31.328 18 31.4263 18.4C32.0165 22 32.0165 33.2 29.4591 38.2Z" fill="currentColor"/>
</svg>
