<svg viewBox="0 0 48 48" fill="none" xmlns="http://www.w3.org/2000/svg">
  <title>Oil Cleanser Glyph</title>
  <mask id="mask0" mask-type="alpha" maskUnits="userSpaceOnUse" x="15" y="8" width="19" height="32">
    <path fill-rule="evenodd" clip-rule="evenodd" d="M21.4 32.4C22.2 33 23.1 33.3 24.2 33.3C25.3 33.3 26.3 33 27 32.4C29.1 30.8 29.4 28.1 27.8 25.9C27.3 25.2001 26.9 24.7001 26.5 24.2001C26.4587 24.1504 26.4178 24.1015 26.3775 24.0532C25.4433 22.9337 24.8 22.1628 24.8 21.3H23.6C23.6 22.3 22.9 23.2 21.8 24.5C21.5001 24.9 21.1001 25.4 20.7001 25.8999C19.0001 27.9999 19.4 30.7 21.4 32.4ZM22.7 25.3C23.3 24.6 23.8 23.9 24.2 23.3C24.4423 23.6634 24.6845 23.99 24.9489 24.3467C25.1212 24.5789 25.3028 24.8239 25.5 25.1C25.6394 25.2743 25.791 25.4485 25.9462 25.627C26.2364 25.9607 26.5394 26.3091 26.8 26.7001C28 28.4 27.7 30.3 26.2 31.5C25.2 32.4 23.3 32.3 22.2 31.5C20.6 30.2 20.4 28.3 21.6 26.7001C22 26.2001 22.4 25.7 22.7 25.3Z" fill="white"/>
    <path fill-rule="evenodd" clip-rule="evenodd" d="M32.9999 18.2C32.8999 17.4 32.3999 16.7 31.5999 16.3L27.7999 14.3V10.8C27.7999 10.8 27.8999 10.8 27.8999 10.7C28.9999 10 29.0999 9.4 28.9999 9C28.8999 8.6 28.4999 8.1 27.1999 8C26.3999 8 25.4999 8.1 24.4999 8.3C22.7999 8.8 20.9999 9.7 20.8999 10.8V14.1L16.6999 16.3C15.9999 16.7 15.3999 17.4 15.2999 18.2C14.7999 21.7 14.6999 33.2 17.4999 38.8L17.5999 38.9C18.2999 39.7 21.5999 40 24.3999 40C25.1497 40 25.8663 39.9667 26.4728 39.9386C26.9178 39.9179 27.3037 39.9 27.5999 39.9C29.9999 39.7 30.4999 39.2 30.7999 38.8C33.5999 33.2 33.4999 21.6 32.9999 18.2ZM22.4999 10.5C22.8999 10.2 23.6999 9.8 24.7999 9.5C26.2999 9.1 27.2999 9.2 27.6999 9.3C27.5999 9.4 27.2999 9.6 26.9999 9.8C26.8819 9.84721 26.7583 9.9 26.6278 9.95572C26.2055 10.1361 25.7111 10.3472 25.0999 10.5C23.5999 10.9 22.5999 10.9 22.1999 10.8L22.4999 10.5ZM22.0999 12C22.1999 12 22.2749 12.025 22.3499 12.05C22.4222 12.0741 22.4945 12.0982 22.5891 12.0999L22.9 12.0999C22.927 12.0999 22.9539 12.0998 22.9809 12.0996C23.6685 12.0922 24.5305 11.9924 25.2999 11.8C25.4988 11.7503 25.6978 11.7005 25.8967 11.6385L26 11.5999C26.1062 11.5601 26.2124 11.5203 26.3186 11.4842C26.379 11.4582 26.4395 11.4302 26.4999 11.4V11.4269C26.5333 11.4173 26.5666 11.4082 26.6 11.3999V13.9999L22.0999 14L22 13.9999V11.9999C22.0333 12.0166 22.0666 12.0304 22.0999 12.042V12ZM29.6999 38.2C28.7999 39 19.6999 39 18.5999 38.2C15.9999 33 15.9999 22 16.4999 18.4C16.5999 18 16.7999 17.6 17.1999 17.4L21.3999 15.2H26.7999L30.9999 17.4C31.3999 17.6 31.5999 18 31.6999 18.4C32.2999 22 32.2999 33.2 29.6999 38.2Z" fill="white"/>
  </mask>
  <g mask="url(#mask0)">
    <rect width="48" height="48" fill="#332E54"/>
  </g>
</svg>
