<svg width="48" height="48" viewBox="0 0 48 48" fill="none" xmlns="http://www.w3.org/2000/svg">
  <title>Other Glyph</title>
  <path
    d="M24.32 14.64C26.15 14.64 27.64 13.15 27.64 11.32C27.64 9.49 26.15 8 24.32 8C22.49 8 21 9.49 21 11.32C21 13.15 22.49 14.64 24.32 14.64ZM24.32 9.5C25.32 9.5 26.14 10.32 26.14 11.32C26.14 12.32 25.32 13.14 24.32 13.14C23.32 13.14 22.5 12.32 22.5 11.32C22.5 10.32 23.32 9.5 24.32 9.5Z"
    fill="currentColor"
  />
  <path
    d="M24.32 20.68C22.49 20.68 21 22.17 21 24C21 25.83 22.49 27.32 24.32 27.32C26.15 27.32 27.64 25.83 27.64 24C27.64 22.17 26.15 20.68 24.32 20.68ZM24.32 25.82C23.32 25.82 22.5 25 22.5 24C22.5 23 23.32 22.18 24.32 22.18C25.32 22.18 26.14 23 26.14 24C26.14 25 25.32 25.82 24.32 25.82Z"
    fill="currentColor"
  />
  <path
    d="M24.32 33.36C22.49 33.36 21 34.85 21 36.68C21 38.51 22.49 40 24.32 40C26.15 40 27.64 38.51 27.64 36.68C27.64 34.85 26.15 33.36 24.32 33.36ZM24.32 38.5C23.32 38.5 22.5 37.68 22.5 36.68C22.5 35.68 23.32 34.86 24.32 34.86C25.32 34.86 26.14 35.68 26.14 36.68C26.14 37.68 25.32 38.5 24.32 38.5Z"
    fill="currentColor"
  />
</svg>
