<svg viewBox="0 0 48 48" fill="none" xmlns="http://www.w3.org/2000/svg">
  <title>Packaging Glyph</title>
  <mask id="mask0" mask-type="alpha" maskUnits="userSpaceOnUse" x="10" y="8" width="29" height="33">
    <path fill-rule="evenodd" clip-rule="evenodd" d="M38.4757 8V31.96H22.3557L20.6057 33.95C21.5035 38.4294 18.4014 40.1754 18.2234 40.2755C18.219 40.278 18.2164 40.2795 18.2157 40.28L17.9357 39.72L17.6457 39.16C17.7557 39.11 20.2257 37.76 19.3257 33.91L19.2557 33.6L23.4057 28.9C23.8557 28.45 24.0957 27.91 24.0757 27.43C24.0657 27.2 23.9957 26.88 23.7057 26.63L23.7011 26.6262C23.4667 26.4324 22.7849 25.8689 21.1657 27.21C21.037 27.3203 20.9028 27.4348 20.7662 27.5512C20.5315 27.7514 20.2896 27.9577 20.0557 28.16C19.8888 28.3016 19.727 28.4407 19.5742 28.572C19.4249 28.7003 19.2842 28.8213 19.1557 28.93C18.2957 29.65 17.5857 30.09 16.6957 30.09C15.3157 30.09 14.4557 29.29 14.4557 28.02V20.14C14.1857 20.42 13.9857 20.96 13.7057 21.83C13.6689 21.9371 13.6321 22.0465 13.5949 22.157C13.5209 22.3765 13.4455 22.6005 13.3657 22.82C12.7501 24.4616 11.9992 26.6364 11.5178 28.0308C11.4596 28.1994 11.4053 28.3566 11.3557 28.5C11.2357 28.86 11.2157 29.22 11.2957 29.59C11.5357 30.67 11.8157 32.63 12.0757 34.53C12.3757 36.7 12.6857 38.93 12.9357 39.77L11.7357 40.13C11.4617 39.2295 11.1684 37.1123 10.856 34.8567L10.8357 34.71C10.5757 32.84 10.3057 30.91 10.0757 29.87C9.94571 29.28 9.98572 28.67 10.1757 28.1C10.6257 26.76 11.5057 24.24 12.1957 22.39C12.2861 22.149 12.3651 21.908 12.4414 21.6755C12.4664 21.5993 12.491 21.5241 12.5157 21.45C12.5209 21.434 12.5261 21.418 12.5313 21.402C12.8971 20.2743 13.3021 19.0256 14.4557 18.72V8H38.4757ZM36.1957 30.71H37.2257V9.25H36.1957V30.71ZM15.7057 18.95V28.01C15.7057 28.39 15.8157 28.83 16.6957 28.83C16.7424 28.83 16.789 28.8211 16.8357 28.8122C16.859 28.8078 16.8824 28.8033 16.9057 28.8V9.25H15.7057V18.95ZM20.3657 26.25C22.3857 24.57 23.7357 25.01 24.5157 25.68C25.0057 26.1 25.2957 26.71 25.3257 27.38C25.3557 28.22 24.9857 29.09 24.3157 29.76L23.4757 30.71H34.9457V9.25H18.1557V28.12C18.1907 28.09 18.2232 28.065 18.2557 28.04C18.2882 28.015 18.3207 27.99 18.3557 27.96L18.3809 27.9388C18.6264 27.7326 18.9264 27.4806 19.2357 27.21C19.4044 27.0679 19.575 26.922 19.7441 26.7774C19.956 26.5961 20.1655 26.4169 20.3657 26.25ZM23.6057 19.3501H30.2457V20.6001H23.6057V19.3501Z" fill="white"/>
  </mask>
  <g mask="url(#mask0)">
    <rect x="1.65527" y="1.61035" width="44.4836" height="44.4836" fill="currentColor"/>
  </g>
</svg>
