<svg  viewBox="0 0 48 48" fill="none" xmlns="http://www.w3.org/2000/svg">
  <title>Packaging Glyph</title>
  <path fill-rule="evenodd" clip-rule="evenodd" d="M38 8V31.7522H22.1493L20.4285 33.7249C21.3114 38.1655 18.261 39.8963 18.0861 39.9956C18.0817 39.9981 18.0792 39.9995 18.0785 40L17.8031 39.4449L17.518 38.8897C17.6262 38.8402 20.0549 37.5019 19.1699 33.6853L19.1011 33.3779L23.1818 28.7187C23.6242 28.2726 23.8602 27.7373 23.8406 27.2615C23.8307 27.0335 23.7619 26.7163 23.4768 26.4684L23.4722 26.4646C23.2417 26.2726 22.5714 25.7139 20.9792 27.0434C20.8525 27.1528 20.7206 27.2662 20.5862 27.3817C20.3555 27.5802 20.1177 27.7846 19.8877 27.9851C19.7236 28.1255 19.5644 28.2634 19.4142 28.3936C19.2674 28.5208 19.1291 28.6407 19.0028 28.7485C18.1571 29.4622 17.459 29.8984 16.5839 29.8984C15.2269 29.8984 14.3813 29.1053 14.3813 27.8463V20.0347C14.1158 20.3123 13.9191 20.8476 13.6438 21.7101C13.6076 21.8163 13.5714 21.9247 13.5348 22.0342C13.4621 22.2518 13.388 22.4739 13.3095 22.6915C12.7042 24.3188 11.9658 26.4747 11.4924 27.8571C11.4352 28.0242 11.3818 28.18 11.3331 28.3222C11.2151 28.6791 11.1954 29.0359 11.2741 29.4027C11.5101 30.4733 11.7854 32.4163 12.041 34.2999C12.336 36.451 12.6408 38.6617 12.8867 39.4944L11.7067 39.8513C11.4372 38.9587 11.1489 36.8598 10.8417 34.6238L10.8217 34.4783C10.5661 32.6245 10.3006 30.7113 10.0744 29.6803C9.94662 29.0954 9.98596 28.4907 10.1728 27.9256C10.6153 26.5973 11.4806 24.0992 12.159 22.2652C12.2479 22.0263 12.3256 21.7874 12.4006 21.5569C12.4251 21.4814 12.4494 21.4068 12.4737 21.3334C12.4788 21.3175 12.4839 21.3016 12.489 21.2857C12.8487 20.1679 13.247 18.93 14.3813 18.627V8H38ZM35.7581 30.513H36.7709V9.23916H35.7581V30.513ZM15.6104 18.855V27.8365C15.6104 28.2132 15.7186 28.6494 16.5839 28.6494C16.6297 28.6494 16.6756 28.6405 16.7215 28.6317C16.7444 28.6273 16.7674 28.6229 16.7904 28.6196V9.23916H15.6104V18.855ZM20.1925 26.0917C22.1788 24.4263 23.5063 24.8625 24.2732 25.5267C24.755 25.943 25.0402 26.5477 25.0697 27.2119C25.0992 28.0446 24.7354 28.9071 24.0766 29.5713L23.2506 30.513H34.529V9.23916H18.0195V27.9455C18.0539 27.9158 18.0858 27.891 18.1178 27.8662C18.1498 27.8414 18.1817 27.8166 18.2161 27.7868L18.241 27.7657C18.4824 27.5614 18.7773 27.3116 19.0814 27.0434C19.2473 26.9026 19.415 26.7579 19.5813 26.6145C19.7896 26.4348 19.9957 26.2571 20.1925 26.0917ZM23.3784 19.2517H29.9075V20.4909H23.3784V19.2517Z" fill="currentColor"/>
</svg>
