<svg viewBox="0 0 32 38" stroke="none" stroke-width="1" fill="none" fill-rule="evenodd" xmlns="http://www.w3.org/2000/svg" xmlns:xlink="http://www.w3.org/1999/xlink">
  <title>Pills</title>
  <g transform="translate(-277.000000, -1617.000000)">
    <g transform="translate(293.000000, 1636.000000) rotate(90.000000) translate(-293.000000, -1636.000000) translate(275.000000, 1621.000000)">
      <g stroke="currentColor" stroke-width="1.4" stroke-linecap="round" stroke-linejoin="round">
        <path d="M6.3,30 L29.7,30 L29.7,30 C33.1793939,30 36,27.1793939 36,23.7 L36,6.3 L36,6.3 C36,2.82060608 33.1793939,-1.52733271e-15 29.7,-8.8817842e-16 L6.3,0 L6.3,0 C2.82060608,6.39154295e-16 4.62075557e-16,2.82060608 8.8817842e-16,6.3 L0,23.7 L0,23.7 C1.97126416e-15,27.1793939 2.82060608,30 6.3,30 Z" />
      </g>
      <g fill="currentColor">
        <path d="M30,23 C30,23.5520231 29.5520231,24 29,24 C28.4474952,24 28,23.5520231 28,23 C28,22.4479769 28.4474952,22 29,22 C29.5520231,22 30,22.4479769 30,23" />
        <path d="M23,23 C23,23.5520231 22.5520231,24 22,24 C21.4474952,24 21,23.5520231 21,23 C21,22.4479769 21.4474952,22 22,22 C22.5520231,22 23,22.4479769 23,23" />
        <path d="M15,23 C15,23.5520231 14.552397,24 14.0002409,24 C13.4471212,24 13,23.5520231 13,23 C13,22.4479769 13.4471212,22 14.0002409,22 C14.552397,22 15,22.4479769 15,23" />
        <path d="M8,23 C8,23.5520231 7.55202312,24 7,24 C6.44749518,24 6,23.5520231 6,23 C6,22.4479769 6.44749518,22 7,22 C7.55202312,22 8,22.4479769 8,23" />
        <path d="M30,7 C30,7.55202312 29.5520231,8 29,8 C28.4474952,8 28,7.55202312 28,7 C28,6.44797688 28.4474952,6 29,6 C29.5520231,6 30,6.44797688 30,7" />
        <path d="M23,7 C23,7.55202312 22.5520231,8 22,8 C21.4474952,8 21,7.55202312 21,7 C21,6.44797688 21.4474952,6 22,6 C22.5520231,6 23,6.44797688 23,7" />
        <path d="M15,7 C15,7.55202312 14.552397,8 14.0002409,8 C13.4471212,8 13,7.55202312 13,7 C13,6.44797688 13.4471212,6 14.0002409,6 C14.552397,6 15,6.44797688 15,7" />
        <path d="M8,7 C8,7.55202312 7.55202312,8 7,8 C6.44749518,8 6,7.55202312 6,7 C6,6.44797688 6.44749518,6 7,6 C7.55202312,6 8,6.44797688 8,7" />
        <path d="M12,16 C12,16.5520231 11.5520231,17 11,17 C10.4474952,17 10,16.5520231 10,16 C10,15.4479769 10.4474952,15 11,15 C11.5520231,15 12,15.4479769 12,16" />
        <path d="M19,16 C19,16.5520231 18.5520231,17 18,17 C17.4474952,17 17,16.5520231 17,16 C17,15.4479769 17.4474952,15 18,15 C18.5520231,15 19,15.4479769 19,16" />
        <path d="M27,16 C27,16.5520231 26.552397,17 26.0002409,17 C25.4471212,17 25,16.5520231 25,16 C25,15.4479769 25.4471212,15 26.0002409,15 C26.552397,15 27,15.4479769 27,16" />
      </g>
    </g>
  </g>
</svg>
