<svg viewBox="0 0 48 48" fill="none" xmlns="https://www.w3.org/2000/svg">
  <title>Pills Glyph</title>
  <path fill-rule="evenodd" clip-rule="evenodd" d="M38.375 11.125C38.375 10.25 37.625 9.5 36.75 9.5V9.625H11.25C10.375 9.625 9.625 10.375 9.625 11.25V36.75C9.625 37.625 10.375 38.375 11.25 38.375H36.75C37.625 38.375 38.375 37.625 38.375 36.75V11.125ZM11.25 8H36.75C38.625 8 40 9.375 40 11.25V36.75C40 38.625 38.5 40 36.75 40H11.25C9.375 40 8 38.5 8 36.75V11.25C8 9.375 9.375 8 11.25 8ZM12.75 16C12.75 15.25 13.375 14.625 14.125 14.625C14.875 14.625 15.5 15.25 15.5 16C15.5 16.75 14.875 17.25 14.125 17.375C13.375 17.375 12.75 16.75 12.75 16ZM24.25 14.625C23.5 14.625 22.875 15.25 22.875 16C22.875 16.75 23.5 17.375 24.25 17.375C25 17.375 25.625 16.75 25.625 16C25.625 15.25 25 14.625 24.25 14.625ZM33 16C33 15.25 33.625 14.625 34.375 14.625C35.125 14.625 35.75 15.25 35.75 16C35.75 16.75 35.125 17.375 34.375 17.375C33.625 17.375 33 16.75 33 16ZM14.125 22.625C13.375 22.625 12.75 23.25 12.75 24C12.75 24.75 13.375 25.375 14.125 25.375C14.875 25.375 15.5 24.75 15.5 24C15.5 23.25 14.875 22.625 14.125 22.625ZM22.875 24C22.875 23.25 23.5 22.625 24.25 22.625C25 22.625 25.625 23.25 25.625 24C25.625 24.75 25 25.375 24.25 25.375C23.5 25.375 22.875 24.75 22.875 24ZM34.375 22.625C33.625 22.625 33 23.25 33 24C33 24.75 33.625 25.375 34.375 25.375C35.125 25.375 35.75 24.75 35.75 24C35.75 23.25 35.125 22.625 34.375 22.625ZM12.75 32.125C12.75 31.375 13.375 30.75 14.125 30.75C14.875 30.75 15.5 31.375 15.5 32.125C15.5 32.875 14.875 33.5 14.125 33.5C13.375 33.5 12.75 32.875 12.75 32.125ZM24.25 30.75C23.5 30.75 22.875 31.375 22.875 32.125C22.875 32.875 23.5 33.5 24.25 33.5C25 33.5 25.625 32.875 25.625 32.125C25.625 31.375 25 30.75 24.25 30.75ZM33 32.125C33 31.375 33.625 30.75 34.375 30.75C35.125 30.75 35.75 31.375 35.75 32.125C35.75 32.875 35.125 33.5 34.375 33.5C33.625 33.5 33 32.875 33 32.125Z" fill="currentColor"/>
</svg>
