<svg width="48" height="48" viewBox="0 0 48 48" fill="none" xmlns="http://www.w3.org/2000/svg">
  <path fill-rule="evenodd" clip-rule="evenodd" d="M16.1698 13.2151C13.9856 13.2151 12.2148 14.9858 12.2148 17.1701C12.2148 19.3544 13.9856 21.1251 16.1698 21.1251C18.3541 21.1251 20.1248 19.3544 20.1248 17.1701C20.1248 14.9858 18.3541 13.2151 16.1698 13.2151ZM10.9648 17.1701C10.9648 14.2954 13.2952 11.9651 16.1698 11.9651C19.0445 11.9651 21.3748 14.2954 21.3748 17.1701C21.3748 20.0447 19.0445 22.3751 16.1698 22.3751C13.2952 22.3751 10.9648 20.0447 10.9648 17.1701Z" fill="currentColor"/>
  <path fill-rule="evenodd" clip-rule="evenodd" d="M22.6161 17.4209L24.3461 17.6609L24.1743 18.899L22.4443 18.659L22.6161 17.4209Z" fill="currentColor"/>
  <path fill-rule="evenodd" clip-rule="evenodd" d="M8.16185 15.4504L9.90185 15.6804L9.73805 16.9197L7.99805 16.6897L8.16185 15.4504Z" fill="currentColor"/>
  <path fill-rule="evenodd" clip-rule="evenodd" d="M20.5467 21.9011L21.6067 23.2911L20.6127 24.0491L19.5527 22.6591L20.5467 21.9011Z" fill="currentColor"/>
  <path fill-rule="evenodd" clip-rule="evenodd" d="M11.7386 10.2932L12.7886 11.6832L11.7912 12.4367L10.7412 11.0467L11.7386 10.2932Z" fill="currentColor"/>
  <path fill-rule="evenodd" clip-rule="evenodd" d="M15.9193 23.6125L15.6893 25.3425L14.4502 25.1778L14.6802 23.4478L15.9193 23.6125Z" fill="currentColor"/>
  <path fill-rule="evenodd" clip-rule="evenodd" d="M17.8992 9.16543L17.6592 10.9054L16.4209 10.7346L16.6609 8.99463L17.8992 9.16543Z" fill="currentColor"/>
  <path fill-rule="evenodd" clip-rule="evenodd" d="M11.439 21.5469L10.049 22.6069L9.29102 21.613L10.681 20.553L11.439 21.5469Z" fill="currentColor"/>
  <path fill-rule="evenodd" clip-rule="evenodd" d="M23.0468 12.7386L21.6568 13.7886L20.9033 12.7912L22.2933 11.7412L23.0468 12.7386Z" fill="currentColor"/>
  <path fill-rule="evenodd" clip-rule="evenodd" d="M38.2645 14.8868C35.0073 14.4622 31.7255 14.251 28.4403 14.2549C27.8867 14.2549 27.3356 14.2721 26.778 14.2897L26.7621 14.2902C26.2128 14.3075 25.6557 14.325 25.0995 14.325V13.075C25.636 13.075 26.1764 13.058 26.7323 13.0405L26.7386 13.0403C27.2933 13.0228 27.8629 13.0049 28.4392 13.0049C31.9634 13.0007 35.4836 13.24 38.9748 13.7209L39.5145 13.7952L39.5145 26.4281C39.5145 26.4283 39.5145 26.4279 39.5145 26.4281C39.5203 28.3776 39.0173 30.2955 38.0553 31.9911C37.0932 33.6869 35.7052 35.1023 34.0285 36.0975L28.4398 39.4061L22.8405 36.0975C21.1639 35.1023 19.7759 33.6869 18.8138 31.9911C17.8518 30.2956 17.3488 28.3784 17.3545 26.4291V26.3H18.6045V26.43L18.6045 26.4319C18.5993 28.1641 19.0462 29.8676 19.901 31.3743C20.7557 32.8807 21.9887 34.1382 23.4781 35.0222C23.4782 35.0223 23.4779 35.0222 23.4781 35.0222L28.4392 37.9538L33.3905 35.0225C34.8801 34.1384 36.1133 32.8809 36.9681 31.3743C37.8229 29.8676 38.2697 28.1641 38.2645 26.4319L38.2645 26.43V14.8868Z" fill="currentColor"/>
  <path fill-rule="evenodd" clip-rule="evenodd" d="M34.6846 26.3V18.76H35.9346V26.2997" fill="currentColor"/>
</svg>
