<svg viewBox="0 0 48 48" fill="none" xmlns="http://www.w3.org/2000/svg">
  <title>Relax Glyph</title>
  <path
    d="M23.29 19.2099C23.15 19.0599 22.96 18.9699 22.75 18.9699C22.55 18.9899 22.35 19.0499 22.21 19.1899C21.67 19.7299 20.42 21.2799 20.42 23.9999C20.42 25.9899 21.04 28.2999 22.42 28.9599C22.52 29.0099 22.63 29.0299 22.74 29.0299C22.91 29.0299 23.08 28.9699 23.22 28.8599C23.3 28.7999 25.06 27.2799 25.06 23.9999C25.06 21.1399 23.36 19.2899 23.29 19.2099ZM22.67 27.2099C22.26 26.5899 21.91 25.3699 21.91 23.9999C21.91 22.5899 22.31 21.5999 22.7 20.9699C23.09 21.6299 23.55 22.6899 23.55 23.9999C23.56 25.6199 23.05 26.6599 22.67 27.2099Z"
    fill="#2D2A26"
  />
  <path
    d="M20 27.5599C19.32 27.3499 18.57 26.9799 17.92 26.5299C16.76 25.7199 16.19 24.8199 15.9 24.1399C16.57 24.1899 17.53 24.3599 18.49 24.9099C18.85 25.1199 19.31 24.9999 19.51 24.6399C19.72 24.2799 19.59 23.8199 19.24 23.6199C17.06 22.3599 14.89 22.6599 14.8 22.6699C14.6 22.6999 14.42 22.8099 14.3 22.9699C14.18 23.1299 14.13 23.3399 14.17 23.5399C14.3 24.2899 14.84 26.2199 17.07 27.7699C17.85 28.3099 18.74 28.7499 19.57 29.0099C19.64 29.0299 19.72 29.0399 19.79 29.0399C20.11 29.0399 20.41 28.8299 20.51 28.5099C20.62 28.0999 20.4 27.6899 20 27.5599Z"
    fill="#2D2A26"
  />
  <path
    d="M31.3 23.5499C31.34 23.3499 31.3 23.1499 31.19 22.9799C31.08 22.8099 30.9 22.6999 30.7 22.6599C30.03 22.5399 28.23 22.3899 26.18 23.6299C25.83 23.8399 25.71 24.3099 25.93 24.6599C26.14 25.0099 26.6 25.1299 26.96 24.9099C27.97 24.2999 28.87 24.1199 29.54 24.0799C29.23 24.7799 28.63 25.7699 27.55 26.5199C26.84 27.0099 26.11 27.3499 25.36 27.5099C24.96 27.5999 24.7 27.9999 24.79 28.3999C24.87 28.7499 25.18 28.9899 25.52 28.9899C25.57 28.9899 25.63 28.9799 25.68 28.9699C26.62 28.7699 27.54 28.3499 28.41 27.7499C30.75 26.1199 31.28 23.6599 31.3 23.5499Z"
    fill="#2D2A26"
  />
  <path
    d="M38.99 27.8699C36.62 25.5099 36.59 24.2499 36.55 22.1599C36.52 20.6399 36.48 18.7599 35.49 15.9899C33.37 10.0899 26.91 7.98987 21.57 7.98987C17.03 7.99987 13.16 9.77987 10.67 13.0099C8.05001 16.4099 7.33001 20.9799 8.62001 25.8699C8.73001 26.2699 9.14001 26.5099 9.54001 26.3999C9.94001 26.2899 10.18 25.8799 10.07 25.4799C8.90001 21.0599 9.54001 16.9499 11.86 13.9299C14.06 11.0699 17.5 9.49987 21.56 9.49987C26.39 9.49987 32.21 11.3399 34.07 16.5099C34.98 19.0399 35.01 20.7199 35.05 22.1999C35.1 24.4099 35.13 26.1499 37.94 28.9399C38.29 29.2799 38.42 29.4999 38.48 29.6099C38.29 29.7199 37.86 29.8299 37.61 29.8999C36.86 30.0999 35.93 30.3499 35.81 31.2099C35.78 31.4499 35.8 31.7599 35.83 32.2199C35.92 33.5499 36.08 36.0399 34.79 37.4199C34.12 38.1399 33.07 38.5099 31.69 38.5099H30.69C29.29 38.5099 27.96 38.5199 26.76 38.4499C26.36 38.4299 25.99 38.7399 25.97 39.1599C25.95 39.5699 26.26 39.9299 26.68 39.9499C27.65 39.9999 28.67 40.0099 29.74 40.0099C30.05 40.0099 30.37 40.0099 30.7 40.0099H31.7C33.51 40.0099 34.92 39.4799 35.89 38.4499C37.63 36.5999 37.43 33.6899 37.33 32.1299C37.32 31.9399 37.3 31.7199 37.3 31.5699C37.47 31.4899 37.8 31.4099 38 31.3499C38.77 31.1399 39.74 30.8899 39.97 30.0199C40.18 29.1799 39.51 28.3899 38.99 27.8699Z"
    fill="#2D2A26"
  />
</svg>
