<svg width="48" height="48" viewBox="0 0 48 48" fill="none" xmlns="http://www.w3.org/2000/svg">
  <title>Resveratrol Glyph</title>
  <path d="M18.8 29.25C21.75 27.3 24.17 24.26 24.17 20.72V18.84C24.16 12.55 16.93 8 12.06 8H8.75C8.34 8 8 8.34 8 8.75C8 9.16 8.34 9.5 8.75 9.5H11.31V39.21C11.31 39.62 11.65 39.96 12.06 39.96C12.47 39.96 12.81 39.62 12.81 39.21V31.52C14.28 31.38 15.92 30.86 17.5 30.02L24.87 39.66C25.02 39.85 25.24 39.95 25.47 39.95C25.63 39.95 25.79 39.9 25.93 39.8C26.26 39.55 26.32 39.08 26.07 38.75L18.8 29.25ZM12.81 9.54C16.96 9.97 22.67 13.82 22.67 18.84V20.72C22.67 25.58 16.98 29.57 12.81 30.02V9.54Z" fill="currentColor"/>
  <path d="M40 30.79C40 24.94 37.67 21.58 33.6 21.58C29.7 21.58 27.41 24.67 27.22 30.07H25.47C25.06 30.07 24.72 30.41 24.72 30.82C24.72 31.23 25.06 31.57 25.47 31.57H27.22C27.42 36.94 29.72 40.01 33.6 40.01C37.44 40.01 39.14 36.61 39.21 36.47C39.39 36.1 39.24 35.65 38.86 35.47C38.49 35.29 38.04 35.44 37.86 35.81C37.81 35.92 36.49 38.51 33.6 38.51C29.84 38.51 28.84 34.9 28.71 31.57H39.25C39.66 31.57 40 31.23 40 30.82V30.81C40 30.8 40 30.79 40 30.79ZM33.6 23.08C37.38 23.08 38.37 26.72 38.49 30.07H28.71C28.83 26.72 29.82 23.08 33.6 23.08Z" fill="currentColor"/>
</svg>
