<svg width="48" height="48" viewBox="0 0 48 48" fill="none" xmlns="http://www.w3.org/2000/svg">
  <title>Rich Moisturizer Glyph</title>
  <path d="M29 8H19V9.6947L20.8557 34.6168V38.3053L20.9588 38.405C21.4742 39.5016 22.9175 39.9003 24.0515 39.9003C24.1546 39.9003 24.2577 39.9003 24.2577 39.9003C25.701 39.8006 26.732 39.2025 27.0412 38.3053L27.1443 34.1184L29 9.99377V8ZM24.1546 38.8037C23.2268 38.8037 22.4021 38.6044 22.0928 38.1059V36.0125C22.7113 36.3115 23.3299 36.4112 23.9485 36.4112C24.0515 36.4112 24.1546 36.4112 24.1546 36.4112C24.7732 36.4112 25.2887 36.2118 25.701 36.0125V38.1059C25.5979 38.5047 24.9794 38.7041 24.1546 38.8037ZM25.8041 34.2181V34.4174C25.5979 34.8162 24.9794 35.0156 24.1546 35.1153C23.2268 35.1153 22.4021 34.9159 22.0928 34.4174L20.2371 9.99377V9.19626H27.6598V9.6947L25.8041 34.2181Z" fill="currentColor"/>
</svg>
