<svg width="48" height="48" viewBox="0 0 48 48" fill="none" xmlns="http://www.w3.org/2000/svg">
  <title>Rocketship Glyph</title>
  <path fill-rule="evenodd" clip-rule="evenodd" d="M16.1584 29.011C15.9503 29.1256 15.7029 29.2287 15.4309 29.2751C14.9387 29.359 14.3891 29.2499 13.9244 28.7777C13.4935 28.3398 13.1837 27.6376 12.9855 26.6389L12.9852 26.6376C12.587 24.609 12.9095 22.1696 13.447 20.2599C13.7171 19.3004 14.0503 18.4425 14.3969 17.8112C14.5689 17.4979 14.7573 17.2163 14.9599 17.0042C15.1421 16.8136 15.438 16.5714 15.8257 16.5714C17.0869 16.5714 18.2852 17.4518 19.4767 18.8123C23.2641 13.2183 29.8715 9.66649 37.2 10.0248C37.9638 10.0589 38.7143 10.1439 39.4406 10.2529L39.9205 10.325L39.9549 10.809C40.0068 11.5393 40.0157 12.2801 39.9723 13.0228C39.6156 20.3464 35.2171 26.5345 29.0021 29.6335C30.1637 30.8973 30.8528 32.1237 30.7696 33.3399L30.7692 33.3448C30.7397 33.7297 30.483 34.0118 30.2743 34.1886C30.0452 34.3827 29.7463 34.5573 29.4157 34.7128C28.7498 35.0261 27.8555 35.3079 26.8627 35.5158C24.8873 35.9295 22.3909 36.0772 20.3627 35.5018C19.3635 35.2203 18.6763 34.8451 18.2667 34.3671C17.8281 33.8553 17.7603 33.2883 17.8773 32.7948C17.9865 32.3347 18.2495 31.9542 18.4526 31.7097C18.4592 31.7017 18.4658 31.6939 18.4723 31.6861C17.1885 31.4282 16.2117 30.3311 16.1584 29.011ZM17.6395 26.446C17.5009 27.2113 17.4099 27.9935 17.37 28.7897V28.8055L17.3693 28.8199C17.3273 29.7032 18.03 30.4803 18.9582 30.5296H18.9829L18.9972 30.5303C19.9852 30.5772 20.9591 30.5488 21.9131 30.4504L23.6953 29.9968C22.3802 29.3091 21.1231 28.3656 20.1385 27.2458C19.3486 26.3475 18.7177 25.3147 18.3871 24.1954L17.6395 26.446ZM27.3113 29.0766C31.9241 27.1481 35.6173 23.4666 37.4749 18.8529C36.8762 18.8326 36.2592 18.626 35.6859 18.3389C34.8151 17.903 33.9312 17.2257 33.1497 16.4576C32.3667 15.6881 31.6638 14.8052 31.166 13.9386C30.8198 13.3361 30.548 12.6986 30.4447 12.0896C25.481 13.6514 21.386 17.1841 19.1607 21.7804C18.8635 23.2758 19.9318 25.1762 21.0482 26.4459C22.2547 27.8181 23.9429 28.9118 25.5882 29.5151L27.3113 29.0766ZM22.1279 31.6457L19.5515 32.3013C19.505 32.3474 19.4461 32.4094 19.3845 32.4836C19.2333 32.6657 19.103 32.8764 19.056 33.0744C19.017 33.2389 19.0304 33.3967 19.1865 33.5789C19.3716 33.7948 19.7927 34.0828 20.6915 34.3359L20.6927 34.3362C22.4608 34.8381 24.7412 34.7225 26.6144 34.3302C27.5461 34.1351 28.3442 33.8782 28.9001 33.6167C29.1803 33.4848 29.3747 33.3631 29.4913 33.2643C29.5281 33.2332 29.5507 33.2099 29.5641 33.1946C29.587 32.437 29.0997 31.4666 27.8588 30.1873L27.6912 30.2299C25.9439 30.951 24.0748 31.4358 22.1279 31.6457ZM18.0825 21.2252L18.5976 19.6473C17.4729 18.3548 16.597 17.8179 15.8955 17.7844C15.8812 17.7963 15.8612 17.8144 15.8356 17.8412C15.7343 17.9472 15.6047 18.1283 15.4588 18.3942C15.1695 18.9211 14.8668 19.6867 14.6131 20.5881C14.1031 22.4001 13.8263 24.6324 14.1738 26.4037C14.3527 27.3045 14.5981 27.7352 14.7878 27.928C14.9439 28.0866 15.0805 28.106 15.2273 28.081C15.4112 28.0496 15.6168 27.9394 15.8007 27.8035C15.8746 27.7489 15.937 27.6962 15.9838 27.6541L16.4455 26.2398C16.7644 24.4723 17.3218 22.7904 18.0825 21.2252ZM32.2163 13.3352C31.8602 12.7154 31.6663 12.1758 31.6212 11.7607C33.3809 11.3292 35.2349 11.1414 37.1421 11.2348L37.1447 11.2349C37.6908 11.2593 38.2349 11.3118 38.7742 11.3824C38.7962 11.9054 38.7935 12.4308 38.7628 12.9551L38.7625 12.9611C38.6844 14.5711 38.3973 16.1235 37.9283 17.5944C37.541 17.711 36.9637 17.624 36.2282 17.2558C35.5003 16.8913 34.7174 16.2999 33.9988 15.5936C33.2815 14.8887 32.6509 14.0916 32.2163 13.3352ZM26.966 19.0396C26.1426 19.0023 25.3358 19.2872 24.7232 19.8348C24.1102 20.3828 23.7415 21.1504 23.7021 21.9687C23.6636 22.787 23.958 23.5849 24.517 24.1872C25.0755 24.789 25.8521 25.1464 26.6753 25.1848C28.3825 25.266 29.8567 23.9655 29.9405 22.2571C30.0246 20.5535 28.681 19.1207 26.9673 19.0396L26.966 19.0396ZM25.5305 20.738C25.9046 20.4035 26.4009 20.2268 26.9107 20.2497C27.979 20.3006 28.7806 21.1872 28.7306 22.1977C28.6804 23.22 27.7905 24.0251 26.7321 23.9748C26.5478 23.9662 26.3678 23.9319 26.1971 23.8742C25.8953 23.7722 25.6222 23.5973 25.4049 23.3632C25.0652 22.9972 24.8892 22.5162 24.9121 22.0262C24.9274 21.7073 25.0263 21.3996 25.1964 21.1316C25.2878 20.9875 25.3998 20.8548 25.5305 20.738ZM11.3856 29.0207L8.2512 31.2415L8.95151 32.2299L12.0859 30.0091L11.3856 29.0207ZM13.0285 32.3362L8 36.4488L8.7669 37.3865L13.7954 33.2739L13.0285 32.3362ZM15.502 34.8403L12.9877 37.3079L13.8362 38.1724L16.3505 35.7049L15.502 34.8403Z" fill="currentColor"/>
</svg>
