<svg width="48" height="48" viewBox="0 0 48 48" fill="none" xmlns="http://www.w3.org/2000/svg">
  <title>Selfie Glyph</title>
  <path
    d="M31.58 19.73C31.58 15.55 28.18 12.15 24 12.15C19.82 12.15 16.42 15.55 16.42 19.73C16.42 23.66 19.42 26.89 23.25 27.27V34.83C22.17 33 20.38 31.04 17.42 30C17.03 29.87 16.6 30.07 16.46 30.46C16.32 30.85 16.53 31.28 16.92 31.42C22.48 33.36 23.3 39.1 23.33 39.35C23.38 39.72 23.7 40 24.08 40H24.09C24.47 40 24.79 39.71 24.83 39.33C24.84 39.27 25.5 33.37 31.08 31.42C31.47 31.28 31.68 30.86 31.54 30.46C31.4 30.07 30.98 29.87 30.58 30C27.55 31.06 25.78 33.08 24.75 34.95V27.27C28.58 26.9 31.58 23.66 31.58 19.73ZM17.92 19.73C17.92 16.38 20.65 13.65 24 13.65C27.35 13.65 30.08 16.38 30.08 19.73C30.08 22.83 27.75 25.39 24.75 25.76V20.21C24.75 19.8 24.41 19.46 24 19.46C23.59 19.46 23.25 19.8 23.25 20.21V25.76C20.25 25.39 17.92 22.83 17.92 19.73Z"
    fill="currentColor"
  />
  <path
    d="M35.85 13.57C35.85 12.78 35.21 12.15 34.43 12.15C33.65 12.15 33.01 12.79 33.01 13.57C33.01 14.35 33.65 14.99 34.43 14.99C35.21 14.99 35.85 14.36 35.85 13.57Z"
    fill="currentColor"
  />
  <path
    d="M38.3 8H9.7C8.76 8 8 8.76 8 9.7V29.77C8 30.71 8.76 31.47 9.7 31.47H13.6C14.01 31.47 14.35 31.13 14.35 30.72C14.35 30.31 14.01 29.97 13.6 29.97H9.7C9.59 29.97 9.5 29.88 9.5 29.77V9.7C9.5 9.59 9.59 9.5 9.7 9.5H38.3C38.41 9.5 38.5 9.59 38.5 9.7V29.77C38.5 29.88 38.41 29.97 38.3 29.97H34.34C33.93 29.97 33.59 30.31 33.59 30.72C33.59 31.13 33.93 31.47 34.34 31.47H38.3C39.24 31.47 40 30.71 40 29.77V9.7C40 8.76 39.24 8 38.3 8Z"
    fill="currentColor"
  />
</svg>
