<svg viewBox="0 0 48 48" fill="none" xmlns="http://www.w3.org/2000/svg">
  <title>Selfie Glyph</title>
  <path fill-rule="evenodd" clip-rule="evenodd" d="M32.89 23.0099C33.53 24.7099 34.32 26.99 34.73 28.2C34.91 28.72 34.94 29.29 34.85 29.83C34.6562 30.6973 34.4369 32.2543 34.2156 33.8253C34.1971 33.9569 34.1786 34.0886 34.16 34.22C33.87 36.33 33.59 38.31 33.34 39.16L32.14 38.8C32.36 38.05 32.65 36.01 32.92 34.05C33.16 32.33 33.41 30.55 33.63 29.56C33.71 29.24 33.69 28.91 33.58 28.6C33.5028 28.3795 33.4135 28.1229 33.3152 27.8404C32.8784 26.5857 32.2642 24.8213 31.75 23.45C31.63 23.15 31.53 22.84 31.44 22.55C31.21 21.87 31.05 21.44 30.87 21.19V28.31C30.87 29.47 30.06 30.22 28.8 30.22C27.98 30.22 27.34 29.82 26.56 29.17C26.33 28.98 26.05 28.74 25.76 28.49C25.6561 28.4013 25.5521 28.3118 25.4488 28.2227C25.214 28.0203 24.9822 27.8205 24.76 27.64C23.3568 26.4656 22.7756 26.9552 22.5828 27.1177L22.58 27.12C22.38 27.28 22.28 27.51 22.27 27.78C22.26 28.19 22.47 28.66 22.83 29.02L25.73 32.3C26.22 32.86 26.46 33.6 26.37 34.34C26.03 37.17 27.94 38.18 27.96 38.19L27.39 39.3C27.33 39.27 26.42 38.79 25.76 37.67L15.45 37.69C14.1 37.69 13 36.6 13 35.25V10.65C13 9.18996 14.19 8 15.65 8H28.2C29.65 8 30.84 9.17995 30.84 10.64V19.67C31.87 19.99 32.27 21.13 32.6 22.16C32.69 22.44 32.78 22.7199 32.89 23.0099ZM28.78 28.96C29.5 28.96 29.6 28.63 29.6 28.3V10.64C29.6 9.86995 28.98 9.25 28.21 9.25H15.66C14.89 9.25 14.26 9.87996 14.26 10.65V35.25C14.26 35.9 14.79 36.44 15.45 36.44L25.25 36.42C25.09 35.8 25.03 35.06 25.13 34.19C25.17 33.8 25.05 33.41 24.79 33.12L21.92 29.87C21.33 29.29 20.99 28.49 21.02 27.73C21.04 27.12 21.3 26.56 21.76 26.17C22.34 25.66 23.61 25.06 25.55 26.67C25.7675 26.8467 25.9989 27.0465 26.2315 27.2474C26.3412 27.3421 26.4511 27.4371 26.56 27.53C26.84 27.78 27.11 28.01 27.34 28.2C28.01 28.76 28.39 28.96 28.78 28.96ZM15.59 12.95C15.59 11.41 16.84 10.16 18.38 10.16C19.92 10.16 21.17 11.41 21.17 12.95C21.17 14.49 19.92 15.74 18.38 15.74C16.84 15.74 15.59 14.49 15.59 12.95ZM16.84 12.96C16.84 13.81 17.53 14.5 18.38 14.5C19.23 14.5 19.92 13.81 19.92 12.96C19.92 12.11 19.23 11.42 18.38 11.42C17.53 11.42 16.84 12.11 16.84 12.96Z" fill="currentColor"/>
</svg>
