<svg viewBox="0 0 48 48" fill="none" xmlns="http://www.w3.org/2000/svg">
  <title>Selfie Glyph</title>
  <path fill-rule="evenodd" clip-rule="evenodd" d="M32.9816 23.3456C33.6246 25.0837 34.4182 27.4147 34.8301 28.6517C35.0109 29.1833 35.041 29.7661 34.9506 30.3182C34.756 31.2049 34.5357 32.7966 34.3134 34.4027C34.2947 34.5373 34.2761 34.672 34.2575 34.8064C33.9661 36.9636 33.6848 38.9878 33.4337 39.8569L32.2281 39.4888C32.4492 38.722 32.7405 36.6364 33.0117 34.6326C33.2528 32.8741 33.504 31.0543 33.725 30.0422C33.8054 29.715 33.7853 29.3776 33.6748 29.0607C33.5972 28.8353 33.5075 28.5729 33.4087 28.2841C32.97 27.0013 32.353 25.1975 31.8364 23.7955C31.7158 23.4888 31.6153 23.1719 31.5249 22.8754C31.2939 22.1802 31.1331 21.7406 30.9523 21.485V28.7642C30.9523 29.9502 30.1386 30.7169 28.8728 30.7169C28.049 30.7169 27.406 30.308 26.6225 29.6434C26.3914 29.4492 26.1101 29.2038 25.8188 28.9482C25.7143 28.8576 25.6099 28.766 25.5061 28.6749C25.2702 28.468 25.0374 28.2638 24.8142 28.0792C23.4045 26.8786 22.8206 27.3791 22.6269 27.5452L22.6241 27.5476C22.4232 27.7112 22.3227 27.9463 22.3127 28.2223C22.3026 28.6415 22.5136 29.122 22.8753 29.4901L25.7886 32.8434C26.2809 33.416 26.522 34.1725 26.4316 34.929C26.09 37.8223 28.0088 38.855 28.0289 38.8652L27.4563 40C27.396 39.9693 26.4818 39.4786 25.8188 38.3335L15.4613 38.354C14.1051 38.354 13 37.2396 13 35.8594V10.7092C13 9.21658 14.1955 8 15.6622 8H28.27C29.7267 8 30.9222 9.20634 30.9222 10.699V19.931C31.9569 20.2581 32.3587 21.4236 32.6903 22.4767C32.7807 22.7629 32.8711 23.0492 32.9816 23.3456ZM28.8527 29.4287C29.576 29.4287 29.6765 29.0914 29.6765 28.754V10.699C29.6765 9.91177 29.0536 9.27796 28.28 9.27796H15.6723C14.8987 9.27796 14.2658 9.92201 14.2658 10.7092V35.8594C14.2658 36.524 14.7982 37.0761 15.4613 37.0761L25.3064 37.0556C25.1457 36.4217 25.0854 35.6652 25.1859 34.7757C25.226 34.377 25.1055 33.9783 24.8443 33.6818L21.9611 30.3591C21.3684 29.7661 21.0268 28.9482 21.0569 28.1712C21.077 27.5476 21.3382 26.9751 21.8003 26.5763C22.383 26.0549 23.6589 25.4415 25.6078 27.0875C25.8263 27.2682 26.0587 27.4725 26.2924 27.6779C26.4026 27.7747 26.513 27.8718 26.6225 27.9667C26.9037 28.2223 27.175 28.4575 27.406 28.6517C28.0791 29.2242 28.4609 29.4287 28.8527 29.4287ZM15.6019 13.0606C15.6019 11.4862 16.8576 10.2083 18.4047 10.2083C19.9518 10.2083 21.2076 11.4862 21.2076 13.0606C21.2076 14.6351 19.9518 15.9131 18.4047 15.9131C16.8576 15.9131 15.6019 14.6351 15.6019 13.0606ZM16.8576 13.0709C16.8576 13.9399 17.5508 14.6453 18.4047 14.6453C19.2587 14.6453 19.9518 13.9399 19.9518 13.0709C19.9518 12.2019 19.2587 11.4964 18.4047 11.4964C17.5508 11.4964 16.8576 12.2019 16.8576 13.0709Z" fill="currentColor"/>
</svg>
