<svg width="48" height="48" viewBox="0 0 48 48" fill="none" xmlns="http://www.w3.org/2000/svg">
  <title>Sleep Glyph</title>
  <path
    d="M25.5636 18.0837C25.4437 17.8039 25.1739 17.624 24.8741 17.624H20.6867C20.2769 17.624 19.9372 17.9638 19.9372 18.3735C19.9372 18.7833 20.2769 19.123 20.6867 19.123H23.0652L20.157 22.0312C19.9472 22.2411 19.8772 22.5709 19.9971 22.8507C20.117 23.1305 20.3869 23.3104 20.6867 23.3104H24.8741C25.2838 23.3104 25.6236 22.9706 25.6236 22.5609C25.6236 22.1512 25.2838 21.8114 24.8741 21.8114H22.4956L25.4037 18.9032C25.6136 18.6833 25.6736 18.3635 25.5636 18.0837Z"
    fill="currentColor"
  />
  <path
    d="M21.2963 28.877H18.9178L21.826 25.9688C22.0358 25.7589 22.1058 25.4291 21.9859 25.1493C21.866 24.8695 21.5961 24.6896 21.2963 24.6896H17.1089C16.6992 24.6896 16.3594 25.0294 16.3594 25.4391C16.3594 25.8488 16.6992 26.1886 17.1089 26.1886H19.4874L16.5793 29.0968C16.3694 29.3067 16.2994 29.6365 16.4194 29.9163C16.5393 30.1961 16.8091 30.376 17.1089 30.376H21.2963C21.7061 30.376 22.0458 30.0362 22.0458 29.6265C22.0458 29.2167 21.7061 28.877 21.2963 28.877Z"
    fill="currentColor"
  />
  <path
    d="M29.1114 29.6265C29.1114 29.2167 28.7716 28.877 28.3619 28.877H25.9834L28.8916 25.9688C29.1014 25.7589 29.1714 25.4291 29.0515 25.1493C28.9315 24.8695 28.6617 24.6896 28.3619 24.6896H24.1745C23.7648 24.6896 23.425 25.0294 23.425 25.4391C23.425 25.8488 23.7648 26.1886 24.1745 26.1886H26.553L23.6448 29.0968C23.435 29.3067 23.365 29.6365 23.4849 29.9163C23.6049 30.1961 23.8747 30.376 24.1745 30.376H28.3619C28.7716 30.376 29.1114 30.0462 29.1114 29.6265Z"
    fill="currentColor"
  />
  <path
    d="M38.9753 27.8676C36.6067 25.5091 36.5768 24.2498 36.5368 22.1612C36.5068 20.6421 36.4668 18.7633 35.4774 15.995C33.3588 10.0987 26.9028 8 21.5661 8C17.029 8.00999 13.1614 9.78888 10.6729 13.0169C8.05458 16.4147 7.33503 20.9819 8.62423 25.8688C8.73416 26.2686 9.1439 26.5084 9.54365 26.3985C9.9434 26.2886 10.1833 25.8788 10.0733 25.4791C8.90405 21.0618 9.54365 16.9544 11.8622 13.9363C14.0608 11.0781 17.4987 9.50906 21.5561 9.50906C26.3831 9.50906 32.1995 11.3479 34.0583 16.5147C34.9678 19.0431 34.9977 20.7221 35.0377 22.2011C35.0877 24.4097 35.1177 26.1487 37.9259 28.9369C38.2757 29.2767 38.4056 29.4966 38.4656 29.6065C38.2757 29.7164 37.846 29.8264 37.5961 29.8963C36.8466 30.0962 35.9172 30.346 35.7972 31.2055C35.7673 31.4453 35.7873 31.7552 35.8172 32.2149C35.9072 33.544 36.0671 36.0325 34.7779 37.4116C34.1083 38.1312 33.059 38.5009 31.6798 38.5009H30.6804C29.2813 38.5009 27.9521 38.5109 26.7529 38.441C26.3432 38.421 25.9834 38.7308 25.9634 39.1505C25.9434 39.5603 26.2532 39.9201 26.6729 39.94C27.6423 39.99 28.6617 40 29.731 40C30.0408 40 30.3606 40 30.6904 40H31.6898C33.4987 40 34.9078 39.4703 35.8772 38.441C37.6161 36.5921 37.4162 33.684 37.3163 32.1249C37.3063 31.935 37.2863 31.7152 37.2863 31.5653C37.4562 31.4853 37.786 31.4054 37.9859 31.3454C38.7554 31.1355 39.7248 30.8857 39.9546 30.0162C40.1645 29.1768 39.4949 28.3873 38.9753 27.8676Z"
    fill="currentColor"
  />
</svg>
