<svg xmlns="http://www.w3.org/2000/svg" viewBox="0 0 50 50">
    <title>Spaceship</title>
    <g fill="none" stroke="currentColor" stroke-width="2" stroke-linecap="round">
        <path d="M17 31.1s0 0 0 .02c-.07 1.5 1.1 2.78 2.6 2.85 0 0 .02 0 .03 0 12.82.62 23.73-9.26 24.34-22.06.05-.87.04-1.74-.02-2.6-.85-.13-1.72-.23-2.6-.27C28.52 8.4 17.62 18.3 17 31.1z"/>
        <path d="M34 10c-.25 3.03 5.57 9.17 8.5 8.2"/>
        <path d="M32 23.14c.08-1.65-1.2-3.06-2.86-3.14-1.65-.08-3.06 1.2-3.14 2.86-.08 1.65 1.2 3.06 2.86 3.14 1.65.08 3.06-1.2 3.14-2.86z"/>
        <path d="M20 19.84C18.48 17.98 17.14 17 15.88 17c-1.25 0-3.57 6.74-2.68 11.36.9 4.62 3.5 1.78 3.5 1.78"/>
        <path d="M30.46 32c1.75 1.76 2.62 3.26 2.53 4.6-.1 1.33-6.97 3.28-11.5 1.97-4.53-1.3-1.52-3.85-1.52-3.85"/>
        <path d="M13 36l-6 5"/>
        <path d="M11 32l-3.74 2.7"/>
        <path d="M16 39l-3 3"/>
        <path d="M19.48 22.2c-.95 4.8 3.8 9.14 8.16 10.62"/>
    </g>
</svg>
