<svg viewBox="0 0 50 50" xmlns="http://www.w3.org/2000/svg" xmlns:xlink="http://www.w3.org/1999/xlink">
    <title>Spaceship</title>
    <g id="Icon/spaceship" stroke="currentColor" stroke-width="2" fill="none" fill-rule="evenodd" stroke-linecap="round">
        <path d="M17.0046302,31.0892898 C17.0038217,31.0981662 17.0030132,31.1062357 17.0030132,31.115919 C16.9326713,32.611187 18.1026111,33.8966494 19.6008132,33.9708883 C19.609707,33.9716952 19.6177923,33.9716952 19.6266861,33.9725021 C32.4539807,34.5906216 43.3553619,24.7128152 43.9738857,11.9098355 C44.0167377,11.031073 44.0054183,10.16038 43.9504384,9.30179118 C43.0990585,9.16541757 42.2331252,9.07019814 41.3510213,9.02743008 C28.5237267,8.41011762 17.6239626,18.287117 17.0046302,31.0892898 Z" id="Stroke-1"/>
        <path d="M34.0087683,10 C33.754859,13.0271465 39.5700211,19.1703919 42.493252,18.1924511" id="Stroke-3"/>
        <path d="M31.9963893,23.1444588 C32.076954,21.4891856 30.7995378,20.0833266 29.144087,20.003545 C27.4901855,19.9237635 26.0834009,21.200268 26.0036108,22.8555412 C25.923046,24.5100398 27.2004622,25.9158988 28.8551384,25.996455 C30.5105892,26.0762365 31.9165992,24.799732 31.9963893,23.1444588 Z" id="Stroke-5"/>
        <path d="M20,19.8402615 C18.4789208,17.9765358 17.1372104,17 15.8839992,17 C14.6315781,17 12.3053147,23.7448373 13.1997882,28.3602623 C14.0942618,32.9756873 16.6899736,30.1354257 16.6899736,30.1354257" id="Stroke-7"/>
        <path d="M30.4620225,32 C32.2079336,33.7623276 33.0836257,35.264474 32.9937109,36.5956924 C32.9037961,37.9269107 26.0257038,39.8761646 21.4979065,38.5659965 C16.9693274,37.2566705 19.9818645,34.7188513 19.9818645,34.7188513" id="Stroke-9"/>
        <path d="M13,36 L7,41" id="Stroke-11"/>
        <path d="M11,32 L7.26466546,34.6979746" id="Stroke-13" />
        <path d="M16,39 L13,42" id="Stroke-15"/>
        <path d="M19.4797052,22.2019717 C18.5312592,27.0000608 23.2787559,31.3433999 27.6401007,32.819735" id="Stroke-17"/>
    </g>
</svg>