    <svg
      width="48"
      height="48"
      viewBox="0 0 48 48"
      fill="none"
      xmlns="http://www.w3.org/2000/svg"
    >
      <g clipPath="url(#clip0_9130_4498)">
        <path
          d="M28.4 8L12.4 12.1L8 28.1L19.6 39.9L35.6 35.8L40 19.8L28.4 8ZM34.6 34.7L20 38.5L9.4 27.7L13.4 13.2L28 9.4L38.6 20.2L34.6 34.7Z"
          fill="#332856"
        />
        <path
          d="M21.6 22.6C20.8 22.3 20.5 22.2 20.5 21.7C20.5 21.3 20.8 21 21.2 21C21.6 21 21.9 21.3 22 21.8H23.3C23.3 20.5 22.5 19.9 21.3 19.9C20.1 19.9 19.3 20.7 19.3 21.8C19.3 22.9 20 23.4 21.1 23.7C21.9 24 22.2 24.2 22.2 24.6C22.2 25 21.9 25.3 21.4 25.3C20.8 25.3 20.4 25 20.4 24.3H19.1C19.1 25.5 19.9 26.4 21.3 26.4C22.5 26.4 23.4 25.7 23.4 24.5C23.4 23.6 22.9 23.1 21.6 22.6Z"
          fill="#332856"
        />
        <path
          d="M26.9 21.7C26.1 21.7 25.7 22 25.4 22.4L25.3 21.8H24.3L24.2 28.3H25.4V25.9C25.6 26.2 26.1 26.5 26.8 26.5C28 26.5 28.9 25.5 28.9 24.1C28.9 22.7 28.1 21.7 26.9 21.7ZM26.6 25.4C26 25.4 25.5 24.9 25.5 24.1V24C25.5 23.2 26.1 22.7 26.7 22.7C27.3 22.7 27.8 23.2 27.8 24C27.8 24.9 27.2 25.4 26.6 25.4Z"
          fill="#332856"
        />
        <path
          d="M26.2 12.9L26.9 12.7L27.4 13.2C27.5 13.3 27.6 13.3 27.7 13.3C27.8 13.3 27.9 13.3 28 13.2C28.2 13 28.2 12.7 28 12.5L27.1 11.6L26 12C25.7 12.1 25.6 12.3 25.7 12.6C25.7 12.8 26 13 26.2 12.9Z"
          fill="#332856"
        />
        <path
          d="M16 14.6L14.8 14.9L14.5 16.1C14.4 16.4 14.5 16.6 14.8 16.7H14.9C15.1 16.7 15.3 16.6 15.4 16.3L15.6 15.6L16.3 15.4C16.6 15.3 16.7 15.1 16.6 14.8C16.6 14.6 16.3 14.5 16 14.6Z"
          fill="#332856"
        />
        <path
          d="M12.4 27L12.6 26.3C12.7 26 12.5 25.8 12.3 25.7C12 25.6 11.8 25.7 11.7 26L11.4 27.2L12.3 28.1C12.4 28.2 12.5 28.2 12.6 28.2C12.7 28.2 12.8 28.2 12.9 28.1C13.1 27.9 13.1 27.6 12.9 27.4L12.4 27Z"
          fill="#332856"
        />
        <path
          d="M21.4 35.1L20.7 35.3L20.2 34.8C20 34.6 19.7 34.6 19.5 34.8C19.3 35 19.3 35.3 19.5 35.5L20.4 36.4L21.6 36.1C21.9 36 22 35.8 21.9 35.5C21.9 35.2 21.6 35.1 21.4 35.1Z"
          fill="#332856"
        />
        <path
          d="M32.8 31.3C32.5 31.2 32.3 31.4 32.2 31.6L32 32.4L31.3 32.6C31 32.7 30.9 32.9 31 33.2C31.1 33.4 31.3 33.6 31.5 33.6H31.6L32.8 33.3L33.1 32.1C33.2 31.7 33.1 31.4 32.8 31.3Z"
          fill="#332856"
        />
        <path
          d="M35.3 19.9C35.1 19.7 34.8 19.7 34.6 19.9C34.4 20.1 34.4 20.4 34.6 20.6L35.1 21.1L35 21.8C34.9 22.1 35.1 22.3 35.3 22.4H35.4C35.6 22.4 35.8 22.3 35.9 22L36.2 20.8L35.3 19.9Z"
          fill="#332856"
        />
      </g>
      <defs>
        <clipPath id="clip0_9130_4498">
          <rect
            width="32"
            height="31.8"
            fill="white"
            transform="translate(8 8)"
          />
        </clipPath>
      </defs>
    </svg>