<svg  viewBox="0 0 48 48" fill="none" xmlns="https://www.w3.org/2000/svg">
  <title>Sun Glyph</title>
  <path fill-rule="evenodd" clip-rule="evenodd" d="M23.875 10.5197C24.5654 10.5197 25.125 9.95563 25.125 9.25984C25.125 8.56405 24.5654 8 23.875 8C23.1846 8 22.625 8.56405 22.625 9.25984C22.625 9.95563 23.1846 10.5197 23.875 10.5197ZM23.875 40C24.5654 40 25.125 39.4359 25.125 38.7402C25.125 38.0444 24.5654 37.4803 23.875 37.4803C23.1846 37.4803 22.625 38.0444 22.625 38.7402C22.625 39.4359 23.1846 40 23.875 40ZM35.5 13.5433C35.5 14.2391 34.9404 14.8031 34.25 14.8031C33.5596 14.8031 33 14.2391 33 13.5433C33 12.8475 33.5596 12.2835 34.25 12.2835C34.9404 12.2835 35.5 12.8475 35.5 13.5433ZM13.5 35.7165C14.1904 35.7165 14.75 35.1525 14.75 34.4567C14.75 33.7609 14.1904 33.1969 13.5 33.1969C12.8096 33.1969 12.25 33.7609 12.25 34.4567C12.25 35.1525 12.8096 35.7165 13.5 35.7165ZM40 24C40 24.6958 39.4404 25.2598 38.75 25.2598C38.0596 25.2598 37.5 24.6958 37.5 24C37.5 23.3042 38.0596 22.7402 38.75 22.7402C39.4404 22.7402 40 23.3042 40 24ZM9.25 25.2598C9.94036 25.2598 10.5 24.6958 10.5 24C10.5 23.3042 9.94036 22.7402 9.25 22.7402C8.55964 22.7402 8 23.3042 8 24C8 24.6958 8.55964 25.2598 9.25 25.2598ZM35.5 34.4567C35.5 35.1525 34.9404 35.7165 34.25 35.7165C33.5596 35.7165 33 35.1525 33 34.4567C33 33.7609 33.5596 33.1969 34.25 33.1969C34.9404 33.1969 35.5 33.7609 35.5 34.4567ZM13.5 14.8031C14.1904 14.8031 14.75 14.2391 14.75 13.5433C14.75 12.8475 14.1904 12.2835 13.5 12.2835C12.8096 12.2835 12.25 12.8475 12.25 13.5433C12.25 14.2391 12.8096 14.8031 13.5 14.8031ZM32 24C32 19.4646 28.375 15.811 23.875 15.811C19.375 15.811 15.75 19.4646 15.75 24C15.75 28.5354 19.375 32.189 23.875 32.189C28.375 32.189 32 28.5354 32 24ZM14.25 24C14.25 18.5827 18.5 14.2992 23.875 14.2992C29.125 14.2992 33.5 18.5827 33.5 24C33.5 29.2913 29.25 33.7008 23.875 33.7008C18.625 33.7008 14.25 29.4173 14.25 24Z" fill="currentColor"/>
</svg>
