<svg width="48" height="48" viewBox="0 0 48 48" fill="none" xmlns="http://www.w3.org/2000/svg">
  <title>Sun Glyph</title>
  <path d="M24 14.74C23.59 14.74 23.25 14.4 23.25 13.99V8.75C23.25 8.34 23.59 8 24 8C24.41 8 24.75 8.34 24.75 8.75V13.99C24.75 14.41 24.41 14.74 24 14.74Z" fill="currentColor"/>
  <path d="M24.02 31.11C20.1 31.11 16.91 27.92 16.91 24C16.91 20.08 20.1 16.89 24.02 16.89C27.94 16.89 31.13 20.08 31.13 24C31.13 27.92 27.94 31.11 24.02 31.11ZM24.02 18.39C20.93 18.39 18.41 20.91 18.41 24C18.41 27.09 20.93 29.61 24.02 29.61C27.11 29.61 29.63 27.09 29.63 24C29.63 20.91 27.11 18.39 24.02 18.39Z" fill="currentColor"/>
  <path d="M24 40C23.59 40 23.25 39.66 23.25 39.25V34.01C23.25 33.6 23.59 33.26 24 33.26C24.41 33.26 24.75 33.6 24.75 34.01V39.25C24.75 39.66 24.41 40 24 40Z" fill="currentColor"/>
  <path d="M16.95 17.7C16.76 17.7 16.57 17.63 16.42 17.48L12.69 13.75C12.4 13.46 12.4 12.98 12.69 12.69C12.98 12.4 13.46 12.4 13.75 12.69L17.48 16.43C17.77 16.72 17.77 17.2 17.48 17.49C17.33 17.63 17.14 17.7 16.95 17.7Z" fill="currentColor"/>
  <path d="M34.78 35.53C34.59 35.53 34.4 35.46 34.25 35.31L30.57 31.63C30.28 31.34 30.28 30.86 30.57 30.57C30.86 30.28 31.34 30.28 31.63 30.57L35.31 34.25C35.6 34.54 35.6 35.02 35.31 35.31C35.17 35.46 34.98 35.53 34.78 35.53Z" fill="currentColor"/>
  <path d="M31.17 17.58C30.98 17.58 30.79 17.51 30.64 17.36C30.35 17.07 30.35 16.59 30.64 16.3L34.26 12.68C34.55 12.39 35.03 12.39 35.32 12.68C35.61 12.97 35.61 13.45 35.32 13.74L31.7 17.36C31.55 17.51 31.36 17.58 31.17 17.58Z" fill="currentColor"/>
  <path d="M13.22 35.53C13.03 35.53 12.84 35.46 12.69 35.31C12.4 35.02 12.4 34.54 12.69 34.25L16.49 30.45C16.78 30.16 17.26 30.16 17.55 30.45C17.84 30.74 17.84 31.22 17.55 31.51L13.75 35.31C13.6 35.46 13.41 35.53 13.22 35.53Z" fill="currentColor"/>
  <path d="M14.06 24.75H8.75C8.34 24.75 8 24.41 8 24C8 23.59 8.34 23.25 8.75 23.25H14.06C14.47 23.25 14.81 23.59 14.81 24C14.81 24.41 14.48 24.75 14.06 24.75Z" fill="currentColor"/>
  <path d="M39.25 24.75H34.05C33.64 24.75 33.3 24.41 33.3 24C33.3 23.59 33.64 23.25 34.05 23.25H39.25C39.66 23.25 40 23.59 40 24C40 24.41 39.66 24.75 39.25 24.75Z" fill="currentColor"/>
</svg>
