<svg viewBox="0 0 48 48" fill="none" xmlns="http://www.w3.org/2000/svg">
  <title>Sun Glyph</title>
  <mask id="mask0" mask-type="alpha" maskUnits="userSpaceOnUse" x="8" y="8" width="33" height="32">
    <path fill-rule="evenodd" clip-rule="evenodd" d="M23.9373 10.5197C24.6303 10.5197 25.1922 9.95563 25.1922 9.25984C25.1922 8.56405 24.6303 8 23.9373 8C23.2442 8 22.6824 8.56405 22.6824 9.25984C22.6824 9.95563 23.2442 10.5197 23.9373 10.5197ZM23.9373 40C24.6303 40 25.1922 39.4359 25.1922 38.7402C25.1922 38.0444 24.6303 37.4803 23.9373 37.4803C23.2442 37.4803 22.6824 38.0444 22.6824 38.7402C22.6824 39.4359 23.2442 40 23.9373 40ZM35.6078 13.5433C35.6078 14.2391 35.046 14.8031 34.3529 14.8031C33.6599 14.8031 33.098 14.2391 33.098 13.5433C33.098 12.8475 33.6599 12.2835 34.3529 12.2835C35.046 12.2835 35.6078 12.8475 35.6078 13.5433ZM13.5216 35.7165C14.2146 35.7165 14.7765 35.1525 14.7765 34.4567C14.7765 33.7609 14.2146 33.1969 13.5216 33.1969C12.8285 33.1969 12.2667 33.7609 12.2667 34.4567C12.2667 35.1525 12.8285 35.7165 13.5216 35.7165ZM40.1255 24C40.1255 24.6958 39.5637 25.2598 38.8706 25.2598C38.1775 25.2598 37.6157 24.6958 37.6157 24C37.6157 23.3042 38.1775 22.7402 38.8706 22.7402C39.5637 22.7402 40.1255 23.3042 40.1255 24ZM9.2549 25.2598C9.94797 25.2598 10.5098 24.6958 10.5098 24C10.5098 23.3042 9.94797 22.7402 9.2549 22.7402C8.56184 22.7402 8 23.3042 8 24C8 24.6958 8.56184 25.2598 9.2549 25.2598ZM35.6078 34.4567C35.6078 35.1525 35.046 35.7165 34.3529 35.7165C33.6599 35.7165 33.098 35.1525 33.098 34.4567C33.098 33.7609 33.6599 33.1969 34.3529 33.1969C35.046 33.1969 35.6078 33.7609 35.6078 34.4567ZM13.5216 14.8031C14.2146 14.8031 14.7765 14.2391 14.7765 13.5433C14.7765 12.8475 14.2146 12.2835 13.5216 12.2835C12.8285 12.2835 12.2667 12.8475 12.2667 13.5433C12.2667 14.2391 12.8285 14.8031 13.5216 14.8031ZM32.0941 24C32.0941 19.4646 28.4549 15.811 23.9373 15.811C19.4196 15.811 15.7804 19.4646 15.7804 24C15.7804 28.5354 19.4196 32.189 23.9373 32.189C28.4549 32.189 32.0941 28.5354 32.0941 24ZM14.2745 24C14.2745 18.5827 18.5412 14.2992 23.9373 14.2992C29.2078 14.2992 33.6 18.5827 33.6 24C33.6 29.2913 29.3333 33.7008 23.9373 33.7008C18.6667 33.7008 14.2745 29.4173 14.2745 24Z" fill="white"/>
  </mask>
  <g mask="url(#mask0)">
    <rect width="48" height="48" fill="currentColor"/>
  </g>
</svg>
