<svg viewBox="0 0 53 53" xmlns="http://www.w3.org/2000/svg" xmlns:xlink="http://www.w3.org/1999/xlink">
  <title>Sun</title>
  <g fill="none" stroke="currentColor" stroke-width="2">
    <path d="M42 27c0 8.28-6.72 15-15 15-8.28 0-15-6.72-15-15 0-8.28 6.72-15 15-15 8.28 0 15 6.72 15 15zM29 3c0 1.1-.9 2-2 2s-2-.9-2-2 .9-2 2-2 2 .9 2 2zM11.4 8.6c.8.77.8 2.03 0 2.8-.77.8-2.03.8-2.8 0-.8-.77-.8-2.03 0-2.8.77-.8 2.03-.8 2.8 0zM3 25c1.1 0 2 .9 2 2s-.9 2-2 2-2-.9-2-2 .9-2 2-2zM8.6 41.6c.77-.8 2.03-.8 2.8 0 .8.77.8 2.03 0 2.8-.77.8-2.03.8-2.8 0-.8-.77-.8-2.03 0-2.8zM25 50c0-1.1.9-2 2-2s2 .9 2 2-.9 2-2 2-2-.9-2-2zM41.6 44.4c-.8-.77-.8-2.03 0-2.8.77-.8 2.03-.8 2.8 0 .8.77.8 2.03 0 2.8-.77.8-2.03.8-2.8 0zM50 29c-1.1 0-2-.9-2-2s.9-2 2-2 2 .9 2 2-.9 2-2 2zM44.4 11.4c-.77.8-2.03.8-2.8 0-.8-.77-.8-2.03 0-2.8.77-.8 2.03-.8 2.8 0 .8.77.8 2.03 0 2.8z"/>
  </g>
</svg>

