<svg width="48" height="48" viewBox="0 0 48 48" fill="none" xmlns="http://www.w3.org/2000/svg">
  <title>Sun Moon Glyph</title>
  <path d="M18.696 9.69768C19.1611 9.69768 19.5382 9.31763 19.5382 8.84883C19.5382 8.38004 19.1611 8 18.696 8C18.2308 8 17.8538 8.38004 17.8538 8.84883C17.8538 9.31763 18.2308 9.69768 18.696 9.69768ZM18.696 29.5604C19.1611 29.5604 19.5382 29.1803 19.5382 28.7116C19.5382 28.2428 19.1611 27.8627 18.696 27.8627C18.2308 27.8627 17.8538 28.2428 17.8538 28.7116C17.8538 29.1803 18.2308 29.5604 18.696 29.5604ZM26.5285 11.7349C26.5285 12.2037 26.1514 12.5837 25.6863 12.5837C25.2211 12.5837 24.844 12.2037 24.844 11.7349C24.844 11.2661 25.2211 10.8861 25.6863 10.8861C26.1514 10.8861 26.5285 11.2661 26.5285 11.7349ZM11.7057 26.6743C12.1709 26.6743 12.5479 26.2943 12.5479 25.8255C12.5479 25.3567 12.1709 24.9767 11.7057 24.9767C11.2405 24.9767 10.8635 25.3567 10.8635 25.8255C10.8635 26.2943 11.2405 26.6743 11.7057 26.6743ZM29.5604 18.7802C29.5604 19.249 29.1833 19.629 28.7182 19.629C28.253 19.629 27.876 19.249 27.876 18.7802C27.876 18.3114 28.253 17.9314 28.7182 17.9314C29.1833 17.9314 29.5604 18.3114 29.5604 18.7802ZM8.8422 19.629C9.30734 19.629 9.68441 19.249 9.68441 18.7802C9.68441 18.3114 9.30734 17.9314 8.8422 17.9314C8.37706 17.9314 8 18.3114 8 18.7802C8 19.249 8.37706 19.629 8.8422 19.629ZM26.5285 25.8255C26.5285 26.2943 26.1514 26.6743 25.6863 26.6743C25.2211 26.6743 24.844 26.2943 24.844 25.8255C24.844 25.3567 25.2211 24.9767 25.6863 24.9767C26.1514 24.9767 26.5285 25.3567 26.5285 25.8255ZM11.7057 12.5837C12.1709 12.5837 12.5479 12.2037 12.5479 11.7349C12.5479 11.2661 12.1709 10.8861 11.7057 10.8861C11.2405 10.8861 10.8635 11.2661 10.8635 11.7349C10.8635 12.2037 11.2405 12.5837 11.7057 12.5837ZM18.7886 25.2862C15.2 25.2862 12.2909 22.3771 12.2909 18.7886C12.2909 15.2 15.2 12.2909 18.7886 12.2909C22.3771 12.2909 25.2862 15.2 25.2862 18.7886C25.2862 22.3771 22.3771 25.2862 18.7886 25.2862ZM18.7886 24.0602C21.7 24.0602 24.0602 21.7 24.0602 18.7886C24.0602 15.8771 21.7 13.5169 18.7886 13.5169C15.8771 13.5169 13.5169 15.8771 13.5169 18.7886C13.5169 21.7 15.8771 24.0602 18.7886 24.0602ZM21.737 33.685C21.7395 33.6833 21.7423 33.6816 21.7453 33.6802C21.7691 33.6685 21.819 33.6762 21.8846 33.6962C21.9493 33.709 22.0117 33.7322 22.0691 33.7649C22.3371 33.8766 22.6802 34.0547 22.7689 34.0736C27.4711 35.0731 32.0933 32.0714 33.0928 27.3691C33.526 25.3311 33.2177 23.2529 32.2544 21.4541C32.2398 21.4268 32.2274 21.399 32.2173 21.3707C32.172 21.2489 32.1649 21.1119 32.2058 20.978C32.3049 20.6543 32.6476 20.4721 32.9713 20.5712C35.53 21.3538 37.6764 23.1273 38.9155 25.5592C41.4054 30.4458 39.4624 36.4257 34.5758 38.9155C29.6892 41.4054 23.7093 39.4624 21.2195 34.5758C21.0658 34.2742 21.1857 33.905 21.4874 33.7513C21.5676 33.7105 21.6526 33.6889 21.737 33.685ZM23.1788 35.391C25.6856 38.6425 30.2278 39.755 34.0192 37.8232C38.3026 35.6407 40.0057 30.3991 37.8232 26.1158C36.961 24.4236 35.5992 23.0962 33.9526 22.2772C34.5481 23.9724 34.6769 25.8132 34.292 27.624C33.1989 32.7667 28.3076 36.1265 23.1788 35.391Z" fill="currentColor"/>
</svg>
