<svg width="48" height="48" viewBox="0 0 48 48" fill="none" xmlns="http://www.w3.org/2000/svg">
  <title>Sunblock Glyph</title>
  <path
    d="M29.53 28.48C30.53 27.26 31.13 25.7 31.13 24C31.13 22.3 30.53 20.74 29.53 19.52L35.37 13.69C35.66 13.4 35.66 12.92 35.37 12.63C35.08 12.34 34.6 12.34 34.31 12.63L28.46 18.47C27.24 17.49 25.7 16.9 24.02 16.9C22.32 16.9 20.76 17.5 19.53 18.5L13.65 12.62C13.36 12.33 12.88 12.33 12.59 12.62C12.3 12.91 12.3 13.39 12.59 13.68L18.48 19.56C17.5 20.78 16.91 22.32 16.91 24C16.91 25.68 17.5 27.22 18.47 28.44L12.58 34.32C12.29 34.61 12.29 35.09 12.58 35.38C12.73 35.53 12.92 35.6 13.11 35.6C13.3 35.6 13.49 35.53 13.64 35.38L19.52 29.51C20.74 30.51 22.31 31.11 24.01 31.11C25.69 31.11 27.24 30.52 28.45 29.54L34.3 35.38C34.45 35.53 34.64 35.6 34.83 35.6C35.02 35.6 35.21 35.53 35.36 35.38C35.65 35.09 35.65 34.61 35.36 34.32L29.53 28.48ZM29.63 24C29.63 25.28 29.19 26.47 28.46 27.41L25.04 24L28.46 20.59C29.19 21.53 29.63 22.72 29.63 24ZM24.02 18.39C25.29 18.39 26.45 18.82 27.39 19.53L23.98 22.94L20.6 19.57C21.55 18.83 22.73 18.39 24.02 18.39ZM18.41 24C18.41 22.74 18.84 21.57 19.54 20.63L22.92 24L19.55 27.37C18.84 26.43 18.41 25.26 18.41 24ZM24.02 29.61C22.73 29.61 21.55 29.17 20.6 28.44L23.98 25.07L27.39 28.48C26.45 29.18 25.29 29.61 24.02 29.61Z"
    fill="currentColor"
  />
  <path
    d="M24 14.74C24.41 14.74 24.75 14.4 24.75 13.99V8.75C24.75 8.34 24.41 8 24 8C23.59 8 23.25 8.34 23.25 8.75V13.99C23.25 14.41 23.59 14.74 24 14.74Z"
    fill="currentColor"
  />
  <path
    d="M24 33.26C23.59 33.26 23.25 33.6 23.25 34.01V39.25C23.25 39.66 23.59 40 24 40C24.41 40 24.75 39.66 24.75 39.25V34.01C24.75 33.59 24.41 33.26 24 33.26Z"
    fill="currentColor"
  />
  <path
    d="M14.81 24C14.81 23.59 14.47 23.25 14.06 23.25H8.75C8.34 23.25 8 23.59 8 24C8 24.41 8.34 24.75 8.75 24.75H14.06C14.48 24.75 14.81 24.41 14.81 24Z"
    fill="currentColor"
  />
  <path
    d="M39.25 23.25H34.05C33.64 23.25 33.3 23.59 33.3 24C33.3 24.41 33.64 24.75 34.05 24.75H39.25C39.66 24.75 40 24.41 40 24C40 23.59 39.66 23.25 39.25 23.25Z"
    fill="currentColor"
  />
</svg>
