<svg viewBox="0 0 45 45" xmlns="http://www.w3.org/2000/svg" xmlns:xlink="http://www.w3.org/1999/xlink">
  <title>Sunscreen Tub</title>
  <g fill="none" fill-rule="evenodd" transform="translate(10 11)">
    <g transform="translate(7 8)">
      <path fill="currentColor" d="M6.24698372,3.71833256 C4.68607674,3.71833256 3.41600698,4.98840233 3.41600698,6.5493093 C3.41600698,8.11021628 4.68607674,9.38028605 6.24698372,9.38028605 C7.8078907,9.38028605 9.07796047,8.11021628 9.07796047,6.5493093 C9.07796047,4.98840233 7.8078907,3.71833256 6.24698372,3.71833256 M6.24698372,10.891914 C3.85256512,10.891914 1.90437907,8.94403023 1.90437907,6.5493093 C1.90437907,4.1548907 3.85256512,2.20670465 6.24698372,2.20670465 C8.64140233,2.20670465 10.5895884,4.1548907 10.5895884,6.5493093 C10.5895884,8.94403023 8.64140233,10.891914 6.24698372,10.891914"/>
      <g transform="translate(5.442 .099)">
        <polygon points=".262 .204 1.348 .204 1.348 1.289 .262 1.289"/>
        <path fill="currentColor" d="M1.34794884,0.746411628 C1.34794884,1.0463186 1.10487907,1.28908605 0.805274419,1.28908605 C0.505367442,1.28908605 0.262297674,1.0463186 0.262297674,0.746411628 C0.262297674,0.446504651 0.505367442,0.203737209 0.805274419,0.203737209 C1.10487907,0.203737209 1.34794884,0.446504651 1.34794884,0.746411628" mask="url(#always-b)"/>
      </g>
      <path fill="currentColor" d="M2.59724884 2.13203023C2.80917907 2.34396047 2.80917907 2.68770465 2.59724884 2.89963488 2.3853186 3.11156512 2.04157442 3.11156512 1.82964419 2.89963488 1.61771395 2.68770465 1.61771395 2.34396047 1.82964419 2.13203023 2.04157442 1.9201 2.3853186 1.9201 2.59724884 2.13203023M.542825581 6.00660465C.842430233 6.00660465 1.0855 6.24967442 1.0855 6.54927907 1.0855 6.84918605.842430233 7.09195349.542825581 7.09195349.242918605 7.09195349.000151162791 6.84918605.000151162791 6.54927907.000151162791 6.24967442.242918605 6.00660465.542825581 6.00660465M1.82976512 10.199014C2.04169535 9.98708372 2.38513721 9.98708372 2.59736977 10.199014 2.8093 10.4109442 2.8093 10.7546884 2.59736977 10.9666186 2.38513721 11.1785488 2.04169535 11.1785488 1.82976512 10.9666186 1.61783488 10.7546884 1.61783488 10.4109442 1.82976512 10.199014M5.70418837 12.2535884C5.70418837 11.9536814 5.94725814 11.710914 6.24686279 11.710914 6.54676977 11.710914 6.78983953 11.9536814 6.78983953 12.2535884 6.78983953 12.5534953 6.54676977 12.7962628 6.24686279 12.7962628 5.94725814 12.7962628 5.70418837 12.5534953 5.70418837 12.2535884M9.89674884 10.9666186C9.6848186 10.7546884 9.6848186 10.4109442 9.89674884 10.199014 10.1086791 9.98708372 10.4524233 9.98708372 10.6643535 10.199014 10.8762837 10.4109442 10.8762837 10.7546884 10.6643535 10.9666186 10.4524233 11.1785488 10.1086791 11.1785488 9.89674884 10.9666186"/>
      <g transform="translate(11.186 5.843)">
        <polygon points=".223 .164 1.308 .164 1.308 1.249 .223 1.249"/>
        <path fill="currentColor" d="M0.765276744,1.2492093 C0.465369767,1.2492093 0.222602326,1.00613953 0.222602326,0.706534884 C0.222602326,0.406627907 0.465369767,0.163860465 0.765276744,0.163860465 C1.0648814,0.163860465 1.30795116,0.406627907 1.30795116,0.706534884 C1.30795116,1.00613953 1.0648814,1.2492093 0.765276744,1.2492093" mask="url(#always-d)"/>
      </g>
      <path fill="currentColor" d="M10.6642326,2.89963488 C10.4523023,3.11156512 10.1088605,3.11156512 9.89662791,2.89963488 C9.68469767,2.68770465 9.68469767,2.34396047 9.89662791,2.13203023 C10.1088605,1.9201 10.4523023,1.9201 10.6642326,2.13203023 C10.8761628,2.34396047 10.8761628,2.68770465 10.6642326,2.89963488"/>
    </g>
    <path stroke="currentColor" stroke-linecap="round" stroke-linejoin="round" stroke-width="2" d="M0 6L26 6 26 20C26 22.209139 24.209139 24 22 24L4 24C1.790861 24 2.705415e-16 22.209139 0 20L0 6zM3 0L23 0C24.6568542-3.04359188e-16 26 1.34314575 26 3L26 6 0 6 0 3C-2.02906125e-16 1.34314575 1.34314575 3.04359188e-16 3 0z"/>
  </g>
</svg>
