<svg width="48" height="48" viewBox="0 0 48 48" fill="none" xmlns="http://www.w3.org/2000/svg">
  <title>Sunscreen Glyph</title>
  <path fill-rule="evenodd" clip-rule="evenodd" d="M31.328 16.3C32.1149 16.7 32.6067 17.4 32.705 18.2C33.1968 21.6 33.2952 33.2 30.5411 38.8C30.246 39.2 29.7542 39.7 27.3936 39.9C27.1021 39.9 26.7226 39.9179 26.2849 39.9386C25.6883 39.9667 24.9835 40 24.246 40C21.4919 40 18.246 39.7 17.5575 38.9L17.4591 38.8C14.705 33.2 14.8034 21.7 15.2952 18.2C15.3936 17.4 15.9837 16.7 16.6722 16.3L20.705 14.1V10.8C20.8034 9.7 22.6722 8.8 24.3444 8.3C25.328 8.1 26.2132 8 27.0001 8C28.2788 8.1 28.6722 8.6 28.7706 9C28.869 9.4 28.7706 10 27.6886 10.7C27.6886 10.8 27.5903 10.8 27.5903 10.8V14.3L31.328 16.3ZM24.6395 9.5C23.5575 9.8 22.7706 10.2 22.3772 10.5C22.1804 10.6 22.0821 10.7 22.0821 10.8C22.4755 10.9 23.4591 10.9 24.9345 10.5C25.5357 10.3472 26.022 10.1361 26.4374 9.95573C26.5657 9.9 26.6873 9.84721 26.8034 9.8C27.0985 9.6 27.3936 9.4 27.4919 9.3C27.0985 9.2 26.1149 9.1 24.6395 9.5ZM22.7798 12.0999C22.5144 12.099 22.2491 12.0899 21.9837 12V12.0297C21.9509 12.0209 21.9182 12.011 21.8854 11.9999V13.9999L26.4099 14L26.41 11.3999C26.2133 11.4499 26.0166 11.5249 25.8198 11.5999C25.6231 11.6749 25.4264 11.7499 25.2297 11.7999C24.4458 11.9991 23.5644 12.0991 22.7798 12.0999ZM18.5411 38.2C19.6231 39 28.5739 39 29.4591 38.2C32.0165 33.2 32.0165 22 31.4263 18.4C31.328 18 31.1313 17.6 30.7378 17.4L26.6067 15.2H21.2952L17.164 17.4C16.7706 17.6 16.5739 18 16.4755 18.4C15.9837 22 15.9837 33 18.5411 38.2Z" fill="currentColor"/>
  <path d="M24.0493 30.2C22.1804 30.2 20.6067 28.6 20.6067 26.7C20.6067 24.8 22.1804 23.2 24.0493 23.2C25.9181 23.2 27.4919 24.8 27.4919 26.7C27.4919 28.7 25.9181 30.2 24.0493 30.2ZM24.0493 24.6C22.869 24.6 21.8854 25.6 21.8854 26.8C21.8854 28 22.869 29 24.0493 29C25.2296 29 26.2132 28 26.2132 26.8C26.2132 25.6 25.328 24.6 24.0493 24.6Z" fill="currentColor"/>
  <path d="M24.1477 21.8C24.4736 21.8 24.7378 21.5314 24.7378 21.2C24.7378 20.8686 24.4736 20.6 24.1477 20.6C23.8217 20.6 23.5575 20.8686 23.5575 21.2C23.5575 21.5314 23.8217 21.8 24.1477 21.8Z" fill="currentColor"/>
  <path d="M24.1477 33C24.4736 33 24.7378 32.7314 24.7378 32.4C24.7378 32.0686 24.4736 31.8 24.1477 31.8C23.8217 31.8 23.5575 32.0686 23.5575 32.4C23.5575 32.7314 23.8217 33 24.1477 33Z" fill="currentColor"/>
  <path d="M27.9837 23.4C28.3097 23.4 28.5739 23.1314 28.5739 22.8C28.5739 22.4686 28.3097 22.2 27.9837 22.2C27.6578 22.2 27.3936 22.4686 27.3936 22.8C27.3936 23.1314 27.6578 23.4 27.9837 23.4Z" fill="currentColor"/>
  <path d="M20.2132 31.3C20.5392 31.3 20.8034 31.0314 20.8034 30.7C20.8034 30.3686 20.5392 30.1 20.2132 30.1C19.8873 30.1 19.6231 30.3686 19.6231 30.7C19.6231 31.0314 19.8873 31.3 20.2132 31.3Z" fill="currentColor"/>
  <path d="M29.6558 27.4C29.9818 27.4 30.246 27.1314 30.246 26.8C30.246 26.4686 29.9818 26.2 29.6558 26.2C29.3299 26.2 29.0657 26.4686 29.0657 26.8C29.0657 27.1314 29.3299 27.4 29.6558 27.4Z" fill="currentColor"/>
  <path d="M18.6395 27.4C18.9654 27.4 19.2296 27.1314 19.2296 26.8C19.2296 26.4686 18.9654 26.2 18.6395 26.2C18.3135 26.2 18.0493 26.4686 18.0493 26.8C18.0493 27.1314 18.3135 27.4 18.6395 27.4Z" fill="currentColor"/>
  <path d="M27.9837 31.3C28.3097 31.3 28.5739 31.0314 28.5739 30.7C28.5739 30.3686 28.3097 30.1 27.9837 30.1C27.6578 30.1 27.3936 30.3686 27.3936 30.7C27.3936 31.0314 27.6578 31.3 27.9837 31.3Z" fill="currentColor"/>
  <path d="M20.2132 23.4C20.5392 23.4 20.8034 23.1314 20.8034 22.8C20.8034 22.4686 20.5392 22.2 20.2132 22.2C19.8873 22.2 19.6231 22.4686 19.6231 22.8C19.6231 23.1314 19.8873 23.4 20.2132 23.4Z" fill="currentColor"/>
</svg>
