<svg width="48" height="48" viewBox="0 0 48 48" fill="none" xmlns="http://www.w3.org/2000/svg">
  <title>Sunscreen Glyph</title>
  <path
    d="M24.5 24.12C24.91 24.12 25.25 23.78 25.25 23.37V22.27C25.25 21.86 24.91 21.52 24.5 21.52C24.09 21.52 23.75 21.86 23.75 22.27V23.37C23.75 23.79 24.09 24.12 24.5 24.12Z"
    fill="currentColor"
  />
  <path
    d="M24.51 24.95C23 24.95 21.77 26.18 21.77 27.69C21.77 29.2 23 30.43 24.51 30.43C26.02 30.43 27.25 29.2 27.25 27.69C27.25 26.17 26.02 24.95 24.51 24.95ZM24.51 28.92C23.83 28.92 23.27 28.37 23.27 27.68C23.27 27 23.83 26.44 24.51 26.44C25.19 26.44 25.75 26.99 25.75 27.68C25.75 28.36 25.19 28.92 24.51 28.92Z"
    fill="currentColor"
  />
  <path
    d="M24.5 31.24C24.09 31.24 23.75 31.58 23.75 31.99V33.09C23.75 33.5 24.09 33.84 24.5 33.84C24.91 33.84 25.25 33.5 25.25 33.09V31.99C25.25 31.58 24.91 31.24 24.5 31.24Z"
    fill="currentColor"
  />
  <path
    d="M20.8 25.04C20.95 25.19 21.14 25.26 21.33 25.26C21.52 25.26 21.71 25.19 21.86 25.04C22.15 24.75 22.15 24.27 21.86 23.98L21.34 23.46C21.05 23.17 20.57 23.17 20.28 23.46C19.99 23.75 19.99 24.23 20.28 24.52L20.8 25.04Z"
    fill="currentColor"
  />
  <path
    d="M28.23 30.34C27.94 30.05 27.46 30.05 27.17 30.34C26.88 30.63 26.88 31.11 27.17 31.4L27.67 31.9C27.82 32.05 28.01 32.12 28.2 32.12C28.39 32.12 28.58 32.05 28.73 31.9C29.02 31.61 29.02 31.13 28.73 30.84L28.23 30.34Z"
    fill="currentColor"
  />
  <path
    d="M27.72 25.21C27.91 25.21 28.1 25.14 28.25 24.99L28.72 24.52C29.01 24.23 29.01 23.75 28.72 23.46C28.43 23.17 27.95 23.17 27.66 23.46L27.19 23.93C26.9 24.22 26.9 24.7 27.19 24.99C27.34 25.14 27.53 25.21 27.72 25.21Z"
    fill="currentColor"
  />
  <path
    d="M20.82 30.3L20.28 30.84C19.99 31.13 19.99 31.61 20.28 31.9C20.43 32.05 20.62 32.12 20.81 32.12C21 32.12 21.19 32.05 21.34 31.9L21.88 31.36C22.17 31.07 22.17 30.59 21.88 30.3C21.59 30.01 21.11 30.01 20.82 30.3Z"
    fill="currentColor"
  />
  <path
    d="M20.96 27.68C20.96 27.27 20.62 26.93 20.21 26.93H19.09C18.68 26.93 18.34 27.27 18.34 27.68C18.34 28.09 18.68 28.43 19.09 28.43H20.22C20.63 28.43 20.96 28.1 20.96 27.68Z"
    fill="currentColor"
  />
  <path
    d="M29.91 26.93H28.83C28.42 26.93 28.08 27.27 28.08 27.68C28.08 28.09 28.42 28.43 28.83 28.43H29.91C30.32 28.43 30.66 28.09 30.66 27.68C30.66 27.27 30.33 26.93 29.91 26.93Z"
    fill="currentColor"
  />
  <path
    d="M32.36 15.37H16.65C15.19 15.37 14 16.55 14 18.01V37.35C14 38.81 15.19 40 16.65 40H32.36C33.82 40 35 38.81 35 37.36V18.01C35 16.55 33.81 15.37 32.36 15.37ZM33.5 37.35C33.5 37.98 32.99 38.49 32.36 38.49H16.65C16.02 38.49 15.5 37.98 15.5 37.35V18.01C15.5 17.38 16.01 16.86 16.65 16.86H32.36C32.99 16.86 33.5 17.37 33.5 18.01V37.35Z"
    fill="currentColor"
  />
  <path
    d="M20.98 13.69C21.39 13.69 21.73 13.35 21.73 12.94V9.5H27.26V12.94C27.26 13.35 27.6 13.69 28.01 13.69C28.42 13.69 28.76 13.35 28.76 12.94V8.75C28.76 8.34 28.42 8 28.01 8H20.98C20.57 8 20.23 8.34 20.23 8.75V12.94C20.23 13.35 20.57 13.69 20.98 13.69Z"
    fill="currentColor"
  />
</svg>
