<svg viewBox="0 0 48 48" fill="none" xmlns="http://www.w3.org/2000/svg">
  <title>Superbottle Glyph</title>
  <path d="M29.2 11.9C29 10.6 26.6 10 24.1 10C21.6 10 19.2 10.6 19 11.9C19 11.9 19 12 19 12.1V35.1C19 36.5 21.6 37.2 24.1 37.2C26.6 37.2 29.2 36.6 29.2 35.1V12.1C29.3 12 29.3 11.9 29.2 11.9ZM20.6 11.9C21.1 11.6 22.3 11.3 24.2 11.3C26.1 11.3 27.3 11.6 27.8 11.9C27.8 11.9 27.9 12 28 12.1C27.7 12.3 26.4 12.9 24.1 12.9C21.8 12.9 20.5 12.3 20.3 12.1C20.3 12 20.4 11.9 20.6 11.9ZM20.2 13.5C21.2 13.9 22.6 14.1 24.1 14.1C25.6 14.1 27 13.9 28 13.5V20.8C27.9 21.1 26.6 21.7 24.1 21.7C21.6 21.7 20.3 21.1 20.2 20.9V13.5ZM24.1 35.9C21.7 35.9 20.4 35.3 20.2 35.1V22.2C21.2 22.6 22.6 22.8 24.1 22.8C25.5 22.8 27 22.6 28 22.2V35C27.9 35.3 26.6 35.9 24.1 35.9Z" fill="currentColor"/>
</svg>
