<svg width="48" height="48" viewBox="0 0 48 48" fill="none" xmlns="http://www.w3.org/2000/svg">
  <title>Superbottle Glyph</title>
  <path
    d="M15.37 9.5C15.78 9.5 16.12 9.16 16.12 8.75C16.12 8.34 15.78 8 15.37 8H8.75C8.34 8 8 8.34 8 8.75V21.99C8 22.4 8.34 22.74 8.75 22.74C9.16 22.74 9.5 22.4 9.5 21.99V16.12H15.37C15.78 16.12 16.12 15.78 16.12 15.37C16.12 14.96 15.78 14.62 15.37 14.62H9.5V9.5H15.37Z"
    fill="currentColor"
  />
  <path
    d="M15.37 26.76C15.78 26.76 16.12 26.42 16.12 26.01C16.12 25.6 15.78 25.26 15.37 25.26H8.75C8.34 25.26 8 25.6 8 26.01V39.24C8 39.66 8.34 40 8.75 40C9.16 40 9.5 39.66 9.5 39.25V33.38H15.37C15.78 33.38 16.12 33.04 16.12 32.63C16.12 32.22 15.78 31.88 15.37 31.88H9.5V26.76H15.37Z"
    fill="currentColor"
  />
  <path
    d="M38.3 8H26.96C26.02 8 25.26 8.76 25.26 9.7V38.3C25.26 38.5 25.34 38.69 25.48 38.83L26.43 39.78C26.57 39.92 26.76 40 26.96 40H38.3C38.5 40 38.69 39.92 38.83 39.78L39.78 38.83C39.92 38.69 40 38.5 40 38.3V9.7C40 8.76 39.24 8 38.3 8ZM26.96 9.5H38.3C38.41 9.5 38.5 9.59 38.5 9.7V23.25H26.76V9.7C26.76 9.59 26.85 9.5 26.96 9.5ZM37.99 38.5H27.27L26.76 37.99V24.75H38.5V37.99L37.99 38.5Z"
    fill="currentColor"
  />
</svg>
