<svg width="48" height="48" viewBox="0 0 48 48" fill="none" xmlns="http://www.w3.org/2000/svg">
  <title>Support Center Glyph</title>
  <path fill-rule="evenodd" clip-rule="evenodd" d="M8.01925 32.3325L8 13.426C8 12.781 8.25029 12.1745 8.70274 11.7125C9.15519 11.26 9.76165 11.0001 10.4066 11.0001H29.3035C30.6319 11.0001 31.7197 12.0783 31.7197 13.4164V20.9828H30.5164V13.4164C30.5164 12.7522 29.9773 12.2034 29.3035 12.2034H10.4163C10.089 12.2034 9.79054 12.3286 9.5595 12.5596C9.32846 12.7907 9.20332 13.0891 9.20332 13.4164L9.21294 30.3302L14.9022 27.3267H23.7971V28.53H15.2006L8.01925 32.3325ZM39.4402 33.7571L35.7725 30.0894C36.8122 28.116 36.6004 25.6323 35.0409 23.8514C33.9435 22.5999 32.4033 21.955 30.863 21.955C29.5634 21.955 28.2542 22.4074 27.2049 23.3316C24.8946 25.3531 24.6635 28.8572 26.6851 31.1676C27.7825 32.419 29.3228 33.064 30.863 33.064C31.6524 33.064 32.4418 32.8715 33.1734 32.5345L36.9085 36.2696C37.2935 36.6451 37.7845 36.8376 38.2658 36.8376C38.7183 36.8376 39.1611 36.6739 39.498 36.337C39.8446 35.9905 40.0178 35.5284 39.9986 35.0278C39.9889 34.5658 39.7868 34.1037 39.4402 33.7571ZM27.5996 30.3782C26.8295 29.5022 26.4541 28.3855 26.5311 27.2303C26.6081 26.0751 27.1279 25.0066 28.0039 24.2461C28.7933 23.553 29.8137 23.1679 30.8726 23.1679C32.1241 23.1679 33.3178 23.707 34.1456 24.6504C35.7244 26.4506 35.5415 29.2038 33.7413 30.7921C32.952 31.4852 31.9316 31.8703 30.8726 31.8703C29.6116 31.8607 28.4179 31.3216 27.5996 30.3782ZM38.6605 35.4995C38.4391 35.7209 38.0348 35.692 37.7749 35.4225L34.2419 31.8896L34.2719 31.8689C34.2939 31.8539 34.3159 31.8392 34.3379 31.8245L34.3381 31.8244L34.3382 31.8243C34.4024 31.7815 34.4665 31.7387 34.5307 31.6874C34.7329 31.5045 34.9061 31.3023 35.0794 31.1002L38.5931 34.6138C38.7279 34.7486 38.8049 34.9219 38.8145 35.0952C38.8145 35.2492 38.7568 35.3936 38.6605 35.4995ZM15.8167 20.0876C15.8167 20.582 15.4159 20.9828 14.9215 20.9828C14.427 20.9828 14.0262 20.582 14.0262 20.0876C14.0262 19.5931 14.427 19.1923 14.9215 19.1923C15.4159 19.1923 15.8167 19.5931 15.8167 20.0876ZM19.8118 20.9828C20.3062 20.9828 20.707 20.582 20.707 20.0876C20.707 19.5931 20.3062 19.1923 19.8118 19.1923C19.3173 19.1923 18.9165 19.5931 18.9165 20.0876C18.9165 20.582 19.3173 20.9828 19.8118 20.9828ZM25.5973 20.0876C25.5973 20.582 25.1964 20.9828 24.702 20.9828C24.2076 20.9828 23.8067 20.582 23.8067 20.0876C23.8067 19.5931 24.2076 19.1923 24.702 19.1923C25.1964 19.1923 25.5973 19.5931 25.5973 20.0876Z" fill="currentColor"/>
</svg>
