<svg viewBox="0 0 48 48" fill="none" xmlns="http://www.w3.org/2000/svg">
  <path d="M22 13.125C17.0931 13.125 13.125 17.0931 13.125 22C13.125 23.6328 13.566 25.1622 14.339 26.4746L13.6876 28.5838C13.4243 29.4364 14.2109 30.2415 15.0694 29.9981L17.1167 29.4175C18.5155 30.3353 20.1976 30.875 22 30.875C26.9069 30.875 30.875 26.9069 30.875 22C30.875 17.0931 26.9069 13.125 22 13.125Z" stroke="currentColor" stroke-width="1.75" stroke-miterlimit="10"/>
  <path d="M19.6 22.8C20.0418 22.8 20.4 22.4418 20.4 22C20.4 21.5581 20.0418 21.2 19.6 21.2C19.1582 21.2 18.8 21.5581 18.8 22C18.8 22.4418 19.1582 22.8 19.6 22.8Z" fill="currentColor"/>
  <path d="M22 22.8C22.4418 22.8 22.8 22.4418 22.8 22C22.8 21.5581 22.4418 21.2 22 21.2C21.5582 21.2 21.2 21.5581 21.2 22C21.2 22.4418 21.5582 22.8 22 22.8Z" fill="currentColor"/>
  <path d="M24.4 22.8C24.8418 22.8 25.2 22.4418 25.2 22C25.2 21.5581 24.8418 21.2 24.4 21.2C23.9581 21.2 23.6 21.5581 23.6 22C23.6 22.4418 23.9581 22.8 24.4 22.8Z" fill="currentColor"/>
  <ellipse cx="28" cy="28.5" rx="5" ry="5.5" fill="white"/>
  <path fill-rule="evenodd" clip-rule="evenodd" d="M28.2222 34.4444C24.7858 34.4444 22 31.6587 22 28.2222C22 24.7858 24.7858 22 28.2222 22C31.6587 22 34.4444 24.7858 34.4444 28.2222C34.4444 29.6601 33.9567 30.9841 33.1377 32.0377L35.7722 34.6722C36.0759 34.976 36.0759 35.4684 35.7722 35.7722C35.4684 36.0759 34.976 36.0759 34.6722 35.7722L32.0377 33.1377C30.9841 33.9567 29.6601 34.4444 28.2222 34.4444ZM28.2222 32.8889C30.7995 32.8889 32.8889 30.7995 32.8889 28.2222C32.8889 25.6449 30.7995 23.5555 28.2222 23.5555C25.6449 23.5555 23.5555 25.6449 23.5555 28.2222C23.5555 30.7995 25.6449 32.8889 28.2222 32.8889Z" fill="currentColor"/>
</svg>
