<svg viewBox="0 0 48 48" fill="none" xmlns="http://www.w3.org/2000/svg">
  <title>Support Center Glyph</title>
  <path
    d="M37.8157 10.35C37.2257 9.69999 36.2957 8.81999 35.2057 8.33999C33.8457 7.74999 32.5957 7.91999 31.5757 8.83999C30.3557 9.93999 28.0957 12.34 26.8257 13.8C26.1157 14.62 25.8857 15.62 26.1557 16.7C26.7157 18.9 29.2657 20.92 30.8957 21.52C31.2857 21.66 31.7157 21.47 31.8657 21.08C32.0157 20.69 31.8157 20.26 31.4257 20.12C30.1157 19.63 28.0257 17.95 27.6157 16.33C27.4657 15.73 27.5757 15.22 27.9657 14.78C29.3457 13.2 31.5457 10.89 32.5857 9.93999C33.1557 9.41999 33.7957 9.33999 34.6057 9.69999C35.2657 9.98999 36.0057 10.57 36.7057 11.34C38.3857 13.19 38.8757 15.32 38.2157 17.85C37.2157 21.69 35.6157 25.92 30.7657 30.88C27.0257 34.71 23.9657 36.6 19.0957 38.11C15.3157 39.27 12.6657 37.6 10.3657 35.61C9.8457 35.16 9.5357 34.61 9.4957 34.05C9.4657 33.61 9.6057 33.21 9.9057 32.87C10.2557 32.48 11.2957 31.51 12.3057 30.58C13.1657 29.78 14.0657 28.95 14.5557 28.45C14.8657 28.14 15.3657 27.78 15.9857 27.89C16.7757 28.02 17.5757 28.84 18.1757 30.12C18.5457 30.92 19.0957 31.4 19.7957 31.54C21.3957 31.86 23.3857 30.36 26.9957 27.08C29.2557 25.02 30.2557 23.6 30.2957 23.54C30.5257 23.2 30.4457 22.73 30.1057 22.5C29.7657 22.27 29.2957 22.35 29.0657 22.69C29.0557 22.7 28.1157 24.05 25.9957 25.97C24.2157 27.59 21.2257 30.3 20.1057 30.07C20.0257 30.05 19.7957 30.01 19.5557 29.49C18.7357 27.73 17.5557 26.64 16.2557 26.41C15.2657 26.24 14.2857 26.59 13.4957 27.4C13.0357 27.87 12.1557 28.69 11.2957 29.48C10.2157 30.49 9.1857 31.44 8.7957 31.88C8.2357 32.51 7.9557 33.32 8.0057 34.16C8.0657 35.12 8.5657 36.04 9.3857 36.76C11.3157 38.43 13.6457 40.01 16.6657 40.01C17.5557 40.01 18.5157 39.87 19.5357 39.56C24.6157 37.99 27.9457 35.93 31.8357 31.95C36.9257 26.74 38.6057 22.29 39.6557 18.25C40.4557 15.24 39.8357 12.58 37.8157 10.35Z"
    fill="currentColor"
  />
</svg>
