<svg viewBox="0 0 48 48" fill="none" xmlns="http://www.w3.org/2000/svg">
  <title>Support Center Glyph</title>
  <mask id="mask0" mask-type="alpha" maskUnits="userSpaceOnUse" x="8" y="11" width="32" height="26">
    <path fill-rule="evenodd" clip-rule="evenodd" d="M8.01925 32.3323L8 13.4259C8 12.7809 8.25029 12.1744 8.70274 11.7124C9.15519 11.2599 9.76165 11 10.4066 11H29.3035C30.6319 11 31.7197 12.0782 31.7197 13.4163V20.9827H30.5164V13.4163C30.5164 12.752 29.9773 12.2033 29.3035 12.2033H10.4163C10.089 12.2033 9.79054 12.3285 9.5595 12.5595C9.32846 12.7905 9.20332 13.089 9.20332 13.4163L9.21294 30.3301L14.9022 27.3266H23.7971V28.5299H15.2006L8.01925 32.3323ZM39.4402 33.757L35.7725 30.0893C36.8122 28.1159 36.6004 25.6322 35.0409 23.8513C33.9435 22.5998 32.4033 21.9549 30.863 21.9549C29.5634 21.9549 28.2542 22.4073 27.2049 23.3315C24.8946 25.353 24.6635 28.8571 26.6851 31.1675C27.7825 32.4189 29.3228 33.0639 30.863 33.0639C31.6524 33.0639 32.4418 32.8713 33.1734 32.5344L36.9085 36.2695C37.2935 36.6449 37.7845 36.8374 38.2658 36.8374C38.7183 36.8374 39.1611 36.6738 39.498 36.3369C39.8446 35.9903 40.0178 35.5283 39.9986 35.0277C39.9889 34.5656 39.7868 34.1035 39.4402 33.757ZM27.5996 30.3781C26.8295 29.5021 26.4541 28.3854 26.5311 27.2302C26.6081 26.075 27.1279 25.0065 28.0039 24.246C28.7933 23.5529 29.8137 23.1678 30.8726 23.1678C32.1241 23.1678 33.3178 23.7069 34.1456 24.6503C35.7244 26.4504 35.5415 29.2036 33.7413 30.792C32.952 31.4851 31.9316 31.8702 30.8726 31.8702C29.6116 31.8605 28.4179 31.3215 27.5996 30.3781ZM38.6605 35.4994C38.4391 35.7208 38.0348 35.6919 37.7749 35.4224L34.2419 31.8894L34.2719 31.8687C34.2939 31.8537 34.3159 31.8391 34.3379 31.8244L34.3381 31.8243L34.3382 31.8242C34.4024 31.7814 34.4665 31.7386 34.5307 31.6873C34.7329 31.5044 34.9061 31.3022 35.0794 31.1001L38.5931 34.6137C38.7279 34.7485 38.8049 34.9218 38.8145 35.095C38.8145 35.2491 38.7568 35.3935 38.6605 35.4994ZM15.8167 20.0874C15.8167 20.5819 15.4159 20.9827 14.9215 20.9827C14.427 20.9827 14.0262 20.5819 14.0262 20.0874C14.0262 19.593 14.427 19.1922 14.9215 19.1922C15.4159 19.1922 15.8167 19.593 15.8167 20.0874ZM19.8118 20.9827C20.3062 20.9827 20.707 20.5819 20.707 20.0874C20.707 19.593 20.3062 19.1922 19.8118 19.1922C19.3173 19.1922 18.9165 19.593 18.9165 20.0874C18.9165 20.5819 19.3173 20.9827 19.8118 20.9827ZM25.5973 20.0874C25.5973 20.5819 25.1964 20.9827 24.702 20.9827C24.2076 20.9827 23.8067 20.5819 23.8067 20.0874C23.8067 19.593 24.2076 19.1922 24.702 19.1922C25.1964 19.1922 25.5973 19.593 25.5973 20.0874Z" fill="white"/>
  </mask>
  <g mask="url(#mask0)">
    <rect x="2.12524" y="0.610352" width="44.4836" height="44.4836" fill="currentColor"/>
  </g>
</svg>
