<svg viewBox="0 0 48 48" fill="none" xmlns="http://www.w3.org/2000/svg">
  <title>Texture Glyph</title>
  <mask id="mask0" mask-type="alpha" maskUnits="userSpaceOnUse" x="8" y="10" width="33" height="29">
    <path fill-rule="evenodd" clip-rule="evenodd" d="M24.35 19.62L16.48 11.77L8.89999 19.53L8 18.65L16.47 10L24.33 17.84L31.88 10.02L40.87 18.23L40.03 19.16L31.94 11.76L24.35 19.62ZM24.35 29.02L16.48 21.18L8.89999 28.93L8 28.06L16.47 19.4L24.33 27.24L31.88 19.42L40.87 27.64L40.03 28.56L31.94 21.16L24.35 29.02ZM16.48 30.58L24.35 38.42L31.94 30.56L40.03 37.96L40.87 37.04L31.88 28.82L24.33 36.64L16.47 28.81L8 37.46L8.89999 38.33L16.48 30.58Z" fill="white"/>
  </mask>
  <g mask="url(#mask0)">
    <rect x="1" y="1" width="48" height="48" fill="#332E54"/>
  </g>
</svg>
