<svg viewBox="0 0 48 48" fill="none" xmlns="http://www.w3.org/2000/svg">
  <title>Texture Glyph</title>
  <path
    d="M39.92 12.64C39.92 9.78 38.74 8 36.83 8C34.9 8 33.92 9.56 33.92 12.63C33.92 15.75 33.02 15.75 32.73 15.75C31.79 15.75 31.24 15.24 31.24 12.63C31.24 8.59 29.44 7.99 28.37 7.99C26.91 7.99 25.16 8.8 25.16 12.63C25.16 15.3 24.73 15.75 23.78 15.75C23.36 15.75 22.24 15.75 22.24 12.63C22.26 8.45 20.2 8 19.31 8C17.29 8 16.26 9.56 16.26 12.64C16.26 15.55 15.76 15.78 15.15 15.78C14.73 15.78 13.86 15.78 13.86 12.64C13.86 11.37 13.86 8 10.98 8C9.87 8 8 8.6 8 12.64V16.51C8 16.92 8.34 17.26 8.75 17.26C9.16 17.26 9.5 16.92 9.5 16.51V12.64C9.5 10.56 10 9.5 10.98 9.5C11.68 9.5 12.36 9.74 12.36 12.64C12.36 13.79 12.36 17.28 15.15 17.28C17.76 17.28 17.76 14.26 17.76 12.64C17.76 9.5 18.81 9.5 19.31 9.5C20.61 9.5 20.75 11.7 20.75 12.64C20.75 16.46 22.4 17.26 23.79 17.26C26.67 17.26 26.67 14.26 26.67 12.64C26.67 9.5 27.91 9.5 28.38 9.5C29.57 9.5 29.75 11.47 29.75 12.64C29.75 14.02 29.75 17.26 32.74 17.26C35.43 17.26 35.43 13.78 35.43 12.64C35.43 9.51 36.42 9.51 36.84 9.51C38.31 9.51 38.43 11.92 38.43 12.65C38.43 14.47 38.51 16.52 38.51 16.54C38.53 16.95 38.88 17.3 39.29 17.26C39.7 17.24 40.03 16.9 40.01 16.48C40 16.46 39.92 14.44 39.92 12.64Z"
    fill="currentColor"
  />
  <path
    d="M24 36.14C25.51 36.14 28.64 36.14 28.64 33.59C28.64 31.19 26.07 31.19 24 31.19C21.1 31.19 20.86 30.58 20.86 29.9C20.86 29.51 20.86 28.71 24 28.71C27.06 28.71 28.62 27.78 28.62 25.94C28.62 23.3 25.62 23.3 24 23.3C20.86 23.3 20.86 22.51 20.86 22.09C20.86 21.2 21.92 20.76 24 20.76H27.87C28.28 20.76 28.62 20.42 28.62 20.01C28.62 19.6 28.28 19.26 27.87 19.26H24C20.16 19.26 19.36 20.8 19.36 22.09C19.36 24.8 22.61 24.8 24 24.8C26.63 24.8 27.12 25.18 27.12 25.94C27.12 26.26 27.12 27.21 24 27.21C22.73 27.21 19.36 27.21 19.36 29.9C19.36 32.69 22.61 32.69 24 32.69C26.53 32.69 27.14 32.87 27.14 33.59C27.14 34.1 26.9 34.64 24 34.64C20.92 34.64 19.36 35.53 19.36 37.27C19.36 38.51 20.17 40 24 40H27.87C28.28 40 28.62 39.66 28.62 39.25C28.62 38.84 28.28 38.5 27.87 38.5H24C22.83 38.5 20.86 38.34 20.86 37.27C20.86 36.52 21.91 36.14 24 36.14Z"
    fill="currentColor"
  />
</svg>
