<svg width="48" height="48" viewBox="0 0 48 48" fill="none" xmlns="http://www.w3.org/2000/svg">
  <title>Time - Sometimes Glyph</title>
  <path fill-rule="evenodd" clip-rule="evenodd" d="M31.1106 8.00012C33.5258 8.00012 35.4901 10.0763 35.4901 12.6291H40V18.7515V20.0438V40.0001H8V20.0438V18.7515V12.6291H10.9966C10.9966 10.0763 12.9609 8.00012 15.3761 8.00012C17.7914 8.00012 19.7557 10.0763 19.7557 12.6291H26.731C26.731 10.0763 28.6953 8.00012 31.1106 8.00012ZM31.1106 9.32419C29.3868 9.32419 27.9837 10.8071 27.9837 12.6291H34.2374C34.2374 10.8071 32.8343 9.32419 31.1106 9.32419ZM15.3761 9.32419C13.6524 9.32419 12.2493 10.8071 12.2493 12.6291H18.503C18.503 10.8071 17.0999 9.32419 15.3761 9.32419ZM9.25274 38.6867H38.7473V20.0756H9.25274V38.6867ZM9.25274 18.7198H38.7272V13.9531H35.2897C34.8888 15.3937 33.8465 16.5589 32.4435 17.0355L32.0626 15.775C32.9446 15.4784 33.616 14.8005 33.9668 13.9531H19.5653C19.1644 15.3937 18.1221 16.5589 16.7191 17.0355L16.3382 15.775C17.2202 15.4784 17.8916 14.8005 18.2424 13.9531H9.25274V18.7198ZM18.6934 26.8019L19.5753 27.734L15.1356 32.4265L13.051 30.2339L13.933 29.2911L15.1356 30.5622L18.6934 26.8019Z" fill="currentColor"/>
</svg>

