<svg viewBox="0 0 48 48" fill="none" xmlns="http://www.w3.org/2000/svg">
  <title>Time - Never Glyph</title>
  <path d="M29.0636 12.2001V8H19.349V12.2792C13.9036 14.3051 10 19.5429 10 25.6899C10 33.5862 16.4237 40 24.31 40C32.1964 40 38.6201 33.5763 38.6201 25.6899C38.63 19.454 34.6276 14.1569 29.0636 12.2001ZM20.5843 9.23533H27.8283V11.8246C26.7017 11.538 25.5256 11.37 24.3199 11.37C23.0253 11.37 21.7801 11.5578 20.5843 11.8839V9.23533ZM24.3199 38.7647C17.1056 38.7647 11.2452 32.8944 11.2452 25.6899C11.2452 22.5473 12.3619 19.6615 14.21 17.3984L32.9277 35.5034C30.6251 37.5293 27.6207 38.7647 24.3199 38.7647ZM33.8172 34.6436L15.0402 16.4793C17.412 14.0877 20.693 12.6053 24.3199 12.6053C31.5343 12.6053 37.3947 18.4756 37.3947 25.68C37.3947 29.1489 36.0309 32.3014 33.8172 34.6436Z" fill="currentColor"/>
</svg>
