<svg viewBox="0 0 48 48" fill="none" xmlns="http://www.w3.org/2000/svg">
  <title>Time - Most of the Time Glyph</title>
  <path
    d="M27.02 24.68C26.4 24.68 26.37 24.13 26.37 24.02C26.37 23.87 26.41 23.39 26.98 23.39C30.08 23.39 33.69 21.21 33.69 15.05V8.75C33.7 8.34 33.36 8 32.95 8H15.75C15.34 8 15 8.34 15 8.75V15.06C15 20.81 18.89 23.4 21.65 23.4C21.9 23.4 22.08 23.46 22.2 23.59C22.3 23.69 22.35 23.84 22.35 24C22.35 24.32 22.14 24.7 21.57 24.7C18.39 24.7 15.02 27.52 15.02 32.74V39.26C15.02 39.67 15.36 40.01 15.77 40.01H32.97C33.38 40.01 33.72 39.67 33.72 39.26V32.74C33.71 28.22 30.77 24.68 27.02 24.68ZM16.51 38.5V32.73C16.51 28.48 19.11 26.19 21.56 26.19C23.04 26.19 23.84 25.06 23.84 23.99C23.84 23.44 23.64 22.93 23.27 22.54C23 22.25 22.49 21.9 21.65 21.9C19.51 21.9 16.5 19.78 16.5 15.06V9.5H32.2V15.06C32.2 19.34 30.25 21.9 26.99 21.9C25.6 21.9 24.88 22.97 24.88 24.03C24.88 24.58 25.07 25.1 25.42 25.5C25.82 25.95 26.39 26.2 27.03 26.2C29.94 26.2 32.22 29.07 32.22 32.74V38.5H16.51Z"
    fill="currentColor"
  />
  <path
    d="M25.75 27.08H22.85C19.98 27.08 17.65 29.41 17.65 32.28V36.53C17.65 37.05 18.07 37.48 18.6 37.48H30C30.52 37.48 30.95 37.06 30.95 36.53V32.28C30.95 29.41 28.62 27.08 25.75 27.08Z"
    fill="currentColor"
  />
  <path
    d="M30.95 15.94V15.09C30.95 14.57 30.53 14.14 30 14.14H18.6C18.08 14.14 17.65 14.56 17.65 15.09V15.94C17.65 18.81 19.98 21.14 22.85 21.14H25.75C28.62 21.15 30.95 18.82 30.95 15.94Z"
    fill="currentColor"
  />
</svg>
