<svg viewBox="0 0 48 48" fill="none" xmlns="http://www.w3.org/2000/svg">
  <title>Time - Never Glyph</title>
  <path d="M29.29 12.25V8H19.46V12.33C13.95 14.38 10 19.68 10 25.9C10 33.89 16.5 40.38 24.48 40.38C32.46 40.38 38.96 33.88 38.96 25.9C38.97 19.59 34.92 14.23 29.29 12.25ZM20.71 9.25H28.04V11.87C26.9 11.58 25.71 11.41 24.49 11.41C23.18 11.41 21.92 11.6 20.71 11.93V9.25ZM24.49 39.13C17.19 39.13 11.26 33.19 11.26 25.9C11.26 22.72 12.39 19.8 14.26 17.51L33.2 35.83C30.87 37.88 27.83 39.13 24.49 39.13ZM34.1 34.96L15.1 16.58C17.5 14.16 20.82 12.66 24.49 12.66C31.79 12.66 37.72 18.6 37.72 25.89C37.72 29.4 36.34 32.59 34.1 34.96Z" fill="currentColor"/>
</svg>
