<svg width="48" height="48" viewBox="0 0 48 48" fill="none" xmlns="http://www.w3.org/2000/svg">
  <title>Time - Sometimes Glyph</title>
  <path
    d="M26.02 23.68C25.4 23.68 25.37 23.13 25.37 23.02C25.37 22.87 25.41 22.39 25.98 22.39C29.08 22.39 32.69 20.21 32.69 14.05V7.74998C32.7 7.33998 32.36 6.99998 31.95 6.99998H14.75C14.34 6.99998 14 7.33998 14 7.74998V14.06C14 19.81 17.89 22.4 20.65 22.4C20.9 22.4 21.08 22.46 21.2 22.59C21.3 22.69 21.35 22.84 21.35 23C21.35 23.32 21.14 23.7 20.57 23.7C17.39 23.7 14.02 26.52 14.02 31.74V38.26C14.02 38.67 14.36 39.01 14.77 39.01H31.97C32.38 39.01 32.72 38.67 32.72 38.26V31.74C32.71 27.22 29.77 23.68 26.02 23.68ZM15.51 37.5V31.73C15.51 27.48 18.11 25.19 20.56 25.19C22.04 25.19 22.84 24.06 22.84 22.99C22.84 22.44 22.64 21.93 22.27 21.54C22 21.25 21.49 20.9 20.65 20.9C18.51 20.9 15.5 18.78 15.5 14.06V8.49998H31.2V14.06C31.2 18.34 29.25 20.9 25.99 20.9C24.6 20.9 23.88 21.97 23.88 23.03C23.88 23.58 24.07 24.1 24.42 24.5C24.82 24.95 25.39 25.2 26.03 25.2C28.94 25.2 31.22 28.07 31.22 31.74V37.5H15.51Z"
    fill="currentColor"
  />
  <path
    d="M17.62 30.8C17.1 30.8 16.67 31.22 16.67 31.75V35.54C16.67 36.06 17.09 36.49 17.62 36.49H29.02C29.54 36.49 29.97 36.07 29.97 35.54V31.75C29.97 31.23 29.55 30.8 29.02 30.8H17.62Z"
    fill="currentColor"
  />
</svg>
