<svg width="48" height="48" viewBox="0 0 48 48" fill="none" xmlns="http://www.w3.org/2000/svg">
  <title>Time - Never Glyph</title>
  <path
    d="M32.96 39H15.76C15.35 39 15.01 38.66 15.01 38.25V31.73C15.01 26.51 18.39 23.69 21.56 23.69C22.14 23.69 22.34 23.32 22.34 22.99C22.34 22.83 22.29 22.68 22.19 22.58C22.08 22.46 21.9 22.4 21.65 22.4C18.89 22.4 15 19.81 15 14.06V7.75C15 7.34 15.34 7 15.75 7H32.95C33.36 7 33.7 7.34 33.7 7.75V14.06C33.7 20.22 30.08 22.4 26.99 22.4C26.42 22.4 26.38 22.88 26.38 23.03C26.38 23.14 26.41 23.69 27.03 23.69C30.78 23.69 33.72 27.22 33.72 31.73V38.25C33.71 38.66 33.38 39 32.96 39ZM16.51 37.5H32.21V31.73C32.21 28.06 29.93 25.19 27.02 25.19C26.38 25.19 25.8 24.94 25.41 24.49C25.06 24.1 24.87 23.57 24.87 23.02C24.87 21.96 25.6 20.89 26.98 20.89C30.24 20.89 32.19 18.33 32.19 14.05V8.5H16.5V14.06C16.5 18.78 19.51 20.9 21.65 20.9C22.49 20.9 23 21.25 23.29 21.55C23.66 21.93 23.86 22.44 23.86 23C23.86 24.06 23.06 25.2 21.58 25.2C19.13 25.2 16.53 27.49 16.53 31.74V37.5H16.51Z"
    fill="currentColor"
  />
</svg>
