<svg viewBox="0 0 48 48" fill="none" xmlns="http://www.w3.org/2000/svg">
  <title>Time - Most of the Time Glyph</title>
  <path fill-rule="evenodd" clip-rule="evenodd" d="M16.7291 17.0356L16.3483 15.7751C17.2216 15.4746 17.9028 14.8019 18.2529 13.953H9.25273V18.7197H38.7473V13.953H35.3185C34.9145 15.3897 33.8656 16.5607 32.4635 17.0356L32.0827 15.7751C32.9559 15.4746 33.6372 14.8019 33.9873 13.953H19.5841C19.1801 15.3897 18.1312 16.5607 16.7291 17.0356ZM35.5002 12.6289H40V18.7514V20.0437V40.0001H8V20.0437V18.7514V12.6289H11.0066C11.0067 10.0762 12.971 8.00012 15.3862 8.00012C17.8014 8.00012 19.7657 10.0762 19.7658 12.6289H26.741C26.7411 10.0762 28.7053 8.00012 31.1206 8.00012C33.5358 8.00012 35.5001 10.0762 35.5002 12.6289ZM27.9937 12.6289C27.9938 10.8071 29.3969 9.32419 31.1206 9.32419C32.8443 9.32419 34.2473 10.8071 34.2474 12.6289H27.9937ZM15.3862 9.32419C13.6625 9.32419 12.2594 10.8071 12.2593 12.6289H18.513C18.513 10.8071 17.1099 9.32419 15.3862 9.32419ZM9.25273 38.6866H38.7473V20.0755H9.25273V38.6866ZM17.0197 32.4265L14.9351 30.2339L15.8271 29.2911L17.0197 30.5622L20.5775 26.8019L21.4694 27.734L17.0197 32.4265ZM26.1798 32.4265L24.0952 30.2339L24.9872 29.2911L26.1798 30.5622L29.7375 26.8019L30.6195 27.734L26.1798 32.4265Z" fill="currentColor"/>
</svg>
