<svg viewBox="0 0 48 48" fill="none" xmlns="http://www.w3.org/2000/svg">
  <title>Time - Sometimes Glyph</title>
  <path fill-rule="evenodd" clip-rule="evenodd" d="M29.29 8V12.25C34.92 14.23 38.97 19.59 38.96 25.9C38.96 33.88 32.47 40.38 24.48 40.38C16.5 40.38 10 33.89 10 25.9C10 19.68 13.95 14.38 19.46 12.33V8H29.29ZM28.04 9.25H20.71V11.93C21.92 11.6 23.18 11.41 24.49 11.41C25.71 11.41 26.9 11.58 28.04 11.87V9.25ZM11.25 25.9C11.25 33.19 17.18 39.13 24.48 39.13C31.78 39.13 37.71 33.19 37.71 25.9C37.71 18.61 31.77 12.67 24.48 12.67C17.19 12.67 11.25 18.61 11.25 25.9ZM19.2202 22.3257L20.0893 21.4273L30.0649 31.0781L29.1958 31.9764L19.2202 22.3257Z" fill="currentColor"/>
</svg>
