<svg viewBox="0 0 48 48" fill="none" xmlns="http://www.w3.org/2000/svg">
  <title>Time - Most of the Time Glyph</title>
  <mask id="mask0" mask-type="alpha" maskUnits="userSpaceOnUse" x="10" y="8" width="29" height="33">
    <path d="M29.29 12.25V8H20.52H19.46V8.71V12.33C18.63 12.64 17.84 13.03 17.09 13.48C16.72 13.7 16.37 13.93 16.02 14.18C14.65 15.17 13.45 16.4 12.5 17.8C12.26 18.15 12.04 18.52 11.83 18.9C10.92 20.54 10.32 22.37 10.1 24.31C10.04 24.83 10 25.36 10 25.9C10 25.93 10 25.96 10 25.99C10.05 33.9 16.48 40.33 24.39 40.38C24.42 40.38 24.45 40.38 24.48 40.38C25.02 40.38 25.55 40.35 26.07 40.29C28.02 40.08 29.85 39.47 31.49 38.56C31.87 38.35 32.23 38.13 32.59 37.89C33.99 36.94 35.21 35.74 36.21 34.37C36.46 34.03 36.69 33.67 36.91 33.3C37.86 31.72 38.51 29.94 38.79 28.04C38.87 27.51 38.92 26.97 38.94 26.42C38.95 26.24 38.97 26.07 38.97 25.89C38.97 19.59 34.92 14.23 29.29 12.25ZM20.71 9.25H21.77H28.04V11.87C26.9 11.58 25.71 11.41 24.49 11.41C24.31 11.41 24.13 11.42 23.95 11.43C23.4 11.45 22.87 11.5 22.34 11.59C21.79 11.68 21.24 11.79 20.71 11.93V9.96V9.25ZM11.33 27.31L23.07 39.05C16.9 38.39 11.98 33.48 11.33 27.31ZM24.9 39.11L11.27 25.48C11.33 23.44 11.85 21.52 12.74 19.81L30.56 37.63C28.86 38.52 26.93 39.04 24.9 39.11ZM31.68 36.98L13.39 18.69C14.32 17.27 15.51 16.03 16.9 15.06L35.31 33.47C34.34 34.86 33.11 36.06 31.68 36.98ZM36 32.39L17.98 14.38C19.62 13.45 21.48 12.87 23.46 12.71L37.67 26.92C37.51 28.89 36.93 30.75 36 32.39ZM25.21 12.7C31.92 13.07 37.31 18.45 37.68 25.17L25.21 12.7Z" fill="white"/>
  </mask>
  <g mask="url(#mask0)">
    <rect x="2.6554" y="1.61035" width="44.4836" height="44.4836" fill="currentColor"/>
  </g>
</svg>
