<svg width="48" height="48" viewBox="0 0 48 48" fill="none" xmlns="http://www.w3.org/2000/svg">
  <title>Tranexamic Acid Glyph</title>
  <path
    d="M36.9899 25.5H39.2499C39.6599 25.5 39.9999 25.16 39.9999 24.75C39.9999 24.34 39.6599 24 39.2499 24H36.6699L33.3299 8.6C33.2499 8.25 32.9399 8 32.5899 8C32.2399 8 31.9299 8.25 31.8599 8.59L28.5099 24H21.9599C19.8999 24 17.7499 24.71 16.3699 26.46V9.5H21.9799C22.3899 9.5 22.7299 9.16 22.7299 8.75C22.7299 8.34 22.4099 8 21.9899 8H8.74994C8.33994 8 7.99994 8.34 7.99994 8.75C7.99994 9.16 8.33994 9.5 8.74994 9.5H14.8799V39.25C14.8799 39.66 15.2199 40 15.6299 40C16.0399 40 16.3799 39.66 16.3799 39.25V31.44C16.3799 26.07 20.2899 25.5 21.9699 25.5H28.1899L25.2399 39.09C25.1499 39.5 25.4099 39.89 25.8099 39.98C26.2199 40.06 26.6099 39.81 26.6999 39.41L29.7199 25.5H35.4499L38.4699 39.41C38.5499 39.76 38.8599 40 39.1999 40C39.2499 40 39.3099 39.99 39.3599 39.98C39.7599 39.89 40.0199 39.49 39.9299 39.09L36.9899 25.5ZM30.0499 24L32.5899 12.29L35.1299 24H30.0499Z"
    fill="currentColor"
  />
</svg>
