<svg viewBox="0 0 48 48" fill="none" xmlns="https://www.w3.org/2000/svg">
  <title>Tretinoin Glyph</title>
  <path fill-rule="evenodd" clip-rule="evenodd" d="M17.4536 10.0258L17.0963 10L16.8935 10.2952L8.20419 22.9386L8 23.2358L8.15495 23.5613L14.7468 37.4089L14.902 37.7349L15.262 37.7633L30.5432 38.9674L30.9029 38.9958L31.1073 38.6984L39.7966 26.0549L40.0001 25.7588L39.8466 25.4339L33.2547 11.4859L33.0988 11.1559L32.7347 11.1296L17.4536 10.0258ZM9.43856 23.3495L17.7208 11.2984L32.2806 12.3501L38.5629 25.6431L30.2816 37.693L15.7202 36.5455L9.43856 23.3495ZM28.8405 25.4167L33.2911 28.3627L32.6593 29.3261L30.9481 28.1934L28.1249 32.4986L27.0967 31.8179L29.9199 27.5128L28.2087 26.3801L28.8405 25.4167ZM22.9009 14.7157L23.4424 15.6554L26.7383 21.3751L27.2783 22.3121H26.1968H19.605H18.5235L19.0634 21.3751L22.3594 15.6554L22.9009 14.7157ZM22.9009 17.2193L20.6865 21.0621H25.1153L22.9009 17.2193ZM22.9915 28.5162L23.3555 27.4751L22.2754 27.6977L18.3802 28.5005L17.3178 28.7195L18.04 29.5288L20.6368 32.4388L21.343 33.2301L21.6931 32.229L22.9915 28.5162ZM20.8633 30.8152L19.6949 29.5058L21.4475 29.1446L20.8633 30.8152Z" fill="currentColor"/>
</svg>
