<svg width="48" height="48" viewBox="0 0 48 48" fill="none" xmlns="http://www.w3.org/2000/svg">
  <title>Tretinoin Glyph</title>
  <path
    d="M29.78 20.45C27.83 20.45 25.79 21.29 24.45 23.07V9.5H35.85C36.26 9.5 36.6 9.16 36.6 8.75C36.6 8.34 36.27 8 35.85 8H11.75C11.34 8 11 8.34 11 8.75C11 9.16 11.34 9.5 11.75 9.5H22.95V39.25C22.95 39.66 23.29 40 23.7 40C24.11 40 24.45 39.66 24.45 39.25V28.07C24.45 23.24 27.8 21.95 29.78 21.95C34.85 21.95 35.11 27.63 35.11 28.77C35.11 29.18 35.45 29.52 35.86 29.52C36.27 29.52 36.61 29.18 36.61 28.77C36.6 24.94 34.81 20.45 29.78 20.45Z"
    fill="currentColor"
  />
</svg>
