<svg viewBox="0 0 48 48" fill="none" xmlns="http://www.w3.org/2000/svg">
  <title>Tretinoin Glyph</title>
  <path fill-rule="evenodd" clip-rule="evenodd" d="M17.4649 10.0256L17.1087 10L16.9058 10.2939L8.20579 22.8939L8 23.1919L8.15627 23.5187L14.7563 37.3187L14.9118 37.6439L15.2712 37.6721L30.5712 38.8721L30.93 38.9002L31.1344 38.6041L39.8344 26.0041L40.0395 25.707L39.8847 25.3809L33.2847 11.4809L33.1284 11.1517L32.7649 11.1256L17.4649 10.0256ZM9.4402 23.3061L17.7315 11.298L32.3118 12.3463L38.6007 25.591L30.3102 37.5978L15.7284 36.4541L9.4402 23.3061ZM28.8651 25.3686L33.3221 28.3051L32.6882 29.2671L30.9746 28.1381L28.1422 32.4372L27.1125 31.7588L29.9449 27.4597L28.2313 26.3307L28.8651 25.3686ZM22.9201 14.7016L23.461 15.6359L26.761 21.3359L27.3041 22.274H26.2201H19.6201H18.5361L19.0792 21.3359L22.3792 15.6359L22.9201 14.7016ZM22.9201 17.1964L20.7041 21.024H25.1361L22.9201 17.1964ZM23.0098 28.4562L23.3756 27.415L22.2945 27.6367L18.3945 28.4367L17.3279 28.6555L18.0547 29.4662L20.6547 32.3662L21.3597 33.1525L21.7098 32.1562L23.0098 28.4562ZM20.8805 30.7455L19.7123 29.4425L21.4646 29.083L20.8805 30.7455Z" fill="currentColor"/>
</svg>
