<svg viewBox="0 0 80 80" xmlns="http://www.w3.org/2000/svg" xmlns:xlink="http://www.w3.org/1999/xlink">
  <title>Tretinoin</title>
  <g fill="none" fill-rule="evenodd">
    <circle cx="40" cy="40" r="40" fill="#FEFEFE"/>
    <path stroke="currentColor" stroke-linecap="round" stroke-width="2" d="M56.3804 59.3499L48.4184 25.3209 31.3104 25.3209 23.3484 59.3499C23.0134 60.7819 24.1004 62.1529 25.5714 62.1529L54.1574 62.1529C55.6284 62.1529 56.7154 60.7819 56.3804 59.3499zM46.1577 21.0003L33.5707 21.0003C31.3497 21.0003 30.0437 23.4963 31.3107 25.3203L48.4177 25.3203C49.6847 23.4963 48.3797 21.0003 46.1577 21.0003z"/>
    <path stroke="currentColor" stroke-linecap="round" stroke-width="2" d="M23.6582,58.0237 L56.0702,58.0237 L56.0702,54.2577 C56.0702,50.0477 58.4762,46.2107 62.2642,44.3757 C66.0532,42.5407 68.4592,38.7017 68.4592,34.4927 C68.4592,29.3827 64.3182,25.2427 59.2092,25.2427 C55.1092,25.2427 51.5912,27.7347 50.0882,31.2877"/>
    <polyline stroke="currentColor" stroke-linecap="round" stroke-width="2" points="26.707 41.161 16.901 32.148 13.715 34.757 24.656 53.528"/>
    <path stroke="currentColor" stroke-linecap="round" stroke-width="2" d="M37.4712 44.0774C38.2732 44.8804 38.2732 46.1814 37.4712 46.9824 36.6682 47.7854 35.3672 47.7854 34.5652 46.9824 33.7632 46.1814 33.4222 42.9334 33.4222 42.9334 33.4222 42.9334 36.6682 43.2754 37.4712 44.0774zM45.1636 46.9827C44.3606 47.7857 43.0596 47.7857 42.2576 46.9827 41.4556 46.1807 41.4556 44.8797 42.2576 44.0777 43.0596 43.2757 46.3076 42.9337 46.3076 42.9337 46.3076 42.9337 45.9656 46.1807 45.1636 46.9827zM39.8359 51.0774L39.8359 40.3964M43.6694 36.1184C43.6694 38.2164 41.9694 39.9164 39.8714 39.9164 37.7734 39.9164 36.0734 38.2164 36.0734 36.1184L43.6694 36.1184z"/>
    <polyline stroke="currentColor" stroke-linecap="round" stroke-linejoin="round" stroke-width="2" points="16.9 32.147 16.026 27.947 9.608 33.555 13.715 34.757"/>
  </g>
</svg>
