<svg width="48" height="48" viewBox="0 0 48 48" fill="none" xmlns="http://www.w3.org/2000/svg">
  <title>Very Dry Glyph</title>
  <path d="M27.1255 26.3325L25.9785 27.0643L27.893 30.0647L29.0399 29.3329L27.1255 26.3325Z" fill="currentColor"/>
  <path d="M36.3279 34.6884L36.2081 33.3388L33.2476 33.6109C33.4871 30.8462 33.8354 27.6136 34.1837 24.6204L37.3292 24.3157L37.1986 22.966L34.3469 23.2381C34.8803 18.6993 35.3701 15.0204 35.3918 14.9333C35.5877 13.3986 34.9347 11.9401 33.5959 10.9279C33.3456 10.732 33.0735 10.5796 32.7905 10.4272L33.4217 8.40272L32.1265 8L31.517 9.94831C30.2326 9.62178 28.8286 9.71975 27.5333 10.264C24.8667 11.385 23.6367 15.4231 23.1469 19.5157C22.6571 18.1986 21.9605 17.0558 20.9701 16.381C19.7837 15.5755 18.3687 15.5102 16.7469 16.1742C14.0258 17.2952 13.0354 20.4082 12.9048 24.0653L11.9034 23.5755L11.283 24.7837L12.8721 25.5565C12.9156 27.6789 13.1986 29.8993 13.5687 31.9891L11 32.3701L11.1959 33.7197L13.819 33.3279C14.3197 35.8639 14.9075 38.0843 15.2775 39.5102L15.4082 40L16.7252 39.6626L16.5946 39.1619C16.0068 36.9306 15.5497 34.9387 15.2014 33.1319L16.6925 32.9143L16.4966 31.5646L14.9619 31.7932C14.5918 29.6599 14.3741 27.8204 14.298 26.2531L16.4204 27.2871L17.019 26.068L14.2653 24.7292C14.2871 19.9619 15.702 18.068 17.2585 17.4258C18.4449 16.9361 19.4136 16.9578 20.1973 17.502C21.9823 18.7102 22.6898 22.3674 22.8857 25.3714C22.8966 25.8503 22.9184 26.3075 22.951 26.7211C22.9619 27.0585 22.9619 27.385 22.951 27.6789C22.9075 30.6395 22.5265 39.0095 22.5265 39.0966L23.8871 39.1619C23.8871 39.0748 24.268 30.683 24.3116 27.7007C24.3116 27.483 24.3116 27.1347 24.3116 26.6993C24.3116 26.6884 24.3116 26.6776 24.3116 26.6667C24.3007 26.2422 24.2789 25.7524 24.2463 25.1864C24.0721 19.1565 25.2694 12.6912 28.0667 11.5157C29.0462 11.1021 30.1238 11.0259 31.1143 11.2544L29.9932 14.8245L31.2884 15.2272L32.3769 11.766C32.5075 11.8422 32.649 11.9293 32.7687 12.0163C33.7047 12.7238 34.1728 13.7252 34.0313 14.7592C33.9877 15.1184 33.4871 18.8517 32.9537 23.3687L31.2993 23.5211L31.4299 24.8707L32.7905 24.7401C32.4422 27.7442 32.1047 30.966 31.8653 33.7306L27.185 34.1551L27.3048 35.5048L31.7564 35.102C31.5932 37.268 31.5279 39.0204 31.6258 39.9347L32.9755 39.8041C32.8884 38.9115 32.9646 37.1592 33.1279 34.9714L36.3279 34.6884Z" fill="currentColor"/>

</svg>
