<svg width="48" height="48" viewBox="0 0 48 48" fill="none" xmlns="http://www.w3.org/2000/svg">
  <title>Very Oily Glyph</title>
  <path d="M20.8903 16.0788C20.1236 15.0206 19.3768 14.0947 18.7295 13.2807C17.0964 11.2559 15.9115 9.79073 15.8816 8.07118C15.8816 8.05083 15.8816 8.03048 15.8816 8.01013H14.6369C14.6369 9.85179 13.3922 11.3882 11.5002 13.7081C10.9226 14.4203 10.2853 15.2038 9.62811 16.0687C7.06897 19.4467 7.57682 23.8321 10.843 26.5081C10.4546 26.9965 10.0463 27.5052 9.62811 28.0547C7.05901 31.4327 7.57683 35.8283 10.8529 38.5043C12.0379 39.4709 13.6013 40 15.2543 40C16.8973 40 18.4507 39.4811 19.6357 38.5246C22.9118 35.8792 23.4296 31.5854 20.8903 28.0649C20.4821 27.4951 20.0838 26.9761 19.6954 26.4877C22.9118 23.8423 23.4097 19.5688 20.8903 16.0788ZM18.859 37.5275C17.8931 38.3008 16.6185 38.7281 15.2543 38.7281C13.8801 38.7281 12.5856 38.3008 11.6296 37.5071C8.86138 35.2483 8.44315 31.6769 10.6139 28.828C11.062 28.2378 11.4902 27.7087 11.8985 27.1898C12.8943 27.7189 14.0494 28.0038 15.2543 28.0038C16.4691 28.0038 17.6342 27.7087 18.6399 27.1796C19.0382 27.6884 19.4564 28.2276 19.8846 28.8178C22.0355 31.799 21.6272 35.2992 18.859 37.5275ZM12.715 26.1825C13.8004 24.8496 14.7066 23.6998 15.2543 22.5399C15.8218 23.6896 16.728 24.8089 17.7536 26.0909C17.7736 26.1214 17.8034 26.152 17.8234 26.1723C17.0467 26.5386 16.1704 26.7523 15.2543 26.7523C14.3481 26.7421 13.4818 26.5386 12.715 26.1825ZM18.7196 25.2668C17.0865 23.242 15.9015 21.7767 15.8716 20.0572C15.8716 20.0368 15.8716 20.0165 15.8716 19.9961H14.6269C14.6269 21.7869 13.4419 23.2928 11.6296 25.5211C8.86138 23.2623 8.44315 19.6909 10.6139 16.8419C11.2612 15.9872 11.8885 15.2241 12.4561 14.5119C13.661 13.0264 14.6667 11.7952 15.2642 10.5335C15.8318 11.6833 16.738 12.8025 17.7636 14.0845C18.4109 14.8884 19.1378 15.7939 19.8846 16.8216C22.0255 19.7825 21.6272 23.2623 18.9088 25.4906C18.849 25.4295 18.7793 25.338 18.7196 25.2668Z" fill="currentColor"/>
  <path d="M38.3962 16.079C37.6294 15.0208 36.8826 14.0949 36.2354 13.2809C34.6023 11.2662 33.4273 9.79089 33.3874 8.08151C33.3874 8.05098 33.3874 8.03065 33.3874 8.00012H32.1427C32.1427 9.84178 30.898 11.3782 29.006 13.698C28.4285 14.4103 27.7912 15.1937 27.134 16.0586C24.5748 19.4367 25.0827 23.8221 28.3488 26.4981C27.9605 26.9865 27.5522 27.4952 27.134 28.0446C24.5649 31.4227 25.0827 35.8183 28.3588 38.4943C29.5438 39.4609 31.1071 39.9899 32.7601 39.9899C34.4031 39.9899 35.9565 39.471 37.1415 38.5146C40.4176 35.8691 40.9354 31.5753 38.3962 28.0548C37.9879 27.485 37.5896 26.9661 37.2013 26.4777C40.4176 23.8424 40.9155 19.5689 38.3962 16.079ZM36.3748 37.5276C35.4089 38.3009 34.1343 38.7283 32.7701 38.7283C31.3959 38.7283 30.1014 38.3009 29.1454 37.5073C26.3772 35.2485 25.959 31.6771 28.1198 28.8281C28.5679 28.238 28.9961 27.7089 29.4043 27.1899C30.4001 27.719 31.5552 28.0039 32.7601 28.0039C33.975 28.0039 35.14 27.7089 36.1457 27.1798C36.5441 27.6885 36.9623 28.2278 37.3905 28.8179C39.5413 31.7992 39.1331 35.2993 36.3748 37.5276ZM30.2209 26.1826C31.3063 24.8497 32.2124 23.6999 32.7701 22.54C33.3377 23.6898 34.2438 24.809 35.2695 26.0911C35.2894 26.1216 35.3193 26.1521 35.3392 26.1725C34.5625 26.5387 33.6862 26.7524 32.7701 26.7524C31.854 26.7423 30.9876 26.5388 30.2209 26.1826ZM36.2254 25.2669C34.6023 23.2523 33.4173 21.7769 33.3775 20.0675C33.3775 20.037 33.3775 20.0167 33.3775 19.9861H32.1328C32.1328 21.7769 30.9478 23.2828 29.1355 25.5111C26.3672 23.2523 25.949 19.6809 28.1098 16.8319C28.7571 15.9772 29.3844 15.2141 29.952 14.5019C31.1569 13.0163 32.1626 11.7852 32.7601 10.5235C33.3277 11.6732 34.2339 12.7925 35.2595 14.0745C35.9068 14.8783 36.6337 15.7839 37.3805 16.8115C39.5214 19.7724 39.1231 23.2523 36.4046 25.4806C36.3549 25.4297 36.2852 25.3483 36.2254 25.2669Z" fill="currentColor"/>
</svg>
