<svg viewBox="0 0 48 48" fill="none" xmlns="http://www.w3.org/2000/svg">
  <title>Very Oily Glyph</title>
  <mask id="mask0" mask-type="alpha" maskUnits="userSpaceOnUse" x="8" y="7" width="33" height="33">
    <path d="M20.945 15.6099C20.175 14.5699 19.425 13.6599 18.775 12.8599C17.135 10.8699 15.945 9.42993 15.915 7.73993C15.915 7.71993 15.915 7.69993 15.915 7.67993H14.665C14.665 9.48993 13.415 10.9999 11.515 13.2799C10.935 13.9799 10.295 14.7499 9.63502 15.5999C7.06502 18.9199 7.57502 23.2299 10.855 25.8599C10.465 26.3399 10.055 26.8399 9.63502 27.3799C7.05502 30.6999 7.57503 35.0199 10.865 37.6499C12.055 38.5999 13.625 39.1199 15.285 39.1199C16.935 39.1199 18.495 38.61 19.685 37.67C22.975 35.07 23.495 30.85 20.945 27.39C20.535 26.83 20.135 26.3199 19.745 25.8399C22.975 23.2399 23.475 19.0399 20.945 15.6099ZM18.905 36.6899C17.935 37.4499 16.655 37.8699 15.285 37.8699C13.905 37.8699 12.605 37.45 11.645 36.67C8.86503 34.45 8.44503 30.94 10.625 28.14C11.075 27.56 11.505 27.0399 11.915 26.5299C12.915 27.0499 14.075 27.3299 15.285 27.3299C16.505 27.3299 17.675 27.0399 18.685 26.5199C19.085 27.0199 19.505 27.5499 19.935 28.1299C22.095 31.0599 21.685 34.4999 18.905 36.6899ZM12.735 25.5399C13.825 24.2299 14.735 23.0999 15.285 21.9599C15.855 23.0899 16.765 24.19 17.795 25.45C17.815 25.48 17.845 25.5099 17.865 25.5299C17.085 25.8899 16.205 26.0999 15.285 26.0999C14.375 26.0899 13.505 25.8899 12.735 25.5399ZM18.765 24.64C17.125 22.65 15.935 21.2099 15.905 19.5199C15.905 19.4999 15.905 19.4799 15.905 19.4599H14.655C14.655 21.2199 13.465 22.7 11.645 24.89C8.86503 22.67 8.44503 19.1599 10.625 16.3599C11.275 15.5199 11.905 14.7699 12.475 14.0699C13.685 12.6099 14.695 11.3999 15.295 10.1599C15.865 11.2899 16.775 12.3899 17.805 13.6499C18.455 14.4399 19.185 15.3299 19.935 16.3399C22.085 19.2499 21.685 22.6699 18.955 24.8599C18.895 24.7999 18.825 24.71 18.765 24.64Z" fill="white"/>
    <path d="M38.525 15.6099C37.755 14.5699 37.005 13.6599 36.355 12.8599C34.715 10.8799 33.535 9.42991 33.495 7.74991C33.495 7.71991 33.495 7.69992 33.495 7.66992H32.245C32.245 9.47992 30.995 10.9899 29.095 13.2699C28.515 13.9699 27.875 14.7399 27.215 15.5899C24.645 18.9099 25.155 23.2199 28.435 25.8499C28.045 26.3299 27.635 26.8299 27.215 27.3699C24.635 30.6899 25.155 35.0099 28.445 37.6399C29.635 38.5899 31.205 39.1099 32.865 39.1099C34.515 39.1099 36.075 38.5999 37.265 37.6599C40.555 35.0599 41.075 30.8399 38.525 27.3799C38.115 26.8199 37.715 26.3099 37.325 25.8299C40.555 23.2399 41.055 19.0399 38.525 15.6099ZM36.495 36.6899C35.525 37.4499 34.245 37.8699 32.875 37.8699C31.495 37.8699 30.195 37.4499 29.235 36.6699C26.455 34.4499 26.035 30.9399 28.205 28.1399C28.655 27.5599 29.085 27.0399 29.495 26.5299C30.495 27.0499 31.655 27.3299 32.865 27.3299C34.085 27.3299 35.255 27.0399 36.265 26.5199C36.665 27.0199 37.085 27.5499 37.515 28.1299C39.675 31.0599 39.265 34.4999 36.495 36.6899ZM30.315 25.5399C31.405 24.2299 32.315 23.0999 32.875 21.9599C33.445 23.0899 34.355 24.1899 35.385 25.4499C35.405 25.4799 35.435 25.5099 35.455 25.5299C34.675 25.8899 33.795 26.0999 32.875 26.0999C31.955 26.0899 31.085 25.8899 30.315 25.5399ZM36.345 24.6399C34.715 22.6599 33.525 21.2099 33.485 19.5299C33.485 19.4999 33.485 19.4799 33.485 19.4499H32.235C32.235 21.2099 31.045 22.6899 29.225 24.8799C26.445 22.6599 26.025 19.1499 28.195 16.3499C28.845 15.5099 29.475 14.7599 30.045 14.0599C31.255 12.5999 32.265 11.3899 32.865 10.1499C33.435 11.2799 34.345 12.3799 35.375 13.6399C36.025 14.4299 36.755 15.3199 37.505 16.3299C39.655 19.2399 39.255 22.6599 36.525 24.8499C36.475 24.7999 36.405 24.7199 36.345 24.6399Z" fill="white"/>
  </mask>
  <g mask="url(#mask0)">
    <rect x="-0.155029" width="48" height="48" fill="#332E54"/>
  </g>
</svg>
