<svg viewBox="0 0 48 48" fill="none" xmlns="http://www.w3.org/2000/svg">
  <title>Very Dry Glyph</title>
  <mask id="mask0" mask-type="alpha" maskUnits="userSpaceOnUse" x="12" y="9" width="25" height="30">
    <path d="M26.8154 25.843L25.7617 26.5154L27.5206 29.272L28.5743 28.5996L26.8154 25.843Z" fill="white"/>
    <path d="M35.27 33.52L35.16 32.28L32.44 32.53C32.66 29.99 32.98 27.02 33.3 24.27L36.19 23.99L36.07 22.75L33.45 23C33.94 18.83 34.39 15.45 34.41 15.37C34.59 13.96 33.99 12.62 32.76 11.69C32.53 11.51 32.28 11.37 32.02 11.23L32.6 9.37L31.41 9L30.85 10.79C29.67 10.49 28.38 10.58 27.19 11.08C24.74 12.11 23.61 15.82 23.16 19.58C22.71 18.37 22.07 17.32 21.16 16.7C20.07 15.96 18.77 15.9 17.28 16.51C14.78 17.54 13.87 20.4 13.75 23.76L12.83 23.31L12.26 24.42L13.72 25.13C13.76 27.08 14.02 29.12 14.36 31.04L12 31.39L12.18 32.63L14.59 32.27C15.05 34.6 15.59 36.64 15.93 37.95L16.05 38.4L17.26 38.09L17.14 37.63C16.6 35.58 16.18 33.75 15.86 32.09L17.23 31.89L17.05 30.65L15.64 30.86C15.3 28.9 15.1 27.21 15.03 25.77L16.98 26.72L17.53 25.6L15 24.37C15.02 19.99 16.32 18.25 17.75 17.66C18.84 17.21 19.73 17.23 20.45 17.73C22.09 18.84 22.74 22.2 22.92 24.96C22.93 25.4 22.95 25.82 22.98 26.2C22.99 26.51 22.99 26.81 22.98 27.08C22.94 29.8 22.59 37.49 22.59 37.57L23.84 37.63C23.84 37.55 24.19 29.84 24.23 27.1C24.23 26.9 24.23 26.58 24.23 26.18C24.23 26.17 24.23 26.16 24.23 26.15C24.22 25.76 24.2 25.31 24.17 24.79C24.01 19.25 25.11 13.31 27.68 12.23C28.58 11.85 29.57 11.78 30.48 11.99L29.45 15.27L30.64 15.64L31.64 12.46C31.76 12.53 31.89 12.61 32 12.69C32.86 13.34 33.29 14.26 33.16 15.21C33.12 15.54 32.66 18.97 32.17 23.12L30.65 23.26L30.77 24.5L32.02 24.38C31.7 27.14 31.39 30.1 31.17 32.64L26.87 33.03L26.98 34.27L31.07 33.9C30.92 35.89 30.86 37.5 30.95 38.34L32.19 38.22C32.11 37.4 32.18 35.79 32.33 33.78L35.27 33.52Z" fill="white"/>
  </mask>
  <g mask="url(#mask0)">
    <rect x="0.26001" y="0.0100098" width="48" height="48" fill="currentColor"/>
  </g>
</svg>
