<svg viewBox="0 0 48 48" fill="none" xmlns="http://www.w3.org/2000/svg">
  <title>Vitamin C Serum Glyph</title>
  <path d="M27.4346 20.5471C26.6565 19.8663 26.5593 19.1854 26.5593 18.6018H27.7264V13.8359H25.6839V10.0426C25.6839 8.87538 24.8085 8 23.6413 8C22.4742 8 21.696 8.87538 21.696 10.0426V13.8359H19.6535V18.6991H20.8207C20.8207 19.2827 20.7234 19.9635 19.9453 20.6444C18.5836 21.7143 18 22.4924 18 24.7295V37.6657C18 39.3191 19.3617 40.0973 21.9878 40.0973H25.2948C27.921 40.0973 29.2827 39.3191 29.2827 37.6657V24.6322C29.2827 22.3951 28.7964 21.617 27.4346 20.5471ZM22.8632 10.0426C22.8632 9.6535 23.2523 9.26444 23.6413 9.26444C24.0304 9.26444 24.4195 9.6535 24.4195 10.0426V13.8359H22.8632V10.0426ZM20.9179 15.003H26.462V17.4346H20.9179V15.003ZM28.1155 37.5684C28.1155 37.8602 28.1155 38.8328 25.2948 38.8328H21.9878C19.1672 38.8328 19.1672 37.9574 19.1672 37.5684V24.6322C19.1672 22.7842 19.5562 22.3951 20.6261 21.5198C21.8906 20.5471 21.9878 19.3799 21.9878 18.6018H25.1976C25.1976 19.3799 25.2948 20.5471 26.5593 21.5198C27.6292 22.3951 28.0182 22.7842 28.0182 24.6322V37.5684H28.1155Z" fill="currentColor"/>
</svg>
