<svg viewBox="0 0 48 48" fill="none" xmlns="http://www.w3.org/2000/svg">
  <title>Vitamin C Serum Glyph</title>
  <path d="M28.0345 20.5471C27.2069 19.8663 27.1034 19.1854 27.1034 18.6018H28.3448V13.8359H26.1724V10.0426C26.1724 8.87538 25.2414 8 24 8C22.7586 8 21.931 8.87538 21.931 10.0426V13.8359H19.7586V18.6991H21C21 19.2827 20.8966 19.9635 20.069 20.6444C18.6207 21.7143 18 22.4924 18 24.7295V37.6657C18 39.3191 19.4483 40.0973 22.2414 40.0973H25.7586C28.5517 40.0973 30 39.3191 30 37.6657V24.6322C30 22.3951 29.4828 21.617 28.0345 20.5471ZM23.1724 10.0426C23.1724 9.6535 23.5862 9.26444 24 9.26444C24.4138 9.26444 24.8276 9.6535 24.8276 10.0426V13.8359H23.1724V10.0426ZM21.1034 15.003H27V17.4346H21.1034V15.003ZM28.7586 37.5684C28.7586 37.8602 28.7586 38.8328 25.7586 38.8328H22.2414C19.2414 38.8328 19.2414 37.9574 19.2414 37.5684V24.6322C19.2414 22.7842 19.6552 22.3951 20.7931 21.5198C22.1379 20.5471 22.2414 19.3799 22.2414 18.6018H25.6552C25.6552 19.3799 25.7586 20.5471 27.1034 21.5198C28.2414 22.3951 28.6552 22.7842 28.6552 24.6322V37.5684H28.7586Z" fill="currentColor"/>
</svg>
