<svg viewBox="0 0 48 48" fill="none" xmlns="http://www.w3.org/2000/svg">
  <title>Vitamin-C Glyph</title>
  <mask id="mask0" mask-type="alpha" maskUnits="userSpaceOnUse" x="8" y="10" width="33" height="29">
    <path fill-rule="evenodd" clip-rule="evenodd" d="M17.4542 10.0256L17.098 10L16.8951 10.2939L8.20579 22.8783L8 23.1764L8.15627 23.5031L14.7481 37.2861L14.9037 37.6113L15.2631 37.6395L30.5442 38.838L30.9029 38.8662L31.1074 38.5701L39.7967 25.9856L40.0018 25.6885L39.8469 25.3624L33.2551 11.4796L33.0988 11.1504L32.7353 11.1243L17.4542 10.0256ZM9.4402 23.2905L17.7208 11.298L32.2822 12.3449L38.5629 25.5725L30.2832 37.5637L15.7202 36.4215L9.4402 23.2905ZM22.7603 14.7936C20.9202 14.6572 19.5169 15.9339 19.3778 17.8098C19.238 19.6947 20.4369 21.1735 22.2859 21.3107C23.8926 21.4298 24.9059 20.6657 25.3482 19.3267L24.0467 19.2301C23.786 19.8245 23.2508 20.227 22.3711 20.1618C21.2492 20.0786 20.5708 19.1257 20.6613 17.905C20.7512 16.6933 21.5621 15.86 22.6751 15.9425C23.5188 16.0051 23.9486 16.416 24.127 17.052L25.4824 17.1525C25.2441 15.8623 24.3579 14.9121 22.7603 14.7936ZM27.7713 23.312L27.216 23.0251L26.9292 23.5805L24.4083 28.4612L24.1215 29.0165L24.6768 29.3033L29.5576 31.8241L30.1129 32.1109L30.3997 31.5556L32.9205 26.6749L33.2073 26.1196L32.652 25.8328L27.7713 23.312ZM25.8058 28.4795L27.753 24.7094L31.5231 26.6566L29.5759 30.4267L25.8058 28.4795ZM19.639 26.6624L19.3692 26.0986L18.8055 26.3684L16.1028 27.6616L15.5391 27.9313L15.8088 28.4951L17.102 31.1977L17.3718 31.7615L17.9355 31.4917L20.6382 30.1985L21.2019 29.9288L20.9322 29.365L19.639 26.6624ZM17.2061 28.5193L18.7812 27.7656L19.5349 29.3408L17.9598 30.0945L17.2061 28.5193Z" fill="white"/>
  </mask>
  <g mask="url(#mask0)">
    <rect width="48" height="48" fill="currentColor"/>
  </g>
</svg>
