<svg width="48" height="48" viewBox="0 0 48 48" fill="none" xmlns="http://www.w3.org/2000/svg">
  <title>Vitamin-C Glyph</title>
  <path fill-rule="evenodd" clip-rule="evenodd" d="M17.4536 10.0258L17.0963 10L16.8934 10.2952L8.20414 22.9405L8 23.2376L8.15491 23.5631L14.7468 37.4126L14.902 37.7387L15.262 37.7671L30.5431 38.9714L30.9029 38.9998L31.1073 38.7023L39.7966 26.057L40.0001 25.7609L39.8466 25.436L33.2547 11.4861L33.0988 11.1561L32.7347 11.1298L17.4536 10.0258ZM9.43851 23.3513L17.7208 11.2984L32.2805 12.3502L38.5629 25.6452L30.2815 37.6969L15.7202 36.5493L9.43851 23.3513ZM22.7599 14.8058C20.9199 14.6687 19.5171 15.945 19.3786 17.821C19.2394 19.7059 20.4388 21.1852 22.2877 21.323C23.8944 21.4427 24.9074 20.6788 25.3492 19.3399L24.0477 19.2429C23.7873 19.8372 23.2522 20.2396 22.3726 20.174C21.2506 20.0904 20.5719 19.1373 20.6621 17.9166C20.7515 16.7049 21.5621 15.8717 22.675 15.9547C23.5187 16.0175 23.9487 16.4286 24.1273 17.0647L25.4826 17.1657C25.244 15.8753 24.3575 14.9248 22.7599 14.8058ZM27.7694 23.3756L27.2146 23.0877L26.9289 23.6436L24.4085 28.5471L24.1227 29.103L24.6775 29.3909L29.558 31.9238L30.1127 32.2117L30.3985 31.6558L32.9189 26.7523L33.2046 26.1964L32.6499 25.9085L27.7694 23.3756ZM25.8037 28.567L27.7527 24.7752L31.5237 26.7323L29.5747 30.5241L25.8037 28.567ZM19.6376 26.7403L19.3689 26.1761L18.8057 26.4469L16.1031 27.7463L15.5399 28.0171L15.8086 28.5813L17.1016 31.2966L17.3703 31.8609L17.9335 31.5901L20.6361 30.2907L21.1993 30.0199L20.9306 29.4556L19.6376 26.7403ZM17.2037 28.604L18.7798 27.8462L19.5354 29.433L17.9594 30.1908L17.2037 28.604Z" fill="currentColor"/>
</svg>
