<svg width="48" height="48" viewBox="0 0 48 48" fill="none" xmlns="http://www.w3.org/2000/svg">
  <title>Vitamin C Serum Glyph</title>
  <path
    d="M32.36 15.37H16.65C15.19 15.37 14 16.55 14 18.01V37.35C14 38.81 15.19 40 16.65 40H32.36C33.82 40 35 38.81 35 37.36V18.01C35 16.55 33.81 15.37 32.36 15.37ZM33.5 37.35C33.5 37.98 32.99 38.49 32.36 38.49H16.65C16.02 38.49 15.5 37.98 15.5 37.35V18.01C15.5 17.38 16.01 16.86 16.65 16.86H32.36C32.99 16.86 33.5 17.37 33.5 18.01V37.35Z"
    fill="currentColor"
  />
  <path
    d="M20.98 13.69C21.39 13.69 21.73 13.35 21.73 12.94V9.5H27.26V12.94C27.26 13.35 27.6 13.69 28.01 13.69C28.42 13.69 28.76 13.35 28.76 12.94V8.75C28.76 8.34 28.42 8 28.01 8H20.98C20.57 8 20.23 8.34 20.23 8.75V12.94C20.23 13.35 20.57 13.69 20.98 13.69Z"
    fill="currentColor"
  />
  <path
    d="M27.39 29.9C26.77 30.56 25.94 30.92 25.04 30.92C23.26 30.92 21.82 29.47 21.82 27.68C21.82 25.89 23.27 24.44 25.04 24.44C25.94 24.44 26.77 24.8 27.39 25.46C27.67 25.76 28.15 25.78 28.45 25.5C28.75 25.22 28.77 24.74 28.48 24.44C27.59 23.49 26.34 22.95 25.04 22.95C22.44 22.95 20.32 25.08 20.32 27.69C20.32 30.3 22.44 32.43 25.04 32.43C26.34 32.43 27.59 31.89 28.48 30.94C28.76 30.64 28.75 30.16 28.45 29.88C28.14 29.58 27.67 29.6 27.39 29.9Z"
    fill="currentColor"
  />
</svg>
