<svg viewBox="0 0 48 48" fill="none" xmlns="http://www.w3.org/2000/svg">
  <title>Wash Face Glyph</title>
  <path
    d="M34.88 27.8799C32.57 25.5799 32.56 24.2699 32.53 22.2899C32.51 20.7399 32.49 18.8099 31.37 15.9899C28.63 9.03988 20.19 7.99988 15.4 7.99988C14.99 7.99988 14.65 8.33988 14.65 8.74988C14.65 9.15988 14.99 9.49988 15.4 9.49988C19.81 9.49988 27.56 10.4099 29.98 16.5299C31 19.0999 31.02 20.7999 31.03 22.2999C31.05 24.3999 31.08 26.2099 33.82 28.9399C34.17 29.2899 34.3 29.4999 34.35 29.6099C34.16 29.7199 33.73 29.8299 33.49 29.8999C32.74 30.0999 31.82 30.3499 31.69 31.2099C31.66 31.4499 31.68 31.7599 31.71 32.2199C31.8 33.5599 31.96 36.0399 30.67 37.4199C30 38.1399 28.96 38.4999 27.59 38.4999H26.6C25.2 38.4999 23.88 38.5099 22.67 38.4399C22.26 38.4199 21.9 38.7299 21.88 39.1499C21.86 39.5599 22.17 39.9199 22.59 39.9399C23.56 39.9899 24.58 40.0099 25.66 40.0099C25.97 40.0099 26.29 40.0099 26.61 40.0099H27.6C29.4 40.0099 30.81 39.4899 31.78 38.4499C33.52 36.5999 33.32 33.6899 33.22 32.1199C33.21 31.9299 33.19 31.7099 33.19 31.5599C33.36 31.4799 33.68 31.3999 33.89 31.3399C34.66 31.1299 35.62 30.8799 35.85 30.0099C36.07 29.1799 35.4 28.3899 34.88 27.8799Z"
    fill="currentColor"
  />
  <path
    d="M22.58 32.6799C22.58 30.8499 21.09 29.3599 19.26 29.3599C17.64 29.3599 16.29 30.5299 16 32.0699C14.29 32.4399 13 33.9699 13 35.7899C13 37.8799 14.7 39.5799 16.79 39.5799C18.88 39.5799 20.58 37.8799 20.58 35.7899C20.58 35.7699 20.57 35.7499 20.57 35.7299C21.77 35.2099 22.58 34.0099 22.58 32.6799ZM16.79 38.0799C15.53 38.0799 14.5 37.0499 14.5 35.7899C14.5 34.5299 15.53 33.4999 16.79 33.4999C18.05 33.4999 19.08 34.5299 19.08 35.7899C19.08 37.0499 18.06 38.0799 16.79 38.0799ZM20.23 34.2099C19.73 33.1299 18.75 32.3199 17.56 32.0699C17.81 31.3699 18.48 30.8599 19.27 30.8599C20.27 30.8599 21.09 31.6799 21.09 32.6799C21.08 33.3199 20.75 33.8799 20.23 34.2099Z"
    fill="currentColor"
  />
  <path
    d="M15.37 29.7899C16.68 29.7899 17.74 28.7299 17.74 27.4199C17.74 26.1099 16.68 25.0499 15.37 25.0499C14.06 25.0499 13 26.1099 13 27.4199C13 28.7299 14.06 29.7899 15.37 29.7899ZM15.37 26.5499C15.85 26.5499 16.24 26.9399 16.24 27.4199C16.24 27.8999 15.85 28.2899 15.37 28.2899C14.89 28.2899 14.5 27.8999 14.5 27.4199C14.5 26.9399 14.89 26.5499 15.37 26.5499Z"
    fill="currentColor"
  />
</svg>
