<svg viewBox="0 0 48 48" fill="none" xmlns="http://www.w3.org/2000/svg">
  <title>Wrinkles Glyph</title>
  <mask id="mask0" mask-type="alpha" maskUnits="userSpaceOnUse" x="7" y="9" width="34" height="30">
    <path d="M35.63 27.23C33.77 27.23 32.25 25.72 32.25 23.85C32.25 21.3 30.18 19.23 27.63 19.23C25.08 19.23 23.01 21.31 23.01 23.85C23.01 25.71 21.5 27.23 19.63 27.23C17.76 27.23 16.25 25.72 16.25 23.85C16.25 21.3 14.18 19.23 11.63 19.23C9.08 19.23 7.01001 21.31 7.01001 23.85H8.26001C8.26001 21.99 9.77001 20.47 11.64 20.47C13.51 20.47 15.02 21.98 15.02 23.85C15.02 26.4 17.09 28.47 19.64 28.47C22.19 28.47 24.26 26.39 24.26 23.85C24.26 21.99 25.77 20.47 27.64 20.47C29.51 20.47 31.02 21.98 31.02 23.85C31.02 26.4 33.09 28.47 35.64 28.47C38.19 28.47 40.26 26.39 40.26 23.85H39.01C39.01 25.71 37.49 27.23 35.63 27.23Z" fill="white"/>
    <path d="M35.63 37.47C33.77 37.47 32.25 35.96 32.25 34.09C32.25 31.54 30.18 29.47 27.63 29.47C25.08 29.47 23.01 31.55 23.01 34.09C23.01 35.95 21.5 37.47 19.63 37.47C17.76 37.47 16.25 35.96 16.25 34.09C16.25 31.54 14.18 29.47 11.63 29.47C9.08 29.47 7.01001 31.55 7.01001 34.09H8.26001C8.26001 32.23 9.77001 30.71 11.64 30.71C13.51 30.71 15.02 32.22 15.02 34.09C15.02 36.64 17.09 38.71 19.64 38.71C22.19 38.71 24.26 36.63 24.26 34.09C24.26 32.23 25.77 30.71 27.64 30.71C29.51 30.71 31.02 32.22 31.02 34.09C31.02 36.64 33.09 38.71 35.64 38.71C38.19 38.71 40.26 36.63 40.26 34.09H39.01C39.01 35.95 37.49 37.47 35.63 37.47Z" fill="white"/>
    <path d="M11.63 10.24C13.49 10.24 15.01 11.75 15.01 13.62C15.01 16.17 17.08 18.24 19.63 18.24C22.18 18.24 24.25 16.16 24.25 13.62C24.25 11.76 25.76 10.24 27.63 10.24C29.5 10.24 31.01 11.75 31.01 13.62C31.01 16.17 33.08 18.24 35.63 18.24C38.18 18.24 40.25 16.16 40.25 13.62H39C39 15.48 37.49 17 35.62 17C33.75 17 32.24 15.49 32.24 13.62C32.24 11.07 30.17 9 27.62 9C25.07 9 23 11.08 23 13.62C23 15.48 21.49 17 19.62 17C17.75 17 16.24 15.49 16.24 13.62C16.24 11.07 14.17 9 11.62 9C9.07 9 7 11.08 7 13.62H8.25C8.26 11.75 9.77 10.24 11.63 10.24Z" fill="white"/>
  </mask>
  <g mask="url(#mask0)">
    <rect x="-0.790039" y="0.219971" width="48" height="48" fill="currentColor"/>
  </g>
</svg>
