<svg viewBox="0 0 80 80" xmlns="http://www.w3.org/2000/svg" xmlns:xlink="http://www.w3.org/1999/xlink">
  <title>Zinc</title>
  <g fill="none" fill-rule="evenodd">
    <path fill="#FEFEFE" d="M79.9998,40.0001 C79.9998,62.0911 62.0918,80.0001 39.9998,80.0001 C17.9088,80.0001 -0.0002,62.0911 -0.0002,40.0001 C-0.0002,17.9091 17.9088,0.0001 39.9998,0.0001 C62.0918,0.0001 79.9998,17.9091 79.9998,40.0001"/>
    <path stroke="currentColor" stroke-linecap="round" stroke-linejoin="round" stroke-width="2" d="M32.1624 64.2931L36.6564 62.1991M40.3377 72.2765L42.6667 66.8305M58.2581 41.7521L60.3911 37.9551M63.01 44.6964L66.674 41.9894M50.3592 67.6969L51.7002 71.7139M61.0559 41.3253C57.8499 39.5223 53.7909 39.3753 50.2489 40.8863 46.3699 42.5423 44.3409 45.6533 42.1119 49.0343 40.7089 51.1643 39.1099 53.1583 37.2359 54.8903 35.3689 56.6173 33.7019 59.0563 33.8499 61.7023 34.2539 68.8933 44.0709 70.4503 49.4839 69.1253 54.6299 67.8643 58.7829 64.1543 62.4089 60.3033 66.2549 56.2203 67.9559 49.7043 64.7659 44.8033 63.7909 43.3023 62.5109 42.1453 61.0559 41.3253zM52.0598 45.795L51.6198 50.095M49.594 47.715L54.089 48.174M57.8284 51.9361L58.4784 56.2091M55.9212 54.4122L60.3882 53.7322M40.0769 21.3575C39.5729 20.6195 39.0149 19.9165 38.4339 19.2475 37.0979 17.7095 35.8319 16.1105 34.4749 14.5905 33.3049 13.2785 32.0339 11.7795 30.4859 10.9055 28.9069 10.0145 26.9149 10.4165 25.8729 11.9015 25.3429 12.6575 24.9949 13.5265 24.7519 14.4135 24.2489 16.2405 23.7519 18.0695 23.2059 19.8855 22.7359 21.4475 22.1369 22.9695 21.7019 24.5425 21.2959 26.0135 21.0829 27.5575 21.2649 29.0805 21.3179 29.5225 21.4029 29.9605 21.5129 30.3905 22.9349 35.9695 28.6109 39.3385 34.1889 37.9165 35.3559 37.6185 36.6629 37.2095 37.6639 36.5485 38.6829 35.8765 39.8679 34.9095 40.5539 33.9025 41.8949 31.9355 42.6759 29.2255 42.3419 26.8285 42.0639 24.8285 41.2029 23.0065 40.0769 21.3575z"/>
    <path stroke="currentColor" stroke-linecap="round" stroke-width="2" d="M25.9549 22.423L28.8769 24.068M28.2386 21.7843L26.5936 24.7063M32.4334 20.6109L35.3554 22.2559M34.7171 19.9723L33.0721 22.8943"/>
    <path stroke="currentColor" stroke-linecap="round" stroke-linejoin="round" stroke-width="2" d="M40.0769 21.3575L42.4189 19.5615M18.3816 25.2457L21.2516 25.9087M18.0369 45.3663C18.0369 46.5003 17.1179 47.4193 15.9839 47.4193 14.8499 47.4193 13.9309 46.5003 13.9309 45.3663 13.9309 44.2323 14.8499 43.3133 15.9839 43.3133 17.1179 43.3133 18.0369 44.2323 18.0369 45.3663z"/>
    <path stroke="currentColor" stroke-linecap="round" stroke-linejoin="round" stroke-width="2" d="M17.1092 49.1813C17.1092 50.2963 16.2052 51.1993 15.0912 51.1993 13.9772 51.1993 13.0732 50.2963 13.0732 49.1813 13.0732 48.0673 13.9772 47.1633 15.0912 47.1633 16.2052 47.1633 17.1092 48.0673 17.1092 49.1813zM17.0076 53.1153C17.0076 54.1743 16.1496 55.0323 15.0906 55.0323 14.0326 55.0323 13.1746 54.1743 13.1746 53.1153 13.1746 52.0573 14.0326 51.1993 15.0906 51.1993 16.1496 51.1993 17.0076 52.0573 17.0076 53.1153z"/>
    <path stroke="currentColor" stroke-linecap="round" stroke-linejoin="round" stroke-width="2" d="M18.8396 55.8497C18.8396 56.8057 18.0646 57.5807 17.1096 57.5807 16.1526 57.5807 15.3786 56.8057 15.3786 55.8497 15.3786 54.8937 16.1526 54.1197 17.1096 54.1197 18.0646 54.1197 18.8396 54.8937 18.8396 55.8497zM60.6541 22.337C60.6541 23.471 59.7351 24.39 58.6011 24.39 57.4671 24.39 56.5481 23.471 56.5481 22.337 56.5481 21.203 57.4671 20.284 58.6011 20.284 59.7351 20.284 60.6541 21.203 60.6541 22.337z"/>
    <path stroke="currentColor" stroke-linecap="round" stroke-linejoin="round" stroke-width="2" d="M64.4768,23.3043 C64.4768,24.4183 63.5738,25.3223 62.4588,25.3223 C61.3448,25.3223 60.4408,24.4183 60.4408,23.3043 C60.4408,22.1903 61.3448,21.2863 62.4588,21.2863 C63.5738,21.2863 64.4768,22.1903 64.4768,23.3043 Z"/>
    <path stroke="currentColor" stroke-linecap="round" stroke-linejoin="round" stroke-width="2" d="M64.3753,27.2384 C64.3753,28.2974 63.5173,29.1554 62.4583,29.1554 C61.4003,29.1554 60.5423,28.2974 60.5423,27.2384 C60.5423,26.1804 61.4003,25.3214 62.4583,25.3214 C63.5173,25.3214 64.3753,26.1804 64.3753,27.2384 Z"/>
  </g>
</svg>
