<svg width="48" height="48" viewBox="0 0 48 48" fill="none" xmlns="http://www.w3.org/2000/svg">
  <title>Zinc Soap Bar Glyph</title>
  <path d="M39.9849 15.6313C39.8856 14.5844 39.4882 13.6325 38.6936 12.9663C37.8989 12.3 36.9056 11.9193 35.813 12.0145C34.8196 12.1097 33.8263 12.4904 33.131 13.1566H11.4766C9.58931 13.1566 8 14.6795 8 16.488V32.6687C8 34.4771 9.58931 36 11.4766 36H33.131C35.0183 36 36.6076 34.4771 36.6076 32.6687V19.6289C37.5016 19.5337 38.2963 19.0578 38.9916 18.3916C39.6869 17.6301 40.0842 16.6783 39.9849 15.6313ZM33.131 34.8578H11.4766C10.1853 34.8578 9.19198 33.906 9.19198 32.6687V16.488C9.19198 15.2506 10.1853 14.2988 11.4766 14.2988H32.3363C32.1377 14.8699 31.939 15.3458 32.0383 16.0121C32.1377 17.8205 33.6276 19.3434 35.4156 19.6289V32.6687C35.4156 33.906 34.323 34.8578 33.131 34.8578ZM37.9983 17.6301C37.5016 18.2012 36.8063 18.4868 36.1109 18.4868C34.621 18.5819 33.3297 17.4398 33.2303 16.0121C33.2303 15.3458 33.429 14.5844 33.9256 14.1084C34.4223 13.5374 35.1176 13.2518 35.813 13.2518H35.9123C36.6076 13.2518 37.2036 13.5374 37.7996 13.9181C38.3956 14.394 38.6936 15.0603 38.6936 15.7265C38.7929 16.3928 38.4949 17.1542 37.9983 17.6301Z" fill="currentColor"/>
  <path d="M27.7671 18.2964C25.7804 18.2964 24.0918 19.8193 24.0918 21.8181C24.0918 23.8169 25.6811 25.3398 27.7671 25.3398C29.853 25.3398 31.4423 23.8169 31.4423 21.8181C31.4423 19.8193 29.7537 18.2964 27.7671 18.2964ZM27.7671 24.1024C26.4757 24.1024 25.3831 23.0554 25.3831 21.8181C25.3831 20.5807 26.4757 19.5337 27.7671 19.5337C29.0584 19.5337 30.151 20.5807 30.151 21.8181C30.151 23.0554 29.1577 24.1024 27.7671 24.1024Z" fill="currentColor"/>
</svg>
