<svg viewBox="0 0 48 48" fill="none" xmlns="http://www.w3.org/2000/svg">
  <title>Zinc Soap Bar Glyph</title>
  <mask id="mask0" mask-type="alpha" maskUnits="userSpaceOnUse" x="8" y="11" width="32" height="26">
    <path d="M39.9849 14.7897C39.8856 13.6971 39.4882 12.7037 38.6936 12.0084C37.8989 11.3131 36.9056 10.9158 35.813 11.0151C34.8196 11.1144 33.8263 11.5118 33.131 12.2071H11.4766C9.58931 12.2071 8 13.7964 8 15.6837V32.5701C8 34.4575 9.58931 36.0468 11.4766 36.0468H33.131C35.0183 36.0468 36.6076 34.4575 36.6076 32.5701V18.9617C37.5016 18.8623 38.2963 18.3657 38.9916 17.6703C39.6869 16.8757 40.0842 15.8824 39.9849 14.7897ZM33.131 34.8548H11.4766C10.1853 34.8548 9.19198 33.8615 9.19198 32.5701V15.6837C9.19198 14.3924 10.1853 13.3991 11.4766 13.3991H32.3363C32.1377 13.9951 31.939 14.4917 32.0383 15.187C32.1377 17.0744 33.6276 18.6637 35.4156 18.9617V32.5701C35.4156 33.8615 34.323 34.8548 33.131 34.8548ZM37.9983 16.8757C37.5016 17.4717 36.8063 17.7697 36.1109 17.7697C34.621 17.869 33.3297 16.677 33.2303 15.187C33.2303 14.4917 33.429 13.6971 33.9256 13.2004C34.4223 12.6044 35.1176 12.3064 35.813 12.3064H35.9123C36.6076 12.3064 37.2036 12.6044 37.7996 13.0017C38.3956 13.4984 38.6936 14.1937 38.6936 14.8891C38.7929 15.5844 38.4949 16.379 37.9983 16.8757Z" fill="white"/>
    <path d="M27.7671 17.571C25.7804 17.571 24.0918 19.1603 24.0918 21.2463C24.0918 23.3323 25.6811 24.9216 27.7671 24.9216C29.853 24.9216 31.4423 23.3323 31.4423 21.2463C31.4423 19.1603 29.7537 17.571 27.7671 17.571ZM27.7671 23.6303C26.4757 23.6303 25.3831 22.5376 25.3831 21.2463C25.3831 19.955 26.4757 18.8623 27.7671 18.8623C29.0584 18.8623 30.151 19.955 30.151 21.2463C30.151 22.5376 29.1577 23.6303 27.7671 23.6303Z" fill="white"/>
  </mask>
  <g mask="url(#mask0)">
    <rect width="48" height="48" fill="#332E54"/>
  </g>
</svg>
