<svg width="48" height="48" viewBox="0 0 48 48" fill="none" xmlns="http://www.w3.org/2000/svg">
  <title>Zinc Glyph</title>
  <path fill-rule="evenodd" clip-rule="evenodd" d="M17.4536 10.0258L17.0963 10L16.8934 10.2952L8.20414 22.9405L8 23.2376L8.15491 23.5631L14.7468 37.4126L14.902 37.7387L15.262 37.7671L30.5431 38.9714L30.9029 38.9998L31.1073 38.7023L39.7966 26.057L40.0001 25.7609L39.8466 25.436L33.2547 11.4861L33.0988 11.1561L32.7347 11.1298L17.4536 10.0258ZM9.43851 23.3513L17.7208 11.2984L32.2805 12.3502L38.5629 25.6452L30.2815 37.6969L15.7202 36.5493L9.43851 23.3513ZM19.7363 19.3813L23.5338 21.8954L22.9811 22.7384L18.2268 24.5562L20.816 26.2703L20.1843 27.2337L16.2667 24.6402L16.8195 23.7972L21.5963 21.9943L19.1046 20.3448L19.7363 19.3813ZM27.5619 17.189L28.3601 16.4205L29.2271 17.321L28.4814 18.0389L29.2178 18.7196L28.3694 19.6375L27.5794 18.9073L26.83 19.6288L25.9631 18.7283L26.6598 18.0575L25.8725 17.3297L26.7209 16.4117L27.5619 17.189ZM27.5619 31.8415L28.3601 31.0729L29.2271 31.9734L28.4814 32.6914L29.2178 33.372L28.3694 34.29L27.5794 33.5598L26.83 34.2812L25.9631 33.3807L26.6598 32.7099L25.8725 31.9822L26.7209 31.0642L27.5619 31.8415ZM27.5619 24.5152L28.3601 23.7467L29.2271 24.6472L28.4814 25.3651L29.2178 26.0458L28.3694 26.9637L27.5794 26.2336L26.83 26.955L25.9631 26.0545L26.6598 25.3837L25.8725 24.6559L26.7209 23.738L27.5619 24.5152Z" fill="currentColor"/>
</svg>
