<svg xmlns="http://www.w3.org/2000/svg" xmlns:xlink="http://www.w3.org/1999/xlink">
  <defs>
    <symbol id="mortor" viewBox="0 0 64 47" stroke="currentColor" stroke-width="3" fill="none">
      <title>Mortor</title>
      <path d="M38.1512791,14.1257774 C38.1512791,14.1257774 45.2243023,9.47206774 46.1898837,8.74245484 C48.2577907,7.18058387 48.6596512,4.24826129 47.0884884,2.19258387 C45.5166279,0.1376 42.5668605,-0.261883871 40.4996512,1.2999871 C39.5333721,2.0296 22.485,14.1257774 22.485,14.1257774"/>
      <path d="M59.410814,14.3509032 L0.349186047,14.3509032 C0.349186047,30.8434839 18.912907,39.4205968 18.912907,39.4205968 L18.912907,42.6539194 L40.8463953,42.6539194 L40.8463953,39.4205968 C40.8463953,39.4205968 59.410814,27.6587097 59.410814,14.3509032 L59.410814,14.3509032 Z"/>
    </symbol>
    <symbol id="chat-bubble" viewBox="0 0 58 59" stroke="currentColor" stroke-width="3" fill="none" stroke-linecap="round">
      <title>Chat Bubble</title>
      <g transform="translate(2.000000, 2.000000)" >
        <path d="M26.9706107,0.347866071 C12.0754824,0.347866071 0,12.4228643 0,27.3184768 C0,32.7297376 1.60009098,37.7648196 4.34372656,41.9879947 L1.31735176,51.8732164 L11.0641087,49.0942384 C15.5240294,52.357843 21.0204993,54.2886034 26.9706107,54.2886034 C41.8662232,54.2886034 53.9412214,42.2136051 53.9412214,27.3184768 C53.9412214,12.4228643 41.8662232,0.347866071 26.9706107,0.347866071 L26.9706107,0.347866071 Z"/>
        <path d="M35.5054986,36.75 L18.4054982,36.75"/>
        <path d="M35.5054986,28.75 L18.4054982,28.75"/>
        <path d="M35.5054986,20.75 L18.4054982,20.75"/>
      </g>
    </symbol>
    <symbol id="dropper" viewBox="0 0 62 75" stroke="currentColor" stroke-width="3" fill="none">
      <title>Dropper</title>
      <path d="M56.0490337,2.19313431 C53.9715157,0.123693137 49.4894434,-0.499993137 47.1121422,1.86876176 L37.5819735,11.3354284 L46.8584795,20.5744775 L56.3879494,11.1078108 C58.7659494,8.73905588 58.1265518,4.26257549 56.0490337,2.19313431 L56.0490337,2.19313431 Z"/>
      <path d="M46.7418506,20.703948 C46.7418506,20.703948 29.0329831,38.1845657 25.3070072,41.896752 C21.5803325,45.6082422 17.8983807,41.1609971 12.2905494,46.7470265 L11.3150313,45.7746049 C16.9221639,40.1892716 12.4575614,36.5209382 16.1842361,32.809448 C19.910212,29.0979578 37.4597542,11.4579382 37.4597542,11.4579382"/>
      <path d="M34.2307614,7.99703627 L50.0535807,23.7583402"/>
      <path d="M11.5633133,61.4470892 L6.51172289,54.576099 L1.48109639,61.3329324 C0.771120482,62.3290206 0.349048193,63.5443735 0.349048193,64.8592657 C0.349048193,68.2317657 3.09391566,70.9652657 6.47887952,70.9652657 C9.86454217,70.9652657 12.6094096,68.2317657 12.6094096,64.8592657 C12.6094096,63.5951873 12.2236747,62.421599 11.5633133,61.4470892 L11.5633133,61.4470892 Z"/>
    </symbol>
    <symbol id="hand-writing" viewBox='0 0 71 76'>
      <title>Hand Writing</title>
      <g fill="none" fill-rule="evenodd" transform="translate(-6)">
          <g transform="rotate(35 34.757 112.118)">
            <polygon stroke="#353A39" stroke-linecap="round" stroke-width="1.458" points=".142 60.601 8.234 60.601 8.234 7.38 .142 7.38"/>
            <path stroke="#353A39" stroke-linecap="round" stroke-width="1.458" d="M0.9988222,6.78151517 L0.9988222,1.62679721 C0.9988222,0.808958911 1.6455949,0.146217804 2.44309129,0.146217804 L5.9330996,0.146217804 C6.73059599,0.146217804 7.37736869,0.808958911 7.37736869,1.62679721 L7.37736869,6.78151517"/>
            <polyline stroke="#353A39" stroke-linecap="round" stroke-width="1.458" points=".142 60.601 4.188 74.393 8.234 60.601"/>
            <polyline stroke="#353A39" stroke-linecap="round" stroke-width=".787" points="8.234 10.306 11.437 10.306 11.437 27.224"/>
            <polygon fill="#353A39" points="2.322 67.941 6.054 67.941 4.188 74.393"/>
          </g>
          <g stroke="#414141" stroke-linecap="round" stroke-width="1.166" transform="scale(-1 1) rotate(21 -155.389 -46.531)">
            <path d="M0.525605926,9.62782934 C0.525605926,9.62782934 6.69211655,10.7509786 6.69211655,8.4674513 C6.69211655,6.183924 6.19960601,7.10400709 6.19960601,8.36591822 C6.19960601,9.62782934 7.87728424,9.73995908 8.88487582,9.30336684 C9.8924674,8.8667746 10.0164871,4.40277362 9.41617068,3.47785562 C8.81585431,2.55293761 9.54746872,7.07983255 10.7168563,8.4674513 C11.8862438,9.85507004 12.4594222,7.30658976 13.854549,7.30658976 C15.2496758,7.30658976 13.1069369,8.95190913 15.1637801,8.23150776 C17.2206233,7.51110639 16.1592612,5.99681304 16.1592612,7.1141604 C16.1592612,8.23150776 18.4268267,7.90128351 19.2619651,7.50772195 C20.0971035,7.1141604 21.3086355,6.53590534 23.2153088,6.82503287" transform="rotate(-14 11.87 6.63)"/>
            <path d="M6.36625919,19.0339732 C6.36625919,19.0339732 10.0653532,19.2997409 10.0653532,17.0162136 C10.0653532,14.7326863 8.66975601,13.1975764 9.51002736,16.0564843 C10.3502987,18.9153921 12.3012242,18.4680981 13.3088158,18.0315059 C14.3164073,17.5949136 14.4288838,16.9814023 13.8285674,16.0564843 C13.228251,15.1315663 12.1394282,16.2178059 13.3088158,17.6054247 C14.4782033,18.9930434 17.2277856,17.0162136 17.2277856,15.8553521 C17.2277856,14.6944905 15.7551812,17.9237334 17.8120244,17.203332 C19.8688676,16.4829307 19.5324978,13.2943395 19.5324978,15.6629227 C19.5324978,18.0315059 21.6557834,16.3985944 23.1766418,15.8553521 C24.6975002,15.3121098 26.8054851,15.0397452 26.8054851,16.3930361" transform="rotate(-12 16.586 16.772)"/>
          </g>
        </g>
    </symbol>
    <symbol id="acne" viewBox="0 0 45 45">
      <path fill-rule="evenodd" fill="currentColor" transform="translate(10 10)" d="M12.9995052 23.2130607C12.3295398 23.2130607 11.7862444 22.6698549 11.7862444 22 11.7862444 21.3311346 12.3295398 20.7879288 12.9995052 20.7879288 13.6694706 20.7879288 14.212766 21.3311346 14.212766 22 14.212766 22.6698549 13.6694706 23.2130607 12.9995052 23.2130607M12.9995052 19C11.3428996 19 10 20.3436675 10 22 10 23.6563325 11.3428996 25 12.9995052 25 14.6571004 25 16 23.6563325 16 22 16 20.3436675 14.6571004 19 12.9995052 19M12.9995052 4.21207124C12.3295398 4.21207124 11.7862444 3.66886544 11.7862444 2.99901055 11.7862444 2.33014512 12.3295398 1.78693931 12.9995052 1.78693931 13.6694706 1.78693931 14.212766 2.33014512 14.212766 2.99901055 14.212766 3.66886544 13.6694706 4.21207124 12.9995052 4.21207124M12.9995052 0C11.3428996 0 10 1.34366755 10 2.99901055 10 4.65633245 11.3428996 6 12.9995052 6 14.6571004 6 16 4.65633245 16 2.99901055 16 1.34366755 14.6571004 0 12.9995052 0M23.212766 12.9995052C23.212766 13.6694706 22.6694706 14.212766 21.9995052 14.212766 21.3305294 14.212766 20.787234 13.6694706 20.787234 12.9995052 20.787234 12.3295398 21.3305294 11.7862444 21.9995052 11.7862444 22.6694706 11.7862444 23.212766 12.3295398 23.212766 12.9995052M19 12.9995052C19 14.6571004 20.3428996 16 21.9995052 16 23.6571004 16 25 14.6571004 25 12.9995052 25 11.3428996 23.6571004 10 21.9995052 10 20.3428996 10 19 11.3428996 19 12.9995052M4.21306069 12.9995052C4.21306069 13.6694706 3.66985488 14.212766 2.99901055 14.212766 2.33014512 14.212766 1.78693931 13.6694706 1.78693931 12.9995052 1.78693931 12.3295398 2.33014512 11.7862444 2.99901055 11.7862444 3.66985488 11.7862444 4.21306069 12.3295398 4.21306069 12.9995052M0 12.9995052C0 14.6571004 1.34366755 16 2.99901055 16 4.65633245 16 6 14.6571004 6 12.9995052 6 11.3428996 4.65633245 10 2.99901055 10 1.34366755 10 0 11.3428996 0 12.9995052"/>
    </symbol>
    <symbol id="clogged-pores" viewBox="0 0 45 45">
      <path fill-rule="evenodd" fill="currentColor" stroke="currentColor" stroke-width="2.133" transform="translate(8 14.211)" d="M6.5815 8.6934C6.5815 10.3634 5.2275 11.7154 3.5585 11.7154 1.8885 11.7154.5345 10.3634.5345 8.6934.5345 7.0224 1.8885 5.6704 3.5585 5.6704 5.2275 5.6704 6.5815 7.0224 6.5815 8.6934zM26.4613 3.334C26.4613 5.004 25.1073 6.356 23.4393 6.356 21.7693 6.356 20.4143 5.004 20.4143 3.334 20.4143 1.664 21.7693.311 23.4393.311 25.1073.311 26.4613 1.664 26.4613 3.334zM17.1674 15.9492C17.1674 17.6192 15.8134 18.9722 14.1444 18.9722 12.4744 18.9722 11.1194 17.6192 11.1194 15.9492 11.1194 14.2792 12.4744 12.9272 14.1444 12.9272 15.8134 12.9272 17.1674 14.2792 17.1674 15.9492z"/>
    </symbol>
    <symbol id="dark-spots" viewBox="0 0 45 45">
      <g fill-rule="evenodd" fill="currentColor" transform="translate(13 12.866)">
        <path d="M10.099,7.0722 C8.628,7.0722 7.432,8.2682 7.432,9.7392 C7.432,11.2102 8.628,12.4062 10.099,12.4062 C11.57,12.4062 12.766,11.2102 12.766,9.7392 C12.766,8.2682 11.57,7.0722 10.099,7.0722 M10.099,14.5392 C7.453,14.5392 5.299,12.3852 5.299,9.7392 C5.299,7.0932 7.453,4.9392 10.099,4.9392 C12.745,4.9392 14.899,7.0932 14.899,9.7392 C14.899,12.3852 12.745,14.5392 10.099,14.5392"/>
        <path d="M10.1,2.6113 C6.168,2.6113 2.97,5.8083 2.97,9.7393 C2.97,13.6703 6.168,16.8673 10.1,16.8673 C14.031,16.8673 17.228,13.6703 17.228,9.7393 C17.228,5.8083 14.031,2.6113 10.1,2.6113 M10.1,19.0003 C4.993,19.0003 0.837,14.8453 0.837,9.7393 C0.837,4.6323 4.993,0.4783 10.1,0.4783 C15.206,0.4783 19.361,4.6323 19.361,9.7393 C19.361,14.8453 15.206,19.0003 10.1,19.0003"/>
      </g>
    </symbol>
    <symbol id="firmness" viewBox="0 0 45 45">
      <path fill="none" fill-rule="evenodd" stroke="currentColor" stroke-linecap="round" stroke-linejoin="round" stroke-width="2" transform="translate(7 10)" d="M16.94667 25.994085L21.17167 17.206735M23.45304 23.712715L14.66569 19.488365M19.06931 9.2274L23.29431.44005M25.57568 6.94603L16.78833 2.72168M2.44543 15.55346L6.67043 6.76546M8.9518 13.27209L.16445 9.04709"/>
    </symbol>
    <symbol id="skin-texture" viewBox="0 0 45 45">
      <g fill="none" fill-rule="evenodd" stroke="currentColor" stroke-linecap="round" stroke-linejoin="round" stroke-width="2" transform="rotate(45 8.843 29.364)">
        <path d="M0 14.5L28 14.5M2 22.5L26 22.5M2 6.5L26 6.5"/>
        <path d="M0,14.5 L28,14.5" transform="rotate(90 14 14.5)"/>
        <path d="M-6,14.5 L18,14.5" transform="rotate(90 6 14.5)"/>
        <path d="M10,14.5 L34,14.5" transform="rotate(90 22 14.5)"/>
      </g>
    </symbol>
    <symbol id="wrinkles" viewBox="0 0 45 45">
      <path fill="none" fill-rule="evenodd" stroke="currentColor" stroke-linecap="round" stroke-linejoin="round" stroke-width="2" transform="translate(8 9)" d="M10.4142857 25.2428571L21.8857143 25.2428571M0 19.2428571L20 19.2428571M12 13L28.575 13M0 7L16.575 7M8.85714286 1.24285714L22.8571429 1.24285714"/>
    </symbol>
    <symbol id="very-dry" viewBox="0 0 45 45">
      <path fill="none" fill-rule="evenodd" stroke="currentColor" stroke-linecap="round" stroke-width="2" transform="translate(14 13)" d="M14.775953 0C12.5219925 1.99452697 12.3953043 5.48475371 14.5000372 7.6387803 16.4944036 9.68021892 16.5006215 12.9507428 14.5148045 15M8.77595303 0C6.52199246 1.99452697 6.39530433 5.48475371 8.50003716 7.6387803 10.4944036 9.68021892 10.5006215 12.9507428 8.51480449 15M2.77595303 0C.521992459 1.99452697.395304331 5.48475371 2.50003716 7.6387803 4.49440365 9.68021892 4.50062147 12.9507428 2.51480449 15M0 20L16 20"/>
    </symbol>
    <symbol id="often-dry" viewBox="0 0 45 45">
      <path fill="none" fill-rule="evenodd" stroke="currentColor" stroke-linecap="round" stroke-width="2" transform="translate(15 12)" d="M10.775953 0C8.52199246 1.99452697 8.39530433 5.48475371 10.5000372 7.6387803 12.4944036 9.68021892 12.5006215 12.9507428 10.5148045 15M4.77595303 0C2.52199246 1.99452697 2.39530433 5.48475371 4.50003716 7.6387803 6.49440365 9.68021892 6.50062147 12.9507428 4.51480449 15M0 20L16 20"/>
    </symbol>
    <symbol id="combination" viewBox="0 0 45 45">
      <g fill="none" fill-rule="evenodd" stroke-linecap="round" stroke-width="2" transform="translate(12 12)">
        <path stroke="currentColor" d="M18.7559847 12.5169903C18.7559847 13.5201116 17.9151232 14.3333333 16.8780168 14.3333333 15.8408127 14.3333333 15 13.5201116 15 12.5169903 15 11.068268 16.8780168 9.28388178 16.8780168 9.28388178 16.8780168 9.28388178 18.7559847 11.0879519 18.7559847 12.5169903zM18.7559847 3.51699031C18.7559847 4.52011164 17.9151232 5.33333333 16.8780168 5.33333333 15.8408127 5.33333333 15 4.52011164 15 3.51699031 15 2.06826805 16.8780168.283881779 16.8780168.283881779 16.8780168.283881779 18.7559847 2.0879519 18.7559847 3.51699031z"/>
        <path stroke="currentColor" d="M9.77595303 0C7.52199246 1.99452697 7.39530433 5.48475371 9.50003716 7.6387803 11.4944036 9.68021892 11.5006215 12.9507428 9.51480449 15M3.77595303 0C1.52199246 1.99452697 1.39530433 5.48475371 3.50003716 7.6387803 5.49440365 9.68021892 5.50062147 12.9507428 3.51480449 15M0 20L21 20"/>
      </g>
    </symbol>
    <symbol id="often-oily" viewBox="0 0 45 45">
      <g fill="none" fill-rule="evenodd" stroke-linecap="round" stroke-width="2" transform="translate(13 14)">
        <path stroke="currentColor" d="M8 5.76260143C8 7.55053659 6.43289284 9 4.50004548 9 2.5670162 9 1 7.55053659 1 5.76260143 1 3.18043974 4.50004548 0 4.50004548 0 4.50004548 0 8 3.21552369 8 5.76260143zM18 5.76260143C18 7.55053659 16.4328928 9 14.5000455 9 12.5670162 9 11 7.55053659 11 5.76260143 11 3.18043974 14.5000455 0 14.5000455 0 14.5000455 0 18 3.21552369 18 5.76260143z"/>
        <path stroke="currentColor" d="M0,17 L19,17"/>
      </g>
    </symbol>
    <symbol id="very-oily" viewBox="0 0 45 45">
      <g fill="none" fill-rule="evenodd" stroke-linecap="round" stroke-width="2" transform="translate(15 12)">
        <path stroke="currentColor" d="M13,8.96404667 C13,11.7452791 10.537403,14 7.50007147,14 C4.46245403,14 2,11.7452791 2,8.96404667 C2,4.94735071 7.50007147,0 7.50007147,0 C7.50007147,0 13,5.00192574 13,8.96404667 Z"/>
        <path stroke="currentColor" d="M0,19 L15,19"/>
      </g>
    </symbol>
    <symbol id="face" viewBox="0 0 68 68">
      <path fill="none" fill-rule="evenodd" stroke="currentColor" stroke-width="2" transform="translate(15 15)" d="M35.0134375 17.1584393L35.0187813 23.4657578 35.0187813 24.3628985C35.0187813 33.4342244 23.7936406 40.7881059 18.9628906 40.7881059 14.1318437 40.7881059 2.907 33.4342244 2.907 24.3628985L2.907 17.1584393 2.907 16.5771504C2.907 7.50552074 10.0952344.151639259 18.9628906.151639259 27.83025.151639259 35.0187813 7.50552074 35.0187813 16.5771504L35.0134375 17.1584393zM2.90688125 26.6144667C1.38331875 26.6144667.14831875 25.351363.14831875 23.7927556.14831875 22.2344519 1.38331875 20.9710444 2.90688125 20.9710444M35.1163641 26.6144667C36.6396297 26.6144667 37.8746297 25.351363 37.8746297 23.7927556 37.8746297 22.2344519 36.6396297 20.9710444 35.1163641 20.9710444M11.1353062 2.23483407C11.1353062 2.23483407 5.20641562 15.4271156 34.5112437 15.4271156M12.3274375 9.84434296C12.3274375 9.84434296 10.5479687 16.5194467 2.907 16.5771504"/>
    </symbol>
    <symbol id="neck" viewBox="0 0 68 68">
      <g fill="none" fill-rule="evenodd" stroke="currentColor" stroke-width="2" transform="translate(14 18)">
        <path stroke-linecap="round" d="M35.8656,0 L35.8706,6.307 L35.8706,7.205 C35.8706,16.275 24.6446,23.63 19.8146,23.63 C14.9836,23.63 3.7596,16.275 3.7596,7.205 L3.7596,0"/>
        <path d="M3.7581 8.456C2.01598661 8.456.603307654 7.0112927.603307654 5.228.603307654 3.44585117 2.01598661 2 3.7581 2M35.9681 8.456C37.4911 8.456 38.7261 7.193 38.7261 5.634 38.7261 4.076 37.4911 2.812 35.9681 2.812"/>
        <path stroke-linecap="round" d="M11.3089 20.54C10.8299 25.453 8.7549 29.64 5.8359 31.16L.9999 33.678M29.0003 20.54C29.4793 25.453 31.5533 29.64 34.4733 31.16L39.3093 33.678"/>
      </g>
    </symbol>
    <symbol id="shoulders-chest-back" viewBox="0 0 68 68">
      <path fill="none" fill-rule="evenodd" stroke="currentColor" stroke-linecap="round" stroke-width="2" transform="translate(13 17)" d="M15 5C13.486058 3.70209553 12.8791689 1.97942231 12 0M27 5C28.5147622 3.70209553 29.1216512 1.97942231 30 0M15 5C14.5398719 7.8700366 13.2721187 10.2409364 11.5573341 11.1584145L8.4080326 12.8452455C1.66065192 16.385885 2.29278231 23.6467095 0 31M5 22C5 22 6.02072778 28.7725114 7 31M27 5C27.4609743 7.8700366 28.7277807 10.2409364 30.4424655 11.1584145L33.5924568 12.8452455C40.3394447 16.385885 39.7064781 23.6467095 42 31M37 22C37 22 35.978351 28.7725114 35 31"/>
    </symbol>
    <symbol id="other" viewBox="0 0 68 68">
      <g fill="currentColor" fill-rule="evenodd">
        <circle cx="24" cy="34" r="2"/>
        <circle cx="34" cy="34" r="2"/>
        <circle cx="44" cy="34" r="2"/>
      </g>
    </symbol>
    <symbol id="none" viewBox="0 0 45 45">
      <g fill="none" fill-rule="evenodd" stroke="currentColor" stroke-width="2" transform="translate(16 16)">
        <circle cx="6.5" cy="6.5" r="6.5"/>
        <path stroke-linecap="square" d="M2.5,2.5 L10.2781746,10.2781746"/>
      </g>
    </symbol>
    <symbol id="1-2" viewBox="0 0 45 45">
      <path fill-rule="evenodd" fill="currentColor" d="M4.21306069,2.9995052 C4.21306069,3.66947056 3.66985488,4.21276596 2.99901055,4.21276596 C2.33014512,4.21276596 1.78693931,3.66947056 1.78693931,2.9995052 C1.78693931,2.32953983 2.33014512,1.78624443 2.99901055,1.78624443 C3.66985488,1.78624443 4.21306069,2.32953983 4.21306069,2.9995052 M0,2.9995052 C0,4.65710045 1.34366755,6 2.99901055,6 C4.65633245,6 6,4.65710045 6,2.9995052 C6,1.34289955 4.65633245,0 2.99901055,0 C1.34366755,0 0,1.34289955 0,2.9995052" transform="translate(20 20)"/>
    </symbol>
    <symbol id="3-4" viewBox="0 0 45 45">
      <path fill-rule="evenodd" fill="currentColor" transform="rotate(90 10 23.5)" d="M13.9995052 18.2130607C13.3295398 18.2130607 12.7862444 17.6698549 12.7862444 17 12.7862444 16.3311346 13.3295398 15.7879288 13.9995052 15.7879288 14.6694706 15.7879288 15.212766 16.3311346 15.212766 17 15.212766 17.6698549 14.6694706 18.2130607 13.9995052 18.2130607M13.9995052 14C12.3428996 14 11 15.3436675 11 17 11 18.6563325 12.3428996 20 13.9995052 20 15.6571004 20 17 18.6563325 17 17 17 15.3436675 15.6571004 14 13.9995052 14M13.9995052 4.71207124C13.3295398 4.71207124 12.7862444 4.16886544 12.7862444 3.49901055 12.7862444 2.83014512 13.3295398 2.28693931 13.9995052 2.28693931 14.6694706 2.28693931 15.212766 2.83014512 15.212766 3.49901055 15.212766 4.16886544 14.6694706 4.71207124 13.9995052 4.71207124M13.9995052.5C12.3428996.5 11 1.84366755 11 3.49901055 11 5.15633245 12.3428996 6.5 13.9995052 6.5 15.6571004 6.5 17 5.15633245 17 3.49901055 17 1.84366755 15.6571004.5 13.9995052.5M4.21306069 10.4995052C4.21306069 11.1694706 3.66985488 11.712766 2.99901055 11.712766 2.33014512 11.712766 1.78693931 11.1694706 1.78693931 10.4995052 1.78693931 9.82953983 2.33014512 9.28624443 2.99901055 9.28624443 3.66985488 9.28624443 4.21306069 9.82953983 4.21306069 10.4995052M0 10.4995052C0 12.1571004 1.34366755 13.5 2.99901055 13.5 4.65633245 13.5 6 12.1571004 6 10.4995052 6 8.84289955 4.65633245 7.5 2.99901055 7.5 1.34366755 7.5 0 8.84289955 0 10.4995052"/>
    </symbol>
    <symbol id="5-6" viewBox="0 0 45 45">
      <g fill="currentColor" fill-rule="evenodd" transform="translate(10 11)">
        <path d="M4.21306069,3.4995052 C4.21306069,4.16947056 3.66985488,4.71276596 2.99901055,4.71276596 C2.33014512,4.71276596 1.78693931,4.16947056 1.78693931,3.4995052 C1.78693931,2.82953983 2.33014512,2.28624443 2.99901055,2.28624443 C3.66985488,2.28624443 4.21306069,2.82953983 4.21306069,3.4995052 M0,3.4995052 C0,5.15710045 1.34366755,6.5 2.99901055,6.5 C4.65633245,6.5 6,5.15710045 6,3.4995052 C6,1.84289955 4.65633245,0.5 2.99901055,0.5 C1.34366755,0.5 0,1.84289955 0,3.4995052" transform="rotate(90 8 8.5)"/>
        <path d="M4.21306069,3.4995052 C4.21306069,4.16947056 3.66985488,4.71276596 2.99901055,4.71276596 C2.33014512,4.71276596 1.78693931,4.16947056 1.78693931,3.4995052 C1.78693931,2.82953983 2.33014512,2.28624443 2.99901055,2.28624443 C3.66985488,2.28624443 4.21306069,2.82953983 4.21306069,3.4995052 M0,3.4995052 C0,5.15710045 1.34366755,6.5 2.99901055,6.5 C4.65633245,6.5 6,5.15710045 6,3.4995052 C6,1.84289955 4.65633245,0.5 2.99901055,0.5 C1.34366755,0.5 0,1.84289955 0,3.4995052" transform="rotate(90 3.5 13)"/>
        <path d="M4.21306069,3.4995052 C4.21306069,4.16947056 3.66985488,4.71276596 2.99901055,4.71276596 C2.33014512,4.71276596 1.78693931,4.16947056 1.78693931,3.4995052 C1.78693931,2.82953983 2.33014512,2.28624443 2.99901055,2.28624443 C3.66985488,2.28624443 4.21306069,2.82953983 4.21306069,3.4995052 M0,3.4995052 C0,5.15710045 1.34366755,6.5 2.99901055,6.5 C4.65633245,6.5 6,5.15710045 6,3.4995052 C6,1.84289955 4.65633245,0.5 2.99901055,0.5 C1.34366755,0.5 0,1.84289955 0,3.4995052" transform="rotate(90 -1 8.5)"/>
        <path d="M4.21306069,3.4995052 C4.21306069,4.16947056 3.66985488,4.71276596 2.99901055,4.71276596 C2.33014512,4.71276596 1.78693931,4.16947056 1.78693931,3.4995052 C1.78693931,2.82953983 2.33014512,2.28624443 2.99901055,2.28624443 C3.66985488,2.28624443 4.21306069,2.82953983 4.21306069,3.4995052 M0,3.4995052 C0,5.15710045 1.34366755,6.5 2.99901055,6.5 C4.65633245,6.5 6,5.15710045 6,3.4995052 C6,1.84289955 4.65633245,0.5 2.99901055,0.5 C1.34366755,0.5 0,1.84289955 0,3.4995052" transform="rotate(90 8 17.5)"/>
        <path d="M4.21306069,3.4995052 C4.21306069,4.16947056 3.66985488,4.71276596 2.99901055,4.71276596 C2.33014512,4.71276596 1.78693931,4.16947056 1.78693931,3.4995052 C1.78693931,2.82953983 2.33014512,2.28624443 2.99901055,2.28624443 C3.66985488,2.28624443 4.21306069,2.82953983 4.21306069,3.4995052 M0,3.4995052 C0,5.15710045 1.34366755,6.5 2.99901055,6.5 C4.65633245,6.5 6,5.15710045 6,3.4995052 C6,1.84289955 4.65633245,0.5 2.99901055,0.5 C1.34366755,0.5 0,1.84289955 0,3.4995052" transform="rotate(90 -1 17.5)"/>
      </g>
    </symbol>
    <symbol id="7" viewBox="0 0 45 45">
      <g fill="currentColor" fill-rule="evenodd" transform="translate(11 10)">
        <path d="M4.21306069,3.4995052 C4.21306069,4.16947056 3.66985488,4.71276596 2.99901055,4.71276596 C2.33014512,4.71276596 1.78693931,4.16947056 1.78693931,3.4995052 C1.78693931,2.82953983 2.33014512,2.28624443 2.99901055,2.28624443 C3.66985488,2.28624443 4.21306069,2.82953983 4.21306069,3.4995052 M0,3.4995052 C0,5.15710045 1.34366755,6.5 2.99901055,6.5 C4.65633245,6.5 6,5.15710045 6,3.4995052 C6,1.84289955 4.65633245,0.5 2.99901055,0.5 C1.34366755,0.5 0,1.84289955 0,3.4995052" transform="rotate(90 7.5 8)"/>
        <path d="M4.21306069,3.4995052 C4.21306069,4.16947056 3.66985488,4.71276596 2.99901055,4.71276596 C2.33014512,4.71276596 1.78693931,4.16947056 1.78693931,3.4995052 C1.78693931,2.82953983 2.33014512,2.28624443 2.99901055,2.28624443 C3.66985488,2.28624443 4.21306069,2.82953983 4.21306069,3.4995052 M0,3.4995052 C0,5.15710045 1.34366755,6.5 2.99901055,6.5 C4.65633245,6.5 6,5.15710045 6,3.4995052 C6,1.84289955 4.65633245,0.5 2.99901055,0.5 C1.34366755,0.5 0,1.84289955 0,3.4995052" transform="rotate(90 1 6.5)"/>
        <path d="M4.21306069,3.4995052 C4.21306069,4.16947056 3.66985488,4.71276596 2.99901055,4.71276596 C2.33014512,4.71276596 1.78693931,4.16947056 1.78693931,3.4995052 C1.78693931,2.82953983 2.33014512,2.28624443 2.99901055,2.28624443 C3.66985488,2.28624443 4.21306069,2.82953983 4.21306069,3.4995052 M0,3.4995052 C0,5.15710045 1.34366755,6.5 2.99901055,6.5 C4.65633245,6.5 6,5.15710045 6,3.4995052 C6,1.84289955 4.65633245,0.5 2.99901055,0.5 C1.34366755,0.5 0,1.84289955 0,3.4995052" transform="rotate(90 9 14.5)"/>
        <path d="M4.21306069,3.4995052 C4.21306069,4.16947056 3.66985488,4.71276596 2.99901055,4.71276596 C2.33014512,4.71276596 1.78693931,4.16947056 1.78693931,3.4995052 C1.78693931,2.82953983 2.33014512,2.28624443 2.99901055,2.28624443 C3.66985488,2.28624443 4.21306069,2.82953983 4.21306069,3.4995052 M0,3.4995052 C0,5.15710045 1.34366755,6.5 2.99901055,6.5 C4.65633245,6.5 6,5.15710045 6,3.4995052 C6,1.84289955 4.65633245,0.5 2.99901055,0.5 C1.34366755,0.5 0,1.84289955 0,3.4995052" transform="rotate(90 4.5 19)"/>
        <path d="M4.21306069,2.9995052 C4.21306069,3.66947056 3.66985488,4.21276596 2.99901055,4.21276596 C2.33014512,4.21276596 1.78693931,3.66947056 1.78693931,2.9995052 C1.78693931,2.32953983 2.33014512,1.78624443 2.99901055,1.78624443 C3.66985488,1.78624443 4.21306069,2.32953983 4.21306069,2.9995052 M0,2.9995052 C0,4.65710045 1.34366755,6 2.99901055,6 C4.65633245,6 6,4.65710045 6,2.9995052 C6,1.34289955 4.65633245,0 2.99901055,0 C1.34366755,0 0,1.34289955 0,2.9995052" transform="rotate(90 -2 17)"/>
        <path d="M4.21306069,2.9995052 C4.21306069,3.66947056 3.66985488,4.21276596 2.99901055,4.21276596 C2.33014512,4.21276596 1.78693931,3.66947056 1.78693931,2.9995052 C1.78693931,2.32953983 2.33014512,1.78624443 2.99901055,1.78624443 C3.66985488,1.78624443 4.21306069,2.32953983 4.21306069,2.9995052 M0,2.9995052 C0,4.65710045 1.34366755,6 2.99901055,6 C4.65633245,6 6,4.65710045 6,2.9995052 C6,1.34289955 4.65633245,0 2.99901055,0 C1.34366755,0 0,1.34289955 0,2.9995052" transform="rotate(90 2.5 12.5)"/>
        <path d="M4.21306069,3.4995052 C4.21306069,4.16947056 3.66985488,4.71276596 2.99901055,4.71276596 C2.33014512,4.71276596 1.78693931,4.16947056 1.78693931,3.4995052 C1.78693931,2.82953983 2.33014512,2.28624443 2.99901055,2.28624443 C3.66985488,2.28624443 4.21306069,2.82953983 4.21306069,3.4995052 M0,3.4995052 C0,5.15710045 1.34366755,6.5 2.99901055,6.5 C4.65633245,6.5 6,5.15710045 6,3.4995052 C6,1.84289955 4.65633245,0.5 2.99901055,0.5 C1.34366755,0.5 0,1.84289955 0,3.4995052" transform="rotate(90 -3.5 11)"/>
      </g>
    </symbol>
    <symbol id="always" viewBox="0 0 45 45">
      <g fill="none" fill-rule="evenodd" transform="translate(10 11)">
        <g transform="translate(7 8)">
          <path fill="currentColor" d="M6.24698372,3.71833256 C4.68607674,3.71833256 3.41600698,4.98840233 3.41600698,6.5493093 C3.41600698,8.11021628 4.68607674,9.38028605 6.24698372,9.38028605 C7.8078907,9.38028605 9.07796047,8.11021628 9.07796047,6.5493093 C9.07796047,4.98840233 7.8078907,3.71833256 6.24698372,3.71833256 M6.24698372,10.891914 C3.85256512,10.891914 1.90437907,8.94403023 1.90437907,6.5493093 C1.90437907,4.1548907 3.85256512,2.20670465 6.24698372,2.20670465 C8.64140233,2.20670465 10.5895884,4.1548907 10.5895884,6.5493093 C10.5895884,8.94403023 8.64140233,10.891914 6.24698372,10.891914"/>
          <g transform="translate(5.442 .099)">
            <polygon points=".262 .204 1.348 .204 1.348 1.289 .262 1.289"/>
            <path fill="currentColor" d="M1.34794884,0.746411628 C1.34794884,1.0463186 1.10487907,1.28908605 0.805274419,1.28908605 C0.505367442,1.28908605 0.262297674,1.0463186 0.262297674,0.746411628 C0.262297674,0.446504651 0.505367442,0.203737209 0.805274419,0.203737209 C1.10487907,0.203737209 1.34794884,0.446504651 1.34794884,0.746411628" mask="url(#always-b)"/>
          </g>
          <path fill="currentColor" d="M2.59724884 2.13203023C2.80917907 2.34396047 2.80917907 2.68770465 2.59724884 2.89963488 2.3853186 3.11156512 2.04157442 3.11156512 1.82964419 2.89963488 1.61771395 2.68770465 1.61771395 2.34396047 1.82964419 2.13203023 2.04157442 1.9201 2.3853186 1.9201 2.59724884 2.13203023M.542825581 6.00660465C.842430233 6.00660465 1.0855 6.24967442 1.0855 6.54927907 1.0855 6.84918605.842430233 7.09195349.542825581 7.09195349.242918605 7.09195349.000151162791 6.84918605.000151162791 6.54927907.000151162791 6.24967442.242918605 6.00660465.542825581 6.00660465M1.82976512 10.199014C2.04169535 9.98708372 2.38513721 9.98708372 2.59736977 10.199014 2.8093 10.4109442 2.8093 10.7546884 2.59736977 10.9666186 2.38513721 11.1785488 2.04169535 11.1785488 1.82976512 10.9666186 1.61783488 10.7546884 1.61783488 10.4109442 1.82976512 10.199014M5.70418837 12.2535884C5.70418837 11.9536814 5.94725814 11.710914 6.24686279 11.710914 6.54676977 11.710914 6.78983953 11.9536814 6.78983953 12.2535884 6.78983953 12.5534953 6.54676977 12.7962628 6.24686279 12.7962628 5.94725814 12.7962628 5.70418837 12.5534953 5.70418837 12.2535884M9.89674884 10.9666186C9.6848186 10.7546884 9.6848186 10.4109442 9.89674884 10.199014 10.1086791 9.98708372 10.4524233 9.98708372 10.6643535 10.199014 10.8762837 10.4109442 10.8762837 10.7546884 10.6643535 10.9666186 10.4524233 11.1785488 10.1086791 11.1785488 9.89674884 10.9666186"/>
          <g transform="translate(11.186 5.843)">
            <polygon points=".223 .164 1.308 .164 1.308 1.249 .223 1.249"/>
            <path fill="currentColor" d="M0.765276744,1.2492093 C0.465369767,1.2492093 0.222602326,1.00613953 0.222602326,0.706534884 C0.222602326,0.406627907 0.465369767,0.163860465 0.765276744,0.163860465 C1.0648814,0.163860465 1.30795116,0.406627907 1.30795116,0.706534884 C1.30795116,1.00613953 1.0648814,1.2492093 0.765276744,1.2492093" mask="url(#always-d)"/>
          </g>
          <path fill="currentColor" d="M10.6642326,2.89963488 C10.4523023,3.11156512 10.1088605,3.11156512 9.89662791,2.89963488 C9.68469767,2.68770465 9.68469767,2.34396047 9.89662791,2.13203023 C10.1088605,1.9201 10.4523023,1.9201 10.6642326,2.13203023 C10.8761628,2.34396047 10.8761628,2.68770465 10.6642326,2.89963488"/>
        </g>
        <path stroke="currentColor" stroke-linecap="round" stroke-linejoin="round" stroke-width="2" d="M0 6L26 6 26 20C26 22.209139 24.209139 24 22 24L4 24C1.790861 24 2.705415e-16 22.209139 0 20L0 6zM3 0L23 0C24.6568542-3.04359188e-16 26 1.34314575 26 3L26 6 0 6 0 3C-2.02906125e-16 1.34314575 1.34314575 3.04359188e-16 3 0z"/>
      </g>
    </symbol>
    <symbol id="most-of-the-time" viewBox="0 0 45 45">
      <g fill="none" fill-rule="evenodd" stroke="currentColor" stroke-linecap="round" stroke-width="2" transform="rotate(45 5.303 36.703)">
        <path d="M10.6960789 23.9651569L3.28633239 23.9651569C2.50962817 23.9651569 1.86740282 23.3474972 1.82086761 22.5556361L.523402817.503552778 13.4590085.503552778 12.1615437 22.5556361C12.1150085 23.3474972 11.4725859 23.9651569 10.6960789 23.9651569zM.98959236 5.0502094L13.2272197 5.0502094"/>
        <polygon stroke-linejoin="round" points="3.569 28.332 10.614 28.332 10.614 23.965 3.569 23.965"/>
      </g>
    </symbol>
    <symbol id="sometimes" viewBox="0 0 45 45">
      <g fill="none" fill-rule="evenodd" stroke="currentColor" stroke-width="2" transform="translate(12 11)">
        <path stroke-linecap="round" stroke-linejoin="round" d="M10.242744 7.49140854L19.896584 7.49140854C20.955264 7.49140854 21.821584 8.3592378 21.821584 9.4197622 21.821584 10.4805671 20.955264 11.3483963 19.896584 11.3483963L15.282744 11.3483963 15.918624 11.3483963C16.977584 11.3483963 17.843904 12.2162256 17.843904 13.2770305 17.843904 14.3378354 16.977584 15.2053841 15.918624 15.2053841L15.282744 15.2053841M15.282744 15.2055244L15.918624 15.2055244C16.977584 15.2055244 17.843904 16.0733537 17.843904 17.1341585 17.843904 18.1946829 16.977584 19.0625122 15.918624 19.0625122L14.238624 19.0625122M1.51333953 19.820756C1.51333953 19.820756 4.01413164 22.9197244 7.93921015 22.9197244L14.238624 22.9197244C15.297584 22.9197244 16.163904 22.0518951 16.163904 20.9910902 16.163904 19.9305659 15.297584 19.0627366 14.238624 19.0627366"/>
        <path stroke-linecap="round" stroke-linejoin="round" d="M1.35602,19.4909676 C-0.108020336,17.6381674 -0.487617049,13.0631153 0.876278911,10.4274875 C2.24017487,7.79185963 3.63242,7.10750488 5.61398,6.4124561 C6.53294,6.08989512 7.34746,5.77378537 7.58826,5.68935854 C9.99906,4.84593171 9.76106,5.43102927 12.33146,7.25111463"/>
        <path d="M20.876444,2.1436561 L19.353244,0.0599121951 L17.835924,2.10887561 C17.621724,2.41124146 17.494604,2.77980244 17.494604,3.17837561 C17.494604,4.20103415 18.322284,5.03043659 19.343164,5.03043659 C20.364044,5.03043659 21.191724,4.20103415 21.191724,3.17837561 C21.191724,2.79522927 21.075524,2.43929024 20.876444,2.1436561 Z"/>
      </g>
    </symbol>
    <symbol id="never" viewBox="0 0 45 45">
      <g fill="none" fill-rule="evenodd" stroke="currentColor" stroke-width="2" transform="translate(16 16)">
        <circle cx="6.5" cy="6.5" r="6.5"/>
        <path stroke-linecap="square" d="M2.5,2.5 L10.2781746,10.2781746"/>
      </g>
    </symbol>
    <symbol id="male" viewBox="0 0 45 45">
      <g fill="none" fill-rule="evenodd" stroke="currentColor" stroke-linecap="round" stroke-width="2" transform="translate(10 10)">
        <path d="M22.6547093 10.7352267L22.6581977 14.7166933 22.6581977 15.2823378C22.6581977 21.0086933 15.364593 25.65056 12.2256395 25.65056 9.08610465 25.65056 1.7925 21.0086933 1.7925 15.2823378L1.7925 10.7352267 1.7925 10.36776C1.7925 4.64198222 6.46343023.000115555556 12.2256395.000115555556 17.9872674.000115555556 22.6581977 4.64198222 22.6581977 10.36776L22.6547093 10.7352267zM1.79232558 15.5487511C.802209302 15.5487511-.00011627907 14.75084-.00011627907 13.7674622-.00011627907 12.7835067.802209302 11.9861733 1.79232558 11.9861733M22.7217442 15.5487511C23.7118605 15.5487511 24.514186 14.75084 24.514186 13.7674622 24.514186 12.7835067 23.7118605 11.9861733 22.7217442 11.9861733"/>
        <path d="M1.7922661,10.7352267 C1.78299358,7.17669333 3.94869741,4.20864889 8.49347777,5.60860444 C11.0202291,6.39669333 13.2545378,6.70522667 15.9533827,5.60860444 C20.4981631,4.20864889 22.6638669,7.17669333 22.6545944,10.7352267"/>
      </g>
    </symbol>
    <symbol id="female" viewBox="0 0 45 45">
      <g fill="none" fill-rule="evenodd" stroke="currentColor" stroke-linecap="round" stroke-width="2" transform="translate(10 10)">
        <path d="M22.6547093 10.7352267L22.6581977 14.7166933 22.6581977 15.2823378C22.6581977 21.0086933 15.364593 25.65056 12.2256395 25.65056 9.08610465 25.65056 1.7925 21.0086933 1.7925 15.2823378L1.7925 10.7352267 1.7925 10.36776C1.7925 4.64198222 6.46343023.000115555556 12.2256395.000115555556 17.9872674.000115555556 22.6581977 4.64198222 22.6581977 10.36776L22.6547093 10.7352267zM1.79232558 14.9709733C.802209302 14.9709733-.00011627907 14.1730622-.00011627907 13.1896844-.00011627907 12.2057289.802209302 11.4083956 1.79232558 11.4083956M22.7217442 14.9709733C23.7118605 14.9709733 24.514186 14.1730622 24.514186 13.1896844 24.514186 12.2057289 23.7118605 11.4083956 22.7217442 11.4083956M7.15180233 1.28544C7.15180233 1.28544 3.37680233 11.1793067 22.036686 11.1793067M7.91093023 7.14838222C7.91093023 7.14838222 6.7777907 11.2771822 1.91209302 11.3130044"/>
        <polyline points="1.792 10.735 1.792 23.367 6.838 23.367"/>
        <polyline points="22.658 10.735 22.658 23.367 17.612 23.367"/>
      </g>
    </symbol>
    <symbol id="niacinamide" viewBox="0 0 80 80">
      <g fill="none" fill-rule="evenodd">
        <circle cx="40" cy="40" r="40" fill="#FEFEFE"/>
        <path stroke="#322E53" stroke-linecap="round" stroke-linejoin="round" stroke-width="2" d="M53.6038 53.9704L62.1048 64.4734M18.9998 15.0001L26.4328 24.1831M27.7034 53.7199L18.9994 64.4729M61.2117 15.0001L53.7787 24.1831"/>
        <path fill="#FEFEFE" d="M59.0477,26.6637 C55.2447,26.6637 52.1617,23.5807 52.1617,19.7777 L29.3177,19.7777 C29.3177,23.5807 26.2347,26.6637 22.4317,26.6637 L22.4317,42.1927 C22.4317,46.8137 24.6367,51.1577 28.3657,53.8867 L40.7447,62.9407 L53.1237,53.8867 C56.8537,51.1577 59.0587,46.8137 59.0587,42.1927 L59.0587,26.6637 C59.0547,26.6637 59.0507,26.6637 59.0477,26.6637"/>
        <path stroke="#322E53" stroke-linecap="round" stroke-linejoin="round" stroke-width="2" d="M59.0477,26.6637 C55.2447,26.6637 52.1617,23.5807 52.1617,19.7777 L29.3177,19.7777 C29.3177,23.5807 26.2347,26.6637 22.4317,26.6637 L22.4317,42.1927 C22.4317,46.8137 24.6367,51.1577 28.3657,53.8867 L40.7447,62.9407 L53.1237,53.8867 C56.8537,51.1577 59.0587,46.8137 59.0587,42.1927 L59.0587,26.6637 C59.0547,26.6637 59.0507,26.6637 59.0477,26.6637 Z"/>
        <path fill="#322E53" d="M33.2747 38.7077L32.1467 38.7077 32.1467 36.4527 33.2247 36.4527C33.7347 36.4527 34.5897 36.6027 34.5897 37.6047 34.5897 38.2747 34.0737 38.7077 33.2747 38.7077M33.6127 42.6357L32.1467 42.6357 32.1467 40.2057 33.6127 40.2057C34.5677 40.2057 35.1157 40.6397 35.1157 41.3957 35.1157 42.1837 34.5677 42.6357 33.6127 42.6357M35.4597 39.2767C35.9427 38.8367 36.1877 38.2547 36.1877 37.5427 36.1877 35.9627 35.0247 34.9417 33.2247 34.9417L30.7857 34.9417C30.6617 34.9417 30.5627 35.0417 30.5627 35.1657L30.5627 43.9227C30.5627 44.0457 30.6617 44.1457 30.7857 44.1457L33.6127 44.1457C35.5037 44.1457 36.7257 43.0757 36.7257 41.4197 36.7257 40.4727 36.2597 39.6947 35.4597 39.2767M49.7171 39.3576C50.2111 39.0186 50.6281 38.4026 50.6281 37.4676 50.6281 35.8596 49.5431 34.7796 47.9271 34.7796 46.2641 34.7796 45.1901 35.9036 45.1901 37.6426 45.1901 37.7656 45.2901 37.8656 45.4131 37.8656L46.5511 37.8656C46.6751 37.8656 46.7751 37.7656 46.7751 37.6426 46.7751 36.7826 47.1991 36.2896 47.9401 36.2896 48.8891 36.2896 49.0301 37.0436 49.0301 37.4916 49.0301 38.1036 48.8421 38.6706 47.4771 38.6706L47.2021 38.6706C47.0791 38.6706 46.9791 38.7706 46.9791 38.8936L46.9791 39.8946C46.9791 40.0176 47.0791 40.1176 47.2021 40.1176L47.4901 40.1176C48.3301 40.1176 49.3301 40.3586 49.3301 41.5086 49.3301 42.2916 48.8141 42.7976 48.0151 42.7976 47.3651 42.7976 46.5871 42.5566 46.5741 41.4056 46.5731 41.2836 46.4741 41.1846 46.3511 41.1846L45.2251 41.1846C45.1021 41.1846 45.0021 41.2846 45.0021 41.4076 45.0021 43.1966 46.1471 44.3076 47.9901 44.3076 49.7201 44.3076 50.9281 43.1716 50.9281 41.5456 50.9281 40.4066 50.3481 39.7006 49.7171 39.3576"/>
        <path stroke="#322E53" stroke-linecap="round" stroke-linejoin="round" stroke-width="2" d="M40.4866 20.3585L40.4866 61.7315M22.6815 39.5436L25.2735 39.5436M58.6927 39.5436L56.0317 39.5436"/>
      </g>
    </symbol>
    <symbol id="zinc" viewBox="0 0 80 80">
      <g fill="none" fill-rule="evenodd">
        <path fill="#FEFEFE" d="M79.9998,40.0001 C79.9998,62.0911 62.0918,80.0001 39.9998,80.0001 C17.9088,80.0001 -0.0002,62.0911 -0.0002,40.0001 C-0.0002,17.9091 17.9088,0.0001 39.9998,0.0001 C62.0918,0.0001 79.9998,17.9091 79.9998,40.0001"/>
        <path stroke="currentColor" stroke-linecap="round" stroke-linejoin="round" stroke-width="2" d="M32.1624 64.2931L36.6564 62.1991M40.3377 72.2765L42.6667 66.8305M58.2581 41.7521L60.3911 37.9551M63.01 44.6964L66.674 41.9894M50.3592 67.6969L51.7002 71.7139M61.0559 41.3253C57.8499 39.5223 53.7909 39.3753 50.2489 40.8863 46.3699 42.5423 44.3409 45.6533 42.1119 49.0343 40.7089 51.1643 39.1099 53.1583 37.2359 54.8903 35.3689 56.6173 33.7019 59.0563 33.8499 61.7023 34.2539 68.8933 44.0709 70.4503 49.4839 69.1253 54.6299 67.8643 58.7829 64.1543 62.4089 60.3033 66.2549 56.2203 67.9559 49.7043 64.7659 44.8033 63.7909 43.3023 62.5109 42.1453 61.0559 41.3253zM52.0598 45.795L51.6198 50.095M49.594 47.715L54.089 48.174M57.8284 51.9361L58.4784 56.2091M55.9212 54.4122L60.3882 53.7322M40.0769 21.3575C39.5729 20.6195 39.0149 19.9165 38.4339 19.2475 37.0979 17.7095 35.8319 16.1105 34.4749 14.5905 33.3049 13.2785 32.0339 11.7795 30.4859 10.9055 28.9069 10.0145 26.9149 10.4165 25.8729 11.9015 25.3429 12.6575 24.9949 13.5265 24.7519 14.4135 24.2489 16.2405 23.7519 18.0695 23.2059 19.8855 22.7359 21.4475 22.1369 22.9695 21.7019 24.5425 21.2959 26.0135 21.0829 27.5575 21.2649 29.0805 21.3179 29.5225 21.4029 29.9605 21.5129 30.3905 22.9349 35.9695 28.6109 39.3385 34.1889 37.9165 35.3559 37.6185 36.6629 37.2095 37.6639 36.5485 38.6829 35.8765 39.8679 34.9095 40.5539 33.9025 41.8949 31.9355 42.6759 29.2255 42.3419 26.8285 42.0639 24.8285 41.2029 23.0065 40.0769 21.3575z"/>
        <path stroke="currentColor" stroke-linecap="round" stroke-width="2" d="M25.9549 22.423L28.8769 24.068M28.2386 21.7843L26.5936 24.7063M32.4334 20.6109L35.3554 22.2559M34.7171 19.9723L33.0721 22.8943"/>
        <path stroke="currentColor" stroke-linecap="round" stroke-linejoin="round" stroke-width="2" d="M40.0769 21.3575L42.4189 19.5615M18.3816 25.2457L21.2516 25.9087M18.0369 45.3663C18.0369 46.5003 17.1179 47.4193 15.9839 47.4193 14.8499 47.4193 13.9309 46.5003 13.9309 45.3663 13.9309 44.2323 14.8499 43.3133 15.9839 43.3133 17.1179 43.3133 18.0369 44.2323 18.0369 45.3663z"/>
        <path stroke="currentColor" stroke-linecap="round" stroke-linejoin="round" stroke-width="2" d="M17.1092 49.1813C17.1092 50.2963 16.2052 51.1993 15.0912 51.1993 13.9772 51.1993 13.0732 50.2963 13.0732 49.1813 13.0732 48.0673 13.9772 47.1633 15.0912 47.1633 16.2052 47.1633 17.1092 48.0673 17.1092 49.1813zM17.0076 53.1153C17.0076 54.1743 16.1496 55.0323 15.0906 55.0323 14.0326 55.0323 13.1746 54.1743 13.1746 53.1153 13.1746 52.0573 14.0326 51.1993 15.0906 51.1993 16.1496 51.1993 17.0076 52.0573 17.0076 53.1153z"/>
        <path stroke="currentColor" stroke-linecap="round" stroke-linejoin="round" stroke-width="2" d="M18.8396 55.8497C18.8396 56.8057 18.0646 57.5807 17.1096 57.5807 16.1526 57.5807 15.3786 56.8057 15.3786 55.8497 15.3786 54.8937 16.1526 54.1197 17.1096 54.1197 18.0646 54.1197 18.8396 54.8937 18.8396 55.8497zM60.6541 22.337C60.6541 23.471 59.7351 24.39 58.6011 24.39 57.4671 24.39 56.5481 23.471 56.5481 22.337 56.5481 21.203 57.4671 20.284 58.6011 20.284 59.7351 20.284 60.6541 21.203 60.6541 22.337z"/>
        <path stroke="currentColor" stroke-linecap="round" stroke-linejoin="round" stroke-width="2" d="M64.4768,23.3043 C64.4768,24.4183 63.5738,25.3223 62.4588,25.3223 C61.3448,25.3223 60.4408,24.4183 60.4408,23.3043 C60.4408,22.1903 61.3448,21.2863 62.4588,21.2863 C63.5738,21.2863 64.4768,22.1903 64.4768,23.3043 Z"/>
        <path stroke="currentColor" stroke-linecap="round" stroke-linejoin="round" stroke-width="2" d="M64.3753,27.2384 C64.3753,28.2974 63.5173,29.1554 62.4583,29.1554 C61.4003,29.1554 60.5423,28.2974 60.5423,27.2384 C60.5423,26.1804 61.4003,25.3214 62.4583,25.3214 C63.5173,25.3214 64.3753,26.1804 64.3753,27.2384 Z"/>
      </g>
    </symbol>
    <symbol id="clindamycin" viewBox="0 0 80 80">
      <g fill="none" fill-rule="evenodd">
        <path fill="#FEFEFE" d="M79.9999,39.9998 C79.9999,62.0918 62.0909,79.9998 39.9999,79.9998 C17.9089,79.9998 -0.0001,62.0918 -0.0001,39.9998 C-0.0001,17.9088 17.9089,-0.0002 39.9999,-0.0002 C62.0909,-0.0002 79.9999,17.9088 79.9999,39.9998"/>
        <path stroke="currentColor" stroke-linecap="round" stroke-width="2" d="M59.0961,63.5897 L45.1871,63.5897 L45.1871,34.6407 C45.1871,30.7997 48.3011,27.6867 52.1411,27.6867 C55.9821,27.6867 59.0961,30.7997 59.0961,34.6407 L59.0961,63.5897 Z"/>
        <polyline stroke="currentColor" stroke-linecap="round" stroke-width="2" points="48.664 27.686 48.664 21.274 55.076 21.274 55.076 27.686"/>
        <path stroke="currentColor" stroke-linecap="round" stroke-width="2" d="M41.7513 21.2743L57.9703 21.2743C61.0153 21.2743 63.4823 23.7423 63.4823 26.7873L63.4823 58.3573M61.5604 16.9764L55.0764 21.2744"/>
        <polygon stroke="currentColor" stroke-linecap="round" stroke-linejoin="round" stroke-width="2" points="41.397 23.129 27.758 25.595 27.758 16.951 41.397 19.417"/>
        <polygon stroke="currentColor" stroke-linecap="round" stroke-width="2" points="45.187 55.409 51.87 55.409 51.87 36.646 45.187 36.646"/>
        <path stroke="currentColor" stroke-linecap="round" stroke-linejoin="round" stroke-width="2" d="M23.9427,63.4598 C23.9427,63.4598 16.1147,61.9448 15.7027,53.4468 C15.3777,46.7648 20.1467,41.8308 20.1467,41.8308 C20.1467,41.8308 20.9237,44.1148 20.9237,46.6038 C20.9237,46.6038 24.6567,44.3778 26.0567,41.0578 C27.4567,37.7378 27.6117,33.5378 27.6117,33.5378 C27.6117,33.5378 30.2557,38.1158 31.8117,41.8308 C33.3667,45.5458 33.5327,46.2068 33.5327,46.2068 C33.5327,46.2068 34.9717,42.9748 35.4637,41.6608 C35.4637,41.6608 38.3377,45.6838 38.0087,51.6758 C37.6807,57.6678 34.6567,63.3838 28.2377,63.3838 C28.2377,63.3838 29.1467,62.0408 29.3897,58.4058 C29.6577,54.4088 26.3677,51.2848 26.3677,51.2848 C26.3677,51.2848 19.2637,55.4628 23.9427,63.4598 Z"/>
      </g>
    </symbol>
    <symbol id="vitamin-c" viewBox="0 0 80 80">
      <g fill="none" fill-rule="evenodd">
        <path fill="#FEFEFE" d="M80,39.9999 C80,62.0919 62.091,79.9999 40,79.9999 C17.909,79.9999 0,62.0919 0,39.9999 C0,17.9089 17.909,-0.0001 40,-0.0001 C62.091,-0.0001 80,17.9089 80,39.9999"/>
        <path fill="#FEFEFE" d="M80,39.9999 C80,62.0919 62.091,79.9999 40,79.9999 C17.909,79.9999 0,62.0919 0,39.9999 C0,17.9089 17.909,-0.0001 40,-0.0001 C62.091,-0.0001 80,17.9089 80,39.9999"/>
        <g transform="translate(24 12)">
          <path fill="#FEFEFE" d="M0.9473,57.162 L31.2553,0.838"/>
          <path stroke="currentColor" stroke-linecap="round" stroke-linejoin="round" stroke-width="2" d="M0.9473,57.162 L31.2553,0.838"/>
        </g>
        <polyline stroke="currentColor" stroke-linecap="round" stroke-linejoin="round" stroke-width="2" points="53.376 20.166 67.276 27.52 55.225 12.968"/>
        <g transform="translate(24 12)">
          <path fill="#FEFEFE" d="M31.0527,57.162 L0.7447,0.838"/>
          <path stroke="currentColor" stroke-linecap="round" stroke-linejoin="round" stroke-width="2" d="M31.0527,57.162 L0.7447,0.838"/>
        </g>
        <polyline stroke="currentColor" stroke-linecap="round" stroke-linejoin="round" stroke-width="2" points="26.625 20.166 12.723 27.52 24.774 12.968"/>
        <path fill="#FEFEFE" d="M26.3056,29.8827 L26.5596,48.8237 C26.6996,56.4727 40.6686,63.1717 40.6686,63.1717 C40.6686,63.1717 54.3826,56.0017 54.2386,48.3487 L53.9446,29.4467 L26.3056,29.8827 Z"/>
        <path stroke="currentColor" stroke-linecap="round" stroke-linejoin="round" stroke-width="2" d="M26.3056,29.8827 L26.5596,48.8237 C26.6996,56.4727 40.6686,63.1717 40.6686,63.1717 C40.6686,63.1717 54.3826,56.0017 54.2386,48.3487 L53.9446,29.4467 L26.3056,29.8827 Z"/>
        <path fill="#FEFEFE" d="M26.3056,29.8827 L26.5596,48.8237 C26.6996,56.4727 40.6686,63.1717 40.6686,63.1717 C40.6686,63.1717 54.3826,56.0017 54.2386,48.3487 L53.9446,29.4467 L26.3056,29.8827 Z"/>
        <path stroke="currentColor" stroke-linecap="round" stroke-linejoin="round" stroke-width="2" d="M26.3056,29.8827 L26.5596,48.8237 C26.6996,56.4727 40.6686,63.1717 40.6686,63.1717 C40.6686,63.1717 54.3826,56.0017 54.2386,48.3487 L53.9446,29.4467 L26.3056,29.8827 Z"/>
        <g transform="translate(34 38)">
          <path fill="#FEFEFE" d="M11.1523,10.8661 C10.0883,11.9661 8.6043,12.6581 6.9533,12.6841 C3.6523,12.7361 0.9333,10.1021 0.8813,6.8011 C0.8293,3.4991 3.4633,0.7811 6.7643,0.7281 C8.3613,0.7031 9.8223,1.3061 10.9103,2.3101"/>
          <path stroke="currentColor" stroke-linecap="round" stroke-linejoin="round" stroke-width="2" d="M11.1523,10.8661 C10.0883,11.9661 8.6043,12.6581 6.9533,12.6841 C3.6523,12.7361 0.9333,10.1021 0.8813,6.8011 C0.8293,3.4991 3.4633,0.7811 6.7643,0.7281 C8.3613,0.7031 9.8223,1.3061 10.9103,2.3101"/>
        </g>
        <path stroke="currentColor" stroke-linecap="round" stroke-linejoin="round" stroke-width="2" d="M40.2724 29.663L40.2724 33.555M40.6689 63.1718L40.6689 56.0808M27.3056 44.7059L29.1936 44.7059M54.1821 44.7059L51.5931 44.7059"/>
      </g>
    </symbol>
    <symbol id="azelaic-acid" viewBox="0 0 80 80">
      <g fill="none" fill-rule="evenodd">
        <path fill="#FEFEFE" d="M80,39.9999 C80,62.0919 62.091,79.9999 40,79.9999 C17.909,79.9999 0,62.0919 0,39.9999 C0,17.9089 17.909,-0.0001 40,-0.0001 C62.091,-0.0001 80,17.9089 80,39.9999"/>
        <g transform="translate(10 13)">
          <path stroke="currentColor" stroke-width="2" d="M23.8354 45.6434C23.8354 46.1054 23.4614 46.4784 23.0004 46.4784 22.5384 46.4784 22.1644 46.1054 22.1644 45.6434 22.1644 45.1824 22.5384 44.8084 23.0004 44.8084 23.4614 44.8084 23.8354 45.1824 23.8354 45.6434zM35.2485 6.3348C35.2485 9.4808 32.6985 12.0298 29.5545 12.0298 26.4095 12.0298 23.8605 9.4808 23.8605 6.3348 23.8605 3.1898 26.4095.6408 29.5545.6408 32.6985.6408 35.2485 3.1898 35.2485 6.3348z"/>
          <path stroke="currentColor" stroke-linecap="round" stroke-linejoin="round" stroke-width="2" d="M25.7637 14.8944L25.7637 22.5394M29.5542 17.1112L29.5542 26.1232M33.6338 15.1063L33.6338 19.7403"/>
          <path fill="currentColor" d="M59.5989591,53.9058294 C59.1029563,54.451155 58.5920889,54.9827186 58.0669972,55.4998801 C56.8375722,55.0150715 55.7268362,54.322058 54.551936,53.3465027 C52.228199,51.4173188 49.9837589,48.9307663 47.2833742,45.4701013 C46.7299718,44.7608913 46.1732501,44.0324681 45.464729,43.0943265 C45.3989069,43.0071725 44.1135956,41.3007469 43.753147,40.8256687 C40.3436114,36.3334148 35.0068136,33.5151 29.6367,33.5151 C24.5766169,33.5151 19.3469976,36.04775 15.7172217,40.0956983 C14.581646,41.3621196 13.6522742,42.6347054 11.9484106,45.1546473 C11.729725,45.4782562 11.729725,45.4782562 11.5101693,45.8031264 C8.86617824,49.7130071 7.37983396,51.5967804 5.27240635,53.3465506 C4.17549958,54.2570721 3.10098652,54.9884176 1.99615518,55.5619421 C1.495806,55.0713131 1.00829322,54.5676406 0.534167238,54.0514749 C1.70613277,53.511786 2.82842373,52.775997 3.99489975,51.8077274 C5.90986517,50.2177561 7.31327447,48.4390935 9.85342,44.6827775 C10.0723386,44.3588499 10.0723386,44.3588499 10.2915988,44.0343908 C12.0449967,41.4411897 13.0130321,40.115662 14.2281837,38.7604958 C18.2233674,34.3050425 23.9842649,31.5151 29.6367,31.5151 C35.6517689,31.5151 41.5691865,34.6400349 45.3463553,39.6166661 C45.7094203,40.0951926 46.996744,41.8042901 47.0607066,41.888982 C47.7634309,42.8194481 48.3142811,43.5401889 48.8601432,44.2397358 C51.4795833,47.5966665 53.6394813,49.9895571 55.8295199,51.8077437 C57.0640718,52.8328295 58.2100562,53.4926571 59.5989591,53.9058294 Z"/>
          <path stroke="currentColor" stroke-width="2" d="M27.478 45.6424C27.478 48.0454 25.53 49.9934 23.127 49.9934 20.726 49.9934 18.779 48.0454 18.779 45.6424 18.779 43.2414 20.726 41.2944 23.127 41.2944 25.53 41.2944 27.478 43.2414 27.478 45.6424zM41.5723 45.6424C41.5723 48.0454 39.6243 49.9934 37.2213 49.9934 34.8203 49.9934 32.8733 48.0454 32.8733 45.6424 32.8733 43.2414 34.8203 41.2944 37.2213 41.2944 39.6243 41.2944 41.5723 43.2414 41.5723 45.6424z"/>
          <path stroke="currentColor" stroke-width="2" d="M38.0571 45.6434C38.0571 46.1054 37.6831 46.4784 37.2221 46.4784 36.7611 46.4784 36.3871 46.1054 36.3871 45.6434 36.3871 45.1824 36.7611 44.8084 37.2221 44.8084 37.6831 44.8084 38.0571 45.1824 38.0571 45.6434zM39.977 56.8417C39.977 58.2807 38.384 59.4587 36.436 59.4587L23.219 59.4587C21.271 59.4587 19.678 58.2807 19.678 56.8417 19.678 55.4027 21.271 54.2247 23.219 54.2247L36.436 54.2247C38.384 54.2247 39.977 55.4027 39.977 56.8417zM23.9253 54.1161L23.9253 59.4231M27.9477 54.1161L27.9477 59.4231M31.9712 54.1161L31.9712 59.4231M35.9946 54.1161L35.9946 59.4231"/>
          <path stroke="currentColor" stroke-linecap="round" stroke-width="2" d="M34.5654,33.7059 C33.4394,35.3719 31.5334,36.4669 29.3714,36.4669 C27.4284,36.4669 25.6914,35.5809 24.5434,34.1909"/>
          <path stroke="currentColor" stroke-width="2" d="M25.522,33.3661 C25.444,33.2731 25.371,33.1771 25.3,33.0771"/>
        </g>
      </g>
    </symbol>
    <symbol id="tretinoin" viewBox="0 0 80 80">
      <g fill="none" fill-rule="evenodd">
        <circle cx="40" cy="40" r="40" fill="#FEFEFE"/>
        <path stroke="currentColor" stroke-linecap="round" stroke-width="2" d="M56.3804 59.3499L48.4184 25.3209 31.3104 25.3209 23.3484 59.3499C23.0134 60.7819 24.1004 62.1529 25.5714 62.1529L54.1574 62.1529C55.6284 62.1529 56.7154 60.7819 56.3804 59.3499zM46.1577 21.0003L33.5707 21.0003C31.3497 21.0003 30.0437 23.4963 31.3107 25.3203L48.4177 25.3203C49.6847 23.4963 48.3797 21.0003 46.1577 21.0003z"/>
        <path stroke="currentColor" stroke-linecap="round" stroke-width="2" d="M23.6582,58.0237 L56.0702,58.0237 L56.0702,54.2577 C56.0702,50.0477 58.4762,46.2107 62.2642,44.3757 C66.0532,42.5407 68.4592,38.7017 68.4592,34.4927 C68.4592,29.3827 64.3182,25.2427 59.2092,25.2427 C55.1092,25.2427 51.5912,27.7347 50.0882,31.2877"/>
        <polyline stroke="currentColor" stroke-linecap="round" stroke-width="2" points="26.707 41.161 16.901 32.148 13.715 34.757 24.656 53.528"/>
        <path stroke="currentColor" stroke-linecap="round" stroke-width="2" d="M37.4712 44.0774C38.2732 44.8804 38.2732 46.1814 37.4712 46.9824 36.6682 47.7854 35.3672 47.7854 34.5652 46.9824 33.7632 46.1814 33.4222 42.9334 33.4222 42.9334 33.4222 42.9334 36.6682 43.2754 37.4712 44.0774zM45.1636 46.9827C44.3606 47.7857 43.0596 47.7857 42.2576 46.9827 41.4556 46.1807 41.4556 44.8797 42.2576 44.0777 43.0596 43.2757 46.3076 42.9337 46.3076 42.9337 46.3076 42.9337 45.9656 46.1807 45.1636 46.9827zM39.8359 51.0774L39.8359 40.3964M43.6694 36.1184C43.6694 38.2164 41.9694 39.9164 39.8714 39.9164 37.7734 39.9164 36.0734 38.2164 36.0734 36.1184L43.6694 36.1184z"/>
        <polyline stroke="currentColor" stroke-linecap="round" stroke-linejoin="round" stroke-width="2" points="16.9 32.147 16.026 27.947 9.608 33.555 13.715 34.757"/>
      </g>
    </symbol>
  </defs>
</svg>

