<svg xmlns="http://www.w3.org/2000/svg" xmlns:xlink="http://www.w3.org/1999/xlink">
  <defs>
    <symbol id="mortor" viewBox="0 0 64 47" stroke="currentColor" stroke-width="3" fill="none">
      <title>Mortor</title>
      <path d="M38.1512791,14.1257774 C38.1512791,14.1257774 45.2243023,9.47206774 46.1898837,8.74245484 C48.2577907,7.18058387 48.6596512,4.24826129 47.0884884,2.19258387 C45.5166279,0.1376 42.5668605,-0.261883871 40.4996512,1.2999871 C39.5333721,2.0296 22.485,14.1257774 22.485,14.1257774"/>
      <path d="M59.410814,14.3509032 L0.349186047,14.3509032 C0.349186047,30.8434839 18.912907,39.4205968 18.912907,39.4205968 L18.912907,42.6539194 L40.8463953,42.6539194 L40.8463953,39.4205968 C40.8463953,39.4205968 59.410814,27.6587097 59.410814,14.3509032 L59.410814,14.3509032 Z"/>
    </symbol>
    <symbol id="chat-bubble" viewBox="0 0 58 59" stroke="currentColor" stroke-width="3" fill="none" stroke-linecap="round">
      <title>Chat Bubble</title>
      <g transform="translate(2.000000, 2.000000)" >
        <path d="M26.9706107,0.347866071 C12.0754824,0.347866071 0,12.4228643 0,27.3184768 C0,32.7297376 1.60009098,37.7648196 4.34372656,41.9879947 L1.31735176,51.8732164 L11.0641087,49.0942384 C15.5240294,52.357843 21.0204993,54.2886034 26.9706107,54.2886034 C41.8662232,54.2886034 53.9412214,42.2136051 53.9412214,27.3184768 C53.9412214,12.4228643 41.8662232,0.347866071 26.9706107,0.347866071 L26.9706107,0.347866071 Z"/>
        <path d="M35.5054986,36.75 L18.4054982,36.75"/>
        <path d="M35.5054986,28.75 L18.4054982,28.75"/>
        <path d="M35.5054986,20.75 L18.4054982,20.75"/>
      </g>
    </symbol>
    <symbol id="dropper" viewBox="0 0 62 75" stroke="currentColor" stroke-width="3" fill="none">
      <title>Dropper</title>
      <path d="M56.0490337,2.19313431 C53.9715157,0.123693137 49.4894434,-0.499993137 47.1121422,1.86876176 L37.5819735,11.3354284 L46.8584795,20.5744775 L56.3879494,11.1078108 C58.7659494,8.73905588 58.1265518,4.26257549 56.0490337,2.19313431 L56.0490337,2.19313431 Z"/>
      <path d="M46.7418506,20.703948 C46.7418506,20.703948 29.0329831,38.1845657 25.3070072,41.896752 C21.5803325,45.6082422 17.8983807,41.1609971 12.2905494,46.7470265 L11.3150313,45.7746049 C16.9221639,40.1892716 12.4575614,36.5209382 16.1842361,32.809448 C19.910212,29.0979578 37.4597542,11.4579382 37.4597542,11.4579382"/>
      <path d="M34.2307614,7.99703627 L50.0535807,23.7583402"/>
      <path d="M11.5633133,61.4470892 L6.51172289,54.576099 L1.48109639,61.3329324 C0.771120482,62.3290206 0.349048193,63.5443735 0.349048193,64.8592657 C0.349048193,68.2317657 3.09391566,70.9652657 6.47887952,70.9652657 C9.86454217,70.9652657 12.6094096,68.2317657 12.6094096,64.8592657 C12.6094096,63.5951873 12.2236747,62.421599 11.5633133,61.4470892 L11.5633133,61.4470892 Z"/>
    </symbol>
    <symbol id="hand-writing" viewBox='0 0 71 76'>
      <title>Hand Writing</title>
      <g fill="none" fill-rule="evenodd" transform="translate(-6)">
          <g transform="rotate(35 34.757 112.118)">
            <polygon stroke="#353A39" stroke-linecap="round" stroke-width="1.458" points=".142 60.601 8.234 60.601 8.234 7.38 .142 7.38"/>
            <path stroke="#353A39" stroke-linecap="round" stroke-width="1.458" d="M0.9988222,6.78151517 L0.9988222,1.62679721 C0.9988222,0.808958911 1.6455949,0.146217804 2.44309129,0.146217804 L5.9330996,0.146217804 C6.73059599,0.146217804 7.37736869,0.808958911 7.37736869,1.62679721 L7.37736869,6.78151517"/>
            <polyline stroke="#353A39" stroke-linecap="round" stroke-width="1.458" points=".142 60.601 4.188 74.393 8.234 60.601"/>
            <polyline stroke="#353A39" stroke-linecap="round" stroke-width=".787" points="8.234 10.306 11.437 10.306 11.437 27.224"/>
            <polygon fill="#353A39" points="2.322 67.941 6.054 67.941 4.188 74.393"/>
          </g>
          <g stroke="#414141" stroke-linecap="round" stroke-width="1.166" transform="scale(-1 1) rotate(21 -155.389 -46.531)">
            <path d="M0.525605926,9.62782934 C0.525605926,9.62782934 6.69211655,10.7509786 6.69211655,8.4674513 C6.69211655,6.183924 6.19960601,7.10400709 6.19960601,8.36591822 C6.19960601,9.62782934 7.87728424,9.73995908 8.88487582,9.30336684 C9.8924674,8.8667746 10.0164871,4.40277362 9.41617068,3.47785562 C8.81585431,2.55293761 9.54746872,7.07983255 10.7168563,8.4674513 C11.8862438,9.85507004 12.4594222,7.30658976 13.854549,7.30658976 C15.2496758,7.30658976 13.1069369,8.95190913 15.1637801,8.23150776 C17.2206233,7.51110639 16.1592612,5.99681304 16.1592612,7.1141604 C16.1592612,8.23150776 18.4268267,7.90128351 19.2619651,7.50772195 C20.0971035,7.1141604 21.3086355,6.53590534 23.2153088,6.82503287" transform="rotate(-14 11.87 6.63)"/>
            <path d="M6.36625919,19.0339732 C6.36625919,19.0339732 10.0653532,19.2997409 10.0653532,17.0162136 C10.0653532,14.7326863 8.66975601,13.1975764 9.51002736,16.0564843 C10.3502987,18.9153921 12.3012242,18.4680981 13.3088158,18.0315059 C14.3164073,17.5949136 14.4288838,16.9814023 13.8285674,16.0564843 C13.228251,15.1315663 12.1394282,16.2178059 13.3088158,17.6054247 C14.4782033,18.9930434 17.2277856,17.0162136 17.2277856,15.8553521 C17.2277856,14.6944905 15.7551812,17.9237334 17.8120244,17.203332 C19.8688676,16.4829307 19.5324978,13.2943395 19.5324978,15.6629227 C19.5324978,18.0315059 21.6557834,16.3985944 23.1766418,15.8553521 C24.6975002,15.3121098 26.8054851,15.0397452 26.8054851,16.3930361" transform="rotate(-12 16.586 16.772)"/>
          </g>
        </g>
    </symbol>
    <symbol id="anxious-emoji-filled" viewBox="0 0 27 33">
      <g fill="none" fill-rule="evenodd">
        <g transform="translate(0 5.084)">
          <path fill="currentColor" d="M22.2671,10.8298385 C22.1951,10.9410231 22.0756,11.0009308 21.9536,11.0009308 C21.8826,11.0009308 21.8116,10.9806231 21.7481,10.9384846 L19.0806,9.15496154 C18.9071,9.03920769 18.8596,8.80262308 18.9736,8.62746923 C19.0871,8.45180769 19.3196,8.40306923 19.4926,8.51882308 L22.1601,10.3023462 C22.3336,10.4175923 22.3816,10.6541769 22.2671,10.8298385 M19.3096,13.4449615 C18.7501,13.4449615 18.2966,12.9844846 18.2966,12.4163769 C18.2966,11.8477615 18.7501,11.3872846 19.3096,11.3872846 C19.8691,11.3872846 20.3221,11.8477615 20.3221,12.4163769 C20.3221,12.9844846 19.8691,13.4449615 19.3096,13.4449615 M7.1111,13.4449615 C6.5516,13.4449615 6.0981,12.9844846 6.0981,12.4163769 C6.0981,11.8477615 6.5516,11.3872846 7.1111,11.3872846 C7.6711,11.3872846 8.1246,11.8477615 8.1246,12.4163769 C8.1246,12.9844846 7.6711,13.4449615 7.1111,13.4449615 M4.4671,11.0009308 C4.3451,11.0009308 4.2256,10.9410231 4.1536,10.8298385 C4.0396,10.6541769 4.0876,10.4181 4.2606,10.3023462 L6.9281,8.51882308 C7.1011,8.40306923 7.3341,8.45180769 7.4471,8.62746923 C7.5616,8.80313077 7.5136,9.03920769 7.3401,9.15496154 L4.6731,10.9384846 C4.6096,10.9806231 4.5381,11.0009308 4.4671,11.0009308 M13.3291,0.347515385 C5.9796,0.347515385 0.0001,6.41900769 0.0001,13.8815769 C0.0001,21.3441462 5.9796,27.4151308 13.3291,27.4151308 C20.6786,27.4151308 26.6576,21.3441462 26.6576,13.8815769 C26.6576,6.41900769 20.6786,0.347515385 13.3291,0.347515385"/>
        </g>
        <path fill="currentColor" d="M11.92725 2.99132308C11.75075 2.99132308 11.59425 2.8644 11.55975 2.68264615L11.13725.452861538C11.09825.246230769 11.23075.0467076923 11.43475.00710769231 11.63625-.033 11.83375.102553846 11.87375.308676923L12.29575 2.53846154C12.33475 2.74509231 12.20225 2.94461538 11.99875 2.98421538 11.97475 2.98929231 11.95075 2.99132308 11.92725 2.99132308M15.50585 2.99132308C15.48235 2.99132308 15.45835 2.98929231 15.43435 2.98421538 15.23085 2.94461538 15.09835 2.74509231 15.13735 2.53846154L15.55935.308676923C15.59835.102553846 15.79235-.033 15.99835.00710769231 16.20235.0467076923 16.33485.246230769 16.29585.452861538L15.87335 2.68264615C15.83885 2.8644 15.68235 2.99132308 15.50585 2.99132308"/>
      </g>
    </symbol>
    <symbol id="anxious-emoji" viewBox="0 0 27 33">
      <g fill="none" fill-rule="evenodd">
        <g transform="translate(0 5.084)">
          <path fill="currentColor" d="M13.3291,1.71818308 C6.7236,1.71818308 1.3496,7.17486 1.3496,13.8814754 C1.3496,20.5880908 6.7236,26.0447677 13.3291,26.0447677 C19.9341,26.0447677 25.3081,20.5880908 25.3081,13.8814754 C25.3081,7.17486 19.9341,1.71818308 13.3291,1.71818308 M13.3291,27.4155369 C5.9796,27.4155369 0.0001,21.3440446 0.0001,13.8814754 C0.0001,6.41890615 5.9796,0.347413846 13.3291,0.347413846 C20.6786,0.347413846 26.6576,6.41890615 26.6576,13.8814754 C26.6576,21.3440446 20.6786,27.4155369 13.3291,27.4155369"/>
        </g>
        <path fill="currentColor" d="M19.30975 18.5290938C18.74975 18.5290938 18.29625 18.0686169 18.29625 17.5005092 18.29625 16.9324015 18.74975 16.4719246 19.30975 16.4719246 19.86925 16.4719246 20.32275 16.9324015 20.32275 17.5005092 20.32275 18.0686169 19.86925 18.5290938 19.30975 18.5290938zM21.9536 16.0854692C21.8826 16.0854692 21.8116 16.0651615 21.7481 16.0225154L19.0806 14.2389923C18.9071 14.1232385 18.8596 13.8871615 18.9736 13.7115 19.0871 13.5363462 19.3196 13.4871 19.4926 13.6028538L22.1601 15.3868846C22.3336 15.5021308 22.3811 15.7382077 22.2671 15.9143769 22.1951 16.0250538 22.0756 16.0854692 21.9536 16.0854692M6.09815 17.5005092C6.09815 18.0686169 6.55165 18.5290938 7.11115 18.5290938 7.67115 18.5290938 8.12465 18.0686169 8.12465 17.5005092 8.12465 16.9324015 7.67115 16.4719246 7.11115 16.4719246 6.55165 16.4719246 6.09815 16.9324015 6.09815 17.5005092M4.4673 16.0854692C4.3453 16.0854692 4.2258 16.0250538 4.1538 15.9143769 4.0398 15.7382077 4.0873 15.5026385 4.2608 15.3868846L6.9283 13.6028538C7.1013 13.4871 7.3338 13.5363462 7.4473 13.7115 7.5613 13.8871615 7.5138 14.1232385 7.3403 14.2389923L4.6728 16.0225154C4.6093 16.0651615 4.5383 16.0854692 4.4673 16.0854692"/>
        <path fill="currentColor" fill-opacity=".2" d="M23.1494 20.8912338C23.1494 21.7517723 22.4624 22.4493415 21.6149 22.4493415 20.7669 22.4493415 20.0799 21.7517723 20.0799 20.8912338 20.0799 20.0301877 20.7669 19.3326185 21.6149 19.3326185 22.4624 19.3326185 23.1494 20.0301877 23.1494 20.8912338M6.375 20.8912338C6.375 21.7517723 5.6875 22.4493415 4.84 22.4493415 3.992 22.4493415 3.305 21.7517723 3.305 20.8912338 3.305 20.0301877 3.992 19.3326185 4.84 19.3326185 5.6875 19.3326185 6.375 20.0301877 6.375 20.8912338"/>
        <path fill="currentColor" d="M11.92725 2.99132308C11.75075 2.99132308 11.59425 2.8644 11.55975 2.68264615L11.13725.452861538C11.09825.246230769 11.23075.0467076923 11.43475.00710769231 11.63625-.033 11.83375.102553846 11.87375.308676923L12.29575 2.53846154C12.33475 2.74509231 12.20225 2.94461538 11.99875 2.98421538 11.97475 2.98929231 11.95075 2.99132308 11.92725 2.99132308M15.50585 2.99132308C15.48235 2.99132308 15.45835 2.98929231 15.43435 2.98421538 15.23085 2.94461538 15.09835 2.74509231 15.13735 2.53846154L15.55935.308676923C15.59835.102553846 15.79235-.033 15.99835.00710769231 16.20235.0467076923 16.33485.246230769 16.29585.452861538L15.87335 2.68264615C15.83885 2.8644 15.68235 2.99132308 15.50585 2.99132308"/>
      </g>
    </symbol>
    <symbol id="overwhelmed-emoji-filled" viewBox="0 0 27 28">
      <g fill="none" fill-rule="evenodd">
        <g transform="translate(0 .161)">
          <path fill="currentColor" d="M25.3081,7.95678545 C25.3081,8.94594909 24.5171,9.75082182 23.5456,9.75082182 C22.5736,9.75082182 21.7831,8.94594909 21.7831,7.95678545 C21.7831,7.32449455 22.6976,5.95758545 23.5456,4.90987636 C24.3936,5.95758545 25.3081,7.32449455 25.3081,7.95678545 M26.6576,7.95678545 C26.6576,6.39896727 24.4811,3.88405818 24.0451,3.39584 L23.5456,2.83736727 L23.0461,3.39634909 C22.9416,3.51344 22.7351,3.74965818 22.4836,4.05918545 C20.0211,1.69293091 16.7276,0.347912727 13.3286,0.347912727 C5.9791,0.347912727 0.0001,6.43613091 0.0001,13.9192582 C0.0001,21.4028945 5.9791,27.4911127 13.3286,27.4911127 C20.6781,27.4911127 26.6576,21.4028945 26.6576,13.9192582 C26.6576,12.5284218 26.4421,11.1625309 26.0361,9.84856727 C26.4246,9.32013091 26.6576,8.66645818 26.6576,7.95678545"/>
        </g>
        <path fill="#FFF" d="M22.15965 14.8252873L19.49265 13.0368509C19.31965 12.9207782 19.08665 12.9696509 18.97365 13.1457964 18.85915 13.3219418 18.90715 13.5586691 19.08065 13.6747418L21.74765 15.4631782C21.81115 15.5054327 21.88215 15.5257964 21.95315 15.5257964 22.07515 15.5257964 22.19465 15.4657236 22.26665 15.3542327 22.38065 15.1780873 22.33315 14.94136 22.15965 14.8252873M7.4468 13.1458982C7.3333 12.9697527 7.1013 12.92088 6.9278 13.0369527L4.2608 14.8253891C4.0873 14.9414618 4.0398 15.1781891 4.1538 15.3543345 4.2258 15.4658255 4.3453 15.5258982 4.4673 15.5258982 4.5383 15.5258982 4.6093 15.5055345 4.6728 15.46328L7.3398 13.6748436C7.5133 13.5587709 7.5613 13.3220436 7.4468 13.1458982M7.25295 16.2941164C6.58695 16.2941164 5.96695 16.6667709 5.63445 17.2674982 5.54195 17.4339709 5.58645 17.6432073 5.73645 17.7582618 5.88595 17.8738255 6.09745 17.8575345 6.22995 17.7205891 6.24545 17.7048073 6.61895 17.3275709 7.25295 17.3275709 7.88195 17.3275709 8.25445 17.6986982 8.27545 17.72008 8.34845 17.7969527 8.44645 17.8361527 8.54495 17.8361527 8.62295 17.8361527 8.70095 17.8117164 8.76795 17.7613164 8.91995 17.6467709 8.96445 17.43448 8.87145 17.2669891 8.53895 16.6667709 7.91895 16.2941164 7.25295 16.2941164M18.84865 16.2941164C18.18265 16.2941164 17.56265 16.6667709 17.23015 17.2674982 17.13715 17.4354982 17.18165 17.64728 17.33365 17.7618255 17.40065 17.8122255 17.47865 17.8366618 17.55665 17.8366618 17.65565 17.8366618 17.75465 17.7964436 17.82815 17.7185527 17.83165 17.71448 18.21215 17.3275709 18.84865 17.3275709 19.47765 17.3275709 19.85015 17.6986982 19.87115 17.72008 20.00265 17.8575345 20.21265 17.8753527 20.36365 17.7613164 20.51565 17.6467709 20.56015 17.43448 20.46715 17.2669891 20.13465 16.6667709 19.51465 16.2941164 18.84865 16.2941164"/>
      </g>
    </symbol>
    <symbol id="overwhelmed-emoji" viewBox="0 0 27 28">
      <g fill="none" fill-rule="evenodd">
        <path fill="currentColor" d="M22.15965 14.8252873L19.49265 13.0368509C19.31965 12.9207782 19.08665 12.9696509 18.97365 13.1457964 18.85915 13.3219418 18.90715 13.5586691 19.08065 13.6747418L21.74765 15.4631782C21.81115 15.5054327 21.88215 15.5257964 21.95315 15.5257964 22.07515 15.5257964 22.19465 15.4657236 22.26665 15.3542327 22.38065 15.1780873 22.33315 14.94136 22.15965 14.8252873M7.4468 13.1458982C7.3333 12.9697527 7.1013 12.92088 6.9278 13.0369527L4.2608 14.8253891C4.0873 14.9414618 4.0398 15.1781891 4.1538 15.3543345 4.2258 15.4658255 4.3453 15.5258982 4.4673 15.5258982 4.5383 15.5258982 4.6093 15.5055345 4.6728 15.46328L7.3398 13.6748436C7.5133 13.5587709 7.5613 13.3220436 7.4468 13.1458982M7.25295 16.2941164C6.58695 16.2941164 5.96695 16.6667709 5.63445 17.2674982 5.54195 17.4339709 5.58645 17.6432073 5.73645 17.7582618 5.88595 17.8738255 6.09745 17.8575345 6.22995 17.7205891 6.24545 17.7048073 6.61895 17.3275709 7.25295 17.3275709 7.88195 17.3275709 8.25445 17.6986982 8.27545 17.72008 8.34845 17.7969527 8.44645 17.8361527 8.54495 17.8361527 8.62295 17.8361527 8.70095 17.8117164 8.76795 17.7613164 8.91995 17.6467709 8.96445 17.43448 8.87145 17.2669891 8.53895 16.6667709 7.91895 16.2941164 7.25295 16.2941164M18.84865 16.2941164C18.18265 16.2941164 17.56265 16.6667709 17.23015 17.2674982 17.13715 17.4354982 17.18165 17.64728 17.33365 17.7618255 17.40065 17.8122255 17.47865 17.8366618 17.55665 17.8366618 17.65565 17.8366618 17.75465 17.7964436 17.82815 17.7185527 17.83165 17.71448 18.21215 17.3275709 18.84865 17.3275709 19.47765 17.3275709 19.85015 17.6986982 19.87115 17.72008 20.00265 17.8575345 20.21265 17.8753527 20.36365 17.7613164 20.51565 17.6467709 20.56015 17.43448 20.46715 17.2669891 20.13465 16.6667709 19.51465 16.2941164 18.84865 16.2941164"/>
        <g transform="translate(0 .161)">
          <path fill="currentColor" d="M13.3286,26.1162618 C6.7236,26.1162618 1.3496,20.6445527 1.3496,13.9194618 C1.3496,7.19437091 6.7236,1.72266182 13.3286,1.72266182 C16.4786,1.72266182 19.4151,2.93837091 21.6591,5.15648 C21.0291,6.06775273 20.4336,7.14193455 20.4336,7.95698909 C20.4336,9.70418909 21.8296,11.1255709 23.5456,11.1255709 C24.0351,11.1255709 24.4966,11.0064436 24.9091,10.8007709 C25.1721,11.8138618 25.3081,12.8585164 25.3081,13.9194618 C25.3081,20.6445527 19.9341,26.1162618 13.3286,26.1162618 M25.3081,7.95698909 C25.3081,8.94615273 24.5171,9.75102545 23.5456,9.75102545 C22.5736,9.75102545 21.7831,8.94615273 21.7831,7.95698909 C21.7831,7.32469818 22.6976,5.95728 23.5456,4.90957091 C24.3936,5.95728 25.3081,7.32469818 25.3081,7.95698909 M26.6576,7.95698909 C26.6576,6.39917091 24.4811,3.88426182 24.0451,3.39604364 L23.5456,2.83706182 L23.0461,3.39604364 C22.9416,3.51364364 22.7346,3.74935273 22.4836,4.05938909 C20.0211,1.69262545 16.7276,0.348116364 13.3286,0.348116364 C5.9791,0.348116364 0.0001,6.43633455 0.0001,13.9194618 C0.0001,21.4025891 5.9791,27.4908073 13.3286,27.4908073 C20.6781,27.4908073 26.6576,21.4025891 26.6576,13.9194618 C26.6576,12.5286255 26.4421,11.1627345 26.0361,9.84826182 C26.4246,9.31982545 26.6576,8.66615273 26.6576,7.95698909"/>
        </g>
      </g>
    </symbol>
    <symbol id="prepared-emoji-filled" viewBox="0 0 27 28">
      <g fill="none" fill-rule="evenodd">
        <g transform="translate(0 .16)">
          <path fill="currentColor" d="M21.2666,11.51752 C21.1026,11.6152655 20.8926,11.5704655 20.7791,11.4162109 C20.7641,11.3963564 20.5021,11.0598473 20.0786,11.0598473 C19.6491,11.0598473 19.3826,11.4106109 19.3806,11.4141745 C19.3071,11.5149745 19.1936,11.5694473 19.0786,11.5694473 C19.0146,11.5694473 18.9496,11.5526473 18.8911,11.5180291 C18.7256,11.4207927 18.6586,11.2125745 18.7351,11.0343927 C19.0016,10.4133018 19.5166,10.0269018 20.0791,10.0269018 C20.6411,10.0269018 21.1561,10.4127927 21.4226,11.0338836 C21.4991,11.2120655 21.4321,11.4202836 21.2666,11.51752 M17.8796,13.8817382 C16.8661,15.0358473 15.0751,15.7251564 13.0891,15.7251564 C11.1026,15.7251564 9.3121,15.0363564 8.2986,13.8827564 C8.1611,13.7254473 8.1741,13.4841382 8.3286,13.3436291 C8.4836,13.2026109 8.7201,13.2168655 8.8586,13.3736655 C9.7181,14.3531564 11.3396,14.96152 13.0891,14.96152 C14.8391,14.96152 16.4601,14.3526473 17.3196,13.3731564 C17.4581,13.2153382 17.6946,13.2021018 17.8496,13.3426109 C18.0041,13.48312 18.0171,13.7244291 17.8796,13.8817382 M7.7666,11.51752 C7.6026,11.6152655 7.3926,11.5704655 7.2791,11.4162109 C7.2641,11.3963564 7.0021,11.0598473 6.5786,11.0598473 C6.1491,11.0598473 5.8826,11.4106109 5.8806,11.4141745 C5.8071,11.5149745 5.6936,11.5694473 5.5786,11.5694473 C5.5146,11.5694473 5.4496,11.5526473 5.3911,11.5180291 C5.2256,11.4207927 5.1586,11.2125745 5.2351,11.0343927 C5.5016,10.4133018 6.0166,10.0269018 6.5791,10.0269018 C7.1411,10.0269018 7.6561,10.4127927 7.9231,11.0338836 C7.9991,11.2120655 7.9321,11.4202836 7.7666,11.51752 M13.3286,0.348574545 C5.9791,0.348574545 0.0001,6.43679273 0.0001,13.91992 C0.0001,21.4030473 5.9791,27.4907564 13.3286,27.4907564 C16.0066,27.4907564 18.5636,26.6843564 20.7656,25.1713382 C20.2736,24.7778109 19.9271,24.2717745 19.8311,23.7270473 C19.7496,23.2647927 19.8461,22.8223927 20.1011,22.4410836 C19.7516,22.0373745 19.5841,21.5338836 19.6466,21.0120655 C19.6846,20.6882836 19.8206,20.3889382 19.9941,20.1374473 C19.5291,19.4700291 19.4916,18.5495927 19.9671,17.8317745 C20.0536,17.7009382 20.3436,17.3114836 20.8966,16.9927927 C20.8071,16.7718473 20.7411,16.4979564 20.7266,16.1507564 C20.6481,14.3058109 21.8906,13.6139564 22.5586,13.50552 C22.6961,13.4912655 23.5701,13.4469745 23.8446,14.84952 C23.9156,15.2119927 24.0746,15.5434109 24.3181,15.8341018 C25.0506,16.7097382 25.5271,16.8522836 25.5316,16.8533018 C25.6996,16.8833382 25.8336,16.9785382 25.9286,17.1032655 C26.0341,17.1521382 26.1376,17.2096655 26.2401,17.2692291 C26.5116,16.1787564 26.6576,15.0557018 26.6576,13.91992 C26.6576,6.43679273 20.6781,0.348574545 13.3286,0.348574545"/>
        </g>
        <path fill="currentColor" d="M23.16505 16.7168145C22.84355 16.2856145 22.62305 15.8045236 22.52055 15.2786327 22.51055 15.2287418 22.50105 15.1859782 22.49055 15.1488145 22.27755 15.29696 22.04805 15.6069964 22.07505 16.2520145 22.08705 16.5259055 22.14555 16.6562327 22.17555 16.6959418 22.20705 16.6984873 22.23455 16.71376 22.26455 16.7203782 22.53655 16.6903418 22.83805 16.6883055 23.16505 16.7168145M21.08595 18.7621382C20.89545 19.0492655 20.96195 19.4382109 21.23095 19.6443927 21.25195 19.6550836 21.27145 19.6652655 21.29095 19.6769745 21.48845 19.7940655 21.61445 20.0053382 21.62495 20.2379927 21.63595 20.4711564 21.52995 20.6936291 21.34395 20.8295564 21.16745 20.9573382 21.00395 21.1910109 20.98645 21.3381382 20.95645 21.5901382 21.19995 21.8105745 21.42095 21.9256291 21.52845 21.9780655 21.62245 22.0605382 21.69245 22.1689745 21.69545 22.1735564 21.69845 22.1786473 21.70095 22.1832291L21.70095 22.1837382C21.70145 22.1837382 21.70145 22.1842473 21.70145 22.1842473 21.78595 22.3237382 21.81595 22.4830836 21.79645 22.6337745 21.79095 22.6750109 21.78245 22.7142109 21.77045 22.7529018 21.72645 22.8929018 21.63845 23.0196655 21.51195 23.1092655 21.50345 23.1153745 21.49495 23.1209745 21.48645 23.1260655 21.11145 23.3689018 21.14645 23.5689745 21.15995 23.6448291 21.22545 24.0154473 21.75595 24.5153745 22.49795 24.6757382 23.23795 24.8355927 24.01295 24.8355927 24.68195 24.6742109 25.58845 24.45632 26.12945 23.84592 26.38445 22.75392 26.70095 21.3951564 26.70295 20.3413382 26.40345 19.60112L26.17595 19.1678836 26.17595 19.1678836C25.55745 18.3003927 24.36295 18.2001018 23.57195 18.13392 23.42945 18.1222109 23.30245 18.1110109 23.19545 18.0977745 21.69845 17.9129745 21.14395 18.6745745 21.08595 18.7621382"/>
      </g>
    </symbol>
    <symbol id="prepared-emoji" viewBox="0 0 28 28">
      <g fill="none" fill-rule="evenodd">
        <g transform="translate(0 .16)">
          <path fill="currentColor" d="M13.3284,27.4909091 C5.9789,27.4909091 -0.0001,21.4026909 -0.0001,13.9195636 C-0.0001,6.43643636 5.9789,0.348727273 13.3284,0.348727273 C20.6779,0.348727273 26.6574,6.43643636 26.6574,13.9195636 C26.6574,15.2197818 26.4774,16.5067636 26.1214,17.7433455 C26.0164,18.1078545 25.6424,18.3165818 25.2834,18.2096727 C24.9254,18.1027636 24.7209,17.7209455 24.8254,17.3564364 C25.1454,16.2456 25.3079,15.0894545 25.3079,13.9195636 C25.3079,7.19447273 19.9339,1.72276364 13.3284,1.72276364 C6.7234,1.72276364 1.3494,7.19447273 1.3494,13.9195636 C1.3494,20.6451636 6.7234,26.1168727 13.3284,26.1168727 C15.8974,26.1168727 18.3464,25.3008 20.4104,23.7582545 C20.7104,23.5337455 21.1329,23.5989091 21.3539,23.9053818 C21.5744,24.2113455 21.5099,24.6415273 21.2094,24.8660364 C18.9119,26.5837091 16.1869,27.4909091 13.3284,27.4909091"/>
        </g>
        <path fill="currentColor" d="M13.08865 15.8857236C11.10265 15.8857236 9.31215 15.1969236 8.29915 14.0433236 8.16115 13.8860145 8.17415 13.6447055 8.32815 13.5041964 8.48315 13.36216 8.72015 13.3764145 8.85765 13.5342327 9.71815 14.5137236 11.33915 15.1220873 13.08865 15.1220873 14.83815 15.1220873 16.45915 14.5132145 17.31965 13.5332145 17.45765 13.3753964 17.69415 13.36216 17.84915 13.5026691 18.00365 13.6436873 18.01665 13.8849964 17.87915 14.0423055 16.86565 15.1964145 15.07515 15.8857236 13.08865 15.8857236M5.2864 11.7299636C5.2084 11.7299636 5.1304 11.7050182 5.0634 11.6551273 4.9114 11.5405818 4.8669 11.3282909 4.9599 11.1608 5.2919 10.5600727 5.9124 10.1874182 6.5789 10.1874182 7.2444 10.1874182 7.8644 10.5600727 8.1974 11.1597818 8.2904 11.3272727 8.2464 11.5395636 8.0944 11.6546182 7.9429 11.7681455 7.7329 11.7508364 7.6014 11.6133818 7.5814 11.592 7.2084 11.2203636 6.5784 11.2203636 5.9419 11.2203636 5.5614 11.6077818 5.5579 11.6118545 5.4844 11.6897455 5.3859 11.7299636 5.2864 11.7299636M18.7864 11.7299636C18.7084 11.7299636 18.6304 11.7050182 18.5634 11.6551273 18.4114 11.5405818 18.3669 11.3282909 18.4599 11.1608 18.7919 10.5600727 19.4124 10.1874182 20.0789 10.1874182 20.7444 10.1874182 21.3644 10.5600727 21.6974 11.1597818 21.7904 11.3272727 21.7464 11.5395636 21.5944 11.6546182 21.4429 11.7681455 21.2324 11.7508364 21.1014 11.6133818 21.0814 11.592 20.7084 11.2203636 20.0784 11.2203636 19.4419 11.2203636 19.0614 11.6077818 19.0579 11.6118545 18.9844 11.6897455 18.8859 11.7299636 18.7864 11.7299636M21.48615 23.1258618C21.11115 23.3686982 21.14615 23.5687709 21.16015 23.6446255 21.22565 24.0152436 21.75565 24.5151709 22.49765 24.6755345 23.23765 24.83488 24.01265 24.8343709 24.68215 24.6740073 25.58815 24.4556073 26.12915 23.8457164 26.38415 22.7537164 26.76765 21.1062982 26.69765 19.9002618 26.17565 19.16768 25.55765 18.3001891 24.36265 18.1998982 23.57215 18.1332073 23.42965 18.1214982 23.30215 18.1102982 23.19515 18.0970618 21.69465 17.91328 21.14415 18.6743709 21.08565 18.7619345 20.89515 19.0490618 20.96165 19.4380073 21.23065 19.6441891 21.25165 19.65488 21.27115 19.6650618 21.29065 19.6767709 21.48815 19.7938618 21.61415 20.0051345 21.62465 20.2377891 21.63565 20.4709527 21.52965 20.6934255 21.34365 20.8288436 21.16715 20.9571345 21.00365 21.1902982 20.98615 21.3374255 20.95615 21.5894255 21.19965 21.8103709 21.42065 21.9254255 21.52815 21.9778618 21.62215 22.0598255 21.69215 22.1687709 21.69515 22.1733527 21.69815 22.1784436 21.70115 22.1825164L21.70115 22.1830255C21.70165 22.1830255 21.70165 22.1835345 21.70165 22.1835345 21.78615 22.3235345 21.81565 22.4823709 21.79615 22.6335709 21.79065 22.6742982 21.78215 22.7134982 21.77015 22.7526982 21.72615 22.8926982 21.63865 23.0194618 21.51165 23.1090618 21.50315 23.1151709 21.49515 23.1202618 21.48615 23.1258618M23.60915 26.1702255C23.19265 26.1702255 22.72515 26.1294982 22.21765 26.0200436 20.98715 25.7542982 20.00565 24.8771345 19.83065 23.8874618 19.74915 23.4252073 19.84615 22.9828073 20.10065 22.6014982 19.75115 22.1977891 19.58365 21.6942982 19.64615 21.17248 19.68415 20.8486982 19.82065 20.5493527 19.99415 20.2978618 19.52915 19.6304436 19.49115 18.7094982 19.96765 17.9921891 20.13915 17.7335709 21.11165 16.4577891 23.35765 16.7326982 23.45065 16.7444073 23.56015 16.7530618 23.68315 16.7637527 24.59265 16.8396073 26.28615 16.9826618 27.26815 18.3607709 28.03215 19.4313891 28.17615 21.0161891 27.69765 23.07088 27.32215 24.6811345 26.41215 25.6702982 24.99165 26.0113891 24.64265 26.0953891 24.17265 26.1702255 23.60915 26.1702255"/>
        <path fill="currentColor" d="M22.0901,16.6941091 L22.0896,16.6941091 L22.0901,16.6941091 Z M25.3856,18.3715636 C25.3461,18.3715636 25.3061,18.368 25.2661,18.3603636 C25.1201,18.3349091 24.3396,18.1404364 23.2901,16.8865455 C22.8956,16.4151273 22.6366,15.8739636 22.5201,15.2778182 C22.5106,15.2284364 22.5006,15.1856727 22.4906,15.1485091 C22.2771,15.2966545 22.0476,15.6066909 22.0751,16.2522182 C22.0866,16.5256 22.1451,16.6559273 22.1751,16.6956364 C22.5091,16.7236364 22.7786,17.0005818 22.7936,17.3503273 C22.8101,17.7290909 22.5216,18.0503273 22.1491,18.0671273 C21.9236,18.0742545 21.5646,17.9917818 21.2721,17.7194182 C20.9361,17.4058182 20.7526,16.9323636 20.7266,16.3117818 C20.6476,14.4663273 21.8906,13.7744727 22.5586,13.6665455 C22.6981,13.6497455 23.5701,13.6069818 23.8446,15.0095273 C23.9151,15.3730182 24.0746,15.7044364 24.3176,15.9946182 C25.0506,16.8707636 25.5266,17.0122909 25.5316,17.0138182 C25.8986,17.08 26.1281,17.4328 26.0631,17.8069818 C26.0056,18.1399273 25.7091,18.3715636 25.3856,18.3715636 L25.3856,18.3715636 Z"/>
      </g>
    </symbol>
    <symbol id="supported-emoji-filled" viewBox="0 0 27 28">
      <path fill="currentColor" fill-rule="evenodd" d="M0.0001,13.329 C0.0001,5.9795 5.9791,0 13.3286,0 C20.6781,0 26.6576,5.9795 26.6576,13.329 C26.6576,20.6785 20.6781,26.658 13.3286,26.658 C5.9791,26.658 0.0001,20.6785 0.0001,13.329 Z M13.3286,15.5205 C15.3156,15.5205 17.1681,14.451 18.1641,12.7295 C18.2676,12.5505 18.2066,12.321 18.0271,12.217 C17.8466,12.1135 17.6191,12.1755 17.5146,12.354 C16.6521,13.8445 15.0481,14.7705 13.3286,14.7705 C11.6091,14.7705 10.0056,13.845 9.1431,12.3555 C9.0386,12.1765 8.8096,12.1135 8.6306,12.2185 C8.4511,12.3225 8.3901,12.552 8.4936,12.731 C9.4896,14.4515 11.3421,15.5205 13.3286,15.5205 Z M19.30975,11.0290938 C19.86925,11.0290938 20.32275,10.5686169 20.32275,10.0005092 C20.32275,9.43240154 19.86925,8.97192462 19.30975,8.97192462 C18.74975,8.97192462 18.29625,9.43240154 18.29625,10.0005092 C18.29625,10.5686169 18.74975,11.0290938 19.30975,11.0290938 Z M6.09815,10.0005092 C6.09815,10.5686169 6.55165,11.0290938 7.11115,11.0290938 C7.67115,11.0290938 8.12465,10.5686169 8.12465,10.0005092 C8.12465,9.43240154 7.67115,8.97192462 7.11115,8.97192462 C6.55165,8.97192462 6.09815,9.43240154 6.09815,10.0005092 Z" transform="translate(0 .5)"/>
    </symbol>
    <symbol id="supported-emoji" viewBox="0 0 27 28">
      <g fill="none" fill-rule="evenodd">
        <g transform="translate(0 .5)">
          <path fill="currentColor" d="M13.3286,1.3496 C6.7236,1.3496 1.3496,6.7236 1.3496,13.3286 C1.3496,19.9341 6.7236,25.3081 13.3286,25.3081 C19.9341,25.3081 25.3081,19.9341 25.3081,13.3286 C25.3081,6.7236 19.9341,1.3496 13.3286,1.3496 M0.0001,13.3286 C0.0001,5.9791 5.9791,0.0001 13.3286,0.0001 C20.6781,0.0001 26.6576,5.9791 26.6576,13.3286 C26.6576,20.6781 20.6781,26.6576 13.3286,26.6576 C5.9791,26.6576 0.0001,20.6781 0.0001,13.3286 Z"/>
          <path fill="currentColor" d="M13.3286,15.52 C11.3421,15.52 9.4896,14.451 8.4936,12.731 C8.3901,12.5515 8.4511,12.322 8.6306,12.218 C8.8096,12.114 9.0386,12.176 9.1431,12.355 C10.0051,13.8445 11.6091,14.77 13.3286,14.77 C15.0486,14.77 16.6526,13.844 17.5146,12.3535 C17.6191,12.175 17.8466,12.1135 18.0271,12.217 C18.2066,12.321 18.2676,12.55 18.1641,12.7295 C17.1686,14.4505 15.3156,15.52 13.3286,15.52"/>
          <path fill="#DDDDE3" d="M21.7165 15.13995C20.8685 15.13995 20.181 14.45295 20.181 13.60545 20.181 12.75795 20.8685 12.07045 21.7165 12.07045 22.564 12.07045 23.251 12.75795 23.251 13.60545 23.251 14.45295 22.564 15.13995 21.7165 15.13995zM4.94155 15.13995C4.09355 15.13995 3.40655 14.45295 3.40655 13.60545 3.40655 12.75795 4.09355 12.07045 4.94155 12.07045 5.78905 12.07045 6.47605 12.75795 6.47605 13.60545 6.47605 14.45295 5.78905 15.13995 4.94155 15.13995z"/>
        </g>
        <path fill="currentColor" d="M19.30975 11.5290938C18.74975 11.5290938 18.29625 11.0686169 18.29625 10.5005092 18.29625 9.93240154 18.74975 9.47192462 19.30975 9.47192462 19.86925 9.47192462 20.32275 9.93240154 20.32275 10.5005092 20.32275 11.0686169 19.86925 11.5290938 19.30975 11.5290938zM6.09815 10.5005092C6.09815 11.0686169 6.55165 11.5290938 7.11115 11.5290938 7.67115 11.5290938 8.12465 11.0686169 8.12465 10.5005092 8.12465 9.93240154 7.67115 9.47192462 7.11115 9.47192462 6.55165 9.47192462 6.09815 9.93240154 6.09815 10.5005092"/>
      </g>
    </symbol>
    <symbol id="acne" viewBox="0 0 45 45">
      <path fill-rule="evenodd" fill="currentColor" transform="translate(10 10)" d="M12.9995052 23.2130607C12.3295398 23.2130607 11.7862444 22.6698549 11.7862444 22 11.7862444 21.3311346 12.3295398 20.7879288 12.9995052 20.7879288 13.6694706 20.7879288 14.212766 21.3311346 14.212766 22 14.212766 22.6698549 13.6694706 23.2130607 12.9995052 23.2130607M12.9995052 19C11.3428996 19 10 20.3436675 10 22 10 23.6563325 11.3428996 25 12.9995052 25 14.6571004 25 16 23.6563325 16 22 16 20.3436675 14.6571004 19 12.9995052 19M12.9995052 4.21207124C12.3295398 4.21207124 11.7862444 3.66886544 11.7862444 2.99901055 11.7862444 2.33014512 12.3295398 1.78693931 12.9995052 1.78693931 13.6694706 1.78693931 14.212766 2.33014512 14.212766 2.99901055 14.212766 3.66886544 13.6694706 4.21207124 12.9995052 4.21207124M12.9995052 0C11.3428996 0 10 1.34366755 10 2.99901055 10 4.65633245 11.3428996 6 12.9995052 6 14.6571004 6 16 4.65633245 16 2.99901055 16 1.34366755 14.6571004 0 12.9995052 0M23.212766 12.9995052C23.212766 13.6694706 22.6694706 14.212766 21.9995052 14.212766 21.3305294 14.212766 20.787234 13.6694706 20.787234 12.9995052 20.787234 12.3295398 21.3305294 11.7862444 21.9995052 11.7862444 22.6694706 11.7862444 23.212766 12.3295398 23.212766 12.9995052M19 12.9995052C19 14.6571004 20.3428996 16 21.9995052 16 23.6571004 16 25 14.6571004 25 12.9995052 25 11.3428996 23.6571004 10 21.9995052 10 20.3428996 10 19 11.3428996 19 12.9995052M4.21306069 12.9995052C4.21306069 13.6694706 3.66985488 14.212766 2.99901055 14.212766 2.33014512 14.212766 1.78693931 13.6694706 1.78693931 12.9995052 1.78693931 12.3295398 2.33014512 11.7862444 2.99901055 11.7862444 3.66985488 11.7862444 4.21306069 12.3295398 4.21306069 12.9995052M0 12.9995052C0 14.6571004 1.34366755 16 2.99901055 16 4.65633245 16 6 14.6571004 6 12.9995052 6 11.3428996 4.65633245 10 2.99901055 10 1.34366755 10 0 11.3428996 0 12.9995052"/>
    </symbol>
    <symbol id="clogged-pores" viewBox="0 0 45 45">
      <path fill-rule="evenodd" fill="currentColor" stroke="currentColor" stroke-width="2.133" transform="translate(8 14.211)" d="M6.5815 8.6934C6.5815 10.3634 5.2275 11.7154 3.5585 11.7154 1.8885 11.7154.5345 10.3634.5345 8.6934.5345 7.0224 1.8885 5.6704 3.5585 5.6704 5.2275 5.6704 6.5815 7.0224 6.5815 8.6934zM26.4613 3.334C26.4613 5.004 25.1073 6.356 23.4393 6.356 21.7693 6.356 20.4143 5.004 20.4143 3.334 20.4143 1.664 21.7693.311 23.4393.311 25.1073.311 26.4613 1.664 26.4613 3.334zM17.1674 15.9492C17.1674 17.6192 15.8134 18.9722 14.1444 18.9722 12.4744 18.9722 11.1194 17.6192 11.1194 15.9492 11.1194 14.2792 12.4744 12.9272 14.1444 12.9272 15.8134 12.9272 17.1674 14.2792 17.1674 15.9492z"/>
    </symbol>
    <symbol id="dark-spots" viewBox="0 0 45 45">
      <g fill-rule="evenodd" fill="currentColor" transform="translate(13 12.866)">
        <path d="M10.099,7.0722 C8.628,7.0722 7.432,8.2682 7.432,9.7392 C7.432,11.2102 8.628,12.4062 10.099,12.4062 C11.57,12.4062 12.766,11.2102 12.766,9.7392 C12.766,8.2682 11.57,7.0722 10.099,7.0722 M10.099,14.5392 C7.453,14.5392 5.299,12.3852 5.299,9.7392 C5.299,7.0932 7.453,4.9392 10.099,4.9392 C12.745,4.9392 14.899,7.0932 14.899,9.7392 C14.899,12.3852 12.745,14.5392 10.099,14.5392"/>
        <path d="M10.1,2.6113 C6.168,2.6113 2.97,5.8083 2.97,9.7393 C2.97,13.6703 6.168,16.8673 10.1,16.8673 C14.031,16.8673 17.228,13.6703 17.228,9.7393 C17.228,5.8083 14.031,2.6113 10.1,2.6113 M10.1,19.0003 C4.993,19.0003 0.837,14.8453 0.837,9.7393 C0.837,4.6323 4.993,0.4783 10.1,0.4783 C15.206,0.4783 19.361,4.6323 19.361,9.7393 C19.361,14.8453 15.206,19.0003 10.1,19.0003"/>
      </g>
    </symbol>
    <symbol id="firmness" viewBox="0 0 45 45">
      <path fill="none" fill-rule="evenodd" stroke="currentColor" stroke-linecap="round" stroke-linejoin="round" stroke-width="2" transform="translate(7 10)" d="M16.94667 25.994085L21.17167 17.206735M23.45304 23.712715L14.66569 19.488365M19.06931 9.2274L23.29431.44005M25.57568 6.94603L16.78833 2.72168M2.44543 15.55346L6.67043 6.76546M8.9518 13.27209L.16445 9.04709"/>
    </symbol>
    <symbol id="skin-texture" viewBox="0 0 45 45">
      <g fill="none" fill-rule="evenodd" stroke="currentColor" stroke-linecap="round" stroke-linejoin="round" stroke-width="2" transform="rotate(45 8.843 29.364)">
        <path d="M0 14.5L28 14.5M2 22.5L26 22.5M2 6.5L26 6.5"/>
        <path d="M0,14.5 L28,14.5" transform="rotate(90 14 14.5)"/>
        <path d="M-6,14.5 L18,14.5" transform="rotate(90 6 14.5)"/>
        <path d="M10,14.5 L34,14.5" transform="rotate(90 22 14.5)"/>
      </g>
    </symbol>
    <symbol id="wrinkles" viewBox="0 0 45 45">
      <path fill="none" fill-rule="evenodd" stroke="currentColor" stroke-linecap="round" stroke-linejoin="round" stroke-width="2" transform="translate(8 9)" d="M10.4142857 25.2428571L21.8857143 25.2428571M0 19.2428571L20 19.2428571M12 13L28.575 13M0 7L16.575 7M8.85714286 1.24285714L22.8571429 1.24285714"/>
    </symbol>
    <symbol id="very-dry" viewBox="0 0 45 45">
      <path fill="none" fill-rule="evenodd" stroke="currentColor" stroke-linecap="round" stroke-width="2" transform="translate(14 13)" d="M14.775953 0C12.5219925 1.99452697 12.3953043 5.48475371 14.5000372 7.6387803 16.4944036 9.68021892 16.5006215 12.9507428 14.5148045 15M8.77595303 0C6.52199246 1.99452697 6.39530433 5.48475371 8.50003716 7.6387803 10.4944036 9.68021892 10.5006215 12.9507428 8.51480449 15M2.77595303 0C.521992459 1.99452697.395304331 5.48475371 2.50003716 7.6387803 4.49440365 9.68021892 4.50062147 12.9507428 2.51480449 15M0 20L16 20"/>
    </symbol>
    <symbol id="often-dry" viewBox="0 0 45 45">
      <path fill="none" fill-rule="evenodd" stroke="currentColor" stroke-linecap="round" stroke-width="2" transform="translate(15 12)" d="M10.775953 0C8.52199246 1.99452697 8.39530433 5.48475371 10.5000372 7.6387803 12.4944036 9.68021892 12.5006215 12.9507428 10.5148045 15M4.77595303 0C2.52199246 1.99452697 2.39530433 5.48475371 4.50003716 7.6387803 6.49440365 9.68021892 6.50062147 12.9507428 4.51480449 15M0 20L16 20"/>
    </symbol>
    <symbol id="combination" viewBox="0 0 45 45">
      <g fill="none" fill-rule="evenodd" stroke-linecap="round" stroke-width="2" transform="translate(12 12)">
        <path stroke="currentColor" d="M18.7559847 12.5169903C18.7559847 13.5201116 17.9151232 14.3333333 16.8780168 14.3333333 15.8408127 14.3333333 15 13.5201116 15 12.5169903 15 11.068268 16.8780168 9.28388178 16.8780168 9.28388178 16.8780168 9.28388178 18.7559847 11.0879519 18.7559847 12.5169903zM18.7559847 3.51699031C18.7559847 4.52011164 17.9151232 5.33333333 16.8780168 5.33333333 15.8408127 5.33333333 15 4.52011164 15 3.51699031 15 2.06826805 16.8780168.283881779 16.8780168.283881779 16.8780168.283881779 18.7559847 2.0879519 18.7559847 3.51699031z"/>
        <path stroke="currentColor" d="M9.77595303 0C7.52199246 1.99452697 7.39530433 5.48475371 9.50003716 7.6387803 11.4944036 9.68021892 11.5006215 12.9507428 9.51480449 15M3.77595303 0C1.52199246 1.99452697 1.39530433 5.48475371 3.50003716 7.6387803 5.49440365 9.68021892 5.50062147 12.9507428 3.51480449 15M0 20L21 20"/>
      </g>
    </symbol>
    <symbol id="often-oily" viewBox="0 0 45 45">
      <g fill="none" fill-rule="evenodd" stroke-linecap="round" stroke-width="2" transform="translate(13 14)">
        <path stroke="currentColor" d="M8 5.76260143C8 7.55053659 6.43289284 9 4.50004548 9 2.5670162 9 1 7.55053659 1 5.76260143 1 3.18043974 4.50004548 0 4.50004548 0 4.50004548 0 8 3.21552369 8 5.76260143zM18 5.76260143C18 7.55053659 16.4328928 9 14.5000455 9 12.5670162 9 11 7.55053659 11 5.76260143 11 3.18043974 14.5000455 0 14.5000455 0 14.5000455 0 18 3.21552369 18 5.76260143z"/>
        <path stroke="currentColor" d="M0,17 L19,17"/>
      </g>
    </symbol>
    <symbol id="very-oily" viewBox="0 0 45 45">
      <g fill="none" fill-rule="evenodd" stroke-linecap="round" stroke-width="2" transform="translate(15 12)">
        <path stroke="currentColor" d="M13,8.96404667 C13,11.7452791 10.537403,14 7.50007147,14 C4.46245403,14 2,11.7452791 2,8.96404667 C2,4.94735071 7.50007147,0 7.50007147,0 C7.50007147,0 13,5.00192574 13,8.96404667 Z"/>
        <path stroke="currentColor" d="M0,19 L15,19"/>
      </g>
    </symbol>
    <symbol id="face" viewBox="0 0 68 68">
      <path fill="none" fill-rule="evenodd" stroke="currentColor" stroke-width="2" transform="translate(15 15)" d="M35.0134375 17.1584393L35.0187813 23.4657578 35.0187813 24.3628985C35.0187813 33.4342244 23.7936406 40.7881059 18.9628906 40.7881059 14.1318437 40.7881059 2.907 33.4342244 2.907 24.3628985L2.907 17.1584393 2.907 16.5771504C2.907 7.50552074 10.0952344.151639259 18.9628906.151639259 27.83025.151639259 35.0187813 7.50552074 35.0187813 16.5771504L35.0134375 17.1584393zM2.90688125 26.6144667C1.38331875 26.6144667.14831875 25.351363.14831875 23.7927556.14831875 22.2344519 1.38331875 20.9710444 2.90688125 20.9710444M35.1163641 26.6144667C36.6396297 26.6144667 37.8746297 25.351363 37.8746297 23.7927556 37.8746297 22.2344519 36.6396297 20.9710444 35.1163641 20.9710444M11.1353062 2.23483407C11.1353062 2.23483407 5.20641562 15.4271156 34.5112437 15.4271156M12.3274375 9.84434296C12.3274375 9.84434296 10.5479687 16.5194467 2.907 16.5771504"/>
    </symbol>
    <symbol id="neck" viewBox="0 0 68 68">
      <g fill="none" fill-rule="evenodd" stroke="currentColor" stroke-width="2" transform="translate(14 18)">
        <path stroke-linecap="round" d="M35.8656,0 L35.8706,6.307 L35.8706,7.205 C35.8706,16.275 24.6446,23.63 19.8146,23.63 C14.9836,23.63 3.7596,16.275 3.7596,7.205 L3.7596,0"/>
        <path d="M3.7581 8.456C2.01598661 8.456.603307654 7.0112927.603307654 5.228.603307654 3.44585117 2.01598661 2 3.7581 2M35.9681 8.456C37.4911 8.456 38.7261 7.193 38.7261 5.634 38.7261 4.076 37.4911 2.812 35.9681 2.812"/>
        <path stroke-linecap="round" d="M11.3089 20.54C10.8299 25.453 8.7549 29.64 5.8359 31.16L.9999 33.678M29.0003 20.54C29.4793 25.453 31.5533 29.64 34.4733 31.16L39.3093 33.678"/>
      </g>
    </symbol>
    <symbol id="shoulders-chest-back" viewBox="0 0 68 68">
      <path fill="none" fill-rule="evenodd" stroke="currentColor" stroke-linecap="round" stroke-width="2" transform="translate(13 17)" d="M15 5C13.486058 3.70209553 12.8791689 1.97942231 12 0M27 5C28.5147622 3.70209553 29.1216512 1.97942231 30 0M15 5C14.5398719 7.8700366 13.2721187 10.2409364 11.5573341 11.1584145L8.4080326 12.8452455C1.66065192 16.385885 2.29278231 23.6467095 0 31M5 22C5 22 6.02072778 28.7725114 7 31M27 5C27.4609743 7.8700366 28.7277807 10.2409364 30.4424655 11.1584145L33.5924568 12.8452455C40.3394447 16.385885 39.7064781 23.6467095 42 31M37 22C37 22 35.978351 28.7725114 35 31"/>
    </symbol>
    <symbol id="other" viewBox="0 0 68 68">
      <g fill="currentColor" fill-rule="evenodd">
        <circle cx="24" cy="34" r="2"/>
        <circle cx="34" cy="34" r="2"/>
        <circle cx="44" cy="34" r="2"/>
      </g>
    </symbol>
    <symbol id="none" viewBox="0 0 45 45">
      <g fill="none" fill-rule="evenodd" stroke="currentColor" stroke-width="2" transform="translate(16 16)">
        <circle cx="6.5" cy="6.5" r="6.5"/>
        <path stroke-linecap="square" d="M2.5,2.5 L10.2781746,10.2781746"/>
      </g>
    </symbol>
    <symbol id="1-2" viewBox="0 0 45 45">
      <path fill-rule="evenodd" fill="currentColor" d="M4.21306069,2.9995052 C4.21306069,3.66947056 3.66985488,4.21276596 2.99901055,4.21276596 C2.33014512,4.21276596 1.78693931,3.66947056 1.78693931,2.9995052 C1.78693931,2.32953983 2.33014512,1.78624443 2.99901055,1.78624443 C3.66985488,1.78624443 4.21306069,2.32953983 4.21306069,2.9995052 M0,2.9995052 C0,4.65710045 1.34366755,6 2.99901055,6 C4.65633245,6 6,4.65710045 6,2.9995052 C6,1.34289955 4.65633245,0 2.99901055,0 C1.34366755,0 0,1.34289955 0,2.9995052" transform="translate(20 20)"/>
    </symbol>
    <symbol id="3-4" viewBox="0 0 45 45">
      <path fill-rule="evenodd" fill="currentColor" transform="rotate(90 10 23.5)" d="M13.9995052 18.2130607C13.3295398 18.2130607 12.7862444 17.6698549 12.7862444 17 12.7862444 16.3311346 13.3295398 15.7879288 13.9995052 15.7879288 14.6694706 15.7879288 15.212766 16.3311346 15.212766 17 15.212766 17.6698549 14.6694706 18.2130607 13.9995052 18.2130607M13.9995052 14C12.3428996 14 11 15.3436675 11 17 11 18.6563325 12.3428996 20 13.9995052 20 15.6571004 20 17 18.6563325 17 17 17 15.3436675 15.6571004 14 13.9995052 14M13.9995052 4.71207124C13.3295398 4.71207124 12.7862444 4.16886544 12.7862444 3.49901055 12.7862444 2.83014512 13.3295398 2.28693931 13.9995052 2.28693931 14.6694706 2.28693931 15.212766 2.83014512 15.212766 3.49901055 15.212766 4.16886544 14.6694706 4.71207124 13.9995052 4.71207124M13.9995052.5C12.3428996.5 11 1.84366755 11 3.49901055 11 5.15633245 12.3428996 6.5 13.9995052 6.5 15.6571004 6.5 17 5.15633245 17 3.49901055 17 1.84366755 15.6571004.5 13.9995052.5M4.21306069 10.4995052C4.21306069 11.1694706 3.66985488 11.712766 2.99901055 11.712766 2.33014512 11.712766 1.78693931 11.1694706 1.78693931 10.4995052 1.78693931 9.82953983 2.33014512 9.28624443 2.99901055 9.28624443 3.66985488 9.28624443 4.21306069 9.82953983 4.21306069 10.4995052M0 10.4995052C0 12.1571004 1.34366755 13.5 2.99901055 13.5 4.65633245 13.5 6 12.1571004 6 10.4995052 6 8.84289955 4.65633245 7.5 2.99901055 7.5 1.34366755 7.5 0 8.84289955 0 10.4995052"/>
    </symbol>
    <symbol id="5-6" viewBox="0 0 45 45">
      <g fill="currentColor" fill-rule="evenodd" transform="translate(10 11)">
        <path d="M4.21306069,3.4995052 C4.21306069,4.16947056 3.66985488,4.71276596 2.99901055,4.71276596 C2.33014512,4.71276596 1.78693931,4.16947056 1.78693931,3.4995052 C1.78693931,2.82953983 2.33014512,2.28624443 2.99901055,2.28624443 C3.66985488,2.28624443 4.21306069,2.82953983 4.21306069,3.4995052 M0,3.4995052 C0,5.15710045 1.34366755,6.5 2.99901055,6.5 C4.65633245,6.5 6,5.15710045 6,3.4995052 C6,1.84289955 4.65633245,0.5 2.99901055,0.5 C1.34366755,0.5 0,1.84289955 0,3.4995052" transform="rotate(90 8 8.5)"/>
        <path d="M4.21306069,3.4995052 C4.21306069,4.16947056 3.66985488,4.71276596 2.99901055,4.71276596 C2.33014512,4.71276596 1.78693931,4.16947056 1.78693931,3.4995052 C1.78693931,2.82953983 2.33014512,2.28624443 2.99901055,2.28624443 C3.66985488,2.28624443 4.21306069,2.82953983 4.21306069,3.4995052 M0,3.4995052 C0,5.15710045 1.34366755,6.5 2.99901055,6.5 C4.65633245,6.5 6,5.15710045 6,3.4995052 C6,1.84289955 4.65633245,0.5 2.99901055,0.5 C1.34366755,0.5 0,1.84289955 0,3.4995052" transform="rotate(90 3.5 13)"/>
        <path d="M4.21306069,3.4995052 C4.21306069,4.16947056 3.66985488,4.71276596 2.99901055,4.71276596 C2.33014512,4.71276596 1.78693931,4.16947056 1.78693931,3.4995052 C1.78693931,2.82953983 2.33014512,2.28624443 2.99901055,2.28624443 C3.66985488,2.28624443 4.21306069,2.82953983 4.21306069,3.4995052 M0,3.4995052 C0,5.15710045 1.34366755,6.5 2.99901055,6.5 C4.65633245,6.5 6,5.15710045 6,3.4995052 C6,1.84289955 4.65633245,0.5 2.99901055,0.5 C1.34366755,0.5 0,1.84289955 0,3.4995052" transform="rotate(90 -1 8.5)"/>
        <path d="M4.21306069,3.4995052 C4.21306069,4.16947056 3.66985488,4.71276596 2.99901055,4.71276596 C2.33014512,4.71276596 1.78693931,4.16947056 1.78693931,3.4995052 C1.78693931,2.82953983 2.33014512,2.28624443 2.99901055,2.28624443 C3.66985488,2.28624443 4.21306069,2.82953983 4.21306069,3.4995052 M0,3.4995052 C0,5.15710045 1.34366755,6.5 2.99901055,6.5 C4.65633245,6.5 6,5.15710045 6,3.4995052 C6,1.84289955 4.65633245,0.5 2.99901055,0.5 C1.34366755,0.5 0,1.84289955 0,3.4995052" transform="rotate(90 8 17.5)"/>
        <path d="M4.21306069,3.4995052 C4.21306069,4.16947056 3.66985488,4.71276596 2.99901055,4.71276596 C2.33014512,4.71276596 1.78693931,4.16947056 1.78693931,3.4995052 C1.78693931,2.82953983 2.33014512,2.28624443 2.99901055,2.28624443 C3.66985488,2.28624443 4.21306069,2.82953983 4.21306069,3.4995052 M0,3.4995052 C0,5.15710045 1.34366755,6.5 2.99901055,6.5 C4.65633245,6.5 6,5.15710045 6,3.4995052 C6,1.84289955 4.65633245,0.5 2.99901055,0.5 C1.34366755,0.5 0,1.84289955 0,3.4995052" transform="rotate(90 -1 17.5)"/>
      </g>
    </symbol>
    <symbol id="7" viewBox="0 0 45 45">
      <g fill="currentColor" fill-rule="evenodd" transform="translate(11 10)">
        <path d="M4.21306069,3.4995052 C4.21306069,4.16947056 3.66985488,4.71276596 2.99901055,4.71276596 C2.33014512,4.71276596 1.78693931,4.16947056 1.78693931,3.4995052 C1.78693931,2.82953983 2.33014512,2.28624443 2.99901055,2.28624443 C3.66985488,2.28624443 4.21306069,2.82953983 4.21306069,3.4995052 M0,3.4995052 C0,5.15710045 1.34366755,6.5 2.99901055,6.5 C4.65633245,6.5 6,5.15710045 6,3.4995052 C6,1.84289955 4.65633245,0.5 2.99901055,0.5 C1.34366755,0.5 0,1.84289955 0,3.4995052" transform="rotate(90 7.5 8)"/>
        <path d="M4.21306069,3.4995052 C4.21306069,4.16947056 3.66985488,4.71276596 2.99901055,4.71276596 C2.33014512,4.71276596 1.78693931,4.16947056 1.78693931,3.4995052 C1.78693931,2.82953983 2.33014512,2.28624443 2.99901055,2.28624443 C3.66985488,2.28624443 4.21306069,2.82953983 4.21306069,3.4995052 M0,3.4995052 C0,5.15710045 1.34366755,6.5 2.99901055,6.5 C4.65633245,6.5 6,5.15710045 6,3.4995052 C6,1.84289955 4.65633245,0.5 2.99901055,0.5 C1.34366755,0.5 0,1.84289955 0,3.4995052" transform="rotate(90 1 6.5)"/>
        <path d="M4.21306069,3.4995052 C4.21306069,4.16947056 3.66985488,4.71276596 2.99901055,4.71276596 C2.33014512,4.71276596 1.78693931,4.16947056 1.78693931,3.4995052 C1.78693931,2.82953983 2.33014512,2.28624443 2.99901055,2.28624443 C3.66985488,2.28624443 4.21306069,2.82953983 4.21306069,3.4995052 M0,3.4995052 C0,5.15710045 1.34366755,6.5 2.99901055,6.5 C4.65633245,6.5 6,5.15710045 6,3.4995052 C6,1.84289955 4.65633245,0.5 2.99901055,0.5 C1.34366755,0.5 0,1.84289955 0,3.4995052" transform="rotate(90 9 14.5)"/>
        <path d="M4.21306069,3.4995052 C4.21306069,4.16947056 3.66985488,4.71276596 2.99901055,4.71276596 C2.33014512,4.71276596 1.78693931,4.16947056 1.78693931,3.4995052 C1.78693931,2.82953983 2.33014512,2.28624443 2.99901055,2.28624443 C3.66985488,2.28624443 4.21306069,2.82953983 4.21306069,3.4995052 M0,3.4995052 C0,5.15710045 1.34366755,6.5 2.99901055,6.5 C4.65633245,6.5 6,5.15710045 6,3.4995052 C6,1.84289955 4.65633245,0.5 2.99901055,0.5 C1.34366755,0.5 0,1.84289955 0,3.4995052" transform="rotate(90 4.5 19)"/>
        <path d="M4.21306069,2.9995052 C4.21306069,3.66947056 3.66985488,4.21276596 2.99901055,4.21276596 C2.33014512,4.21276596 1.78693931,3.66947056 1.78693931,2.9995052 C1.78693931,2.32953983 2.33014512,1.78624443 2.99901055,1.78624443 C3.66985488,1.78624443 4.21306069,2.32953983 4.21306069,2.9995052 M0,2.9995052 C0,4.65710045 1.34366755,6 2.99901055,6 C4.65633245,6 6,4.65710045 6,2.9995052 C6,1.34289955 4.65633245,0 2.99901055,0 C1.34366755,0 0,1.34289955 0,2.9995052" transform="rotate(90 -2 17)"/>
        <path d="M4.21306069,2.9995052 C4.21306069,3.66947056 3.66985488,4.21276596 2.99901055,4.21276596 C2.33014512,4.21276596 1.78693931,3.66947056 1.78693931,2.9995052 C1.78693931,2.32953983 2.33014512,1.78624443 2.99901055,1.78624443 C3.66985488,1.78624443 4.21306069,2.32953983 4.21306069,2.9995052 M0,2.9995052 C0,4.65710045 1.34366755,6 2.99901055,6 C4.65633245,6 6,4.65710045 6,2.9995052 C6,1.34289955 4.65633245,0 2.99901055,0 C1.34366755,0 0,1.34289955 0,2.9995052" transform="rotate(90 2.5 12.5)"/>
        <path d="M4.21306069,3.4995052 C4.21306069,4.16947056 3.66985488,4.71276596 2.99901055,4.71276596 C2.33014512,4.71276596 1.78693931,4.16947056 1.78693931,3.4995052 C1.78693931,2.82953983 2.33014512,2.28624443 2.99901055,2.28624443 C3.66985488,2.28624443 4.21306069,2.82953983 4.21306069,3.4995052 M0,3.4995052 C0,5.15710045 1.34366755,6.5 2.99901055,6.5 C4.65633245,6.5 6,5.15710045 6,3.4995052 C6,1.84289955 4.65633245,0.5 2.99901055,0.5 C1.34366755,0.5 0,1.84289955 0,3.4995052" transform="rotate(90 -3.5 11)"/>
      </g>
    </symbol>
    <symbol id="always" viewBox="0 0 45 45">
      <g fill="none" fill-rule="evenodd" transform="translate(10 11)">
        <g transform="translate(7 8)">
          <path fill="currentColor" d="M6.24698372,3.71833256 C4.68607674,3.71833256 3.41600698,4.98840233 3.41600698,6.5493093 C3.41600698,8.11021628 4.68607674,9.38028605 6.24698372,9.38028605 C7.8078907,9.38028605 9.07796047,8.11021628 9.07796047,6.5493093 C9.07796047,4.98840233 7.8078907,3.71833256 6.24698372,3.71833256 M6.24698372,10.891914 C3.85256512,10.891914 1.90437907,8.94403023 1.90437907,6.5493093 C1.90437907,4.1548907 3.85256512,2.20670465 6.24698372,2.20670465 C8.64140233,2.20670465 10.5895884,4.1548907 10.5895884,6.5493093 C10.5895884,8.94403023 8.64140233,10.891914 6.24698372,10.891914"/>
          <g transform="translate(5.442 .099)">
            <polygon points=".262 .204 1.348 .204 1.348 1.289 .262 1.289"/>
            <path fill="currentColor" d="M1.34794884,0.746411628 C1.34794884,1.0463186 1.10487907,1.28908605 0.805274419,1.28908605 C0.505367442,1.28908605 0.262297674,1.0463186 0.262297674,0.746411628 C0.262297674,0.446504651 0.505367442,0.203737209 0.805274419,0.203737209 C1.10487907,0.203737209 1.34794884,0.446504651 1.34794884,0.746411628" mask="url(#always-b)"/>
          </g>
          <path fill="currentColor" d="M2.59724884 2.13203023C2.80917907 2.34396047 2.80917907 2.68770465 2.59724884 2.89963488 2.3853186 3.11156512 2.04157442 3.11156512 1.82964419 2.89963488 1.61771395 2.68770465 1.61771395 2.34396047 1.82964419 2.13203023 2.04157442 1.9201 2.3853186 1.9201 2.59724884 2.13203023M.542825581 6.00660465C.842430233 6.00660465 1.0855 6.24967442 1.0855 6.54927907 1.0855 6.84918605.842430233 7.09195349.542825581 7.09195349.242918605 7.09195349.000151162791 6.84918605.000151162791 6.54927907.000151162791 6.24967442.242918605 6.00660465.542825581 6.00660465M1.82976512 10.199014C2.04169535 9.98708372 2.38513721 9.98708372 2.59736977 10.199014 2.8093 10.4109442 2.8093 10.7546884 2.59736977 10.9666186 2.38513721 11.1785488 2.04169535 11.1785488 1.82976512 10.9666186 1.61783488 10.7546884 1.61783488 10.4109442 1.82976512 10.199014M5.70418837 12.2535884C5.70418837 11.9536814 5.94725814 11.710914 6.24686279 11.710914 6.54676977 11.710914 6.78983953 11.9536814 6.78983953 12.2535884 6.78983953 12.5534953 6.54676977 12.7962628 6.24686279 12.7962628 5.94725814 12.7962628 5.70418837 12.5534953 5.70418837 12.2535884M9.89674884 10.9666186C9.6848186 10.7546884 9.6848186 10.4109442 9.89674884 10.199014 10.1086791 9.98708372 10.4524233 9.98708372 10.6643535 10.199014 10.8762837 10.4109442 10.8762837 10.7546884 10.6643535 10.9666186 10.4524233 11.1785488 10.1086791 11.1785488 9.89674884 10.9666186"/>
          <g transform="translate(11.186 5.843)">
            <polygon points=".223 .164 1.308 .164 1.308 1.249 .223 1.249"/>
            <path fill="currentColor" d="M0.765276744,1.2492093 C0.465369767,1.2492093 0.222602326,1.00613953 0.222602326,0.706534884 C0.222602326,0.406627907 0.465369767,0.163860465 0.765276744,0.163860465 C1.0648814,0.163860465 1.30795116,0.406627907 1.30795116,0.706534884 C1.30795116,1.00613953 1.0648814,1.2492093 0.765276744,1.2492093" mask="url(#always-d)"/>
          </g>
          <path fill="currentColor" d="M10.6642326,2.89963488 C10.4523023,3.11156512 10.1088605,3.11156512 9.89662791,2.89963488 C9.68469767,2.68770465 9.68469767,2.34396047 9.89662791,2.13203023 C10.1088605,1.9201 10.4523023,1.9201 10.6642326,2.13203023 C10.8761628,2.34396047 10.8761628,2.68770465 10.6642326,2.89963488"/>
        </g>
        <path stroke="currentColor" stroke-linecap="round" stroke-linejoin="round" stroke-width="2" d="M0 6L26 6 26 20C26 22.209139 24.209139 24 22 24L4 24C1.790861 24 2.705415e-16 22.209139 0 20L0 6zM3 0L23 0C24.6568542-3.04359188e-16 26 1.34314575 26 3L26 6 0 6 0 3C-2.02906125e-16 1.34314575 1.34314575 3.04359188e-16 3 0z"/>
      </g>
    </symbol>
    <symbol id="most-of-the-time" viewBox="0 0 45 45">
      <g fill="none" fill-rule="evenodd" stroke="currentColor" stroke-linecap="round" stroke-width="2" transform="rotate(45 5.303 36.703)">
        <path d="M10.6960789 23.9651569L3.28633239 23.9651569C2.50962817 23.9651569 1.86740282 23.3474972 1.82086761 22.5556361L.523402817.503552778 13.4590085.503552778 12.1615437 22.5556361C12.1150085 23.3474972 11.4725859 23.9651569 10.6960789 23.9651569zM.98959236 5.0502094L13.2272197 5.0502094"/>
        <polygon stroke-linejoin="round" points="3.569 28.332 10.614 28.332 10.614 23.965 3.569 23.965"/>
      </g>
    </symbol>
    <symbol id="sometimes" viewBox="0 0 45 45">
      <g fill="none" fill-rule="evenodd" stroke="currentColor" stroke-width="2" transform="translate(12 11)">
        <path stroke-linecap="round" stroke-linejoin="round" d="M10.242744 7.49140854L19.896584 7.49140854C20.955264 7.49140854 21.821584 8.3592378 21.821584 9.4197622 21.821584 10.4805671 20.955264 11.3483963 19.896584 11.3483963L15.282744 11.3483963 15.918624 11.3483963C16.977584 11.3483963 17.843904 12.2162256 17.843904 13.2770305 17.843904 14.3378354 16.977584 15.2053841 15.918624 15.2053841L15.282744 15.2053841M15.282744 15.2055244L15.918624 15.2055244C16.977584 15.2055244 17.843904 16.0733537 17.843904 17.1341585 17.843904 18.1946829 16.977584 19.0625122 15.918624 19.0625122L14.238624 19.0625122M1.51333953 19.820756C1.51333953 19.820756 4.01413164 22.9197244 7.93921015 22.9197244L14.238624 22.9197244C15.297584 22.9197244 16.163904 22.0518951 16.163904 20.9910902 16.163904 19.9305659 15.297584 19.0627366 14.238624 19.0627366"/>
        <path stroke-linecap="round" stroke-linejoin="round" d="M1.35602,19.4909676 C-0.108020336,17.6381674 -0.487617049,13.0631153 0.876278911,10.4274875 C2.24017487,7.79185963 3.63242,7.10750488 5.61398,6.4124561 C6.53294,6.08989512 7.34746,5.77378537 7.58826,5.68935854 C9.99906,4.84593171 9.76106,5.43102927 12.33146,7.25111463"/>
        <path d="M20.876444,2.1436561 L19.353244,0.0599121951 L17.835924,2.10887561 C17.621724,2.41124146 17.494604,2.77980244 17.494604,3.17837561 C17.494604,4.20103415 18.322284,5.03043659 19.343164,5.03043659 C20.364044,5.03043659 21.191724,4.20103415 21.191724,3.17837561 C21.191724,2.79522927 21.075524,2.43929024 20.876444,2.1436561 Z"/>
      </g>
    </symbol>
    <symbol id="never" viewBox="0 0 45 45">
      <g fill="none" fill-rule="evenodd" stroke="currentColor" stroke-width="2" transform="translate(16 16)">
        <circle cx="6.5" cy="6.5" r="6.5"/>
        <path stroke-linecap="square" d="M2.5,2.5 L10.2781746,10.2781746"/>
      </g>
    </symbol>
    <symbol id="male" viewBox="0 0 45 45">
      <g fill="none" fill-rule="evenodd" stroke="currentColor" stroke-linecap="round" stroke-width="2" transform="translate(10 10)">
        <path d="M22.6547093 10.7352267L22.6581977 14.7166933 22.6581977 15.2823378C22.6581977 21.0086933 15.364593 25.65056 12.2256395 25.65056 9.08610465 25.65056 1.7925 21.0086933 1.7925 15.2823378L1.7925 10.7352267 1.7925 10.36776C1.7925 4.64198222 6.46343023.000115555556 12.2256395.000115555556 17.9872674.000115555556 22.6581977 4.64198222 22.6581977 10.36776L22.6547093 10.7352267zM1.79232558 15.5487511C.802209302 15.5487511-.00011627907 14.75084-.00011627907 13.7674622-.00011627907 12.7835067.802209302 11.9861733 1.79232558 11.9861733M22.7217442 15.5487511C23.7118605 15.5487511 24.514186 14.75084 24.514186 13.7674622 24.514186 12.7835067 23.7118605 11.9861733 22.7217442 11.9861733"/>
        <path d="M1.7922661,10.7352267 C1.78299358,7.17669333 3.94869741,4.20864889 8.49347777,5.60860444 C11.0202291,6.39669333 13.2545378,6.70522667 15.9533827,5.60860444 C20.4981631,4.20864889 22.6638669,7.17669333 22.6545944,10.7352267"/>
      </g>
    </symbol>
    <symbol id="female" viewBox="0 0 45 45">
      <g fill="none" fill-rule="evenodd" stroke="currentColor" stroke-linecap="round" stroke-width="2" transform="translate(10 10)">
        <path d="M22.6547093 10.7352267L22.6581977 14.7166933 22.6581977 15.2823378C22.6581977 21.0086933 15.364593 25.65056 12.2256395 25.65056 9.08610465 25.65056 1.7925 21.0086933 1.7925 15.2823378L1.7925 10.7352267 1.7925 10.36776C1.7925 4.64198222 6.46343023.000115555556 12.2256395.000115555556 17.9872674.000115555556 22.6581977 4.64198222 22.6581977 10.36776L22.6547093 10.7352267zM1.79232558 14.9709733C.802209302 14.9709733-.00011627907 14.1730622-.00011627907 13.1896844-.00011627907 12.2057289.802209302 11.4083956 1.79232558 11.4083956M22.7217442 14.9709733C23.7118605 14.9709733 24.514186 14.1730622 24.514186 13.1896844 24.514186 12.2057289 23.7118605 11.4083956 22.7217442 11.4083956M7.15180233 1.28544C7.15180233 1.28544 3.37680233 11.1793067 22.036686 11.1793067M7.91093023 7.14838222C7.91093023 7.14838222 6.7777907 11.2771822 1.91209302 11.3130044"/>
        <polyline points="1.792 10.735 1.792 23.367 6.838 23.367"/>
        <polyline points="22.658 10.735 22.658 23.367 17.612 23.367"/>
      </g>
    </symbol>
    <symbol id="niacinamide" viewBox="0 0 80 80">
      <g fill="none" fill-rule="evenodd">
        <circle cx="40" cy="40" r="40" fill="#FEFEFE"/>
        <path stroke="#322E53" stroke-linecap="round" stroke-linejoin="round" stroke-width="2" d="M53.6038 53.9704L62.1048 64.4734M18.9998 15.0001L26.4328 24.1831M27.7034 53.7199L18.9994 64.4729M61.2117 15.0001L53.7787 24.1831"/>
        <path fill="#FEFEFE" d="M59.0477,26.6637 C55.2447,26.6637 52.1617,23.5807 52.1617,19.7777 L29.3177,19.7777 C29.3177,23.5807 26.2347,26.6637 22.4317,26.6637 L22.4317,42.1927 C22.4317,46.8137 24.6367,51.1577 28.3657,53.8867 L40.7447,62.9407 L53.1237,53.8867 C56.8537,51.1577 59.0587,46.8137 59.0587,42.1927 L59.0587,26.6637 C59.0547,26.6637 59.0507,26.6637 59.0477,26.6637"/>
        <path stroke="#322E53" stroke-linecap="round" stroke-linejoin="round" stroke-width="2" d="M59.0477,26.6637 C55.2447,26.6637 52.1617,23.5807 52.1617,19.7777 L29.3177,19.7777 C29.3177,23.5807 26.2347,26.6637 22.4317,26.6637 L22.4317,42.1927 C22.4317,46.8137 24.6367,51.1577 28.3657,53.8867 L40.7447,62.9407 L53.1237,53.8867 C56.8537,51.1577 59.0587,46.8137 59.0587,42.1927 L59.0587,26.6637 C59.0547,26.6637 59.0507,26.6637 59.0477,26.6637 Z"/>
        <path fill="#322E53" d="M33.2747 38.7077L32.1467 38.7077 32.1467 36.4527 33.2247 36.4527C33.7347 36.4527 34.5897 36.6027 34.5897 37.6047 34.5897 38.2747 34.0737 38.7077 33.2747 38.7077M33.6127 42.6357L32.1467 42.6357 32.1467 40.2057 33.6127 40.2057C34.5677 40.2057 35.1157 40.6397 35.1157 41.3957 35.1157 42.1837 34.5677 42.6357 33.6127 42.6357M35.4597 39.2767C35.9427 38.8367 36.1877 38.2547 36.1877 37.5427 36.1877 35.9627 35.0247 34.9417 33.2247 34.9417L30.7857 34.9417C30.6617 34.9417 30.5627 35.0417 30.5627 35.1657L30.5627 43.9227C30.5627 44.0457 30.6617 44.1457 30.7857 44.1457L33.6127 44.1457C35.5037 44.1457 36.7257 43.0757 36.7257 41.4197 36.7257 40.4727 36.2597 39.6947 35.4597 39.2767M49.7171 39.3576C50.2111 39.0186 50.6281 38.4026 50.6281 37.4676 50.6281 35.8596 49.5431 34.7796 47.9271 34.7796 46.2641 34.7796 45.1901 35.9036 45.1901 37.6426 45.1901 37.7656 45.2901 37.8656 45.4131 37.8656L46.5511 37.8656C46.6751 37.8656 46.7751 37.7656 46.7751 37.6426 46.7751 36.7826 47.1991 36.2896 47.9401 36.2896 48.8891 36.2896 49.0301 37.0436 49.0301 37.4916 49.0301 38.1036 48.8421 38.6706 47.4771 38.6706L47.2021 38.6706C47.0791 38.6706 46.9791 38.7706 46.9791 38.8936L46.9791 39.8946C46.9791 40.0176 47.0791 40.1176 47.2021 40.1176L47.4901 40.1176C48.3301 40.1176 49.3301 40.3586 49.3301 41.5086 49.3301 42.2916 48.8141 42.7976 48.0151 42.7976 47.3651 42.7976 46.5871 42.5566 46.5741 41.4056 46.5731 41.2836 46.4741 41.1846 46.3511 41.1846L45.2251 41.1846C45.1021 41.1846 45.0021 41.2846 45.0021 41.4076 45.0021 43.1966 46.1471 44.3076 47.9901 44.3076 49.7201 44.3076 50.9281 43.1716 50.9281 41.5456 50.9281 40.4066 50.3481 39.7006 49.7171 39.3576"/>
        <path stroke="#322E53" stroke-linecap="round" stroke-linejoin="round" stroke-width="2" d="M40.4866 20.3585L40.4866 61.7315M22.6815 39.5436L25.2735 39.5436M58.6927 39.5436L56.0317 39.5436"/>
      </g>
    </symbol>
    <symbol id="zinc" viewBox="0 0 80 80">
      <g fill="none" fill-rule="evenodd">
        <path fill="#FEFEFE" d="M79.9998,40.0001 C79.9998,62.0911 62.0918,80.0001 39.9998,80.0001 C17.9088,80.0001 -0.0002,62.0911 -0.0002,40.0001 C-0.0002,17.9091 17.9088,0.0001 39.9998,0.0001 C62.0918,0.0001 79.9998,17.9091 79.9998,40.0001"/>
        <path stroke="currentColor" stroke-linecap="round" stroke-linejoin="round" stroke-width="2" d="M32.1624 64.2931L36.6564 62.1991M40.3377 72.2765L42.6667 66.8305M58.2581 41.7521L60.3911 37.9551M63.01 44.6964L66.674 41.9894M50.3592 67.6969L51.7002 71.7139M61.0559 41.3253C57.8499 39.5223 53.7909 39.3753 50.2489 40.8863 46.3699 42.5423 44.3409 45.6533 42.1119 49.0343 40.7089 51.1643 39.1099 53.1583 37.2359 54.8903 35.3689 56.6173 33.7019 59.0563 33.8499 61.7023 34.2539 68.8933 44.0709 70.4503 49.4839 69.1253 54.6299 67.8643 58.7829 64.1543 62.4089 60.3033 66.2549 56.2203 67.9559 49.7043 64.7659 44.8033 63.7909 43.3023 62.5109 42.1453 61.0559 41.3253zM52.0598 45.795L51.6198 50.095M49.594 47.715L54.089 48.174M57.8284 51.9361L58.4784 56.2091M55.9212 54.4122L60.3882 53.7322M40.0769 21.3575C39.5729 20.6195 39.0149 19.9165 38.4339 19.2475 37.0979 17.7095 35.8319 16.1105 34.4749 14.5905 33.3049 13.2785 32.0339 11.7795 30.4859 10.9055 28.9069 10.0145 26.9149 10.4165 25.8729 11.9015 25.3429 12.6575 24.9949 13.5265 24.7519 14.4135 24.2489 16.2405 23.7519 18.0695 23.2059 19.8855 22.7359 21.4475 22.1369 22.9695 21.7019 24.5425 21.2959 26.0135 21.0829 27.5575 21.2649 29.0805 21.3179 29.5225 21.4029 29.9605 21.5129 30.3905 22.9349 35.9695 28.6109 39.3385 34.1889 37.9165 35.3559 37.6185 36.6629 37.2095 37.6639 36.5485 38.6829 35.8765 39.8679 34.9095 40.5539 33.9025 41.8949 31.9355 42.6759 29.2255 42.3419 26.8285 42.0639 24.8285 41.2029 23.0065 40.0769 21.3575z"/>
        <path stroke="currentColor" stroke-linecap="round" stroke-width="2" d="M25.9549 22.423L28.8769 24.068M28.2386 21.7843L26.5936 24.7063M32.4334 20.6109L35.3554 22.2559M34.7171 19.9723L33.0721 22.8943"/>
        <path stroke="currentColor" stroke-linecap="round" stroke-linejoin="round" stroke-width="2" d="M40.0769 21.3575L42.4189 19.5615M18.3816 25.2457L21.2516 25.9087M18.0369 45.3663C18.0369 46.5003 17.1179 47.4193 15.9839 47.4193 14.8499 47.4193 13.9309 46.5003 13.9309 45.3663 13.9309 44.2323 14.8499 43.3133 15.9839 43.3133 17.1179 43.3133 18.0369 44.2323 18.0369 45.3663z"/>
        <path stroke="currentColor" stroke-linecap="round" stroke-linejoin="round" stroke-width="2" d="M17.1092 49.1813C17.1092 50.2963 16.2052 51.1993 15.0912 51.1993 13.9772 51.1993 13.0732 50.2963 13.0732 49.1813 13.0732 48.0673 13.9772 47.1633 15.0912 47.1633 16.2052 47.1633 17.1092 48.0673 17.1092 49.1813zM17.0076 53.1153C17.0076 54.1743 16.1496 55.0323 15.0906 55.0323 14.0326 55.0323 13.1746 54.1743 13.1746 53.1153 13.1746 52.0573 14.0326 51.1993 15.0906 51.1993 16.1496 51.1993 17.0076 52.0573 17.0076 53.1153z"/>
        <path stroke="currentColor" stroke-linecap="round" stroke-linejoin="round" stroke-width="2" d="M18.8396 55.8497C18.8396 56.8057 18.0646 57.5807 17.1096 57.5807 16.1526 57.5807 15.3786 56.8057 15.3786 55.8497 15.3786 54.8937 16.1526 54.1197 17.1096 54.1197 18.0646 54.1197 18.8396 54.8937 18.8396 55.8497zM60.6541 22.337C60.6541 23.471 59.7351 24.39 58.6011 24.39 57.4671 24.39 56.5481 23.471 56.5481 22.337 56.5481 21.203 57.4671 20.284 58.6011 20.284 59.7351 20.284 60.6541 21.203 60.6541 22.337z"/>
        <path stroke="currentColor" stroke-linecap="round" stroke-linejoin="round" stroke-width="2" d="M64.4768,23.3043 C64.4768,24.4183 63.5738,25.3223 62.4588,25.3223 C61.3448,25.3223 60.4408,24.4183 60.4408,23.3043 C60.4408,22.1903 61.3448,21.2863 62.4588,21.2863 C63.5738,21.2863 64.4768,22.1903 64.4768,23.3043 Z"/>
        <path stroke="currentColor" stroke-linecap="round" stroke-linejoin="round" stroke-width="2" d="M64.3753,27.2384 C64.3753,28.2974 63.5173,29.1554 62.4583,29.1554 C61.4003,29.1554 60.5423,28.2974 60.5423,27.2384 C60.5423,26.1804 61.4003,25.3214 62.4583,25.3214 C63.5173,25.3214 64.3753,26.1804 64.3753,27.2384 Z"/>
      </g>
    </symbol>
    <symbol id="clindamycin" viewBox="0 0 80 80">
      <g fill="none" fill-rule="evenodd">
        <path fill="#FEFEFE" d="M79.9999,39.9998 C79.9999,62.0918 62.0909,79.9998 39.9999,79.9998 C17.9089,79.9998 -0.0001,62.0918 -0.0001,39.9998 C-0.0001,17.9088 17.9089,-0.0002 39.9999,-0.0002 C62.0909,-0.0002 79.9999,17.9088 79.9999,39.9998"/>
        <path stroke="currentColor" stroke-linecap="round" stroke-width="2" d="M59.0961,63.5897 L45.1871,63.5897 L45.1871,34.6407 C45.1871,30.7997 48.3011,27.6867 52.1411,27.6867 C55.9821,27.6867 59.0961,30.7997 59.0961,34.6407 L59.0961,63.5897 Z"/>
        <polyline stroke="currentColor" stroke-linecap="round" stroke-width="2" points="48.664 27.686 48.664 21.274 55.076 21.274 55.076 27.686"/>
        <path stroke="currentColor" stroke-linecap="round" stroke-width="2" d="M41.7513 21.2743L57.9703 21.2743C61.0153 21.2743 63.4823 23.7423 63.4823 26.7873L63.4823 58.3573M61.5604 16.9764L55.0764 21.2744"/>
        <polygon stroke="currentColor" stroke-linecap="round" stroke-linejoin="round" stroke-width="2" points="41.397 23.129 27.758 25.595 27.758 16.951 41.397 19.417"/>
        <polygon stroke="currentColor" stroke-linecap="round" stroke-width="2" points="45.187 55.409 51.87 55.409 51.87 36.646 45.187 36.646"/>
        <path stroke="currentColor" stroke-linecap="round" stroke-linejoin="round" stroke-width="2" d="M23.9427,63.4598 C23.9427,63.4598 16.1147,61.9448 15.7027,53.4468 C15.3777,46.7648 20.1467,41.8308 20.1467,41.8308 C20.1467,41.8308 20.9237,44.1148 20.9237,46.6038 C20.9237,46.6038 24.6567,44.3778 26.0567,41.0578 C27.4567,37.7378 27.6117,33.5378 27.6117,33.5378 C27.6117,33.5378 30.2557,38.1158 31.8117,41.8308 C33.3667,45.5458 33.5327,46.2068 33.5327,46.2068 C33.5327,46.2068 34.9717,42.9748 35.4637,41.6608 C35.4637,41.6608 38.3377,45.6838 38.0087,51.6758 C37.6807,57.6678 34.6567,63.3838 28.2377,63.3838 C28.2377,63.3838 29.1467,62.0408 29.3897,58.4058 C29.6577,54.4088 26.3677,51.2848 26.3677,51.2848 C26.3677,51.2848 19.2637,55.4628 23.9427,63.4598 Z"/>
      </g>
    </symbol>
    <symbol id="vitamin-c" viewBox="0 0 80 80">
      <g fill="none" fill-rule="evenodd">
        <path fill="#FEFEFE" d="M80,39.9999 C80,62.0919 62.091,79.9999 40,79.9999 C17.909,79.9999 0,62.0919 0,39.9999 C0,17.9089 17.909,-0.0001 40,-0.0001 C62.091,-0.0001 80,17.9089 80,39.9999"/>
        <path fill="#FEFEFE" d="M80,39.9999 C80,62.0919 62.091,79.9999 40,79.9999 C17.909,79.9999 0,62.0919 0,39.9999 C0,17.9089 17.909,-0.0001 40,-0.0001 C62.091,-0.0001 80,17.9089 80,39.9999"/>
        <g transform="translate(24 12)">
          <path fill="#FEFEFE" d="M0.9473,57.162 L31.2553,0.838"/>
          <path stroke="currentColor" stroke-linecap="round" stroke-linejoin="round" stroke-width="2" d="M0.9473,57.162 L31.2553,0.838"/>
        </g>
        <polyline stroke="currentColor" stroke-linecap="round" stroke-linejoin="round" stroke-width="2" points="53.376 20.166 67.276 27.52 55.225 12.968"/>
        <g transform="translate(24 12)">
          <path fill="#FEFEFE" d="M31.0527,57.162 L0.7447,0.838"/>
          <path stroke="currentColor" stroke-linecap="round" stroke-linejoin="round" stroke-width="2" d="M31.0527,57.162 L0.7447,0.838"/>
        </g>
        <polyline stroke="currentColor" stroke-linecap="round" stroke-linejoin="round" stroke-width="2" points="26.625 20.166 12.723 27.52 24.774 12.968"/>
        <path fill="#FEFEFE" d="M26.3056,29.8827 L26.5596,48.8237 C26.6996,56.4727 40.6686,63.1717 40.6686,63.1717 C40.6686,63.1717 54.3826,56.0017 54.2386,48.3487 L53.9446,29.4467 L26.3056,29.8827 Z"/>
        <path stroke="currentColor" stroke-linecap="round" stroke-linejoin="round" stroke-width="2" d="M26.3056,29.8827 L26.5596,48.8237 C26.6996,56.4727 40.6686,63.1717 40.6686,63.1717 C40.6686,63.1717 54.3826,56.0017 54.2386,48.3487 L53.9446,29.4467 L26.3056,29.8827 Z"/>
        <path fill="#FEFEFE" d="M26.3056,29.8827 L26.5596,48.8237 C26.6996,56.4727 40.6686,63.1717 40.6686,63.1717 C40.6686,63.1717 54.3826,56.0017 54.2386,48.3487 L53.9446,29.4467 L26.3056,29.8827 Z"/>
        <path stroke="currentColor" stroke-linecap="round" stroke-linejoin="round" stroke-width="2" d="M26.3056,29.8827 L26.5596,48.8237 C26.6996,56.4727 40.6686,63.1717 40.6686,63.1717 C40.6686,63.1717 54.3826,56.0017 54.2386,48.3487 L53.9446,29.4467 L26.3056,29.8827 Z"/>
        <g transform="translate(34 38)">
          <path fill="#FEFEFE" d="M11.1523,10.8661 C10.0883,11.9661 8.6043,12.6581 6.9533,12.6841 C3.6523,12.7361 0.9333,10.1021 0.8813,6.8011 C0.8293,3.4991 3.4633,0.7811 6.7643,0.7281 C8.3613,0.7031 9.8223,1.3061 10.9103,2.3101"/>
          <path stroke="currentColor" stroke-linecap="round" stroke-linejoin="round" stroke-width="2" d="M11.1523,10.8661 C10.0883,11.9661 8.6043,12.6581 6.9533,12.6841 C3.6523,12.7361 0.9333,10.1021 0.8813,6.8011 C0.8293,3.4991 3.4633,0.7811 6.7643,0.7281 C8.3613,0.7031 9.8223,1.3061 10.9103,2.3101"/>
        </g>
        <path stroke="currentColor" stroke-linecap="round" stroke-linejoin="round" stroke-width="2" d="M40.2724 29.663L40.2724 33.555M40.6689 63.1718L40.6689 56.0808M27.3056 44.7059L29.1936 44.7059M54.1821 44.7059L51.5931 44.7059"/>
      </g>
    </symbol>
    <symbol id="azelaic-acid" viewBox="0 0 80 80">
      <g fill="none" fill-rule="evenodd">
        <path fill="#FEFEFE" d="M80,39.9999 C80,62.0919 62.091,79.9999 40,79.9999 C17.909,79.9999 0,62.0919 0,39.9999 C0,17.9089 17.909,-0.0001 40,-0.0001 C62.091,-0.0001 80,17.9089 80,39.9999"/>
        <g transform="translate(10 13)">
          <path stroke="currentColor" stroke-width="2" d="M23.8354 45.6434C23.8354 46.1054 23.4614 46.4784 23.0004 46.4784 22.5384 46.4784 22.1644 46.1054 22.1644 45.6434 22.1644 45.1824 22.5384 44.8084 23.0004 44.8084 23.4614 44.8084 23.8354 45.1824 23.8354 45.6434zM35.2485 6.3348C35.2485 9.4808 32.6985 12.0298 29.5545 12.0298 26.4095 12.0298 23.8605 9.4808 23.8605 6.3348 23.8605 3.1898 26.4095.6408 29.5545.6408 32.6985.6408 35.2485 3.1898 35.2485 6.3348z"/>
          <path stroke="currentColor" stroke-linecap="round" stroke-linejoin="round" stroke-width="2" d="M25.7637 14.8944L25.7637 22.5394M29.5542 17.1112L29.5542 26.1232M33.6338 15.1063L33.6338 19.7403"/>
          <path fill="currentColor" d="M59.5989591,53.9058294 C59.1029563,54.451155 58.5920889,54.9827186 58.0669972,55.4998801 C56.8375722,55.0150715 55.7268362,54.322058 54.551936,53.3465027 C52.228199,51.4173188 49.9837589,48.9307663 47.2833742,45.4701013 C46.7299718,44.7608913 46.1732501,44.0324681 45.464729,43.0943265 C45.3989069,43.0071725 44.1135956,41.3007469 43.753147,40.8256687 C40.3436114,36.3334148 35.0068136,33.5151 29.6367,33.5151 C24.5766169,33.5151 19.3469976,36.04775 15.7172217,40.0956983 C14.581646,41.3621196 13.6522742,42.6347054 11.9484106,45.1546473 C11.729725,45.4782562 11.729725,45.4782562 11.5101693,45.8031264 C8.86617824,49.7130071 7.37983396,51.5967804 5.27240635,53.3465506 C4.17549958,54.2570721 3.10098652,54.9884176 1.99615518,55.5619421 C1.495806,55.0713131 1.00829322,54.5676406 0.534167238,54.0514749 C1.70613277,53.511786 2.82842373,52.775997 3.99489975,51.8077274 C5.90986517,50.2177561 7.31327447,48.4390935 9.85342,44.6827775 C10.0723386,44.3588499 10.0723386,44.3588499 10.2915988,44.0343908 C12.0449967,41.4411897 13.0130321,40.115662 14.2281837,38.7604958 C18.2233674,34.3050425 23.9842649,31.5151 29.6367,31.5151 C35.6517689,31.5151 41.5691865,34.6400349 45.3463553,39.6166661 C45.7094203,40.0951926 46.996744,41.8042901 47.0607066,41.888982 C47.7634309,42.8194481 48.3142811,43.5401889 48.8601432,44.2397358 C51.4795833,47.5966665 53.6394813,49.9895571 55.8295199,51.8077437 C57.0640718,52.8328295 58.2100562,53.4926571 59.5989591,53.9058294 Z"/>
          <path stroke="currentColor" stroke-width="2" d="M27.478 45.6424C27.478 48.0454 25.53 49.9934 23.127 49.9934 20.726 49.9934 18.779 48.0454 18.779 45.6424 18.779 43.2414 20.726 41.2944 23.127 41.2944 25.53 41.2944 27.478 43.2414 27.478 45.6424zM41.5723 45.6424C41.5723 48.0454 39.6243 49.9934 37.2213 49.9934 34.8203 49.9934 32.8733 48.0454 32.8733 45.6424 32.8733 43.2414 34.8203 41.2944 37.2213 41.2944 39.6243 41.2944 41.5723 43.2414 41.5723 45.6424z"/>
          <path stroke="currentColor" stroke-width="2" d="M38.0571 45.6434C38.0571 46.1054 37.6831 46.4784 37.2221 46.4784 36.7611 46.4784 36.3871 46.1054 36.3871 45.6434 36.3871 45.1824 36.7611 44.8084 37.2221 44.8084 37.6831 44.8084 38.0571 45.1824 38.0571 45.6434zM39.977 56.8417C39.977 58.2807 38.384 59.4587 36.436 59.4587L23.219 59.4587C21.271 59.4587 19.678 58.2807 19.678 56.8417 19.678 55.4027 21.271 54.2247 23.219 54.2247L36.436 54.2247C38.384 54.2247 39.977 55.4027 39.977 56.8417zM23.9253 54.1161L23.9253 59.4231M27.9477 54.1161L27.9477 59.4231M31.9712 54.1161L31.9712 59.4231M35.9946 54.1161L35.9946 59.4231"/>
          <path stroke="currentColor" stroke-linecap="round" stroke-width="2" d="M34.5654,33.7059 C33.4394,35.3719 31.5334,36.4669 29.3714,36.4669 C27.4284,36.4669 25.6914,35.5809 24.5434,34.1909"/>
          <path stroke="currentColor" stroke-width="2" d="M25.522,33.3661 C25.444,33.2731 25.371,33.1771 25.3,33.0771"/>
        </g>
      </g>
    </symbol>
    <symbol id="tretinoin" viewBox="0 0 80 80">
      <g fill="none" fill-rule="evenodd">
        <circle cx="40" cy="40" r="40" fill="#FEFEFE"/>
        <path stroke="currentColor" stroke-linecap="round" stroke-width="2" d="M56.3804 59.3499L48.4184 25.3209 31.3104 25.3209 23.3484 59.3499C23.0134 60.7819 24.1004 62.1529 25.5714 62.1529L54.1574 62.1529C55.6284 62.1529 56.7154 60.7819 56.3804 59.3499zM46.1577 21.0003L33.5707 21.0003C31.3497 21.0003 30.0437 23.4963 31.3107 25.3203L48.4177 25.3203C49.6847 23.4963 48.3797 21.0003 46.1577 21.0003z"/>
        <path stroke="currentColor" stroke-linecap="round" stroke-width="2" d="M23.6582,58.0237 L56.0702,58.0237 L56.0702,54.2577 C56.0702,50.0477 58.4762,46.2107 62.2642,44.3757 C66.0532,42.5407 68.4592,38.7017 68.4592,34.4927 C68.4592,29.3827 64.3182,25.2427 59.2092,25.2427 C55.1092,25.2427 51.5912,27.7347 50.0882,31.2877"/>
        <polyline stroke="currentColor" stroke-linecap="round" stroke-width="2" points="26.707 41.161 16.901 32.148 13.715 34.757 24.656 53.528"/>
        <path stroke="currentColor" stroke-linecap="round" stroke-width="2" d="M37.4712 44.0774C38.2732 44.8804 38.2732 46.1814 37.4712 46.9824 36.6682 47.7854 35.3672 47.7854 34.5652 46.9824 33.7632 46.1814 33.4222 42.9334 33.4222 42.9334 33.4222 42.9334 36.6682 43.2754 37.4712 44.0774zM45.1636 46.9827C44.3606 47.7857 43.0596 47.7857 42.2576 46.9827 41.4556 46.1807 41.4556 44.8797 42.2576 44.0777 43.0596 43.2757 46.3076 42.9337 46.3076 42.9337 46.3076 42.9337 45.9656 46.1807 45.1636 46.9827zM39.8359 51.0774L39.8359 40.3964M43.6694 36.1184C43.6694 38.2164 41.9694 39.9164 39.8714 39.9164 37.7734 39.9164 36.0734 38.2164 36.0734 36.1184L43.6694 36.1184z"/>
        <polyline stroke="currentColor" stroke-linecap="round" stroke-linejoin="round" stroke-width="2" points="16.9 32.147 16.026 27.947 9.608 33.555 13.715 34.757"/>
      </g>
    </symbol>
    <symbol id="elated-emoji-clicked" viewBox="0 0 27 27" >
      <defs>
      </defs>
      <g stroke="none" stroke-width="1" fill="none" fill-rule="evenodd">
        <path d="M13.5008,13.4581 C12.8078,13.4581 12.1638,13.3681 11.5958,13.2881 C11.1848,13.2301 10.7878,13.1751 10.4728,13.1751 C10.2278,13.1751 10.0348,13.2081 9.9268,13.3031 C9.8128,13.4011 9.7568,13.6091 9.7568,13.9191 C9.7568,15.5801 11.4348,16.9321 13.5008,16.9321 C15.5648,16.9321 17.2438,15.5801 17.2438,13.9191 C17.2438,13.6091 17.1868,13.4011 17.0728,13.3031 C16.8268,13.0881 16.1348,13.1851 15.4038,13.2881 C14.8368,13.3681 14.1928,13.4581 13.5008,13.4581 Z" fill="#A6A1E2" />
        <g transform="translate(0.000000, 0.000500)">
          <mask fill="white">
            <polygon points="0 0 26.9996 0 26.9996 26.9997 0 26.9997" />
          </mask>
          <path d="M21.8716,11.5937 C21.7186,11.7067 21.5056,11.6897 21.3726,11.5527 C21.3526,11.5317 20.9756,11.1617 20.3376,11.1617 C19.6916,11.1617 19.3066,11.5467 19.3036,11.5507 C19.2286,11.6287 19.1286,11.6687 19.0276,11.6687 C18.9486,11.6687 18.8686,11.6437 18.8026,11.5937 C18.6476,11.4797 18.6026,11.2687 18.6966,11.1017 C19.0346,10.5047 19.6626,10.1347 20.3376,10.1347 C21.0116,10.1347 21.6396,10.5047 21.9756,11.1017 C22.0706,11.2687 22.0256,11.4797 21.8716,11.5937 M13.5006,17.6907 C11.0176,17.6907 8.9966,15.9987 8.9966,13.9187 C8.9966,13.3707 9.1386,12.9817 9.4286,12.7287 C9.9346,12.2877 10.7156,12.3967 11.7016,12.5357 C12.2446,12.6117 12.8606,12.6977 13.5006,12.6977 C14.1396,12.6977 14.7556,12.6117 15.2986,12.5357 C16.2846,12.3967 17.0636,12.2877 17.5716,12.7287 C17.8616,12.9817 18.0036,13.3707 18.0036,13.9187 C18.0036,15.9987 15.9826,17.6907 13.5006,17.6907 M8.1986,11.5937 C8.0456,11.7067 7.8316,11.6897 7.6996,11.5527 C7.6796,11.5317 7.3016,11.1617 6.6636,11.1617 C6.0176,11.1617 5.6336,11.5467 5.6296,11.5507 C5.5556,11.6287 5.4546,11.6687 5.3546,11.6687 C5.2746,11.6687 5.1956,11.6437 5.1286,11.5937 C4.9746,11.4797 4.9296,11.2687 5.0236,11.1017 C5.3606,10.5047 5.9896,10.1347 6.6636,10.1347 C7.3376,10.1347 7.9656,10.5047 8.3036,11.1017 C8.3966,11.2687 8.3516,11.4797 8.1986,11.5937 M13.5006,-0.0003 C6.0566,-0.0003 -0.0004,6.0557 -0.0004,13.4997 C-0.0004,20.9437 6.0566,26.9997 13.5006,26.9997 C20.9436,26.9997 26.9996,20.9437 26.9996,13.4997 C26.9996,6.0557 20.9436,-0.0003 13.5006,-0.0003" fill="#A6A1E2" />
        </g>
      </g>
    </symbol>
    <symbol id="elated-emoji" viewBox="0 0 27 27">
      <defs>
        <polygon points="0 0 26.9995 0 26.9995 27 0 27" />
      </defs>
      <g stroke="none" stroke-width="1" fill="none" fill-rule="evenodd">
        <path d="M21.9956,13.362 C21.1376,13.362 20.4396,14.058 20.4396,14.917 C20.4396,15.776 21.1376,16.471 21.9956,16.471 C22.8526,16.471 23.5496,15.776 23.5496,14.917 C23.5496,14.058 22.8526,13.362 21.9956,13.362" fill="#DDDDE3" />
        <path d="M3.4504,14.917 C3.4504,15.776 4.1474,16.471 5.0044,16.471 C5.8634,16.471 6.5594,15.776 6.5594,14.917 C6.5594,14.058 5.8634,13.362 5.0044,13.362 C4.1474,13.362 3.4504,14.058 3.4504,14.917 Z" fill="#DDDDE3" />
        <g transform="translate(0.000000, 0.000200)">
          <mask fill="white">
            <polygon points="0 0 26.9996 0 26.9996 26.9997 0 26.9997" />
          </mask>
          <path d="M13.5005,25.6324 C6.8105,25.6324 1.3665,20.1904 1.3665,13.5004 C1.3665,6.8104 6.8105,1.3674 13.5005,1.3674 C20.1895,1.3674 25.6335,6.8104 25.6335,13.5004 C25.6335,20.1904 20.1895,25.6324 13.5005,25.6324 M13.5005,-0.0006 C6.0565,-0.0006 -0.0005,6.0564 -0.0005,13.5004 C-0.0005,20.9444 6.0565,27.0004 13.5005,27.0004 C20.9435,27.0004 26.9995,20.9444 26.9995,13.5004 C26.9995,6.0564 20.9435,-0.0006 13.5005,-0.0006" fill="#332E54" />
        </g>
        <path d="M6.6636,10.1345 C5.9886,10.1345 5.3606,10.5055 5.0236,11.1025 C4.9296,11.2695 4.9746,11.4805 5.1286,11.5945 C5.1956,11.6445 5.2746,11.6695 5.3546,11.6695 C5.4546,11.6695 5.5556,11.6295 5.6296,11.5515 C5.6336,11.5475 6.0176,11.1625 6.6636,11.1625 C7.3016,11.1625 7.6796,11.5325 7.6996,11.5525 C7.8316,11.6895 8.0456,11.7075 8.1986,11.5935 C8.3516,11.4795 8.3966,11.2685 8.3036,11.1015 C7.9656,10.5055 7.3376,10.1345 6.6636,10.1345" fill="#332E54" />
        <path d="M20.3374,10.1345 C19.6624,10.1345 19.0344,10.5055 18.6964,11.1025 C18.6034,11.2695 18.6484,11.4805 18.8024,11.5945 C18.8684,11.6445 18.9484,11.6695 19.0274,11.6695 C19.1284,11.6695 19.2294,11.6295 19.3034,11.5515 C19.3064,11.5475 19.6914,11.1625 20.3374,11.1625 C20.9754,11.1625 21.3534,11.5325 21.3724,11.5525 C21.5054,11.6895 21.7184,11.7075 21.8714,11.5935 C22.0254,11.4795 22.0704,11.2685 21.9764,11.1015 C21.6394,10.5055 21.0114,10.1345 20.3374,10.1345" fill="#332E54" />
        <path d="M13.5005,16.9319 C11.4355,16.9319 9.7565,15.5799 9.7565,13.9189 C9.7565,13.6089 9.8125,13.4009 9.9275,13.3029 C10.0345,13.2089 10.2285,13.1749 10.4735,13.1749 C10.7875,13.1749 11.1855,13.2299 11.5965,13.2879 C12.1635,13.3679 12.8085,13.4579 13.5005,13.4579 C14.1925,13.4579 14.8365,13.3679 15.4035,13.2879 C16.1355,13.1849 16.8265,13.0889 17.0725,13.3029 C17.1875,13.4009 17.2435,13.6089 17.2435,13.9189 C17.2435,15.5799 15.5645,16.9319 13.5005,16.9319 M15.2985,12.5359 C14.7555,12.6119 14.1395,12.6989 13.5005,12.6989 C12.8605,12.6989 12.2445,12.6119 11.7015,12.5359 C10.7155,12.3969 9.9355,12.2879 9.4285,12.7289 C9.1385,12.9819 8.9965,13.3709 8.9965,13.9189 C8.9965,15.9989 11.0175,17.6909 13.5005,17.6909 C15.9825,17.6909 18.0035,15.9989 18.0035,13.9189 C18.0035,13.3709 17.8615,12.9819 17.5715,12.7289 C17.0635,12.2879 16.2845,12.3969 15.2985,12.5359" fill="#332E54" />
      </g>
    </symbol>
    <symbol id="furious-emoji" viewBox="0 0 27 27">
      <g stroke="none" stroke-width="1" fill="none" fill-rule="evenodd">
        <g transform="translate(0.000000, 0.000200)">
          <mask fill="white">
            <polygon points="0.0005 0 27 0 27 27 0.0005 27" />
          </mask>
          <path d="M13.4995,25.6324 C6.8105,25.6324 1.3665,20.1904 1.3665,13.5004 C1.3665,6.8104 6.8105,1.3674 13.4995,1.3674 C20.1895,1.3674 25.6335,6.8104 25.6335,13.5004 C25.6335,20.1904 20.1895,25.6324 13.4995,25.6324 M13.4995,-0.0006 C6.0565,-0.0006 0.0005,6.0554 0.0005,13.5004 C0.0005,20.9444 6.0565,27.0004 13.4995,27.0004 C20.9435,27.0004 27.0005,20.9444 27.0005,13.5004 C27.0005,6.0554 20.9435,-0.0006 13.4995,-0.0006" fill="#332E54" />
        </g>
        <path d="M15.397,20.7215 C15.312,20.7935 14.906,20.7285 14.61,20.6815 C14.281,20.6285 13.908,20.5685 13.5,20.5685 C13.092,20.5685 12.719,20.6285 12.39,20.6815 C12.093,20.7285 11.687,20.7945 11.603,20.7215 C11.6,20.7195 11.542,20.6665 11.542,20.4025 C11.542,19.3975 12.419,18.5795 13.5,18.5795 C14.58,18.5795 15.459,19.3975 15.459,20.4025 C15.459,20.6665 15.4,20.7195 15.397,20.7215 M13.5,17.8205 C12.001,17.8205 10.782,18.9785 10.782,20.4025 C10.782,20.8175 10.889,21.1115 11.11,21.2995 C11.298,21.4605 11.526,21.5125 11.782,21.5125 C12.004,21.5125 12.25,21.4735 12.51,21.4315 C12.811,21.3835 13.153,21.3275 13.5,21.3275 C13.847,21.3275 14.188,21.3835 14.49,21.4315 C15.052,21.5225 15.539,21.5995 15.89,21.2995 C16.111,21.1115 16.218,20.8175 16.218,20.4025 C16.218,18.9785 14.999,17.8205 13.5,17.8205" fill="#332E54" />
        <path d="M6.478,16.078 C6,16.384 5.862,17.018 6.166,17.495 C6.472,17.973 7.107,18.112 7.583,17.807 C8.061,17.501 8.201,16.867 7.895,16.39 C7.59,15.912 6.956,15.773 6.478,16.078" fill="#332E54" />
        <path d="M8.5903,14.6243 L5.8893,12.8453 C5.7133,12.7303 5.4783,12.7783 5.3633,12.9543 C5.2473,13.1293 5.2963,13.3643 5.4723,13.4793 L8.1733,15.2583 C8.2363,15.3013 8.3093,15.3213 8.3813,15.3213 C8.5043,15.3213 8.6253,15.2613 8.6983,15.1503 C8.8143,14.9753 8.7663,14.7393 8.5903,14.6243" fill="#332E54" />
        <path d="M20.522,16.078 C20.044,15.773 19.41,15.912 19.105,16.39 C18.799,16.867 18.938,17.501 19.417,17.807 C19.893,18.112 20.528,17.973 20.834,17.495 C21.138,17.018 21,16.384 20.522,16.078" fill="#332E54" />
        <path d="M21.1108,12.8455 L18.4088,14.6245 C18.2338,14.7395 18.1848,14.9755 18.3008,15.1505 C18.3738,15.2615 18.4948,15.3215 18.6188,15.3215 C18.6898,15.3215 18.7618,15.3015 18.8268,15.2585 L21.5278,13.4795 C21.7038,13.3645 21.7528,13.1295 21.6358,12.9535 C21.5218,12.7785 21.2868,12.7305 21.1108,12.8455" fill="#332E54" />
      </g>
    </symbol>
    <symbol id="furious-emoji-clicked" viewBox="0 0 27 27">
      <defs>
        <polygon points="0.0008 0 27 0 27 27 0.0008 27" />
      </defs>
      <g stroke="none" stroke-width="1" fill="none" fill-rule="evenodd">
        <path d="M13.4995,18.5798 C12.4195,18.5798 11.5415,19.3978 11.5415,20.4028 C11.5415,20.6658 11.6005,20.7188 11.6035,20.7218 C11.6875,20.7948 12.0935,20.7288 12.3905,20.6818 C12.7195,20.6288 13.0925,20.5688 13.4995,20.5688 C13.9075,20.5688 14.2805,20.6288 14.6095,20.6818 C14.9055,20.7278 15.3115,20.7938 15.3965,20.7218 C15.3995,20.7188 15.4585,20.6658 15.4585,20.4028 C15.4585,19.3978 14.5795,18.5798 13.4995,18.5798" fill="#A6A1E2" />
        <g transform="translate(0.000000, 0.000500)">
          <mask fill="white">
            <polygon points="0.0005 0 27 0 27 27 0.0005 27" />
          </mask>
          <path d="M21.5278,13.4792 L18.8268,15.2582 C18.7618,15.3002 18.6898,15.3212 18.6188,15.3212 C18.4948,15.3212 18.3738,15.2612 18.3008,15.1502 C18.1848,14.9752 18.2338,14.7392 18.4088,14.6242 L21.1108,12.8452 C21.2868,12.7292 21.5218,12.7782 21.6358,12.9532 C21.7528,13.1282 21.7038,13.3642 21.5278,13.4792 M20.8338,17.4952 C20.5278,17.9722 19.8928,18.1112 19.4158,17.8062 C18.9388,17.5012 18.7988,16.8662 19.1048,16.3892 C19.4098,15.9122 20.0448,15.7722 20.5218,16.0782 C20.9998,16.3832 21.1378,17.0182 20.8338,17.4952 M15.8898,21.2992 C15.5388,21.6002 15.0518,21.5212 14.4898,21.4312 C14.1878,21.3822 13.8468,21.3282 13.4998,21.3282 C13.1528,21.3282 12.8108,21.3822 12.5098,21.4312 C12.2498,21.4732 12.0048,21.5122 11.7818,21.5122 C11.5258,21.5122 11.2988,21.4592 11.1098,21.2992 C10.8888,21.1112 10.7818,20.8172 10.7818,20.4022 C10.7818,18.9782 12.0008,17.8202 13.4998,17.8202 C14.9988,17.8202 16.2178,18.9782 16.2178,20.4022 C16.2178,20.8172 16.1108,21.1112 15.8898,21.2992 M8.6988,15.1502 C8.6258,15.2612 8.5048,15.3212 8.3818,15.3212 C8.3088,15.3212 8.2368,15.3002 8.1738,15.2582 L5.4718,13.4792 C5.2968,13.3642 5.2478,13.1282 5.3638,12.9532 C5.4778,12.7782 5.7138,12.7292 5.8888,12.8452 L8.5898,14.6242 C8.7658,14.7392 8.8138,14.9752 8.6988,15.1502 M7.5838,17.8062 C7.1068,18.1112 6.4718,17.9722 6.1668,17.4952 C5.8608,17.0182 6.0008,16.3832 6.4778,16.0782 C6.9558,15.7722 7.5898,15.9122 7.8948,16.3892 C8.2008,16.8662 8.0608,17.5012 7.5838,17.8062 M13.4998,-0.0008 C6.0558,-0.0008 0.0008,6.0562 0.0008,13.5002 C0.0008,20.9432 6.0558,27.0002 13.4998,27.0002 C20.9438,27.0002 27.0008,20.9432 27.0008,13.5002 C27.0008,6.0562 20.9438,-0.0008 13.4998,-0.0008" fill="#A6A1E2" />
        </g>
      </g>
    </symbol>
    <symbol id="satisfied-emoji-clicked" viewBox="0 0 27 27">
      <g stroke="none" stroke-width="1" fill="none" fill-rule="evenodd">
        <mask fill="white">
          <polygon points="0.0001 0.0006 27 0.0006 27 27.001 0.0001 27.001" />
        </mask>
        <path d="M21.8711,16.7546 C21.7181,16.8676 21.5061,16.8506 21.3721,16.7136 C21.3511,16.6926 20.9741,16.3226 20.3371,16.3226 C19.6911,16.3226 19.3071,16.7086 19.3031,16.7126 C19.2281,16.7896 19.1291,16.8296 19.0281,16.8296 C18.9491,16.8296 18.8701,16.8056 18.8021,16.7546 C18.6481,16.6406 18.6031,16.4306 18.6971,16.2636 C19.0341,15.6666 19.6621,15.2956 20.3371,15.2956 C21.0121,15.2956 21.6401,15.6656 21.9761,16.2626 C22.0701,16.4296 22.0251,16.6406 21.8711,16.7546 M16.0671,18.5746 C15.5171,19.1856 14.5591,19.5496 13.5001,19.5496 C12.4401,19.5496 11.4811,19.1856 10.9331,18.5746 C10.7931,18.4196 10.8061,18.1786 10.9621,18.0386 C11.1161,17.8986 11.3561,17.9106 11.4981,18.0666 C11.8981,18.5126 12.6661,18.7896 13.5001,18.7896 C14.3341,18.7896 15.1011,18.5126 15.5021,18.0666 C15.6431,17.9106 15.8831,17.8986 16.0391,18.0386 C16.1941,18.1786 16.2071,18.4186 16.0671,18.5746 M8.1981,16.7546 C8.0451,16.8676 7.8311,16.8506 7.6991,16.7136 C7.6781,16.6926 7.3001,16.3226 6.6631,16.3226 C6.0181,16.3226 5.6331,16.7086 5.6301,16.7126 C5.5561,16.7896 5.4551,16.8296 5.3541,16.8296 C5.2751,16.8296 5.1961,16.8056 5.1291,16.7546 C4.9751,16.6406 4.9301,16.4306 5.0231,16.2636 C5.3601,15.6666 5.9881,15.2956 6.6631,15.2956 C7.3381,15.2956 7.9661,15.6656 8.3031,16.2626 C8.3961,16.4296 8.3511,16.6406 8.1981,16.7546 M13.5001,0.0006 C6.0561,0.0006 0.0001,6.0566 0.0001,13.5006 C0.0001,20.9446 6.0561,27.0016 13.5001,27.0016 C20.9441,27.0016 27.0001,20.9446 27.0001,13.5006 C27.0001,6.0566 20.9441,0.0006 13.5001,0.0006" fill="#A6A1E2" />
      </g>
    </symbol>
    <symbol id="satisfied-emoji" viewBox="0 0 27 27" >
        <g stroke="none" stroke-width="1" fill="currentColor" fill-rule="evenodd">
          <path d="M13.5,25.6334 C6.811,25.6334 1.367,20.1904 1.367,13.5004 C1.367,6.8104 6.811,1.3674 13.5,1.3674 C20.189,1.3674 25.633,6.8104 25.633,13.5004 C25.633,20.1904 20.189,25.6334 13.5,25.6334 M13.5,0.0004 C6.056,0.0004 0,6.0564 0,13.5004 C0,20.9444 6.056,27.0004 13.5,27.0004 C20.944,27.0004 27,20.9444 27,13.5004 C27,6.0564 20.944,0.0004 13.5,0.0004" />
          <path d="M15.502,18.0665 C15.101,18.5125 14.334,18.7895 13.5,18.7895 C12.666,18.7895 11.898,18.5125 11.498,18.0665 C11.356,17.9105 11.116,17.8985 10.962,18.0385 C10.806,18.1785 10.793,18.4195 10.934,18.5745 C11.481,19.1855 12.44,19.5495 13.5,19.5495 C14.559,19.5495 15.518,19.1855 16.066,18.5745 C16.207,18.4185 16.194,18.1785 16.039,18.0385 C15.883,17.8985 15.644,17.9105 15.502,18.0665" />
          <path d="M6.6631,15.295 C5.9881,15.295 5.3601,15.666 5.0231,16.263 C4.9301,16.43 4.9751,16.641 5.1291,16.755 C5.1961,16.805 5.2751,16.83 5.3541,16.83 C5.4551,16.83 5.5561,16.79 5.6301,16.712 C5.6331,16.708 6.0181,16.323 6.6631,16.323 C7.3001,16.323 7.6781,16.692 7.6991,16.713 C7.8311,16.85 8.0451,16.868 8.1981,16.754 C8.3511,16.64 8.3961,16.429 8.3031,16.263 C7.9661,15.666 7.3381,15.295 6.6631,15.295" />
          <path d="M20.3369,15.295 C19.6619,15.295 19.0339,15.666 18.6969,16.263 C18.6039,16.43 18.6489,16.641 18.8019,16.755 C18.8699,16.805 18.9489,16.83 19.0279,16.83 C19.1289,16.83 19.2289,16.79 19.3029,16.712 C19.3069,16.708 19.6909,16.323 20.3369,16.323 C20.9739,16.323 21.3519,16.692 21.3719,16.713 C21.5059,16.85 21.7179,16.868 21.8709,16.754 C22.0249,16.64 22.0699,16.429 21.9769,16.263 C21.6399,15.666 21.0119,15.295 20.3369,15.295" />
        </g>
    </symbol>
    <symbol id="unsatisfied-emoji" viewBox="0 0 27 27">
      <g stroke="none" stroke-width="1" fill="none" fill-rule="evenodd">
        <path d="M19.0575,15.3744 C18.586,15.6759 18.448,16.3024 18.75,16.7739 C19.0515,17.2449 19.6775,17.3829 20.1495,17.0814 C20.6205,16.7799 20.758,16.1534 20.457,15.6819 C20.155,15.2104 19.5285,15.0729 19.0575,15.3744" fill="#332E54" />
        <path d="M7.6,15.3744 C7.129,15.0729 6.502,15.2104 6.2005,15.6819 C5.8995,16.1534 6.037,16.7799 6.5075,17.0814 C6.9795,17.3829 7.606,17.2449 7.907,16.7739 C8.209,16.3024 8.071,15.6759 7.6,15.3744" fill="#332E54" />
        <path d="M13.3285,25.308 C6.7235,25.308 1.3495,19.9345 1.3495,13.329 C1.3495,6.724 6.7235,1.35 13.3285,1.35 C19.934,1.35 25.308,6.724 25.308,13.329 C25.308,19.9345 19.934,25.308 13.3285,25.308 M13.3285,0 C5.979,0 0,5.9795 0,13.329 C0,20.679 5.979,26.658 13.3285,26.658 C20.678,26.658 26.6575,20.679 26.6575,13.329 C26.6575,5.9795 20.678,0 13.3285,0" fill="#332E54" />
        <path d="M13.329,17.71305 C12.283,17.71305 11.336,18.07305 10.7945,18.67605 C10.6555,18.83005 10.6685,19.06705 10.8225,19.20555 C10.8945,19.26955 10.984,19.30155 11.073,19.30155 C11.1755,19.30155 11.278,19.25955 11.352,19.17705 C11.7475,18.73655 12.5055,18.46305 13.329,18.46305 C14.152,18.46305 14.9095,18.73655 15.3055,19.17655 C15.444,19.33055 15.681,19.34305 15.8355,19.20455 C15.989,19.06655 16.002,18.82905 15.863,18.67505 C15.321,18.07255 14.374,17.71305 13.329,17.71305" fill="#332E54" />
      </g>
    </symbol>
    <symbol id="unsatisfied-emoji-clicked" viewBox="0 0 27 27">
      <defs>
        <polygon points="0 0 27 0 27 27.0004558 0 27.0004558"></polygon>
      </defs>
      <g stroke="none" stroke-width="1" fill="none" fill-rule="evenodd">
        <mask fill="white">
          <polygon points="0 0 26.6574 0 26.6574 26.658 0 26.658" />
        </mask>
        <path d="M20.4080014,17.300135 C19.9309588,17.6060095 19.2964213,17.466239 18.9905469,16.9886901 C18.6851789,16.5111411 18.8244429,15.8766036 19.3019919,15.5712357 C19.7795409,15.2658677 20.4140783,15.4056381 20.7194463,15.8826806 C21.0248143,16.3602296 20.8855503,16.994767 20.4080014,17.300135 M16.0386563,19.4508778 C15.8821742,19.5911546 15.6426401,19.5779878 15.5018569,19.4225186 C15.1012829,18.9768737 14.3340648,18.699865 13.5,18.699865 C12.6659352,18.699865 11.8982107,18.9768737 11.4976367,19.4225186 C11.4231938,19.506077 11.3193788,19.5486158 11.2155638,19.5486158 C11.1249156,19.5486158 11.0342674,19.5167117 10.9618501,19.4518906 C10.805368,19.3116138 10.7927076,19.0715733 10.9329845,18.9150912 C11.4814315,18.3043552 12.4410871,17.9402431 13.5,17.9402431 C14.5584065,17.9402431 15.5180621,18.3043552 16.0670155,18.9145847 C16.2072924,19.0705604 16.194632,19.3106009 16.0386563,19.4508778 M8.00894666,16.9886901 C7.70357866,17.466239 7.06904119,17.6060095 6.59149223,17.300135 C6.1144497,16.994767 5.97518569,16.3602296 6.28055368,15.8826806 C6.58541526,15.4056381 7.22045915,15.2658677 7.69750169,15.5712357 C8.17505064,15.8766036 8.31431465,16.5111411 8.00894666,16.9886901 M13.4994936,0 C6.0557056,0 0,6.05621202 0,13.5 C0,20.943788 6.0557056,27 13.4994936,27 C20.943788,27 27,20.943788 27,13.5 C27,6.05621202 20.943788,0 13.4994936,0" fill="#A6A1E2" />
      </g>
    </symbol>
  </defs>
</svg>

