<svg width="20" height="20" viewBox="0 0 20 20" fill="none" xmlns="http://www.w3.org/2000/svg">
  <title>Camera Nav Icon</title>
  <path
    d="M18.6829 3H1.31707C0.585366 3 0 3.58537 0 4.31707V16.4634C0 17.1854 0.585366 17.7805 1.31707 17.7805H18.6829C19.4049 17.7805 20 17.1951 20 16.4634V4.31707C20 3.58537 19.4146 3 18.6829 3ZM18.5854 16.3561H1.41463V4.41463H18.5854V16.3561Z"
    fill="currentColor"
  />
  <path
    d="M10 14.8146C12.439 14.8146 14.4293 12.8244 14.4293 10.3854C14.4293 7.94634 12.439 5.9561 10 5.9561C7.56098 5.9561 5.57073 7.94634 5.57073 10.3854C5.57073 12.8244 7.56098 14.8146 10 14.8146ZM10 7.41951C11.639 7.41951 12.9659 8.7561 12.9659 10.3854C12.9659 12.0146 11.6293 13.3512 10 13.3512C8.37073 13.3512 7.03415 12.0244 7.03415 10.3854C7.03415 8.74634 8.36098 7.41951 10 7.41951Z"
    fill="currentColor"
  />
  <path
    d="M16.3902 7.69268C16.9452 7.69268 17.3951 7.24278 17.3951 6.6878C17.3951 6.13283 16.9452 5.68293 16.3902 5.68293C15.8353 5.68293 15.3854 6.13283 15.3854 6.6878C15.3854 7.24278 15.8353 7.69268 16.3902 7.69268Z"
    fill="currentColor"
  />
</svg>
