<svg viewBox="0 0 20 20" fill="none" xmlns="http://www.w3.org/2000/svg">
  <title>Camera Selected Nav Icon</title>
  <path
    d="M10.0047 6.42112C8.40395 6.42112 7.1081 7.7265 7.1081 9.31772C7.1081 10.9185 8.41347 12.2143 10.0047 12.2143C11.5959 12.2143 12.9013 10.9089 12.9013 9.31772C12.9013 7.7265 11.6054 6.42112 10.0047 6.42112Z"
    fill="currentColor"
  />
  <path
    d="M18.9136 2H1.09575C0.495471 2 0 2.49547 0 3.09575V15.5492C0 16.159 0.495471 16.645 1.09575 16.645H18.9041C19.5139 16.645 19.9999 16.1495 19.9999 15.5492V3.09575C20.0094 2.49547 19.5139 2 18.9136 2ZM10.0047 13.6531C7.62263 13.6531 5.67886 11.7093 5.67886 9.32725C5.67886 6.93565 7.62263 5.00141 10.0047 5.00141C12.3868 5.00141 14.3305 6.94518 14.3305 9.32725C14.3305 11.7093 12.3868 13.6531 10.0047 13.6531ZM16.2457 6.69744C15.7026 6.69744 15.2643 6.25914 15.2643 5.71603C15.2643 5.17292 15.7026 4.73462 16.2457 4.73462C16.7888 4.73462 17.2271 5.17292 17.2271 5.71603C17.2271 6.25914 16.7888 6.69744 16.2457 6.69744Z"
    fill="currentColor"
  />
</svg>
