<svg width="20" height="20" viewBox="0 0 20 20" fill="none" xmlns="http://www.w3.org/2000/svg">
  <title>Messages Nav Icon</title>
  <path
    d="M4.86737 8.50953C3.80642 8.50953 2.9409 9.37505 2.9409 10.436C2.9409 11.497 3.80642 12.3625 4.86737 12.3625C5.92833 12.3625 6.79385 11.497 6.79385 10.436C6.79385 9.37505 5.92833 8.50953 4.86737 8.50953Z"
    fill="currentColor"
  />
  <path
    d="M10.0046 8.50953C8.94368 8.50953 8.07816 9.37505 8.07816 10.436C8.07816 11.497 8.94368 12.3625 10.0046 12.3625C11.0656 12.3625 11.9311 11.497 11.9311 10.436C11.9311 9.37505 11.0656 8.50953 10.0046 8.50953Z"
    fill="currentColor"
  />
  <path
    d="M15.1419 8.50953C14.0809 8.50953 13.2154 9.37505 13.2154 10.436C13.2154 11.497 14.0809 12.3625 15.1419 12.3625C16.2029 12.3625 17.0684 11.497 17.0684 10.436C17.0684 9.37505 16.2029 8.50953 15.1419 8.50953Z"
    fill="currentColor"
  />
  <path
    d="M15.2722 3H4.73708C2.13122 3 0 5.13122 0 7.73708V13.1256C0 15.7408 2.13122 17.8627 4.73708 17.8627H15.2629C17.8781 17.8627 20 15.7315 20 13.1256V7.73708C20.0093 5.13122 17.8781 3 15.2722 3ZM18.6133 13.1349C18.6133 14.9776 17.1149 16.476 15.2722 16.476H4.73708C2.89437 16.476 1.396 14.9776 1.396 13.1349V7.73708C1.396 5.89437 2.89437 4.396 4.73708 4.396H15.2629C17.1149 4.396 18.6133 5.89437 18.6133 7.73708V13.1349Z"
    fill="currentColor"
  />
</svg>
