<svg
  width="20"
  height="20"
  viewBox="0 0 20 20"
  fill="none"
  xmlns="http://www.w3.org/2000/svg"
>
  <title>More Selected Nav Icon</title>
  <path
    d="M10.35 4.70805C11.6443 4.70805 12.7 3.65057 12.7 2.35402C12.7 1.05747 11.6443 0 10.35 0C9.05566 0 8 1.05747 8 2.35402C8 3.65057 9.05566 4.70805 10.35 4.70805Z"
    fill="currentColor"
  />
  <path
    d="M10.35 7.65057C9.05566 7.65057 8 8.69885 8 10.0046C8 11.3103 9.05566 12.3586 10.35 12.3586C11.6443 12.3586 12.7 11.3011 12.7 10.0046C12.7 8.70805 11.6443 7.65057 10.35 7.65057Z"
    fill="currentColor"
  />
  <path
    d="M10.35 15.292C9.05566 15.292 8 16.3494 8 17.646C8 18.9425 9.05566 20 10.35 20C11.6443 20 12.7 18.9425 12.7 17.646C12.7 16.3494 11.6443 15.292 10.35 15.292Z"
    fill="currentColor"
  />
</svg>
