<svg width="20" height="20" viewBox="0 0 20 20" fill="none" xmlns="http://www.w3.org/2000/svg">
  <title>More Selected Nav Icon</title>
  <path d="M10.62 5.24C11.5147 5.24 12.24 4.5147 12.24 3.62C12.24 2.7253 11.5147 2 10.62 2C9.72529 2 9 2.7253 9 3.62C9 4.5147 9.72529 5.24 10.62 5.24Z" fill="currentColor"/>
  <path d="M10.62 11.49C11.5147 11.49 12.24 10.7647 12.24 9.87C12.24 8.9753 11.5147 8.25 10.62 8.25C9.72529 8.25 9 8.9753 9 9.87C9 10.7647 9.72529 11.49 10.62 11.49Z" fill="currentColor"/>
  <path d="M10.62 17.74C11.5147 17.74 12.24 17.0147 12.24 16.12C12.24 15.2253 11.5147 14.5 10.62 14.5C9.72529 14.5 9 15.2253 9 16.12C9 17.0147 9.72529 17.74 10.62 17.74Z" fill="currentColor"/>
</svg>
