<svg viewBox="0 0 20 20" fill="none" xmlns="http://www.w3.org/2000/svg">
  <title>More Nav Icon</title>
  <path d="M10.34 9C10.94 9 11.43 9.49 11.43 10.09C11.43 10.69 10.94 11.18 10.34 11.18C9.74 11.18 9.25 10.69 9.25 10.09C9.25 9.49 9.74 9 10.34 9ZM10.34 7.75C9.05 7.75 8 8.8 8 10.09C8 11.38 9.05 12.43 10.34 12.43C11.63 12.43 12.68 11.38 12.68 10.09C12.68 8.8 11.64 7.75 10.34 7.75Z" fill="currentColor"/>
  <path d="M10.34 15.75C10.94 15.75 11.43 16.24 11.43 16.84C11.43 17.44 10.94 17.93 10.34 17.93C9.74 17.93 9.25 17.44 9.25 16.84C9.25 16.24 9.74 15.75 10.34 15.75ZM10.34 14.5C9.05 14.5 8 15.55 8 16.84C8 18.13 9.05 19.18 10.34 19.18C11.63 19.18 12.68 18.13 12.68 16.84C12.68 15.55 11.64 14.5 10.34 14.5Z" fill="currentColor"/>
  <path d="M10.34 2.25C10.94 2.25 11.43 2.74 11.43 3.34C11.43 3.94 10.94 4.43 10.34 4.43C9.74 4.43 9.25 3.94 9.25 3.34C9.25 2.74 9.74 2.25 10.34 2.25ZM10.34 1C9.05 1 8 2.05 8 3.34C8 4.63 9.05 5.68 10.34 5.68C11.63 5.68 12.68 4.63 12.68 3.34C12.68 2.05 11.64 1 10.34 1Z" fill="currentColor"/>
</svg>
