<svg viewBox="0 0 20 20" fill="none" xmlns="http://www.w3.org/2000/svg">
  <title>More Nav Icon</title>
  <path
    d="M10.35 4.70805C9.05566 4.70805 8 3.65057 8 2.35402C8 1.05747 9.05566 0 10.35 0C11.6443 0 12.7 1.05747 12.7 2.35402C12.7 3.65057 11.6443 4.70805 10.35 4.70805ZM10.35 1.6092C9.93691 1.6092 9.60645 1.94023 9.60645 2.35402C9.60645 2.76782 9.93691 3.09885 10.35 3.09885C10.7631 3.09885 11.0936 2.75862 11.0936 2.35402C11.0936 1.94943 10.7631 1.6092 10.35 1.6092Z"
    fill="currentColor"
  />
  <path
    d="M10.35 12.3494C9.05566 12.3494 8 11.3011 8 10.0046C8 8.70805 9.05566 7.65057 10.35 7.65057C11.6443 7.65057 12.7 8.70805 12.7 10.0046C12.7 11.3011 11.6443 12.3494 10.35 12.3494ZM10.35 9.25977C9.93691 9.25977 9.60645 9.59081 9.60645 10.0046C9.60645 10.4184 9.93691 10.7494 10.35 10.7494C10.7631 10.7494 11.0936 10.4184 11.0936 10.0046C11.0936 9.59081 10.7631 9.25977 10.35 9.25977Z"
    fill="currentColor"
  />
  <path
    d="M10.35 20C9.05566 20 8 18.9425 8 17.646C8 16.3494 9.05566 15.292 10.35 15.292C11.6443 15.292 12.7 16.3494 12.7 17.646C12.7 18.9425 11.6443 20 10.35 20ZM10.35 16.9011C9.93691 16.9011 9.60645 17.2322 9.60645 17.646C9.60645 18.0598 9.93691 18.3908 10.35 18.3908C10.7631 18.3908 11.0936 18.0598 11.0936 17.646C11.0936 17.2322 10.7631 16.9011 10.35 16.9011Z"
    fill="currentColor"
  />
</svg>
