<svg
  width="14"
  height="16"
  viewBox="0 0 14 16"
  fill="none"
  xmlns="http://www.w3.org/2000/svg"
>
  <title>Apple Icon</title>
  <path
    fill-rule="evenodd"
    clip-rule="evenodd"
    d="M9.39437 0.19065C8.80134 0.435657 8.39645 0.71064 7.98116 1.15049C7.38187 1.78526 6.99143 2.68076 6.99143 3.42044V3.74865L7.43499 3.71414C8.12354 3.66065 8.69661 3.36721 9.32631 2.7457C10.0879 1.99403 10.5009 1.14077 10.5009 0.319082V0L10.174 0.00179858C9.97274 0.00293103 9.6732 0.0754739 9.39437 0.19065ZM9.55174 3.80154C9.35143 3.83551 8.72014 4.01617 8.14879 4.20296L7.10999 4.54256L5.96694 4.18644C4.88238 3.84857 4.78859 3.83065 4.1357 3.83738C3.58141 3.84304 3.35736 3.87701 2.98363 4.01211C1.57042 4.52284 0.617643 5.56535 0.166575 7.09441C-0.0424096 7.80272 -0.0574108 9.38834 0.136641 10.2586C0.565827 12.1831 1.72546 14.2788 2.97097 15.3808C3.55154 15.8945 3.78069 15.9874 4.46627 15.9874C4.96537 15.9874 5.15364 15.9501 5.86248 15.7109C6.58853 15.4659 6.7523 15.4344 7.30108 15.4344C7.84588 15.4344 8.02197 15.4676 8.76487 15.7109C10.4301 16.2562 11.1755 16.066 12.2095 14.8321C12.6862 14.2631 12.9744 13.8592 13.3003 13.3028C13.5419 12.8904 14.0387 11.7918 13.9976 11.7609C13.9857 11.7519 13.8074 11.6575 13.6014 11.5511C13.0503 11.2666 12.3687 10.5823 12.0932 10.0372C11.5342 8.93097 11.587 7.55152 12.2251 6.58888C12.4309 6.27846 12.9702 5.75047 13.3505 5.48715L13.5509 5.34845L13.3634 5.11051C12.9601 4.59871 12.1319 4.11036 11.322 3.90692C10.7977 3.77516 9.99036 3.72713 9.55174 3.80154Z"
    fill="#332E54"
  />
</svg>
