<svg width="16" height="16" viewBox="0 0 16 16" fill="none" xmlns="http://www.w3.org/2000/svg">
  <title>Calendar Icon</title>
  <path d="M4.7 5.22C5.11421 5.22 5.45 4.88421 5.45 4.47C5.45 4.05579 5.11421 3.72 4.7 3.72C4.28579 3.72 3.95 4.05579 3.95 4.47C3.95 4.88421 4.28579 5.22 4.7 5.22Z" fill="currentColor"/>
  <path d="M11.3 5.22C11.7142 5.22 12.05 4.88421 12.05 4.47C12.05 4.05579 11.7142 3.72 11.3 3.72C10.8858 3.72 10.55 4.05579 10.55 4.47C10.55 4.88421 10.8858 5.22 11.3 5.22Z" fill="currentColor"/>
  <path d="M13 0.8H12.06V0.75C12.06 0.34 11.72 0 11.31 0C10.9 0 10.56 0.34 10.56 0.75V0.8H5.44V0.75C5.44 0.34 5.11 0 4.69 0C4.27 0 3.94 0.34 3.94 0.75V0.8H3C1.35 0.8 0 2.15 0 3.8V13C0 14.65 1.35 16 3 16H13C14.65 16 16 14.65 16 13V3.8C16 2.15 14.65 0.8 13 0.8ZM3 2.3H3.95C3.97 2.7 4.29 3.01 4.69 3.01C5.09 3.01 5.42 2.7 5.44 2.3H10.57C10.6 2.69 10.91 2.99 11.31 2.99C11.71 2.99 12.02 2.68 12.05 2.3H13C13.83 2.3 14.5 2.97 14.5 3.8V6.19H1.5V3.8C1.5 2.97 2.17 2.3 3 2.3ZM13 14.5H3C2.17 14.5 1.5 13.83 1.5 13V7.69H14.5V13C14.5 13.83 13.83 14.5 13 14.5Z" fill="currentColor"/>
  <path d="M5.59 8.22C4.42 8.22 3.5 9.48 3.5 11.09C3.5 12.7 4.42 13.96 5.59 13.96C6.76 13.96 7.68 12.7 7.68 11.09C7.68 9.48 6.76 8.22 5.59 8.22ZM5.59 12.47C5.42 12.47 5 11.99 5 11.1C5 10.21 5.42 9.73 5.59 9.73C5.76 9.73 6.18 10.21 6.18 11.1C6.18 11.99 5.76 12.47 5.59 12.47Z" fill="currentColor"/>
  <path d="M11.75 12.47H11.16V8.98C11.16 8.97 11.16 8.96 11.16 8.96C11.16 8.91 11.14 8.86 11.13 8.81C11.12 8.76 11.11 8.71 11.09 8.67C11.08 8.64 11.06 8.62 11.04 8.6C11 8.54 10.97 8.49 10.92 8.44C10.91 8.43 10.9 8.43 10.89 8.42C10.82 8.36 10.75 8.32 10.67 8.29C10.66 8.29 10.65 8.29 10.63 8.28C10.56 8.26 10.49 8.24 10.41 8.24C10.4 8.24 10.39 8.25 10.38 8.25C10.35 8.25 10.32 8.26 10.29 8.27C10.22 8.28 10.16 8.29 10.1 8.32C10.08 8.33 10.07 8.34 10.06 8.35C9.99 8.37 9.92 8.41 9.87 8.47C9.85 8.48 9.84 8.51 9.83 8.53C9.79 8.58 9.74 8.64 9.72 8.71C9.72 8.72 9.71 8.72 9.71 8.73C9.7 8.75 9.5 9.26 9.08 9.26C8.67 9.26 8.33 9.6 8.33 10.01C8.33 10.42 8.67 10.76 9.08 10.76C9.29 10.76 9.49 10.72 9.67 10.67V12.47H9.08C8.67 12.47 8.33 12.81 8.33 13.22C8.33 13.63 8.67 13.97 9.08 13.97H11.75C12.16 13.97 12.5 13.63 12.5 13.22C12.5 12.81 12.16 12.47 11.75 12.47Z" fill="currentColor"/>
</svg>