<svg viewBox="0 0 16 16" fill="none" xmlns="http://www.w3.org/2000/svg">
  <title>Circle Checkmark Icon</title>
  <path
    d="M8 16C3.58589 16 0 12.4141 0 8C0 3.58589 3.58589 0 8 0C12.4141 0 16 3.58589 16 8C16 12.4141 12.4141 16 8 16ZM8 1.36519C4.3413 1.36519 1.36519 4.3413 1.36519 8C1.36519 11.6587 4.3413 14.6348 8 14.6348C11.6587 14.6348 14.6348 11.6587 14.6348 8C14.6348 4.3413 11.6587 1.36519 8 1.36519Z"
    fill="currentColor"
  />
  <path
    d="M7.281 12.3322C6.95336 12.3322 6.67122 12.1047 6.60751 11.7861C6.58931 11.7042 6.15245 9.67463 4.21388 9.27417C3.84983 9.19226 3.6132 8.82821 3.68601 8.46416C3.75882 8.09101 4.12287 7.85438 4.49602 7.93629C5.70648 8.19113 6.5165 8.86462 7.03527 9.55631C7.58134 7.76337 8.76451 5.21502 11.3038 3.76792C11.6314 3.58589 12.0501 3.69511 12.2321 4.02275C12.4141 4.3504 12.3049 4.76906 11.9772 4.95108C8.48237 6.95336 7.95449 11.6678 7.95449 11.7133C7.91809 12.0501 7.64505 12.314 7.3083 12.3231C7.2992 12.3322 7.2901 12.3322 7.281 12.3322Z"
    fill="currentColor"
  />
</svg>
