<svg viewBox="0 0 16 16" fill="none" xmlns="http://www.w3.org/2000/svg">
  <title>Circle Plus Icon</title>
  <path
    d="M8 0C3.59 0 0 3.59 0 8C0 12.41 3.59 16 8 16C12.41 16 16 12.41 16 8C16 3.59 12.41 0 8 0ZM8 14.5C4.42 14.5 1.5 11.58 1.5 8C1.5 4.42 4.42 1.5 8 1.5C11.58 1.5 14.5 4.42 14.5 8C14.5 11.58 11.58 14.5 8 14.5Z"
    fill="currentColor"
  />
  <path
    d="M11.7 7.25H8.75V4.3C8.75 3.89 8.41 3.55 8 3.55C7.59 3.55 7.25 3.89 7.25 4.3V7.25H4.3C3.89 7.25 3.55 7.59 3.55 8C3.55 8.41 3.89 8.75 4.3 8.75H7.25V11.7C7.25 12.11 7.59 12.45 8 12.45C8.41 12.45 8.75 12.11 8.75 11.7V8.75H11.7C12.11 8.75 12.45 8.41 12.45 8C12.45 7.59 12.11 7.25 11.7 7.25Z"
    fill="currentColor"
  />
</svg>
