<svg viewBox="0 0 16 16" xmlns="http://www.w3.org/2000/svg">
  <title>Clipboard</title>
  <path fill-rule="evenodd" clip-rule="evenodd" d="M6.22303 2.84673V2.04892H9.65514V2.44242C9.65513 2.44422 9.65513 2.44602 9.65513 2.44783C9.65513 2.44963 9.65513 2.45143 9.65514 2.45323V2.84673H6.22303ZM11.6286 3.44783C11.49 4.22463 10.8242 4.84673 9.97613 4.84673H5.90204C5.05402 4.84673 4.38818 4.22463 4.24961 3.44783H3.86499C3.77976 3.44783 3.69181 3.48242 3.62223 3.5541C3.55167 3.62679 3.50696 3.73153 3.50696 3.84673V13.6391C3.50696 13.7543 3.55167 13.859 3.62223 13.9317C3.69181 14.0034 3.77976 14.038 3.86499 14.038H12.0132C12.0984 14.038 12.1863 14.0034 12.2559 13.9317C12.3265 13.859 12.3712 13.7543 12.3712 13.6391V3.84673C12.3712 3.73153 12.3265 3.62679 12.2559 3.5541C12.1863 3.48242 12.0984 3.44783 12.0132 3.44783H11.6286ZM11.6286 1.44783H12.0132C12.6483 1.44783 13.2512 1.708 13.6909 2.16101C14.1297 2.61302 14.3712 3.21992 14.3712 3.84673V13.6391C14.3712 14.2659 14.1297 14.8728 13.6909 15.3248C13.2512 15.7778 12.6483 16.038 12.0132 16.038H3.86499C3.22987 16.038 2.62698 15.7778 2.1872 15.3248C1.74841 14.8728 1.50696 14.2659 1.50696 13.6391V3.84673C1.50696 3.21992 1.74841 2.61302 2.1872 2.16101C2.62698 1.708 3.22987 1.44783 3.86499 1.44783H4.24961C4.38818 0.671027 5.05402 0.0489197 5.90204 0.0489197H9.97613C10.8242 0.0489197 11.49 0.671027 11.6286 1.44783Z" fill="#332E54"/>
</svg>
