<svg width="16" height="16" viewBox="0 0 16 16" fill="none" xmlns="http://www.w3.org/2000/svg">
  <title>Clock Icon</title>
  <path
    d="M8 1.90735e-06C3.59 1.90735e-06 0 3.59 0 8C0 12.41 3.59 16 8 16C12.41 16 16 12.41 16 8C16 3.59 12.41 1.90735e-06 8 1.90735e-06ZM8 14.5C4.42 14.5 1.5 11.58 1.5 8C1.5 4.42 4.42 1.5 8 1.5C11.58 1.5 14.5 4.42 14.5 8C14.5 11.58 11.58 14.5 8 14.5Z"
    fill="currentColor"
  />
  <path
    d="M8 8.75H9.95C10.36 8.75 10.7 8.41 10.7 8C10.7 7.59 10.36 7.25 9.95 7.25H8.75V6C8.75 5.59 8.41 5.25 8 5.25C7.59 5.25 7.25 5.58 7.25 6V7.95C7.25 7.96 7.25 7.97 7.25 7.97C7.25 7.98 7.24 7.99 7.24 8C7.25 8.41 7.59 8.75 8 8.75Z"
    fill="currentColor"
  />
  <path
    d="M8 4.34C8.41 4.34 8.75 4 8.75 3.59V3C8.75 2.59 8.41 2.25 8 2.25C7.59 2.25 7.25 2.58 7.25 3V3.6C7.25 4.01 7.59 4.34 8 4.34Z"
    fill="currentColor"
  />
  <path
    d="M13 7.25H12.4C11.99 7.25 11.65 7.59 11.65 8C11.65 8.41 11.99 8.75 12.4 8.75H13C13.41 8.75 13.75 8.41 13.75 8C13.75 7.59 13.42 7.25 13 7.25Z"
    fill="currentColor"
  />
  <path
    d="M11.14 6.03C11.26 6.32 11.54 6.5 11.83 6.5C11.92 6.5 12.02 6.48 12.11 6.44L12.59 6.24C12.97 6.08 13.16 5.64 13 5.26C12.84 4.88 12.41 4.69 12.02 4.85L11.54 5.05C11.17 5.21 10.99 5.65 11.14 6.03Z"
    fill="currentColor"
  />
  <path
    d="M9.97 4.87C10.06 4.91 10.16 4.93 10.25 4.93C10.55 4.93 10.83 4.76 10.94 4.47L11.14 3.97C11.3 3.59 11.11 3.15 10.73 2.99C10.35 2.83 9.92 3.01 9.76 3.4L9.56 3.89C9.4 4.27 9.58 4.71 9.97 4.87Z"
    fill="currentColor"
  />
  <path
    d="M5.05 4.45C5.17 4.74 5.45 4.92 5.74 4.92C5.83 4.92 5.93 4.9 6.02 4.86C6.41 4.71 6.6 4.27 6.44 3.89L6.24 3.4C6.08 3.01 5.65 2.83 5.26 2.99C4.88 3.14 4.7 3.58 4.85 3.96L5.05 4.45Z"
    fill="currentColor"
  />
  <path
    d="M3.4 6.24L3.89 6.44C3.98 6.48 4.07 6.5 4.17 6.5C4.47 6.5 4.75 6.32 4.86 6.03C5.02 5.65 4.83 5.21 4.45 5.05L3.96 4.85C3.58 4.7 3.14 4.88 2.99 5.26C2.83 5.65 3.01 6.08 3.4 6.24Z"
    fill="currentColor"
  />
  <path
    d="M10.95 11.55C10.79 11.17 10.36 10.98 9.97 11.14C9.59 11.3 9.4 11.73 9.56 12.12L9.76 12.61C9.88 12.9 10.16 13.08 10.45 13.08C10.54 13.08 10.64 13.06 10.73 13.02C11.11 12.86 11.3 12.43 11.14 12.04L10.95 11.55Z"
    fill="currentColor"
  />
  <path
    d="M12.6 9.76L12.11 9.56C11.72 9.4 11.29 9.59 11.13 9.97C10.97 10.35 11.16 10.79 11.54 10.95L12.03 11.15C12.12 11.19 12.22 11.21 12.31 11.21C12.61 11.21 12.89 11.03 13.01 10.74C13.17 10.35 12.99 9.91 12.6 9.76Z"
    fill="currentColor"
  />
  <path
    d="M3.6 8.75C4.01 8.75 4.35 8.41 4.35 8C4.35 7.59 4.01 7.25 3.6 7.25H3C2.58 7.25 2.25 7.59 2.25 8C2.25 8.41 2.58 8.75 3 8.75H3.6Z"
    fill="currentColor"
  />
  <path
    d="M4.87 9.96C4.71 9.58 4.27 9.4 3.89 9.56L3.39 9.77C3.01 9.93 2.83 10.37 2.98 10.75C3.1 11.04 3.38 11.21 3.67 11.21C3.77 11.21 3.86 11.19 3.96 11.15L4.46 10.94C4.85 10.78 5.03 10.35 4.87 9.96Z"
    fill="currentColor"
  />
  <path
    d="M6.03 11.14C5.64 10.98 5.21 11.16 5.05 11.55L4.85 12.04C4.69 12.42 4.87 12.86 5.26 13.02C5.35 13.06 5.45 13.08 5.55 13.08C5.84 13.08 6.12 12.91 6.24 12.62L6.44 12.13C6.6 11.73 6.42 11.29 6.03 11.14Z"
    fill="currentColor"
  />
  <path
    d="M8 11.66C7.59 11.66 7.25 12 7.25 12.41V13C7.25 13.41 7.59 13.75 8 13.75C8.41 13.75 8.75 13.42 8.75 13V12.4C8.75 11.99 8.41 11.66 8 11.66Z"
    fill="currentColor"
  />
</svg>
