<svg viewBox="0 0 16 16" fill="none" xmlns="https://www.w3.org/2000/svg">
  <title>Cloud Icon</title>
  <path d="M15.98 6.76002C15.98 3.45002 13.3 0.77002 9.99 0.77002C5.85 0.77002 4.24999 5.06002 4.24999 5.06002C4.24999 5.06002 3.81999 5.05003 3.73999 5.05003C3.72999 5.05003 3.71999 5.05003 3.70999 5.05003C1.43999 5.05003 -0.0100098 6.85002 -0.0100098 9.06002C-0.0100098 11.28 2.13999 13.08 4.00999 13.08H8.16999C8.34999 13.72 8.66998 14.34 9.17999 14.84C9.95998 15.62 10.98 16.01 12.01 16.01C13.03 16.01 14.06 15.62 14.84 14.84C16.25 13.43 16.37 11.25 15.25 9.69003C15.67 8.87003 15.98 7.89002 15.98 6.76002ZM8.00999 11.84H3.99999C2.74999 11.84 1.23 10.56 1.23 9.07003C1.23 8.28003 1.47999 7.57003 1.91999 7.07003C2.35999 6.57003 2.97999 6.31002 3.71999 6.31002C3.79999 6.31002 4.19999 6.32003 4.19999 6.32003L5.1 6.35003L5.41 5.51002C5.42 5.48002 6.73999 2.03002 9.97999 2.03002C12.59 2.03002 14.72 4.16003 14.72 6.77003C14.72 7.51003 14.55 8.18003 14.29 8.77003C13.6 8.28003 12.8 8.03002 11.99 8.03002C10.97 8.03002 9.94 8.42002 9.16 9.20002C8.43 9.93002 8.04999 10.88 8.00999 11.84ZM10.05 10.08C10.57 9.56002 11.26 9.27003 11.99 9.27003C12.6 9.27003 13.18 9.48003 13.66 9.85003C12.91 10.88 11.96 11.56 11.52 11.84H9.25999C9.29999 11.2 9.56 10.57 10.05 10.08ZM13.94 13.97C13.42 14.49 12.73 14.78 12 14.78C11.27 14.78 10.57 14.49 10.06 13.97C9.79999 13.71 9.60999 13.41 9.46999 13.09H11.87C11.87 13.09 13.3 12.33 14.48 10.86C14.95 11.88 14.78 13.13 13.94 13.97Z" fill="currentColor"/>
</svg>
