<svg viewBox="0 0 18 15" xmlns="http://www.w3.org/2000/svg" xmlns:xlink="http://www.w3.org/1999/xlink">
  <title>Credit Card</title>
  <path d="M15.5742,10.6074 L2.2172,10.6074 C2.1012,10.6074 2.0002,10.5054 2.0002,10.3894 L2.0002,6.0744 L15.7922,6.0744 L15.7922,10.3894 C15.7922,10.5074 15.6922,10.6074 15.5742,10.6074 M2.2172,2.0004 L15.5742,2.0004 C15.6922,2.0004 15.7922,2.0994 15.7922,2.2174 L15.7922,4.0744 L2.0002,4.0744 L2.0002,2.2174 C2.0002,2.0994 2.0992,2.0004 2.2172,2.0004 M15.5742,0.0004 L2.2172,0.0004 C0.9942,0.0004 0.0002,0.9954 0.0002,2.2174 L0.0002,10.3894 C0.0002,11.6124 0.9942,12.6074 2.2172,12.6074 L15.5742,12.6074 C16.7972,12.6074 17.7922,11.6124 17.7922,10.3894 L17.7922,2.2174 C17.7922,0.9954 16.7972,0.0004 15.5742,0.0004"/>
</svg>
