<svg viewBox="0 0 16 16" fill="none" xmlns="http://www.w3.org/2000/svg">
  <title>Drop</title>
  <mask id="mask0" mask-type="alpha" maskUnits="userSpaceOnUse" x="0" y="0" width="16" height="16">
    <path fill-rule="evenodd" clip-rule="evenodd" d="M13.0297 13.9268C10.2552 16.6902 5.74659 16.692 2.9704 13.9268C0.195962 11.1633 0.194213 6.67256 2.9704 3.90737L6.11035 0.779861C7.15445 -0.260097 8.8459 -0.259809 9.8897 0.779861L13.0297 3.90737C15.8041 6.67081 15.8058 11.1616 13.0297 13.9268ZM4.22753 5.15946C2.14583 7.23292 2.14714 10.6025 4.22753 12.6747C6.30924 14.7481 9.69224 14.7468 11.7726 12.6747C13.8543 10.6012 13.853 7.23161 11.7726 5.15946L8.63268 2.03196C8.28304 1.6837 7.71722 1.68361 7.36748 2.03196L4.22753 5.15946Z" fill="white"/>
  </mask>
  <g mask="url(#mask0)">
    <rect width="16" height="16" fill="#332E54"/>
  </g>
</svg>
