<svg viewBox="0 0 16 16" fill="none" xmlns="http://www.w3.org/2000/svg">
  <title>Drop Icon</title>
  <path
    d="M10.92 7.18999C10.75 6.98999 10.59 6.78999 10.43 6.58999C8.79 4.46999 8.64 0.759992 8.64 0.729992C8.63 0.319992 8.29 -7.62939e-06 7.89 -7.62939e-06H7.88C7.47 0.00999237 7.14 0.339992 7.14 0.749992C7.14 0.789992 7.12 4.23999 5.24 6.57999C4.24 7.81999 3 9.36999 3 11.32C3 13.99 5.1 16 7.89 16C10.82 16 12.78 14.06 12.78 11.16C12.78 9.43999 11.79 8.23999 10.92 7.18999ZM7.89 14.5C5.93 14.5 4.5 13.16 4.5 11.32C4.5 9.89999 5.47 8.68999 6.46 7.45999C7.11 6.64999 7.56 5.72999 7.89 4.83999C8.2 5.76999 8.63 6.71999 9.25 7.50999C9.42 7.71999 9.59 7.93999 9.77 8.14999C10.58 9.13999 11.29 9.98999 11.29 11.17C11.28 13.22 9.98 14.5 7.89 14.5Z"
    fill="currentColor"
  />
</svg>
