<svg width="16" height="16" viewBox="0 0 16 16" fill="none" xmlns="http://www.w3.org/2000/svg">
  <title>Equals Icon</title>
  <path
    d="M11.331 5.62457H4.67804C4.30489 5.62457 3.99545 5.93402 3.99545 6.30717C3.99545 6.68032 4.30489 6.98976 4.67804 6.98976H11.331C11.7042 6.98976 12.0136 6.68032 12.0136 6.30717C12.0136 5.93402 11.7042 5.62457 11.331 5.62457Z"
    fill="currentColor"
  />
  <path
    d="M11.331 9.01934H4.67804C4.30489 9.01934 3.99545 9.32878 3.99545 9.70193C3.99545 10.0751 4.30489 10.3845 4.67804 10.3845H11.331C11.7042 10.3845 12.0136 10.0751 12.0136 9.70193C12.0136 9.32878 11.7042 9.01934 11.331 9.01934Z"
    fill="currentColor"
  />
  <path
    d="M7.99999 0C3.58589 0 0 3.58589 0 8C0 12.4141 3.58589 16 7.99999 16C12.4141 16 16 12.4141 16 8C16.0091 3.58589 12.4141 0 7.99999 0ZM7.99999 14.6348C4.34129 14.6348 1.36519 11.6587 1.36519 8C1.36519 4.3413 4.34129 1.36519 7.99999 1.36519C11.6587 1.36519 14.6348 4.3413 14.6348 8C14.6439 11.6587 11.6587 14.6348 7.99999 14.6348Z"
    fill="currentColor"
  />
</svg>
