<svg viewBox="0 0 14 14" xmlns="http://www.w3.org/2000/svg" xmlns:xlink="http://www.w3.org/1999/xlink">
  <title>First Aid</title>
  <path d="M5.26594444,12.3419333 L8.63216667,12.3419333 L8.63216667,9.40893333 C8.63216667,8.9796 8.97983333,8.63115556 9.40994444,8.63115556 L12.3421667,8.63115556 L12.3421667,5.26571111 L9.40994444,5.26571111 C8.97983333,5.26571111 8.63216667,4.91804444 8.63216667,4.48793333 L8.63216667,1.55571111 L5.26594444,1.55571111 L5.26594444,4.48793333 C5.26594444,4.91804444 4.9175,5.26571111 4.48816667,5.26571111 L1.55516667,5.26571111 L1.55516667,8.63115556 L4.48816667,8.63115556 C4.9175,8.63115556 5.26594444,8.9796 5.26594444,9.40893333 L5.26594444,12.3419333 Z M9.40994444,13.8974889 L4.48816667,13.8974889 C4.05883333,13.8974889 3.71038889,13.5498222 3.71038889,13.1197111 L3.71038889,10.1867111 L0.777388889,10.1867111 C0.348055556,10.1867111 -0.000388888889,9.83904444 -0.000388888889,9.40893333 L-0.000388888889,4.48793333 C-0.000388888889,4.0586 0.348055556,3.71015556 0.777388889,3.71015556 L3.71038889,3.71015556 L3.71038889,0.777933333 C3.71038889,0.347822222 4.05883333,0.000155555556 4.48816667,0.000155555556 L9.40994444,0.000155555556 C9.83927778,0.000155555556 10.1877222,0.347822222 10.1877222,0.777933333 L10.1877222,3.71015556 L13.1199444,3.71015556 C13.5492778,3.71015556 13.8977222,4.0586 13.8977222,4.48793333 L13.8977222,9.40893333 C13.8977222,9.83904444 13.5492778,10.1867111 13.1199444,10.1867111 L10.1877222,10.1867111 L10.1877222,13.1197111 C10.1877222,13.5498222 9.83927778,13.8974889 9.40994444,13.8974889 L9.40994444,13.8974889 Z" />
</svg>
