<svg viewBox="0 0 16 16" xmlns="http://www.w3.org/2000/svg" xmlns:xlink="http://www.w3.org/1999/xlink">
  <title>Flag</title>
  <path fill="currentColor" d="M2,11 L2,2 L13.9922719,2 L10.8598211,5.70302918 C10.4794275,6.1546181 10.4785689,6.80942204 10.8581038,7.25933841 L14,11 L2,11 Z M15.6666854,10.6143498 L12.326237,6.49506726 L15.6586854,2.41345291 C16.0231303,1.96860987 16.0960193,1.367713 15.8515746,0.846636771 C15.6080187,0.324663677 15.1004625,0 14.5297952,0 L1.46311286,0 C0.654223006,0 0,0.660986547 0,1.47623318 L0,15.1569507 C0,15.6215247 0.374222671,16 0.836445447,16 C1.29777933,16 1.672002,15.6215247 1.672002,15.1569507 L1.672002,13.026009 L14.5351285,13.026009 C15.1057959,13.026009 15.6124632,12.7022422 15.8577968,12.1811659 C16.1013526,11.6600897 16.0284637,11.0600897 15.6666854,10.6143498 Z" />
</svg>
