<svg viewBox="0 0 16 16" fill="none" xmlns="https://www.w3.org/2000/svg">
  <title>Gift Icon</title>
  <path d="M16.02 5.17001H14H13.59C14.05 4.62001 14.34 3.93002 14.34 3.16002C14.34 1.43002 12.93 0.0200195 11.2 0.0200195C10 0.0200195 8.92 0.740019 8.04 1.66002C7.16 0.740019 6.09 0.0200195 4.88 0.0200195C3.15 0.0200195 1.74 1.43002 1.74 3.16002C1.74 3.93002 2.03 4.62001 2.49 5.17001H2.09H0V6.42001H2.09L2.07 16.02H13.97L13.99 6.42001H16.01V5.17001H16.02ZM8.04 5.06001C7.76 5.06001 7.46 5.06002 7.17 5.05002C7.41 4.62002 7.7 4.13001 8.04 3.65001C8.38 4.13001 8.68 4.62002 8.91 5.05002C8.62 5.06002 8.32 5.06001 8.04 5.06001ZM11.2 1.28001C12.24 1.28001 13.08 2.12002 13.08 3.16002C13.08 4.20002 12.24 5.04001 11.2 5.04001C10.96 5.04001 10.66 5.04001 10.32 5.04001C10.06 4.52001 9.56 3.57001 8.85 2.62001C9.56 1.86001 10.37 1.28001 11.2 1.28001ZM4.88 1.28001C5.71 1.28001 6.52 1.86002 7.23 2.63002C6.52 3.57002 6.02 4.52002 5.76 5.05002C5.42 5.05002 5.11 5.05002 4.88 5.05002C3.84 5.05002 3 4.21001 3 3.17001C3 2.13001 3.85 1.28001 4.88 1.28001ZM3.34 6.43001H7.42L7.41 14.78H3.33L3.34 6.43001ZM12.73 14.78H8.67L8.68 6.43001H12.74L12.73 14.78Z" fill="currentColor"/>
</svg>
