<svg viewBox="0 0 16 16" fill="none" xmlns="http://www.w3.org/2000/svg">
  <title>Gift Icon</title>
  <path
    d="M7.99 13.72C8.4 13.72 8.74 13.38 8.74 12.97V10.41H12.94C13.35 10.41 13.69 10.07 13.69 9.66C13.69 9.25 13.35 8.91 12.94 8.91H8.74V6.45C8.74 6.04 8.4 5.7 7.99 5.7C7.58 5.7 7.24 6.04 7.24 6.45V8.91H3.05C2.64 8.91 2.3 9.25 2.3 9.66C2.3 10.07 2.64 10.41 3.05 10.41H7.24V12.97C7.24 13.39 7.58 13.72 7.99 13.72Z"
    fill="currentColor"
  />
  <path
    d="M14.79 3.34H13.48C13.07 3.34 12.73 3.68 12.73 4.09C12.73 4.5 13.07 4.84 13.48 4.84H14.49V14.49H1.5V4.84H2.48C2.89 4.84 3.23 4.5 3.23 4.09C3.23 3.68 2.9 3.34 2.48 3.34H1.2C0.54 3.34 0 3.88 0 4.54V14.79C0 15.45 0.54 15.99 1.2 15.99H14.79C15.45 15.99 15.99 15.45 15.99 14.79V4.54C15.99 3.88 15.45 3.34 14.79 3.34Z"
    fill="currentColor"
  />
  <path
    d="M6.33 4.84H9.66C10.99 4.84 12.07 3.75 12.07 2.42C12.07 1.09 10.99 0 9.66 0C9.01 0 8.42 0.26 7.99 0.67C7.55 0.27 6.97 0.01 6.33 0.01C5 0.01 3.91 1.09 3.91 2.42C3.91 3.76 4.99 4.84 6.33 4.84ZM9.66 1.5C10.16 1.5 10.57 1.91 10.57 2.42C10.57 2.93 10.16 3.34 9.66 3.34H8.75V2.43C8.75 2.41 8.75 2.39 8.75 2.37C8.77 1.89 9.17 1.5 9.66 1.5ZM6.33 1.51C6.82 1.51 7.22 1.89 7.25 2.37C7.25 2.39 7.25 2.4 7.25 2.42V3.34H6.33C5.82 3.34 5.41 2.93 5.41 2.43C5.41 1.92 5.82 1.51 6.33 1.51Z"
    fill="currentColor"
  />
</svg>
