<svg viewBox="0 0 18 18" xmlns="http://www.w3.org/2000/svg" xmlns:xlink="http://www.w3.org/1999/xlink">
  <title>Gift</title>
  <path d="M14.8535,15.3955 C14.8535,15.7075 14.5985,15.9615 14.2865,15.9615 L9.8625,15.9615 L9.8625,6.5985 L14.8535,6.5985 L14.8535,15.3955 Z M2.8725,15.3955 L2.8725,6.5985 L7.8625,6.5985 L7.8625,15.9615 L3.4395,15.9615 C3.1265,15.9615 2.8725,15.7075 2.8725,15.3955 L2.8725,15.3955 Z M5.5885,2.3015 C5.7905,2.0995 6.0565,1.9995 6.3225,1.9995 C6.5875,1.9995 6.8535,2.0995 7.0555,2.3015 C7.4555,2.7015 7.7015,3.6455 7.8135,4.5275 C6.9815,4.4235 6.0155,4.1945 5.5885,3.7675 C5.1845,3.3635 5.1845,2.7065 5.5885,2.3015 L5.5885,2.3015 Z M10.6695,2.3015 L10.6705,2.3015 C10.8665,2.1055 11.1255,1.9985 11.4025,1.9985 C11.6795,1.9985 11.9395,2.1055 12.1355,2.3025 C12.3325,2.4985 12.4395,2.7575 12.4395,3.0345 C12.4395,3.3115 12.3325,3.5715 12.1355,3.7675 C11.7085,4.1945 10.7445,4.4235 9.9115,4.5275 C10.0235,3.6465 10.2695,2.7025 10.6695,2.3015 L10.6695,2.3015 Z M17.7255,5.5985 C17.7255,5.0455 17.2785,4.5985 16.7255,4.5985 L15.8535,4.5985 L13.9955,4.5985 C14.2785,4.1295 14.4395,3.5955 14.4395,3.0345 C14.4395,2.2235 14.1235,1.4605 13.5505,0.8875 C12.4035,-0.2565 10.4035,-0.2605 9.2555,0.8875 L9.2545,0.8875 C9.1085,1.0345 8.9805,1.2015 8.8625,1.3785 C8.7455,1.2015 8.6165,1.0345 8.4695,0.8875 C7.2865,-0.2955 5.3585,-0.2955 4.1745,0.8875 C3.1685,1.8935 3.0265,3.4315 3.7295,4.5985 L1.8725,4.5985 L0.9995,4.5985 C0.4475,4.5985 -0.0005,5.0455 -0.0005,5.5985 C-0.0005,6.1055 0.3825,6.5075 0.8725,6.5725 L0.8725,15.3955 C0.8725,16.8105 2.0235,17.9615 3.4395,17.9615 L14.2865,17.9615 C15.7025,17.9615 16.8535,16.8105 16.8535,15.3955 L16.8535,6.5725 C17.3425,6.5075 17.7255,6.1055 17.7255,5.5985 L17.7255,5.5985 Z"/>
</svg>
