<svg viewBox="0 0 16 16" fill="none" xmlns="https://www.w3.org/2000/svg">
  <title>Google Icon</title>
  <path fill-rule="evenodd" clip-rule="evenodd" d="M8.00006 3.09333C9.50228 3.09333 10.5156 3.74222 11.0934 4.28444L13.3512 2.08C11.9645 0.791111 10.1601 0 8.00006 0C4.87117 0 2.16895 1.79556 0.853394 4.40889L3.44006 6.41778C4.08895 4.48889 5.8845 3.09333 8.00006 3.09333Z" fill="#EA4335"/>
  <path fill-rule="evenodd" clip-rule="evenodd" d="M15.68 8.17779C15.68 7.52001 15.6267 7.04001 15.5111 6.54224H8V9.51113H12.4089C12.32 10.2489 11.84 11.36 10.7733 12.1067L13.2978 14.0622C14.8089 12.6667 15.68 10.6133 15.68 8.17779Z" fill="#4285F4"/>
  <path fill-rule="evenodd" clip-rule="evenodd" d="M3.44889 9.58227C3.28 9.08449 3.18222 8.55116 3.18222 8.00005C3.18222 7.44894 3.28 6.9156 3.44 6.41782L0.853333 4.40894C0.311111 5.49338 0 6.71116 0 8.00005C0 9.28894 0.311111 10.5067 0.853333 11.5912L3.44889 9.58227Z" fill="#FBBC05"/>
  <path fill-rule="evenodd" clip-rule="evenodd" d="M7.99996 16.0001C10.16 16.0001 11.9733 15.2889 13.2977 14.0623L10.7733 12.1067C10.0977 12.5778 9.19107 12.9067 7.99996 12.9067C5.88441 12.9067 4.08885 11.5112 3.44885 9.58228L0.862183 11.5912C2.17774 14.2045 4.87107 16.0001 7.99996 16.0001Z" fill="#34A853"/>
</svg>
