<svg width="16" height="16" viewBox="0 0 16 16" fill="none" xmlns="http://www.w3.org/2000/svg">
  <title>Grid Icon</title>
  <path
    d="M7.97 0C6.88 0 6 0.88 6 1.97C6 3.06 6.88 3.94 7.97 3.94C9.06 3.94 9.94 3.06 9.94 1.97C9.94 0.88 9.06 0 7.97 0ZM7.97 2.44C7.71 2.44 7.5 2.23 7.5 1.97C7.5 1.71 7.71 1.5 7.97 1.5C8.23 1.5 8.44 1.71 8.44 1.97C8.44 2.23 8.23 2.44 7.97 2.44Z"
    fill="currentColor"
  />
  <path
    d="M7.97 6.03C6.88 6.03 6 6.91 6 8C6 9.09 6.88 9.97 7.97 9.97C9.06 9.97 9.94 9.09 9.94 8C9.94 6.91 9.06 6.03 7.97 6.03ZM7.97 8.47C7.71 8.47 7.5 8.26 7.5 8C7.5 7.74 7.71 7.53 7.97 7.53C8.23 7.53 8.44 7.74 8.44 8C8.44 8.26 8.23 8.47 7.97 8.47Z"
    fill="currentColor"
  />
  <path
    d="M7.97 12.06C6.88 12.06 6 12.94 6 14.03C6 15.12 6.88 16 7.97 16C9.06 16 9.94 15.12 9.94 14.03C9.94 12.94 9.06 12.06 7.97 12.06ZM7.97 14.5C7.71 14.5 7.5 14.29 7.5 14.03C7.5 13.77 7.71 13.56 7.97 13.56C8.23 13.56 8.44 13.77 8.44 14.03C8.44 14.29 8.23 14.5 7.97 14.5Z"
    fill="currentColor"
  />
  <path
    d="M1.97 0C0.88 0 0 0.88 0 1.97C0 3.06 0.88 3.94 1.97 3.94C3.06 3.94 3.94 3.06 3.94 1.97C3.94 0.88 3.06 0 1.97 0ZM1.97 2.44C1.71 2.44 1.5 2.23 1.5 1.97C1.5 1.71 1.71 1.5 1.97 1.5C2.23 1.5 2.44 1.71 2.44 1.97C2.44 2.23 2.23 2.44 1.97 2.44Z"
    fill="currentColor"
  />
  <path
    d="M1.97 6.03C0.88 6.03 0 6.91 0 8C0 9.09 0.88 9.97 1.97 9.97C3.06 9.97 3.94 9.09 3.94 8C3.94 6.91 3.06 6.03 1.97 6.03ZM1.97 8.47C1.71 8.47 1.5 8.26 1.5 8C1.5 7.74 1.71 7.53 1.97 7.53C2.23 7.53 2.44 7.74 2.44 8C2.44 8.26 2.23 8.47 1.97 8.47Z"
    fill="currentColor"
  />
  <path
    d="M1.97 12.06C0.88 12.06 0 12.94 0 14.03C0 15.12 0.88 16 1.97 16C3.06 16 3.94 15.12 3.94 14.03C3.94 12.94 3.06 12.06 1.97 12.06ZM1.97 14.5C1.71 14.5 1.5 14.29 1.5 14.03C1.5 13.77 1.71 13.56 1.97 13.56C2.23 13.56 2.44 13.77 2.44 14.03C2.44 14.29 2.23 14.5 1.97 14.5Z"
    fill="currentColor"
  />
  <path
    d="M13.97 3.94C15.06 3.94 15.94 3.06 15.94 1.97C15.94 0.88 15.06 0 13.97 0C12.88 0 12 0.88 12 1.97C12 3.06 12.88 3.94 13.97 3.94ZM13.97 1.5C14.23 1.5 14.44 1.71 14.44 1.97C14.44 2.23 14.23 2.44 13.97 2.44C13.71 2.44 13.5 2.23 13.5 1.97C13.5 1.71 13.71 1.5 13.97 1.5Z"
    fill="currentColor"
  />
  <path
    d="M13.97 6.03C12.88 6.03 12 6.91 12 8C12 9.09 12.88 9.97 13.97 9.97C15.06 9.97 15.94 9.09 15.94 8C15.94 6.91 15.06 6.03 13.97 6.03ZM13.97 8.47C13.71 8.47 13.5 8.26 13.5 8C13.5 7.74 13.71 7.53 13.97 7.53C14.23 7.53 14.44 7.74 14.44 8C14.44 8.26 14.23 8.47 13.97 8.47Z"
    fill="currentColor"
  />
  <path
    d="M13.97 12.06C12.88 12.06 12 12.94 12 14.03C12 15.12 12.88 16 13.97 16C15.06 16 15.94 15.12 15.94 14.03C15.94 12.94 15.06 12.06 13.97 12.06ZM13.97 14.5C13.71 14.5 13.5 14.29 13.5 14.03C13.5 13.77 13.71 13.56 13.97 13.56C14.23 13.56 14.44 13.77 14.44 14.03C14.44 14.29 14.23 14.5 13.97 14.5Z"
    fill="currentColor"
  />
</svg>
