<svg viewBox="0 0 16 16" fill="none" xmlns="http://www.w3.org/2000/svg">
  <title>Grid Icon</title>
  <path fill-rule="evenodd" clip-rule="evenodd" d="M0.0200195 2.20007C0.0200195 3.37007 0.970022 4.32008 2.14002 4.32008C3.31002 4.32008 4.26003 3.37007 4.26003 2.20007C4.26003 1.03007 3.31002 0.0800781 2.14002 0.0800781C0.970022 0.0800781 0.0200195 1.03007 0.0200195 2.20007ZM1.27002 2.19008C1.27002 1.71008 1.66002 1.32008 2.14002 1.32008C2.62002 1.32008 3.01003 1.71008 3.01003 2.19008C3.01003 2.67008 2.62002 3.06007 2.14002 3.06007C1.66002 3.06007 1.27002 2.67008 1.27002 2.19008ZM5.91998 2.20007C5.91998 3.37007 6.86998 4.32008 8.03998 4.32008C9.20998 4.32008 10.16 3.37007 10.16 2.20007C10.16 1.03007 9.20998 0.0800781 8.03998 0.0800781C6.86998 0.0800781 5.91998 1.03007 5.91998 2.20007ZM7.16998 2.19008C7.16998 1.71008 7.55998 1.32008 8.03998 1.32008C8.51998 1.32008 8.91999 1.71008 8.90999 2.19008C8.90999 2.67008 8.51998 3.06007 8.03998 3.06007C7.55998 3.06007 7.16998 2.67008 7.16998 2.19008ZM13.89 4.32008C12.72 4.32008 11.77 3.37007 11.77 2.20007C11.77 1.03007 12.72 0.0800781 13.89 0.0800781C15.06 0.0800781 16.01 1.03007 16.01 2.20007C16.01 3.37007 15.06 4.32008 13.89 4.32008ZM13.89 1.32008C13.41 1.32008 13.02 1.71008 13.02 2.19008C13.02 2.67008 13.41 3.06007 13.89 3.06007C14.37 3.06007 14.76 2.67008 14.76 2.19008C14.76 1.71008 14.37 1.32008 13.89 1.32008ZM0.0200195 8.01013C0.0200195 9.18013 0.970022 10.1301 2.14002 10.1301C3.31002 10.1301 4.26003 9.18013 4.26003 8.01013C4.26003 6.84013 3.31002 5.89014 2.14002 5.89014C0.970022 5.89014 0.0200195 6.84013 0.0200195 8.01013ZM1.27002 8.00014C1.27002 7.52014 1.66002 7.13014 2.14002 7.13014C2.62002 7.13014 3.01003 7.52014 3.01003 8.00014C3.01003 8.48014 2.62002 8.87013 2.14002 8.87013C1.66002 8.87013 1.27002 8.48014 1.27002 8.00014ZM8.03998 10.1301C6.86998 10.1301 5.91998 9.18013 5.91998 8.01013C5.91998 6.84013 6.86998 5.89014 8.03998 5.89014C9.20998 5.89014 10.16 6.84013 10.16 8.01013C10.16 9.18013 9.20998 10.1301 8.03998 10.1301ZM8.03998 7.13014C7.55998 7.13014 7.16998 7.52014 7.16998 8.00014C7.16998 8.48014 7.55998 8.87013 8.03998 8.87013C8.51998 8.87013 8.90999 8.48014 8.90999 8.00014C8.91999 7.52014 8.51998 7.13014 8.03998 7.13014ZM11.77 8.01013C11.77 9.18013 12.72 10.1301 13.89 10.1301C15.06 10.1301 16.01 9.18013 16.01 8.01013C16.01 6.84013 15.06 5.89014 13.89 5.89014C12.72 5.89014 11.77 6.84013 11.77 8.01013ZM13.02 8.00014C13.02 7.52014 13.41 7.13014 13.89 7.13014C14.37 7.13014 14.76 7.52014 14.76 8.00014C14.76 8.48014 14.37 8.87013 13.89 8.87013C13.41 8.87013 13.02 8.48014 13.02 8.00014ZM2.14002 15.94C0.970022 15.94 0.0200195 14.99 0.0200195 13.82C0.0200195 12.65 0.970022 11.7 2.14002 11.7C3.31002 11.7 4.26003 12.65 4.26003 13.82C4.26003 14.99 3.31002 15.94 2.14002 15.94ZM2.14002 12.94C1.66002 12.94 1.27002 13.33 1.27002 13.81C1.27002 14.29 1.66002 14.6799 2.14002 14.6799C2.62002 14.6799 3.01003 14.29 3.01003 13.81C3.01003 13.34 2.62002 12.94 2.14002 12.94ZM5.91998 13.82C5.91998 14.99 6.86998 15.94 8.03998 15.94C9.20998 15.94 10.16 14.99 10.16 13.82C10.16 12.65 9.20998 11.7 8.03998 11.7C6.86998 11.7 5.91998 12.65 5.91998 13.82ZM7.16998 13.81C7.16998 13.33 7.55998 12.94 8.03998 12.94C8.51998 12.94 8.91999 13.34 8.90999 13.81C8.90999 14.29 8.51998 14.6799 8.03998 14.6799C7.55998 14.6799 7.16998 14.29 7.16998 13.81ZM13.89 15.94C12.72 15.94 11.77 14.99 11.77 13.82C11.77 12.65 12.72 11.7 13.89 11.7C15.06 11.7 16.01 12.65 16.01 13.82C16.01 14.99 15.06 15.94 13.89 15.94ZM13.89 12.94C13.41 12.94 13.02 13.33 13.02 13.81C13.02 14.29 13.41 14.6799 13.89 14.6799C14.37 14.6799 14.76 14.29 14.76 13.81C14.76 13.34 14.37 12.94 13.89 12.94Z" fill="currentColor"/>
</svg>
