<svg viewBox="0 0 14 14" xmlns="http://www.w3.org/2000/svg" xmlns:xlink="http://www.w3.org/1999/xlink">
  <title>Heart</title>
  <path d="M12.7863608,1.99141695 C14.4045735,3.60962964 14.4045735,6.23410571 12.7864017,7.85131998 L7.00042973,13.6381514 L6.45041695,13.0881386 L1.21380196,7.85152357 C-0.404573521,6.23410571 -0.404573521,3.60962964 1.21380186,1.99125431 C2.80859861,0.397400666 5.37819966,0.373592394 7.00001452,1.91955599 C8.62250049,0.373571343 11.1925207,0.397576843 12.7863608,1.99141695 Z M11.6865797,6.75125421 C12.6970931,5.74133874 12.6970931,4.10203703 11.6864169,3.09136083 C10.6757408,2.08068463 9.03643904,2.08068463 8.02652357,3.09119804 L7.00083766,4.116884 L6.45086609,3.5678096 L5.97347643,3.09119804 C4.96353387,2.08065753 3.32488445,2.08065753 2.31358305,3.09136083 C1.30290685,4.10203703 1.30290685,5.74133874 2.31358305,6.75141695 L7.00034805,11.4381819 L11.6865797,6.75125421 Z"/>
</svg>
