<svg viewBox="0 0 16 16" fill="none" xmlns="https://www.w3.org/2000/svg">
  <title>Help Icon</title>
  <path fill-rule="evenodd" clip-rule="evenodd" d="M14.67 6.79005C14.06 3.61005 11.28 1.31006 8.04998 1.31006C7.62998 1.31006 7.18998 1.35005 6.76998 1.43005C4.99998 1.77005 3.46998 2.78007 2.45998 4.27007C1.44998 5.76007 1.07998 7.56006 1.41998 9.33006C2.02998 12.5101 4.80998 14.8101 8.03998 14.8101C8.46998 14.8101 8.89998 14.7701 9.31998 14.6901C11.09 14.3501 12.62 13.3401 13.63 11.8501C14.64 10.3601 15.01 8.56005 14.67 6.79005ZM6.52998 0.200058C7.03998 0.110058 7.54998 0.0600586 8.04998 0.0600586C11.81 0.0600586 15.16 2.72006 15.9 6.55006C16.73 10.8901 13.89 15.0801 9.54998 15.9101C9.03998 16.0001 8.52998 16.05 8.02998 16.05C4.26998 16.05 0.909979 13.3901 0.179978 9.56006C-0.650021 5.22006 2.18998 1.03006 6.52998 0.200058ZM5.75998 6.22005C5.78998 4.83005 6.80998 4.05005 8.03998 4.05005C9.26998 4.05005 10.31 4.79005 10.31 6.10005C10.31 7.22941 9.74842 7.74927 9.28251 8.18059C8.95221 8.48637 8.66998 8.74764 8.66998 9.15004V9.41005H7.26998V9.09004C7.26998 8.3189 7.72192 7.92041 8.16112 7.53316C8.57624 7.16714 8.97998 6.81116 8.97998 6.16005C8.97998 5.49005 8.60998 5.16005 8.05998 5.16005C7.46998 5.16005 7.07998 5.55005 7.07998 6.22005H5.75998ZM7.10998 10.97C7.10998 10.48 7.48998 10.1301 7.97998 10.1301C8.44998 10.1301 8.82998 10.48 8.83998 10.97C8.83998 11.46 8.44998 11.8201 7.97998 11.8201C7.47998 11.8201 7.10998 11.45 7.10998 10.97Z" fill="currentColor"/>
</svg>
