<svg viewBox="0 0 16 16" fill="none" xmlns="http://www.w3.org/2000/svg">
  <title>Image Icon</title>
  <mask id="mask0" mask-type="alpha" maskUnits="userSpaceOnUse" x="-1" y="2" width="18" height="13">
    <path fill-rule="evenodd" clip-rule="evenodd" d="M14.8 3.26001V6.66049L14.7875 6.65279C13.9214 8.06248 12.511 9.11893 10.8432 9.08511C9.73186 9.06039 8.82673 8.41115 7.35263 7.2237C6.67483 6.6753 6.10602 6.3065 5.54425 6.07655C4.97149 5.84211 4.44084 5.76617 3.86263 5.7551C2.90332 5.73468 2.00269 5.97856 1.25 6.36633V3.26001H14.8ZM10.8172 10.3348C12.4233 10.3676 13.7839 9.65304 14.8 8.64189V12.82H1.25V7.83439C1.90058 7.34696 2.8272 6.9832 3.8366 7.00483L3.83809 7.00486C4.30959 7.01384 4.67873 7.07293 5.07073 7.23339C5.47382 7.39839 5.93486 7.68446 6.56685 8.19584L6.56791 8.19669C7.97324 9.32877 9.20797 10.2993 10.8162 10.3348L10.8172 10.3348ZM0 14.07V7.26998L-0.00195312 7.26803L0 7.26608V2.01001H16.05V14.07H0ZM12.8 5.67993C12.8 6.23222 12.3523 6.67993 11.8 6.67993C11.2477 6.67993 10.8 6.23222 10.8 5.67993C10.8 5.12765 11.2477 4.67993 11.8 4.67993C12.3523 4.67993 12.8 5.12765 12.8 5.67993Z" fill="white"/>
  </mask>
  <g mask="url(#mask0)">
    <rect width="16" height="16" fill="#332E54"/>
  </g>
</svg>
