<svg viewBox="0 0 16 16" fill="none" xmlns="http://www.w3.org/2000/svg">
  <title>Info Icon</title>
  <mask id="mask0" mask-type="alpha" maskUnits="userSpaceOnUse" x="5" y="0" width="6" height="17">
    <path fill-rule="evenodd" clip-rule="evenodd" d="M7.95001 1.04004C7.95001 1.59232 7.5023 2.04004 6.95001 2.04004C6.39773 2.04004 5.95001 1.59232 5.95001 1.04004C5.95001 0.487754 6.39773 0.0400391 6.95001 0.0400391C7.5023 0.0400391 7.95001 0.487754 7.95001 1.04004ZM7.74704 10.8009C7.71809 11.5906 7.69099 12.3298 7.72 12.91L7.72117 12.9326C7.76211 13.7248 7.88124 16.03 10.08 16.03V14.78C9.54999 14.78 9.04001 14.63 8.96001 12.85C8.93086 12.3254 8.95835 11.6025 8.98745 10.8372L8.99001 10.77C9.06001 8.96004 9.13 7.09004 8.69 6.10004C8.37 5.38004 7.67999 4.54004 6.14999 4.54004H6.06L6.09 5.79004C7.08 5.75004 7.38 6.21004 7.55 6.60004C7.87 7.33004 7.81 9.21004 7.75 10.72C7.74901 10.7471 7.74802 10.774 7.74704 10.8009Z" fill="white"/>
  </mask>
  <g mask="url(#mask0)">
    <rect width="16" height="16" fill="currentColor"/>
  </g>
</svg>
