<svg xmlns="http://www.w3.org/2000/svg"  viewBox="0 0 39 39">
  <g fill-rule="evenodd" transform="translate(.277 .216)">
    <path d="M19.4275251,0.303375451 C14.2333989,0.303375451 13.5815432,0.325776981 11.5415059,0.418583318 C9.5062499,0.511389655 8.11647448,0.836211834 6.90042099,1.31144428 C5.64133545,1.80267783 4.5750972,2.45872262 3.5120465,3.5259955 C2.44899581,4.59326837 1.79554635,5.66374146 1.30625615,6.92782778 C0.832903743,8.14871114 0.509366575,9.54400641 0.416927384,11.5873459 C0.324488193,13.6354858 0.302175285,14.2899305 0.302175285,19.5046865 C0.302175285,24.7194426 0.324488193,25.3738873 0.416927384,27.4220271 C0.509366575,29.4653667 0.832903743,30.8606619 1.30625615,32.0815453 C1.79554635,33.3456316 2.44899581,34.4161047 3.5120465,35.4833776 C4.5750972,36.5506505 5.64133545,37.2066953 6.90042099,37.6979288 C8.11647448,38.1731612 9.5062499,38.4979834 11.5415059,38.5907898 C13.5815432,38.6835961 14.2333989,38.7059976 19.4275251,38.7059976 C24.6216514,38.7059976 25.2735071,38.6835961 27.3135444,38.5907898 C29.3488004,38.4979834 30.7385758,38.1731612 31.9546293,37.6979288 C33.2137148,37.2066953 34.2799531,36.5506505 35.3430038,35.4833776 C36.4060545,34.4161047 37.0595039,33.3456316 37.5487941,32.0815453 C38.0221465,30.8606619 38.3456837,29.4653667 38.4381229,27.4220271 C38.5305621,25.3738873 38.552875,24.7194426 38.552875,19.5046865 C38.552875,14.2899305 38.5305621,13.6354858 38.4381229,11.5873459 C38.3456837,9.54400641 38.0221465,8.14871114 37.5487941,6.92782778 C37.0595039,5.66374146 36.4060545,4.59326837 35.3430038,3.5259955 C34.2799531,2.45872262 33.2137148,1.80267783 31.9546293,1.31144428 C30.7385758,0.836211834 29.3488004,0.511389655 27.3135444,0.418583318 C25.2735071,0.325776981 24.6216514,0.303375451 19.4275251,0.303375451 M19.4275251,3.76281167 C24.5339936,3.76281167 25.1396296,3.78201298 27.1557603,3.87481931 C29.0204819,3.96122521 30.0325316,4.27324652 30.7067002,4.53566444 C31.5992165,4.88448826 32.2367282,5.30051666 32.9061155,5.97256255 C33.5755027,6.64460844 33.9898853,7.28465214 34.3373291,8.18071333 C34.5987089,8.85755954 34.9110896,9.87362892 34.9955599,11.7457568 C35.0879991,13.769895 35.1071245,14.3779365 35.1071245,19.5046865 C35.1071245,24.6314366 35.0879991,25.2394781 34.9955599,27.2636163 C34.9110896,29.1357442 34.5987089,30.1518135 34.3373291,30.8286598 C33.9898853,31.7247209 33.5755027,32.3647646 32.9061155,33.0368105 C32.2367282,33.7088564 31.5992165,34.1248848 30.7067002,34.4737086 C30.0325316,34.7361266 29.0204819,35.049748 27.1557603,35.1345538 C25.1396296,35.2273601 24.5339936,35.2465614 19.4275251,35.2465614 C14.3210567,35.2465614 13.7154207,35.2273601 11.69929,35.1345538 C9.83456841,35.049748 8.82251865,34.7361266 8.14835006,34.4737086 C7.25583374,34.1248848 6.61832208,33.7088564 5.94893483,33.0368105 C5.27954759,32.3647646 4.865165,31.7247209 4.51772115,30.8286598 C4.25634137,30.1518135 3.94555443,29.1357442 3.85949036,27.2636163 C3.76705117,25.2394781 3.74792582,24.6314366 3.74792582,19.5046865 C3.74792582,14.3779365 3.76705117,13.769895 3.85949036,11.7457568 C3.94555443,9.87362892 4.25634137,8.85755954 4.51772115,8.18071333 C4.865165,7.28465214 5.27954759,6.64460844 5.94893483,5.97256255 C6.61832208,5.30051666 7.25583374,4.88448826 8.14835006,4.53566444 C8.82251865,4.27324652 9.83456841,3.96122521 11.69929,3.87481931 C13.7154207,3.78201298 14.3210567,3.76281167 19.4275251,3.76281167"/>
    <path d="M19.4275251 25.9051236C15.906867 25.9051236 13.0524085 23.0393279 13.0524085 19.5046865 13.0524085 15.9700452 15.906867 13.1042495 19.4275251 13.1042495 22.9481833 13.1042495 25.8026418 15.9700452 25.8026418 19.5046865 25.8026418 23.0393279 22.9481833 25.9051236 19.4275251 25.9051236M19.4275251 9.6448133C14.0038947 9.6448133 9.60665799 14.0595147 9.60665799 19.5046865 9.60665799 24.9498583 14.0038947 29.3645598 19.4275251 29.3645598 24.8511556 29.3645598 29.2483923 24.9498583 29.2483923 19.5046865 29.2483923 14.0595147 24.8511556 9.6448133 19.4275251 9.6448133M31.9316789 9.25502668C31.9316789 10.5271135 30.9036913 11.559184 29.6366369 11.559184 28.3695825 11.559184 27.3415949 10.5271135 27.3415949 9.25502668 27.3415949 7.98293982 28.3695825 6.95086935 29.6366369 6.95086935 30.9036913 6.95086935 31.9316789 7.98293982 31.9316789 9.25502668"/>
  </g>
</svg>
