<svg width="16" height="16" viewBox="0 0 16 16" fill="none" xmlns="http://www.w3.org/2000/svg">
  <title>Lightbulb Icon</title>
  <path
    d="M8.40998 0H8.28998C4.81998 0 2.99998 2.47 2.99998 4.9C2.99998 6.69 3.72998 8.14 5.17998 9.21C6.04998 9.85 6.11998 10.24 6.11998 10.61C6.11998 11.02 6.45998 11.36 6.86998 11.36C7.27998 11.36 7.61998 11.02 7.61998 10.61C7.61998 9.59 7.15998 8.81 6.06998 8.01C4.99998 7.21 4.49998 6.23 4.49998 4.9C4.49998 3.26 5.68998 1.5 8.28998 1.5H8.39998C10.78 1.5 12.19 3.23 12.19 4.9C12.19 6.58 11.15 7.56 10.53 8C9.23998 8.9 9.06998 9.81 9.06998 10.57C9.06998 10.98 9.40999 11.32 9.81998 11.32C10.23 11.32 10.57 10.98 10.57 10.57C10.57 10.19 10.57 9.81 11.39 9.23C12.85 8.21 13.69 6.63 13.69 4.91C13.7 2.49 11.72 0 8.40998 0Z"
    fill="currentColor"
  />
  <path
    d="M9.86998 12.5H6.82998C6.41998 12.5 6.07998 12.84 6.07998 13.25V15.24C6.07998 15.65 6.41998 15.99 6.82998 15.99H9.86998C10.28 15.99 10.62 15.65 10.62 15.24V13.25C10.62 12.83 10.28 12.5 9.86998 12.5ZM9.11998 14.49H7.57998V14H9.11998V14.49Z"
    fill="currentColor"
  />
  <path
    d="M9.08998 7.25V4.45C9.08998 4.04 8.74998 3.7 8.33998 3.7C7.92999 3.7 7.58998 4.03 7.58998 4.45V7.25C7.58998 7.66 7.92999 8 8.33998 8C8.74998 8 9.08998 7.66 9.08998 7.25Z"
    fill="currentColor"
  />
</svg>
