<svg viewBox="0 0 16 16" fill="none" xmlns="http://www.w3.org/2000/svg">
  <title>Lock Icon</title>
  <mask id="mask0" mask-type="alpha" maskUnits="userSpaceOnUse" x="2" y="0" width="13" height="16">
    <path fill-rule="evenodd" clip-rule="evenodd" d="M11.37 3.33006V5.32007L14.13 8.17006V16.0001H2.07001V8.15005L4.83 5.57007V3.33006C4.83 1.53006 6.30001 0.0600586 8.10001 0.0600586C9.90001 0.0600586 11.37 1.53006 11.37 3.33006ZM10.12 3.33006C10.12 2.22006 9.21001 1.31006 8.10001 1.31006C6.99001 1.31006 6.08 2.22006 6.08 3.33006V5.22006H10.12V3.33006ZM3.32001 8.70006V14.7601H12.88V8.68005L10.74 6.47006H5.7L3.32001 8.70006ZM5.97998 10.62C5.97998 11.79 6.92999 12.74 8.09999 12.74C9.26999 12.74 10.22 11.79 10.22 10.62C10.22 9.45 9.26999 8.5 8.09999 8.5C6.92999 8.5 5.97998 9.45 5.97998 10.62ZM7.21999 10.62C7.21999 10.13 7.61999 9.74001 8.09999 9.74001C8.57999 9.74001 8.97998 10.13 8.97998 10.62C8.97998 11.11 8.58999 11.5 8.09999 11.5C7.60999 11.5 7.21999 11.11 7.21999 10.62Z" fill="white"/>
  </mask>
  <g mask="url(#mask0)">
    <rect width="16" height="16" fill="currentColor"/>
  </g>
</svg>
