<svg viewBox="0 0 18 18" fill="currentColor" xmlns="http://www.w3.org/2000/svg" xmlns:xlink="http://www.w3.org/1999/xlink">
  <title>Lock</title>
  <path d="M5,6.000011 L5,4 C5,1.7918507 6.79324162,0 9,0 C11.2081493,0 13,1.79324162 13,4 L13,6.00001088 C14.6587623,6.00457272 16,7.33908845 16,8.99961498 L16,15.000385 C16,16.6573061 14.6500671,18 12.9914698,18 L5.0085302,18 C3.34583835,18 2,16.663757 2,15.000385 L2,8.99961498 C2,7.34553534 3.34530692,6.00460606 5,6.00001184 Z M7,6 L11,6 L11,4 C11,2.89746386 10.1032323,2 9,2 C7.89746386,2 7,2.89676775 7,4 L7,6 Z M4,8.99961498 L4,15.000385 C4,15.5559714 4.44721709,16 5.0085302,16 L12.9914698,16 C13.5478977,16 14,15.5503221 14,15.000385 L14,8.99961498 C14,8.44402857 13.5527829,8 12.9914698,8 L5.0085302,8 C4.45210227,8 4,8.44967787 4,8.99961498 Z M9,14 C7.8954305,14 7,13.1045695 7,12 C7,10.8954305 7.8954305,10 9,10 C10.1045695,10 11,10.8954305 11,12 C11,13.1045695 10.1045695,14 9,14 Z"/>
</svg>
