<svg viewBox="0 0 113 26" xmlns="http://www.w3.org/2000/svg" xmlns:xlink="http://www.w3.org/1999/xlink">
  <title>Curology</title>
  <path d="M44.1090102,9.93869259 C43.7011546,9.85684074 43.3472798,9.82963704 43.0207554,9.82963704 C41.1702904,9.82963704 39.5654985,10.7304889 39.5654985,13.6246741 L39.5654985,19.7676556 L35.9458998,19.7676556 L35.9458998,6.33456296 L38.8666259,6.33456296 L39.2788,8.49906296 C40.0275749,6.72022963 42.1227533,6.22550741 43.2657087,6.22550741 C43.5648828,6.22550741 43.8367066,6.25295185 44.1090102,6.28015556 L44.1090102,9.93869259 Z"/>
  <polygon points="61.72 19.768 65.339 19.768 65.339 0 61.72 0" mask="url(#logo-b)"/>
  <path d="M15.1201677 14.048787C14.130758 15.4551944 12.2589406 16.4915833 10.1244161 16.4915833 7.02279406 16.4915833 3.89118259 14.2254907 3.89118259 10.1023241 3.89118259 5.70663889 7.18569639 3.6314537 10.0701953 3.6314537 12.3107622 3.6314537 13.8011146 4.69937963 14.8728153 6.35423148L17.5939321 3.95500926C15.9447558 1.5555463 13.3750255.00012037037 10.0701953.00012037037 4.90026539.00012037037 0 3.93213889 0 10.1023241 0 16.2729907 4.73712314 20.1773241 10.1244161 20.1773241 13.413172 20.1773241 16.0270467 18.5164537 17.6517516 16.2838241L15.1201677 14.048787zM52.5660166 5.92520741C48.5666323 5.92520741 45.4225452 8.90124444 45.4225452 13.0511333 45.4225452 17.1740593 48.5666323 20.1773 52.5660166 20.1773 56.5656408 20.1773 59.7094879 17.1740593 59.7094879 13.0511333 59.7094879 8.90124444 56.5656408 5.92520741 52.5660166 5.92520741M52.5660166 16.8738556C50.7973626 16.8738556 49.0414242 15.563263 49.0414242 13.0511333 49.0414242 10.5122815 50.7973626 9.22889259 52.5660166 9.22889259 54.3349104 9.22889259 56.0908488 10.5122815 56.0908488 13.0511333 56.0908488 15.5902259 54.3349104 16.8738556 52.5660166 16.8738556M74.6799006 5.92520741C70.6802764 5.92520741 67.5364293 8.90124444 67.5364293 13.0511333 67.5364293 17.1740593 70.6802764 20.1773 74.6799006 20.1773 78.6797648 20.1773 81.823372 17.1740593 81.823372 13.0511333 81.823372 8.90124444 78.6797648 5.92520741 74.6799006 5.92520741M74.6799006 16.8738556C72.9112467 16.8738556 71.1553083 15.563263 71.1553083 13.0511333 71.1553083 10.5122815 72.9112467 9.22889259 74.6799006 9.22889259 76.4487945 9.22889259 78.2047329 10.5122815 78.2047329 13.0511333 78.2047329 15.5902259 76.4487945 16.8738556 74.6799006 16.8738556M28.9015854 18.3207556C28.1669654 19.5769407 26.6161544 20.1229407 25.2011352 20.1229407 21.9632414 20.1229407 20.1130163 17.7473111 20.1130163 14.826163L20.1130163 6.33475556 23.7316554 6.33475556 23.7316554 14.0890148C23.7316554 15.5907556 24.4936257 16.7918111 26.1807085 16.7918111 27.7859803 16.7918111 28.7110928 15.6995704 28.7110928 14.143663L28.7110928 6.33475556 32.3299718 6.33475556 32.3299718 17.3378111 32.3299718 19.7678481 29.1645323 19.7678481 28.9015854 18.3207556zM90.0712444 8.88651111C91.5819896 8.88651111 92.6932762 9.99151111 92.6932762 11.5370667 92.6932762 13.0609556 91.5968643 14.1897889 90.0712444 14.1897889 88.6000851 14.1897889 87.459289 13.0660111 87.459289 11.5370667 87.459289 9.94601111 88.6000851 8.88651111 90.0712444 8.88651111M93.8184779 15.6474741C95.0681955 14.6626037 95.9599599 13.2159926 95.9599599 11.4973444 95.9599599 10.0545852 95.5192359 9.13471481 94.7745395 8.15899259L96.318393 6.61006667 94.3340554 4.61841852 92.5368516 6.42180741C91.7895161 6.0996963 90.9567709 5.92515926 90.0762826 5.92515926 86.7448219 5.92515926 84.1923654 8.17945556 84.1923654 11.4973444 84.1923654 13.2241778 85.1515459 14.8479741 86.3100958 15.6508444 85.653928 16.0827333 85.0642168 16.6561778 84.6983463 17.3885111L84.617255 17.5507704 87.4348176 18.9367148 87.5120703 18.7763815C87.9743866 17.8179926 88.9947454 17.1983259 90.1105904 17.1983259 91.7506499 17.1983259 92.9893314 18.4080481 92.9893314 20.1401778 92.9893314 21.7167889 91.6724376 22.9517889 90.1105904 22.9517889 89.227703 22.9517889 88.0113335 22.5201407 87.4871191 21.3027148L87.4137051 21.1325111 84.5282465 22.5485481 84.6057391 22.709363C85.5630002 24.6995667 87.6533803 25.9357704 90.0616478 25.9357704 93.5444949 25.9357704 96.1787624 23.5432889 96.1787624 20.2470667 96.1787624 18.2717889 95.1747178 16.7257519 93.8184779 15.6474741" mask="url(#logo-b)"/>
  <polyline points="103.703 18.075 98.016 6.335 102.07 6.335 105.635 14.198" mask="url(#logo-b)"/>
  <polyline points="105.311 14.198 108.927 6.335 112.791 6.335 103.24 25.757 99.403 25.757 103.268 18.252" mask="url(#logo-b)"/>
</svg>


