<svg viewBox="0 0 18 18" xmlns="http://www.w3.org/2000/svg" xmlns:xlink="http://www.w3.org/1999/xlink">
  <title>Logout</title>
  <path d="M11.0017772,13.5840092 L14.5857864,10 L6.00772946,10 C5.44948529,10 5,9.55228475 5,9 C5,8.44386482 5.45117585,8 6.00772946,8 L14.5857864,8 L11.0017772,4.41599079 C10.6155579,4.0297715 10.6094757,3.39052429 11,3 C11.393247,2.60675304 12.0227913,2.60857776 12.4122079,2.99799438 L17.7091124,8.29489884 C18.0907159,8.6765023 18.098529,9.31568454 17.7091124,9.70510116 L12.4122079,15.0020056 C12.0306045,15.3836091 11.3905243,15.3905243 11,15 C10.606753,14.606753 10.6102714,13.975515 11.0017772,13.5840092 Z M2,4 L2,14 L4,14 C4.55228475,14 5,14.4477153 5,15 C5,15.5522847 4.55228475,16 4,16 L1,16 C0.44771525,16 0,15.5522847 0,15 L0,3 C0,2.44771525 0.44771525,2 1,2 L4,2 C4.55228475,2 5,2.44771525 5,3 C5,3.55228475 4.55228475,4 4,4 L2,4 Z"/>
</svg>
