<svg viewBox="0 0 16 16" fill="none" xmlns="http://www.w3.org/2000/svg">
  <title>Mic Icon</title>
  <mask id="mask0" mask-type="alpha" maskUnits="userSpaceOnUse" x="1" y="0" width="15" height="17">
    <path fill-rule="evenodd" clip-rule="evenodd" d="M8.65002 12.7001C10.89 12.5101 12.92 11.1501 13.9 9.1001L15.04 9.65009C13.77 12.2901 11.05 14.0001 8.12002 14.0001C4.99002 14.0001 2.21002 12.1401 1.02002 9.25009L2.18002 8.7701C3.08002 10.9601 5.09003 12.4401 7.41003 12.6901V10.8801C5.71003 10.5801 4.41003 9.1001 4.41003 7.3201V3.7101C4.41003 1.7201 6.04002 0.0900879 8.03002 0.0900879C10.02 0.0900879 11.65 1.7101 11.65 3.7101V7.3201C11.65 9.1001 10.35 10.5801 8.65002 10.8801V12.7001ZM5.65002 3.7101V7.3201C5.65002 8.6301 6.72002 9.70009 8.03002 9.70009C9.34002 9.70009 10.41 8.6301 10.41 7.3201V3.7101C10.41 2.4001 9.34002 1.33009 8.03002 1.33009C6.72002 1.33009 5.65002 2.4001 5.65002 3.7101ZM4.28003 14.8H11.74V16.05H4.28003V14.8Z" fill="white"/>
  </mask>
  <g mask="url(#mask0)">
    <rect width="16" height="16" fill="#332E54"/>
  </g>
</svg>
