<svg width="16" height="16" viewBox="0 0 16 16" fill="none" xmlns="http://www.w3.org/2000/svg">
  <title>Mic Icon</title>
  <path
    d="M11.115 14.6H4.90503C4.55985 14.6 4.28003 14.8798 4.28003 15.225C4.28003 15.5702 4.55985 15.85 4.90503 15.85H11.115C11.4602 15.85 11.74 15.5702 11.74 15.225C11.74 14.8798 11.4602 14.6 11.115 14.6Z"
    fill="#343352"
  />
  <path
    d="M13.5977 9.65752C13.78 9.35876 14.1561 9.22366 14.4714 9.37573C14.7855 9.5273 14.9197 9.90646 14.7427 10.207C13.3762 12.5281 10.8385 14.0001 8.12001 14.0001C5.20064 14.0001 2.58575 12.382 1.28148 9.81928C1.12448 9.51081 1.27899 9.14293 1.59882 9.01059C1.91958 8.87786 2.28447 9.03271 2.4471 9.3394C3.44146 11.2146 5.29719 12.4624 7.41002 12.6901V10.8801C5.71002 10.5801 4.41002 9.10009 4.41002 7.3201V3.71009C4.41002 1.72009 6.04002 0.0900841 8.03002 0.0900841C10.02 0.0900841 11.65 1.71009 11.65 3.71009V6.38C11.65 6.72242 11.3724 7 11.03 7C10.6876 7 10.41 6.72242 10.41 6.38V3.71009C10.41 2.40009 9.34002 1.33009 8.03002 1.33009C6.72002 1.33009 5.65001 2.40009 5.65001 3.71009V7.3201C5.65001 8.63009 6.72002 9.70008 8.03002 9.70008C8.34611 9.70008 8.64999 9.92897 8.64999 10.2451L8.65001 12.7001C10.6802 12.5279 12.5379 11.3946 13.5977 9.65752Z"
    fill="#343352"
  />
</svg>
