<svg viewBox="0 0 16 16" fill="none" xmlns="http://www.w3.org/2000/svg">
  <title>More Icon</title>
  <path
    d="M7.97 3.94C6.88 3.94 6 3.06 6 1.97C6 0.88 6.88 0 7.97 0C9.06 0 9.94 0.88 9.94 1.97C9.94 3.06 9.06 3.94 7.97 3.94ZM7.97 1.5C7.71 1.5 7.5 1.71 7.5 1.97C7.5 2.23 7.71 2.44 7.97 2.44C8.23 2.44 8.44 2.23 8.44 1.97C8.44 1.71 8.23 1.5 7.97 1.5Z"
    fill="currentColor"
  />
  <path
    d="M7.97 9.97C6.88 9.97 6 9.09 6 8C6 6.91 6.88 6.03 7.97 6.03C9.06 6.03 9.94 6.91 9.94 8C9.94 9.09 9.06 9.97 7.97 9.97ZM7.97 7.53C7.71 7.53 7.5 7.74 7.5 8C7.5 8.26 7.71 8.47 7.97 8.47C8.23 8.47 8.44 8.26 8.44 8C8.44 7.74 8.23 7.53 7.97 7.53Z"
    fill="currentColor"
  />
  <path
    d="M7.97 16C6.88 16 6 15.12 6 14.03C6 12.94 6.88 12.06 7.97 12.06C9.06 12.06 9.94 12.94 9.94 14.03C9.94 15.12 9.06 16 7.97 16ZM7.97 13.56C7.71 13.56 7.5 13.77 7.5 14.03C7.5 14.29 7.71 14.5 7.97 14.5C8.23 14.5 8.44 14.29 8.44 14.03C8.44 13.77 8.23 13.56 7.97 13.56Z"
    fill="currentColor"
  />
</svg>
