<svg viewBox="0 0 4 12" xmlns="http://www.w3.org/2000/svg" xmlns:xlink="http://www.w3.org/1999/xlink">
  <title>More</title>
  <path d="M2,3.11111111 C1.14089039,3.11111111 0.444444444,2.41466517 0.444444444,1.55555556 C0.444444444,0.696445945 1.14089039,0 2,0 C2.85910961,0 3.55555556,0.696445945 3.55555556,1.55555556 C3.55555556,2.41466517 2.85910961,3.11111111 2,3.11111111 Z M2,12 C1.14089039,12 0.444444444,11.3035541 0.444444444,10.4444444 C0.444444444,9.58533483 1.14089039,8.88888889 2,8.88888889 C2.85910961,8.88888889 3.55555556,9.58533483 3.55555556,10.4444444 C3.55555556,11.3035541 2.85910961,12 2,12 Z M2,7.55555556 C1.14089039,7.55555556 0.444444444,6.85910961 0.444444444,6 C0.444444444,5.14089039 1.14089039,4.44444444 2,4.44444444 C2.85910961,4.44444444 3.55555556,5.14089039 3.55555556,6 C3.55555556,6.85910961 2.85910961,7.55555556 2,7.55555556 Z"/>
</svg>
