<svg viewBox="0 0 14 14" xmlns="http://www.w3.org/2000/svg" xmlns:xlink="http://www.w3.org/1999/xlink">
  <title>Notifications</title>
  <path d="M12.4444444,10.8888889 L1.55555556,10.8888889 L1.55555556,10.2067778 L2.92211111,4.739 C3.39111111,2.86455556 5.068,1.55555556 7,1.55555556 C8.932,1.55555556 10.6088889,2.86455556 11.0778889,4.739 L12.4444444,10.2067778 L12.4444444,10.8888889 Z M13.9766667,9.92211111 L12.5867778,4.36177778 C11.9443333,1.79355556 9.64677778,0 7,0 C4.35322222,0 2.05566667,1.79355556 1.41322222,4.36177778 L0.0233333333,9.92211111 C0.00777777778,9.98433333 0,10.0473333 0,10.1111111 L0,11.6666667 C0,12.096 0.347666667,12.4444444 0.777777778,12.4444444 L4.80977778,12.4444444 C5.131,13.349 5.985,14 7,14 C8.015,14 8.869,13.349 9.19022222,12.4444444 L13.2222222,12.4444444 C13.6523333,12.4444444 14,12.096 14,11.6666667 L14,10.1111111 C14,10.0473333 13.9922222,9.98433333 13.9766667,9.92211111 L13.9766667,9.92211111 Z"/>
</svg>

