<svg viewBox="0 0 16 16" fill="none" xmlns="http://www.w3.org/2000/svg">
  <title>Paperclip Icon</title>
  <path
    d="M12.52 2.75C12.11 2.75 11.77 3.09 11.77 3.5V10.8C11.77 14.15 9.6 14.51 8.67 14.51C7.14 14.51 5.5 13.6 5.5 11.05V3.49C5.5 2.75 5.86 1.5 7.21 1.5C8.56 1.5 9.34 2.07 9.34 5.01V10.83C9.34 11.28 9.25 12.03 8.66 12.03C8.49 12.03 7.95 12.03 7.95 10.96V3.4C7.95 2.99 7.61 2.65 7.2 2.65C6.79 2.65 6.46 2.99 6.46 3.4V10.96C6.46 12.86 7.65 13.53 8.67 13.53C9.75 13.53 10.85 12.69 10.85 10.83V5.01C10.85 3.64 10.85 0 7.22 0C5.1 0 4 1.75 4 3.49V11.04C4 14.46 6.34 16 8.67 16C10.79 16 13.27 14.64 13.27 10.79V3.5C13.27 3.08 12.93 2.75 12.52 2.75Z"
    fill="currentColor"
  />
</svg>
