<svg viewBox="0 0 16 16" fill="none" xmlns="http://www.w3.org/2000/svg">
  <title>Paperclip Icon</title>
  <mask id="mask0" mask-type="alpha" maskUnits="userSpaceOnUse" x="1" y="0" width="14" height="17">
    <path d="M13.09 0.940018C12.18 0.240018 11.06 -0.0599839 9.92001 0.110016C8.62001 0.300016 7.43002 1.09001 6.55002 2.31001L1.58002 8.98001L2.58002 9.73001L7.56001 3.05002C8.24001 2.10002 9.14002 1.49002 10.1 1.35002C10.9 1.23002 11.69 1.44001 12.33 1.93001C13.47 2.81001 14.14 4.36002 13.03 5.83002L9.32002 10.95L7.04001 14.07C6.45001 14.85 5.34002 15.01 4.55002 14.42C4.17002 14.13 3.93002 13.72 3.86002 13.25C3.79002 12.78 3.91001 12.31 4.20001 11.93L9.87001 4.36002C10.1 4.05002 10.55 3.99002 10.86 4.22002C11.17 4.45002 11.23 4.90002 11 5.21002L6.14001 11.6L7.13002 12.36L12 5.96002C12.65 5.10002 12.47 3.87002 11.61 3.22002C10.75 2.57002 9.52001 2.75002 8.87001 3.61002L6.58002 6.65001L3.20001 11.18C2.20001 12.51 2.47002 14.42 3.80002 15.42C4.34002 15.83 4.98002 16.03 5.61002 16.03C6.53002 16.03 7.44001 15.61 8.04001 14.82L8.50002 14.18L8.51001 14.19L10.22 11.83L10.79 11.05L14.03 6.58002C15.39 4.77002 14.99 2.40002 13.09 0.940018Z" fill="white"/>
  </mask>
  <g mask="url(#mask0)">
    <rect width="16" height="16" fill="#332E54"/>
  </g>
</svg>
