<svg viewBox="0 0 13 13" xmlns="http://www.w3.org/2000/svg" xmlns:xlink="http://www.w3.org/1999/xlink">
  <title>Pencil</title>
  <g fill-rule="evenodd" transform="translate(-5.000000, 0.000000)" fill="currentColor">
    <path d="M15.6211,4.2113 L10.3541,9.4783 L8.5201,7.6463 L13.7881,2.3783 C14.2961,1.8713 15.1171,1.8733 15.6211,2.3783 C16.1261,2.8843 16.1261,3.7053 15.6211,4.2113 L15.6211,4.2113 Z M7.6881,9.7063 L8.2941,10.3123 L7.5291,10.4703 L7.6881,9.7063 Z M17.0351,0.9643 C15.7501,-0.3207 13.6591,-0.3217 12.3741,0.9643 L6.4751,6.8623 C6.3471,6.9653 6.2461,7.0973 6.1821,7.2503 C6.1581,7.3003 6.1431,7.3493 6.1281,7.4003 C6.1261,7.4113 6.1191,7.4213 6.1171,7.4323 L5.2611,11.5563 C5.1921,11.8863 5.2951,12.2283 5.5331,12.4663 C5.7231,12.6553 5.9771,12.7593 6.2401,12.7593 C6.3081,12.7593 6.3761,12.7523 6.4431,12.7383 L10.5671,11.8823 C10.5781,11.8803 10.5871,11.8743 10.5991,11.8713 C10.6501,11.8573 10.6991,11.8413 10.7491,11.8173 C10.9031,11.7533 11.0341,11.6513 11.1381,11.5233 L17.0351,5.6253 C18.3201,4.3403 18.3201,2.2493 17.0351,0.9643 L17.0351,0.9643 Z"/>
  </g>
</svg>
