<svg width="16" height="16" viewBox="0 0 16 16" fill="none" xmlns="http://www.w3.org/2000/svg">
  <title>Phone Icon</title>
  <path
    d="M8.38 13.78C8.86601 13.78 9.26 13.386 9.26 12.9C9.26 12.414 8.86601 12.02 8.38 12.02C7.89399 12.02 7.5 12.414 7.5 12.9C7.5 13.386 7.89399 13.78 8.38 13.78Z"
    fill="currentColor"
  />
  <path
    d="M9.63 4.31999C10.04 4.31999 10.38 3.97999 10.38 3.56999C10.38 3.15999 10.04 2.81999 9.63 2.81999H7.14C6.73 2.81999 6.39 3.15999 6.39 3.56999C6.39 3.97999 6.73 4.31999 7.14 4.31999H9.63Z"
    fill="currentColor"
  />
  <path
    d="M13.77 10.65V1.64999C13.77 0.739992 13.02 -7.62939e-06 12.11 -7.62939e-06H4.65C3.74 -7.62939e-06 3 0.739992 3 1.64999V7.99999C3 8.40999 3.34 8.74999 3.75 8.74999C4.16 8.74999 4.5 8.40999 4.5 7.99999V1.64999C4.5 1.56999 4.57 1.49999 4.65 1.49999H12.11C12.19 1.49999 12.26 1.56999 12.26 1.64999V9.89999H3.75C3.34 9.89999 3 10.23 3 10.65V14.35C3 15.26 3.74 16 4.65 16H12.11C13.02 16 13.76 15.26 13.76 14.35V13.3C13.76 12.89 13.42 12.55 13.01 12.55C12.6 12.55 12.26 12.89 12.26 13.3V14.35C12.26 14.43 12.19 14.5 12.11 14.5H4.65C4.57 14.5 4.5 14.43 4.5 14.35V11.4H13.02C13.43 11.4 13.77 11.06 13.77 10.65Z"
    fill="currentColor"
  />
</svg>
