<svg viewBox="0 0 16 16" fill="none" xmlns="http://www.w3.org/2000/svg">
  <title>Phone Icon</title>
  <mask id="mask0" mask-type="alpha" maskUnits="userSpaceOnUse" x="0" y="0" width="17" height="16">
    <path d="M12.68 16.0001C11.38 16.0001 9.94998 15.6001 8.50998 14.8401C5.54998 13.2601 3.46998 11.1601 2.16998 8.41006C1.37998 6.75006 0.969983 5.28006 0.669983 3.01006L0.609985 2.58006L5.22998 0.0700684L8.50998 5.36006L5.81999 7.22006C6.66999 8.64006 8.33999 9.85006 9.06999 10.3401L11.76 8.26006L16.03 11.8001L13.15 15.9801L12.83 15.9901C12.77 16.0001 12.73 16.0001 12.68 16.0001ZM1.96999 3.27007C2.28999 5.44007 2.71999 6.65007 3.29999 7.88007C4.48999 10.3801 6.37999 12.3001 9.09999 13.7501C10.28 14.3701 11.44 14.7201 12.48 14.7601L14.35 12.0501L11.73 9.88007L9.14998 11.8801L8.77998 11.6601C8.64998 11.5801 5.52999 9.70006 4.43999 7.30006L4.21999 6.82007L6.80998 5.02007L4.77998 1.74007L1.96999 3.27007Z" fill="white"/>
  </mask>
  <g mask="url(#mask0)">
    <rect width="16" height="16" fill="#332E54"/>
  </g>
</svg>
