<svg viewBox="0 0 16 16" fill="none" xmlns="http://www.w3.org/2000/svg">
  <title>Pinterest Icon</title>
  <mask id="mask0" mask-type="alpha" maskUnits="userSpaceOnUse" x="2" y="0" width="12" height="16">
    <path d="M8.375 0.203125C5.16875 0.203125 2 2.34063 2 5.8C2 8 3.2375 9.25 3.9875 9.25C4.29688 9.25 4.475 8.3875 4.475 8.14375C4.475 7.85313 3.73438 7.23438 3.73438 6.025C3.73438 3.5125 5.64687 1.73125 8.12187 1.73125C10.25 1.73125 11.825 2.94062 11.825 5.1625C11.825 6.82187 11.1594 9.93437 9.00313 9.93437C8.225 9.93437 7.55937 9.37187 7.55937 8.56563C7.55937 7.38438 8.38438 6.24062 8.38438 5.02187C8.38438 2.95312 5.45 3.32812 5.45 5.82812C5.45 6.35313 5.51562 6.93437 5.75 7.4125C5.31875 9.26875 4.4375 12.0344 4.4375 13.9469C4.4375 14.5375 4.52187 15.1188 4.57812 15.7094C4.68438 15.8281 4.63125 15.8156 4.79375 15.7563C6.36875 13.6 6.3125 13.1781 7.025 10.3562C7.40938 11.0875 8.40313 11.4812 9.19063 11.4812C12.5094 11.4812 14 8.24688 14 5.33125C14 2.22813 11.3188 0.203125 8.375 0.203125Z" fill="white"/>
  </mask>
  <g mask="url(#mask0)">
    <rect width="16" height="16" fill="currentColor"/>
  </g>
</svg>
