<svg viewBox="0 0 14 16" fill="none" xmlns="http://www.w3.org/2000/svg">
  <title>Plan Icon</title>
  <path
    d="M11.74 0H2.2C1.54 0 1 0.54 1 1.2V14.8C1 15.46 1.54 16 2.2 16H11.74C12.4 16 12.94 15.46 12.94 14.8V1.2C12.94 0.54 12.4 0 11.74 0ZM11.44 14.5H2.5V1.5H11.44V14.5Z"
    fill="currentColor"
  />
  <path
    d="M4.22 6.32H9.73C10.14 6.32 10.48 5.98 10.48 5.57C10.48 5.16 10.14 4.82 9.72 4.82H4.22C3.81 4.82 3.47 5.16 3.47 5.57C3.47 5.98 3.8 6.32 4.22 6.32Z"
    fill="currentColor"
  />
  <path
    d="M7.22 3.91H9.72C10.13 3.91 10.47 3.57 10.47 3.16C10.47 2.75 10.14 2.41 9.73 2.41H7.23C6.82 2.41 6.48 2.75 6.48 3.16C6.48 3.57 6.81 3.91 7.22 3.91Z"
    fill="currentColor"
  />
  <path
    d="M4.22 11.16H9.73C10.14 11.16 10.48 10.82 10.48 10.41C10.48 10 10.14 9.66 9.72 9.66H4.22C3.81 9.66 3.47 10 3.47 10.41C3.47 10.82 3.8 11.16 4.22 11.16Z"
    fill="currentColor"
  />
  <path
    d="M4.22 8.75H9.73C10.14 8.75 10.48 8.41 10.48 8C10.48 7.59 10.14 7.25 9.72 7.25H4.22C3.8 7.25 3.47 7.59 3.47 8C3.47 8.41 3.8 8.75 4.22 8.75Z"
    fill="currentColor"
  />
  <path
    d="M4.22 13.58H6.72C7.13 13.58 7.47 13.24 7.47 12.83C7.47 12.42 7.13 12.08 6.72 12.08H4.22C3.81 12.08 3.47 12.42 3.47 12.83C3.47 13.24 3.8 13.58 4.22 13.58Z"
    fill="currentColor"
  />
</svg>
