<svg viewBox="0 0 19 20" xmlns="http://www.w3.org/2000/svg" xmlns:xlink="http://www.w3.org/1999/xlink">
  <title>Plan</title>
  <path d="M3.7197,2.7266 C2.7717,2.7266 1.9997,3.4976 1.9997,4.4456 L1.9997,16.2816 C1.9997,17.2286 2.7717,17.9996 3.7197,17.9996 L14.3407,17.9996 C15.2887,17.9996 16.0607,17.2286 16.0607,16.2816 L16.0607,4.4456 C16.0607,3.4976 15.2887,2.7266 14.3407,2.7266 L3.7197,2.7266 Z M14.3407,19.9996 L3.7197,19.9996 C1.6687,19.9996 -0.0003,18.3316 -0.0003,16.2816 L-0.0003,4.4456 C-0.0003,2.3946 1.6687,0.7266 3.7197,0.7266 L14.3407,0.7266 C16.3917,0.7266 18.0607,2.3946 18.0607,4.4456 L18.0607,16.2816 C18.0607,18.3316 16.3917,19.9996 14.3407,19.9996 L14.3407,19.9996 Z" />
  <path d="M12.8623 7.5009L4.8953 7.5009C4.3423 7.5009 3.8953 7.0539 3.8953 6.5009 3.8953 5.9479 4.3423 5.5009 4.8953 5.5009L12.8623 5.5009C13.4153 5.5009 13.8623 5.9479 13.8623 6.5009 13.8623 7.0539 13.4153 7.5009 12.8623 7.5009M12.8623 11.5009L4.8953 11.5009C4.3423 11.5009 3.8953 11.0539 3.8953 10.5009 3.8953 9.9479 4.3423 9.5009 4.8953 9.5009L12.8623 9.5009C13.4153 9.5009 13.8623 9.9479 13.8623 10.5009 13.8623 11.0539 13.4153 11.5009 12.8623 11.5009M8.8789 15.5009L4.8959 15.5009C4.3429 15.5009 3.8959 15.0539 3.8959 14.5009 3.8959 13.9479 4.3429 13.5009 4.8959 13.5009L8.8789 13.5009C9.4319 13.5009 9.8789 13.9479 9.8789 14.5009 9.8789 15.0539 9.4319 15.5009 8.8789 15.5009"/>
  <path d="M12.8623 7.5009L4.8953 7.5009C4.3423 7.5009 3.8953 7.0539 3.8953 6.5009 3.8953 5.9479 4.3423 5.5009 4.8953 5.5009L12.8623 5.5009C13.4153 5.5009 13.8623 5.9479 13.8623 6.5009 13.8623 7.0539 13.4153 7.5009 12.8623 7.5009M12.8623 11.5009L4.8953 11.5009C4.3423 11.5009 3.8953 11.0539 3.8953 10.5009 3.8953 9.9479 4.3423 9.5009 4.8953 9.5009L12.8623 9.5009C13.4153 9.5009 13.8623 9.9479 13.8623 10.5009 13.8623 11.0539 13.4153 11.5009 12.8623 11.5009M8.8789 15.5009L4.8959 15.5009C4.3429 15.5009 3.8959 15.0539 3.8959 14.5009 3.8959 13.9479 4.3429 13.5009 4.8959 13.5009L8.8789 13.5009C9.4319 13.5009 9.8789 13.9479 9.8789 14.5009 9.8789 15.0539 9.4319 15.5009 8.8789 15.5009"/>
</svg>
