<svg viewBox="0 0 18 18" xmlns="http://www.w3.org/2000/svg" xmlns:xlink="http://www.w3.org/1999/xlink">
  <title>Plus</title>
  <path d="M10,8 L10,0.993397683 C10,0.444946289 9.55228475,0 9,0 C8.44386482,0 8,0.444759292 8,0.993397683 L8,8 L0.993397683,8 C0.444946289,8 0,8.44771525 0,9 C0,9.55613518 0.444759292,10 0.993397683,10 L8,10 L8,17.0066023 C8,17.5550537 8.44771525,18 9,18 C9.55613518,18 10,17.5552407 10,17.0066023 L10,10 L17.0066023,10 C17.5550537,10 18,9.55228475 18,9 C18,8.44386482 17.5552407,8 17.0066023,8 L10,8 Z"/>
</svg>
