<svg viewBox="0 0 49 53" xmlns="http://www.w3.org/2000/svg" xmlns:xlink="http://www.w3.org/1999/xlink">
  <title>Postcard Sparkle</title>
  <path d="M24.453,0.00019 L5.7247,6.86679 L0,20.48504 L24.453,52.55894 L48.90695,20.48504 L43.18225,6.86679 L24.453,0.00019 Z M24.453,2.63074 L25.4866,3.00979 L30.9244,7.65434 L10.754,7.65434 L24.453,2.63074 Z M28.81825,4.23149 L38.152,7.65434 L32.8263,7.65434 L28.81825,4.23149 Z M36.70705,19.87229 L33.4267,8.88839 L41.3516,8.88839 L45.9895,19.91979 L36.70705,19.87229 Z M3.0115,19.69559 L7.55535,8.88839 L32.13755,8.88839 L35.41505,19.86564 L3.0115,19.69559 Z M3.44755,20.93249 L35.38085,21.09874 L24.74085,48.10724 L24.453,48.48439 L3.44755,20.93249 Z M36.7061,21.10634 L45.2922,21.15099 L27.48635,44.50674 L36.7061,21.10634 Z"/>
</svg>
