<svg viewBox="0 0 16 16" fill="none" xmlns="https://www.w3.org/2000/svg">
  <title>Provider Icon</title>
  <path d="M12.49 8.97C13.2 8.03 13.62 6.87 13.62 5.6C13.62 2.51 11.11 0 8.01 0C4.92 0 2.41 2.51 2.41 5.6C2.41 6.86 2.82 8.02 3.53 8.95C2.22 10.78 1.5 13.23 1.5 15.25V15.87H14.5V15.25C14.5 13.24 13.78 10.8 12.49 8.97ZM3.66 5.6C3.66 3.2 5.61 1.25 8.01 1.25C10.41 1.25 12.37 3.2 12.37 5.6C12.37 6.47 12.11 7.29 11.66 7.97C11.43 8.33 11.15 8.65 10.82 8.92C10.06 9.57 9.08 9.96 8.01 9.96C6.94 9.96 5.95 9.57 5.2 8.91C4.86 8.64 4.58 8.32 4.35 7.95C3.91 7.27 3.66 6.46 3.66 5.6ZM8.01 11.27C8.42 11.27 8.76 11.61 8.76 12.02C8.76 12.43 8.42 12.77 8.01 12.77C7.6 12.77 7.26 12.43 7.26 12.02C7.26 11.61 7.6 11.27 8.01 11.27ZM2.78 14.62C2.91 13.09 3.49 11.29 4.41 9.9C4.96 10.37 5.62 10.73 6.33 10.96C6.12 11.27 6.01 11.63 6.01 12.02C6.01 13.12 6.91 14.02 8.01 14.02C9.11 14.02 10.01 13.12 10.01 12.02C10.01 11.63 9.9 11.27 9.69 10.96C10.4 10.73 11.04 10.37 11.6 9.91C12.52 11.3 13.1 13.09 13.23 14.62H2.78Z" fill="currentColor"/>
</svg>
