<svg viewBox="0 0 18 18" xmlns="http://www.w3.org/2000/svg" xmlns:xlink="http://www.w3.org/1999/xlink">
  <title>Question Circle</title>
  <path d="M8.9854,15.9717 C5.1334,15.9717 2.0004,12.8377 2.0004,8.9867 C2.0004,5.1337 5.1334,1.9997 8.9854,1.9997 C12.8384,1.9997 15.9714,5.1337 15.9714,8.9867 C15.9714,12.8377 12.8384,15.9717 8.9854,15.9717 M8.9854,-0.0003 C4.0314,-0.0003 0.0004,4.0317 0.0004,8.9867 C0.0004,13.9407 4.0314,17.9717 8.9854,17.9717 C13.9404,17.9717 17.9714,13.9407 17.9714,8.9867 C17.9714,4.0317 13.9404,-0.0003 8.9854,-0.0003"/>
  <path d="M8.9912 12.2783C8.4282 12.2783 8.0202 12.6743 8.0202 13.2143 8.0202 13.7543 8.4282 14.1613 8.9912 14.1613 9.5192 14.1613 9.9512 13.7413 9.9512 13.2143 9.9512 12.6863 9.5192 12.2783 8.9912 12.2783M8.9854 4.0869C7.1784 4.0869 5.7094 5.5569 5.7094 7.3629 5.7094 7.9159 6.1564 8.3629 6.7094 8.3629 7.2614 8.3629 7.7094 7.9159 7.7094 7.3629 7.7094 6.6589 8.2814 6.0869 8.9854 6.0869 9.6894 6.0869 10.2614 6.6589 10.2614 7.3629 10.2614 7.9669 9.8334 8.4929 9.2444 8.6139 9.1614 8.6309 9.0744 8.6399 8.9854 8.6399 8.4324 8.6399 7.9854 9.0869 7.9854 9.6399L7.9854 10.7189C7.9854 11.2719 8.4324 11.7189 8.9854 11.7189 9.5384 11.7189 9.9854 11.2719 9.9854 10.7189L9.9854 10.4839C11.3234 10.0549 12.2614 8.7939 12.2614 7.3629 12.2614 5.5569 10.7924 4.0869 8.9854 4.0869"/>
</svg>
