<svg width="16" height="16" viewBox="0 0 16 16" fill="none" xmlns="http://www.w3.org/2000/svg">
  <title>Rotate Icon</title>
  <path fill-rule="evenodd" clip-rule="evenodd" d="M14.6 4.60002L14.79 3.94002L15.99 4.29001L15.17 7.13002L12.19 6.30002L12.53 5.09001L13.56 5.38002C12.94 3.75002 11.64 2.47001 9.96001 1.90001C8.47001 1.40001 6.88 1.50002 5.47 2.19002C4.06 2.88002 3.01 4.08002 2.5 5.57002L1.31 5.16002C1.93 3.35002 3.21 1.89002 4.92 1.05002C6.63 0.21002 8.56 0.0800142 10.37 0.700014C12.29 1.35001 13.8 2.78002 14.6 4.60002ZM9.02 8.02002C9.02 8.57783 8.5678 9.03001 8.00999 9.03001C7.45219 9.03001 7 8.57783 7 8.02002C7 7.46221 7.45219 7.01001 8.00999 7.01001C8.5678 7.01001 9.02 7.46221 9.02 8.02002ZM11.55 13.29C10.28 14.21 8.72 14.58 7.17 14.32C5.1 13.99 3.37 12.55 2.63 10.63L3.55 11.05L4.07001 9.90001L1.25 8.62001L0 11.3L1.14 11.83L1.47 11.12C2.38 13.43 4.47001 15.15 6.96001 15.56C7.35001 15.62 7.73 15.65 8.12 15.65C9.60999 15.65 11.05 15.19 12.28 14.3C13.83 13.18 14.85 11.53 15.15 9.65001L13.91 9.45001C13.66 11.01 12.82 12.37 11.55 13.29Z" fill="currentColor"/>
</svg>
