<svg viewBox="0 0 41 74" xmlns="http://www.w3.org/2000/svg" xmlns:xlink="http://www.w3.org/1999/xlink">
  <title>Selfie</title>
  <g fill="none" stroke="currentColor" stroke-width="2">
    <path d="M6.63 72.7h28.3c2.97 0 5.4-2.4 5.4-5.4V6.4c0-2.98-2.43-5.4-5.4-5.4H6.62c-3 0-5.4 2.42-5.4 5.4v60.9c0 3 2.4 5.4 5.4 5.4zM18.23 64.42c0-1.5 1.22-2.73 2.74-2.73 1.5 0 2.74 1.2 2.74 2.72 0 1.5-1.22 2.73-2.73 2.73-1.52 0-2.74-1.22-2.74-2.73zM21 16.22c4.7 0 8.5 3.78 8.5 8.45s-3.8 8.45-8.5 8.45c-4.67 0-8.47-3.78-8.47-8.45s3.8-8.45 8.48-8.45zM34.32 45.44c0-3.86-2.28-7.65-6.8-7.65H14.42c-4.13 0-6.72 3.34-6.72 7.53"/>
  </g>
</svg>
