<svg viewBox="0 0 16 16" fill="none" xmlns="http://www.w3.org/2000/svg">
  <title>Smile</title>
  <mask id="mask0" mask-type="alpha" maskUnits="userSpaceOnUse" x="0" y="0" width="16" height="16">
    <path fill-rule="evenodd" clip-rule="evenodd" d="M8 16C3.58172 16 0 12.4183 0 8C0 3.58172 3.58172 0 8 0C12.4183 0 16 3.58172 16 8C16 12.4183 12.4183 16 8 16ZM8 14.2222C11.4364 14.2222 14.2222 11.4364 14.2222 8C14.2222 4.56356 11.4364 1.77778 8 1.77778C4.56356 1.77778 1.77778 4.56356 1.77778 8C1.77778 11.4364 4.56356 14.2222 8 14.2222ZM11.1427 9.88562C11.4898 10.2328 11.4898 10.7956 11.1427 11.1427C9.40703 12.8784 6.59297 12.8784 4.8573 11.1427C4.51017 10.7956 4.51017 10.2328 4.8573 9.88562C5.20444 9.53849 5.76725 9.53849 6.11438 9.88562C7.15578 10.927 8.84422 10.927 9.88562 9.88562C10.2328 9.53849 10.7956 9.53849 11.1427 9.88562ZM4.88889 8C5.62527 8 6.22222 7.40305 6.22222 6.66667C6.22222 5.93029 5.62527 5.33333 4.88889 5.33333C4.15251 5.33333 3.55556 5.93029 3.55556 6.66667C3.55556 7.40305 4.15251 8 4.88889 8ZM12.4444 6.66667C12.4444 7.40305 11.8475 8 11.1111 8C10.3747 8 9.77778 7.40305 9.77778 6.66667C9.77778 5.93029 10.3747 5.33333 11.1111 5.33333C11.8475 5.33333 12.4444 5.93029 12.4444 6.66667Z" fill="white"/>
  </mask>
  <g mask="url(#mask0)">
    <rect width="16" height="16" fill="#524D6E"/>
  </g>
</svg>
