<svg viewBox="0 0 18 18" xmlns="http://www.w3.org/2000/svg" xmlns:xlink="http://www.w3.org/1999/xlink">
  <title>Star</title>
  <path d="M5.38385912,14.3888887 L8.53465887,12.7324153 C8.8259829,12.5792572 9.1740171,12.5792572 9.46534113,12.7324153 L12.6161409,14.3888887 L12.0143917,10.8804216 C11.9587537,10.5560276 12.0663022,10.2250274 12.3019883,9.99529022 L14.8510389,7.51058003 L11.3283376,6.99870158 C11.0026275,6.95137312 10.7210619,6.74680375 10.5753999,6.45166027 L9,3.25955146 L7.42460012,6.45166027 C7.27893811,6.74680375 6.99737252,6.95137312 6.67166236,6.99870158 L3.14896114,7.51058003 L5.69801169,9.99529022 C5.93369778,10.2250274 6.04124626,10.5560276 5.98560832,10.8804216 L5.38385912,14.3888887 Z M9,14.7473224 L4.52106922,17.1020357 C3.78744184,17.4877264 2.9300094,16.8647653 3.07011977,16.0478592 L3.92551943,11.0604965 L0.301988309,7.52842659 C-0.29152871,6.94989048 0.0359813357,5.9419182 0.856201684,5.82273321 L5.86379853,5.09508679 L8.10326392,0.557434289 C8.47007761,-0.18581143 9.52992239,-0.18581143 9.89673608,0.557434289 L12.1362015,5.09508679 L17.1437983,5.82273321 C17.9640187,5.9419182 18.2915287,6.94989048 17.6980117,7.52842659 L14.0744806,11.0604965 L14.9298802,16.0478592 C15.0699906,16.8647653 14.2125582,17.4877264 13.4789308,17.1020357 L9,14.7473224 Z"/>
</svg>
