<svg width="16" height="16" viewBox="0 0 16 16" fill="none" xmlns="http://www.w3.org/2000/svg">
  <title>Sun Icon</title>
  <path
    d="M8 3.99C8.41 3.99 8.75 3.65 8.75 3.24V0.75C8.75 0.34 8.41 0 8 0C7.59 0 7.25 0.34 7.25 0.75V3.24C7.25 3.65 7.58 3.99 8 3.99Z"
    fill="currentColor"
  />
  <path
    d="M8 5C6.35 5 5 6.34 5 8C5 9.66 6.35 11 8 11C9.65 11 11 9.65 11 8C11 6.35 9.66 5 8 5ZM8 9.5C7.18 9.5 6.5 8.82 6.5 8C6.5 7.18 7.18 6.5 8 6.5C8.82 6.5 9.5 7.17 9.5 8C9.5 8.83 8.83 9.5 8 9.5Z"
    fill="currentColor"
  />
  <path
    d="M8 12C7.59 12 7.25 12.34 7.25 12.75V15.24C7.25 15.65 7.59 15.99 8 15.99C8.41 15.99 8.75 15.65 8.75 15.24V12.75C8.75 12.34 8.41 12 8 12Z"
    fill="currentColor"
  />
  <path
    d="M4.12 5.18C4.26 5.32 4.45 5.4 4.65 5.4C4.85 5.4 5.03 5.33 5.18 5.18C5.47 4.89 5.47 4.41 5.18 4.12L3.4 2.34C3.11 2.05 2.63 2.05 2.34 2.34C2.05 2.63 2.05 3.11 2.34 3.4L4.12 5.18Z"
    fill="currentColor"
  />
  <path
    d="M11.9 10.84C11.61 10.55 11.13 10.55 10.84 10.84C10.55 11.13 10.55 11.61 10.84 11.9L12.59 13.65C12.74 13.8 12.93 13.87 13.12 13.87C13.31 13.87 13.5 13.8 13.65 13.65C13.94 13.36 13.94 12.88 13.65 12.59L11.9 10.84Z"
    fill="currentColor"
  />
  <path
    d="M11.4 5.34C11.59 5.34 11.78 5.27 11.93 5.12L13.65 3.4C13.94 3.11 13.94 2.63 13.65 2.34C13.36 2.05 12.88 2.05 12.59 2.34L10.87 4.06C10.58 4.35 10.58 4.83 10.87 5.12C11.02 5.27 11.21 5.34 11.4 5.34Z"
    fill="currentColor"
  />
  <path
    d="M4.15 10.78L2.35 12.58C2.06 12.87 2.06 13.35 2.35 13.64C2.5 13.79 2.69 13.86 2.88 13.86C3.07 13.86 3.26 13.79 3.41 13.64L5.21 11.84C5.5 11.55 5.5 11.07 5.21 10.78C4.92 10.49 4.44 10.49 4.15 10.78Z"
    fill="currentColor"
  />
  <path
    d="M4.02 8C4.02 7.59 3.68 7.25 3.27 7.25H0.75C0.34 7.25 0 7.58 0 8C0 8.42 0.34 8.75 0.75 8.75H3.27C3.69 8.75 4.02 8.41 4.02 8Z"
    fill="currentColor"
  />
  <path
    d="M15.24 7.25H12.77C12.36 7.25 12.02 7.59 12.02 8C12.02 8.41 12.36 8.75 12.77 8.75H15.24C15.65 8.75 15.99 8.41 15.99 8C15.99 7.59 15.65 7.25 15.24 7.25Z"
    fill="currentColor"
  />
</svg>
