<svg viewBox="0 0 16 16" fill="none" xmlns="http://www.w3.org/2000/svg">
  <title>Sun Icon</title>
  <mask id="mask0" mask-type="alpha" maskUnits="userSpaceOnUse" x="-1" y="0" width="17" height="17">
    <path fill-rule="evenodd" clip-rule="evenodd" d="M2.85999 8.04001C2.85999 10.87 5.15998 13.16 7.97998 13.16C10.8 13.16 13.09 10.86 13.1 8.04001C13.1 5.21001 10.81 2.92001 7.97998 2.92001C5.14998 2.92001 2.85999 5.22001 2.85999 8.04001ZM4.10999 8.05002C4.10999 5.91002 5.84998 4.18002 7.97998 4.18002C10.11 4.18002 11.84 5.91002 11.85 8.05002C11.85 10.19 10.12 11.92 7.97998 11.92C5.83998 11.92 4.10999 10.18 4.10999 8.05002ZM11.9814 3.16389L13.192 1.95612L14.0748 2.84099L12.8643 4.04877L11.9814 3.16389ZM3.08813 12.0545L1.87762 13.2623L2.7605 14.1472L3.971 12.9394L3.08813 12.0545ZM11.9774 12.931L12.8609 12.0468L14.0706 13.2554L13.1871 14.1397L11.9774 12.931ZM2.75539 1.93643L1.87189 2.82068L3.08154 4.02931L3.96504 3.14506L2.75539 1.93643ZM8.59998 0.0400391H7.34998V1.75004H8.59998V0.0400391ZM7.34998 14.33H8.59998V16.04H7.34998V14.33ZM15.98 7.42001H14.27V8.67001H15.98V7.42001ZM-0.0200195 7.42001H1.68999V8.67001H-0.0200195V7.42001Z" fill="white"/>
  </mask>
  <g mask="url(#mask0)">
    <rect width="16" height="16" fill="currentColor"/>
  </g>
</svg>
