<svg width="16" height="16" viewBox="0 0 16 16" fill="none" xmlns="http://www.w3.org/2000/svg">
  <title>Temperature Icon</title>
  <path fill-rule="evenodd" clip-rule="evenodd" d="M7.36001 2.65001C7.36001 1.88001 6.74001 1.26001 5.97001 1.26001C5.21001 1.26001 4.59001 1.88001 4.60001 2.66001V8.11001C4.60001 8.43001 4.45001 8.74001 4.18001 8.92001C3.26001 9.55001 2.67001 10.64 2.80001 11.9C2.93001 13.19 3.90002 14.32 5.16002 14.64C5.44002 14.71 5.71001 14.74 5.98001 14.74C7.64001 14.74 9.04001 13.46 9.17001 11.78C9.25001 10.59 8.68001 9.51001 7.76001 8.89001C7.50001 8.71001 7.36001 8.4 7.36001 8.09V2.65001ZM3.33001 2.65001C3.33001 1.19001 4.52001 0.0100098 5.97001 0.0100098C7.43001 0.0100098 8.61001 1.20001 8.60001 2.65001V7.96001C9.83001 8.87001 10.51 10.35 10.4 11.87C10.23 14.18 8.28001 15.99 5.97001 15.99C5.59001 15.99 5.21001 15.94 4.84001 15.85C3.08001 15.4 1.73001 13.82 1.54001 12.02C1.38001 10.42 2.04001 8.91001 3.33001 7.97001V2.65001ZM10.56 2.03003H14.14V3.28003H10.56V2.03003ZM14.14 8V6.75H10.56V8H14.14ZM10.56 4.39014H12.35V5.64014H10.56V4.39014Z" fill="currentColor"/>
</svg>
