<svg viewBox="0 0 16 16" fill="none" xmlns="http://www.w3.org/2000/svg">
  <title>Thumbs Down Icon</title>
  <mask id="mask0" mask-type="alpha" maskUnits="userSpaceOnUse" x="-1" y="0" width="18" height="17">
    <path d="M8.88999 16.0002C7.97999 16.0002 7.21999 15.3501 7.03999 14.4301C6.66999 12.5401 5.91 10.2802 4.38 10.2802C3.02 10.2802 1.99999 10.0701 1.25999 9.65015C0.399986 9.16015 -0.0600112 8.37015 -0.0500112 7.36015L-0.0400015 0.980148L4.66999 0.990158L4.66 9.04015C6.42 9.20015 7.63 10.9302 8.27 14.1902C8.34 14.5202 8.58999 14.7502 8.88999 14.7502C9.22999 14.7502 9.52 14.4702 9.52 14.1302L9.53998 10.7002C9.53998 10.3902 9.66 10.1102 9.88 9.89015C10.1 9.68015 10.38 9.56015 10.69 9.56015H10.7L12.78 9.58015H12.79C13.46 9.58015 13.96 9.50015 14.29 9.34015C14.62 9.18015 14.75 8.96015 14.75 8.59015C14.75 8.35015 14.69 8.05015 14.21 7.84015C13.91 7.70015 13.72 7.40015 13.73 7.06015C13.74 6.73015 13.96 6.44015 14.27 6.33015C14.78 6.15015 14.78 5.89016 14.78 5.77016C14.78 5.41016 14.65 5.29016 14.45 5.21016C14.16 5.10016 13.97 4.83015 13.95 4.53015C13.93 4.21015 14.08 3.92015 14.36 3.75015C14.69 3.56015 14.74 3.11015 14.74 2.86015C14.74 2.57015 14.56 2.37015 14.42 2.25015C14.2 2.07015 13.92 1.97015 13.65 1.97015C13.25 1.97015 12.77 1.96016 12.27 1.94016C11.74 1.93016 11.2 1.91016 10.7 1.91016L9.00999 1.94016C8.43999 1.94016 7.16 2.13015 7.16 3.92015H5.91C5.91 1.96015 7.12999 0.690155 8.99999 0.690155C8.99999 0.690155 8.99999 0.690155 9.00999 0.690155L10.7 0.660156C11.22 0.660156 11.77 0.670155 12.31 0.690155C12.79 0.700155 13.26 0.720154 13.65 0.720154C14.2 0.720154 14.77 0.930146 15.21 1.29015C15.71 1.70015 15.99 2.27015 15.99 2.87015C15.99 3.48015 15.81 4.02016 15.49 4.41016C15.85 4.74016 16.03 5.21015 16.03 5.78015C16.03 6.33015 15.8 6.80015 15.38 7.14015C15.78 7.52015 16 8.02016 16 8.60016C16 9.46016 15.59 10.1102 14.83 10.4802C14.32 10.7202 13.67 10.8401 12.79 10.8401C12.79 10.8401 12.78 10.8401 12.77 10.8401L10.79 10.8202L10.77 14.1501C10.76 15.1601 9.91999 16.0002 8.88999 16.0002ZM1.19999 2.23015L1.18999 7.36015C1.18999 7.92015 1.4 8.29015 1.88 8.56015C2.25 8.77015 2.75999 8.91015 3.39999 8.98015L3.41 2.24016L1.19999 2.23015Z" fill="white"/>
  </mask>
  <g mask="url(#mask0)">
    <rect width="16" height="16" fill="currentColor"/>
  </g>
</svg>
