<svg width="16" height="16" viewBox="0 0 16 16" fill="none" xmlns="http://www.w3.org/2000/svg">
  <title>Thumbs Up Icon</title>
  <path
    d="M15.32 8.95001C15.25 8.78001 15.24 8.73001 15.25 8.61001C15.26 8.54001 15.28 8.49001 15.32 8.39001C15.42 8.14001 15.55 7.81001 15.44 7.23001C15.27 6.25001 14.47 5.67001 13.3 5.67001C12.82 5.67001 12.61 5.69001 12.4 5.71001C12.2 5.73001 12 5.74001 11.48 5.74001C11.02 5.74001 10.86 5.64001 10.84 5.61001C10.83 5.58001 10.83 5.40001 10.92 5.20001C11.18 4.62001 11.69 3.12001 10.91 1.61001C10.23 0.290013 9.13 -0.119987 8.34 0.0300133C7.7 0.160013 7.26 0.660013 7.21 1.30001C7.18 1.79001 7.27 2.14001 7.35 2.42001C7.44 2.75001 7.52 3.03001 7.4 3.70001C7.31 4.18001 7.1 4.30001 6.58 4.55001C6.47 4.61001 6.36 4.66001 6.25 4.72001C5.21 5.28001 4.7 6.06001 4.3 6.69001C3.98 7.19001 3.17 7.42001 1.75 7.42001C1.34 7.42001 0.999999 7.76001 0.999999 8.17001C0.999999 8.58001 1.34 8.92001 1.75 8.92001C3.1 8.92001 4.75 8.76001 5.56 7.50001C5.92 6.94001 6.26 6.42001 6.96 6.04001C7.05 5.99001 7.14 5.95001 7.23 5.91001C7.8 5.64001 8.66 5.23001 8.88 3.97001C9.06 2.96001 8.91 2.44001 8.8 2.02001C8.74 1.81001 8.7 1.68001 8.71 1.50001C8.88 1.52001 9.27 1.69001 9.58 2.29001C10.08 3.25001 9.69 4.29001 9.56 4.58001C9.44 4.84001 9.12 5.70001 9.6 6.43001C9.95 6.97001 10.59 7.24001 11.5 7.24001C12.09 7.24001 12.32 7.22001 12.55 7.20001C12.73 7.18001 12.91 7.17001 13.32 7.17001C13.92 7.17001 13.96 7.40001 13.98 7.49001C14.01 7.66001 14 7.69001 13.94 7.85001C13.89 7.98001 13.82 8.15001 13.79 8.38001C13.71 8.91001 13.85 9.27001 13.95 9.50001C14.02 9.67001 14.03 9.71001 14.01 9.83001C13.99 9.92001 13.99 9.93001 13.85 10.04C13.66 10.2 13.34 10.46 13.23 10.98C13.13 11.45 13.17 11.77 13.2 12C13.22 12.18 13.23 12.22 13.21 12.28C13.19 12.31 13.12 12.37 13.07 12.41C12.79 12.65 12.27 13.11 12.36 13.99C12.37 14.07 12.37 14.16 12.34 14.18C12.16 14.38 11.35 14.48 9.95 14.48C7.73 14.48 6.91 13.84 6.12 13.21C5.77 12.97 5.42 12.69 5 12.49C3.73 11.88 1.88 12.06 1.67 12.08C1.26 12.12 0.959999 12.49 0.999999 12.91C1.04 13.32 1.41 13.62 1.83 13.58C2.27 13.53 3.59 13.49 4.35 13.85C4.63 13.98 4.88 14.18 5.18 14.41C6.08 15.12 7.2 16 9.93 16C11.73 16 12.82 15.87 13.43 15.2C13.75 14.85 13.88 14.39 13.83 13.85C13.82 13.75 13.82 13.74 14.04 13.55C14.21 13.4 14.45 13.19 14.57 12.86C14.74 12.4 14.7 12.06 14.67 11.81C14.65 11.64 14.63 11.51 14.68 11.3C14.69 11.28 14.75 11.24 14.79 11.2C15 11.03 15.36 10.73 15.47 10.1C15.56 9.56001 15.42 9.19001 15.32 8.95001Z"
    fill="currentColor"
  />
</svg>
