<svg width="16" height="16" viewBox="0 0 16 16" fill="none" xmlns="http://www.w3.org/2000/svg">
  <title>Thumbs Up Icon</title>
  <path d="M10.7 15.4201L8.99001 15.3901C7.12001 15.3901 5.91 14.1201 5.91 12.1601H7.16C7.16 13.9501 8.45 14.1401 9 14.1401L10.71 14.1701C11.19 14.1701 11.74 14.1601 12.26 14.1401C12.76 14.1301 13.24 14.1201 13.64 14.1201C14.14 14.1201 14.73 13.7301 14.73 13.2201C14.73 12.9701 14.68 12.5201 14.35 12.3301C14.07 12.1601 13.91 11.8701 13.94 11.5501C13.96 11.2501 14.16 10.9801 14.44 10.8701C14.64 10.7901 14.77 10.6601 14.77 10.3101C14.77 10.1901 14.77 9.93008 14.26 9.75008C13.94 9.64008 13.73 9.35008 13.72 9.02008C13.71 8.69008 13.89 8.39008 14.2 8.25008C14.68 8.03008 14.74 7.73008 14.74 7.50008C14.74 7.18008 14.74 6.51007 12.76 6.51007L10.68 6.52008C10.4 6.53008 10.08 6.40008 9.87 6.19008C9.64999 5.97008 9.53 5.69008 9.53 5.38008L9.52 1.95007C9.52 1.61007 9.24 1.33008 8.89 1.33008C8.59 1.33008 8.33 1.56008 8.27 1.89008C7.63 5.15008 6.40999 6.88007 4.64999 7.04007V15.0901H-0.0599976V8.71008C-0.0599976 7.38008 0.710005 5.80008 4.38 5.80008C5.9 5.80008 6.66999 3.54007 7.03999 1.65007C7.21999 0.73007 7.98 0.0800781 8.89 0.0800781C9.92 0.0800781 10.76 0.920073 10.77 1.95007L10.78 5.28008L12.76 5.27008C15.43 5.27008 15.99 6.49007 15.99 7.51007C15.99 8.09007 15.78 8.59008 15.37 8.97008C15.79 9.31008 16.02 9.78006 16.02 10.3301C16.02 10.9001 15.83 11.3701 15.47 11.7001C15.79 12.0901 15.97 12.6301 15.97 13.2401C15.97 14.5201 14.76 15.3901 13.63 15.3901C13.24 15.3901 12.77 15.4001 12.28 15.4101C11.76 15.4101 11.2 15.4201 10.7 15.4201ZM1.2 13.8301H3.41V7.09007C1.2 7.32007 1.2 8.34008 1.2 8.71008V13.8301Z" fill="currentColor"/>
</svg>
