<svg viewBox="0 0 18 18" xmlns="http://www.w3.org/2000/svg" xmlns:xlink="http://www.w3.org/1999/xlink">
  <title>Thumbs down (filled)</title>
  <g fill="currentColor" transform="matrix(1 0 0 -1 0 18)">
    <path d="M17.77 10.05c0-.64-.26-1.2-.7-1.64.2-.3.3-.67.3-1.06 0-1.3-1.1-2.35-2.43-2.35H12.5c.3-1.22.1-2.22-.08-2.93C12.04.6 10.8-.25 9.45.07 7.93.4 8 1.5 8.05 1.96c0 .2 0 .4-.03.63-.12.72-.44 1.38-1.06 2.14-.3.36-.53.5-.7.6-.7.24-1.23.57-1.64.95-.07-.02-.12-.05-.2-.05h-1.7c-1.53 0-2.72 1-2.72 2.3v5.76c0 1.3 1.2 2.3 2.7 2.3h1.73c.08 0 .14-.02.22-.04.92.83 2.25 1.27 4.02 1.27h5.44c1.35 0 2.43-1.06 2.43-2.35 0-.22-.04-.42-.1-.62.8-.4 1.34-1.18 1.34-2.1 0-.5-.16-.97-.44-1.35.28-.38.44-.84.44-1.35z" />
  </g>
</svg>
