<svg viewBox="0 0 18 18" xmlns="http://www.w3.org/2000/svg" xmlns:xlink="http://www.w3.org/1999/xlink">
  <title>Thumbs down</title>
  <g transform="matrix(1 0 0 -1 0 18)" fill="currentColor">
    <path d="M14.1 15.83H8.68c-1.3 0-2.28-.28-2.8-.82-.42-.43-.44-.92-.44-1.02v-5.2c0-.25.16-1.14 1.53-1.56.04 0 .17-.07.3-.14.2-.1.7-.4 1.26-1.1.83-1.02 1.3-2 1.48-3.05.06-.37.05-.7.04-.93.3.04.42.44.45.58.2.74.3 1.65-.28 2.82-.14.28-.13.58 0 .84.1.43.47.75.93.75h3.8c.22 0 .4.15.4.34 0 .2-.18.36-.4.36h-.07c-.55 0-1 .44-1 1 0 .55.45 1 1 1h.47c.23 0 .42.16.42.35 0 .2-.2.36-.42.36h-.47c-.55 0-1 .46-1 1 0 .56.45 1 1 1h.47c.23 0 .42.17.42.36 0 .2-.2.36-.42.36H14.2s-.02 0-.03 0c-.02 0-.04 0-.06 0-.54 0-1 .45-1 1s.46 1 1 1c.24 0 .43.16.43.36 0 .2-.2.35-.42.35zM2.7 14.6c-.44 0-.7-.22-.7-.3V8.56c0-.07.26-.3.7-.3h.73v5.64c0 .02 0 .05 0 .1v.6H2.7zm15.07-4.55c0-.64-.26-1.2-.7-1.64.2-.3.3-.67.3-1.06 0-1.3-1.1-2.35-2.43-2.35H12.5c.3-1.22.1-2.22-.08-2.93C12.04.6 10.8-.25 9.45.07 7.93.4 8 1.5 8.05 1.96c0 .2 0 .4-.03.63-.12.72-.44 1.38-1.06 2.14-.3.36-.53.5-.7.6-.7.24-1.23.57-1.64.95-.07-.02-.12-.05-.2-.05h-1.7c-1.53 0-2.72 1-2.72 2.3v5.76c0 1.3 1.2 2.3 2.7 2.3h1.73c.08 0 .14-.02.22-.04.92.83 2.25 1.27 4.02 1.27h5.44c1.35 0 2.43-1.06 2.43-2.35 0-.22-.04-.42-.1-.62.8-.4 1.34-1.18 1.34-2.1 0-.5-.16-.97-.44-1.35.28-.38.44-.84.44-1.35z" />
  </g>
</svg>
