<svg viewBox="0 0 16 16" fill="none" xmlns="http://www.w3.org/2000/svg">
  <title>Timer Icon</title>
  <path fill-rule="evenodd" clip-rule="evenodd" d="M11.08 1.21008V2.76008C13.41 3.90008 15.02 6.28008 15.03 9.05008C15.03 12.9201 11.89 16.0601 8.02002 16.0601C4.15002 16.0601 1.01001 12.9201 1.01001 9.05008C1.01001 6.29008 2.62001 3.90008 4.95001 2.76008V1.21008C4.95001 0.590075 5.46002 0.0800781 6.08002 0.0800781H9.95001C10.57 0.0800781 11.08 0.590075 11.08 1.21008ZM9.82002 1.33008H6.20001V2.29008C6.78001 2.13008 7.38001 2.04008 8.01001 2.04008C8.64001 2.04008 9.24002 2.14008 9.82002 2.29008V1.33008ZM2.25002 9.05008C2.25002 12.2301 4.84001 14.8101 8.01001 14.8101C11.19 14.8101 13.77 12.2301 13.77 9.05008C13.77 5.87008 11.19 3.29008 8.01001 3.29008C4.83001 3.29008 2.25002 5.87008 2.25002 9.05008ZM7.38 5.96997H8.64V9.41997H11.48V10.67H7.38V5.96997Z" fill="currentColor"/>
</svg>
