<svg width="16" height="16" viewBox="0 0 16 16" fill="none" xmlns="http://www.w3.org/2000/svg">
  <title>Transfer Icon</title>
  <path
    d="M10.4334 11.0726H3.19822C3.91773 10.423 4.51733 9.51363 4.51733 8.25447C4.51733 7.87473 4.20754 7.56493 3.82779 7.56493C3.44805 7.56493 3.14825 7.86473 3.14825 8.24448C3.14825 10.2531 0.510017 11.0626 0.49003 11.0726C0.190231 11.1625 -0.0096349 11.4323 0.000358402 11.7421C0.0103517 12.0519 0.220211 12.3118 0.52001 12.3917C0.629937 12.4217 3.11827 13.0812 3.11827 15.2598C3.11827 15.6395 3.42806 15.9493 3.80781 15.9493C4.18755 15.9493 4.49735 15.6395 4.49735 15.2598C4.49735 14.0406 3.9677 13.1112 3.28816 12.4417H10.4534C10.8331 12.4417 11.1429 12.1319 11.1429 11.7521C11.1129 11.3724 10.8131 11.0726 10.4334 11.0726Z"
    fill="currentColor"
  />
  <path
    d="M15.47 3.54762C15.3601 3.51764 12.8717 2.85809 12.8717 0.679545C12.8817 0.309792 12.5719 0 12.1922 0C11.8124 0 11.5027 0.309792 11.5027 0.689538C11.5027 1.90872 12.0323 2.8381 12.7118 3.50765H5.55664C5.17689 3.50765 4.8671 3.81744 4.8671 4.19719C4.8671 4.57693 5.17689 4.88673 5.55664 4.88673H12.7918C12.0723 5.53629 11.4727 6.44568 11.4727 7.70484C11.4727 8.08459 11.7825 8.39438 12.1622 8.39438C12.542 8.39438 12.8518 8.08459 12.8518 7.70484C12.8518 5.69618 15.49 4.88673 15.51 4.87673C15.8098 4.78679 16.0096 4.51697 15.9996 4.20718C15.9797 3.89739 15.7698 3.62757 15.47 3.54762Z"
    fill="currentColor"
  />
</svg>
