<svg width="16" height="16" viewBox="0 0 16 16" fill="none" xmlns="http://www.w3.org/2000/svg">
  <title>Trash Icon</title>
  <path
    d="M14.25 2.68994H11.49C11.44 1.49994 11.09 -6.10352e-05 8.62 -6.10352e-05C6.62 -6.10352e-05 5.68 0.819939 5.53 2.68994H2.75C2.34 2.68994 2 3.02994 2 3.43994C2 3.84994 2.34 4.18994 2.75 4.18994H3.12V14.3399C3.12 15.2499 3.86 15.9899 4.77 15.9899H12.23C13.14 15.9899 13.88 15.2499 13.88 14.3399V4.18994H14.25C14.66 4.18994 15 3.84994 15 3.43994C15 3.02994 14.66 2.68994 14.25 2.68994ZM8.62 1.49994C9.7 1.49994 9.94 1.72994 9.99 2.68994H7.02C7.11 1.66994 7.52 1.49994 8.62 1.49994ZM12.38 14.3399C12.38 14.4199 12.31 14.4899 12.23 14.4899H4.77C4.69 14.4899 4.62 14.4199 4.62 14.3399V4.18994H12.38V14.3399Z"
    fill="currentColor"
  />
  <path
    d="M7 12.8399C7.41 12.8399 7.75 12.4999 7.75 12.0899V6.58994C7.75 6.17994 7.41 5.83994 7 5.83994C6.59 5.83994 6.25 6.17994 6.25 6.58994V12.0899C6.25 12.5099 6.59 12.8399 7 12.8399Z"
    fill="currentColor"
  />
  <path
    d="M10 12.8399C10.41 12.8399 10.75 12.4999 10.75 12.0899V6.58994C10.75 6.17994 10.41 5.83994 10 5.83994C9.59 5.83994 9.25 6.17994 9.25 6.58994V12.0899C9.25 12.5099 9.59 12.8399 10 12.8399Z"
    fill="currentColor"
  />
</svg>
