<svg width="16" height="16" viewBox="0 0 16 16" fill="none" xmlns="http://www.w3.org/2000/svg">
  <title>Treatment Plan Icon</title>
  <path fill-rule="evenodd" clip-rule="evenodd" d="M11.86 1.31006V2.96005V4.21005H13.11H14.76V6.13007H13.11H11.86V7.38007V9.03006H9.93999V7.38007V6.13007H8.68999H7.03998V4.21005H8.68999H9.93999V2.96005V1.31006H11.86ZM13.1 0.0600586H8.68999V2.96005H5.78998V7.37006H8.68999V10.2701H13.1V7.37006H16V2.96005H13.1V0.0600586ZM0 16.04H11.25V11.82H10V14.79H1.25V1.29004H6.21001V0.0400391H0V16.04ZM6.34999 8.84009H3.48999V10.0901H6.34999V8.84009ZM3.48999 11.6799H8.54999V12.9299H3.48999V11.6799Z" fill="currentColor"/>
</svg>
