<svg viewBox="0 0 16 16" fill="none" xmlns="https://www.w3.org/2000/svg">
  <title>Truck Icon</title>
  <path d="M16 8.38019L13.4963 5.52017H12.4289V1.2002H0V12.9702H1.54614C1.54614 14.2702 2.60348 15.3202 3.89027 15.3202C5.18702 15.3202 6.23441 14.2602 6.23441 12.9702H9.04738C9.04738 14.2702 10.1047 15.3202 11.3915 15.3202C12.6883 15.3202 13.7356 14.2602 13.7356 12.9702C13.7356 12.8902 13.7157 12.8102 13.7157 12.7202H15.98V8.38019H16ZM4.9975 12.9702C4.9975 13.5802 4.49875 14.0702 3.90025 14.0702C3.30175 14.0702 2.80299 13.5702 2.80299 12.9702C2.80299 12.3602 3.29177 11.8702 3.90025 11.8702C4.50873 11.8702 4.9975 12.3702 4.9975 12.9702ZM9.42644 11.7202H5.87531C5.45636 11.0602 4.72817 10.6202 3.89027 10.6202C3.05236 10.6202 2.32419 11.0602 1.90524 11.7202H1.2369V2.4502H11.1721V10.6402C10.4439 10.7202 9.80549 11.1202 9.42644 11.7202ZM11.4015 14.0802C10.793 14.0802 10.3042 13.5802 10.3042 12.9802C10.3042 12.3702 10.803 11.8802 11.4015 11.8802C11.9202 11.8802 12.3392 12.2502 12.4489 12.7402C12.4688 12.8202 12.4987 12.9002 12.4987 12.9902C12.5087 13.5802 12.01 14.0802 11.4015 14.0802ZM14.7531 11.4802H13.207C12.9975 11.2302 12.7381 11.0202 12.4389 10.8702V6.77017H12.9277L14.7531 8.85019V11.4802Z" fill="currentColor"/>
</svg>
