<svg viewBox="0 0 16 16" fill="none" xmlns="http://www.w3.org/2000/svg">
  <title>Truck Icon</title>
  <path
    d="M12.74 0H3.2C2.54 0 2 0.54 2 1.2V14.8C2 15.46 2.54 16 3.2 16H12.74C13.4 16 13.94 15.46 13.94 14.8V1.2C13.94 0.54 13.4 0 12.74 0ZM12.44 14.5H3.5V1.5H12.44V14.5Z"
    fill="currentColor"
  />
  <path
    d="M5.22 11.15H10.72C11.13 11.15 11.47 10.81 11.47 10.4C11.47 9.99 11.14 9.65 10.72 9.65H5.22C4.81 9.65 4.47 9.99 4.47 10.4C4.47 10.81 4.8 11.15 5.22 11.15Z"
    fill="currentColor"
  />
  <path
    d="M5.22 13.56H7.72C8.13 13.56 8.47 13.22 8.47 12.81C8.47 12.4 8.13 12.06 7.72 12.06H5.22C4.81 12.06 4.47 12.4 4.47 12.81C4.47 13.22 4.8 13.56 5.22 13.56Z"
    fill="currentColor"
  />
  <path
    d="M5.43 6.46H7.22V8.25C7.22 8.67 7.56 9 7.97 9C8.38 9 8.72 8.66 8.72 8.25V6.46H10.51C10.92 6.46 11.26 6.12 11.26 5.71C11.26 5.3 10.93 4.96 10.51 4.96H8.72V3.16C8.72 2.75 8.38 2.41 7.97 2.41C7.56 2.41 7.22 2.75 7.22 3.16V4.95H5.43C5.02 4.95 4.68 5.29 4.68 5.7C4.68 6.11 5.01 6.46 5.43 6.46Z"
    fill="currentColor"
  />
</svg>
