<svg viewBox="0 0 16 16" fill="none" xmlns="http://www.w3.org/2000/svg">
  <title>Tungsten Icon</title>
  <mask id="mask0" mask-type="alpha" maskUnits="userSpaceOnUse" x="1" y="0" width="13" height="17">
    <path d="M10.39 4.80004V2.29004H8.52003V0.0400391H7.20002V2.29004H5.33002V4.80004C4.02002 5.42004 2.96002 6.52004 2.39002 7.86004C1.75002 9.37004 1.78002 11.09 2.47002 12.7C3.01002 13.96 4.03002 14.99 5.28002 15.53C6.13002 15.9 7.01002 16.08 7.87002 16.08C9.02002 16.08 10.13 15.75 11.12 15.11C12.8 14.01 13.8 12.15 13.8 10.15C13.79 7.83003 12.47 5.78004 10.39 4.80004ZM10.42 14.07C9.06002 14.96 7.36003 15.08 5.77003 14.39C4.81003 13.98 4.03002 13.19 3.61002 12.22C2.90002 10.56 3.18002 9.20004 3.53002 8.35004C4.02002 7.19004 4.98002 6.26004 6.17002 5.80004L6.57003 5.65003V3.55004H9.14002V5.65003L9.54002 5.80004C11.36 6.50004 12.54 8.21003 12.54 10.15C12.54 11.73 11.75 13.2 10.42 14.07Z" fill="white"/>
  </mask>
  <g mask="url(#mask0)">
    <rect width="16" height="16" fill="#332E54"/>
  </g>
</svg>
