<svg width="16" height="16" viewBox="0 0 16 16" fill="none" xmlns="http://www.w3.org/2000/svg">
  <title>Twitter Icon</title>
  <path fill-rule="evenodd" clip-rule="evenodd" d="M5.032 14.7814C11.0693 14.7814 14.3716 9.77872 14.3716 5.44094C14.3716 5.29961 14.3689 5.15828 14.3618 5.01694C15.0036 4.55383 15.56 3.97605 16 3.31739C15.4116 3.57783 14.7787 3.75472 14.1147 3.83472C14.792 3.4285 15.312 2.78494 15.5582 2.01872C14.9236 2.39383 14.2213 2.66761 13.4738 2.81517C12.8747 2.17694 12.0213 1.77783 11.0773 1.77783C9.26489 1.77783 7.79378 3.24805 7.79378 5.05961C7.79378 5.31828 7.824 5.56894 7.87911 5.80894C5.152 5.67205 2.73244 4.36539 1.11378 2.37961C0.831111 2.86405 0.669333 3.4285 0.669333 4.0285C0.669333 5.16805 1.248 6.1725 2.12889 6.76183C1.59111 6.74494 1.08533 6.5965 0.643556 6.35117C0.642667 6.3645 0.642667 6.37872 0.642667 6.39205C0.642667 7.98317 1.77333 9.31028 3.27556 9.61161C3 9.68628 2.71022 9.72628 2.41067 9.72628C2.19822 9.72628 1.99289 9.70494 1.79289 9.66672C2.21067 10.9716 3.42222 11.9201 4.86044 11.9476C3.736 12.8276 2.32089 13.3529 0.783111 13.3529C0.518222 13.3529 0.256889 13.3369 0 13.3067C1.45244 14.2383 3.17778 14.7814 5.032 14.7814Z" fill="currentColor"/>
</svg>
