<svg viewBox="0 0 16 16" fill="none" xmlns="http://www.w3.org/2000/svg">
  <title>Upload Icon</title>
  <path
    d="M2.78 6.19002C4.89 6.19002 6.32 5.00002 7.25 3.75002V11.26C7.25 11.67 7.59 12.01 8 12.01C8.41 12.01 8.75 11.67 8.75 11.26V3.91002C9.74 5.12002 11.2 6.14002 13.22 6.14002C13.63 6.14002 13.97 5.80002 13.97 5.39002C13.97 4.98002 13.63 4.64002 13.22 4.64002C9.76 4.64002 8.73 0.740022 8.69 0.570022C8.61 0.240022 8.31 0.0100222 7.98 2.21546e-05C7.68 -0.00997785 7.34 0.210022 7.25 0.540022C7.23 0.580022 5.99 4.69002 2.78 4.69002C2.37 4.69002 2.03 5.03002 2.03 5.44002C2.03 5.85002 2.36 6.19002 2.78 6.19002Z"
    fill="currentColor"
  />
  <path
    d="M15.25 8.60002C14.84 8.60002 14.5 8.94002 14.5 9.35002V14.49H1.5V9.35002C1.5 8.94002 1.16 8.60002 0.75 8.60002C0.34 8.60002 0 8.94002 0 9.35002V14.8C0 15.47 0.54 16 1.2 16H14.8C15.46 16 16 15.47 16 14.81V9.35002C16 8.94002 15.66 8.60002 15.25 8.60002Z"
    fill="currentColor"
  />
</svg>
