<svg viewBox="0 0 16 16" fill="none" xmlns="https://www.w3.org/2000/svg">
  <title>User Icon</title>
  <path d="M11.88 10.22C13.12 9.16 13.9 7.58 13.9 5.82C13.9 2.61 11.29 0 8.08001 0C4.86001 0 2.26001 2.61 2.26001 5.82C2.26001 7.58 3.03001 9.15 4.26001 10.21C2.65001 11.25 1.70001 13.03 1.70001 15.25V15.87H14.44V15.25C14.44 13.03 13.49 11.26 11.88 10.22ZM3.51001 5.82C3.51001 3.3 5.56001 1.25 8.08001 1.25C10.6 1.25 12.65 3.3 12.65 5.82C12.65 7.39 11.85 8.78 10.64 9.6C9.91001 10.1 9.03001 10.39 8.08001 10.39C7.13001 10.39 6.24001 10.1 5.51001 9.59C4.30001 8.77 3.51001 7.39 3.51001 5.82ZM2.98001 14.62C3.16001 12.95 4.03001 11.68 5.42001 11C6.22001 11.41 7.12001 11.64 8.08001 11.64C9.04001 11.64 9.94001 11.41 10.73 11C12.11 11.68 12.98 12.95 13.16 14.62H2.98001Z" fill="currentColor"/>
</svg>
