<svg viewBox="0 0 16 16" fill="none" xmlns="http://www.w3.org/2000/svg">
  <title>Error Icon</title>
  <path fill-rule="evenodd" clip-rule="evenodd" d="M14.6 6.78981C13.99 3.60981 11.21 1.30981 7.98003 1.30981C7.55003 1.30981 7.12003 1.34981 6.70003 1.42981C4.93003 1.76981 3.40003 2.77982 2.39003 4.26982C1.38003 5.75982 1.01003 7.55982 1.35003 9.32982C1.96003 12.5098 4.74003 14.8098 7.97003 14.8098C8.40003 14.8098 8.83003 14.7698 9.25003 14.6898C11.02 14.3498 12.55 13.3398 13.56 11.8498C14.57 10.3598 14.94 8.55981 14.6 6.78981ZM6.46003 0.199814C6.97003 0.109814 7.48003 0.0598145 7.98003 0.0598145C11.74 0.0598145 15.09 2.71982 15.83 6.54982C16.66 10.8898 13.82 15.0798 9.48003 15.9098C8.97003 15.9998 8.46003 16.0498 7.96003 16.0498C4.20003 16.0498 0.840032 13.3898 0.110032 9.55981C-0.719968 5.21981 2.12003 1.02981 6.46003 0.199814ZM7.32002 4.10986H8.73002V9.36986H7.32002V4.10986ZM7.15002 10.9399C7.15002 10.4599 7.54002 10.0999 8.03002 10.0999C8.52002 10.0999 8.91002 10.4599 8.91002 10.9399C8.91002 11.4299 8.52002 11.7999 8.03002 11.7999C7.54002 11.7999 7.15002 11.4299 7.15002 10.9399Z" fill="currentColor"/>
</svg>
