<svg viewBox="0 0 16 16" fill="none" xmlns="http://www.w3.org/2000/svg">
  <title>Eye Closed Icon</title>
  <path fill-rule="evenodd" clip-rule="evenodd" d="M7.16985 9.47176C6.51795 9.40621 5.89402 9.25345 5.30874 9.0255L4.03025 11.2703L2.94406 10.6517L4.18699 8.46932C3.6145 8.11917 3.09573 7.69031 2.64424 7.19802L0.855022 9.01048L-0.0345459 8.13232L1.87547 6.19749C1.52064 5.64184 1.23887 5.03434 1.04298 4.38942L2.23902 4.02612C2.98369 6.47775 5.21228 8.25809 7.89741 8.25809C10.5825 8.25809 12.8111 6.47775 13.5558 4.02612L14.7518 4.38942C14.5722 4.98087 14.3203 5.54087 14.0061 6.05825L15.9221 7.91475L15.0522 8.81246L13.26 7.07591C12.7641 7.64185 12.1815 8.12893 11.5315 8.51535L12.7482 10.6517L11.662 11.2703L10.4019 9.05768C9.77957 9.2909 9.1147 9.43955 8.41985 9.48943V12H7.16985V9.47176Z" fill="currentColor"/>
</svg>
