<svg viewBox="0 0 18 18" fill="currentColor" xmlns="http://www.w3.org/2000/svg" xmlns:xlink="http://www.w3.org/1999/xlink">
  <title>Error</title>
  <path d="M9,0.0002 C4.029,0.0002 0,4.0292 0,9.0002 C0,13.9712 4.029,18.0002 9,18.0002 C13.971,18.0002 18,13.9712 18,9.0002 C18,4.0292 13.971,0.0002 9,0.0002 M9,2.0002 C12.86,2.0002 16,5.1402 16,9.0002 C16,12.8592 12.86,16.0002 9,16.0002 C5.14,16.0002 2,12.8592 2,9.0002 C2,5.1402 5.14,2.0002 9,2.0002" />
  <path d="M9,9.8274 C8.447,9.8274 8,9.3804 8,8.8274 L8,5.9314 C8,5.3784 8.447,4.9314 9,4.9314 C9.553,4.9314 10,5.3784 10,5.9314 L10,8.8274 C10,9.3804 9.553,9.8274 9,9.8274" />
  <path d="M10.2061,12.1516 C10.2061,12.8186 9.6661,13.3586 9.0001,13.3586 C8.3341,13.3586 7.7941,12.8186 7.7941,12.1516 C7.7941,11.4856 8.3341,10.9456 9.0001,10.9456 C9.6661,10.9456 10.2061,11.4856 10.2061,12.1516" />
</svg>
