<svg viewBox="0 0 18 18" xmlns="http://www.w3.org/2000/svg" xmlns:xlink="http://www.w3.org/1999/xlink">
  <title>Info</title>
  <path d="M10,16 L11.0029699,16 C11.5536144,16 12,16.4438648 12,17 C12,17.5522847 11.5469637,18 11.0029699,18 L6.99703014,18 C6.4463856,18 6,17.5561352 6,17 C6,16.4477153 6.45303631,16 6.99703014,16 L8,16 L8,7 L7.0093689,7 C6.45190985,7 6,6.55613518 6,6 C6,5.44771525 6.44335318,5 7.0093689,5 L8.9906311,5 C9.54809015,5 10,5.44386482 10,6 L10,16 Z M10,1.5 C10,0.671572875 9.32842712,0 8.5,0 C7.67157288,0 7,0.671572875 7,1.5 C7,2.32842712 7.67157288,3 8.5,3 C9.32842712,3 10,2.32842712 10,1.5 Z"/>
</svg>
