<svg viewBox="0 0 18 16" stroke="none" fill="currentColor" xmlns="http://www.w3.org/2000/svg" xmlns:xlink="http://www.w3.org/1999/xlink">
  <title>Paperclip</title>
  <path d="M7.35427013,15.1012313 L3.30594166,11.0529028 C1.44255324,9.18951436 1.44255324,6.16907706 3.30594166,4.30568865 C5.16890578,2.44272453 8.19001777,2.44255063 10.0531558,4.30568865 L15.1135664,9.36609924 C16.4176107,10.6701436 16.4176107,12.7851048 15.1135664,14.0891491 C13.809522,15.3931935 11.6945609,15.3931935 10.3905165,14.0891491 L5.3301059,9.02873854 C4.58473086,8.2833635 4.58473086,7.07522792 5.3301059,6.32985289 C6.07548093,5.58447785 7.28361651,5.58447785 8.02899155,6.32985289 L13.0894021,11.3902635 C13.4620405,11.7629018 14.0662066,11.7629018 14.438845,11.3902635 C14.8114833,11.0176251 14.8114833,10.413459 14.438845,10.0408207 L9.37843437,4.98041006 C7.88778264,3.48975833 5.4713148,3.48975833 3.98066307,4.98041006 C2.49001134,6.47106179 2.49001134,8.88752964 3.98066307,10.3781814 L9.04107367,15.438592 C11.0903947,17.487913 14.4136881,17.487913 16.4630092,15.438592 C18.5123303,13.3892709 18.5123303,10.0659775 16.4630092,8.01665642 L11.4025986,2.95624582 C8.79414912,0.347796336 4.56470487,0.348039785 1.95649883,2.95624582 C-0.652166277,5.56491093 -0.652166277,9.79368049 1.95649883,12.4023456 L6.00482731,16.4506741 C6.37746566,16.8233124 6.98163179,16.8233124 7.35427013,16.4506741 C7.72690848,16.0780357 7.72690848,15.4738696 7.35427013,15.1012313 Z" />
</svg>
