<svg viewBox="0 0 18 18" stroke="none" fill="currentColor" fill-rule="evenodd" xmlns="http://www.w3.org/2000/svg" xmlns:xlink="http://www.w3.org/1999/xlink">
  <title>Photos</title>
  <path d="M16,11.9219 C13.412,13.4209 12.307,13.3429 9.521,11.6459 C6.475,9.7919 4.667,9.5269 2,10.8179 L2,3.9999 L16,3.9999 L16,11.9219 Z M2,13.9999 L2,13.0779 C4.588,11.5789 5.693,11.6569 8.479,13.3539 C8.884,13.5999 9.26,13.8089 9.625,13.9999 L2,13.9999 Z M17,1.9999 C17.553,1.9999 18,2.4479 18,2.9999 L18,14.9999 C18,15.5519 17.553,15.9999 17,15.9999 L1,15.9999 C0.447,15.9999 0,15.5519 0,14.9999 L0,2.9999 C0,2.4479 0.447,1.9999 1,1.9999 L17,1.9999 Z M12.5,9 C13.328,9 14,8.329 14,7.5 C14,6.671 13.328,6 12.5,6 C11.672,6 11,6.671 11,7.5 C11,8.329 11.672,9 12.5,9 Z" />
</svg>
