<svg viewBox="0 0 46 54" xmlns="http://www.w3.org/2000/svg" xmlns:xlink="http://www.w3.org/1999/xlink">
  <title>Postcard Hug</title>
  <path d="M11.9975 9.8428C11.5535 9.8428 11.1925 10.2028 11.1925 10.6478 11.1925 11.0928 11.5535 11.4528 11.9975 11.4528 12.4425 11.4528 12.8025 11.0928 12.8025 10.6478 12.8025 10.2028 12.4425 9.8428 11.9975 9.8428M16.2426 8.2334C15.7986 8.2334 15.4376 8.5934 15.4376 9.0384 15.4376 9.4824 15.7986 9.8424 16.2426 9.8424 16.6866 9.8424 17.0476 9.4824 17.0476 9.0384 17.0476 8.5934 16.6866 8.2334 16.2426 8.2334"/>
  <path d="M39.9701,31.4424 C38.7841,32.4404 37.4421,33.5714 36.1701,35.1484 C34.4401,37.2964 35.2581,39.9554 35.9811,42.3004 C36.9611,45.4864 37.3531,47.2084 34.7811,48.4944 C28.9281,51.4204 15.8571,50.8774 11.4681,47.5254 C8.2271,45.0484 10.8111,35.4224 11.6601,32.2594 L11.7071,32.0854 L11.7001,31.6654 C13.0851,30.6684 14.1441,29.3634 14.6721,27.9324 C15.2691,26.3194 15.1501,24.7524 14.3381,23.5184 C13.0151,21.5074 10.1491,20.9754 7.3741,21.9804 L7.3621,21.9584 L6.6471,21.6434 C3.4701,20.2524 2.2241,19.4704 2.7011,17.3104 C3.0741,15.6214 5.8381,15.0154 9.7411,15.7644 C17.0691,17.1734 19.6291,13.5034 22.4491,8.1684 L22.4981,8.0654 C22.6791,7.6374 22.8851,7.2414 23.1131,6.8864 C24.5531,4.6424 27.0031,3.3024 29.6661,3.3024 C33.9561,3.3024 37.4481,6.7944 37.4481,11.0844 C37.4481,11.7074 37.3631,12.3544 37.1961,13.0084 L37.1641,13.1784 C37.1171,13.5734 37.0691,14.0064 37.0211,14.4544 C36.6441,14.6034 36.2591,14.8064 35.8661,15.0644 C34.3181,16.0844 33.1511,17.4954 32.5801,19.0394 C31.9841,20.6524 32.1031,22.2194 32.9141,23.4534 C33.7261,24.6864 35.1181,25.4154 36.8351,25.5054 C36.9541,25.5114 37.0741,25.5144 37.1941,25.5144 C38.1281,25.5144 39.0871,25.3044 40.0221,24.9454 L40.1061,25.0184 C41.2841,26.0474 42.6201,27.2144 42.6201,28.0804 C42.6201,29.1574 41.6621,30.0164 39.9701,31.4424 M7.6991,31.5614 C7.0251,31.3154 6.3821,30.6854 5.6161,29.5204 C4.1961,27.3644 3.7481,25.5994 6.1801,23.9994 C7.4491,23.1644 8.8331,22.7514 10.0701,22.7514 C11.4261,22.7514 12.6041,23.2494 13.2521,24.2334 C13.8311,25.1124 13.9031,26.2654 13.4531,27.4814 C12.9781,28.7664 11.9901,29.9534 10.6701,30.8214 C9.4711,31.6114 8.4991,31.8514 7.6991,31.5614 M15.4381,3.3024 C17.4911,3.3024 19.4421,4.1054 20.9021,5.5214 C20.6141,5.9754 20.3531,6.4704 20.1251,7.0014 C17.4151,12.1204 15.6501,14.2524 10.2311,13.2124 C9.3401,13.0414 8.5421,12.9434 7.8011,12.8894 C7.6731,12.3224 7.5841,11.7464 7.5841,11.1564 C7.5841,6.8264 11.1081,3.3024 15.4381,3.3024 M39.5181,15.6864 C40.3651,16.1254 41.0761,17.0914 41.7211,18.0714 C42.4081,19.1144 42.8621,19.9584 42.8481,20.6894 C42.8381,21.1734 42.6451,21.9364 41.0721,22.9714 C39.7531,23.8394 38.2741,24.2814 36.9041,24.2074 C35.6101,24.1384 34.5781,23.6174 34.0001,22.7384 C33.4211,21.8594 33.3501,20.7054 33.7991,19.4894 C34.2751,18.2044 35.2621,17.0184 36.5811,16.1504 C37.4031,15.6094 38.0401,15.4374 38.5361,15.4374 C38.9541,15.4374 39.2741,15.5594 39.5181,15.6864 M42.4251,23.5954 C43.5731,22.6974 44.1281,21.7684 44.1481,20.7134 C44.1681,19.6444 43.6501,18.6364 42.8071,17.3564 C42.0671,16.2304 41.2281,15.1084 40.1161,14.5324 C39.9631,14.4534 39.8081,14.3864 39.6501,14.3324 C39.6791,14.0664 39.7081,13.8084 39.7371,13.5644 C39.9431,12.7294 40.0471,11.8954 40.0471,11.0844 C40.0471,5.3594 35.3911,0.7034 29.6661,0.7034 C26.9831,0.7034 24.4641,1.7244 22.5641,3.5124 C20.6381,1.7164 18.1021,0.7034 15.4381,0.7034 C9.6741,0.7034 4.9851,5.3924 4.9851,11.1564 C4.9851,11.7554 5.0361,12.3494 5.1371,12.9334 C1.2741,13.4394 0.3661,15.8324 0.1621,16.7494 C-0.7079,20.6824 2.0771,22.4124 4.6081,23.5804 C2.1261,25.8174 3.3281,28.4114 4.5301,30.2354 C5.1561,31.1864 6.0311,32.3364 7.2531,32.7824 C7.6201,32.9174 8.0001,32.9834 8.3951,32.9834 C8.5251,32.9834 8.6601,32.9604 8.7941,32.9454 C7.1591,39.3814 6.0621,46.6674 9.8901,49.5914 C12.8041,51.8174 18.5701,53.0004 24.2561,53.0004 C28.6491,53.0004 32.9941,52.2944 35.9431,50.8204 C40.6061,48.4884 39.3681,44.4694 38.4651,41.5364 C37.7601,39.2434 37.3891,37.7794 38.1951,36.7794 C39.3081,35.3984 40.5501,34.3534 41.6451,33.4304 C43.4841,31.8814 45.2201,30.4204 45.2201,28.0804 C45.2201,26.2824 43.8841,24.8964 42.4251,23.5954"/>
</svg>
