<svg viewBox="0 0 57 49" xmlns="http://www.w3.org/2000/svg" xmlns:xlink="http://www.w3.org/1999/xlink">
  <title>Postcard Heart</title>
  <path d="M51.96,22.7812 C51.942,22.8132 51.927,22.8462 51.912,22.8792 C46.478,32.4782 38.058,40.3642 28.141,45.1552 C18.221,40.3632 9.799,32.4742 4.364,22.8712 C4.351,22.8412 4.336,22.8112 4.32,22.7812 C3.26,20.8132 2.699,18.5852 2.699,16.3392 C2.699,8.8392 8.801,2.7382 16.301,2.7382 C17.877,2.7382 19.408,3.0072 20.844,3.5142 C24.271,4.7642 27.035,7.3232 28.562,10.7132 C28.787,11.2132 29.278,11.5092 29.794,11.5092 C29.979,11.5092 30.167,11.4702 30.347,11.3892 C31.027,11.0832 31.33,10.2842 31.024,9.6042 C30.67,8.8182 30.242,8.0852 29.782,7.3782 C32.369,4.4292 36.029,2.7382 39.981,2.7382 C47.48,2.7382 53.581,8.8392 53.581,16.3392 C53.581,18.5872 53.021,20.8152 51.96,22.7812 M39.981,0.0382 C35.444,0.0382 31.213,1.8782 28.141,5.1362 C26.799,3.7132 25.227,2.5792 23.514,1.7322 C23.481,1.7162 23.447,1.6992 23.414,1.6832 C22.966,1.4662 22.51,1.2702 22.043,1.0942 C21.872,1.0292 21.703,0.9642 21.53,0.9042 C21.251,0.8092 20.968,0.7282 20.684,0.6502 C20.436,0.5782 20.197,0.4882 19.944,0.4282 C19.865,0.4092 19.786,0.4012 19.707,0.3962 C18.602,0.1622 17.461,0.0382 16.301,0.0382 C7.313,0.0382 0,7.3502 0,16.3392 C0,18.9852 0.649,21.6112 1.879,23.9412 C1.899,23.9892 1.922,24.0372 1.948,24.0842 C7.758,34.4072 16.856,42.8562 27.568,47.8722 C27.749,47.9572 27.945,48.0002 28.141,48.0002 C28.336,48.0002 28.532,47.9572 28.713,47.8722 C39.425,42.8562 48.523,34.4072 54.333,24.0842 C54.36,24.0352 54.384,23.9852 54.405,23.9342 C55.633,21.6072 56.28,18.9842 56.28,16.3392 C56.28,7.3502 48.969,0.0382 39.981,0.0382"/>
</svg>
