<svg viewBox="0 0 18 18" xmlns="http://www.w3.org/2000/svg" xmlns:xlink="http://www.w3.org/1999/xlink">
  <title>Thumbs up</title>
  <path d="M14.1096,15.8304 L8.6716,15.8304 C7.3616,15.8304 6.3946,15.5464 5.8736,15.0094 C5.4496,14.5704 5.4276,14.0814 5.4266,13.9834 L5.4266,8.7934 C5.4426,8.5334 5.5936,7.6424 6.9646,7.2244 C6.9966,7.2144 7.1346,7.1544 7.2636,7.0814 C7.4566,6.9734 7.9686,6.6844 8.5246,5.9894 C9.3506,4.9634 9.8176,3.9914 9.9966,2.9334 C10.0596,2.5594 10.0546,2.2434 10.0416,2.0044 C10.3256,2.0434 10.4556,2.4434 10.4916,2.5804 C10.6866,3.3184 10.8066,4.2304 10.2186,5.4034 C10.0806,5.6794 10.0936,5.9814 10.2076,6.2444 C10.3226,6.6684 10.6936,6.9864 11.1546,6.9864 L14.9376,6.9864 C15.1666,6.9864 15.3606,7.1494 15.3606,7.3424 C15.3606,7.5344 15.1666,7.6974 14.9376,7.6974 L14.8816,7.6974 C14.3296,7.6974 13.8816,8.1444 13.8816,8.6974 C13.8816,9.2504 14.3296,9.6974 14.8816,9.6974 L15.3516,9.6974 C15.5806,9.6974 15.7746,9.8604 15.7746,10.0534 C15.7746,10.2454 15.5806,10.4084 15.3516,10.4084 L14.8816,10.4084 C14.3296,10.4084 13.8816,10.8554 13.8816,11.4084 C13.8816,11.9614 14.3296,12.4084 14.8816,12.4084 L15.3516,12.4084 C15.5806,12.4084 15.7746,12.5714 15.7746,12.7644 C15.7746,12.9564 15.5806,13.1194 15.3516,13.1194 L14.2136,13.1194 C14.1946,13.1194 14.1836,13.1244 14.1666,13.1254 C14.1476,13.1244 14.1296,13.1194 14.1096,13.1194 C13.5576,13.1194 13.1096,13.5664 13.1096,14.1194 C13.1096,14.6724 13.5576,15.1194 14.1096,15.1194 C14.3386,15.1194 14.5326,15.2824 14.5326,15.4754 C14.5326,15.6674 14.3386,15.8304 14.1096,15.8304 L14.1096,15.8304 Z M2.7136,14.6054 C2.2576,14.6054 2.0146,14.3834 1.9996,14.3134 L1.9996,8.5484 C2.0146,8.4764 2.2576,8.2544 2.7136,8.2544 L3.4266,8.2544 L3.4266,13.8884 C3.4256,13.9164 3.4266,13.9514 3.4266,13.9954 L3.4266,14.6054 L2.7136,14.6054 Z M17.7746,10.0534 C17.7746,9.4144 17.5096,8.8364 17.0846,8.4114 C17.2556,8.0894 17.3606,7.7284 17.3606,7.3424 C17.3606,6.0434 16.2736,4.9864 14.9376,4.9864 L12.4936,4.9864 C12.7876,3.7804 12.6126,2.7794 12.4246,2.0684 C12.0356,0.5944 10.7856,-0.2476 9.4506,0.0644 C7.9286,0.4244 8.0046,1.5174 8.0366,1.9844 C8.0496,2.1844 8.0626,2.3714 8.0246,2.6004 C7.9036,3.3174 7.5766,3.9764 6.9646,4.7374 C6.6726,5.1024 6.4296,5.2544 6.2656,5.3484 C5.5576,5.5764 5.0306,5.9144 4.6186,6.2934 C4.5546,6.2794 4.4956,6.2544 4.4266,6.2544 L2.7136,6.2544 C1.1916,6.2544 -0.0004,7.2614 -0.0004,8.5464 L-0.0004,14.3134 C-0.0004,15.5994 1.1916,16.6054 2.7136,16.6054 L4.4266,16.6054 C4.5056,16.6054 4.5736,16.5784 4.6476,16.5614 C5.5666,17.3904 6.9036,17.8304 8.6716,17.8304 L14.1096,17.8304 C15.4456,17.8304 16.5326,16.7734 16.5326,15.4754 C16.5326,15.2604 16.4936,15.0564 16.4376,14.8574 C17.2276,14.4694 17.7746,13.6814 17.7746,12.7644 C17.7746,12.2584 17.6066,11.7924 17.3266,11.4084 C17.6066,11.0244 17.7746,10.5594 17.7746,10.0534 L17.7746,10.0534 Z"/>
</svg>
