<svg viewBox="0 0 18 18" xmlns="http://www.w3.org/2000/svg" xmlns:xlink="http://www.w3.org/1999/xlink">
  <title>Truck</title>
  <path d="M16.0176,12.1787 L1.9996,12.1787 L1.9996,1.9997 L12.0016,1.9997 L12.0566,5.8717 C12.0646,6.4187 12.5096,6.8587 13.0566,6.8587 L15.0566,6.8587 L16.0356,9.3127 L16.0176,12.1787 Z M17.9646,8.7527 L16.6636,5.4887 C16.5116,5.1077 16.1436,4.8587 15.7346,4.8587 L14.0426,4.8587 L13.9886,0.9867 C13.9806,0.4397 13.5356,-0.0003 12.9886,-0.0003 L0.9996,-0.0003 C0.4476,-0.0003 -0.0004,0.4477 -0.0004,0.9997 L-0.0004,13.1787 C-0.0004,13.7317 0.4476,14.1787 0.9996,14.1787 L2.7726,14.1787 C2.7696,14.2167 2.7606,14.2527 2.7606,14.2907 C2.7606,15.1837 3.4876,15.9087 4.3796,15.9087 C5.2726,15.9087 5.9976,15.1837 5.9976,14.2907 C5.9976,14.2527 5.9896,14.2167 5.9876,14.1787 L11.9206,14.1787 C11.9176,14.2167 11.9096,14.2527 11.9096,14.2907 C11.9096,15.1837 12.6356,15.9087 13.5286,15.9087 C14.4206,15.9087 15.1466,15.1837 15.1466,14.2907 C15.1466,14.2527 15.1376,14.2167 15.1356,14.1787 L17.0116,14.1787 C17.5616,14.1787 18.0086,13.7347 18.0116,13.1847 L18.0366,9.1287 C18.0376,8.9997 18.0126,8.8717 17.9646,8.7527 L17.9646,8.7527 Z"/>
</svg>
